# Blender v2.78 (sub 0) OBJ File: 'video_store_poster_03.blend'
# www.blender.org
mtllib video_store_poster_03.mtl
o Mesh2_Group4_Group1_Model
v -0.226084 0.451805 0.012695
v -0.256221 0.451094 0.019759
v -0.255648 0.450520 0.021890
v -0.195623 0.452191 0.007163
v -0.225622 0.451342 0.014880
v -0.195274 0.451842 0.009389
v -0.164917 0.452334 0.003190
v -0.285276 0.449300 0.030381
v -0.285903 0.449927 0.028283
v -0.133931 0.452195 0.003071
v -0.103096 0.452209 0.002279
v -0.103126 0.452238 0.000000
v -0.134048 0.452312 0.000797
v -0.164684 0.452100 0.005446
v -0.287780 0.390109 0.012695
v -0.287069 0.420246 0.019759
v -0.288167 0.359647 0.007163
v -0.288309 0.328942 0.003190
v -0.288288 0.298072 0.000797
v -0.288214 0.267150 0.000000
v -0.288184 0.267121 0.002279
v -0.288171 0.297955 0.003071
v -0.288076 0.328708 0.005446
v -0.287818 0.359298 0.009389
v -0.287318 0.389646 0.014880
v -0.286496 0.419672 0.021890
v -0.288184 -0.447791 0.002278
v -0.288184 -0.447791 -0.000000
v 0.162397 -0.447791 0.002278
v 0.162420 -0.447815 -0.000000
v 0.187293 -0.447784 0.002791
v 0.187387 -0.447878 0.000515
v 0.310308 -0.446283 0.020532
v 0.286038 -0.446917 0.014994
v 0.286501 -0.447379 0.012810
v 0.310815 -0.446790 0.018369
v 0.261561 -0.447343 0.010437
v 0.261933 -0.447715 0.008219
v 0.236917 -0.447602 0.006877
v 0.237197 -0.447882 0.004632
v 0.212147 -0.447735 0.004325
v 0.212334 -0.447922 0.002061
v 0.311902 -0.323362 0.000515
v 0.311839 -0.298396 -0.000000
v 0.311947 -0.348310 0.002061
v 0.311906 -0.373173 0.004632
v 0.311739 -0.397909 0.008219
v 0.311404 -0.422476 0.012810
v 0.310941 -0.422014 0.014994
v 0.311367 -0.397537 0.010437
v 0.311626 -0.372893 0.006877
v 0.311760 -0.348123 0.004325
v 0.311809 -0.323269 0.002791
v 0.311816 -0.298373 0.002279
v 0.311816 0.452209 0.002279
v 0.311816 0.452209 0.000000
v -0.255648 0.450520 0.021890
v -0.286496 0.419672 0.021890
v -0.287318 0.389646 0.014880
v -0.225622 0.451342 0.014880
v -0.285276 0.449300 0.030381
v -0.287818 0.359298 0.009389
v -0.195274 0.451842 0.009389
v -0.288076 0.328708 0.005446
v -0.164684 0.452100 0.005446
v -0.288171 0.297955 0.003071
v -0.133931 0.452195 0.003071
v -0.288184 0.267121 0.002279
v -0.103096 0.452209 0.002279
v -0.288184 -0.447791 0.002278
v 0.162397 -0.447791 0.002278
v 0.311816 -0.298373 0.002279
v 0.311816 0.452209 0.002279
v 0.187293 -0.447784 0.002791
v 0.311809 -0.323269 0.002791
v 0.212147 -0.447735 0.004325
v 0.311760 -0.348123 0.004325
v 0.236917 -0.447602 0.006877
v 0.311626 -0.372893 0.006877
v 0.261561 -0.447343 0.010437
v 0.311367 -0.397537 0.010437
v 0.286038 -0.446917 0.014994
v 0.310941 -0.422014 0.014994
v 0.310308 -0.446283 0.020532
vt 0.6049 0.0628
vt 0.6118 0.0337
vt 0.6138 0.0343
vt 0.5996 0.0923
vt 0.6071 0.0633
vt 0.6017 0.0926
vt 0.5958 0.1220
vt 0.6220 0.0056
vt 0.6200 0.0050
vt 0.5956 0.1519
vt 0.5949 0.1817
vt 0.5927 0.1817
vt 0.5934 0.1518
vt 0.5979 0.1222
vt 0.7228 0.1351
vt 0.7825 0.1947
vt 0.7818 0.1656
vt 0.7520 0.1357
vt 0.6934 0.1347
vt 0.7828 0.2242
vt 0.6637 0.1346
vt 0.7830 0.2539
vt 0.6338 0.1346
vt 0.7830 0.2837
vt 0.6039 0.1346
vt 0.7829 0.3136
vt 0.7807 0.1369
vt 0.3038 0.9184
vt 0.2740 0.9176
vt 0.2739 0.9198
vt 0.3038 0.9206
vt 0.2440 0.9175
vt 0.2442 0.9153
vt 0.2143 0.9136
vt 0.2147 0.9115
vt 0.1849 0.9083
vt 0.1853 0.9062
vt 0.1557 0.9015
vt 0.1563 0.8994
vt 0.1276 0.8912
vt 0.1270 0.8932
vt 0.9950 0.9184
vt 0.9950 0.9206
vt 0.6197 0.3062
vt 0.6197 0.7419
vt 0.6219 0.7419
vt 0.6219 0.3062
vt 0.6192 0.2821
vt 0.6214 0.2820
vt 0.6021 0.1632
vt 0.6074 0.1867
vt 0.6095 0.1862
vt 0.6041 0.1627
vt 0.6118 0.2103
vt 0.6140 0.2100
vt 0.6153 0.2342
vt 0.6174 0.2339
vt 0.6177 0.2581
vt 0.6199 0.2579
vt 0.6303 0.1981
vt 0.7506 0.3185
vt 0.7748 0.3184
vt 0.6303 0.1740
vt 0.6302 0.2222
vt 0.7265 0.3185
vt 0.6303 0.2463
vt 0.7025 0.3185
vt 0.6304 0.2702
vt 0.6786 0.3183
vt 0.6307 0.2939
vt 0.6548 0.3180
vt 0.6313 0.3175
vt 0.0290 0.8963
vt 0.0055 0.9017
vt 0.0050 0.8996
vt 0.0285 0.8942
vt 0.0526 0.8919
vt 0.0523 0.8898
vt 0.0764 0.8885
vt 0.0762 0.8863
vt 0.1004 0.8860
vt 0.1002 0.8838
vt 0.1244 0.8845
vt 0.1243 0.8823
vt 0.1485 0.8840
vt 0.1485 0.8818
vt 0.8742 0.8840
vt 0.8742 0.8818
vt 0.5949 0.5829
vt 0.5927 0.5829
vt 0.0365 0.8735
vt 0.0066 0.8437
vt 0.0058 0.8147
vt 0.0655 0.8743
vt 0.0078 0.8724
vt 0.0054 0.7853
vt 0.0948 0.8748
vt 0.0051 0.7558
vt 0.1244 0.8751
vt 0.0050 0.7260
vt 0.1541 0.8752
vt 0.0050 0.6962
vt 0.1840 0.8752
vt 0.0050 0.0050
vt 0.4406 0.0050
vt 0.5851 0.1495
vt 0.5851 0.8752
vt 0.4647 0.0050
vt 0.5851 0.1254
vt 0.4887 0.0051
vt 0.5851 0.1014
vt 0.5127 0.0052
vt 0.5849 0.0774
vt 0.5365 0.0054
vt 0.5847 0.0536
vt 0.5602 0.0058
vt 0.5843 0.0299
vt 0.5837 0.0065
vn 0.0270 0.9754 0.2188
vn 0.0364 0.9657 0.2571
vn 0.0311 0.9705 0.2392
vn 0.0170 0.9854 0.1694
vn 0.0188 0.9823 0.1862
vn 0.0105 0.9906 0.1362
vn 0.0095 0.9928 0.1192
vn 0.0368 0.9640 0.2633
vn 0.0013 0.9991 0.0417
vn 0.0018 0.9995 0.0320
vn 0.0038 0.9981 0.0619
vn 0.0048 0.9963 0.0854
vn -0.2028 0.2028 -0.9580
vn -0.2515 0.2515 -0.9346
vn -0.1530 0.1530 -0.9763
vn -0.1025 0.1025 -0.9894
vn -0.0514 0.0514 -0.9974
vn -0.0257 0.0257 -0.9993
vn -0.2753 0.2753 -0.9211
vn -0.9998 -0.0009 0.0194
vn -0.9981 -0.0038 0.0619
vn -0.9991 -0.0032 0.0417
vn -0.9964 -0.0060 0.0851
vn -0.9928 -0.0083 0.1191
vn -0.9907 -0.0117 0.1359
vn -0.9854 -0.0157 0.1695
vn -0.9824 -0.0200 0.1857
vn -0.9755 -0.0257 0.2187
vn -0.9705 -0.0311 0.2389
vn -0.9657 -0.0345 0.2573
vn -0.9641 -0.0367 0.2631
vn -1.0000 -0.0000 0.0066
vn -0.0008 -0.9999 0.0156
vn -0.0000 -1.0000 0.0053
vn -0.0027 -0.9990 0.0437
vn -0.0008 -0.9999 0.0155
vn -0.0239 -0.9769 0.2124
vn -0.0214 -0.9801 0.1976
vn -0.0155 -0.9865 0.1628
vn -0.0096 -0.9924 0.1226
vn -0.0054 -0.9966 0.0819
vn 0.0411 -0.0411 -0.9983
vn 0.0206 -0.0206 -0.9996
vn 0.0821 -0.0821 -0.9932
vn 0.1228 -0.1228 -0.9848
vn 0.1630 -0.1630 -0.9731
vn 0.2028 -0.2028 -0.9580
vn 0.2224 -0.2224 -0.9492
vn 0.9800 0.0214 0.1978
vn 0.9768 0.0240 0.2126
vn 0.9865 0.0155 0.1629
vn 0.9924 0.0096 0.1226
vn 0.9966 0.0054 0.0818
vn 0.9991 0.0027 0.0434
vn 0.9999 0.0008 0.0152
vn 1.0000 0.0000 0.0050
vn 0.0000 1.0000 0.0064
vn 0.2515 -0.2515 0.9346
vn 0.2028 -0.2028 0.9580
vn 0.2753 -0.2753 0.9211
vn 0.1531 -0.1531 0.9763
vn 0.1025 -0.1025 0.9894
vn 0.0514 -0.0514 0.9974
vn 0.0128 -0.0128 0.9998
vn -0.0000 -0.0000 1.0000
vn -0.0103 0.0103 0.9999
vn -0.0411 0.0411 0.9983
vn -0.0821 0.0821 0.9932
vn -0.1228 0.1228 0.9848
vn -0.1631 0.1631 0.9730
vn -0.2028 0.2028 0.9580
vn -0.2224 0.2224 0.9492
usemtl FrontColor
s 1
f 1/1/1 2/2/2 3/3/3
f 4/4/4 1/1/1 5/5/5
f 3/3/3 5/5/5 1/1/1
f 5/5/5 6/6/6 4/4/4
f 7/7/7 4/4/4 6/6/6
f 8/8/8 3/3/3 2/2/2 9/9/8
f 10/10/9 11/11/10 12/12/10 13/13/11
f 14/14/12 10/10/9 13/13/11
f 13/13/11 7/7/7 14/14/12
f 6/6/6 14/14/12 7/7/7
s 2
f 1/15/13 15/16/13 16/17/14 2/18/14
f 1/15/13 4/19/15 17/20/15 15/16/13
f 4/19/15 7/21/16 18/22/16 17/20/15
f 13/23/17 19/24/17 18/22/16 7/21/16
f 12/25/18 20/26/18 19/24/17 13/23/17
f 16/17/14 9/27/19 2/18/14
s 3
f 21/28/20 22/29/21 19/30/22 20/31/20
f 18/32/23 19/30/22 22/29/21
f 22/29/21 23/33/24 18/32/23
f 17/34/25 18/32/23 23/33/24
f 23/33/24 24/35/26 17/34/25
f 15/36/27 17/34/25 24/35/26
f 24/35/26 25/37/28 15/36/27
f 16/38/29 15/36/27 25/37/28
f 25/37/28 26/39/30 16/38/29
f 26/39/30 8/40/31 9/41/31 16/38/29
f 27/42/32 21/28/20 20/31/20 28/43/32
s 4
f 29/44/33 27/45/34 28/46/34 30/47/33
s 5
f 31/48/35 29/44/33 30/47/36 32/49/35
f 33/50/37 34/51/38 35/52/38 36/53/37
f 34/51/38 37/54/39 38/55/39 35/52/38
f 37/54/39 39/56/40 40/57/40 38/55/39
f 39/56/40 41/58/41 42/59/41 40/57/40
f 41/58/41 31/48/35 32/49/35 42/59/41
s 6
f 43/60/42 32/61/42 30/62/43 44/63/43
f 45/64/44 42/65/44 32/61/42 43/60/42
f 46/66/45 40/67/45 42/65/44 45/64/44
f 47/68/46 38/69/46 40/67/45 46/66/45
f 48/70/47 35/71/47 38/69/46 47/68/46
f 48/70/47 36/72/48 35/71/47
s 7
f 49/73/49 33/74/50 36/75/50 48/76/49
f 50/77/51 49/73/49 48/76/49 47/78/51
f 51/79/52 50/77/51 47/78/51 46/80/52
f 52/81/53 51/79/52 46/80/52 45/82/53
f 53/83/54 52/81/53 45/82/53 43/84/54
f 54/85/55 53/83/54 43/84/54 44/86/55
f 55/87/56 54/85/55 44/86/55 56/88/56
s 8
f 11/11/57 55/89/57 56/90/57 12/12/57
s 9
f 57/91/58 58/92/58 59/93/59 60/94/59
f 57/91/58 61/95/60 58/92/58
f 59/93/59 62/96/61 63/97/61 60/94/59
f 62/96/61 64/98/62 65/99/62 63/97/61
f 65/99/62 64/98/62 66/100/63 67/101/63
f 67/101/63 66/100/63 68/102/64 69/103/64
f 68/102/64 70/104/65 71/105/66 72/106/66 73/107/65 69/103/64
f 72/106/66 71/105/66 74/108/67 75/109/67
f 75/109/67 74/108/67 76/110/68 77/111/68
f 77/111/68 76/110/68 78/112/69 79/113/69
f 79/113/69 78/112/69 80/114/70 81/115/70
f 81/115/70 80/114/70 82/116/71 83/117/71
f 82/116/71 84/118/72 83/117/71
