# Blender v2.78 (sub 0) OBJ File: 'video_store_cutout.blend'
# www.blender.org
mtllib video_store_cutout.mtl
o Mesh2_Group4_Group3_Group1_Model
v 0.377134 -0.000000 0.150000
v -0.377134 -0.000000 0.150000
v -0.377134 0.000000 -0.150000
v 0.377134 0.000000 -0.150000
v -0.377134 0.010000 0.149423
v -0.377134 0.010000 -0.150000
v 0.377134 0.010000 0.149423
v 0.377134 0.010000 -0.150000
v 0.115563 1.340690 0.082713
v 0.115563 1.310740 0.084440
v 0.115563 1.310160 0.074457
v 0.115563 1.340110 0.072730
v 0.119965 1.281220 0.086142
v 0.119965 1.280640 0.076159
v 0.122483 1.362380 0.081462
v 0.115563 1.350670 0.082138
v 0.115563 1.350100 0.072154
v 0.122483 1.361810 0.071479
v 0.124366 1.281220 0.086142
v 0.124366 1.280640 0.076159
v 0.124366 1.201350 0.090747
v 0.124366 1.200780 0.080764
v 0.119676 1.181940 0.091866
v 0.119676 1.181370 0.081883
v 0.119676 1.142010 0.094169
v 0.119676 1.141430 0.084185
v 0.119676 1.118350 0.095533
v 0.119676 1.117770 0.085550
v 0.115563 1.109250 0.096058
v 0.115563 1.108670 0.086074
v 0.112590 1.099720 0.096607
v 0.112590 1.099140 0.086624
v 0.115702 1.090230 0.097154
v 0.115702 1.089650 0.087171
v 0.125702 1.090230 0.097154
v 0.125702 1.089650 0.087171
v 0.131797 1.098140 0.096698
v 0.131797 1.097570 0.086715
v 0.136396 1.107010 0.096187
v 0.136396 1.106430 0.086204
v 0.138504 1.116770 0.095624
v 0.138504 1.116190 0.085641
v 0.142021 1.126110 0.095085
v 0.142021 1.125540 0.085102
v 0.142021 1.176030 0.092207
v 0.142021 1.175460 0.082224
v 0.146965 1.187310 0.091557
v 0.146965 1.186730 0.081574
v 0.146965 1.230680 0.089056
v 0.146965 1.230110 0.079073
v 0.153060 1.243290 0.088329
v 0.153060 1.242720 0.078346
v 0.153060 1.253280 0.087753
v 0.153060 1.252700 0.077770
v 0.146740 1.257000 0.087539
v 0.146740 1.256420 0.077555
v 0.146740 1.271220 0.086719
v 0.146740 1.270650 0.076735
v 0.151534 1.279980 0.086214
v 0.151534 1.279410 0.076230
v 0.151534 1.289970 0.085638
v 0.151534 1.289390 0.075654
v 0.142454 1.294150 0.085397
v 0.142454 1.293570 0.075413
v 0.142454 1.304130 0.084821
v 0.142454 1.303560 0.074838
v 0.151110 1.309130 0.084533
v 0.151110 1.308550 0.074549
v 0.151110 1.317120 0.084072
v 0.151110 1.316550 0.074089
v 0.145660 1.325490 0.083589
v 0.145660 1.324920 0.073606
v 0.145660 1.335480 0.083014
v 0.145660 1.334900 0.073030
v 0.141268 1.344450 0.082497
v 0.141268 1.343870 0.072513
v 0.132483 1.362380 0.081462
v 0.132483 1.361810 0.071479
v -0.257942 1.259910 0.077355
v -0.257942 1.389940 0.069857
v -0.273305 1.234180 0.078838
v -0.280441 1.215530 0.079913
v -0.284010 1.206200 0.080451
v -0.284010 1.186240 0.081602
v -0.267298 1.161360 0.083036
v -0.267298 1.151380 0.083612
v -0.267298 1.131410 0.084763
v -0.269959 1.127190 0.085007
v -0.291524 1.038750 0.090106
v -0.303276 1.054910 0.089175
v -0.284031 1.020240 0.091174
v -0.276195 1.037150 0.090199
v -0.272666 1.027810 0.090737
v -0.268936 1.037150 0.090199
v -0.267163 1.032480 0.090468
v 0.181126 1.067310 0.088460
v 0.184586 1.067310 0.088460
v 0.193041 1.072640 0.088152
v 0.198264 1.081150 0.087661
v 0.198264 1.101120 0.086510
v 0.208486 1.139730 0.084284
v 0.213597 1.159030 0.083171
v 0.223819 1.197640 0.080945
v 0.229548 1.237160 0.078666
v 0.235878 1.266440 0.076978
v 0.235878 1.290710 0.075578
v 0.235878 1.300690 0.075003
v 0.223413 1.327940 0.073432
v 0.217106 1.346880 0.072339
v 0.214261 1.366650 0.071200
v 0.203780 1.394710 0.069582
v 0.199584 1.414230 0.068456
v -0.354506 1.434860 0.067267
v -0.267942 1.389940 0.069857
v -0.390400 1.386860 0.070034
v -0.277190 1.382070 0.070311
v -0.291064 1.367690 0.071140
v -0.303168 1.351790 0.072056
v -0.412932 1.353870 0.071937
v -0.311520 1.333650 0.073102
v -0.337336 1.290900 0.075567
v -0.429831 1.329120 0.073364
v -0.438586 1.311170 0.074399
v -0.438586 1.301180 0.074975
v -0.337336 1.283740 0.075980
v -0.433678 1.281830 0.076091
v -0.427071 1.262980 0.077177
v -0.334438 1.274190 0.076531
v -0.417161 1.234710 0.078807
v -0.334438 1.235930 0.078737
v -0.404743 1.207450 0.080379
v -0.327921 1.228350 0.079174
v -0.392326 1.180180 0.081951
v -0.317871 1.211090 0.080169
v -0.375769 1.143830 0.084047
v -0.316324 1.181180 0.081894
v -0.312726 1.177710 0.082094
v -0.305531 1.170780 0.082493
v -0.361376 1.117550 0.085562
v -0.296354 1.153040 0.083516
v -0.287177 1.135300 0.084539
v -0.349980 1.101140 0.086509
v -0.339980 1.101140 0.086509
v -0.331750 1.095470 0.086836
v -0.279875 1.128480 0.084933
v -0.326562 1.086940 0.087328
v -0.322701 1.077730 0.087859
v -0.316226 1.070120 0.088297
v -0.335381 1.469930 0.065244
v 0.193291 1.443520 0.066768
v -0.325819 1.487470 0.064233
v 0.189095 1.463040 0.065642
v -0.317441 1.502840 0.063347
v 0.184899 1.482560 0.064516
v -0.299765 1.512180 0.062809
v 0.175724 1.500300 0.063493
v -0.296016 1.521430 0.062275
v 0.175724 1.505290 0.063206
v -0.286318 1.538900 0.061268
v 0.170546 1.524580 0.062093
v -0.283907 1.565600 0.059728
v 0.165367 1.543870 0.060981
v -0.270009 1.579960 0.058901
v 0.160189 1.563150 0.059869
v -0.267437 1.589600 0.058344
v 0.152804 1.581710 0.058800
v -0.239659 1.600920 0.057692
v 0.147696 1.590290 0.058305
v -0.200381 1.608470 0.057256
v 0.142588 1.598870 0.057810
v -0.160510 1.611680 0.057071
v 0.056351 1.626570 0.056213
v 0.076351 1.626570 0.056213
v 0.142588 1.608860 0.057234
v -0.139043 1.645380 0.055128
v 0.047629 1.631460 0.055931
v -0.133676 1.653800 0.054643
v 0.025049 1.651180 0.054794
v -0.133676 1.663790 0.054067
v -0.133676 1.668780 0.053779
v 0.018067 1.658320 0.054382
v -0.148406 1.682280 0.053000
v 0.018067 1.666260 0.053924
v -0.151519 1.691770 0.052453
v 0.033838 1.678540 0.053216
v -0.151519 1.702640 0.051826
v 0.040174 1.686260 0.052771
v -0.157152 1.710890 0.051351
v 0.035905 1.698840 0.052046
v 0.040174 1.696240 0.052195
v -0.159841 1.730680 0.050210
v 0.035905 1.712490 0.051259
v -0.159841 1.750640 0.049059
v 0.041464 1.731670 0.050153
v -0.159841 1.780590 0.047332
v 0.041464 1.756020 0.048749
v -0.154480 1.799830 0.046223
v 0.049651 1.774240 0.047698
v -0.154480 1.809810 0.045647
v 0.044929 1.793640 0.046580
v -0.152070 1.819500 0.045088
v 0.033940 1.810320 0.045618
v -0.141894 1.836690 0.044097
v 0.022952 1.827010 0.044656
v -0.125524 1.848160 0.043436
v 0.010268 1.842450 0.043766
v -0.108500 1.858640 0.042832
v -0.004646 1.855750 0.042999
v -0.089695 1.865440 0.042440
v -0.020658 1.867710 0.042309
v -0.070306 1.870340 0.042157
v -0.030306 1.870340 0.042157
v 0.130396 1.617580 0.056731
v 0.138524 1.611770 0.057066
v -0.257045 1.015260 0.091461
v 0.163170 1.043310 0.089843
v -0.238989 0.991340 0.092840
v 0.150422 1.016200 0.091406
v -0.234728 0.982308 0.093361
v 0.144856 1.007910 0.091884
v -0.234728 0.952358 0.095088
v 0.140077 0.988520 0.093002
v -0.229448 0.933100 0.096198
v 0.132909 0.959437 0.094679
v 0.125102 0.941055 0.095739
v -0.216515 0.895311 0.098377
v 0.120634 0.938813 0.095869
v 0.120634 0.918847 0.097020
v 0.125072 0.899377 0.098142
v -0.208057 0.805858 0.103535
v 0.131727 0.870173 0.099826
v 0.146317 0.822429 0.102579
v -0.203925 0.736096 0.107557
v 0.152968 0.793224 0.104263
v 0.157642 0.763639 0.105969
v -0.190490 0.647252 0.112680
v 0.165431 0.714331 0.108812
v 0.170104 0.684747 0.110518
v 0.177742 0.655784 0.112188
v -0.190490 0.597335 0.115558
v 0.185381 0.626820 0.113858
v 0.190473 0.607511 0.114971
v -0.190490 0.547930 0.118407
v 0.190473 0.577561 0.116698
v -0.182041 0.498731 0.121243
v 0.190473 0.527644 0.119576
v -0.177624 0.449009 0.124110
v 0.190473 0.487710 0.121879
v 0.196249 0.449009 0.124110
v 0.236249 0.449009 0.124110
v 0.246249 0.449009 0.124110
v 0.386249 0.449009 0.124110
v 0.386249 0.089256 0.144854
v -0.382624 0.449009 0.124110
v -0.182624 0.449009 0.124110
v 0.386249 0.069289 0.146005
v -0.382624 0.079679 0.145406
v 0.377134 -0.000000 0.150000
v -0.377134 -0.000000 0.150000
v -0.280285 1.010980 0.091707
v -0.267413 1.008540 0.091848
v -0.275176 1.002400 0.092202
v -0.261677 1.000360 0.092320
v -0.255941 0.992186 0.092791
v -0.264958 0.985234 0.093192
v -0.255941 0.987551 0.093058
v -0.258809 0.985234 0.093192
v -0.257942 1.260480 0.087338
v -0.257942 1.390520 0.079840
v -0.269959 1.127760 0.094990
v -0.267298 1.131990 0.094747
v -0.267298 1.151950 0.093596
v -0.267298 1.161940 0.093020
v -0.284010 1.186810 0.091586
v -0.284010 1.206780 0.090434
v -0.280441 1.216100 0.089897
v -0.273305 1.234760 0.088821
v -0.267942 1.390520 0.079840
v -0.277190 1.382650 0.080294
v -0.291064 1.368260 0.081123
v -0.303168 1.352370 0.082040
v -0.311520 1.334230 0.083086
v -0.337336 1.291480 0.085551
v -0.337336 1.284320 0.085964
v -0.334438 1.274760 0.086514
v -0.334438 1.236500 0.088721
v -0.327921 1.228930 0.089157
v -0.317871 1.211670 0.090153
v -0.316324 1.181760 0.091877
v -0.312726 1.178290 0.092077
v -0.305531 1.171360 0.092477
v -0.296354 1.153620 0.093500
v -0.287177 1.135880 0.094523
v -0.279875 1.129050 0.094916
v -0.291524 1.039330 0.100089
v -0.303276 1.055480 0.099158
v -0.316226 1.070700 0.098281
v -0.322701 1.078310 0.097842
v -0.326562 1.087510 0.097311
v -0.331750 1.096050 0.096819
v -0.339980 1.101720 0.096492
v -0.349980 1.101720 0.096492
v -0.264958 0.985810 0.103175
v -0.275176 1.002970 0.102185
v -0.280285 1.011560 0.101691
v -0.284031 1.020810 0.101157
v -0.361376 1.118130 0.095546
v -0.375769 1.144410 0.094031
v -0.392326 1.180760 0.091935
v -0.404743 1.208020 0.090363
v -0.417161 1.235290 0.088791
v -0.427071 1.263560 0.087161
v -0.433678 1.282400 0.086074
v -0.438586 1.301760 0.084958
v -0.438586 1.311740 0.084382
v -0.429831 1.329690 0.083347
v -0.412932 1.354440 0.081920
v -0.390400 1.387440 0.080018
v -0.354506 1.435440 0.077250
v -0.335381 1.470510 0.075228
v -0.325819 1.488050 0.074217
v -0.317441 1.503410 0.073331
v -0.299765 1.512750 0.072792
v -0.296016 1.522010 0.072258
v -0.286318 1.539470 0.071251
v -0.283907 1.566170 0.069712
v -0.270009 1.580530 0.068884
v -0.267437 1.590180 0.068328
v -0.239659 1.601490 0.067675
v -0.200381 1.609040 0.067240
v -0.160510 1.612260 0.067055
v -0.139043 1.645950 0.065112
v -0.133676 1.654380 0.064626
v -0.133676 1.664360 0.064050
v -0.133676 1.669350 0.063763
v -0.148406 1.682860 0.062984
v -0.151519 1.692350 0.062437
v -0.151519 1.703220 0.061810
v -0.157152 1.711470 0.061334
v -0.159841 1.731250 0.060193
v -0.159841 1.751220 0.059042
v -0.159841 1.781170 0.057315
v -0.154480 1.800410 0.056206
v -0.154480 1.810390 0.055630
v -0.152070 1.820080 0.055072
v -0.141894 1.837270 0.054081
v -0.125524 1.848740 0.053419
v -0.108500 1.859220 0.052815
v -0.089695 1.866020 0.052423
v -0.070306 1.870920 0.052141
v -0.030306 1.870920 0.052141
v -0.020658 1.868290 0.052292
v -0.004646 1.856320 0.052982
v 0.010268 1.843020 0.053749
v 0.022952 1.827580 0.054639
v 0.033940 1.810900 0.055601
v 0.044929 1.794220 0.056563
v 0.049651 1.774810 0.057682
v 0.041464 1.756600 0.058732
v 0.041464 1.732250 0.060136
v 0.035905 1.713070 0.061242
v 0.035905 1.699420 0.062029
v 0.040174 1.696820 0.062179
v 0.040174 1.686840 0.062754
v 0.033838 1.679110 0.063200
v 0.018067 1.666830 0.063908
v 0.018067 1.658900 0.064365
v 0.025049 1.651750 0.064777
v 0.047629 1.632030 0.065914
v 0.056351 1.627150 0.066196
v 0.076351 1.627150 0.066196
v 0.130396 1.618160 0.066715
v 0.138524 1.612340 0.067050
v 0.142588 1.609430 0.067218
v 0.142588 1.599450 0.067793
v 0.147696 1.590870 0.068288
v 0.152804 1.582280 0.068783
v 0.160189 1.563730 0.069853
v 0.165367 1.544440 0.070965
v 0.170546 1.525160 0.072077
v 0.175724 1.505870 0.073189
v 0.175724 1.500880 0.073477
v 0.184899 1.483140 0.074500
v 0.189095 1.463610 0.075625
v 0.193291 1.444090 0.076751
v 0.199584 1.414810 0.078440
v 0.203780 1.395290 0.079565
v 0.214261 1.367220 0.081183
v 0.217106 1.347460 0.082323
v 0.223413 1.328510 0.083415
v 0.235878 1.301270 0.084986
v 0.235878 1.291280 0.085562
v 0.235878 1.267010 0.086961
v 0.229548 1.237740 0.088649
v 0.223819 1.198210 0.090928
v 0.213597 1.159610 0.093154
v 0.208486 1.140300 0.094267
v 0.198264 1.101690 0.096493
v 0.198264 1.081730 0.097645
v 0.193041 1.073210 0.098136
v 0.184586 1.067880 0.098443
v 0.181126 1.067880 0.098443
v 0.163170 1.043890 0.099826
v 0.150422 1.016780 0.101390
v 0.144856 1.008480 0.101868
v 0.140077 0.989096 0.102986
v 0.132909 0.960013 0.104663
v 0.125102 0.941630 0.105723
v 0.120634 0.939389 0.105852
v 0.120634 0.919422 0.107003
v 0.125072 0.899953 0.108126
v 0.131727 0.870749 0.109810
v 0.146317 0.823004 0.112562
v 0.152968 0.793799 0.114246
v 0.157642 0.764215 0.115952
v 0.165431 0.714907 0.118795
v 0.170104 0.685323 0.120501
v 0.177742 0.656359 0.122171
v 0.185381 0.627396 0.123841
v 0.190473 0.608087 0.124955
v 0.190473 0.578137 0.126681
v 0.190473 0.528220 0.129560
v 0.190473 0.488286 0.131862
v 0.196249 0.449585 0.134094
v 0.236249 0.449585 0.134094
v 0.246249 0.449585 0.134094
v 0.386249 0.449585 0.134094
v 0.386249 0.089831 0.154837
v 0.386249 0.069865 0.155988
v 0.377134 0.000576 0.159983
v -0.377134 0.000576 0.159983
v -0.382624 0.080255 0.155389
v -0.382624 0.449585 0.134094
v -0.182624 0.449585 0.134094
v -0.177624 0.449585 0.134094
v -0.182041 0.499307 0.131227
v -0.190490 0.548506 0.128390
v -0.190490 0.597910 0.125541
v -0.190490 0.647827 0.122663
v -0.203925 0.736671 0.117540
v -0.208057 0.806434 0.113518
v -0.216515 0.895887 0.108360
v -0.229448 0.933675 0.106181
v -0.234728 0.952934 0.105071
v -0.234728 0.982884 0.103344
v -0.238989 0.991916 0.102823
v -0.257045 1.015830 0.101444
v -0.267163 1.033060 0.100451
v -0.268936 1.037720 0.100182
v -0.276195 1.037720 0.100182
v -0.272666 1.028380 0.100720
v -0.267413 1.009120 0.101831
v -0.261677 1.000940 0.102303
v -0.255941 0.992762 0.102774
v -0.255941 0.988127 0.103042
v -0.258809 0.985810 0.103175
v -0.257942 1.390520 0.079840
v -0.257942 1.260480 0.087338
v 0.115563 1.350670 0.082138
v 0.122483 1.362380 0.081462
v 0.115563 1.340690 0.082713
v 0.115563 1.310740 0.084440
v 0.119965 1.281220 0.086142
v -0.273305 1.234760 0.088821
v 0.124366 1.201350 0.090747
v -0.280441 1.216100 0.089897
v 0.119676 1.181940 0.091866
v -0.284010 1.206780 0.090434
v 0.119676 1.142010 0.094169
v -0.284010 1.186810 0.091586
v -0.267298 1.161940 0.093020
v 0.119676 1.118350 0.095533
v -0.267298 1.151950 0.093596
v -0.267298 1.131990 0.094747
v 0.115563 1.109250 0.096058
v -0.269959 1.127760 0.094990
v 0.112590 1.099720 0.096607
v 0.115702 1.090230 0.097154
v -0.303276 1.055480 0.099158
v -0.291524 1.039330 0.100089
v -0.268936 1.037720 0.100182
v -0.276195 1.037720 0.100182
v -0.267163 1.033060 0.100451
v 0.181126 1.067880 0.098443
v -0.257045 1.015830 0.101444
v 0.163170 1.043890 0.099826
v -0.238989 0.991916 0.102823
v 0.150422 1.016780 0.101390
v -0.234728 0.982884 0.103344
v 0.144856 1.008480 0.101868
v -0.234728 0.952934 0.105071
v 0.140077 0.989096 0.102986
v -0.229448 0.933675 0.106181
v 0.132909 0.960013 0.104663
v 0.125102 0.941630 0.105723
v -0.216515 0.895887 0.108360
v 0.120634 0.939389 0.105852
v 0.120634 0.919422 0.107003
v 0.125072 0.899953 0.108126
v -0.208057 0.806434 0.113518
v 0.131727 0.870749 0.109810
v 0.146317 0.823004 0.112562
v -0.203925 0.736671 0.117540
v 0.152968 0.793799 0.114246
v 0.157642 0.764215 0.115952
v -0.190490 0.647827 0.122663
v 0.165431 0.714907 0.118795
v 0.170104 0.685323 0.120501
v 0.177742 0.656359 0.122171
v -0.190490 0.597910 0.125541
v 0.185381 0.627396 0.123841
v 0.190473 0.608087 0.124955
v -0.190490 0.548506 0.128390
v 0.190473 0.578137 0.126681
v -0.182041 0.499307 0.131227
v 0.190473 0.528220 0.129560
v -0.177624 0.449585 0.134094
v 0.190473 0.488286 0.131862
v 0.196249 0.449585 0.134094
v 0.386249 0.089831 0.154837
v 0.386249 0.449585 0.134094
v 0.246249 0.449585 0.134094
v 0.236249 0.449585 0.134094
v -0.182624 0.449585 0.134094
v -0.382624 0.449585 0.134094
v 0.386249 0.069865 0.155988
v -0.382624 0.080255 0.155389
v 0.377134 0.000576 0.159983
v -0.377134 0.000576 0.159983
v 0.125702 1.090230 0.097154
v 0.184586 1.067880 0.098443
v 0.193041 1.073210 0.098136
v 0.131797 1.098140 0.096698
v 0.198264 1.081730 0.097645
v 0.136396 1.107010 0.096187
v 0.198264 1.101690 0.096493
v 0.138504 1.116770 0.095624
v 0.142021 1.126110 0.095085
v 0.208486 1.140300 0.094267
v 0.142021 1.176030 0.092207
v 0.213597 1.159610 0.093154
v 0.146965 1.187310 0.091557
v 0.223819 1.198210 0.090928
v 0.146965 1.230680 0.089056
v 0.153060 1.243290 0.088329
v 0.229548 1.237740 0.088649
v 0.153060 1.253280 0.087753
v 0.235878 1.267010 0.086961
v 0.146740 1.257000 0.087539
v 0.146740 1.271220 0.086719
v 0.151534 1.279980 0.086214
v 0.151534 1.289970 0.085638
v 0.235878 1.291280 0.085562
v 0.142454 1.294150 0.085397
v 0.142454 1.304130 0.084821
v 0.235878 1.301270 0.084986
v 0.151110 1.309130 0.084533
v 0.223413 1.328510 0.083415
v 0.151110 1.317120 0.084072
v 0.145660 1.325490 0.083589
v 0.217106 1.347460 0.082323
v 0.214261 1.367220 0.081183
v 0.145660 1.335480 0.083014
v 0.141268 1.344450 0.082497
v 0.132483 1.362380 0.081462
v 0.203780 1.395290 0.079565
v 0.199584 1.414810 0.078440
v -0.354506 1.435440 0.077250
v -0.335381 1.470510 0.075228
v 0.193291 1.444090 0.076751
v -0.325819 1.488050 0.074217
v 0.189095 1.463610 0.075625
v -0.317441 1.503410 0.073331
v 0.184899 1.483140 0.074500
v -0.299765 1.512750 0.072792
v 0.175724 1.500880 0.073477
v -0.296016 1.522010 0.072258
v 0.175724 1.505870 0.073189
v -0.286318 1.539470 0.071251
v 0.170546 1.525160 0.072077
v -0.283907 1.566170 0.069712
v 0.165367 1.544440 0.070965
v -0.270009 1.580530 0.068884
v 0.160189 1.563730 0.069853
v -0.267437 1.590180 0.068328
v 0.152804 1.582280 0.068783
v -0.239659 1.601490 0.067675
v 0.147696 1.590870 0.068288
v -0.200381 1.609040 0.067240
v 0.142588 1.599450 0.067793
v -0.160510 1.612260 0.067055
v 0.142588 1.609430 0.067218
v 0.076351 1.627150 0.066196
v 0.056351 1.627150 0.066196
v 0.130396 1.618160 0.066715
v 0.138524 1.612340 0.067050
v -0.139043 1.645950 0.065112
v 0.047629 1.632030 0.065914
v -0.133676 1.654380 0.064626
v 0.025049 1.651750 0.064777
v -0.133676 1.664360 0.064050
v -0.133676 1.669350 0.063763
v 0.018067 1.658900 0.064365
v -0.148406 1.682860 0.062984
v 0.018067 1.666830 0.063908
v -0.151519 1.692350 0.062437
v 0.033838 1.679110 0.063200
v -0.151519 1.703220 0.061810
v 0.040174 1.686840 0.062754
v -0.157152 1.711470 0.061334
v 0.040174 1.696820 0.062179
v 0.035905 1.699420 0.062029
v -0.159841 1.731250 0.060193
v 0.035905 1.713070 0.061242
v -0.159841 1.751220 0.059042
v 0.041464 1.732250 0.060136
v -0.159841 1.781170 0.057315
v 0.041464 1.756600 0.058732
v -0.154480 1.800410 0.056206
v 0.049651 1.774810 0.057682
v -0.154480 1.810390 0.055630
v 0.044929 1.794220 0.056563
v -0.152070 1.820080 0.055072
v 0.033940 1.810900 0.055601
v -0.141894 1.837270 0.054081
v 0.022952 1.827580 0.054639
v -0.125524 1.848740 0.053419
v 0.010268 1.843020 0.053749
v -0.108500 1.859220 0.052815
v -0.004646 1.856320 0.052982
v -0.089695 1.866020 0.052423
v -0.020658 1.868290 0.052292
v -0.070306 1.870920 0.052141
v -0.030306 1.870920 0.052141
v -0.267942 1.390520 0.079840
v -0.390400 1.387440 0.080018
v -0.277190 1.382650 0.080294
v -0.291064 1.368260 0.081123
v -0.303168 1.352370 0.082040
v -0.412932 1.354440 0.081920
v -0.311520 1.334230 0.083086
v -0.337336 1.291480 0.085551
v -0.429831 1.329690 0.083347
v -0.438586 1.311740 0.084382
v -0.438586 1.301760 0.084958
v -0.337336 1.284320 0.085964
v -0.433678 1.282400 0.086074
v -0.427071 1.263560 0.087161
v -0.334438 1.274760 0.086514
v -0.417161 1.235290 0.088791
v -0.334438 1.236500 0.088721
v -0.404743 1.208020 0.090363
v -0.327921 1.228930 0.089157
v -0.392326 1.180760 0.091935
v -0.317871 1.211670 0.090153
v -0.375769 1.144410 0.094031
v -0.316324 1.181760 0.091877
v -0.305531 1.171360 0.092477
v -0.312726 1.178290 0.092077
v -0.361376 1.118130 0.095546
v -0.296354 1.153620 0.093500
v -0.287177 1.135880 0.094523
v -0.349980 1.101720 0.096492
v -0.339980 1.101720 0.096492
v -0.331750 1.096050 0.096819
v -0.279875 1.129050 0.094916
v -0.326562 1.087510 0.097311
v -0.322701 1.078310 0.097842
v -0.316226 1.070700 0.098281
v -0.284031 1.020810 0.101157
v -0.272666 1.028380 0.100720
v -0.280285 1.011560 0.101691
v -0.267413 1.009120 0.101831
v -0.275176 1.002970 0.102185
v -0.255941 0.992762 0.102774
v -0.261677 1.000940 0.102303
v -0.264958 0.985810 0.103175
v -0.255941 0.988127 0.103042
v -0.258809 0.985810 0.103175
v 0.124366 1.281220 0.086142
v -0.005000 0.022546 -0.150000
v -0.005000 0.304515 0.119517
v 0.005000 0.304515 0.119517
v 0.005000 0.022546 -0.150000
v -0.005000 0.010000 0.149423
v -0.005000 0.010000 -0.150000
v -0.005000 0.304515 0.132442
v 0.005000 0.010000 -0.150000
v 0.005000 0.010000 0.149423
v 0.005000 0.304515 0.132442
vt 0.7217 0.6614
vt 0.7217 0.9950
vt 0.8544 0.9950
vt 0.8544 0.6614
vt 0.0715 0.3435
vt 0.0715 0.2108
vt 0.0671 0.2110
vt 0.0671 0.3435
vt 0.7217 0.3208
vt 0.8542 0.3208
vt 0.8542 0.6544
vt 0.7217 0.6544
vt 0.3820 0.0139
vt 0.3820 0.1463
vt 0.3776 0.1466
vt 0.3776 0.0139
vt 0.4317 0.3386
vt 0.4317 0.0050
vt 0.4272 0.0050
vt 0.4272 0.3386
vt 0.3172 0.2761
vt 0.3039 0.2768
vt 0.3037 0.2724
vt 0.3169 0.2717
vt 0.2909 0.2776
vt 0.2906 0.2732
vt 0.3268 0.2755
vt 0.3216 0.2758
vt 0.3213 0.2714
vt 0.3265 0.2711
vt 0.1026 0.2356
vt 0.1026 0.2376
vt 0.1070 0.2376
vt 0.1070 0.2356
vt 0.0897 0.3997
vt 0.0544 0.4017
vt 0.0542 0.3973
vt 0.0895 0.3953
vt 0.0458 0.4022
vt 0.0456 0.3978
vt 0.0282 0.4033
vt 0.0279 0.3988
vt 0.0177 0.4039
vt 0.0174 0.3995
vt 0.0137 0.4041
vt 0.0134 0.3997
vt 0.0095 0.4043
vt 0.0092 0.3999
vt 0.0053 0.4046
vt 0.0050 0.4002
vt 0.1061 0.2108
vt 0.1061 0.2152
vt 0.1105 0.2152
vt 0.1105 0.2108
vt 0.4412 0.4734
vt 0.4377 0.4736
vt 0.4379 0.4780
vt 0.4414 0.4778
vt 0.4337 0.4738
vt 0.4340 0.4782
vt 0.4294 0.4740
vt 0.4297 0.4784
vt 0.4253 0.4743
vt 0.4255 0.4787
vt 0.4032 0.4755
vt 0.4035 0.4800
vt 0.3982 0.4758
vt 0.3985 0.4802
vt 0.3790 0.4769
vt 0.3793 0.4814
vt 0.3735 0.4773
vt 0.3737 0.4817
vt 0.3690 0.4775
vt 0.3693 0.4819
vt 0.3674 0.4776
vt 0.3676 0.4820
vt 0.3611 0.4780
vt 0.3614 0.4824
vt 0.3572 0.4782
vt 0.3575 0.4826
vt 0.3528 0.4785
vt 0.3531 0.4829
vt 0.3510 0.4786
vt 0.3512 0.4830
vt 0.3465 0.4788
vt 0.3468 0.4832
vt 0.3443 0.4789
vt 0.3446 0.4834
vt 0.3408 0.4791
vt 0.3411 0.4836
vt 0.3371 0.4794
vt 0.3374 0.4838
vt 0.3327 0.4796
vt 0.3329 0.4840
vt 0.3287 0.4798
vt 0.3290 0.4843
vt 0.3208 0.4803
vt 0.3210 0.4847
vt 0.0902 0.2516
vt 0.0902 0.2560
vt 0.0946 0.2560
vt 0.0946 0.2516
vt 0.6589 0.2750
vt 0.4937 0.2351
vt 0.4937 0.2395
vt 0.6589 0.2175
vt 0.4907 0.2299
vt 0.6657 0.2864
vt 0.4918 0.2658
vt 0.4898 0.3011
vt 0.4937 0.2528
vt 0.4898 0.2658
vt 0.6689 0.2946
vt 0.4919 0.3097
vt 0.6704 0.2987
vt 0.4919 0.3274
vt 0.6704 0.3076
vt 0.6631 0.3186
vt 0.4919 0.3378
vt 0.6631 0.3230
vt 0.6631 0.3318
vt 0.4937 0.3419
vt 0.6642 0.3337
vt 0.4950 0.3461
vt 0.4937 0.3503
vt 0.6738 0.3728
vt 0.6790 0.3656
vt 0.6705 0.3810
vt 0.6670 0.3735
vt 0.6654 0.3776
vt 0.6638 0.3735
vt 0.6630 0.3756
vt 0.4647 0.3602
vt 0.4892 0.3503
vt 0.4632 0.3602
vt 0.4595 0.3578
vt 0.4865 0.3468
vt 0.4571 0.3540
vt 0.4845 0.3429
vt 0.4571 0.3452
vt 0.4836 0.3385
vt 0.4820 0.3344
vt 0.4526 0.3281
vt 0.4820 0.3123
vt 0.4504 0.3196
vt 0.4798 0.3073
vt 0.4458 0.3025
vt 0.4798 0.2882
vt 0.4771 0.2826
vt 0.4433 0.2850
vt 0.4771 0.2782
vt 0.4405 0.2721
vt 0.4799 0.2765
vt 0.4799 0.2702
vt 0.4778 0.2664
vt 0.4778 0.2619
vt 0.4405 0.2614
vt 0.4818 0.2601
vt 0.4818 0.2557
vt 0.4405 0.2569
vt 0.4780 0.2535
vt 0.4460 0.2449
vt 0.4780 0.2499
vt 0.4804 0.2462
vt 0.4488 0.2365
vt 0.4501 0.2278
vt 0.4804 0.2418
vt 0.4824 0.2378
vt 0.4862 0.2299
vt 0.4547 0.2154
vt 0.4566 0.2067
vt 0.7016 0.1976
vt 0.6633 0.2175
vt 0.7175 0.2188
vt 0.6674 0.2209
vt 0.6736 0.2273
vt 0.6789 0.2343
vt 0.7275 0.2334
vt 0.6826 0.2424
vt 0.6940 0.2613
vt 0.7349 0.2444
vt 0.7388 0.2523
vt 0.7388 0.2567
vt 0.6940 0.2644
vt 0.7366 0.2653
vt 0.7337 0.2736
vt 0.6927 0.2687
vt 0.7293 0.2861
vt 0.6927 0.2856
vt 0.7238 0.2982
vt 0.6899 0.2889
vt 0.7183 0.3102
vt 0.6854 0.2966
vt 0.7110 0.3263
vt 0.6847 0.3098
vt 0.6831 0.3113
vt 0.6800 0.3144
vt 0.7047 0.3379
vt 0.6759 0.3222
vt 0.6718 0.3301
vt 0.6996 0.3452
vt 0.6952 0.3452
vt 0.6916 0.3477
vt 0.6686 0.3331
vt 0.6893 0.3515
vt 0.6876 0.3555
vt 0.6847 0.3589
vt 0.6932 0.1821
vt 0.4593 0.1938
vt 0.6889 0.1743
vt 0.4612 0.1851
vt 0.6852 0.1675
vt 0.4631 0.1765
vt 0.6774 0.1634
vt 0.4671 0.1687
vt 0.6758 0.1593
vt 0.4671 0.1665
vt 0.6715 0.1516
vt 0.4694 0.1579
vt 0.6704 0.1398
vt 0.4717 0.1494
vt 0.6643 0.1334
vt 0.4740 0.1409
vt 0.6631 0.1292
vt 0.4773 0.1327
vt 0.6508 0.1242
vt 0.4795 0.1289
vt 0.6335 0.1208
vt 0.4818 0.1251
vt 0.6158 0.1194
vt 0.5199 0.1128
vt 0.5111 0.1128
vt 0.4818 0.1206
vt 0.6063 0.1045
vt 0.5238 0.1107
vt 0.6040 0.1008
vt 0.5338 0.1019
vt 0.6040 0.0964
vt 0.6040 0.0941
vt 0.5368 0.0988
vt 0.6105 0.0882
vt 0.5368 0.0953
vt 0.6118 0.0840
vt 0.5299 0.0898
vt 0.6118 0.0792
vt 0.5271 0.0864
vt 0.6143 0.0755
vt 0.5290 0.0808
vt 0.5271 0.0820
vt 0.6155 0.0668
vt 0.5290 0.0748
vt 0.6155 0.0579
vt 0.5265 0.0663
vt 0.6155 0.0447
vt 0.5265 0.0556
vt 0.6132 0.0362
vt 0.5229 0.0475
vt 0.6132 0.0318
vt 0.5250 0.0389
vt 0.6121 0.0275
vt 0.5298 0.0315
vt 0.6076 0.0199
vt 0.5347 0.0242
vt 0.6004 0.0148
vt 0.5403 0.0173
vt 0.5928 0.0102
vt 0.5469 0.0115
vt 0.5845 0.0072
vt 0.5540 0.0062
vt 0.5759 0.0050
vt 0.5582 0.0050
vt 0.4872 0.1168
vt 0.4836 0.1194
vt 0.6585 0.3832
vt 0.4727 0.3708
vt 0.6505 0.3938
vt 0.4783 0.3828
vt 0.6486 0.3978
vt 0.4808 0.3864
vt 0.6486 0.4110
vt 0.4829 0.3950
vt 0.6463 0.4195
vt 0.4861 0.4079
vt 0.4895 0.4160
vt 0.6406 0.4362
vt 0.4915 0.4170
vt 0.4915 0.4258
vt 0.4895 0.4344
vt 0.6369 0.4758
vt 0.4866 0.4473
vt 0.4801 0.4685
vt 0.6350 0.5066
vt 0.4772 0.4814
vt 0.4751 0.4945
vt 0.6291 0.5459
vt 0.4717 0.5163
vt 0.4696 0.5294
vt 0.4662 0.5422
vt 0.6291 0.5680
vt 0.4628 0.5550
vt 0.4606 0.5635
vt 0.6291 0.5899
vt 0.4606 0.5768
vt 0.6253 0.6116
vt 0.4606 0.5988
vt 0.6234 0.6336
vt 0.4606 0.6165
vt 0.4580 0.6336
vt 0.4403 0.6336
vt 0.4359 0.6336
vt 0.3740 0.6336
vt 0.3740 0.7927
vt 0.7141 0.6336
vt 0.6256 0.6336
vt 0.3740 0.8016
vt 0.7141 0.7970
vt 0.3780 0.8322
vt 0.7116 0.8322
vt 0.6688 0.3851
vt 0.6631 0.3861
vt 0.6665 0.3889
vt 0.6606 0.3898
vt 0.6580 0.3934
vt 0.6620 0.3965
vt 0.6580 0.3954
vt 0.6593 0.3965
vt 0.3552 0.4927
vt 0.2977 0.4960
vt 0.2980 0.5004
vt 0.3555 0.4971
vt 0.4139 0.4893
vt 0.4121 0.4894
vt 0.4123 0.4938
vt 0.4142 0.4937
vt 0.4032 0.4899
vt 0.4035 0.4944
vt 0.3988 0.4902
vt 0.3991 0.4946
vt 0.3878 0.4908
vt 0.3881 0.4952
vt 0.3790 0.4913
vt 0.3792 0.4958
vt 0.3749 0.4916
vt 0.3751 0.4960
vt 0.3666 0.4921
vt 0.3669 0.4965
vt 0.1010 0.2498
vt 0.1010 0.2542
vt 0.1054 0.2542
vt 0.1054 0.2498
vt 0.1008 0.2583
vt 0.1052 0.2583
vt 0.0941 0.3837
vt 0.0877 0.3841
vt 0.0875 0.3797
vt 0.0938 0.3793
vt 0.0807 0.3845
vt 0.0805 0.3801
vt 0.0727 0.3850
vt 0.0724 0.3806
vt 0.0538 0.3861
vt 0.0535 0.3817
vt 0.0506 0.3863
vt 0.0504 0.3818
vt 0.0464 0.3865
vt 0.0461 0.3821
vt 0.0295 0.3875
vt 0.0292 0.3831
vt 0.0261 0.3877
vt 0.0259 0.3832
vt 0.0185 0.3881
vt 0.0182 0.3837
vt 0.0053 0.3889
vt 0.0050 0.3845
vt 0.0981 0.2108
vt 0.0982 0.2124
vt 0.0938 0.2124
vt 0.0937 0.2108
vt 0.0984 0.2156
vt 0.0940 0.2156
vt 0.1061 0.2276
vt 0.0983 0.2281
vt 0.0980 0.2237
vt 0.1058 0.2232
vt 0.0904 0.2285
vt 0.0902 0.2241
vt 0.0307 0.2232
vt 0.0309 0.2264
vt 0.0265 0.2264
vt 0.0263 0.2232
vt 0.0309 0.2308
vt 0.0265 0.2308
vt 0.0602 0.3665
vt 0.0531 0.3669
vt 0.0534 0.3713
vt 0.0605 0.3709
vt 0.0464 0.3673
vt 0.0466 0.3717
vt 0.0430 0.3675
vt 0.0433 0.3719
vt 0.0389 0.3677
vt 0.0392 0.3721
vt 0.0352 0.3679
vt 0.0354 0.3724
vt 0.0902 0.2356
vt 0.0903 0.2393
vt 0.0947 0.2393
vt 0.0946 0.2356
vt 0.0903 0.2437
vt 0.0947 0.2437
vt 0.0839 0.3651
vt 0.0763 0.3656
vt 0.0766 0.3700
vt 0.0842 0.3696
vt 0.0725 0.3658
vt 0.0728 0.3702
vt 0.0684 0.3660
vt 0.0687 0.3704
vt 0.8384 0.0564
vt 0.8312 0.0569
vt 0.8314 0.0613
vt 0.8387 0.0609
vt 0.8195 0.0575
vt 0.8198 0.0620
vt 0.8035 0.0585
vt 0.8037 0.0629
vt 0.7914 0.0592
vt 0.7916 0.0636
vt 0.7793 0.0599
vt 0.7796 0.0643
vt 0.7668 0.0606
vt 0.7671 0.0650
vt 0.7585 0.0611
vt 0.7588 0.0655
vt 0.7499 0.0615
vt 0.7502 0.0660
vt 0.7455 0.0618
vt 0.7458 0.0662
vt 0.7376 0.0623
vt 0.7378 0.0667
vt 0.7266 0.0629
vt 0.7269 0.0673
vt 0.7120 0.0637
vt 0.7123 0.0681
vt 0.6908 0.0650
vt 0.6911 0.0694
vt 0.6753 0.0659
vt 0.6756 0.0703
vt 0.6675 0.0663
vt 0.6678 0.0707
vt 0.6608 0.0667
vt 0.6610 0.0711
vt 0.6566 0.0669
vt 0.6569 0.0713
vt 0.6525 0.0672
vt 0.6528 0.0716
vt 0.6448 0.0676
vt 0.6451 0.0720
vt 0.6330 0.0683
vt 0.6332 0.0727
vt 0.6266 0.0687
vt 0.6269 0.0731
vt 0.6224 0.0689
vt 0.6226 0.0733
vt 0.0827 0.2214
vt 0.0824 0.2337
vt 0.0780 0.2337
vt 0.0783 0.2214
vt 0.0822 0.2511
vt 0.0778 0.2511
vt 0.0822 0.2687
vt 0.0777 0.2687
vt 0.4522 0.4592
vt 0.4373 0.4600
vt 0.4376 0.4644
vt 0.4525 0.4636
vt 0.4336 0.4602
vt 0.4339 0.4647
vt 0.4292 0.4605
vt 0.4294 0.4649
vt 0.4270 0.4606
vt 0.4272 0.4650
vt 0.4210 0.4610
vt 0.4213 0.4654
vt 0.4168 0.4612
vt 0.4171 0.4656
vt 0.4120 0.4615
vt 0.4123 0.4659
vt 0.4084 0.4617
vt 0.4086 0.4661
vt 0.3996 0.4622
vt 0.3999 0.4666
vt 0.3908 0.4627
vt 0.3910 0.4671
vt 0.3775 0.4635
vt 0.3778 0.4679
vt 0.3690 0.4640
vt 0.3693 0.4684
vt 0.3646 0.4642
vt 0.3649 0.4686
vt 0.3603 0.4645
vt 0.3606 0.4689
vt 0.3527 0.4649
vt 0.3530 0.4693
vt 0.0475 0.2108
vt 0.0472 0.2180
vt 0.0428 0.2180
vt 0.0431 0.2108
vt 0.0470 0.2256
vt 0.0426 0.2256
vt 0.0468 0.2339
vt 0.0424 0.2339
vt 0.0467 0.2425
vt 0.0423 0.2425
vt 0.0467 0.2601
vt 0.0423 0.2601
vt 0.0467 0.2644
vt 0.0423 0.2644
vt 0.0470 0.2715
vt 0.0426 0.2715
vt 0.0474 0.2781
vt 0.0430 0.2781
vt 0.0969 0.3554
vt 0.0901 0.3558
vt 0.0899 0.3513
vt 0.0967 0.3509
vt 0.0827 0.3562
vt 0.0825 0.3518
vt 0.0754 0.3566
vt 0.0751 0.3522
vt 0.0668 0.3571
vt 0.0665 0.3527
vt 0.0587 0.3576
vt 0.0585 0.3531
vt 0.0480 0.3582
vt 0.0477 0.3538
vt 0.0395 0.3587
vt 0.0392 0.3543
vt 0.0334 0.3590
vt 0.0332 0.3546
vt 0.0323 0.3591
vt 0.0320 0.3547
vt 0.0279 0.3593
vt 0.0276 0.3549
vt 0.0244 0.3595
vt 0.0242 0.3551
vt 0.0190 0.3599
vt 0.0188 0.3554
vt 0.0155 0.3601
vt 0.0153 0.3556
vt 0.0123 0.3602
vt 0.0121 0.3558
vt 0.0591 0.2108
vt 0.0596 0.2208
vt 0.0552 0.2208
vt 0.0547 0.2108
vt 0.0597 0.2246
vt 0.0553 0.2246
vt 0.0597 0.2335
vt 0.0553 0.2335
vt 0.0599 0.2574
vt 0.0555 0.2574
vt 0.0601 0.2610
vt 0.0557 0.2610
vt 0.0602 0.2628
vt 0.0558 0.2628
vt 0.8562 0.0094
vt 0.8518 0.0097
vt 0.8516 0.0053
vt 0.8560 0.0050
vt 0.8480 0.0099
vt 0.8478 0.0055
vt 0.8442 0.0101
vt 0.8440 0.0057
vt 0.8360 0.0106
vt 0.8358 0.0062
vt 0.8275 0.0111
vt 0.8272 0.0067
vt 0.8190 0.0116
vt 0.8187 0.0071
vt 0.8104 0.0121
vt 0.8102 0.0076
vt 0.8082 0.0122
vt 0.8080 0.0078
vt 0.8004 0.0126
vt 0.8001 0.0082
vt 0.7917 0.0131
vt 0.7915 0.0087
vt 0.7831 0.0136
vt 0.7829 0.0092
vt 0.7702 0.0144
vt 0.7699 0.0100
vt 0.7615 0.0149
vt 0.7613 0.0105
vt 0.7491 0.0156
vt 0.7489 0.0112
vt 0.7404 0.0161
vt 0.7401 0.0117
vt 0.7320 0.0166
vt 0.7317 0.0122
vt 0.7199 0.0173
vt 0.7197 0.0129
vt 0.7155 0.0175
vt 0.7153 0.0131
vt 0.7048 0.0181
vt 0.7045 0.0137
vt 0.6919 0.0189
vt 0.6916 0.0145
vt 0.6744 0.0199
vt 0.6741 0.0155
vt 0.6573 0.0209
vt 0.6570 0.0165
vt 0.6488 0.0214
vt 0.6485 0.0170
vt 0.6317 0.0224
vt 0.6314 0.0179
vt 0.6229 0.0229
vt 0.6226 0.0185
vt 0.6191 0.0231
vt 0.6188 0.0187
vt 0.0300 0.2108
vt 0.0298 0.2145
vt 0.0343 0.2145
vt 0.0344 0.2108
vt 0.0298 0.2161
vt 0.0343 0.2161
vt 0.8890 0.0857
vt 0.8784 0.0863
vt 0.8781 0.0819
vt 0.8887 0.0813
vt 0.8664 0.0870
vt 0.8661 0.0826
vt 0.8627 0.0872
vt 0.8625 0.0828
vt 0.8541 0.0877
vt 0.8539 0.0833
vt 0.8413 0.0885
vt 0.8410 0.0840
vt 0.8332 0.0889
vt 0.8329 0.0845
vt 0.8322 0.0890
vt 0.8319 0.0846
vt 0.8233 0.0895
vt 0.8231 0.0851
vt 0.8147 0.0900
vt 0.8145 0.0856
vt 0.8018 0.0907
vt 0.8016 0.0863
vt 0.7807 0.0919
vt 0.7804 0.0875
vt 0.7678 0.0927
vt 0.7675 0.0883
vt 0.7547 0.0934
vt 0.7544 0.0890
vt 0.7329 0.0947
vt 0.7326 0.0903
vt 0.7198 0.0955
vt 0.7195 0.0910
vt 0.7070 0.0962
vt 0.7067 0.0918
vt 0.6942 0.0969
vt 0.6939 0.0925
vt 0.6856 0.0974
vt 0.6854 0.0930
vt 0.6724 0.0982
vt 0.6721 0.0938
vt 0.6503 0.0995
vt 0.6501 0.0950
vt 0.6327 0.1005
vt 0.6324 0.0961
vt 0.6155 0.1015
vt 0.6153 0.0971
vt 0.0218 0.0139
vt 0.0218 0.0316
vt 0.0174 0.0316
vt 0.0174 0.0139
vt 0.0218 0.0360
vt 0.0174 0.0360
vt 0.0218 0.0979
vt 0.0174 0.0979
vt 0.4664 0.4228
vt 0.3073 0.4320
vt 0.3070 0.4275
vt 0.4661 0.4184
vt 0.2985 0.4325
vt 0.2982 0.4280
vt 0.2678 0.4342
vt 0.2676 0.4298
vt 0.0050 0.0139
vt 0.0050 0.3475
vt 0.0094 0.3475
vt 0.0094 0.0139
vt 0.4750 0.4414
vt 0.4398 0.4435
vt 0.4400 0.4479
vt 0.4753 0.4458
vt 0.2764 0.4529
vt 0.2767 0.4573
vt 0.0201 0.1043
vt 0.0201 0.1928
vt 0.0156 0.1928
vt 0.0156 0.1043
vt 0.0201 0.1950
vt 0.0156 0.1950
vt 0.8825 0.0298
vt 0.8605 0.0311
vt 0.8608 0.0355
vt 0.8827 0.0343
vt 0.8387 0.0324
vt 0.8390 0.0368
vt 0.8169 0.0336
vt 0.8171 0.0380
vt 0.7948 0.0349
vt 0.7951 0.0393
vt 0.7555 0.0372
vt 0.7558 0.0416
vt 0.7247 0.0389
vt 0.7249 0.0434
vt 0.6851 0.0412
vt 0.6854 0.0456
vt 0.6684 0.0422
vt 0.6686 0.0466
vt 0.6599 0.0427
vt 0.6601 0.0471
vt 0.6466 0.0434
vt 0.6469 0.0479
vt 0.6426 0.0437
vt 0.6429 0.0481
vt 0.6321 0.0443
vt 0.6323 0.0487
vt 0.6244 0.0447
vt 0.6247 0.0491
vt 0.6224 0.0448
vt 0.6226 0.0493
vt 0.0813 0.2108
vt 0.0813 0.2140
vt 0.0857 0.2140
vt 0.0857 0.2108
vt 0.0999 0.2808
vt 0.0958 0.2811
vt 0.0955 0.2767
vt 0.0997 0.2764
vt 0.0873 0.2816
vt 0.0870 0.2772
vt 0.0837 0.2818
vt 0.0834 0.2774
vt 0.0800 0.2820
vt 0.0798 0.2776
vt 0.0780 0.2821
vt 0.0777 0.2777
vt 0.0263 0.2480
vt 0.0263 0.2493
vt 0.0307 0.2493
vt 0.0308 0.2480
vt 0.0263 0.2520
vt 0.0307 0.2520
vt 0.0849 0.6197
vt 0.0849 0.5622
vt 0.2501 0.6021
vt 0.2531 0.6073
vt 0.2501 0.5977
vt 0.2501 0.5844
vt 0.2520 0.5714
vt 0.0781 0.5508
vt 0.2540 0.5361
vt 0.0749 0.5426
vt 0.2519 0.5275
vt 0.0734 0.5385
vt 0.2519 0.5098
vt 0.0734 0.5296
vt 0.0808 0.5186
vt 0.2519 0.4994
vt 0.0808 0.5142
vt 0.0808 0.5054
vt 0.2501 0.4953
vt 0.0796 0.5035
vt 0.2488 0.4911
vt 0.2501 0.4869
vt 0.0648 0.4716
vt 0.0700 0.4644
vt 0.0800 0.4637
vt 0.0768 0.4637
vt 0.0808 0.4616
vt 0.2791 0.4770
vt 0.0853 0.4540
vt 0.2711 0.4664
vt 0.0933 0.4434
vt 0.2655 0.4544
vt 0.0952 0.4394
vt 0.2630 0.4508
vt 0.0952 0.4262
vt 0.2609 0.4422
vt 0.0975 0.4177
vt 0.2578 0.4293
vt 0.2543 0.4212
vt 0.1032 0.4010
vt 0.2523 0.4202
vt 0.2523 0.4114
vt 0.2543 0.4028
vt 0.1070 0.3614
vt 0.2572 0.3899
vt 0.2637 0.3687
vt 0.1088 0.3306
vt 0.2666 0.3558
vt 0.2687 0.3427
vt 0.1147 0.2913
vt 0.2721 0.3209
vt 0.2742 0.3078
vt 0.2776 0.2950
vt 0.1147 0.2692
vt 0.2810 0.2822
vt 0.2832 0.2737
vt 0.1147 0.2473
vt 0.2832 0.2604
vt 0.1185 0.2256
vt 0.2832 0.2384
vt 0.1204 0.2036
vt 0.2832 0.2207
vt 0.2858 0.2036
vt 0.3698 0.0445
vt 0.3698 0.2036
vt 0.3079 0.2036
vt 0.3035 0.2036
vt 0.1182 0.2036
vt 0.0298 0.2036
vt 0.3698 0.0356
vt 0.0298 0.0402
vt 0.3658 0.0050
vt 0.0322 0.0050
vt 0.2546 0.4869
vt 0.2806 0.4770
vt 0.2844 0.4794
vt 0.2573 0.4904
vt 0.2867 0.4832
vt 0.2593 0.4943
vt 0.2867 0.4920
vt 0.2602 0.4987
vt 0.2618 0.5028
vt 0.2912 0.5091
vt 0.2618 0.5249
vt 0.2934 0.5176
vt 0.2640 0.5299
vt 0.2980 0.5347
vt 0.2640 0.5490
vt 0.2667 0.5546
vt 0.3005 0.5522
vt 0.2667 0.5590
vt 0.3033 0.5651
vt 0.2639 0.5607
vt 0.2639 0.5670
vt 0.2660 0.5708
vt 0.2660 0.5753
vt 0.3033 0.5758
vt 0.2620 0.5771
vt 0.2620 0.5815
vt 0.3033 0.5803
vt 0.2658 0.5837
vt 0.2978 0.5923
vt 0.2658 0.5873
vt 0.2634 0.5910
vt 0.2950 0.6007
vt 0.2937 0.6094
vt 0.2634 0.5954
vt 0.2615 0.5994
vt 0.2576 0.6073
vt 0.2891 0.6218
vt 0.2872 0.6305
vt 0.0422 0.6396
vt 0.0506 0.6551
vt 0.2845 0.6434
vt 0.0549 0.6629
vt 0.2826 0.6521
vt 0.0586 0.6697
vt 0.2808 0.6607
vt 0.0664 0.6738
vt 0.2767 0.6685
vt 0.0681 0.6779
vt 0.2767 0.6707
vt 0.0723 0.6856
vt 0.2744 0.6793
vt 0.0734 0.6974
vt 0.2721 0.6878
vt 0.0796 0.7038
vt 0.2698 0.6963
vt 0.0807 0.7080
vt 0.2666 0.7045
vt 0.0930 0.7130
vt 0.2643 0.7083
vt 0.1104 0.7164
vt 0.2620 0.7121
vt 0.1280 0.7178
vt 0.2620 0.7165
vt 0.2327 0.7244
vt 0.2239 0.7244
vt 0.2566 0.7204
vt 0.2602 0.7178
vt 0.1375 0.7327
vt 0.2200 0.7265
vt 0.1399 0.7364
vt 0.2101 0.7353
vt 0.1399 0.7408
vt 0.1399 0.7431
vt 0.2070 0.7384
vt 0.1333 0.7490
vt 0.2070 0.7419
vt 0.1320 0.7532
vt 0.2139 0.7474
vt 0.1320 0.7580
vt 0.2167 0.7508
vt 0.1295 0.7617
vt 0.2167 0.7552
vt 0.2149 0.7563
vt 0.1283 0.7704
vt 0.2149 0.7624
vt 0.1283 0.7793
vt 0.2173 0.7709
vt 0.1283 0.7925
vt 0.2173 0.7816
vt 0.1307 0.8010
vt 0.2209 0.7897
vt 0.1307 0.8054
vt 0.2188 0.7983
vt 0.1317 0.8097
vt 0.2140 0.8057
vt 0.1362 0.8173
vt 0.2091 0.8130
vt 0.1435 0.8224
vt 0.2035 0.8199
vt 0.1510 0.8270
vt 0.1969 0.8257
vt 0.1593 0.8300
vt 0.1898 0.8310
vt 0.1679 0.8322
vt 0.1856 0.8322
vt 0.0805 0.6197
vt 0.0263 0.6184
vt 0.0764 0.6163
vt 0.0702 0.6099
vt 0.0649 0.6029
vt 0.0163 0.6038
vt 0.0612 0.5948
vt 0.0498 0.5759
vt 0.0089 0.5928
vt 0.0050 0.5849
vt 0.0050 0.5805
vt 0.0498 0.5728
vt 0.0072 0.5719
vt 0.0101 0.5636
vt 0.0511 0.5685
vt 0.0145 0.5511
vt 0.0511 0.5516
vt 0.0200 0.5390
vt 0.0539 0.5483
vt 0.0255 0.5270
vt 0.0584 0.5406
vt 0.0328 0.5109
vt 0.0591 0.5274
vt 0.0638 0.5228
vt 0.0607 0.5259
vt 0.0391 0.4993
vt 0.0679 0.5150
vt 0.0720 0.5071
vt 0.0442 0.4920
vt 0.0486 0.4920
vt 0.0523 0.4895
vt 0.0752 0.5041
vt 0.0545 0.4857
vt 0.0563 0.4817
vt 0.0591 0.4783
vt 0.0734 0.4562
vt 0.0784 0.4596
vt 0.0750 0.4521
vt 0.0807 0.4511
vt 0.0773 0.4483
vt 0.0858 0.4438
vt 0.0832 0.4474
vt 0.0818 0.4407
vt 0.0858 0.4418
vt 0.0845 0.4407
vt 0.2540 0.5714
vt 0.0201 0.3320
vt 0.0201 0.2072
vt 0.0156 0.2072
vt 0.0156 0.3320
vt 0.4153 0.3450
vt 0.4209 0.2126
vt 0.2906 0.2258
vt 0.4209 0.3450
vt 0.2906 0.2201
vt 0.0156 0.3375
vt 0.0201 0.3375
vt 0.2871 0.2871
vt 0.2926 0.2871
vt 0.2871 0.4195
vt 0.4173 0.4063
vt 0.4173 0.4120
vt 0.0320 0.2374
vt 0.0320 0.2418
vt 0.0263 0.2418
vt 0.0263 0.2374
vn 0.0000 -1.0000 -0.0000
vn -1.0000 0.0000 0.0000
vn 0.0000 1.0000 0.0000
vn 1.0000 0.0000 0.0000
vn 0.0000 0.0000 -1.0000
vn 0.9973 0.0737 -0.0043
vn 0.9891 0.1470 -0.0085
vn 0.8613 -0.5073 0.0290
vn 0.9647 -0.2628 0.0150
vn 0.9647 -0.2630 0.0150
vn 0.0000 0.9983 -0.0580
vn 0.9930 -0.1179 0.0067
vn 0.9930 -0.1178 0.0067
vn 0.9776 -0.2099 0.0122
vn 0.9776 -0.2101 0.0122
vn 0.9349 -0.3544 0.0206
vn 1.0000 0.0071 -0.0004
vn 1.0000 0.0073 -0.0004
vn 0.9504 0.3106 -0.0180
vn -0.7928 0.6085 -0.0350
vn -0.8437 0.5359 -0.0309
vn -0.9410 0.3377 -0.0195
vn -0.9410 0.3378 -0.0195
vn -0.9594 0.2816 -0.0163
vn -0.9594 0.2815 -0.0163
vn -0.9839 0.1785 -0.0103
vn -0.9839 0.1784 -0.0103
vn -0.9788 0.2045 -0.0118
vn -0.9788 0.2046 -0.0118
vn -0.9749 0.2225 -0.0127
vn -0.9748 0.2226 -0.0127
vn -0.5079 -0.8600 0.0500
vn -0.9689 0.2469 -0.0141
vn -0.9689 0.2471 -0.0141
vn -0.4187 -0.9066 0.0527
vn -0.5004 0.8643 -0.0498
vn -0.9588 -0.2837 0.0162
vn -0.9587 -0.2839 0.0162
vn -0.9743 -0.2251 0.0131
vn -0.9743 -0.2249 0.0131
vn -0.8984 -0.4385 0.0254
vn -0.8983 -0.4386 0.0253
vn 0.0000 -0.9984 0.0570
vn -0.0000 -0.0576 -0.9983
vn 0.0000 -0.0575 -0.9983
vn 0.0000 -0.0577 -0.9983
vn -0.0000 -0.0574 -0.9984
vn -0.0000 -0.0573 -0.9984
vn -0.9641 0.2652 -0.0153
vn -0.9641 0.2651 -0.0153
vn -0.8466 0.5314 -0.0306
vn -0.9609 0.2764 -0.0159
vn -0.9609 0.2766 -0.0159
vn -0.9567 -0.2907 0.0167
vn -0.9567 -0.2906 0.0167
vn -0.9834 0.1812 -0.0104
vn -0.9834 0.1811 -0.0104
vn -0.9342 0.3563 -0.0205
vn -0.8999 0.4354 -0.0251
vn -0.8999 0.4353 -0.0251
vn 0.0000 -0.9983 0.0580
vn 0.3456 -0.9368 0.0544
vn 0.3457 -0.9368 0.0544
vn 0.6854 -0.7270 0.0421
vn 0.7595 -0.6494 0.0374
vn 0.8575 -0.5137 0.0297
vn 0.8575 -0.5136 0.0297
vn 0.8839 -0.4669 0.0271
vn 0.9634 -0.2676 0.0155
vn 0.9635 -0.2674 0.0155
vn 0.9892 0.1462 -0.0084
vn 0.9892 0.1463 -0.0084
vn 0.9377 0.3470 -0.0200
vn 0.9377 0.3467 -0.0200
vn 0.8150 0.5785 -0.0334
vn 0.9585 0.2846 -0.0165
vn 0.9585 0.2845 -0.0165
vn 0.9987 0.0515 -0.0030
vn 0.6948 0.7180 -0.0417
vn 0.6945 0.7182 -0.0417
vn 0.8021 0.5962 -0.0346
vn 0.8885 0.4581 -0.0266
vn 0.7976 0.6022 -0.0348
vn 0.4268 0.9028 -0.0517
vn 0.4269 0.9028 -0.0517
vn 0.1292 0.9900 -0.0565
vn -0.8747 -0.4840 0.0279
vn -0.7862 -0.6170 0.0355
vn -0.8747 -0.4839 0.0279
vn -0.7621 -0.6464 0.0374
vn -0.8523 -0.5221 0.0302
vn -0.8523 -0.5222 0.0302
vn -0.8911 -0.4530 0.0261
vn -0.7275 -0.6850 0.0397
vn -0.7275 -0.6849 0.0397
vn -0.2974 -0.9531 0.0554
vn -0.2975 -0.9531 0.0554
vn -0.8596 -0.5101 0.0293
vn -0.8597 -0.5100 0.0293
vn -0.8960 -0.4432 0.0255
vn -0.8960 -0.4433 0.0255
vn -0.9272 -0.3740 0.0215
vn -0.8218 -0.5688 0.0330
vn -0.8508 -0.5246 0.0305
vn -0.8945 -0.4464 0.0259
vn -0.9103 -0.4132 0.0239
vn -0.9103 -0.4132 0.0238
vn -0.9280 -0.3719 0.0215
vn -0.9439 -0.3298 0.0191
vn -0.9576 -0.2877 0.0166
vn -0.9923 -0.1234 0.0071
vn -0.9923 -0.1235 0.0071
vn -0.9745 0.2242 -0.0128
vn -0.9744 0.2243 -0.0128
vn -0.8650 0.5010 -0.0286
vn -0.8649 0.5010 -0.0286
vn -0.8263 0.5624 -0.0322
vn -0.8140 0.5799 -0.0335
vn -0.8420 0.5386 -0.0313
vn -0.8419 0.5387 -0.0313
vn -0.8783 0.4773 -0.0277
vn -0.8783 0.4773 -0.0276
vn -0.7030 0.7100 -0.0407
vn -0.7029 0.7101 -0.0407
vn -0.7423 0.6689 -0.0383
vn -0.7425 0.6688 -0.0383
vn -0.9025 0.4300 -0.0248
vn -0.9025 0.4299 -0.0248
vn -0.9559 0.2932 -0.0169
vn -0.9559 0.2931 -0.0169
vn -0.9094 0.4152 -0.0237
vn -0.9093 0.4154 -0.0237
vn -0.8706 0.4911 -0.0281
vn -0.8707 0.4910 -0.0281
vn -0.9663 0.2568 -0.0148
vn -0.3778 0.9244 -0.0532
vn -0.2848 0.9570 -0.0549
vn -0.1350 0.9892 -0.0567
vn -0.0805 0.9951 -0.0573
vn -0.8438 0.5358 -0.0309
vn -0.9602 0.2789 -0.0161
vn -0.9601 0.2791 -0.0161
vn -0.6764 -0.7353 0.0424
vn -0.8407 -0.5405 0.0312
vn -0.8407 -0.5406 0.0312
vn -0.9875 -0.1573 0.0091
vn -0.9875 -0.1574 0.0091
vn -0.9556 -0.2943 0.0171
vn -0.9556 -0.2941 0.0171
vn -0.9336 -0.3578 0.0208
vn -0.9335 -0.3579 0.0208
vn -0.9977 -0.0673 0.0039
vn -0.9977 -0.0672 0.0039
vn -0.9908 0.1351 -0.0078
vn -0.9908 0.1350 -0.0078
vn -0.9926 0.1212 -0.0070
vn -0.9254 0.3783 -0.0220
vn -0.9255 0.3782 -0.0220
vn -0.7342 0.6778 -0.0394
vn -0.5499 0.8338 -0.0484
vn -0.4350 0.8989 -0.0522
vn -0.2933 0.9544 -0.0554
vn -0.1236 0.9907 -0.0575
vn -0.1237 0.9907 -0.0575
vn 0.1329 0.9895 -0.0575
vn 0.4390 0.8970 -0.0519
vn 0.4391 0.8970 -0.0519
vn 0.6333 0.7726 -0.0443
vn 0.7219 0.6909 -0.0394
vn 0.7218 0.6909 -0.0394
vn 0.8055 0.5916 -0.0339
vn 0.8355 0.5485 -0.0317
vn 0.9171 0.3980 -0.0231
vn 0.9171 0.3979 -0.0231
vn 0.9958 -0.0912 0.0053
vn 0.9958 -0.0913 0.0053
vn 0.9778 -0.2090 0.0120
vn 0.9779 -0.2089 0.0120
vn 0.9901 -0.1401 0.0081
vn 0.9901 -0.1402 0.0081
vn 0.5208 0.8522 -0.0495
vn 0.9418 -0.3357 0.0193
vn 0.9417 -0.3359 0.0193
vn 0.6986 -0.7143 0.0409
vn 0.6987 -0.7143 0.0409
vn 0.6150 -0.7872 0.0449
vn 0.7158 0.6972 -0.0401
vn 0.6876 0.7249 -0.0416
vn 0.6877 0.7249 -0.0416
vn 0.5769 0.8155 -0.0468
vn 0.5770 0.8154 -0.0468
vn 0.2529 0.9659 -0.0559
vn 0.2528 0.9659 -0.0559
vn 0.0825 0.9949 -0.0578
vn 0.3833 0.9221 -0.0534
vn 0.3834 0.9220 -0.0534
vn 0.5827 0.8114 -0.0465
vn 0.5828 0.8113 -0.0463
vn 0.9643 0.2644 -0.0154
vn 0.9643 0.2645 -0.0154
vn 0.8597 0.5100 -0.0295
vn 0.8973 0.4406 -0.0254
vn 0.9492 0.3141 -0.0181
vn 0.9659 0.2585 -0.0149
vn 0.9659 0.2585 -0.0150
vn 0.9914 0.1304 -0.0076
vn 0.9914 0.1303 -0.0076
vn 0.9718 0.2356 -0.0137
vn 0.9717 0.2357 -0.0137
vn 0.9414 0.3367 -0.0195
vn 0.9414 0.3366 -0.0195
vn 0.9777 0.2095 -0.0120
vn 0.9777 0.2094 -0.0120
vn 0.9777 0.2094 -0.0121
vn 0.9599 0.2798 -0.0162
vn 0.9599 0.2799 -0.0162
vn 0.9690 0.2468 -0.0142
vn 0.9733 0.2293 -0.0132
vn 0.9732 0.2294 -0.0132
vn 0.9306 0.3654 -0.0210
vn 0.9306 0.3653 -0.0210
vn 0.9771 0.2123 -0.0122
vn 0.9772 0.2122 -0.0122
vn 0.9944 -0.1060 0.0061
vn 0.9944 -0.1059 0.0061
vn 0.9842 -0.1769 0.0102
vn 0.9798 -0.1994 0.0115
vn 0.9799 -0.1994 0.0115
vn 0.9668 -0.2551 0.0147
vn 0.9668 -0.2551 0.0146
vn 0.9917 -0.1286 0.0073
vn 0.9917 -0.1287 0.0073
vn 0.9625 -0.2708 0.0156
vn 0.9625 -0.2709 0.0156
vn 0.7119 -0.7011 0.0402
vn 0.7120 -0.7010 0.0402
vn 0.2779 -0.9591 0.0548
vn 0.2779 -0.9590 0.0548
vn 0.8011 -0.5975 0.0344
vn 0.8576 -0.5135 0.0297
vn 0.8705 -0.4913 0.0284
vn 0.8705 -0.4914 0.0284
vn 0.9148 -0.4032 0.0232
vn 0.9148 -0.4033 0.0232
vn 0.9710 -0.2386 0.0137
vn 0.9489 -0.3151 0.0182
vn 0.7296 -0.6828 0.0394
vn 0.7296 -0.6827 0.0394
vn 0.4490 -0.8920 0.0514
vn 0.9937 0.1115 -0.0064
vn 0.9751 0.2215 -0.0128
vn 0.9664 0.2566 -0.0148
vn 0.9664 0.2565 -0.0148
vn 0.9820 0.1885 -0.0109
vn 0.9878 0.1555 -0.0090
vn 0.9787 0.2051 -0.0118
vn 0.9670 0.2542 -0.0147
vn 0.9917 0.1282 -0.0074
vn 0.9917 0.1281 -0.0074
vn 0.9973 0.0738 -0.0043
vn 0.9891 0.1471 -0.0085
vn 0.0000 0.9983 -0.0576
vn 0.9979 -0.0651 0.0038
vn 0.9915 -0.1300 0.0075
vn 0.0000 -0.9983 0.0576
vn -0.9976 -0.0685 0.0040
vn -0.9994 -0.0343 0.0020
vn -0.9961 -0.0882 0.0051
vn -0.9917 -0.1286 0.0074
vn -0.9964 -0.0847 0.0049
vn -0.9972 -0.0747 0.0043
vn -0.9945 -0.1041 0.0060
vn -0.9946 -0.1041 0.0060
vn -0.9971 -0.0764 0.0044
vn -0.9777 -0.2098 0.0121
vn -0.9559 -0.2933 0.0169
vn -0.9911 -0.1330 0.0077
vn -0.9759 -0.2180 0.0126
vn -0.9759 -0.2179 0.0126
vn -0.8562 -0.5159 0.0297
vn -0.8320 -0.5539 0.0318
vn -0.9020 -0.4311 0.0248
vn -0.9019 -0.4311 0.0248
vn -0.9350 -0.3542 0.0204
vn 0.9356 0.3524 -0.0201
vn 0.9513 0.3076 -0.0176
vn 0.9513 0.3077 -0.0176
vn 0.9055 0.4236 -0.0245
vn 0.9055 0.4237 -0.0245
vn 0.8191 0.5726 -0.0332
vn 0.9537 0.3003 -0.0174
vn 0.9537 0.3002 -0.0174
vn 0.6291 -0.7761 0.0448
vn 0.3337 -0.9411 0.0543
vn -0.0000 0.0576 0.9983
vn 0.0000 0.0575 0.9983
vn 0.0000 0.0574 0.9984
vn 0.0000 0.0573 0.9984
vn 0.0000 0.6910 -0.7229
usemtl FrontColor
s 1
f 1/1/1 2/2/1 3/3/1 4/4/1
s 2
f 3/5/2 2/6/2 5/7/2 6/8/2
s 3
f 6/9/3 5/10/3 7/11/3 8/12/3
s 4
f 8/13/4 7/14/4 1/15/4 4/16/4
s 5
f 4/17/5 3/18/5 6/19/5 8/20/5
s 6
f 9/21/4 10/22/6 11/23/6 12/24/4
f 10/22/6 13/25/7 14/26/7 11/23/6
f 15/27/8 16/28/9 17/29/10 18/30/8
f 16/28/9 9/21/4 12/24/4 17/29/10
s 7
f 13/31/11 19/32/11 20/33/11 14/34/11
s 8
f 19/35/4 21/36/12 22/37/13 20/38/4
f 21/36/12 23/39/13 24/40/12 22/37/13
f 23/39/13 25/41/4 26/42/4 24/40/12
f 25/41/4 27/43/14 28/44/15 26/42/4
f 27/43/14 29/45/16 30/46/16 28/44/15
f 29/45/16 31/47/17 32/48/18 30/46/16
f 31/47/17 33/49/19 34/50/19 32/48/18
s 9
f 33/51/11 35/52/11 36/53/11 34/54/11
s 10
f 35/55/20 37/56/21 38/57/21 36/58/20
f 37/56/21 39/59/22 40/60/23 38/57/21
f 39/59/22 41/61/24 42/62/25 40/60/23
f 41/61/24 43/63/26 44/64/27 42/62/25
f 43/63/26 45/65/28 46/66/29 44/64/27
f 45/65/28 47/67/28 48/68/29 46/66/29
f 47/67/28 49/69/30 50/70/31 48/68/29
f 49/69/30 51/71/31 52/72/30 50/70/31
f 51/71/31 53/73/2 54/74/2 52/72/30
s 11
f 53/73/32 55/75/32 56/76/32 54/74/32
s 12
f 55/75/2 57/77/33 58/78/34 56/76/2
f 57/77/33 59/79/34 60/80/33 58/78/34
f 59/79/34 61/81/2 62/82/2 60/80/33
s 13
f 61/81/35 63/83/35 64/84/35 62/82/35
s 14
f 63/83/2 65/85/2 66/86/2 64/84/2
s 15
f 65/85/36 67/87/36 68/88/36 66/86/36
s 16
f 67/87/2 69/89/37 70/90/38 68/88/2
f 69/89/37 71/91/38 72/92/37 70/90/38
f 71/91/38 73/93/39 74/94/40 72/92/37
f 73/93/39 75/95/41 76/96/41 74/94/40
f 75/95/41 77/97/42 78/98/42 76/96/41
s 17
f 77/99/43 15/100/43 18/101/43 78/102/43
s 18
f 79/103/44 17/104/44 12/105/44
f 79/103/44 80/106/44 18/107/44 17/104/44
f 81/108/44 79/103/44 14/109/44 22/110/44
f 79/103/44 11/111/44 14/109/44
f 79/103/44 12/105/44 11/111/44
f 14/109/44 20/112/44 22/110/44
f 82/113/45 81/108/44 22/110/44 24/114/45
f 83/115/44 82/113/45 24/114/45 26/116/44
f 84/117/44 83/115/44 26/116/44
f 85/118/44 84/117/44 26/116/44 28/119/45
f 86/120/44 85/118/44 28/119/45
f 87/121/44 86/120/44 28/119/45 30/122/44
f 88/123/44 87/121/44 30/122/44 32/124/44
f 88/123/44 32/124/44 34/125/44
f 89/126/44 90/127/44 88/123/44 34/125/44
f 91/128/45 89/126/44 92/129/46 93/130/44
f 34/125/44 94/131/47 92/129/46 89/126/44
f 95/132/44 94/131/47 34/125/44 96/133/44
f 34/125/44 36/134/44 97/135/44 96/133/44
f 36/134/44 98/136/44 97/135/44
f 36/134/44 38/137/45 99/138/45 98/136/44
f 38/137/45 40/139/44 100/140/44 99/138/45
f 40/139/44 42/141/44 100/140/44
f 42/141/44 44/142/44 101/143/44 100/140/44
f 44/142/44 46/144/44 102/145/44 101/143/44
f 46/144/44 48/146/44 103/147/44 102/145/44
f 48/146/44 50/148/44 103/147/44
f 50/148/44 52/149/44 104/150/44 103/147/44
f 52/149/44 54/151/44 105/152/44 104/150/44
f 54/151/44 56/153/44 105/152/44
f 56/153/44 58/154/45 105/152/44
f 58/154/45 60/155/44 105/152/44
f 60/155/44 62/156/44 106/157/45 105/152/44
f 62/156/44 64/158/45 106/157/45
f 64/158/45 66/159/45 107/160/45 106/157/45
f 66/159/45 68/161/45 108/162/44 107/160/45
f 68/161/45 70/163/45 108/162/44
f 70/163/45 72/164/44 109/165/44 108/162/44
f 110/166/44 109/165/44 72/164/44 74/167/45
f 74/167/45 76/168/45 110/166/44
f 76/168/45 78/169/44 111/170/44 110/166/44
f 112/171/44 111/170/44 78/169/44 18/107/44
f 18/107/44 80/106/44 113/172/44 112/171/44
f 80/106/44 114/173/44 113/172/44
f 115/174/44 113/172/44 114/173/44 116/175/44
f 115/174/44 116/175/44 117/176/45
f 115/174/44 117/176/45 118/177/45
f 119/178/44 115/174/44 118/177/45 120/179/44
f 119/178/44 120/179/44 121/180/44
f 122/181/44 119/178/44 121/180/44
f 123/182/44 122/181/44 121/180/44
f 124/183/44 123/182/44 121/180/44 125/184/44
f 126/185/44 124/183/44 125/184/44
f 127/186/44 126/185/44 125/184/44 128/187/44
f 129/188/44 127/186/44 128/187/44 130/189/44
f 131/190/44 129/188/44 130/189/44
f 131/190/44 130/189/44 132/191/44
f 133/192/44 131/190/44 132/191/44 134/193/44
f 135/194/44 133/192/44 134/193/44 136/195/45
f 135/194/44 136/195/45 137/196/45 138/197/45
f 139/198/44 135/194/44 138/197/45 140/199/44
f 139/198/44 140/199/44 141/200/44
f 142/201/44 139/198/44 141/200/44
f 143/202/44 142/201/44 141/200/44
f 144/203/44 143/202/44 141/200/44 145/204/44
f 146/205/44 144/203/44 145/204/44 88/123/44
f 147/206/45 146/205/44 88/123/44
f 148/207/44 147/206/45 88/123/44
f 90/127/44 148/207/44 88/123/44
f 113/172/44 149/208/44 150/209/44 112/171/44
f 149/208/44 151/210/44 152/211/44 150/209/44
f 151/210/44 153/212/44 154/213/44 152/211/44
f 153/212/44 155/214/44 156/215/44 154/213/44
f 155/214/44 157/216/44 158/217/44 156/215/44
f 157/216/44 159/218/44 160/219/44 158/217/44
f 159/218/44 161/220/44 162/221/44 160/219/44
f 161/220/44 163/222/44 164/223/44 162/221/44
f 163/222/44 165/224/44 166/225/44 164/223/44
f 165/224/44 167/226/44 168/227/44 166/225/44
f 167/226/44 169/228/44 170/229/44 168/227/44
f 169/228/44 171/230/44 172/231/44 173/232/44 174/233/44 170/229/44
f 171/230/44 175/234/44 176/235/44 172/231/44
f 175/234/44 177/236/44 178/237/44 176/235/44
f 177/236/44 179/238/44 178/237/44
f 179/238/44 180/239/44 181/240/44 178/237/44
f 180/239/44 182/241/44 183/242/44 181/240/44
f 182/241/44 184/243/44 185/244/44 183/242/44
f 184/243/44 186/245/45 187/246/45 185/244/44
f 186/245/45 188/247/45 189/248/45 190/249/45 187/246/45
f 188/247/45 191/250/44 192/251/44 189/248/45
f 191/250/44 193/252/44 194/253/44 192/251/44
f 193/252/44 195/254/44 196/255/44 194/253/44
f 195/254/44 197/256/44 198/257/44 196/255/44
f 197/256/44 199/258/44 200/259/44 198/257/44
f 199/258/44 201/260/44 202/261/44 200/259/44
f 201/260/44 203/262/45 204/263/45 202/261/44
f 203/262/45 205/264/45 206/265/45 204/263/45
f 205/264/45 207/266/44 208/267/44 206/265/45
f 207/266/44 209/268/44 210/269/44 208/267/44
f 209/268/44 211/270/48 212/271/48 210/269/44
f 173/232/44 213/272/44 214/273/44 174/233/44
f 215/274/45 95/132/44 96/133/44 216/275/45
f 217/276/44 215/274/45 216/275/45 218/277/44
f 219/278/44 217/276/44 218/277/44 220/279/44
f 221/280/44 219/278/44 220/279/44 222/281/44
f 223/282/44 221/280/44 222/281/44 224/283/44
f 223/282/44 224/283/44 225/284/44
f 226/285/44 223/282/44 225/284/44 227/286/44
f 226/285/44 227/286/44 228/287/45
f 226/285/44 228/287/45 229/288/44
f 230/289/44 226/285/44 229/288/44 231/290/44
f 230/289/44 231/290/44 232/291/44
f 233/292/44 230/289/44 232/291/44 234/293/44
f 233/292/44 234/293/44 235/294/44
f 236/295/44 233/292/44 235/294/44 237/296/44
f 236/295/44 237/296/44 238/297/44
f 236/295/44 238/297/44 239/298/44
f 240/299/44 236/295/44 239/298/44 241/300/44
f 240/299/44 241/300/44 242/301/44
f 243/302/44 240/299/44 242/301/44 244/303/44
f 245/304/44 243/302/44 244/303/44 246/305/44
f 247/306/44 245/304/44 246/305/44 248/307/44
f 247/306/44 248/307/44 249/308/44
f 247/306/44 249/308/44 250/309/44 251/310/44 252/311/44 253/312/44
f 254/313/44 255/314/44 247/306/44 253/312/44 256/315/44
f 256/315/44 257/316/44 254/313/44
f 256/315/44 258/317/44 259/318/44 257/316/44
f 260/319/45 91/128/45 93/130/44 261/320/45
f 262/321/44 260/319/45 261/320/45 263/322/44 264/323/44
f 265/324/44 262/321/44 264/323/44 266/325/44
f 266/325/44 267/326/47 265/324/44
s 19
f 268/327/49 269/328/2 80/329/2 79/330/50
f 270/331/51 271/332/52 87/333/53 88/334/51
f 271/332/52 272/335/2 86/336/2 87/333/53
f 272/335/2 273/337/54 85/338/55 86/336/2
f 273/337/54 274/339/54 84/340/55 85/338/55
f 274/339/54 275/341/56 83/342/57 84/340/55
f 275/341/56 276/343/58 82/344/58 83/342/57
f 276/343/58 277/345/59 81/346/60 82/344/58
f 277/345/59 268/327/49 79/330/50 81/346/60
s 20
f 269/347/61 278/348/62 114/349/63 80/350/61
f 278/348/62 279/351/64 116/352/64 114/349/63
f 279/353/64 280/354/65 117/355/65 116/356/64
f 280/354/65 281/357/66 118/358/67 117/355/65
f 281/357/66 282/359/68 120/360/68 118/358/67
f 282/359/68 283/361/69 121/362/70 120/360/68
f 283/361/69 284/363/71 125/364/72 121/362/70
f 284/363/71 285/365/71 128/366/72 125/364/72
f 285/365/71 286/367/73 130/368/74 128/366/72
f 286/367/73 287/369/75 132/370/75 130/368/74
f 287/369/75 288/371/76 134/372/77 132/370/75
f 288/371/76 289/373/78 136/374/78 134/372/77
s 21
f 289/375/79 290/376/80 137/377/80 136/378/79
f 290/376/80 291/379/81 138/380/81 137/377/80
f 291/381/81 292/382/82 140/383/82 138/384/81
f 292/382/82 293/385/83 141/386/83 140/383/82
f 293/387/83 294/388/84 145/389/85 141/390/83
f 294/388/84 270/391/86 88/392/86 145/389/85
s 22
f 295/393/87 296/394/88 90/395/88 89/396/89
f 296/394/88 297/397/90 148/398/90 90/395/88
f 297/397/90 298/399/91 147/400/92 148/398/90
f 298/399/91 299/401/93 146/402/93 147/400/92
f 299/401/93 300/403/94 144/404/95 146/402/93
f 300/405/94 301/406/96 143/407/97 144/408/95
f 301/406/96 302/409/61 142/410/61 143/407/97
f 303/411/98 304/412/99 262/413/99 265/414/98
f 304/412/99 305/415/100 260/416/101 262/413/99
f 305/415/100 306/417/102 91/418/102 260/416/101
f 306/417/102 295/393/87 89/396/89 91/418/102
s 23
f 302/419/103 307/420/104 139/421/104 142/422/103
f 307/420/104 308/423/105 135/424/105 139/421/104
f 308/423/105 309/425/106 133/426/106 135/424/105
f 309/425/106 310/427/107 131/428/107 133/426/106
f 310/427/107 311/429/108 129/430/108 131/428/107
f 311/429/108 312/431/109 127/432/109 129/430/108
f 312/431/109 313/433/110 126/434/110 127/432/109
f 313/433/110 314/435/111 124/436/112 126/434/110
f 314/435/111 315/437/113 123/438/114 124/436/112
f 315/437/113 316/439/115 122/440/116 123/438/114
f 316/439/115 317/441/117 119/442/117 122/440/116
f 317/441/117 318/443/118 115/444/118 119/442/117
f 318/443/118 319/445/119 113/446/120 115/444/118
f 319/445/119 320/447/121 149/448/121 113/446/120
f 320/447/121 321/449/122 151/450/122 149/448/121
f 321/449/122 322/451/123 153/452/124 151/450/122
f 322/451/123 323/453/125 155/454/126 153/452/124
f 323/453/125 324/455/127 157/456/128 155/454/126
f 324/455/127 325/457/129 159/458/130 157/456/128
f 325/457/129 326/459/131 161/460/132 159/458/130
f 326/459/131 327/461/133 163/462/134 161/460/132
f 327/461/133 328/463/135 165/464/135 163/462/134
s 24
f 328/465/136 329/466/137 167/467/137 165/468/136
f 329/466/137 330/469/138 169/470/138 167/467/137
f 330/469/138 331/471/139 171/472/139 169/470/138
s 25
f 331/473/140 332/474/140 175/475/140 171/476/140
f 332/474/140 333/477/141 177/478/142 175/475/140
f 333/477/141 334/479/2 179/480/2 177/478/142
f 334/479/2 335/481/2 180/482/2 179/480/2
s 26
f 335/481/143 336/483/144 182/484/145 180/482/143
f 336/483/144 337/485/146 184/486/147 182/484/145
f 337/485/146 338/487/148 186/488/149 184/486/147
f 338/487/148 339/489/150 188/490/151 186/488/149
f 339/489/150 340/491/152 191/492/153 188/490/151
f 340/491/152 341/493/2 193/494/2 191/492/153
f 341/493/2 342/495/154 195/496/155 193/494/2
f 342/495/154 343/497/155 197/498/154 195/496/155
f 343/497/155 344/499/156 199/500/156 197/498/154
f 344/499/156 345/501/157 201/502/158 199/500/156
f 345/501/157 346/503/159 203/504/159 201/502/158
f 346/505/159 347/506/160 205/507/160 203/508/159
f 347/506/160 348/509/161 207/510/161 205/507/160
f 348/509/161 349/511/162 209/512/162 207/510/161
f 349/511/162 350/513/163 211/514/164 209/512/162
f 350/513/163 351/515/165 212/516/165 211/514/164
f 351/515/165 352/517/166 210/518/167 212/516/165
f 352/517/166 353/519/168 208/520/168 210/518/167
f 353/519/168 354/521/169 206/522/170 208/520/168
f 354/523/169 355/524/171 204/525/171 206/526/170
f 355/524/171 356/527/172 202/528/172 204/525/171
f 356/527/172 357/529/173 200/530/174 202/528/172
f 357/529/173 358/531/175 198/532/176 200/530/174
f 358/531/175 359/533/177 196/534/178 198/532/176
f 359/533/177 360/535/179 194/536/180 196/534/178
f 360/535/179 361/537/180 192/538/179 194/536/180
f 361/537/180 362/539/4 189/540/4 192/538/179
s 27
f 362/539/181 363/541/181 190/542/181 189/540/181
s 28
f 363/541/4 364/543/182 187/544/183 190/542/4
f 364/543/182 365/545/184 185/546/185 187/544/183
f 365/545/184 366/547/186 183/548/186 185/546/185
s 29
f 366/547/4 367/549/4 181/550/4 183/548/4
s 30
f 367/549/187 368/551/188 178/552/189 181/550/187
f 368/553/188 369/554/190 176/555/191 178/556/189
f 369/554/190 370/557/192 172/558/193 176/555/191
f 370/557/192 371/559/194 173/560/194 172/558/193
f 371/559/194 372/561/195 213/562/196 173/560/194
f 372/561/195 373/563/197 214/564/197 213/562/196
f 373/563/197 374/565/198 174/566/198 214/564/197
s 31
f 374/567/4 375/568/199 170/569/200 174/570/4
f 375/568/199 376/571/201 168/572/201 170/569/200
f 376/571/201 377/573/202 166/574/202 168/572/201
f 377/573/202 378/575/203 164/576/203 166/574/202
f 378/575/203 379/577/204 162/578/204 164/576/203
f 379/577/204 380/579/205 160/580/205 162/578/204
f 380/579/205 381/581/206 158/582/207 160/580/205
f 381/581/206 382/583/208 156/584/209 158/582/207
f 382/583/208 383/585/210 154/586/211 156/584/209
f 383/585/210 384/587/212 152/588/212 154/586/211
f 384/587/212 385/589/213 150/590/213 152/588/212
f 385/589/213 386/591/214 112/592/214 150/590/213
f 386/591/214 387/593/215 111/594/216 112/592/214
f 387/593/215 388/595/217 110/596/217 111/594/216
f 388/595/217 389/597/218 109/598/219 110/596/217
f 389/597/218 390/599/220 108/600/221 109/598/219
f 390/599/220 391/601/222 107/602/223 108/600/221
f 391/601/222 392/603/4 106/604/4 107/602/223
f 392/603/4 393/605/224 105/606/225 106/604/4
f 393/605/224 394/607/226 104/608/226 105/606/225
f 394/607/226 395/609/227 103/610/228 104/608/226
f 395/609/227 396/611/229 102/612/229 103/610/228
f 396/611/229 397/613/230 101/614/230 102/612/229
f 397/613/230 398/615/231 100/616/232 101/614/230
f 398/615/231 399/617/233 99/618/234 100/616/232
f 399/617/233 400/619/235 98/620/236 99/618/234
f 400/621/235 401/622/237 97/623/238 98/624/236
f 401/622/237 402/625/43 96/626/43 97/623/238
s 32
f 402/627/239 403/628/240 216/629/240 96/630/239
f 403/628/240 404/631/241 218/632/242 216/629/240
f 404/631/241 405/633/243 220/634/244 218/632/242
f 405/633/243 406/635/245 222/636/245 220/634/244
f 406/635/245 407/637/246 224/638/246 222/636/245
f 407/637/246 408/639/247 225/640/248 224/638/246
f 408/639/247 409/641/249 227/642/249 225/640/248
s 33
f 409/641/4 410/643/250 228/644/250 227/642/4
f 410/643/250 411/645/251 229/646/251 228/644/250
f 411/645/251 412/647/252 231/648/252 229/646/251
f 412/647/252 413/649/253 232/650/253 231/648/252
f 413/649/253 414/651/254 234/652/254 232/650/253
f 414/651/254 415/653/255 235/654/255 234/652/254
f 415/653/255 416/655/255 237/656/255 235/654/255
f 416/655/255 417/657/256 238/658/256 237/656/255
f 417/657/256 418/659/257 239/660/257 238/658/256
f 418/659/257 419/661/257 241/662/257 239/660/257
f 419/661/257 420/663/258 242/664/259 241/662/257
f 420/663/258 421/665/4 244/666/4 242/664/259
f 421/665/4 422/667/4 246/668/4 244/666/4
f 422/667/4 423/669/260 248/670/260 246/668/4
f 423/669/260 424/671/261 249/672/261 248/670/260
s 34
f 424/673/262 425/674/262 250/675/262 249/676/262
f 425/674/262 426/677/262 251/678/262 250/675/262
f 426/677/262 427/679/262 252/680/262 251/678/262
s 35
f 427/681/4 428/682/4 253/683/4 252/684/4
f 428/682/4 429/685/263 256/686/263 253/683/4
f 429/685/263 430/687/264 258/688/264 256/686/263
s 36
f 430/689/265 431/690/265 259/691/265 258/692/265
s 37
f 431/693/266 432/694/267 257/695/267 259/696/266
f 432/694/267 433/697/2 254/698/2 257/695/267
s 38
f 433/699/262 434/700/262 255/701/262 254/702/262
f 434/700/262 435/703/262 247/704/262 255/701/262
s 39
f 435/705/268 436/706/269 245/707/269 247/708/268
f 436/706/269 437/709/270 243/710/270 245/707/269
f 437/709/270 438/711/2 240/712/2 243/710/270
f 438/711/2 439/713/271 236/714/271 240/712/2
f 439/713/271 440/715/272 233/716/273 236/714/271
f 440/715/272 441/717/274 230/718/274 233/716/273
f 441/717/274 442/719/275 226/720/275 230/718/274
f 442/719/275 443/721/276 223/722/276 226/720/275
f 443/721/276 444/723/277 221/724/277 223/722/276
f 444/723/277 445/725/278 219/726/279 221/724/277
f 445/725/278 446/727/280 217/728/280 219/726/279
f 446/727/280 447/729/281 215/730/281 217/728/280
f 447/729/281 448/731/282 95/732/283 215/730/281
f 448/731/282 449/733/284 94/734/284 95/732/283
s 40
f 449/735/43 450/736/43 92/737/43 94/738/43
s 41
f 450/739/285 451/740/286 93/741/287 92/742/285
f 451/740/286 452/743/288 261/744/289 93/741/287
f 452/743/288 453/745/290 263/746/290 261/744/289
f 453/745/290 454/747/291 264/748/292 263/746/290
f 454/747/291 455/749/4 266/750/4 264/748/292
s 42
f 455/751/293 456/752/294 267/753/294 266/754/293
f 456/752/294 303/755/265 265/756/265 267/753/294
s 43
f 457/757/295 458/758/295 459/759/295 460/760/295
f 459/759/295 458/758/295 461/761/296
f 461/761/296 458/758/295 462/762/295
f 462/762/295 458/758/295 463/763/295
f 458/758/295 464/764/295 465/765/295 463/763/295
f 464/764/295 466/766/295 467/767/295 465/765/295
f 466/766/295 468/768/295 469/769/295 467/767/295
f 468/768/295 470/770/295 469/769/295
f 470/770/295 471/771/295 472/772/295 469/769/295
f 471/771/295 473/773/295 472/772/295
f 473/773/295 474/774/296 475/775/296 472/772/295
f 474/774/296 476/776/296 477/777/296 475/775/296
f 477/777/296 476/776/296 478/778/295
f 479/779/295 480/780/295 478/778/295 476/776/296
f 481/781/295 478/778/295 480/780/295 482/782/295
f 481/781/295 483/783/295 484/784/295 478/778/295
f 483/783/295 485/785/295 486/786/295 484/784/295
f 485/785/295 487/787/295 488/788/295 486/786/295
f 487/787/295 489/789/295 490/790/295 488/788/295
f 489/789/295 491/791/295 492/792/295 490/790/295
f 491/791/295 493/793/295 494/794/295 492/792/295
f 494/794/295 493/793/295 495/795/295
f 493/793/295 496/796/295 497/797/295 495/795/295
f 497/797/295 496/796/295 498/798/295
f 498/798/295 496/796/295 499/799/295
f 496/796/295 500/800/295 501/801/295 499/799/295
f 501/801/295 500/800/295 502/802/295
f 500/800/295 503/803/295 504/804/295 502/802/295
f 504/804/295 503/803/295 505/805/295
f 503/803/295 506/806/295 507/807/295 505/805/295
f 507/807/295 506/806/295 508/808/295
f 508/808/295 506/806/295 509/809/295
f 506/806/295 510/810/295 511/811/295 509/809/295
f 511/811/295 510/810/295 512/812/295
f 510/810/295 513/813/295 514/814/295 512/812/295
f 513/813/295 515/815/295 516/816/295 514/814/295
f 515/815/295 517/817/295 518/818/295 516/816/295
f 518/818/295 517/817/295 519/819/295
f 519/819/295 517/817/295 520/820/295 521/821/295 522/822/295 523/823/295
f 524/824/295 525/825/295 526/826/295 520/820/295 517/817/295
f 527/827/295 526/826/295 525/825/295
f 528/828/295 526/826/295 527/827/295 529/829/295
f 530/830/295 478/778/295 484/784/295 531/831/296
f 532/832/296 530/830/295 531/831/296
f 533/833/295 530/830/295 532/832/296 534/834/295
f 535/835/295 533/833/295 534/834/295 536/836/295
f 537/837/295 535/835/295 536/836/295
f 538/838/295 537/837/295 536/836/295 539/839/295
f 540/840/295 538/838/295 539/839/295 541/841/295
f 542/842/295 540/840/295 541/841/295 543/843/295
f 544/844/295 542/842/295 543/843/295
f 545/845/295 544/844/295 543/843/295 546/846/295
f 547/847/296 545/845/295 546/846/295 548/848/295
f 549/849/296 547/847/296 548/848/295
f 550/850/295 549/849/296 548/848/295
f 551/851/295 550/850/295 548/848/295
f 552/852/295 551/851/295 548/848/295 553/853/295
f 554/854/295 552/852/295 553/853/295
f 555/855/295 554/854/295 553/853/295 556/856/295
f 557/857/295 555/855/295 556/856/295 558/858/295
f 559/859/295 557/857/295 558/858/295
f 560/860/295 559/859/295 558/858/295 561/861/295
f 561/861/295 562/862/295 563/863/295 560/860/295
f 564/864/295 563/863/295 562/862/295
f 565/865/295 564/864/295 562/862/295 566/866/295
f 566/866/295 567/867/295 460/760/295 565/865/295
f 457/757/295 460/760/295 567/867/295 568/868/295
f 569/869/295 568/868/295 567/867/295 570/870/295
f 571/871/295 569/869/295 570/870/295 572/872/295
f 573/873/295 571/871/295 572/872/295 574/874/295
f 575/875/295 573/873/295 574/874/295 576/876/295
f 577/877/295 575/875/295 576/876/295 578/878/295
f 579/879/295 577/877/295 578/878/295 580/880/295
f 581/881/295 579/879/295 580/880/295 582/882/295
f 583/883/295 581/881/295 582/882/295 584/884/295
f 585/885/295 583/883/295 584/884/295 586/886/295
f 587/887/295 585/885/295 586/886/295 588/888/295
f 589/889/295 587/887/295 588/888/295 590/890/295
f 591/891/295 589/889/295 590/890/295 592/892/296 593/893/296 594/894/296
f 595/895/296 593/893/296 592/892/296 596/896/296
f 597/897/295 591/891/295 594/894/296 598/898/295
f 599/899/295 597/897/295 598/898/295 600/900/296
f 601/901/296 599/899/295 600/900/296
f 602/902/296 601/901/296 600/900/296 603/903/296
f 604/904/295 602/902/296 603/903/296 605/905/295
f 606/906/295 604/904/295 605/905/295 607/907/295
f 608/908/295 606/906/295 607/907/295 609/909/295
f 610/910/295 608/908/295 609/909/295 611/911/295 612/912/295
f 613/913/295 610/910/295 612/912/295 614/914/295
f 615/915/295 613/913/295 614/914/295 616/916/295
f 617/917/295 615/915/295 616/916/295 618/918/295
f 619/919/295 617/917/295 618/918/295 620/920/295
f 621/921/295 619/919/295 620/920/295 622/922/295
f 623/923/295 621/921/295 622/922/295 624/924/295
f 625/925/295 623/923/295 624/924/295 626/926/295
f 627/927/295 625/925/295 626/926/295 628/928/295
f 629/929/295 627/927/295 628/928/295 630/930/295
f 631/931/296 629/929/295 630/930/295 632/932/296
f 633/933/297 631/931/296 632/932/296 634/934/297
f 635/935/295 457/757/295 568/868/295
f 568/868/295 636/936/295 637/937/295 635/935/295
f 637/937/295 636/936/295 638/938/296
f 638/938/296 636/936/295 639/939/295
f 636/936/295 640/940/295 641/941/295 639/939/295
f 641/941/295 640/940/295 642/942/295
f 640/940/295 643/943/295 642/942/295
f 643/943/295 644/944/295 642/942/295
f 644/944/295 645/945/295 646/946/295 642/942/295
f 645/945/295 647/947/296 646/946/295
f 647/947/296 648/948/295 649/949/295 646/946/295
f 648/948/295 650/950/295 651/951/296 649/949/295
f 650/950/295 652/952/295 651/951/296
f 651/951/296 652/952/295 653/953/295
f 652/952/295 654/954/295 655/955/295 653/953/295
f 654/954/295 656/956/295 657/957/295 655/955/295
f 657/957/295 656/956/295 658/958/295 659/959/295
f 656/956/295 660/960/295 661/961/295 658/958/295
f 661/961/295 660/960/295 662/962/296
f 660/960/295 663/963/296 662/962/296
f 663/963/296 664/964/296 662/962/296
f 664/964/296 665/965/296 666/966/296 662/962/296
f 665/965/296 667/967/295 476/776/296 666/966/296
f 667/967/295 668/968/295 476/776/296
f 668/968/295 669/969/295 476/776/296
f 669/969/295 479/779/295 476/776/296
f 480/780/295 670/970/295 671/971/295 482/782/295
f 670/970/295 672/972/295 673/973/296 671/971/295
f 672/972/295 674/974/296 675/975/295 676/976/296 673/973/296
f 674/974/296 677/977/295 678/978/295 675/975/295
f 679/979/298 678/978/295 677/977/295
f 680/980/295 463/763/295 465/765/295
s 44
f 681/981/299 682/982/299 683/983/299 684/984/299
s 45
f 681/985/2 685/986/2 682/987/2
f 686/988/2 685/986/2 681/985/2
f 687/989/2 682/987/2 685/986/2
s 46
f 681/981/5 684/984/5 688/990/5 686/991/5
s 47
f 688/992/4 684/993/4 689/994/4
f 683/995/4 689/994/4 684/993/4
f 690/996/4 689/994/4 683/995/4
s 48
f 687/997/3 690/998/3 683/999/3 682/1000/3
