# Blender v2.78 (sub 0) OBJ File: 'video_store_ceiling.blend'
# www.blender.org
mtllib video_store_ceiling.mtl
o Mesh5_Group6_Group1_Model
v 0.019148 0.005000 -1.980850
v 0.019148 0.005000 -1.010000
v 0.990000 0.005000 -1.010000
v 0.990000 0.005000 -1.980850
v 1.010000 0.005000 -1.980850
v 1.010000 0.005000 -1.010000
v 1.980850 0.005000 -1.010000
v 1.980850 0.005000 -1.980850
v 0.990000 0.005000 -0.019148
v 0.990000 0.005000 -0.990000
v 0.019148 0.005000 -0.990000
v 0.019148 0.005000 -0.019148
v 1.010000 0.005000 -0.019148
v 1.010000 0.009000 -0.019148
v 1.980850 0.009000 -0.019148
v 1.980850 0.005000 -0.019148
v 1.010000 0.005000 -0.990000
v 1.010000 0.009000 -0.990000
v 1.980850 0.005000 -0.990000
v 1.980850 0.009000 -0.990000
v 1.981850 0.010000 -0.018148
v 1.981850 0.010000 -0.957253
v 1.981850 0.010000 -0.991000
v 1.999000 0.010000 -0.001000
v 1.990430 0.010000 -0.505000
v 1.009000 0.010000 -0.018148
v 0.001000 0.010000 -0.001000
v 1.009000 0.010000 -0.991000
v 1.981850 0.010000 -1.009000
v 1.009000 0.010000 -1.009000
v 1.981850 0.010000 -1.981850
v 1.999000 0.010000 -0.052747
v 1.999000 0.010000 -1.999000
v 1.495000 0.010000 -1.990430
v 1.042750 0.010000 -1.981850
v 1.947250 0.010000 -1.999000
v 0.018148 0.010000 -1.981850
v 0.991000 0.010000 -1.981850
v 0.001000 0.010000 -1.999000
v 0.009574 0.010000 -1.495000
v 0.018148 0.010000 -1.042750
v 0.001000 0.010000 -1.947250
v 0.018148 0.010000 -0.018148
v 0.018148 0.010000 -0.991000
v 0.991000 0.010000 -0.018148
v 0.991000 0.010000 -0.991000
v 0.991000 0.010000 -1.009000
v 0.018148 0.010000 -1.009000
v 1.009000 0.010000 -1.981850
v 1.980850 0.009000 -1.980850
v 1.980850 0.009000 -1.010000
v 1.010000 0.009000 -1.980850
v 0.019148 0.009000 -1.980850
v 0.990000 0.009000 -1.980850
v 0.019148 0.009000 -1.010000
v 0.019148 0.009000 -0.019148
v 0.019148 0.009000 -0.990000
v 0.990000 0.009000 -0.019148
v 0.990000 0.009000 -0.990000
v 0.990000 0.009000 -1.010000
v 1.010000 0.009000 -1.010000
v 1.010000 0.005000 -1.010000
v 1.980850 0.005000 -1.010000
v 1.010000 0.005000 -1.980850
v 1.980850 0.005000 -1.980850
v 0.990000 0.005000 -1.010000
v 0.990000 0.005000 -1.980850
v 0.019148 0.005000 -1.010000
v 0.019148 0.005000 -1.980850
v 0.990000 0.005000 -0.990000
v 0.019148 0.005000 -0.990000
v 0.990000 0.005000 -0.019148
v 0.019148 0.005000 -0.019148
v 0.000000 0.009000 -2.000000
v 0.000000 0.009000 0.000000
v 2.000000 0.009000 -2.000000
v 2.000000 0.009000 0.000000
v 2.000000 0.000000 0.000000
v 0.000000 0.000000 0.000000
v 2.000000 0.000000 -2.000000
v 0.000000 0.000000 -2.000000
v 1.980850 0.005000 -0.019148
v 1.980850 0.005000 -0.990000
v 1.010000 0.005000 -0.990000
v 1.010000 0.005000 -0.019148
vt 0.3240 0.6564
vt 0.6368 0.6564
vt 0.6368 0.9692
vt 0.3240 0.9692
vt 0.0050 0.6564
vt 0.3179 0.6564
vt 0.3179 0.9692
vt 0.0050 0.9692
vt 0.9558 0.9692
vt 0.6429 0.9692
vt 0.6429 0.6564
vt 0.9558 0.6564
vt 0.7903 0.3240
vt 0.7890 0.3240
vt 0.7890 0.6368
vt 0.7903 0.6368
vt 0.7638 0.3307
vt 0.7651 0.3307
vt 0.7651 0.6435
vt 0.7638 0.6435
vt 0.7735 0.3240
vt 0.7722 0.3240
vt 0.7722 0.6368
vt 0.7735 0.6368
vt 0.7819 0.3240
vt 0.7806 0.3240
vt 0.7806 0.6368
vt 0.7819 0.6368
vt 0.6437 0.6437
vt 0.3410 0.6437
vt 0.3302 0.6437
vt 0.3305 0.6434
vt 0.6434 0.6434
vt 0.6492 0.6492
vt 0.4868 0.6464
vt 0.6437 0.3302
vt 0.6492 0.0053
vt 0.3302 0.3302
vt 0.3244 0.6437
vt 0.3244 0.3302
vt 0.0108 0.6437
vt 0.6325 0.6492
vt 0.0053 0.6492
vt 0.0081 0.4868
vt 0.0108 0.3410
vt 0.0053 0.6325
vt 0.0108 0.0108
vt 0.0108 0.3244
vt 0.0053 0.0053
vt 0.1677 0.0081
vt 0.3135 0.0108
vt 0.0220 0.0053
vt 0.6437 0.0108
vt 0.3302 0.0108
vt 0.6437 0.3244
vt 0.3302 0.3244
vt 0.3244 0.3244
vt 0.3244 0.0108
vt 0.0108 0.3302
vt 0.6434 0.3305
vt 0.3305 0.3305
vt 0.0112 0.6434
vt 0.3240 0.6434
vt 0.0112 0.3305
vt 0.0112 0.0112
vt 0.0112 0.3240
vt 0.3240 0.0112
vt 0.6434 0.0112
vt 0.3305 0.0112
vt 0.6434 0.3240
vt 0.3305 0.3240
vt 0.3240 0.3240
vt 0.3240 0.3305
vt 0.7198 0.3374
vt 0.7185 0.3374
vt 0.7185 0.6503
vt 0.7198 0.6503
vt 0.7285 0.3240
vt 0.7298 0.3240
vt 0.7298 0.6368
vt 0.7285 0.6368
vt 0.7382 0.3307
vt 0.7369 0.3307
vt 0.7369 0.6435
vt 0.7382 0.6435
vt 0.7466 0.3357
vt 0.7453 0.3357
vt 0.7453 0.6486
vt 0.7466 0.6486
vt 0.7567 0.3240
vt 0.7554 0.3240
vt 0.7554 0.6368
vt 0.7567 0.6368
vt 0.6660 0.3324
vt 0.6647 0.3324
vt 0.6647 0.6452
vt 0.6660 0.6452
vt 0.6748 0.3240
vt 0.6761 0.3240
vt 0.6761 0.6368
vt 0.6748 0.6368
vt 0.6845 0.3307
vt 0.6832 0.3307
vt 0.6832 0.6435
vt 0.6845 0.6435
vt 0.6929 0.3357
vt 0.6916 0.3357
vt 0.6916 0.6486
vt 0.6929 0.6486
vt 0.7030 0.3240
vt 0.7017 0.3240
vt 0.7017 0.6368
vt 0.7030 0.6368
vt 0.7114 0.3307
vt 0.7101 0.3307
vt 0.7101 0.6435
vt 0.7114 0.6435
vt 0.6564 0.3240
vt 0.6576 0.3240
vt 0.6576 0.6368
vt 0.6564 0.6368
vt 0.0050 0.0050
vt 0.6495 0.0050
vt 0.0050 0.6495
vt 0.6495 0.6495
vt 0.9648 0.3240
vt 0.9619 0.3240
vt 0.9619 0.9685
vt 0.9648 0.9685
vt 0.9720 0.3307
vt 0.9749 0.3307
vt 0.9749 0.9752
vt 0.9720 0.9752
vt 0.9849 0.3374
vt 0.9820 0.3374
vt 0.9820 0.9819
vt 0.9849 0.9819
vt 0.9950 0.3441
vt 0.9921 0.3441
vt 0.9921 0.9886
vt 0.9950 0.9886
vt 0.9692 0.3179
vt 0.6564 0.3179
vt 0.6564 0.0050
vt 0.9692 0.0050
vn 0.0000 1.0000 0.0000
vn 0.0000 0.0000 -1.0000
vn 1.0000 0.0000 0.0000
vn 0.0000 0.0000 1.0000
vn -1.0000 0.0000 0.0000
vn -0.7071 0.7071 0.0000
vn 0.0000 0.7071 -0.7071
vn 0.7071 0.7071 0.0000
vn 0.0000 0.7071 0.7071
usemtl FrontColor
s 1
f 1/1/1 2/2/1 3/3/1 4/4/1
s 2
f 5/5/1 6/6/1 7/7/1 8/8/1
s 3
f 9/9/1 10/10/1 11/11/1 12/12/1
s 4
f 13/13/2 14/14/2 15/15/2 16/16/2
s 5
f 17/17/3 18/18/3 14/19/3 13/20/3
s 6
f 19/21/4 20/22/4 18/23/4 17/24/4
s 7
f 16/25/5 15/26/5 20/27/5 19/28/5
s 8
f 21/29/6 22/30/6 23/31/6 20/32/6 15/33/6
s 9
f 21/29/1 24/34/1 25/35/1 22/30/1
f 21/29/1 26/36/1 27/37/1 24/34/1
f 28/38/1 23/31/1 29/39/1 30/40/1
f 22/30/1 25/35/1 29/39/1 23/31/1
f 31/41/1 29/39/1 25/35/1 32/42/1 33/43/1
f 31/41/1 33/43/1 34/44/1 35/45/1
f 36/46/1 34/44/1 33/43/1
f 37/47/1 38/48/1 34/44/1 36/46/1 39/49/1
f 37/47/1 39/49/1 40/50/1 41/51/1
f 42/52/1 40/50/1 39/49/1
f 43/53/1 44/54/1 40/50/1 42/52/1 27/37/1
f 43/53/1 27/37/1 26/36/1 45/55/1
f 46/56/1 45/55/1 26/36/1 28/38/1
f 47/57/1 48/58/1 44/54/1 46/56/1
f 30/40/1 49/59/1 38/48/1 47/57/1
f 35/45/1 34/44/1 38/48/1 49/59/1
f 46/56/1 28/38/1 30/40/1 47/57/1
f 41/51/1 40/50/1 44/54/1 48/58/1
f 32/42/1 25/35/1 24/34/1
s 10
f 26/36/7 21/29/7 15/33/7 14/60/7
s 11
f 18/61/8 28/38/8 26/36/8 14/60/8
s 12
f 23/31/9 28/38/9 18/61/9 20/32/9
s 13
f 29/39/6 31/41/6 50/62/6 51/63/6
s 14
f 31/41/9 35/45/9 49/59/9 52/64/9 50/62/9
s 15
f 38/48/9 37/47/9 53/65/9 54/66/9
s 16
f 37/47/8 41/51/8 48/58/8 55/67/8 53/65/8
s 17
f 44/54/8 43/53/8 56/68/8 57/69/8
s 18
f 43/53/7 45/55/7 58/70/7 56/68/7
s 19
f 58/70/6 45/55/6 46/56/6 59/71/6
s 20
f 59/71/9 46/56/9 44/54/9 57/69/9
s 21
f 55/67/7 48/58/7 47/57/7 60/72/7
s 22
f 60/72/6 47/57/6 38/48/6 54/66/6
s 23
f 49/59/8 30/40/8 61/73/8 52/64/8
s 24
f 30/40/7 29/39/7 51/63/7 61/73/7
s 25
f 62/74/2 61/75/2 51/76/2 63/77/2
s 26
f 64/78/3 52/79/3 61/80/3 62/81/3
s 27
f 65/82/4 50/83/4 52/84/4 64/85/4
s 28
f 63/86/5 51/87/5 50/88/5 65/89/5
s 29
f 66/90/5 60/91/5 54/92/5 67/93/5
s 30
f 68/94/2 55/95/2 60/96/2 66/97/2
s 31
f 69/98/3 53/99/3 55/100/3 68/101/3
s 32
f 67/102/4 54/103/4 53/104/4 69/105/4
s 33
f 70/106/4 59/107/4 57/108/4 71/109/4
s 34
f 72/110/5 58/111/5 59/112/5 70/113/5
s 35
f 73/114/2 56/115/2 58/116/2 72/117/2
s 36
f 71/118/3 57/119/3 56/120/3 73/121/3
s 37
f 42/52/6 39/49/6 74/122/6 75/123/6 27/37/6
s 38
f 36/46/7 33/43/7 76/124/7 74/122/7 39/49/7
s 39
f 32/42/8 24/34/8 77/125/8 76/124/8 33/43/8
s 40
f 24/34/9 27/37/9 75/123/9 77/125/9
s 41
f 78/126/4 77/127/4 75/128/4 79/129/4
s 42
f 80/130/3 76/131/3 77/132/3 78/133/3
s 43
f 81/134/2 74/135/2 76/136/2 80/137/2
s 44
f 79/138/5 75/139/5 74/140/5 81/141/5
s 45
f 82/142/1 83/143/1 84/144/1 85/145/1
