# Blender v2.78 (sub 0) OBJ File: 'video_store_labels.blend'
# www.blender.org
mtllib video_store_labels_action.mtl
o Mesh1_Group3_Group2_Group1_Model
v 0.537615 0.029000 -0.011753
v 0.537615 0.005839 -0.011753
v 0.536615 0.007839 -0.012753
v 0.536615 0.029000 -0.012753
v 0.537615 0.001000 -0.003753
v 0.537615 0.029000 -0.003753
v 0.536615 0.029000 -0.002753
v 0.536615 0.001000 -0.002753
v 0.536615 0.030000 -0.003753
v 0.536615 0.030000 -0.011753
v 0.418615 0.029000 -0.012753
v 0.418615 0.030000 -0.011753
v 0.536615 0.006839 -0.013753
v 0.537615 0.005839 -0.021753
v 0.536615 0.006839 -0.021753
v 0.537615 0.001000 -0.021753
v 0.536615 0.000000 -0.003753
v 0.536615 0.000000 -0.021753
v 0.418615 0.001000 -0.002753
v 0.418615 0.000000 -0.003753
v 0.417615 0.001000 -0.003753
v 0.417615 0.001000 -0.021753
v 0.418615 0.000000 -0.021753
v 0.417615 0.005839 -0.011753
v 0.417615 0.029000 -0.011753
v 0.418615 0.007839 -0.012753
v 0.417615 0.029000 -0.003753
v 0.418615 0.030000 -0.003753
v 0.418615 0.029000 -0.002753
v 0.418615 0.006839 -0.013753
v 0.417615 0.005839 -0.021753
v 0.418615 0.006839 -0.021753
v 0.536615 0.005839 -0.022753
v 0.418615 0.005839 -0.022753
v 0.418615 0.001000 -0.022753
v 0.536615 0.001000 -0.022753
v 0.677615 0.150000 -0.002753
v 0.677615 0.000000 -0.002753
v 0.277615 0.000000 -0.002753
v 0.277615 0.150000 -0.002753
v 0.677615 0.150000 0.002247
v 0.677615 -0.000000 0.002247
v 0.277615 0.150000 0.002247
v 0.277615 -0.000000 0.002247
v 0.277615 0.140000 0.002247
v 0.417615 0.029000 0.011247
v 0.417615 0.005839 0.011247
v 0.418615 0.007839 0.012247
v 0.418615 0.029000 0.012247
v 0.417615 0.001000 0.003247
v 0.417615 0.029000 0.003247
v 0.418615 0.029000 0.002247
v 0.418615 0.001000 0.002247
v 0.418615 0.030000 0.003247
v 0.418615 0.030000 0.011247
v 0.536615 0.029000 0.012247
v 0.536615 0.030000 0.011247
v 0.418615 0.006839 0.013247
v 0.417615 0.005839 0.021247
v 0.418615 0.006839 0.021247
v 0.417615 0.001000 0.021247
v 0.418615 -0.000000 0.003247
v 0.418615 -0.000000 0.021247
v 0.536615 0.001000 0.002247
v 0.536615 -0.000000 0.003247
v 0.537615 0.001000 0.003247
v 0.537615 0.001000 0.021247
v 0.536615 -0.000000 0.021247
v 0.537615 0.005839 0.011247
v 0.537615 0.029000 0.011247
v 0.536615 0.007839 0.012247
v 0.537615 0.029000 0.003247
v 0.536615 0.030000 0.003247
v 0.536615 0.029000 0.002247
v 0.536615 0.006839 0.013247
v 0.537615 0.005839 0.021247
v 0.536615 0.006839 0.021247
v 0.418615 0.005839 0.022247
v 0.536615 0.005839 0.022247
v 0.536615 0.001000 0.022247
v 0.418615 0.001000 0.022247
vt 0.7002 0.7953
vt 0.6723 0.7953
vt 0.6747 0.7941
vt 0.7002 0.7941
vt 0.6665 0.8049
vt 0.7002 0.8049
vt 0.7002 0.8061
vt 0.6665 0.8061
vt 0.7014 0.8049
vt 0.7014 0.7953
vt 0.8042 0.3424
vt 0.9460 0.3424
vt 0.9460 0.3412
vt 0.8042 0.3412
vt 0.6735 0.7929
vt 0.6723 0.7833
vt 0.6735 0.7833
vt 0.6665 0.7833
vt 0.6653 0.8049
vt 0.6653 0.7833
vt 0.9472 0.3786
vt 0.8054 0.3786
vt 0.8054 0.3774
vt 0.9472 0.3774
vt 0.8042 0.3786
vt 0.8042 0.6513
vt 0.8259 0.6513
vt 0.8259 0.6501
vt 0.8042 0.6501
vt 0.9472 0.3702
vt 0.9472 0.3424
vt 0.9460 0.3678
vt 0.8042 0.6593
vt 0.8139 0.6593
vt 0.8139 0.6605
vt 0.8042 0.6605
vt 0.8054 0.4135
vt 0.8042 0.4123
vt 0.8054 0.4123
vt 0.9472 0.4123
vt 0.9472 0.4135
vt 0.8356 0.0392
vt 0.8344 0.0404
vt 0.8332 0.0404
vt 0.8236 0.0392
vt 0.8236 0.0404
vt 0.8224 0.1822
vt 0.8224 0.0404
vt 0.8236 0.1822
vt 0.7439 0.6389
vt 0.7439 0.6331
vt 0.7427 0.6331
vt 0.7427 0.6389
vt 0.8271 0.6501
vt 0.8271 0.5083
vt 0.8259 0.5083
vt 0.6665 0.7821
vt 0.6723 0.7821
vt 0.8042 0.3678
vt 0.8344 0.1822
vt 0.8332 0.1822
vt 0.5500 0.1172
vt 0.5500 0.0956
vt 0.5442 0.1052
vt 0.5442 0.1172
vt 0.5164 0.1052
vt 0.5164 0.0956
vt 0.8139 0.8023
vt 0.8042 0.8023
vt 0.6009 0.6331
vt 0.6009 0.6389
vt 0.8042 0.5083
vt 0.0050 0.9749
vt 0.1852 0.9749
vt 0.1852 0.4942
vt 0.0050 0.4942
vt 0.4982 0.8807
vt 0.6785 0.8807
vt 0.6785 0.8867
vt 0.4982 0.8867
vt 0.7901 0.4857
vt 0.7901 0.0050
vt 0.7962 0.0050
vt 0.7962 0.4857
vt 0.8042 0.4277
vt 0.9845 0.4277
vt 0.9845 0.4217
vt 0.8163 0.4217
vt 0.8042 0.4217
vt 0.7901 0.9950
vt 0.7962 0.9950
vt 0.7962 0.5143
vt 0.7901 0.5143
vt 0.3745 0.4942
vt 0.1942 0.4942
vt 0.1942 0.9749
vt 0.2063 0.9749
vt 0.3745 0.9749
vt 0.5164 0.0472
vt 0.5442 0.0472
vt 0.5418 0.0460
vt 0.5164 0.0460
vt 0.7258 0.7082
vt 0.7258 0.6746
vt 0.7246 0.6746
vt 0.7246 0.7082
vt 0.7246 0.6734
vt 0.3835 0.6734
vt 0.3931 0.6734
vt 0.3931 0.6746
vt 0.3835 0.6746
vt 0.3943 0.6746
vt 0.3943 0.8164
vt 0.3931 0.8164
vt 0.4028 0.6746
vt 0.4016 0.6734
vt 0.4040 0.6746
vt 0.4136 0.6734
vt 0.4136 0.6746
vt 0.4994 0.8164
vt 0.5211 0.8164
vt 0.5211 0.8152
vt 0.4994 0.8152
vt 0.7246 0.7094
vt 0.5828 0.7082
vt 0.5828 0.7094
vt 0.5840 0.7189
vt 0.5828 0.7189
vt 0.5840 0.7177
vt 0.5840 0.7405
vt 0.5828 0.7405
vt 0.5898 0.7285
vt 0.6176 0.7285
vt 0.6176 0.7297
vt 0.5922 0.7297
vt 0.6188 0.7285
vt 0.6176 0.7189
vt 0.6188 0.7189
vt 0.6176 0.7177
vt 0.5828 0.6746
vt 0.5828 0.6734
vt 0.5910 0.7309
vt 0.5898 0.7405
vt 0.5910 0.7405
vt 0.4148 0.6746
vt 0.4148 0.8164
vt 0.4136 0.8164
vt 0.5898 0.7417
vt 0.5840 0.7417
vt 0.4982 0.6734
vt 0.4982 0.8152
vt 0.4994 0.6734
vt 0.6009 0.5443
vt 0.6009 0.5385
vt 0.6021 0.5385
vt 0.6021 0.5443
vt 0.5164 0.0568
vt 0.5500 0.0568
vt 0.5442 0.0352
vt 0.5500 0.0352
vt 0.5740 0.8152
vt 0.5740 0.6734
vt 0.5486 0.6734
vt 0.5486 0.8152
vt 0.4028 0.8164
vt 0.4040 0.8164
vt 0.3835 0.8164
vt 0.7439 0.5385
vt 0.7439 0.5443
vt 0.5211 0.6734
vn 0.7388 0.4765 -0.4765
vn 0.8517 0.3705 -0.3705
vn 0.8372 0.1566 -0.5239
vn 0.4765 0.4765 -0.7388
vn 0.7388 -0.4765 0.4765
vn 0.7388 0.4765 0.4765
vn 0.4765 0.4765 0.7388
vn 0.4765 -0.4765 0.7388
vn 0.4765 0.7388 0.4765
vn 0.4765 0.7388 -0.4765
vn -0.4765 0.4765 -0.7388
vn -0.4765 0.7388 -0.4765
vn 0.8372 0.5240 -0.1566
vn 0.7388 -0.4765 -0.4765
vn 0.4765 -0.7388 0.4765
vn 0.4765 -0.7388 -0.4765
vn -0.4765 -0.4765 0.7388
vn -0.4765 -0.7388 0.4765
vn -0.7388 -0.4765 0.4765
vn -0.7388 -0.4765 -0.4765
vn -0.4765 -0.7388 -0.4765
vn -0.8517 0.3705 -0.3705
vn -0.7388 0.4765 -0.4765
vn -0.8372 0.1566 -0.5239
vn -0.7388 0.4765 0.4765
vn -0.4765 0.7388 0.4765
vn -0.4765 0.4765 0.7388
vn -0.8372 0.5240 -0.1566
vn -0.4765 -0.4765 -0.7388
vn 0.4765 -0.4765 -0.7388
vn 1.0000 -0.0000 0.0000
vn 0.0000 0.0000 -1.0000
vn 0.0000 0.7071 -0.7071
vn -1.0000 -0.0000 0.0000
vn 0.0000 1.0000 0.0000
vn 0.0000 -1.0000 -0.0000
vn 0.0000 -0.0000 1.0000
vn -0.8517 0.3705 0.3705
vn -0.8372 0.1566 0.5240
vn -0.8372 0.5240 0.1566
vn 0.8517 0.3705 0.3705
vn 0.8372 0.1566 0.5239
vn 0.8372 0.5239 0.1566
vn 0.0000 0.7071 0.7071
usemtl FrontColor
s 1
f 1/1/1 2/2/2 3/3/3 4/4/4
f 5/5/5 6/6/6 7/7/7 8/8/8
f 6/6/6 9/9/9 7/7/7
f 6/6/6 1/1/1 10/10/10 9/9/9
f 10/10/10 1/1/1 4/4/4
f 4/11/4 11/12/11 12/13/12 10/14/10
f 3/3/3 2/2/2 13/15/13
f 2/2/2 14/16/1 15/17/10 13/15/13
f 16/18/14 5/5/5 17/19/15 18/20/16
f 17/19/15 5/5/5 8/8/8
f 8/21/8 19/22/17 20/23/18 17/24/15
f 21/25/19 20/23/18 19/22/17
f 21/26/19 22/27/20 23/28/21 20/29/18
f 24/30/22 25/31/23 11/12/11 26/32/24
f 25/31/23 12/13/12 11/12/11
f 25/33/23 27/34/25 28/35/26 12/36/12
f 28/37/26 27/38/25 29/39/27
f 27/38/25 21/25/19 19/22/17 29/39/27
f 29/39/27 7/40/7 9/41/9 28/37/26
f 24/42/22 26/43/24 30/44/28
f 31/45/23 24/42/22 30/44/28 32/46/12
f 33/47/4 34/48/11 32/46/12 15/49/10
f 22/50/20 31/51/23 34/52/11 35/53/29
f 31/45/23 32/46/12 34/48/11
f 23/28/21 22/27/20 35/54/29
f 35/54/29 36/55/30 18/56/16 23/28/21
f 16/18/14 18/20/16 36/57/30
f 14/16/1 16/18/14 36/57/30 33/58/4
f 15/17/10 14/16/1 33/58/4
s 2
f 6/6/31 5/5/31 2/2/31 1/1/31
f 14/16/31 2/2/31 5/5/31 16/18/31
s 3
f 3/59/32 26/32/32 11/12/32 4/11/32
s 4
f 26/43/33 3/60/33 13/61/33 30/44/33
s 5
f 22/62/34 21/63/34 24/64/34 31/65/34
f 25/66/34 24/64/34 21/63/34 27/67/34
s 6
f 12/36/35 28/35/35 9/68/35 10/69/35
s 7
f 32/46/35 30/44/35 13/61/35 15/49/35
s 8
f 35/53/32 34/52/32 33/70/32 36/71/32
s 9
f 20/29/36 23/28/36 18/56/36 17/72/36
s 10
f 37/73/32 38/74/32 39/75/32 40/76/32
s 11
f 38/77/31 37/78/31 41/79/31 42/80/31
s 12
f 37/81/35 40/82/35 43/83/35 41/84/35
s 13
f 40/85/34 39/86/34 44/87/34 45/88/34 43/89/34
s 14
f 44/90/36 39/91/36 38/92/36 42/93/36
s 15
f 42/94/37 41/95/37 43/96/37 45/97/37 44/98/37
s 16
f 46/99/25 47/100/38 48/101/39 49/102/27
f 50/103/20 51/104/23 52/105/11 53/106/29
f 51/104/23 54/107/12 52/105/11
f 51/108/23 46/109/25 55/110/26 54/111/12
f 55/110/26 46/109/25 49/112/27
f 49/112/27 56/113/7 57/114/9 55/110/26
f 48/115/39 47/116/38 58/117/40
f 47/116/38 59/118/25 60/119/26 58/117/40
f 61/120/19 50/121/20 62/122/21 63/123/18
f 62/124/21 50/103/20 53/106/29
f 53/106/29 64/125/30 65/126/16 62/124/21
f 66/127/14 65/128/16 64/129/30
f 66/127/14 67/130/5 68/131/15 65/128/16
f 69/132/41 70/133/6 56/134/7 71/135/42
f 70/133/6 57/136/9 56/134/7
f 70/133/6 72/137/1 73/138/10 57/136/9
f 73/138/10 72/137/1 74/139/4
f 72/137/1 66/127/14 64/129/30 74/139/4
f 74/140/4 52/105/11 54/107/12 73/141/10
f 69/132/41 71/135/42 75/142/43
f 76/143/6 69/132/41 75/142/43 77/144/9
f 78/145/27 79/146/7 77/147/9 60/119/26
f 67/130/5 76/143/6 79/148/7 80/149/8
f 76/143/6 77/144/9 79/148/7
f 68/131/15 67/130/5 80/149/8
f 80/150/8 81/151/17 63/123/18 68/152/15
f 61/120/19 63/123/18 81/151/17
f 59/153/25 61/154/19 81/155/17 78/156/27
f 60/119/26 59/118/25 78/145/27
s 17
f 51/157/34 50/158/34 47/100/34 46/99/34
f 59/159/34 47/100/34 50/158/34 61/160/34
s 18
f 48/161/37 71/162/37 56/163/37 49/164/37
s 19
f 71/165/44 48/115/44 58/117/44 75/166/44
s 20
f 67/130/31 66/127/31 69/132/31 76/143/31
f 70/133/31 69/132/31 66/127/31 72/137/31
s 21
f 57/114/35 73/167/35 54/111/35 55/110/35
s 22
f 77/147/35 75/166/35 58/117/35 60/119/35
s 23
f 80/168/37 79/169/37 78/156/37 81/155/37
s 24
f 65/170/36 68/152/36 63/123/36 62/122/36
o Mesh6_Group9_Group6_Group1_Model
v 0.200000 0.150000 -0.002500
v 0.200000 0.000000 -0.002500
v -0.200000 0.000000 -0.002500
v -0.200000 0.150000 -0.002500
v 0.200000 0.150000 0.002500
v 0.200000 -0.000000 0.002500
v -0.200000 0.150000 0.002500
v -0.200000 -0.000000 0.002500
v -0.200000 0.140000 0.002500
v -0.060000 0.029000 0.011500
v -0.060000 0.005839 0.011500
v -0.059000 0.007839 0.012500
v -0.059000 0.029000 0.012500
v -0.060000 0.001000 0.003500
v -0.060000 0.029000 0.003500
v -0.059000 0.029000 0.002500
v -0.059000 0.001000 0.002500
v -0.059000 0.030000 0.003500
v -0.059000 0.030000 0.011500
v 0.059000 0.029000 0.012500
v 0.059000 0.030000 0.011500
v -0.059000 0.006839 0.013500
v -0.060000 0.005839 0.021500
v -0.059000 0.006839 0.021500
v -0.060000 0.001000 0.021500
v -0.059000 -0.000000 0.003500
v -0.059000 -0.000000 0.021500
v 0.059000 0.001000 0.002500
v 0.059000 -0.000000 0.003500
v 0.060000 0.001000 0.003500
v 0.060000 0.001000 0.021500
v 0.059000 -0.000000 0.021500
v 0.060000 0.005839 0.011500
v 0.060000 0.029000 0.011500
v 0.059000 0.007839 0.012500
v 0.060000 0.029000 0.003500
v 0.059000 0.030000 0.003500
v 0.059000 0.029000 0.002500
v 0.059000 0.006839 0.013500
v 0.060000 0.005839 0.021500
v 0.059000 0.006839 0.021500
v -0.059000 0.005839 0.022500
v 0.059000 0.005839 0.022500
v 0.059000 0.001000 0.022500
v -0.059000 0.001000 0.022500
v 0.060000 0.029000 -0.011500
v 0.060000 0.005839 -0.011500
v 0.059000 0.007839 -0.012500
v 0.059000 0.029000 -0.012500
v 0.060000 0.001000 -0.003500
v 0.060000 0.029000 -0.003500
v 0.059000 0.029000 -0.002500
v 0.059000 0.001000 -0.002500
v 0.059000 0.030000 -0.003500
v 0.059000 0.030000 -0.011500
v -0.059000 0.029000 -0.012500
v -0.059000 0.030000 -0.011500
v 0.059000 0.006839 -0.013500
v 0.060000 0.005839 -0.021500
v 0.059000 0.006839 -0.021500
v 0.060000 0.001000 -0.021500
v 0.059000 0.000000 -0.003500
v 0.059000 0.000000 -0.021500
v -0.059000 0.001000 -0.002500
v -0.059000 0.000000 -0.003500
v -0.060000 0.001000 -0.003500
v -0.060000 0.001000 -0.021500
v -0.059000 0.000000 -0.021500
v -0.060000 0.005839 -0.011500
v -0.060000 0.029000 -0.011500
v -0.059000 0.007839 -0.012500
v -0.060000 0.029000 -0.003500
v -0.059000 0.030000 -0.003500
v -0.059000 0.029000 -0.002500
v -0.059000 0.006839 -0.013500
v -0.060000 0.005839 -0.021500
v -0.059000 0.006839 -0.021500
v 0.059000 0.005839 -0.022500
v -0.059000 0.005839 -0.022500
v -0.059000 0.001000 -0.022500
v 0.059000 0.001000 -0.022500
vt 0.4117 0.6507
vt 0.5919 0.6507
vt 0.5919 0.1701
vt 0.4117 0.1701
vt 0.4982 0.8666
vt 0.6785 0.8666
vt 0.6785 0.8727
vt 0.4982 0.8727
vt 0.7620 0.9749
vt 0.7620 0.4942
vt 0.7680 0.4942
vt 0.7680 0.9749
vt 0.7922 0.5002
vt 0.9724 0.5002
vt 0.9724 0.4942
vt 0.8042 0.4942
vt 0.7922 0.4942
vt 0.7761 0.9849
vt 0.7821 0.9849
vt 0.7821 0.5043
vt 0.7761 0.5043
vt 0.7812 0.0050
vt 0.6009 0.0050
vt 0.6009 0.4857
vt 0.6129 0.4857
vt 0.7812 0.4857
vt 0.6665 0.7631
vt 0.6944 0.7631
vt 0.6920 0.7619
vt 0.6665 0.7619
vt 0.7002 0.7727
vt 0.6665 0.7727
vt 0.6665 0.7739
vt 0.7002 0.7739
vt 0.6653 0.7727
vt 0.6653 0.7631
vt 0.7216 0.7177
vt 0.7216 0.8595
vt 0.7204 0.8595
vt 0.7204 0.7177
vt 0.6932 0.7607
vt 0.6944 0.7511
vt 0.6932 0.7511
vt 0.7002 0.7511
vt 0.7014 0.7727
vt 0.7014 0.7511
vt 0.4901 0.8776
vt 0.4901 0.7358
vt 0.4889 0.7358
vt 0.4889 0.8776
vt 0.4551 0.7068
vt 0.4539 0.7068
vt 0.4551 0.7056
vt 0.4551 0.7284
vt 0.4539 0.7284
vt 0.4610 0.7164
vt 0.4888 0.7164
vt 0.4888 0.7176
vt 0.4634 0.7176
vt 0.4900 0.7164
vt 0.4888 0.7068
vt 0.4900 0.7068
vt 0.4888 0.7056
vt 0.7096 0.8595
vt 0.7096 0.7177
vt 0.7108 0.7177
vt 0.7108 0.8595
vt 0.4622 0.7188
vt 0.4610 0.7284
vt 0.4622 0.7284
vt 0.5404 0.6734
vt 0.5404 0.8152
vt 0.5392 0.8152
vt 0.5392 0.6734
vt 0.4610 0.7296
vt 0.4551 0.7296
vt 0.4660 0.7358
vt 0.4660 0.8776
vt 0.4672 0.8776
vt 0.4672 0.7358
vt 0.7002 0.7499
vt 0.6944 0.7499
vt 0.5841 0.1468
vt 0.5841 0.0050
vt 0.5586 0.0050
vt 0.5586 0.1468
vt 0.5284 0.8152
vt 0.5284 0.6734
vt 0.5296 0.6734
vt 0.5296 0.8152
vt 0.3893 0.4942
vt 0.3835 0.4942
vt 0.3835 0.6360
vt 0.3893 0.6360
vt 0.6176 0.7631
vt 0.5898 0.7631
vt 0.5922 0.7619
vt 0.6176 0.7619
vt 0.5840 0.7727
vt 0.6176 0.7727
vt 0.6176 0.7739
vt 0.5840 0.7739
vt 0.6188 0.7727
vt 0.6188 0.7631
vt 0.8042 0.0062
vt 0.9460 0.0062
vt 0.9460 0.0050
vt 0.8042 0.0050
vt 0.5910 0.7607
vt 0.5898 0.7511
vt 0.5910 0.7511
vt 0.5840 0.7511
vt 0.5828 0.7727
vt 0.5828 0.7511
vt 0.7297 0.7157
vt 0.7297 0.8575
vt 0.7310 0.8575
vt 0.7310 0.7157
vt 0.6176 0.7833
vt 0.6188 0.7833
vt 0.6176 0.7821
vt 0.6176 0.8049
vt 0.6188 0.8049
vt 0.6118 0.7929
vt 0.5840 0.7929
vt 0.5840 0.7941
vt 0.6094 0.7941
vt 0.5828 0.7929
vt 0.5840 0.7833
vt 0.5828 0.7833
vt 0.5840 0.7821
vt 0.6379 0.7177
vt 0.6379 0.8595
vt 0.6367 0.8595
vt 0.6367 0.7177
vt 0.6106 0.7953
vt 0.6118 0.8049
vt 0.6106 0.8049
vt 0.6452 0.8595
vt 0.6452 0.7177
vt 0.6464 0.7177
vt 0.6464 0.8595
vt 0.6118 0.8061
vt 0.6176 0.8061
vt 0.7538 0.8575
vt 0.7538 0.7157
vt 0.7526 0.7157
vt 0.7526 0.8575
vt 0.5840 0.7499
vt 0.5898 0.7499
vt 0.8042 0.0316
vt 0.9460 0.0316
vt 0.6572 0.7177
vt 0.6572 0.8595
vt 0.6560 0.8595
vt 0.6560 0.7177
vt 0.6271 0.7177
vt 0.6271 0.8595
vt 0.4034 0.5023
vt 0.3976 0.5023
vt 0.3976 0.6441
vt 0.4034 0.6441
vn 0.0000 0.0000 -1.0000
vn 1.0000 0.0000 0.0000
vn 0.0000 1.0000 0.0000
vn -1.0000 -0.0000 0.0000
vn 0.0000 -1.0000 -0.0000
vn 0.0000 -0.0000 1.0000
vn -0.7388 0.4765 0.4765
vn -0.8517 0.3705 0.3705
vn -0.8372 0.1566 0.5239
vn -0.4765 0.4765 0.7388
vn -0.7388 -0.4765 -0.4765
vn -0.7388 0.4765 -0.4765
vn -0.4765 0.4765 -0.7388
vn -0.4765 -0.4765 -0.7388
vn -0.4765 0.7388 -0.4765
vn -0.4765 0.7388 0.4765
vn 0.4765 0.4765 0.7388
vn 0.4765 0.7388 0.4765
vn -0.8372 0.5239 0.1566
vn -0.7388 -0.4765 0.4765
vn -0.4765 -0.7388 -0.4765
vn -0.4765 -0.7388 0.4765
vn 0.4765 -0.4765 -0.7388
vn 0.4765 -0.7388 -0.4765
vn 0.7388 -0.4765 -0.4765
vn 0.7388 -0.4765 0.4765
vn 0.4765 -0.7388 0.4765
vn 0.8518 0.3705 0.3705
vn 0.7388 0.4765 0.4765
vn 0.8372 0.1566 0.5239
vn 0.7388 0.4765 -0.4765
vn 0.4765 0.7388 -0.4765
vn 0.4765 0.4765 -0.7388
vn 0.8372 0.5239 0.1566
vn 0.4765 -0.4765 0.7388
vn -0.4765 -0.4765 0.7388
vn 0.0000 0.7071 0.7071
vn 0.8517 0.3705 -0.3705
vn 0.8372 0.1566 -0.5239
vn 0.8372 0.5239 -0.1566
vn -0.8517 0.3706 -0.3706
vn -0.8372 0.1566 -0.5239
vn -0.8372 0.5239 -0.1566
vn 0.0000 0.7071 -0.7071
usemtl FrontColor
s 1
f 82/171/45 83/172/45 84/173/45 85/174/45
s 2
f 83/175/46 82/176/46 86/177/46 87/178/46
s 3
f 82/179/47 85/180/47 88/181/47 86/182/47
s 4
f 85/183/48 84/184/48 89/185/48 90/186/48 88/187/48
s 5
f 89/188/49 84/189/49 83/190/49 87/191/49
s 6
f 87/192/50 86/193/50 88/194/50 90/195/50 89/196/50
s 7
f 91/197/51 92/198/52 93/199/53 94/200/54
f 95/201/55 96/202/56 97/203/57 98/204/58
f 96/202/56 99/205/59 97/203/57
f 96/202/56 91/197/51 100/206/60 99/205/59
f 100/206/60 91/197/51 94/200/54
f 94/207/54 101/208/61 102/209/62 100/210/60
f 93/199/53 92/198/52 103/211/63
f 92/198/52 104/212/51 105/213/60 103/211/63
f 106/214/64 95/201/55 107/215/65 108/216/66
f 107/215/65 95/201/55 98/204/58
f 98/217/58 109/218/67 110/219/68 107/220/65
f 111/221/69 110/222/68 109/223/67
f 111/221/69 112/224/70 113/225/71 110/222/68
f 114/226/72 115/227/73 101/228/61 116/229/74
f 115/227/73 102/230/62 101/228/61
f 115/227/73 117/231/75 118/232/76 102/230/62
f 118/232/76 117/231/75 119/233/77
f 117/231/75 111/221/69 109/223/67 119/233/77
f 119/234/77 97/235/57 99/236/59 118/237/76
f 114/226/72 116/229/74 120/238/78
f 121/239/73 114/226/72 120/238/78 122/240/62
f 123/241/54 124/242/61 122/243/62 105/244/60
f 112/224/70 121/239/73 124/245/61 125/246/79
f 121/239/73 122/240/62 124/245/61
f 113/225/71 112/224/70 125/246/79
f 125/247/79 126/248/80 108/249/66 113/250/71
f 106/214/64 108/216/66 126/251/80
f 104/212/51 106/214/64 126/251/80 123/252/54
f 105/213/60 104/212/51 123/252/54
s 8
f 96/202/48 95/201/48 92/198/48 91/197/48
f 104/212/48 92/198/48 95/201/48 106/214/48
s 9
f 93/253/50 116/254/50 101/255/50 94/256/50
s 10
f 116/257/81 93/258/81 103/259/81 120/260/81
s 11
f 112/224/46 111/221/46 114/226/46 121/239/46
f 115/227/46 114/226/46 111/221/46 117/231/46
s 12
f 102/209/47 118/237/47 99/236/47 100/210/47
s 13
f 122/243/47 120/260/47 103/259/47 105/244/47
s 14
f 125/261/50 124/262/50 123/263/50 126/264/50
s 15
f 110/219/49 113/250/49 108/249/49 107/220/49
s 16
f 127/265/75 128/266/82 129/267/83 130/268/77
f 131/269/70 132/270/73 133/271/61 134/272/79
f 132/270/73 135/273/62 133/271/61
f 132/270/73 127/265/75 136/274/76 135/273/62
f 136/274/76 127/265/75 130/268/77
f 130/275/77 137/276/57 138/277/59 136/278/76
f 129/267/83 128/266/82 139/279/84
f 128/266/82 140/280/75 141/281/76 139/279/84
f 142/282/69 131/269/70 143/283/71 144/284/68
f 143/283/71 131/269/70 134/272/79
f 134/285/79 145/286/80 146/287/66 143/288/71
f 147/289/64 146/290/66 145/291/80
f 147/289/64 148/292/55 149/293/65 146/290/66
f 150/294/85 151/295/56 137/296/57 152/297/86
f 151/295/56 138/298/59 137/296/57
f 151/295/56 153/299/51 154/300/60 138/298/59
f 154/300/60 153/299/51 155/301/54
f 153/299/51 147/289/64 145/291/80 155/301/54
f 155/302/54 133/303/61 135/304/62 154/305/60
f 150/294/85 152/297/86 156/306/87
f 157/307/56 150/294/85 156/306/87 158/308/59
f 159/309/77 160/310/57 158/311/59 141/312/76
f 148/292/55 157/307/56 160/313/57 161/314/58
f 157/307/56 158/308/59 160/313/57
f 149/293/65 148/292/55 161/314/58
f 161/315/58 162/316/67 144/317/68 149/318/65
f 142/282/69 144/284/68 162/319/67
f 140/280/75 142/282/69 162/319/67 159/320/77
f 141/281/76 140/280/75 159/320/77
s 17
f 132/270/46 131/269/46 128/266/46 127/265/46
f 140/280/46 128/266/46 131/269/46 142/282/46
s 18
f 129/321/45 152/322/45 137/276/45 130/275/45
s 19
f 152/323/88 129/324/88 139/325/88 156/326/88
s 20
f 148/292/48 147/289/48 150/294/48 157/307/48
f 151/295/48 150/294/48 147/289/48 153/299/48
s 21
f 138/327/47 154/305/47 135/304/47 136/328/47
s 22
f 158/311/47 156/326/47 139/325/47 141/312/47
s 23
f 161/329/45 160/330/45 159/331/45 162/332/45
s 24
f 146/287/49 149/318/49 144/317/49 143/288/49
