# Wavefront Obj file
# 
# verts: 243 uv-s: 502
mtllib video_store_lables.mtl

g Mesh4_Group7_Group6_Group1_Model
#pivot 0.000000 0.000000 0.000000

v -0.405595 0.029000 -0.011753
v -0.405595 0.005839 -0.011753
v -0.406595 0.007839 -0.012753
v -0.406595 0.029000 -0.012753
v -0.405595 0.029000 -0.003753
v -0.405595 0.001000 -0.003753
v -0.406595 0.029000 -0.002753
v -0.406595 0.001000 -0.002753
v -0.406595 0.030000 -0.003753
v -0.406595 0.030000 -0.011753
v -0.524595 0.029000 -0.012753
v -0.524595 0.030000 -0.011753
v -0.524595 0.007839 -0.012753
v -0.406595 0.006839 -0.013753
v -0.524595 0.006839 -0.013753
v -0.405595 0.005839 -0.021753
v -0.406595 0.006839 -0.021753
v -0.405595 0.001000 -0.021753
v -0.406595 0.000000 -0.003753
v -0.406595 0.000000 -0.021753
v -0.524595 0.001000 -0.002753
v -0.524595 0.000000 -0.003753
v -0.525595 0.001000 -0.003753
v -0.525595 0.001000 -0.021753
v -0.524595 0.000000 -0.021753
v -0.525595 0.005839 -0.011753
v -0.525595 0.005839 -0.021753
v -0.525595 0.029000 -0.011753
v -0.525595 0.029000 -0.003753
v -0.524595 0.030000 -0.003753
v -0.524595 0.029000 -0.002753
v -0.524595 0.006839 -0.021753
v -0.406595 0.005839 -0.022753
v -0.524595 0.005839 -0.022753
v -0.524595 0.001000 -0.022753
v -0.406595 0.001000 -0.022753
# 36 positions

vt 0.617634 0.763100
vt 0.589803 0.763100
vt 0.592206 0.761898
vt 0.617634 0.761898
vt 0.583988 0.772713
vt 0.617634 0.772713
vt 0.617634 0.773914
vt 0.583988 0.773914
vt 0.618836 0.772713
vt 0.618836 0.763100
vt 0.804238 0.006202
vt 0.946033 0.006202
vt 0.946033 0.005000
vt 0.804238 0.005000
vt 0.591004 0.760696
vt 0.589803 0.751083
vt 0.591004 0.751083
vt 0.583988 0.751083
vt 0.582786 0.772713
vt 0.582786 0.751083
vt 0.729749 0.715657
vt 0.729749 0.857452
vt 0.730951 0.857452
vt 0.730951 0.715657
vt 0.617634 0.783294
vt 0.618836 0.783294
vt 0.617634 0.782092
vt 0.617634 0.804924
vt 0.618836 0.804924
vt 0.611820 0.792907
vt 0.583988 0.792907
vt 0.583988 0.794109
vt 0.609416 0.794109
vt 0.582786 0.792907
vt 0.583988 0.783294
vt 0.582786 0.783294
vt 0.583988 0.782092
vt 0.637891 0.717670
vt 0.637891 0.859466
vt 0.636690 0.859466
vt 0.636690 0.717670
vt 0.610618 0.795311
vt 0.611820 0.804924
vt 0.610618 0.804924
vt 0.645195 0.859466
vt 0.645195 0.717670
vt 0.646397 0.717670
vt 0.646397 0.859466
vt 0.611820 0.806126
vt 0.617634 0.806126
vt 0.753783 0.857452
vt 0.753783 0.715657
vt 0.752581 0.715657
vt 0.752581 0.857452
vt 0.583988 0.749881
vt 0.589803 0.749881
vt 0.804238 0.031630
vt 0.946033 0.031630
vt 0.657212 0.717670
vt 0.657212 0.859466
vt 0.656010 0.859466
vt 0.656010 0.717670
vt 0.627077 0.717670
vt 0.627077 0.859466
vt 0.403387 0.502259
vt 0.397573 0.502259
vt 0.397573 0.644054
vt 0.403387 0.644054
# 68 texture coordinates

vn 0.738838 0.476507 -0.476507
vn 0.851746 0.370492 -0.370492
vn 0.837221 0.156628 -0.523955
vn 0.476514 0.476510 -0.738832
vn 0.738838 -0.476507 0.476507
vn 0.738838 0.476507 0.476507
vn 0.476514 0.476510 0.738832
vn 0.476514 -0.476510 0.738832
vn 0.476514 0.738832 0.476510
vn 0.476514 0.738832 -0.476510
vn -0.476514 0.476510 -0.738832
vn -0.476514 0.738832 -0.476510
vn 0.837221 0.523955 -0.156628
vn 0.738839 -0.476507 -0.476506
vn 0.476514 -0.738832 0.476510
vn 0.476514 -0.738832 -0.476509
vn -0.476514 -0.476510 0.738832
vn -0.476514 -0.738832 0.476510
vn -0.738838 -0.476507 0.476507
vn -0.738839 -0.476507 -0.476506
vn -0.476514 -0.738832 -0.476509
vn -0.851746 0.370492 -0.370492
vn -0.738838 0.476507 -0.476507
vn -0.837221 0.156628 -0.523955
vn -0.738838 0.476507 0.476507
vn -0.476514 0.738832 0.476510
vn -0.476514 0.476510 0.738832
vn -0.837221 0.523955 -0.156628
vn -0.476515 -0.476510 -0.738831
vn 0.476515 -0.476510 -0.738831
vn 1.000000 0.000000 0.000000
vn 0.000000 0.000000 -1.000000
vn 0.000000 0.707107 -0.707107
vn -1.000000 0.000000 0.000000
vn 0.000000 1.000000 0.000000
vn 0.000000 -1.000000 0.000000
# 36 normals

usemtl FrontColor
f 1/1/1 2/2/2 3/3/3 4/4/4
f 6/5/5 5/6/6 7/7/7 8/8/8
f 5/6/6 9/9/9 7/7/7
f 5/6/6 1/1/1 10/10/10 9/9/9
f 10/10/10 1/1/1 4/4/4
f 4/11/4 11/12/11 12/13/12 10/14/10
f 3/3/3 2/2/2 14/15/13
f 2/2/2 16/16/1 17/17/10 14/15/13
f 18/18/14 6/5/5 19/19/15 20/20/16
f 19/19/15 6/5/5 8/8/8
f 8/21/8 21/22/17 22/23/18 19/24/15
f 23/25/19 22/26/18 21/27/17
f 23/25/19 24/28/20 25/29/21 22/26/18
f 26/30/22 28/31/23 11/32/11 13/33/24
f 28/31/23 12/34/12 11/32/11
f 28/31/23 29/35/25 30/36/26 12/34/12
f 30/36/26 29/35/25 31/37/27
f 29/35/25 23/25/19 21/27/17 31/37/27
f 31/38/27 7/39/7 9/40/9 30/41/26
f 26/30/22 13/33/24 15/42/28
f 27/43/23 26/30/22 15/42/28 32/44/12
f 33/45/4 34/46/11 32/47/12 17/48/10
f 24/28/20 27/43/23 34/49/11 35/50/29
f 27/43/23 32/44/12 34/49/11
f 25/29/21 24/28/20 35/50/29
f 35/51/29 36/52/30 20/53/16 25/54/21
f 18/18/14 20/20/16 36/55/30
f 16/16/1 18/18/14 36/55/30 33/56/4
f 17/17/10 16/16/1 33/56/4
f 5/6/31 6/5/31 2/2/31 1/1/31
f 16/16/31 2/2/31 6/5/31 18/18/31
f 3/57/32 13/58/32 11/12/32 4/11/32
f 13/59/33 3/60/33 14/61/33 15/62/33
f 24/28/34 23/25/34 26/30/34 27/43/34
f 28/31/34 26/30/34 23/25/34 29/35/34
f 12/63/35 30/41/35 9/40/35 10/64/35
f 32/47/35 15/62/35 14/61/35 17/48/35
f 35/65/32 34/66/32 33/67/32 36/68/32
f 22/23/36 25/54/36 20/53/36 19/24/36

g Mesh6_Group9_Group6_Group1_Model
#pivot 0.000000 0.000000 0.000000

v -0.525595 0.029000 0.011247
v -0.525595 0.005839 0.011247
v -0.524595 0.007839 0.012247
v -0.524595 0.029000 0.012247
v -0.525595 0.029000 0.003247
v -0.525595 0.001000 0.003247
v -0.524595 0.029000 0.002247
v -0.524595 0.001000 0.002247
v -0.524595 0.030000 0.003247
v -0.524595 0.030000 0.011247
v -0.406595 0.029000 0.012247
v -0.406595 0.030000 0.011247
v -0.406595 0.007839 0.012247
v -0.524595 0.006839 0.013247
v -0.406595 0.006839 0.013247
v -0.525595 0.005839 0.021247
v -0.524595 0.006839 0.021247
v -0.525595 0.001000 0.021247
v -0.524595 0.000000 0.003247
v -0.524595 0.000000 0.021247
v -0.406595 0.001000 0.002247
v -0.406595 0.000000 0.003247
v -0.405595 0.001000 0.003247
v -0.405595 0.001000 0.021247
v -0.406595 0.000000 0.021247
v -0.405595 0.005839 0.011247
v -0.405595 0.005839 0.021247
v -0.405595 0.029000 0.011247
v -0.405595 0.029000 0.003247
v -0.406595 0.030000 0.003247
v -0.406595 0.029000 0.002247
v -0.406595 0.006839 0.021247
v -0.524595 0.005839 0.022247
v -0.406595 0.005839 0.022247
v -0.406595 0.001000 0.022247
v -0.524595 0.001000 0.022247
# 36 positions

vt 0.666529 0.763100
vt 0.694360 0.763100
vt 0.691957 0.761898
vt 0.666529 0.761898
vt 0.700175 0.772713
vt 0.666529 0.772713
vt 0.666529 0.773914
vt 0.700175 0.773914
vt 0.665327 0.772713
vt 0.665327 0.763100
vt 0.721634 0.717670
vt 0.721634 0.859466
vt 0.720432 0.859466
vt 0.720432 0.717670
vt 0.693159 0.760696
vt 0.694360 0.751083
vt 0.693159 0.751083
vt 0.700175 0.751083
vt 0.701377 0.772713
vt 0.701377 0.751083
vt 0.490054 0.877584
vt 0.490054 0.735789
vt 0.488853 0.735789
vt 0.488853 0.877584
vt 0.455144 0.706793
vt 0.453942 0.706793
vt 0.455144 0.705591
vt 0.455144 0.728423
vt 0.453942 0.728423
vt 0.460959 0.716406
vt 0.488790 0.716406
vt 0.488790 0.717608
vt 0.463362 0.717608
vt 0.489992 0.716406
vt 0.488790 0.706793
vt 0.489992 0.706793
vt 0.488790 0.705591
vt 0.709617 0.859466
vt 0.709617 0.717670
vt 0.710819 0.717670
vt 0.710819 0.859466
vt 0.462160 0.718809
vt 0.460959 0.728423
vt 0.462160 0.728423
vt 0.540447 0.673380
vt 0.540447 0.815175
vt 0.539245 0.815175
vt 0.539245 0.673380
vt 0.460959 0.729624
vt 0.455144 0.729624
vt 0.466021 0.735789
vt 0.466021 0.877584
vt 0.467223 0.877584
vt 0.467223 0.735789
vt 0.700175 0.749881
vt 0.694360 0.749881
vt 0.584056 0.146795
vt 0.584056 0.005000
vt 0.558628 0.005000
vt 0.558628 0.146795
vt 0.528430 0.815175
vt 0.528430 0.673380
vt 0.529632 0.673380
vt 0.529632 0.815175
vt 0.389295 0.494206
vt 0.383480 0.494206
vt 0.383480 0.636001
vt 0.389295 0.636001
# 68 texture coordinates

vn -0.738839 0.476507 0.476507
vn -0.851746 0.370491 0.370491
vn -0.837221 0.156628 0.523954
vn -0.476514 0.476510 0.738832
vn -0.738838 -0.476507 -0.476507
vn -0.738838 0.476507 -0.476507
vn -0.476514 0.476510 -0.738832
vn -0.476514 -0.476510 -0.738832
vn -0.476514 0.738832 -0.476510
vn -0.476514 0.738832 0.476509
vn 0.476514 0.476510 0.738832
vn 0.476514 0.738832 0.476509
vn -0.837221 0.523955 0.156628
vn -0.738839 -0.476507 0.476506
vn -0.476514 -0.738832 -0.476510
vn -0.476514 -0.738832 0.476509
vn 0.476514 -0.476510 -0.738832
vn 0.476514 -0.738832 -0.476510
vn 0.738838 -0.476507 -0.476507
vn 0.738839 -0.476507 0.476506
vn 0.476514 -0.738832 0.476509
vn 0.851746 0.370491 0.370491
vn 0.738838 0.476507 0.476507
vn 0.837221 0.156628 0.523954
vn 0.738838 0.476507 -0.476507
vn 0.476514 0.738832 -0.476510
vn 0.476514 0.476510 -0.738832
vn 0.837221 0.523955 0.156628
vn 0.476515 -0.476510 0.738831
vn -0.476515 -0.476510 0.738831
vn -1.000000 0.000000 0.000000
vn 0.000000 0.000000 1.000000
vn 0.000000 0.707107 0.707107
vn 1.000000 0.000000 0.000000
vn 0.000000 1.000000 0.000000
vn 0.000000 -1.000000 0.000000
# 36 normals

usemtl FrontColor
f 37/69/37 38/70/38 39/71/39 40/72/40
f 42/73/41 41/74/42 43/75/43 44/76/44
f 41/74/42 45/77/45 43/75/43
f 41/74/42 37/69/37 46/78/46 45/77/45
f 46/78/46 37/69/37 40/72/40
f 40/79/40 47/80/47 48/81/48 46/82/46
f 39/71/39 38/70/38 50/83/49
f 38/70/38 52/84/37 53/85/46 50/83/49
f 54/86/50 42/73/41 55/87/51 56/88/52
f 55/87/51 42/73/41 44/76/44
f 44/89/44 57/90/53 58/91/54 55/92/51
f 59/93/55 58/94/54 57/95/53
f 59/93/55 60/96/56 61/97/57 58/94/54
f 62/98/58 64/99/59 47/100/47 49/101/60
f 64/99/59 48/102/48 47/100/47
f 64/99/59 65/103/61 66/104/62 48/102/48
f 66/104/62 65/103/61 67/105/63
f 65/103/61 59/93/55 57/95/53 67/105/63
f 67/106/63 43/107/43 45/108/45 66/109/62
f 62/98/58 49/101/60 51/110/64
f 63/111/59 62/98/58 51/110/64 68/112/48
f 69/113/40 70/114/47 68/115/48 53/116/46
f 60/96/56 63/111/59 70/117/47 71/118/65
f 63/111/59 68/112/48 70/117/47
f 61/97/57 60/96/56 71/118/65
f 71/119/65 72/120/66 56/121/52 61/122/57
f 54/86/50 56/88/52 72/123/66
f 52/84/37 54/86/50 72/123/66 69/124/40
f 53/85/46 52/84/37 69/124/40
f 41/74/67 42/73/67 38/70/67 37/69/67
f 52/84/67 38/70/67 42/73/67 54/86/67
f 39/125/68 49/126/68 47/127/68 40/128/68
f 49/129/69 39/130/69 50/131/69 51/132/69
f 60/96/70 59/93/70 62/98/70 63/111/70
f 64/99/70 62/98/70 59/93/70 65/103/70
f 48/81/71 66/109/71 45/108/71 46/82/71
f 68/115/71 51/132/71 50/131/71 53/116/71
f 71/133/68 70/134/68 69/135/68 72/136/68
f 58/91/72 61/122/72 56/121/72 55/92/72

g Mesh3_Group5_Group2_Group1_Model
#pivot 0.000000 0.000000 0.000000

v 0.417615 0.029000 0.011247
v 0.417615 0.005839 0.011247
v 0.418615 0.007839 0.012247
v 0.418615 0.029000 0.012247
v 0.417615 0.029000 0.003247
v 0.417615 0.001000 0.003247
v 0.418615 0.029000 0.002247
v 0.418615 0.001000 0.002247
v 0.418615 0.030000 0.003247
v 0.418615 0.030000 0.011247
v 0.536615 0.029000 0.012247
v 0.536615 0.030000 0.011247
v 0.536615 0.007839 0.012247
v 0.418615 0.006839 0.013247
v 0.536615 0.006839 0.013247
v 0.417615 0.005839 0.021247
v 0.418615 0.006839 0.021247
v 0.417615 0.001000 0.021247
v 0.418615 0.000000 0.003247
v 0.418615 0.000000 0.021247
v 0.536615 0.001000 0.002247
v 0.536615 0.000000 0.003247
v 0.537615 0.001000 0.003247
v 0.537615 0.001000 0.021247
v 0.536615 0.000000 0.021247
v 0.537615 0.005839 0.011247
v 0.537615 0.005839 0.021247
v 0.537615 0.029000 0.011247
v 0.537615 0.029000 0.003247
v 0.536615 0.030000 0.003247
v 0.536615 0.029000 0.002247
v 0.536615 0.006839 0.021247
v 0.418615 0.005839 0.022247
v 0.536615 0.005839 0.022247
v 0.536615 0.001000 0.022247
v 0.418615 0.001000 0.022247
# 36 positions

vt 0.516351 0.047214
vt 0.544183 0.047214
vt 0.541779 0.046013
vt 0.516351 0.046013
vt 0.725783 0.708228
vt 0.725783 0.674582
vt 0.724582 0.674582
vt 0.724582 0.708228
vt 0.724582 0.673380
vt 0.383480 0.673380
vt 0.393094 0.673380
vt 0.393094 0.674582
vt 0.383480 0.674582
vt 0.394295 0.674582
vt 0.394295 0.816377
vt 0.393094 0.816377
vt 0.402801 0.674582
vt 0.401599 0.673380
vt 0.404002 0.674582
vt 0.413616 0.673380
vt 0.413616 0.674582
vt 0.499434 0.816377
vt 0.521063 0.816377
vt 0.521063 0.815175
vt 0.499434 0.815175
vt 0.724582 0.709430
vt 0.582786 0.708228
vt 0.582786 0.709430
vt 0.583988 0.718872
vt 0.582786 0.718872
vt 0.583988 0.717670
vt 0.583988 0.740502
vt 0.582786 0.740502
vt 0.589803 0.728485
vt 0.617634 0.728485
vt 0.617634 0.729687
vt 0.592206 0.729687
vt 0.618836 0.728485
vt 0.617634 0.718872
vt 0.618836 0.718872
vt 0.617634 0.717670
vt 0.582786 0.674582
vt 0.582786 0.673380
vt 0.591005 0.730888
vt 0.589803 0.740502
vt 0.591005 0.740502
vt 0.414817 0.674582
vt 0.414817 0.816377
vt 0.413616 0.816377
vt 0.589803 0.741703
vt 0.583988 0.741703
vt 0.498232 0.673380
vt 0.498232 0.815175
vt 0.499434 0.673380
vt 0.600905 0.544311
vt 0.600905 0.538496
vt 0.602107 0.538496
vt 0.602107 0.544311
vt 0.516351 0.056828
vt 0.549997 0.056828
vt 0.544183 0.035198
vt 0.549997 0.035198
vt 0.573990 0.815175
vt 0.573990 0.673380
vt 0.548562 0.673380
vt 0.548562 0.815175
vt 0.402801 0.816377
vt 0.404002 0.816377
vt 0.383480 0.816377
vt 0.743902 0.538496
vt 0.743902 0.544311
vt 0.521063 0.673380
# 72 texture coordinates

vn -0.738829 0.476515 0.476514
vn -0.851740 0.370499 0.370499
vn -0.837214 0.156632 0.523964
vn -0.476506 0.476511 0.738837
vn -0.738829 -0.476515 -0.476515
vn -0.738829 0.476515 -0.476515
vn -0.476505 0.476511 -0.738837
vn -0.476505 -0.476511 -0.738837
vn -0.476505 0.738837 -0.476511
vn -0.476505 0.738837 0.476511
vn 0.476514 0.476510 0.738832
vn 0.476514 0.738832 0.476509
vn -0.837214 0.523964 0.156632
vn -0.738829 -0.476515 0.476514
vn -0.476505 -0.738837 -0.476511
vn -0.476505 -0.738837 0.476511
vn 0.476514 -0.476510 -0.738832
vn 0.476514 -0.738832 -0.476510
vn 0.738838 -0.476507 -0.476507
vn 0.738839 -0.476507 0.476506
vn 0.476514 -0.738832 0.476509
vn 0.851746 0.370491 0.370491
vn 0.738838 0.476507 0.476507
vn 0.837221 0.156628 0.523954
vn 0.738838 0.476507 -0.476507
vn 0.476514 0.738832 -0.476510
vn 0.476514 0.476510 -0.738832
vn 0.837221 0.523955 0.156628
vn 0.476515 -0.476510 0.738831
vn -0.476506 -0.476512 0.738836
vn -1.000000 0.000000 0.000000
vn 0.000000 0.000000 1.000000
vn 0.000000 0.707107 0.707107
vn 1.000000 0.000000 0.000000
vn 0.000000 1.000000 0.000000
vn 0.000000 -1.000000 0.000000
# 36 normals

usemtl FrontColor
f 73/137/73 74/138/74 75/139/75 76/140/76
f 78/141/77 77/142/78 79/143/79 80/144/80
f 77/142/78 81/145/81 79/143/79
f 77/146/78 73/147/73 82/148/82 81/149/81
f 82/148/82 73/147/73 76/150/76
f 76/150/76 83/151/83 84/152/84 82/148/82
f 75/153/75 74/154/74 86/155/85
f 74/154/74 88/156/73 89/157/82 86/155/85
f 90/158/86 78/159/77 91/160/87 92/161/88
f 91/162/87 78/141/77 80/144/80
f 80/144/80 93/163/89 94/164/90 91/162/87
f 95/165/91 94/166/90 93/167/89
f 95/165/91 96/168/92 97/169/93 94/166/90
f 98/170/94 100/171/95 83/172/83 85/173/96
f 100/171/95 84/174/84 83/172/83
f 100/171/95 101/175/97 102/176/98 84/174/84
f 102/176/98 101/175/97 103/177/99
f 101/175/97 95/165/91 93/167/89 103/177/99
f 103/178/99 79/143/79 81/145/81 102/179/98
f 98/170/94 85/173/96 87/180/100
f 99/181/95 98/170/94 87/180/100 104/182/84
f 105/183/76 106/184/83 104/185/84 89/157/82
f 96/168/92 99/181/95 106/186/83 107/187/101
f 99/181/95 104/182/84 106/186/83
f 97/169/93 96/168/92 107/187/101
f 107/188/101 108/189/102 92/161/88 97/190/93
f 90/158/86 92/161/88 108/189/102
f 88/191/73 90/192/86 108/193/102 105/194/76
f 89/157/82 88/156/73 105/183/76
f 77/195/103 78/196/103 74/138/103 73/137/103
f 88/197/103 74/138/103 78/196/103 90/198/103
f 75/199/104 85/200/104 83/201/104 76/202/104
f 85/203/105 75/153/105 86/155/105 87/204/105
f 96/168/106 95/165/106 98/170/106 99/181/106
f 100/171/106 98/170/106 95/165/106 101/175/106
f 84/152/107 102/205/107 81/149/107 82/148/107
f 104/185/107 87/204/107 86/155/107 89/157/107
f 107/206/104 106/207/104 105/194/104 108/193/104
f 94/208/108 97/190/108 92/161/108 91/160/108

g Mesh9_Group13_Group10_Group1_Model
#pivot 0.000000 0.000000 0.000000

v -0.060000 0.029000 0.011247
v -0.060000 0.005839 0.011247
v -0.059000 0.007839 0.012247
v -0.059000 0.029000 0.012247
v -0.060000 0.029000 0.003247
v -0.060000 0.001000 0.003247
v -0.059000 0.029000 0.002247
v -0.059000 0.001000 0.002247
v -0.059000 0.030000 0.003247
v -0.059000 0.030000 0.011247
v 0.059000 0.029000 0.012247
v 0.059000 0.030000 0.011247
v 0.059000 0.007839 0.012247
v -0.059000 0.006839 0.013247
v 0.059000 0.006839 0.013247
v -0.060000 0.005839 0.021247
v -0.059000 0.006839 0.021247
v -0.060000 0.001000 0.021247
v -0.059000 0.000000 0.003247
v -0.059000 0.000000 0.021247
v 0.059000 0.001000 0.002247
v 0.059000 0.000000 0.003247
v 0.060000 0.001000 0.003247
v 0.060000 0.001000 0.021247
v 0.059000 0.000000 0.021247
v 0.060000 0.005839 0.011247
v 0.060000 0.005839 0.021247
v 0.060000 0.029000 0.011247
v 0.060000 0.029000 0.003247
v 0.059000 0.030000 0.003247
v 0.059000 0.029000 0.002247
v 0.059000 0.006839 0.021247
v -0.059000 0.005839 0.022247
v 0.059000 0.005839 0.022247
v 0.059000 0.001000 0.022247
v -0.059000 0.001000 0.022247
# 36 positions

vt 0.516351 0.017017
vt 0.544183 0.017017
vt 0.541779 0.015815
vt 0.516351 0.015815
vt 0.743902 0.529054
vt 0.743902 0.495407
vt 0.742700 0.495407
vt 0.742700 0.529054
vt 0.742700 0.494206
vt 0.498232 0.005000
vt 0.507846 0.005000
vt 0.507846 0.006202
vt 0.498232 0.006202
vt 0.509047 0.006202
vt 0.509047 0.147997
vt 0.507846 0.147997
vt 0.447091 0.006202
vt 0.445889 0.005000
vt 0.448293 0.006202
vt 0.457906 0.005000
vt 0.457906 0.006202
vt 0.469236 0.147997
vt 0.490866 0.147997
vt 0.490866 0.146795
vt 0.469236 0.146795
vt 0.742700 0.530255
vt 0.600905 0.529054
vt 0.600905 0.530255
vt 0.455144 0.674582
vt 0.453942 0.674582
vt 0.455144 0.673380
vt 0.455144 0.696211
vt 0.453942 0.696211
vt 0.460959 0.684195
vt 0.488791 0.684195
vt 0.488791 0.685397
vt 0.463362 0.685397
vt 0.489992 0.684195
vt 0.488791 0.674582
vt 0.489992 0.674582
vt 0.488791 0.673380
vt 0.600905 0.495407
vt 0.600905 0.494206
vt 0.462160 0.686598
vt 0.460959 0.696211
vt 0.462160 0.696211
vt 0.459108 0.006202
vt 0.459108 0.147997
vt 0.457906 0.147997
vt 0.460959 0.697413
vt 0.455144 0.697413
vt 0.468034 0.005000
vt 0.468034 0.146795
vt 0.469236 0.005000
vt 0.445889 0.161804
vt 0.445889 0.155989
vt 0.447091 0.155989
vt 0.447091 0.161804
vt 0.516351 0.026630
vt 0.549998 0.026630
vt 0.544183 0.005000
vt 0.549998 0.005000
vt 0.437093 0.162901
vt 0.437093 0.021106
vt 0.411665 0.021106
vt 0.411665 0.162901
vt 0.447091 0.147997
vt 0.448293 0.147997
vt 0.498232 0.147997
vt 0.588886 0.155989
vt 0.588886 0.161804
vt 0.490866 0.005000
# 72 texture coordinates

vn -0.738834 0.476511 0.476510
vn -0.851743 0.370495 0.370495
vn -0.837218 0.156630 0.523959
vn -0.476510 0.476511 0.738834
vn -0.738833 -0.476511 -0.476511
vn -0.738833 0.476511 -0.476511
vn -0.476510 0.476510 -0.738835
vn -0.476510 -0.476510 -0.738835
vn -0.476510 0.738834 -0.476510
vn -0.476510 0.738835 0.476510
vn 0.476511 0.476510 0.738834
vn 0.476511 0.738834 0.476510
vn -0.837218 0.523959 0.156630
vn -0.738834 -0.476511 0.476510
vn -0.476510 -0.738834 -0.476510
vn -0.476510 -0.738835 0.476510
vn 0.476511 -0.476510 -0.738834
vn 0.476511 -0.738834 -0.476510
vn 0.738835 -0.476510 -0.476510
vn 0.738835 -0.476510 0.476509
vn 0.476511 -0.738834 0.476510
vn 0.851744 0.370494 0.370494
vn 0.738835 0.476510 0.476510
vn 0.837219 0.156629 0.523958
vn 0.738835 0.476510 -0.476510
vn 0.476511 0.738834 -0.476510
vn 0.476511 0.476510 -0.738834
vn 0.837219 0.523958 0.156629
vn 0.476511 -0.476511 0.738833
vn -0.476510 -0.476511 0.738834
vn -1.000000 0.000000 0.000000
vn 0.000000 0.000000 1.000000
vn 0.000000 0.707107 0.707107
vn 1.000000 0.000000 0.000000
vn 0.000000 1.000000 0.000000
vn 0.000000 -1.000000 0.000000
# 36 normals

usemtl FrontColor
f 109/209/109 110/210/110 111/211/111 112/212/112
f 114/213/113 113/214/114 115/215/115 116/216/116
f 113/214/114 117/217/117 115/215/115
f 113/218/114 109/219/109 118/220/118 117/221/117
f 118/220/118 109/219/109 112/222/112
f 112/222/112 119/223/119 120/224/120 118/220/118
f 111/225/111 110/226/110 122/227/121
f 110/226/110 124/228/109 125/229/118 122/227/121
f 126/230/122 114/231/113 127/232/123 128/233/124
f 127/234/123 114/213/113 116/216/116
f 116/216/116 129/235/125 130/236/126 127/234/123
f 131/237/127 130/238/126 129/239/125
f 131/237/127 132/240/128 133/241/129 130/238/126
f 134/242/130 136/243/131 119/244/119 121/245/132
f 136/243/131 120/246/120 119/244/119
f 136/243/131 137/247/133 138/248/134 120/246/120
f 138/248/134 137/247/133 139/249/135
f 137/247/133 131/237/127 129/239/125 139/249/135
f 139/250/135 115/215/115 117/217/117 138/251/134
f 134/242/130 121/245/132 123/252/136
f 135/253/131 134/242/130 123/252/136 140/254/120
f 141/255/112 142/256/119 140/257/120 125/229/118
f 132/240/128 135/253/131 142/258/119 143/259/137
f 135/253/131 140/254/120 142/258/119
f 133/241/129 132/240/128 143/259/137
f 143/260/137 144/261/138 128/233/124 133/262/129
f 126/230/122 128/233/124 144/261/138
f 124/263/109 126/264/122 144/265/138 141/266/112
f 125/229/118 124/228/109 141/255/112
f 113/267/139 114/268/139 110/210/139 109/209/139
f 124/269/139 110/210/139 114/268/139 126/270/139
f 111/271/140 121/272/140 119/273/140 112/274/140
f 121/275/141 111/225/141 122/227/141 123/276/141
f 132/240/142 131/237/142 134/242/142 135/253/142
f 136/243/142 134/242/142 131/237/142 137/247/142
f 120/224/143 138/277/143 117/221/143 118/220/143
f 140/257/143 123/276/143 122/227/143 125/229/143
f 143/278/140 142/279/140 141/266/140 144/265/140
f 130/280/144 133/262/144 128/233/144 127/232/144

g Mesh8_Group12_Group10_Group1_Model
#pivot 0.000000 0.000000 0.000000

v 0.200000 0.150000 -0.002753
v 0.200000 0.000000 -0.002753
v -0.200000 0.000000 -0.002753
v -0.200000 0.150000 -0.002753
v 0.200000 0.150000 0.002247
v 0.200000 0.000000 0.002247
v -0.200000 0.150000 0.002247
v -0.200000 0.000000 0.002247
v -0.200000 0.140000 0.002247
# 9 positions

vt 0.005000 0.485662
vt 0.185248 0.485662
vt 0.185248 0.005000
vt 0.005000 0.005000
vt 0.383480 0.659288
vt 0.563729 0.659288
vt 0.563729 0.665296
vt 0.383480 0.665296
vt 0.383480 0.485662
vt 0.383480 0.005000
vt 0.389489 0.005000
vt 0.389489 0.485662
vt 0.572720 0.665296
vt 0.752969 0.665296
vt 0.752969 0.659288
vt 0.584737 0.659288
vt 0.572720 0.659288
vt 0.397573 0.493715
vt 0.403581 0.493715
vt 0.403581 0.013053
vt 0.397573 0.013053
vt 0.374488 0.005000
vt 0.194240 0.005000
vt 0.194240 0.485662
vt 0.206257 0.485662
vt 0.374488 0.485662
# 26 texture coordinates

vn 0.000000 0.000000 -1.000000
vn 1.000000 0.000000 0.000000
vn 0.000000 1.000000 0.000000
vn -1.000000 0.000000 0.000000
vn 0.000000 -1.000000 0.000000
vn 0.000000 0.000000 1.000000
# 6 normals

usemtl FrontColor
f 145/281/145 146/282/145 147/283/145 148/284/145
f 146/285/146 145/286/146 149/287/146 150/288/146
f 145/289/147 148/290/147 151/291/147 149/292/147
f 148/293/148 147/294/148 152/295/148 153/296/148 151/297/148
f 152/298/149 147/299/149 146/300/149 150/301/149
f 150/302/150 149/303/150 151/304/150 153/305/150 152/306/150

g Mesh7_Group11_Group10_Group1_Model
#pivot 0.000000 0.000000 0.000000

v 0.060000 0.029000 -0.011753
v 0.060000 0.005839 -0.011753
v 0.059000 0.007839 -0.012753
v 0.059000 0.029000 -0.012753
v 0.060000 0.029000 -0.003753
v 0.060000 0.001000 -0.003753
v 0.059000 0.029000 -0.002753
v 0.059000 0.001000 -0.002753
v 0.059000 0.030000 -0.003753
v 0.059000 0.030000 -0.011753
v -0.059000 0.029000 -0.012753
v -0.059000 0.030000 -0.011753
v -0.059000 0.007839 -0.012753
v 0.059000 0.006839 -0.013753
v -0.059000 0.006839 -0.013753
v 0.060000 0.005839 -0.021753
v 0.059000 0.006839 -0.021753
v 0.060000 0.001000 -0.021753
v 0.059000 0.000000 -0.003753
v 0.059000 0.000000 -0.021753
v -0.059000 0.001000 -0.002753
v -0.059000 0.000000 -0.003753
v -0.060000 0.001000 -0.003753
v -0.060000 0.001000 -0.021753
v -0.059000 0.000000 -0.021753
v -0.060000 0.005839 -0.011753
v -0.060000 0.005839 -0.021753
v -0.060000 0.029000 -0.011753
v -0.060000 0.029000 -0.003753
v -0.059000 0.030000 -0.003753
v -0.059000 0.029000 -0.002753
v -0.059000 0.006839 -0.021753
v 0.059000 0.005839 -0.022753
v -0.059000 0.005839 -0.022753
v -0.059000 0.001000 -0.022753
v 0.059000 0.001000 -0.022753
# 36 positions

vt 0.700176 0.730888
vt 0.672344 0.730888
vt 0.674747 0.729687
vt 0.700176 0.729687
vt 0.666529 0.740502
vt 0.700176 0.740502
vt 0.700176 0.741703
vt 0.666529 0.741703
vt 0.701377 0.740502
vt 0.701377 0.730888
vt 0.600905 0.553790
vt 0.742700 0.553790
vt 0.742700 0.552588
vt 0.600905 0.552588
vt 0.673546 0.728485
vt 0.672344 0.718872
vt 0.673546 0.718872
vt 0.666529 0.718872
vt 0.665327 0.740502
vt 0.665327 0.718872
vt 0.743902 0.590028
vt 0.602107 0.590028
vt 0.602107 0.588826
vt 0.743902 0.588826
vt 0.600905 0.590028
vt 0.423744 0.816377
vt 0.445374 0.816377
vt 0.445374 0.815175
vt 0.423744 0.815175
vt 0.743902 0.581622
vt 0.743902 0.553790
vt 0.742700 0.579218
vt 0.804238 0.039224
vt 0.813851 0.039224
vt 0.813851 0.040426
vt 0.804238 0.040426
vt 0.602107 0.624876
vt 0.600905 0.623674
vt 0.602107 0.623674
vt 0.743902 0.623674
vt 0.743902 0.624876
vt 0.817455 0.190214
vt 0.816254 0.191415
vt 0.815051 0.191415
vt 0.805438 0.190214
vt 0.805438 0.191415
vt 0.804238 0.333211
vt 0.804238 0.191415
vt 0.805438 0.333211
vt 0.753969 0.604707
vt 0.753969 0.598892
vt 0.752766 0.598892
vt 0.752766 0.604707
vt 0.446576 0.815175
vt 0.446576 0.673380
vt 0.445374 0.673380
vt 0.666529 0.717670
vt 0.672344 0.717670
vt 0.600905 0.579218
vt 0.816254 0.333211
vt 0.815051 0.333211
vt 0.549998 0.087026
vt 0.549998 0.065396
vt 0.544183 0.075009
vt 0.544183 0.087026
vt 0.516351 0.075009
vt 0.516351 0.065396
vt 0.813851 0.182221
vt 0.804238 0.182221
vt 0.610971 0.598892
vt 0.610971 0.604707
vt 0.423744 0.673380
# 72 texture coordinates

vn 0.738835 0.476510 -0.476510
vn 0.851744 0.370494 -0.370495
vn 0.837218 0.156630 -0.523958
vn 0.476511 0.476510 -0.738834
vn 0.738835 -0.476510 0.476510
vn 0.738835 0.476510 0.476510
vn 0.476511 0.476510 0.738834
vn 0.476511 -0.476510 0.738834
vn 0.476511 0.738834 0.476510
vn 0.476511 0.738834 -0.476510
vn -0.476510 0.476511 -0.738834
vn -0.476510 0.738835 -0.476510
vn 0.837219 0.523958 -0.156629
vn 0.738835 -0.476510 -0.476509
vn 0.476511 -0.738834 0.476510
vn 0.476511 -0.738834 -0.476510
vn -0.476510 -0.476510 0.738835
vn -0.476510 -0.738834 0.476510
vn -0.738833 -0.476511 0.476511
vn -0.738834 -0.476511 -0.476510
vn -0.476510 -0.738835 -0.476510
vn -0.851743 0.370495 -0.370496
vn -0.738834 0.476511 -0.476511
vn -0.837218 0.156630 -0.523960
vn -0.738833 0.476511 0.476511
vn -0.476510 0.738834 0.476510
vn -0.476510 0.476510 0.738835
vn -0.837218 0.523960 -0.156630
vn -0.476510 -0.476511 -0.738834
vn 0.476511 -0.476511 -0.738833
vn 1.000000 0.000000 0.000000
vn 0.000000 0.000000 -1.000000
vn 0.000000 0.707107 -0.707107
vn -1.000000 0.000000 0.000000
vn 0.000000 1.000000 0.000000
vn 0.000000 -1.000000 0.000000
# 36 normals

usemtl FrontColor
f 154/307/151 155/308/152 156/309/153 157/310/154
f 159/311/155 158/312/156 160/313/157 161/314/158
f 158/312/156 162/315/159 160/313/157
f 158/312/156 154/307/151 163/316/160 162/315/159
f 163/316/160 154/307/151 157/310/154
f 157/317/154 164/318/161 165/319/162 163/320/160
f 156/309/153 155/308/152 167/321/163
f 155/308/152 169/322/151 170/323/160 167/321/163
f 171/324/164 159/311/155 172/325/165 173/326/166
f 172/325/165 159/311/155 161/314/158
f 161/327/158 174/328/167 175/329/168 172/330/165
f 176/331/169 175/329/168 174/328/167
f 176/332/169 177/333/170 178/334/171 175/335/168
f 179/336/172 181/337/173 164/318/161 166/338/174
f 181/337/173 165/319/162 164/318/161
f 181/339/173 182/340/175 183/341/176 165/342/162
f 183/343/176 182/344/175 184/345/177
f 182/344/175 176/331/169 174/328/167 184/345/177
f 184/345/177 160/346/157 162/347/159 183/343/176
f 179/348/172 166/349/174 168/350/178
f 180/351/173 179/348/172 168/350/178 185/352/162
f 186/353/154 187/354/161 185/352/162 170/355/160
f 177/356/170 180/357/173 187/358/161 188/359/179
f 180/351/173 185/352/162 187/354/161
f 178/334/171 177/333/170 188/360/179
f 188/360/179 189/361/180 173/362/166 178/334/171
f 171/324/164 173/326/166 189/363/180
f 169/322/151 171/324/164 189/363/180 186/364/154
f 170/323/160 169/322/151 186/364/154
f 158/312/181 159/311/181 155/308/181 154/307/181
f 169/322/181 155/308/181 159/311/181 171/324/181
f 156/365/182 166/338/182 164/318/182 157/317/182
f 166/349/183 156/366/183 167/367/183 168/350/183
f 177/368/184 176/369/184 179/370/184 180/371/184
f 181/372/184 179/370/184 176/369/184 182/373/184
f 165/342/185 183/341/185 162/374/185 163/375/185
f 185/352/185 168/350/185 167/367/185 170/355/185
f 188/359/182 187/358/182 186/376/182 189/377/182
f 175/335/186 178/334/186 173/362/186 172/378/186

g Mesh1_Group3_Group2_Group1_Model
#pivot 0.000000 0.000000 0.000000

v 0.537615 0.029000 -0.011753
v 0.537615 0.005839 -0.011753
v 0.536615 0.007839 -0.012753
v 0.536615 0.029000 -0.012753
v 0.537615 0.029000 -0.003753
v 0.537615 0.001000 -0.003753
v 0.536615 0.029000 -0.002753
v 0.536615 0.001000 -0.002753
v 0.536615 0.030000 -0.003753
v 0.536615 0.030000 -0.011753
v 0.418615 0.029000 -0.012753
v 0.418615 0.030000 -0.011753
v 0.418615 0.007839 -0.012753
v 0.536615 0.006839 -0.013753
v 0.418615 0.006839 -0.013753
v 0.537615 0.005839 -0.021753
v 0.536615 0.006839 -0.021753
v 0.537615 0.001000 -0.021753
v 0.536615 0.000000 -0.003753
v 0.536615 0.000000 -0.021753
v 0.418615 0.001000 -0.002753
v 0.418615 0.000000 -0.003753
v 0.417615 0.001000 -0.003753
v 0.417615 0.001000 -0.021753
v 0.418615 0.000000 -0.021753
v 0.417615 0.005839 -0.011753
v 0.417615 0.005839 -0.021753
v 0.417615 0.029000 -0.011753
v 0.417615 0.029000 -0.003753
v 0.418615 0.030000 -0.003753
v 0.418615 0.029000 -0.002753
v 0.418615 0.006839 -0.021753
v 0.536615 0.005839 -0.022753
v 0.418615 0.005839 -0.022753
v 0.418615 0.001000 -0.022753
v 0.536615 0.001000 -0.022753
# 36 positions

vt 0.700175 0.795311
vt 0.672343 0.795311
vt 0.674746 0.794109
vt 0.700175 0.794109
vt 0.666528 0.804924
vt 0.700175 0.804924
vt 0.700175 0.806126
vt 0.666528 0.806126
vt 0.701377 0.804924
vt 0.701377 0.795311
vt 0.804238 0.342405
vt 0.946033 0.342405
vt 0.946033 0.341203
vt 0.804238 0.341203
vt 0.673546 0.792907
vt 0.672343 0.783294
vt 0.673546 0.783294
vt 0.666528 0.783294
vt 0.665327 0.804924
vt 0.665327 0.783294
vt 0.947236 0.378642
vt 0.805440 0.378642
vt 0.805440 0.377441
vt 0.947236 0.377441
vt 0.804238 0.378642
vt 0.804238 0.651295
vt 0.825868 0.651295
vt 0.825868 0.650094
vt 0.804238 0.650094
vt 0.947236 0.370236
vt 0.947236 0.342405
vt 0.946033 0.367833
vt 0.804238 0.659288
vt 0.813851 0.659288
vt 0.813851 0.660489
vt 0.804238 0.660489
vt 0.805440 0.413490
vt 0.804238 0.412289
vt 0.805440 0.412289
vt 0.947236 0.412289
vt 0.947236 0.413490
vt 0.835574 0.039224
vt 0.834373 0.040426
vt 0.833170 0.040426
vt 0.823557 0.039224
vt 0.823557 0.040426
vt 0.822356 0.182221
vt 0.822356 0.040426
vt 0.823557 0.182221
vt 0.743903 0.638931
vt 0.743903 0.633116
vt 0.742700 0.633116
vt 0.742700 0.638931
vt 0.827068 0.650094
vt 0.827068 0.508298
vt 0.825868 0.508298
vt 0.666528 0.782092
vt 0.672343 0.782092
vt 0.804238 0.367833
vt 0.834373 0.182221
vt 0.833170 0.182221
vt 0.549998 0.117223
vt 0.549998 0.095594
vt 0.544183 0.105207
vt 0.544183 0.117223
vt 0.516351 0.105207
vt 0.516351 0.095594
vt 0.813851 0.802285
vt 0.804238 0.802285
vt 0.600905 0.633116
vt 0.600905 0.638931
vt 0.804238 0.508298
# 72 texture coordinates

vn 0.738838 0.476507 -0.476507
vn 0.851746 0.370492 -0.370492
vn 0.837221 0.156628 -0.523955
vn 0.476514 0.476510 -0.738832
vn 0.738838 -0.476507 0.476507
vn 0.738838 0.476507 0.476507
vn 0.476514 0.476510 0.738832
vn 0.476514 -0.476510 0.738832
vn 0.476514 0.738832 0.476510
vn 0.476514 0.738832 -0.476510
vn -0.476505 0.476511 -0.738837
vn -0.476505 0.738837 -0.476511
vn 0.837221 0.523955 -0.156628
vn 0.738839 -0.476507 -0.476506
vn 0.476514 -0.738832 0.476510
vn 0.476514 -0.738832 -0.476509
vn -0.476505 -0.476511 0.738837
vn -0.476505 -0.738837 0.476511
vn -0.738829 -0.476515 0.476515
vn -0.738829 -0.476515 -0.476514
vn -0.476505 -0.738837 -0.476511
vn -0.851740 0.370499 -0.370499
vn -0.738829 0.476515 -0.476514
vn -0.837214 0.156632 -0.523965
vn -0.738829 0.476515 0.476515
vn -0.476505 0.738837 0.476511
vn -0.476505 0.476511 0.738837
vn -0.837214 0.523964 -0.156632
vn -0.476506 -0.476512 -0.738836
vn 0.476515 -0.476510 -0.738831
vn 1.000000 0.000000 0.000000
vn 0.000000 0.000000 -1.000000
vn 0.000000 0.707107 -0.707107
vn -1.000000 0.000000 0.000000
vn 0.000000 1.000000 0.000000
vn 0.000000 -1.000000 0.000000
# 36 normals

usemtl FrontColor
f 190/379/187 191/380/188 192/381/189 193/382/190
f 195/383/191 194/384/192 196/385/193 197/386/194
f 194/384/192 198/387/195 196/385/193
f 194/384/192 190/379/187 199/388/196 198/387/195
f 199/388/196 190/379/187 193/382/190
f 193/389/190 200/390/197 201/391/198 199/392/196
f 192/381/189 191/380/188 203/393/199
f 191/380/188 205/394/187 206/395/196 203/393/199
f 207/396/200 195/383/191 208/397/201 209/398/202
f 208/397/201 195/383/191 197/386/194
f 197/399/194 210/400/203 211/401/204 208/402/201
f 212/403/205 211/401/204 210/400/203
f 212/404/205 213/405/206 214/406/207 211/407/204
f 215/408/208 217/409/209 200/390/197 202/410/210
f 217/409/209 201/391/198 200/390/197
f 217/411/209 218/412/211 219/413/212 201/414/198
f 219/415/212 218/416/211 220/417/213
f 218/416/211 212/403/205 210/400/203 220/417/213
f 220/417/213 196/418/193 198/419/195 219/415/212
f 215/420/208 202/421/210 204/422/214
f 216/423/209 215/420/208 204/422/214 221/424/198
f 222/425/190 223/426/197 221/424/198 206/427/196
f 213/428/206 216/429/209 223/430/197 224/431/215
f 216/423/209 221/424/198 223/426/197
f 214/406/207 213/405/206 224/432/215
f 224/432/215 225/433/216 209/434/202 214/406/207
f 207/396/200 209/398/202 225/435/216
f 205/394/187 207/396/200 225/435/216 222/436/190
f 206/395/196 205/394/187 222/436/190
f 194/384/217 195/383/217 191/380/217 190/379/217
f 205/394/217 191/380/217 195/383/217 207/396/217
f 192/437/218 202/410/218 200/390/218 193/389/218
f 202/421/219 192/438/219 203/439/219 204/422/219
f 213/440/220 212/441/220 215/442/220 216/443/220
f 217/444/220 215/442/220 212/441/220 218/445/220
f 201/414/221 219/413/221 198/446/221 199/447/221
f 221/424/221 204/422/221 203/439/221 206/427/221
f 224/431/218 223/430/218 222/448/218 225/449/218
f 211/407/222 214/406/222 209/434/222 208/450/222

g Mesh5_Group8_Group6_Group1_Model
#pivot 0.000000 0.000000 0.000000

v -0.265595 0.150000 -0.002753
v -0.265595 0.000000 -0.002753
v -0.665595 0.000000 -0.002753
v -0.665595 0.150000 -0.002753
v -0.265595 0.150000 0.002247
v -0.265595 0.000000 0.002247
v -0.665595 0.150000 0.002247
v -0.665595 0.000000 0.002247
v -0.665595 0.140000 0.002247
# 9 positions

vt 0.411665 0.650744
vt 0.591914 0.650744
vt 0.591914 0.170082
vt 0.411665 0.170082
vt 0.498232 0.866646
vt 0.678481 0.866646
vt 0.678481 0.872655
vt 0.498232 0.872655
vt 0.761960 0.974868
vt 0.761960 0.494206
vt 0.767968 0.494206
vt 0.767968 0.974868
vt 0.792158 0.500214
vt 0.972407 0.500214
vt 0.972407 0.494206
vt 0.804175 0.494206
vt 0.792158 0.494206
vt 0.776053 0.984934
vt 0.782060 0.984934
vt 0.782060 0.504272
vt 0.776053 0.504272
vt 0.781154 0.005000
vt 0.600905 0.005000
vt 0.600905 0.485662
vt 0.612922 0.485662
vt 0.781154 0.485662
# 26 texture coordinates

vn 0.000000 0.000000 -1.000000
vn 1.000000 0.000000 0.000000
vn 0.000000 1.000000 0.000000
vn -1.000000 0.000000 0.000000
vn 0.000000 -1.000000 0.000000
vn 0.000000 0.000000 1.000000
# 6 normals

usemtl FrontColor
f 226/451/223 227/452/223 228/453/223 229/454/223
f 227/455/224 226/456/224 230/457/224 231/458/224
f 226/459/225 229/460/225 232/461/225 230/462/225
f 229/463/226 228/464/226 233/465/226 234/466/226 232/467/226
f 233/468/227 228/469/227 227/470/227 231/471/227
f 231/472/228 230/473/228 232/474/228 234/475/228 233/476/228

g Mesh2_Group4_Group2_Group1_Model
#pivot 0.000000 0.000000 0.000000

v 0.677615 0.150000 -0.002753
v 0.677615 0.000000 -0.002753
v 0.277615 0.000000 -0.002753
v 0.277615 0.150000 -0.002753
v 0.677615 0.150000 0.002247
v 0.677615 0.000000 0.002247
v 0.277615 0.150000 0.002247
v 0.277615 0.000000 0.002247
v 0.277615 0.140000 0.002247
# 9 positions

vt 0.005000 0.974868
vt 0.185249 0.974868
vt 0.185249 0.494206
vt 0.005000 0.494206
vt 0.498232 0.880739
vt 0.678481 0.880739
vt 0.678481 0.886747
vt 0.498232 0.886747
vt 0.790145 0.485662
vt 0.790145 0.005000
vt 0.796152 0.005000
vt 0.796152 0.485662
vt 0.804238 0.427739
vt 0.984486 0.427739
vt 0.984486 0.421731
vt 0.816254 0.421731
vt 0.804238 0.421731
vt 0.790145 0.995000
vt 0.796152 0.995000
vt 0.796152 0.514338
vt 0.790145 0.514338
vt 0.374489 0.494206
vt 0.194240 0.494206
vt 0.194240 0.974868
vt 0.206257 0.974868
vt 0.374489 0.974868
# 26 texture coordinates

vn 0.000000 0.000000 -1.000000
vn 1.000000 0.000000 0.000000
vn 0.000000 1.000000 0.000000
vn -1.000000 0.000000 0.000000
vn 0.000000 -1.000000 0.000000
vn 0.000000 0.000000 1.000000
# 6 normals

usemtl FrontColor
f 235/477/229 236/478/229 237/479/229 238/480/229
f 236/481/230 235/482/230 239/483/230 240/484/230
f 235/485/231 238/486/231 241/487/231 239/488/231
f 238/489/232 237/490/232 242/491/232 243/492/232 241/493/232
f 242/494/233 237/495/233 236/496/233 240/497/233
f 240/498/234 239/499/234 241/500/234 243/501/234 242/502/234

# 252 faces
