# Blender v2.78 (sub 0) OBJ File: 'video_store_poster_02.blend'
# www.blender.org
mtllib video_store_poster_02.mtl
o Mesh2_Group1_Model
v -0.263426 0.461941 0.018164
v -0.298930 0.426438 0.018164
v -0.298043 0.461055 0.026068
v -0.228496 0.462514 0.011655
v -0.299502 0.391508 0.011655
v -0.193327 0.462848 0.006569
v -0.299837 0.356339 0.006569
v -0.157978 0.463003 0.002923
v -0.299991 0.320990 0.002923
v -0.122509 0.463038 0.000731
v -0.300026 0.285521 0.000731
v -0.086989 0.463021 0.000000
v -0.300009 0.250001 0.000000
v -0.263250 0.461765 0.018996
v -0.228354 0.462373 0.012500
v -0.193220 0.462742 0.007424
v -0.157907 0.462932 0.003786
v -0.122473 0.463002 0.001598
v -0.086980 0.463012 0.000868
v -0.297850 0.460862 0.026892
v 0.300000 0.463012 0.000868
v 0.300000 0.463012 0.000000
v 0.300000 -0.436988 0.000868
v 0.300000 -0.436988 -0.000000
v -0.300000 -0.436988 0.000868
v -0.300000 -0.436988 -0.000000
v -0.300000 0.249992 0.000868
v -0.299990 0.285485 0.001598
v -0.299920 0.320919 0.003786
v -0.299730 0.356232 0.007424
v -0.299361 0.391366 0.012500
v -0.298754 0.426262 0.018996
v -0.297850 0.460862 0.026892
v -0.298754 0.426262 0.018996
v -0.263250 0.461765 0.018996
v -0.299361 0.391366 0.012500
v -0.228354 0.462373 0.012500
v -0.299730 0.356232 0.007424
v -0.193220 0.462742 0.007424
v -0.299920 0.320919 0.003786
v -0.157907 0.462932 0.003786
v -0.299990 0.285485 0.001598
v -0.122473 0.463002 0.001598
v -0.300000 0.249992 0.000868
v -0.086980 0.463012 0.000868
v 0.300000 -0.436988 0.000868
v 0.300000 0.463012 0.000868
v -0.300000 -0.436988 0.000868
vt 0.8303 0.6500
vt 0.8677 0.6873
vt 0.8667 0.6509
vt 0.7936 0.6494
vt 0.8683 0.7241
vt 0.7566 0.6490
vt 0.8686 0.7610
vt 0.7194 0.6489
vt 0.8688 0.7982
vt 0.6821 0.6488
vt 0.8688 0.8355
vt 0.6448 0.6489
vt 0.8688 0.8729
vt 0.6729 0.0477
vt 0.6660 0.0844
vt 0.6652 0.0842
vt 0.6720 0.0475
vt 0.6607 0.1213
vt 0.6598 0.1212
vt 0.6569 0.1584
vt 0.6560 0.1584
vt 0.6546 0.1957
vt 0.6537 0.1956
vt 0.6538 0.2330
vt 0.6529 0.2330
vt 0.6812 0.0113
vt 0.6803 0.0111
vt 0.6538 0.6399
vt 0.6529 0.6399
vt 0.9514 0.9595
vt 0.0050 0.9595
vt 0.0050 0.9586
vt 0.9514 0.9586
vt 0.6448 0.0050
vt 0.6448 0.6359
vt 0.6457 0.6359
vt 0.6457 0.0050
vt 0.9574 0.9941
vt 0.2350 0.9941
vt 0.2350 0.9950
vt 0.9574 0.9950
vt 0.1977 0.9933
vt 0.1977 0.9942
vt 0.1605 0.9910
vt 0.1604 0.9919
vt 0.1233 0.9872
vt 0.1232 0.9881
vt 0.0864 0.9819
vt 0.0862 0.9827
vt 0.0497 0.9750
vt 0.0495 0.9759
vt 0.0133 0.9667
vt 0.0131 0.9676
vt 0.0073 0.9491
vt 0.0063 0.9127
vt 0.0436 0.9500
vt 0.0057 0.8760
vt 0.0803 0.9507
vt 0.0053 0.8391
vt 0.1173 0.9511
vt 0.0051 0.8019
vt 0.1544 0.9513
vt 0.0050 0.7647
vt 0.1917 0.9513
vt 0.0050 0.7274
vt 0.2290 0.9514
vt 0.6359 0.0050
vt 0.6359 0.9514
vt 0.0050 0.0050
vn -0.2028 0.2028 -0.9580
vn -0.2224 0.2224 -0.9492
vn -0.1630 0.1630 -0.9731
vn -0.1630 0.1631 -0.9731
vn -0.1228 0.1228 -0.9848
vn -0.0821 0.0821 -0.9932
vn -0.0411 0.0411 -0.9983
vn -0.0206 0.0206 -0.9996
vn 0.0203 0.9801 0.1976
vn 0.0140 0.9866 0.1624
vn 0.0082 0.9925 0.1221
vn 0.0040 0.9966 0.0818
vn 0.0015 0.9990 0.0437
vn 0.0003 0.9999 0.0156
vn 0.0233 0.9769 0.2125
vn 0.0003 0.9999 0.0155
vn 0.0000 1.0000 0.0051
vn 1.0000 -0.0000 0.0000
vn 0.0000 -1.0000 0.0000
vn -1.0000 -0.0000 0.0052
vn -0.9999 -0.0003 0.0155
vn -0.9990 -0.0015 0.0438
vn -0.9966 -0.0040 0.0821
vn -0.9966 -0.0040 0.0820
vn -0.9924 -0.0082 0.1227
vn -0.9866 -0.0141 0.1627
vn -0.9801 -0.0203 0.1975
vn -0.9769 -0.0232 0.2125
vn 0.2224 -0.2224 0.9492
vn 0.2028 -0.2028 0.9580
vn 0.1631 -0.1631 0.9730
vn 0.1228 -0.1228 0.9848
vn 0.0821 -0.0821 0.9932
vn 0.0411 -0.0411 0.9983
vn 0.0103 -0.0103 0.9999
vn 0.0000 -0.0000 1.0000
usemtl FrontColor
s 1
f 1/1/1 2/2/1 3/3/2
f 2/2/1 1/1/1 4/4/3 5/5/4
f 5/5/4 4/4/3 6/6/5 7/7/5
f 7/7/5 6/6/5 8/8/6 9/9/6
f 9/9/6 8/8/6 10/10/7 11/11/7
f 11/11/7 10/10/7 12/12/8 13/13/8
s 2
f 14/14/9 15/15/10 4/16/10 1/17/9
f 15/15/10 16/18/11 6/19/11 4/16/10
f 16/18/11 17/20/12 8/21/12 6/19/11
f 17/20/12 18/22/13 10/23/13 8/21/12
f 18/22/13 19/24/14 12/25/14 10/23/13
f 20/26/15 14/14/9 1/17/9 3/27/15
s 3
f 19/24/16 21/28/17 22/29/17 12/25/14
s 4
f 21/30/18 23/31/18 24/32/18 22/33/18
s 5
f 23/34/19 25/35/19 26/36/19 24/37/19
s 6
f 25/38/20 27/39/21 13/40/21 26/41/20
f 27/39/21 28/42/22 11/43/22 13/40/21
f 28/42/22 29/44/23 9/45/24 11/43/22
f 29/44/23 30/46/25 7/47/25 9/45/24
f 30/46/25 31/48/26 5/49/26 7/47/25
f 31/48/26 32/50/27 2/51/27 5/49/26
f 32/50/27 20/52/28 3/53/28 2/51/27
s 7
f 33/54/29 34/55/30 35/56/30
f 36/57/31 37/58/31 35/56/30 34/55/30
f 38/59/32 39/60/32 37/58/31 36/57/31
f 40/61/33 41/62/33 39/60/32 38/59/32
f 42/63/34 43/64/34 41/62/33 40/61/33
f 44/65/35 45/66/35 43/64/34 42/63/34
f 46/67/36 47/68/36 45/66/35 44/65/35 48/69/36
