# Blender v2.78 (sub 0) OBJ File: 'video_store_carpet_small.blend'
# www.blender.org
mtllib video_store_carpet_small.mtl
o Mesh1_Group1_Model
v 0.491892 0.010000 0.739125
v 0.479836 0.010000 0.729836
v 0.490599 0.010000 0.740599
v 0.492981 0.010000 0.737495
v 0.493848 0.010000 0.735736
v 0.494479 0.010000 0.733880
v 0.494861 0.010000 0.731956
v 0.495000 0.010000 -0.729836
v 0.479836 0.010000 -0.729836
v 0.495000 0.010000 0.729836
v 0.494861 0.010000 -0.731956
v 0.497500 0.009331 -0.729918
v 0.497345 0.009331 -0.732284
v 0.497500 0.009330 0.729918
v 0.497345 0.009330 0.732284
v 0.496899 0.009330 0.734528
v 0.496163 0.009330 0.736695
v 0.495151 0.009330 0.738747
v 0.493879 0.009330 0.740650
v 0.492371 0.009330 0.742371
v 0.489125 0.010000 0.741892
v 0.490650 0.009330 0.743879
v 0.487495 0.010000 0.742981
v 0.488747 0.009330 0.745151
v 0.485736 0.010000 0.743848
v 0.486695 0.009330 0.746163
v 0.483880 0.010000 0.744479
v 0.484528 0.009330 0.746899
v 0.481956 0.010000 0.744861
v 0.482284 0.009330 0.747345
v 0.479836 0.010000 0.745000
v 0.479918 0.009330 0.747500
v -0.479836 0.010000 0.745000
v -0.479918 0.009330 0.747500
v -0.479836 0.010000 0.729836
v -0.479836 0.010000 -0.729836
v -0.479836 0.010000 -0.745000
v 0.479836 0.010000 -0.745000
v -0.481956 0.010000 -0.744861
v -0.479918 0.009330 -0.747500
v -0.482284 0.009330 -0.747345
v 0.479918 0.009331 -0.747500
v 0.481956 0.010000 -0.744861
v 0.482284 0.009331 -0.747345
v 0.483880 0.010000 -0.744479
v 0.485736 0.010000 -0.743848
v 0.487495 0.010000 -0.742981
v 0.489125 0.010000 -0.741892
v 0.490599 0.010000 -0.740599
v 0.491892 0.010000 -0.739125
v 0.493879 0.009331 -0.740650
v 0.492371 0.009331 -0.742371
v 0.492981 0.010000 -0.737495
v 0.495151 0.009331 -0.738747
v 0.493848 0.010000 -0.735736
v 0.496163 0.009331 -0.736695
v 0.494479 0.010000 -0.733880
v 0.496899 0.009331 -0.734528
v 0.499163 0.007500 -0.732523
v 0.498670 0.007500 -0.735003
v 0.499330 0.007500 -0.729978
v 0.499330 0.007500 0.729978
v 0.499163 0.007500 0.732523
v 0.498670 0.007500 0.735003
v 0.497857 0.007500 0.737397
v 0.496739 0.007500 0.739664
v 0.495334 0.007500 0.741767
v 0.493667 0.007500 0.743667
v 0.491767 0.007500 0.745334
v 0.489664 0.007500 0.746739
v 0.487397 0.007500 0.747857
v 0.485003 0.007500 0.748670
v 0.482523 0.007500 0.749163
v 0.479978 0.007500 0.749330
v -0.479978 0.007500 0.749330
v -0.482284 0.009330 0.747345
v -0.482523 0.007500 0.749163
v -0.481956 0.010000 0.744861
v -0.483880 0.010000 0.744479
v -0.484528 0.009330 0.746899
v -0.485736 0.010000 0.743848
v -0.486695 0.009330 0.746163
v -0.487495 0.010000 0.742981
v -0.488747 0.009330 0.745151
v -0.489125 0.010000 0.741892
v -0.490650 0.009330 0.743879
v -0.490599 0.010000 0.740599
v -0.492371 0.009330 0.742371
v -0.491892 0.010000 0.739125
v -0.493879 0.009330 0.740650
v -0.492981 0.010000 0.737495
v -0.495151 0.009330 0.738747
v -0.493848 0.010000 0.735736
v -0.496163 0.009330 0.736695
v -0.494479 0.010000 0.733880
v -0.496899 0.009330 0.734528
v -0.494861 0.010000 0.731956
v -0.497345 0.009330 0.732284
v -0.495000 0.010000 0.729836
v -0.497500 0.009330 0.729918
v -0.495000 0.010000 -0.729836
v -0.497500 0.009330 -0.729918
v -0.494861 0.010000 -0.731956
v -0.494479 0.010000 -0.733880
v -0.493848 0.010000 -0.735736
v -0.492981 0.010000 -0.737495
v -0.491892 0.010000 -0.739125
v -0.490599 0.010000 -0.740599
v -0.489125 0.010000 -0.741892
v -0.487495 0.010000 -0.742981
v -0.485736 0.010000 -0.743848
v -0.486695 0.009330 -0.746163
v -0.488747 0.009330 -0.745151
v -0.483880 0.010000 -0.744479
v -0.484528 0.009330 -0.746899
v -0.482523 0.007500 -0.749163
v -0.485003 0.007500 -0.748670
v -0.479978 0.007500 -0.749330
v 0.479978 0.007500 -0.749330
v 0.482523 0.007500 -0.749163
v 0.484528 0.009331 -0.746899
v 0.485003 0.007500 -0.748670
v 0.486695 0.009331 -0.746163
v 0.488747 0.009331 -0.745151
v 0.490650 0.009331 -0.743879
v 0.493667 0.007500 -0.743667
v 0.491767 0.007500 -0.745334
v 0.495334 0.007500 -0.741767
v 0.496739 0.007500 -0.739664
v 0.497857 0.007500 -0.737397
v 0.499319 0.005000 -0.735176
v 0.498478 0.005000 -0.737654
v 0.499829 0.005000 -0.732611
v 0.500000 0.005000 -0.730000
v 0.500000 0.005000 0.730000
v 0.499829 0.005000 0.732611
v 0.499319 0.005000 0.735176
v 0.498478 0.005000 0.737654
v 0.497321 0.005000 0.740000
v 0.495867 0.005000 0.742175
v 0.494142 0.005000 0.744142
v 0.492175 0.005000 0.745867
v 0.490000 0.005000 0.747321
v 0.487654 0.005000 0.748478
v 0.485176 0.005000 0.749319
v 0.482611 0.005000 0.749829
v 0.480000 0.005000 0.750000
v -0.480000 0.005000 0.750000
v -0.482611 0.005000 0.749829
v -0.485003 0.007500 0.748670
v -0.485176 0.005000 0.749319
v -0.487397 0.007500 0.747857
v -0.489664 0.007500 0.746739
v -0.491767 0.007500 0.745334
v -0.493667 0.007500 0.743667
v -0.495334 0.007500 0.741767
v -0.496739 0.007500 0.739664
v -0.497857 0.007500 0.737397
v -0.498670 0.007500 0.735003
v -0.499163 0.007500 0.732523
v -0.499330 0.007500 0.729978
v -0.499330 0.007500 -0.729978
v -0.497345 0.009330 -0.732284
v -0.499163 0.007500 -0.732523
v -0.496899 0.009330 -0.734528
v -0.496163 0.009330 -0.736695
v -0.495151 0.009330 -0.738747
v -0.493879 0.009330 -0.740650
v -0.492371 0.009330 -0.742371
v -0.490650 0.009330 -0.743879
v -0.489664 0.007500 -0.746739
v -0.491767 0.007500 -0.745334
v -0.487397 0.007500 -0.747857
v -0.485176 0.005000 -0.749319
v -0.487654 0.005000 -0.748478
v -0.482611 0.005000 -0.749829
v -0.480000 0.005000 -0.750000
v 0.480000 0.005000 -0.750000
v 0.482611 0.005000 -0.749829
v 0.485176 0.005000 -0.749319
v 0.487397 0.007500 -0.747857
v 0.487654 0.005000 -0.748478
v 0.489664 0.007500 -0.746739
v 0.492175 0.005000 -0.745867
v 0.490000 0.005000 -0.747321
v 0.494142 0.005000 -0.744142
v 0.495867 0.005000 -0.742175
v 0.497321 0.005000 -0.740000
v 0.497321 0.000000 -0.740000
v 0.498478 0.000000 -0.737654
v 0.495867 0.000000 -0.742175
v 0.494142 0.000000 -0.744142
v 0.492175 0.000000 -0.745867
v 0.490000 0.000000 -0.747321
v 0.487654 0.000000 -0.748478
v 0.485176 0.000000 -0.749319
v 0.482611 0.000000 -0.749829
v 0.480000 0.000000 -0.750000
v -0.480000 0.000000 -0.750000
v -0.482611 0.000000 -0.749829
v -0.485176 0.000000 -0.749319
v -0.487654 0.000000 -0.748478
v -0.490000 0.000000 -0.747321
v -0.490000 0.005000 -0.747321
v -0.492175 0.000000 -0.745867
v -0.492175 0.005000 -0.745867
v -0.494142 0.000000 -0.744142
v -0.494142 0.005000 -0.744142
v -0.495867 0.000000 -0.742175
v -0.495867 0.005000 -0.742175
v -0.497321 0.000000 -0.740000
v -0.497321 0.005000 -0.740000
v -0.498478 0.000000 -0.737654
v -0.498478 0.005000 -0.737654
v -0.499319 0.000000 -0.735176
v -0.499319 0.005000 -0.735176
v -0.499829 0.000000 -0.732611
v -0.499829 0.005000 -0.732611
v -0.500000 0.000000 -0.730000
v -0.500000 0.005000 -0.730000
v -0.500000 -0.000000 0.730000
v -0.500000 0.005000 0.730000
v -0.499829 -0.000000 0.732611
v -0.499829 0.005000 0.732611
v -0.499319 -0.000000 0.735176
v -0.499319 0.005000 0.735176
v -0.498478 -0.000000 0.737654
v -0.498478 0.005000 0.737654
v -0.497321 -0.000000 0.740000
v -0.497321 0.005000 0.740000
v -0.495867 -0.000000 0.742175
v -0.495867 0.005000 0.742175
v -0.494142 -0.000000 0.744142
v -0.494142 0.005000 0.744142
v -0.492175 -0.000000 0.745867
v -0.492175 0.005000 0.745867
v -0.490000 -0.000000 0.747321
v -0.490000 0.005000 0.747321
v -0.487654 -0.000000 0.748478
v -0.487654 0.005000 0.748478
v -0.485176 -0.000000 0.749319
v -0.482611 -0.000000 0.749829
v -0.480000 -0.000000 0.750000
v 0.480000 -0.000000 0.750000
v 0.482611 -0.000000 0.749829
v 0.485176 -0.000000 0.749319
v 0.487654 -0.000000 0.748478
v 0.490000 -0.000000 0.747321
v 0.492175 -0.000000 0.745867
v 0.494142 -0.000000 0.744142
v 0.495867 -0.000000 0.742175
v 0.497321 -0.000000 0.740000
v 0.498478 -0.000000 0.737654
v 0.499319 -0.000000 0.735176
v 0.499829 -0.000000 0.732611
v 0.500000 -0.000000 0.730000
v 0.500000 0.000000 -0.730000
v 0.499829 0.000000 -0.732611
v 0.499319 0.000000 -0.735176
v -0.498670 0.007500 -0.735003
v -0.497857 0.007500 -0.737397
v -0.496739 0.007500 -0.739664
v -0.495334 0.007500 -0.741767
v -0.493667 0.007500 -0.743667
vt 0.9639 0.6436
vt 0.9579 0.6358
vt 0.9649 0.6428
vt 0.9629 0.6443
vt 0.9617 0.6448
vt 0.9605 0.6453
vt 0.9593 0.6455
vt 0.0176 0.6456
vt 0.0176 0.6358
vt 0.9579 0.6456
vt 0.0162 0.6455
vt 0.0175 0.6472
vt 0.0160 0.6471
vt 0.9580 0.6472
vt 0.9595 0.6471
vt 0.9610 0.6468
vt 0.9624 0.6463
vt 0.9637 0.6457
vt 0.9649 0.6449
vt 0.9660 0.6439
vt 0.9657 0.6418
vt 0.9670 0.6428
vt 0.9664 0.6408
vt 0.9678 0.6416
vt 0.9670 0.6396
vt 0.9685 0.6402
vt 0.9674 0.6384
vt 0.9689 0.6388
vt 0.9676 0.6372
vt 0.9692 0.6374
vt 0.9677 0.6358
vt 0.9693 0.6359
vt 0.9677 0.0176
vt 0.9693 0.0175
vt 0.9579 0.0176
vt 0.0176 0.0176
vt 0.0078 0.0176
vt 0.0078 0.6358
vt 0.0079 0.0162
vt 0.0062 0.0175
vt 0.0063 0.0160
vt 0.0062 0.6359
vt 0.0079 0.6372
vt 0.0063 0.6374
vt 0.0081 0.6384
vt 0.0085 0.6396
vt 0.0091 0.6408
vt 0.0098 0.6418
vt 0.0106 0.6428
vt 0.0116 0.6436
vt 0.0106 0.6449
vt 0.0095 0.6439
vt 0.0126 0.6443
vt 0.0118 0.6457
vt 0.0138 0.6448
vt 0.0131 0.6463
vt 0.0150 0.6453
vt 0.0145 0.6468
vt 0.0158 0.6483
vt 0.0142 0.6480
vt 0.0175 0.6484
vt 0.9580 0.6484
vt 0.9597 0.6483
vt 0.9613 0.6480
vt 0.9628 0.6474
vt 0.9643 0.6467
vt 0.9656 0.6458
vt 0.9669 0.6447
vt 0.9679 0.6435
vt 0.9688 0.6422
vt 0.9696 0.6407
vt 0.9701 0.6391
vt 0.9704 0.6376
vt 0.9705 0.6359
vt 0.9705 0.0175
vt 0.9692 0.0160
vt 0.9704 0.0158
vt 0.9676 0.0162
vt 0.9674 0.0150
vt 0.9689 0.0145
vt 0.9670 0.0138
vt 0.9685 0.0131
vt 0.9664 0.0126
vt 0.9678 0.0118
vt 0.9657 0.0116
vt 0.9670 0.0106
vt 0.9649 0.0106
vt 0.9660 0.0095
vt 0.9639 0.0098
vt 0.9649 0.0085
vt 0.9629 0.0091
vt 0.9637 0.0077
vt 0.9617 0.0085
vt 0.9624 0.0070
vt 0.9605 0.0081
vt 0.9610 0.0066
vt 0.9593 0.0079
vt 0.9595 0.0063
vt 0.9579 0.0078
vt 0.9580 0.0062
vt 0.0176 0.0078
vt 0.0175 0.0062
vt 0.0162 0.0079
vt 0.0150 0.0081
vt 0.0138 0.0085
vt 0.0126 0.0091
vt 0.0116 0.0098
vt 0.0106 0.0106
vt 0.0098 0.0116
vt 0.0091 0.0126
vt 0.0085 0.0138
vt 0.0070 0.0131
vt 0.0077 0.0118
vt 0.0081 0.0150
vt 0.0066 0.0145
vt 0.0051 0.0158
vt 0.0054 0.0142
vt 0.0050 0.0175
vt 0.0050 0.6359
vt 0.0051 0.6376
vt 0.0066 0.6388
vt 0.0054 0.6391
vt 0.0070 0.6402
vt 0.0077 0.6416
vt 0.0085 0.6428
vt 0.0086 0.6447
vt 0.0076 0.6435
vt 0.0099 0.6458
vt 0.0112 0.6467
vt 0.0127 0.6474
vt 0.9827 0.0093
vt 0.9827 0.0109
vt 0.9811 0.0108
vt 0.9811 0.0092
vt 0.9827 0.0125
vt 0.9811 0.0124
vt 0.9827 0.0141
vt 0.9811 0.0141
vt 0.9827 0.9547
vt 0.9811 0.9547
vt 0.9827 0.9563
vt 0.9811 0.9564
vt 0.9827 0.9579
vt 0.9811 0.9580
vt 0.9827 0.9595
vt 0.9811 0.9596
vt 0.9827 0.9609
vt 0.9811 0.9611
vt 0.9827 0.9623
vt 0.9811 0.9625
vt 0.9827 0.9635
vt 0.9811 0.9638
vt 0.6414 0.6741
vt 0.6402 0.6741
vt 0.6404 0.6725
vt 0.6417 0.6725
vt 0.6388 0.6741
vt 0.6390 0.6725
vt 0.6373 0.6741
vt 0.6375 0.6725
vt 0.6358 0.6741
vt 0.6359 0.6725
vt 0.6342 0.6741
vt 0.6343 0.6725
vt 0.6326 0.6741
vt 0.6326 0.6725
vt 0.0141 0.6741
vt 0.0141 0.6725
vt 0.0125 0.6741
vt 0.0124 0.6725
vt 0.0109 0.6741
vt 0.0108 0.6725
vt 0.9701 0.0142
vt 0.9696 0.0127
vt 0.9688 0.0112
vt 0.9679 0.0099
vt 0.9669 0.0086
vt 0.9656 0.0076
vt 0.9643 0.0067
vt 0.9628 0.0059
vt 0.9613 0.0054
vt 0.9597 0.0051
vt 0.9580 0.0050
vt 0.0175 0.0050
vt 0.0160 0.0063
vt 0.0158 0.0051
vt 0.0145 0.0066
vt 0.0131 0.0070
vt 0.0118 0.0077
vt 0.0106 0.0085
vt 0.0095 0.0095
vt 0.0085 0.0106
vt 0.0067 0.0112
vt 0.0076 0.0099
vt 0.0059 0.0127
vt 0.6373 0.6570
vt 0.6358 0.6570
vt 0.6359 0.6586
vt 0.6375 0.6586
vt 0.6342 0.6570
vt 0.6343 0.6586
vt 0.6326 0.6570
vt 0.6326 0.6586
vt 0.0141 0.6570
vt 0.0141 0.6586
vt 0.0125 0.6570
vt 0.0124 0.6586
vt 0.0109 0.6570
vt 0.0108 0.6586
vt 0.0093 0.6570
vt 0.0092 0.6586
vt 0.0059 0.6407
vt 0.0067 0.6422
vt 0.0079 0.6570
vt 0.0065 0.6570
vt 0.0063 0.6586
vt 0.0077 0.6586
vt 0.0053 0.6570
vt 0.0050 0.6586
vt 0.9827 0.0053
vt 0.9827 0.0065
vt 0.9811 0.0063
vt 0.9811 0.0050
vt 0.9827 0.0079
vt 0.9811 0.0077
vt 0.9779 0.0077
vt 0.9779 0.0092
vt 0.9779 0.0063
vt 0.9779 0.0050
vt 0.0063 0.6618
vt 0.0050 0.6618
vt 0.0077 0.6618
vt 0.0092 0.6618
vt 0.0108 0.6618
vt 0.0124 0.6618
vt 0.0141 0.6618
vt 0.6326 0.6618
vt 0.6343 0.6618
vt 0.6359 0.6618
vt 0.6375 0.6618
vt 0.6390 0.6618
vt 0.6390 0.6586
vt 0.6404 0.6618
vt 0.6404 0.6586
vt 0.6417 0.6618
vt 0.6417 0.6586
vt 0.9950 0.9625
vt 0.9918 0.9625
vt 0.9918 0.9638
vt 0.9950 0.9638
vt 0.9950 0.9611
vt 0.9918 0.9611
vt 0.9950 0.9596
vt 0.9918 0.9596
vt 0.9950 0.9580
vt 0.9918 0.9580
vt 0.9950 0.9564
vt 0.9918 0.9564
vt 0.9950 0.9547
vt 0.9918 0.9547
vt 0.9950 0.0141
vt 0.9918 0.0141
vt 0.9950 0.0124
vt 0.9918 0.0124
vt 0.9950 0.0108
vt 0.9918 0.0108
vt 0.9950 0.0092
vt 0.9918 0.0092
vt 0.9950 0.0077
vt 0.9918 0.0077
vt 0.9950 0.0063
vt 0.9918 0.0063
vt 0.9950 0.0050
vt 0.9918 0.0050
vt 0.0063 0.6693
vt 0.0063 0.6725
vt 0.0050 0.6725
vt 0.0050 0.6693
vt 0.0077 0.6693
vt 0.0077 0.6725
vt 0.0092 0.6693
vt 0.0092 0.6725
vt 0.0108 0.6693
vt 0.0124 0.6693
vt 0.0141 0.6693
vt 0.6326 0.6693
vt 0.6343 0.6693
vt 0.6359 0.6693
vt 0.6375 0.6693
vt 0.6390 0.6693
vt 0.6404 0.6693
vt 0.6417 0.6693
vt 0.9779 0.9625
vt 0.9779 0.9638
vt 0.9779 0.9611
vt 0.9779 0.9596
vt 0.9779 0.9580
vt 0.9779 0.9564
vt 0.9779 0.9547
vt 0.9779 0.0141
vt 0.9779 0.0124
vt 0.9779 0.0108
vt 0.0093 0.6741
vt 0.0079 0.6741
vt 0.0065 0.6741
vt 0.0053 0.6741
vt 0.9902 0.0053
vt 0.9902 0.0065
vt 0.9902 0.0079
vt 0.9902 0.0093
vt 0.9902 0.0109
vt 0.9902 0.0125
vt 0.9902 0.0141
vt 0.9902 0.9547
vt 0.9902 0.9563
vt 0.9902 0.9579
vt 0.0142 0.0054
vt 0.0127 0.0059
vt 0.0112 0.0067
vt 0.0099 0.0076
vt 0.0086 0.0086
vt 0.6414 0.6570
vt 0.6402 0.6570
vt 0.6388 0.6570
vt 0.9902 0.9623
vt 0.9902 0.9635
vt 0.9902 0.9609
vt 0.9902 0.9595
vn 0.1034 0.9915 0.0793
vn 0.0000 1.0000 0.0000
vn 0.0921 0.9915 0.0921
vn 0.1129 0.9915 0.0651
vn 0.1204 0.9915 0.0498
vn 0.1258 0.9915 0.0337
vn 0.1721 0.9848 0.0226
vn 0.1303 0.9915 -0.0043
vn 0.1737 0.9848 0.0057
vn 0.1290 0.9915 -0.0169
vn 0.4996 0.8661 -0.0164
vn 0.4949 0.8665 -0.0651
vn 0.4995 0.8661 0.0164
vn 0.4950 0.8665 0.0651
vn 0.4822 0.8665 0.1292
vn 0.4612 0.8665 0.1911
vn 0.4323 0.8665 0.2496
vn 0.3961 0.8665 0.3039
vn 0.3530 0.8665 0.3530
vn 0.0793 0.9915 0.1034
vn 0.3039 0.8665 0.3961
vn 0.0652 0.9915 0.1129
vn 0.2496 0.8665 0.4323
vn 0.0499 0.9915 0.1203
vn 0.1911 0.8665 0.4612
vn 0.0337 0.9915 0.1258
vn 0.1292 0.8664 0.4823
vn 0.0170 0.9915 0.1291
vn 0.0651 0.8665 0.4950
vn 0.0043 0.9914 0.1305
vn 0.0164 0.8661 0.4995
vn -0.0043 0.9914 0.1305
vn -0.0164 0.8661 0.4996
vn -0.0043 0.9915 -0.1304
vn 0.0043 0.9915 -0.1303
vn -0.0169 0.9915 -0.1291
vn -0.0164 0.8661 -0.4995
vn -0.0651 0.8665 -0.4950
vn 0.0164 0.8662 -0.4995
vn 0.0170 0.9915 -0.1290
vn 0.0651 0.8665 -0.4949
vn 0.0337 0.9915 -0.1257
vn 0.0498 0.9915 -0.1202
vn 0.0651 0.9915 -0.1127
vn 0.0792 0.9915 -0.1032
vn 0.0920 0.9915 -0.0920
vn 0.1032 0.9915 -0.0792
vn 0.3961 0.8665 -0.3039
vn 0.3530 0.8665 -0.3530
vn 0.1126 0.9915 -0.0650
vn 0.4323 0.8665 -0.2496
vn 0.1202 0.9915 -0.0498
vn 0.4612 0.8665 -0.1911
vn 0.1257 0.9915 -0.0337
vn 0.4822 0.8665 -0.1292
vn 0.8582 0.5007 -0.1129
vn 0.8361 0.5007 -0.2240
vn 0.8655 0.5002 -0.0283
vn 0.8655 0.5001 0.0283
vn 0.8581 0.5008 0.1129
vn 0.8361 0.5008 0.2240
vn 0.7996 0.5009 0.3313
vn 0.7495 0.5009 0.4328
vn 0.6867 0.5008 0.5270
vn 0.6121 0.5008 0.6120
vn 0.5269 0.5009 0.6866
vn 0.4328 0.5009 0.7495
vn 0.3313 0.5009 0.7996
vn 0.2240 0.5008 0.8361
vn 0.1129 0.5008 0.8581
vn 0.0283 0.5002 0.8654
vn -0.0283 0.5002 0.8654
vn -0.0651 0.8665 0.4950
vn -0.1129 0.5008 0.8581
vn -0.0170 0.9915 0.1291
vn -0.0337 0.9915 0.1258
vn -0.1292 0.8664 0.4823
vn -0.0499 0.9915 0.1203
vn -0.1911 0.8665 0.4612
vn -0.0652 0.9915 0.1129
vn -0.2496 0.8665 0.4323
vn -0.0793 0.9915 0.1034
vn -0.3039 0.8665 0.3961
vn -0.0921 0.9915 0.0921
vn -0.3530 0.8665 0.3530
vn -0.1034 0.9915 0.0793
vn -0.3961 0.8665 0.3039
vn -0.1129 0.9915 0.0652
vn -0.4323 0.8665 0.2496
vn -0.1203 0.9915 0.0499
vn -0.4612 0.8665 0.1911
vn -0.1258 0.9915 0.0337
vn -0.4822 0.8665 0.1292
vn -0.1292 0.9915 0.0170
vn -0.4950 0.8665 0.0651
vn -0.1305 0.9914 0.0043
vn -0.4995 0.8661 0.0164
vn -0.1305 0.9914 -0.0043
vn -0.4996 0.8661 -0.0164
vn -0.1292 0.9915 -0.0170
vn -0.1258 0.9915 -0.0337
vn -0.1203 0.9915 -0.0499
vn -0.1129 0.9915 -0.0652
vn -0.1034 0.9915 -0.0793
vn -0.0921 0.9915 -0.0921
vn -0.0793 0.9915 -0.1034
vn -0.0652 0.9915 -0.1129
vn -0.0499 0.9915 -0.1203
vn -0.1911 0.8665 -0.4612
vn -0.2496 0.8665 -0.4323
vn -0.0337 0.9915 -0.1258
vn -0.1292 0.8664 -0.4823
vn -0.1129 0.5008 -0.8581
vn -0.2240 0.5008 -0.8361
vn -0.0283 0.5002 -0.8655
vn 0.0283 0.5002 -0.8655
vn 0.1129 0.5007 -0.8582
vn 0.1292 0.8665 -0.4822
vn 0.2240 0.5007 -0.8361
vn 0.1911 0.8665 -0.4612
vn 0.2496 0.8665 -0.4323
vn 0.3039 0.8665 -0.3961
vn 0.6121 0.5007 -0.6121
vn 0.5270 0.5007 -0.6867
vn 0.6867 0.5007 -0.5270
vn 0.7496 0.5008 -0.4328
vn 0.7997 0.5008 -0.3313
vn 0.9576 0.1309 -0.2565
vn 0.9159 0.1309 -0.3794
vn 0.9829 0.1308 -0.1294
vn 0.9909 0.1306 -0.0324
vn 0.9909 0.1303 0.0324
vn 0.9829 0.1309 0.1294
vn 0.9576 0.1309 0.2565
vn 0.9159 0.1309 0.3794
vn 0.8585 0.1308 0.4958
vn 0.7865 0.1307 0.6036
vn 0.7010 0.1308 0.7010
vn 0.6036 0.1306 0.7865
vn 0.4958 0.1308 0.8585
vn 0.3794 0.1309 0.9159
vn 0.2565 0.1309 0.9576
vn 0.1293 0.1309 0.9829
vn 0.0324 0.1309 0.9909
vn -0.0324 0.1309 0.9909
vn -0.1293 0.1309 0.9829
vn -0.2240 0.5008 0.8361
vn -0.2565 0.1310 0.9576
vn -0.3313 0.5009 0.7996
vn -0.4328 0.5009 0.7495
vn -0.5269 0.5009 0.6866
vn -0.6121 0.5007 0.6121
vn -0.6867 0.5008 0.5270
vn -0.7495 0.5009 0.4328
vn -0.7996 0.5009 0.3313
vn -0.8361 0.5008 0.2240
vn -0.8581 0.5008 0.1129
vn -0.8654 0.5002 0.0283
vn -0.8654 0.5002 -0.0283
vn -0.4950 0.8665 -0.0651
vn -0.8581 0.5008 -0.1129
vn -0.4822 0.8665 -0.1292
vn -0.4612 0.8665 -0.1911
vn -0.4323 0.8665 -0.2496
vn -0.3961 0.8665 -0.3039
vn -0.3530 0.8665 -0.3530
vn -0.3039 0.8665 -0.3961
vn -0.4328 0.5009 -0.7495
vn -0.5270 0.5008 -0.6867
vn -0.3313 0.5009 -0.7996
vn -0.2565 0.1309 -0.9576
vn -0.3794 0.1309 -0.9159
vn -0.1293 0.1309 -0.9829
vn -0.0324 0.1309 -0.9909
vn 0.0324 0.1309 -0.9909
vn 0.1293 0.1309 -0.9829
vn 0.2565 0.1310 -0.9576
vn 0.3313 0.5008 -0.7997
vn 0.3794 0.1309 -0.9159
vn 0.4328 0.5008 -0.7496
vn 0.6036 0.1306 -0.7865
vn 0.4958 0.1307 -0.8586
vn 0.7010 0.1308 -0.7010
vn 0.7865 0.1308 -0.6036
vn 0.8585 0.1308 -0.4958
vn 0.8660 0.0000 -0.5001
vn 0.9239 0.0000 -0.3827
vn 0.7933 0.0000 -0.6088
vn 0.7071 0.0000 -0.7071
vn 0.6089 0.0000 -0.7933
vn 0.5001 0.0000 -0.8660
vn 0.3827 0.0000 -0.9239
vn 0.2588 0.0000 -0.9659
vn 0.1305 0.0000 -0.9915
vn 0.0327 0.0000 -0.9995
vn -0.0327 0.0000 -0.9995
vn -0.1305 0.0000 -0.9915
vn -0.2588 0.0000 -0.9659
vn -0.3827 0.0000 -0.9239
vn -0.5001 0.0000 -0.8660
vn -0.4958 0.1307 -0.8586
vn -0.6089 0.0000 -0.7933
vn -0.6036 0.1307 -0.7865
vn -0.7071 0.0000 -0.7071
vn -0.7010 0.1308 -0.7010
vn -0.7933 0.0000 -0.6088
vn -0.7865 0.1307 -0.6036
vn -0.8660 0.0000 -0.5001
vn -0.8585 0.1308 -0.4958
vn -0.9239 0.0000 -0.3827
vn -0.9159 0.1309 -0.3794
vn -0.9659 0.0000 -0.2588
vn -0.9576 0.1309 -0.2565
vn -0.9915 0.0000 -0.1305
vn -0.9829 0.1309 -0.1294
vn -0.9995 0.0000 -0.0327
vn -0.9909 0.1303 -0.0324
vn -0.9995 0.0000 0.0327
vn -0.9909 0.1303 0.0324
vn -0.9915 0.0000 0.1305
vn -0.9829 0.1308 0.1294
vn -0.9659 0.0000 0.2588
vn -0.9576 0.1309 0.2565
vn -0.9239 0.0000 0.3827
vn -0.9159 0.1311 0.3794
vn -0.8660 0.0000 0.5001
vn -0.8585 0.1308 0.4958
vn -0.7933 0.0000 0.6089
vn -0.7865 0.1308 0.6036
vn -0.7071 0.0000 0.7071
vn -0.7010 0.1308 0.7010
vn -0.6088 0.0000 0.7933
vn -0.6036 0.1306 0.7865
vn -0.5001 0.0000 0.8660
vn -0.4958 0.1307 0.8586
vn -0.3827 0.0000 0.9239
vn -0.3794 0.1309 0.9159
vn -0.2588 0.0000 0.9659
vn -0.1305 0.0000 0.9915
vn -0.0327 0.0000 0.9995
vn 0.0327 0.0000 0.9995
vn 0.1305 0.0000 0.9915
vn 0.2588 0.0000 0.9659
vn 0.3827 0.0000 0.9239
vn 0.5001 0.0000 0.8660
vn 0.6088 0.0000 0.7933
vn 0.7071 0.0000 0.7071
vn 0.7933 0.0000 0.6089
vn 0.8660 0.0000 0.5001
vn 0.9239 0.0000 0.3827
vn 0.9659 0.0000 0.2588
vn 0.9915 0.0000 0.1305
vn 0.9995 0.0000 0.0327
vn 0.9995 0.0000 -0.0327
vn 0.9915 0.0000 -0.1305
vn 0.9659 0.0000 -0.2588
vn -0.8361 0.5008 -0.2240
vn -0.7996 0.5009 -0.3313
vn -0.7495 0.5009 -0.4328
vn -0.6867 0.5008 -0.5270
vn -0.6121 0.5008 -0.6120
usemtl FrontColor
s 1
f 1/1/1 2/2/2 3/3/3
f 4/4/4 2/2/2 1/1/1
f 5/5/5 2/2/2 4/4/4
f 6/6/6 2/2/2 5/5/5
f 7/7/7 2/2/2 6/6/6
f 8/8/8 9/9/2 2/2/2 10/10/9
f 8/8/8 11/11/10 9/9/2
f 11/11/10 8/8/8 12/12/11 13/13/12
f 8/8/8 10/10/9 14/14/13 12/12/11
f 10/10/9 7/7/7 15/15/14 14/14/13
f 7/7/7 6/6/6 16/16/15 15/15/14
f 6/6/6 5/5/5 17/17/16 16/16/15
f 5/5/5 4/4/4 18/18/17 17/17/16
f 4/4/4 1/1/1 19/19/18 18/18/17
f 1/1/1 3/3/3 20/20/19 19/19/18
f 3/3/3 21/21/20 22/22/21 20/20/19
f 21/21/20 3/3/3 2/2/2
f 23/23/22 21/21/20 2/2/2
f 21/21/20 23/23/22 24/24/23 22/22/21
f 23/23/22 25/25/24 26/26/25 24/24/23
f 25/25/24 23/23/22 2/2/2
f 27/27/26 25/25/24 2/2/2
f 25/25/24 27/27/26 28/28/27 26/26/25
f 27/27/26 29/29/28 30/30/29 28/28/27
f 29/29/28 27/27/26 2/2/2
f 31/31/30 29/29/28 2/2/2
f 29/29/28 31/31/30 32/32/31 30/30/29
f 31/31/30 33/33/32 34/34/33 32/32/31
f 33/33/32 31/31/30 2/2/2 35/35/2
f 35/35/2 2/2/2 9/9/2 36/36/2
f 37/37/34 36/36/2 9/9/2 38/38/35
f 37/37/34 39/39/36 36/36/2
f 39/39/36 37/37/34 40/40/37 41/41/38
f 37/37/34 38/38/35 42/42/39 40/40/37
f 38/38/35 43/43/40 44/44/41 42/42/39
f 38/38/35 9/9/2 43/43/40
f 43/43/40 9/9/2 45/45/42
f 45/45/42 9/9/2 46/46/43
f 46/46/43 9/9/2 47/47/44
f 47/47/44 9/9/2 48/48/45
f 48/48/45 9/9/2 49/49/46
f 50/50/47 49/49/46 9/9/2
f 49/49/46 50/50/47 51/51/48 52/52/49
f 50/50/47 53/53/50 54/54/51 51/51/48
f 50/50/47 9/9/2 53/53/50
f 55/55/52 53/53/50 9/9/2
f 53/53/50 55/55/52 56/56/53 54/54/51
f 55/55/52 57/57/54 58/58/55 56/56/53
f 57/57/54 55/55/52 9/9/2
f 11/11/10 57/57/54 9/9/2
f 57/57/54 11/11/10 13/13/12 58/58/55
f 58/58/55 13/13/12 59/59/56 60/60/57
f 13/13/12 12/12/11 61/61/58 59/59/56
f 12/12/11 14/14/13 62/62/59 61/61/58
f 14/14/13 15/15/14 63/63/60 62/62/59
f 15/15/14 16/16/15 64/64/61 63/63/60
f 16/16/15 17/17/16 65/65/62 64/64/61
f 17/17/16 18/18/17 66/66/63 65/65/62
f 18/18/17 19/19/18 67/67/64 66/66/63
f 19/19/18 20/20/19 68/68/65 67/67/64
f 20/20/19 22/22/21 69/69/66 68/68/65
f 22/22/21 24/24/23 70/70/67 69/69/66
f 24/24/23 26/26/25 71/71/68 70/70/67
f 26/26/25 28/28/27 72/72/69 71/71/68
f 28/28/27 30/30/29 73/73/70 72/72/69
f 30/30/29 32/32/31 74/74/71 73/73/70
f 32/32/31 34/34/33 75/75/72 74/74/71
f 34/34/33 76/76/73 77/77/74 75/75/72
f 33/33/32 78/78/75 76/76/73 34/34/33
f 33/33/32 35/35/2 78/78/75
f 79/79/76 78/78/75 35/35/2
f 78/78/75 79/79/76 80/80/77 76/76/73
f 79/79/76 81/81/78 82/82/79 80/80/77
f 81/81/78 79/79/76 35/35/2
f 83/83/80 81/81/78 35/35/2
f 81/81/78 83/83/80 84/84/81 82/82/79
f 83/83/80 85/85/82 86/86/83 84/84/81
f 85/85/82 83/83/80 35/35/2
f 87/87/84 85/85/82 35/35/2
f 85/85/82 87/87/84 88/88/85 86/86/83
f 87/87/84 89/89/86 90/90/87 88/88/85
f 89/89/86 87/87/84 35/35/2
f 91/91/88 89/89/86 35/35/2
f 89/89/86 91/91/88 92/92/89 90/90/87
f 91/91/88 93/93/90 94/94/91 92/92/89
f 93/93/90 91/91/88 35/35/2
f 95/95/92 93/93/90 35/35/2
f 93/93/90 95/95/92 96/96/93 94/94/91
f 95/95/92 97/97/94 98/98/95 96/96/93
f 97/97/94 95/95/92 35/35/2
f 99/99/96 97/97/94 35/35/2
f 97/97/94 99/99/96 100/100/97 98/98/95
f 99/99/96 101/101/98 102/102/99 100/100/97
f 101/101/98 99/99/96 35/35/2 36/36/2
f 101/101/98 36/36/2 103/103/100
f 103/103/100 36/36/2 104/104/101
f 104/104/101 36/36/2 105/105/102
f 105/105/102 36/36/2 106/106/103
f 106/106/103 36/36/2 107/107/104
f 107/107/104 36/36/2 108/108/105
f 108/108/105 36/36/2 109/109/106
f 109/109/106 36/36/2 110/110/107
f 111/111/108 110/110/107 36/36/2
f 110/110/107 111/111/108 112/112/109 113/113/110
f 111/111/108 114/114/111 115/115/112 112/112/109
f 114/114/111 111/111/108 36/36/2
f 39/39/36 114/114/111 36/36/2
f 114/114/111 39/39/36 41/41/38 115/115/112
f 115/115/112 41/41/38 116/116/113 117/117/114
f 41/41/38 40/40/37 118/118/115 116/116/113
f 40/40/37 42/42/39 119/119/116 118/118/115
f 42/42/39 44/44/41 120/120/117 119/119/116
f 44/44/41 121/121/118 122/122/119 120/120/117
f 43/43/40 45/45/42 121/121/118 44/44/41
f 45/45/42 46/46/43 123/123/120 121/121/118
f 46/46/43 47/47/44 124/124/121 123/123/120
f 47/47/44 48/48/45 125/125/122 124/124/121
f 48/48/45 49/49/46 52/52/49 125/125/122
f 125/125/122 52/52/49 126/126/123 127/127/124
f 52/52/49 51/51/48 128/128/125 126/126/123
f 51/51/48 54/54/51 129/129/126 128/128/125
f 54/54/51 56/56/53 130/130/127 129/129/126
f 56/56/53 58/58/55 60/60/57 130/130/127
f 130/131/127 60/132/57 131/133/128 132/134/129
f 60/132/57 59/135/56 133/136/130 131/133/128
f 59/135/56 61/137/58 134/138/131 133/136/130
f 61/137/58 62/139/59 135/140/132 134/138/131
f 62/139/59 63/141/60 136/142/133 135/140/132
f 63/141/60 64/143/61 137/144/134 136/142/133
f 64/143/61 65/145/62 138/146/135 137/144/134
f 65/145/62 66/147/63 139/148/136 138/146/135
f 66/147/63 67/149/64 140/150/137 139/148/136
f 67/149/64 68/151/65 141/152/138 140/150/137
f 68/153/65 69/154/66 142/155/139 141/156/138
f 69/154/66 70/157/67 143/158/140 142/155/139
f 70/157/67 71/159/68 144/160/141 143/158/140
f 71/159/68 72/161/69 145/162/142 144/160/141
f 72/161/69 73/163/70 146/164/143 145/162/142
f 73/163/70 74/165/71 147/166/144 146/164/143
f 74/165/71 75/167/72 148/168/145 147/166/144
f 75/167/72 77/169/74 149/170/146 148/168/145
f 77/169/74 150/171/147 151/172/148 149/170/146
f 76/76/73 80/80/77 150/173/147 77/77/74
f 80/80/77 82/82/79 152/174/149 150/173/147
f 82/82/79 84/84/81 153/175/150 152/174/149
f 84/84/81 86/86/83 154/176/151 153/175/150
f 86/86/83 88/88/85 155/177/152 154/176/151
f 88/88/85 90/90/87 156/178/153 155/177/152
f 90/90/87 92/92/89 157/179/154 156/178/153
f 92/92/89 94/94/91 158/180/155 157/179/154
f 94/94/91 96/96/93 159/181/156 158/180/155
f 96/96/93 98/98/95 160/182/157 159/181/156
f 98/98/95 100/100/97 161/183/158 160/182/157
f 100/100/97 102/102/99 162/184/159 161/183/158
f 102/102/99 163/185/160 164/186/161 162/184/159
f 101/101/98 103/103/100 163/185/160 102/102/99
f 103/103/100 104/104/101 165/187/162 163/185/160
f 104/104/101 105/105/102 166/188/163 165/187/162
f 105/105/102 106/106/103 167/189/164 166/188/163
f 106/106/103 107/107/104 168/190/165 167/189/164
f 107/107/104 108/108/105 169/191/166 168/190/165
f 108/108/105 109/109/106 170/192/167 169/191/166
f 109/109/106 110/110/107 113/113/110 170/192/167
f 170/192/167 113/113/110 171/193/168 172/194/169
f 113/113/110 112/112/109 173/195/170 171/193/168
f 112/112/109 115/115/112 117/117/114 173/195/170
f 173/196/170 117/197/114 174/198/171 175/199/172
f 117/197/114 116/200/113 176/201/173 174/198/171
f 116/200/113 118/202/115 177/203/174 176/201/173
f 118/202/115 119/204/116 178/205/175 177/203/174
f 119/204/116 120/206/117 179/207/176 178/205/175
f 120/206/117 122/208/119 180/209/177 179/207/176
f 122/208/119 181/210/178 182/211/179 180/209/177
f 121/121/118 123/123/120 181/212/178 122/122/119
f 123/123/120 124/124/121 183/213/180 181/212/178
f 124/124/121 125/125/122 127/127/124 183/213/180
f 183/214/180 127/215/124 184/216/181 185/217/182
f 127/215/124 126/218/123 186/219/183 184/216/181
f 126/220/123 128/221/125 187/222/184 186/223/183
f 128/221/125 129/224/126 188/225/185 187/222/184
f 129/224/126 130/131/127 132/134/129 188/225/185
f 189/226/186 188/225/185 132/134/129 190/227/187
f 191/228/188 187/222/184 188/225/185 189/226/186
f 192/229/189 186/223/183 187/222/184 191/228/188
f 193/230/190 184/216/181 186/219/183 192/231/189
f 194/232/191 185/217/182 184/216/181 193/230/190
f 195/233/192 182/211/179 185/217/182 194/232/191
f 196/234/193 180/209/177 182/211/179 195/233/192
f 197/235/194 179/207/176 180/209/177 196/234/193
f 198/236/195 178/205/175 179/207/176 197/235/194
f 199/237/196 177/203/174 178/205/175 198/236/195
f 200/238/197 176/201/173 177/203/174 199/237/196
f 201/239/198 174/198/171 176/201/173 200/238/197
f 202/240/199 175/199/172 174/198/171 201/239/198
f 203/241/200 204/242/201 175/199/172 202/240/199
f 205/243/202 206/244/203 204/242/201 203/241/200
f 207/245/204 208/246/205 206/244/203 205/243/202
f 209/247/206 210/248/207 208/249/205 207/250/204
f 211/251/208 212/252/209 210/248/207 209/247/206
f 213/253/210 214/254/211 212/252/209 211/251/208
f 215/255/212 216/256/213 214/254/211 213/253/210
f 217/257/214 218/258/215 216/256/213 215/255/212
f 219/259/216 220/260/217 218/258/215 217/257/214
f 221/261/218 222/262/219 220/260/217 219/259/216
f 223/263/220 224/264/221 222/262/219 221/261/218
f 225/265/222 226/266/223 224/264/221 223/263/220
f 227/267/224 228/268/225 226/266/223 225/265/222
f 229/269/226 230/270/227 228/268/225 227/267/224
f 231/271/228 232/272/229 230/270/227 229/269/226
f 233/273/230 234/274/231 232/272/229 231/271/228
f 235/275/232 236/276/233 234/277/231 233/278/230
f 237/279/234 238/280/235 236/276/233 235/275/232
f 239/281/236 240/282/237 238/280/235 237/279/234
f 241/283/238 151/172/148 240/282/237 239/281/236
f 242/284/239 149/170/146 151/172/148 241/283/238
f 243/285/240 148/168/145 149/170/146 242/284/239
f 244/286/241 147/166/144 148/168/145 243/285/240
f 245/287/242 146/164/143 147/166/144 244/286/241
f 246/288/243 145/162/142 146/164/143 245/287/242
f 247/289/244 144/160/141 145/162/142 246/288/243
f 248/290/245 143/158/140 144/160/141 247/289/244
f 249/291/246 142/155/139 143/158/140 248/290/245
f 250/292/247 141/156/138 142/155/139 249/291/246
f 251/293/248 140/150/137 141/152/138 250/294/247
f 252/295/249 139/148/136 140/150/137 251/293/248
f 253/296/250 138/146/135 139/148/136 252/295/249
f 254/297/251 137/144/134 138/146/135 253/296/250
f 255/298/252 136/142/133 137/144/134 254/297/251
f 256/299/253 135/140/132 136/142/133 255/298/252
f 257/300/254 134/138/131 135/140/132 256/299/253
f 258/301/255 133/136/130 134/138/131 257/300/254
f 259/302/256 131/133/128 133/136/130 258/301/255
f 190/227/187 132/134/129 131/133/128 259/302/256
f 150/171/147 152/303/149 240/282/237 151/172/148
f 152/303/149 153/304/150 238/280/235 240/282/237
f 153/304/150 154/305/151 236/276/233 238/280/235
f 154/305/151 155/306/152 234/277/231 236/276/233
f 155/307/152 156/308/153 232/272/229 234/274/231
f 156/308/153 157/309/154 230/270/227 232/272/229
f 157/309/154 158/310/155 228/268/225 230/270/227
f 158/310/155 159/311/156 226/266/223 228/268/225
f 159/311/156 160/312/157 224/264/221 226/266/223
f 160/312/157 161/313/158 222/262/219 224/264/221
f 161/313/158 162/314/159 220/260/217 222/262/219
f 162/314/159 164/315/161 218/258/215 220/260/217
f 164/315/161 260/316/257 216/256/213 218/258/215
f 163/185/160 165/187/162 260/317/257 164/186/161
f 165/187/162 166/188/163 261/318/258 260/317/257
f 166/188/163 167/189/164 262/319/259 261/318/258
f 167/189/164 168/190/165 263/320/260 262/319/259
f 168/190/165 169/191/166 264/321/261 263/320/260
f 169/191/166 170/192/167 172/194/169 264/321/261
f 264/322/261 172/323/169 206/244/203 208/246/205
f 172/323/169 171/324/168 204/242/201 206/244/203
f 171/324/168 173/196/170 175/199/172 204/242/201
f 263/325/260 264/326/261 208/249/205 210/248/207
f 262/327/259 263/325/260 210/248/207 212/252/209
f 261/328/258 262/327/259 212/252/209 214/254/211
f 260/316/257 261/328/258 214/254/211 216/256/213
f 181/210/178 183/214/180 185/217/182 182/211/179
s 2
f 10/10/2 2/2/2 7/7/2
