# Blender v2.78 (sub 0) OBJ File: 'video_store_adults_door.blend'
# www.blender.org
mtllib video_store_adults_door.mtl
o Mesh3_Group4_Group1_Model
v 0.450000 1.950000 0.020000
v 0.488000 1.988000 0.020000
v -0.488000 1.988000 0.020000
v -0.450000 1.950000 0.020000
v 0.450000 -0.000000 0.020000
v 0.488000 -0.000000 0.020000
v -0.488000 -0.000000 0.020000
v -0.450000 -0.000000 0.020000
v 0.490000 -0.000000 0.018000
v 0.490000 1.990000 0.018000
v 0.490000 1.990000 0.000000
v 0.490000 0.000000 0.000000
v -0.490000 1.990000 0.000000
v -0.490000 1.990000 0.018000
v -0.490000 0.000000 0.000000
v -0.490000 -0.000000 0.018000
v -0.450000 0.000000 0.000000
v -0.450000 1.950000 0.000000
v 0.450000 1.950000 0.000000
v 0.450000 0.000000 0.000000
v -0.450000 0.019500 0.000000
v -0.450000 0.000000 0.000000
v 0.450000 0.000000 0.000000
v 0.450000 0.019500 0.000000
v -0.450000 0.019500 0.020000
v 0.450000 0.019500 0.020000
v -0.362140 0.986750 0.099994
v -0.358454 0.992713 0.099994
v -0.366114 0.992978 0.099119
v -0.354479 0.986485 0.099119
v -0.358694 0.979858 0.097490
v -0.365577 0.981188 0.097465
v -0.369845 0.986750 0.097490
v -0.372826 0.992713 0.095324
v -0.368567 0.999605 0.095324
v -0.361900 0.999605 0.097490
v -0.355017 0.998275 0.097465
v -0.350749 0.992713 0.097490
v -0.347767 0.986750 0.095324
v -0.352027 0.979858 0.095324
v -0.356798 0.974345 0.091983
v -0.349897 0.975599 0.088770
v -0.346473 0.981188 0.091258
v -0.344322 0.979858 0.084719
v -0.348974 0.974345 0.081214
v -0.344322 0.979858 0.077709
v -0.349897 0.975599 0.073658
v -0.346473 0.981188 0.071170
v -0.352027 0.979858 0.067104
v -0.356798 0.974345 0.070445
v -0.358694 0.979858 0.064937
v -0.364269 0.975599 0.068988
v -0.365577 0.981188 0.064963
v -0.371161 0.979858 0.068988
v -0.369457 0.974345 0.074558
v -0.375281 0.979858 0.074660
v -0.373152 0.975599 0.081214
v -0.377384 0.981188 0.081214
v -0.375281 0.979858 0.087768
v -0.369457 0.974345 0.087870
v -0.371161 0.979858 0.093440
v -0.364269 0.975599 0.093440
v -0.362426 0.971914 0.087768
v -0.354722 0.971914 0.085265
v -0.354722 0.971914 0.077163
v -0.362426 0.971914 0.074660
v -0.367188 0.971914 0.081214
v -0.360297 0.970627 0.081214
v -0.375528 0.986485 0.092280
v -0.378727 0.986750 0.085265
v -0.378727 0.986750 0.077163
v -0.379123 0.992978 0.081214
v -0.377588 0.992713 0.088770
v -0.374121 0.998275 0.091258
v -0.376272 0.999605 0.084719
v -0.370697 1.003860 0.088770
v -0.371620 1.005120 0.081214
v -0.376272 0.999605 0.077709
v -0.370697 1.003860 0.073658
v -0.374121 0.998275 0.071170
v -0.368567 0.999605 0.067104
v -0.363796 1.005120 0.070445
v -0.361900 0.999605 0.064937
v -0.356324 1.003860 0.068988
v -0.355017 0.998275 0.064963
v -0.349433 0.999605 0.068988
v -0.351136 1.005120 0.074558
v -0.345312 0.999605 0.074660
v -0.347442 1.003860 0.081214
v -0.343209 0.998275 0.081214
v -0.345312 0.999605 0.087768
v -0.351136 1.005120 0.087870
v -0.349433 0.999605 0.093440
v -0.356324 1.003860 0.093440
v -0.363796 1.005120 0.091983
v -0.365872 1.007550 0.085265
v -0.365872 1.007550 0.077163
v -0.358167 1.007550 0.074660
v -0.353405 1.007550 0.081214
v -0.358167 1.007550 0.087768
v -0.360297 1.008840 0.081214
v -0.345066 0.992978 0.092280
v -0.341867 0.992713 0.085265
v -0.341867 0.992713 0.077163
v -0.341470 0.986485 0.081214
v -0.343006 0.986750 0.088770
v -0.343006 0.986750 0.073658
v -0.347767 0.986750 0.067104
v -0.354479 0.986485 0.063309
v -0.362140 0.986750 0.062434
v -0.369845 0.986750 0.064937
v -0.375528 0.986485 0.070148
v -0.377588 0.992713 0.073658
v -0.372826 0.992713 0.067104
v -0.366115 0.992978 0.063309
v -0.358454 0.992713 0.062434
v -0.350749 0.992713 0.064937
v -0.345066 0.992978 0.070148
v 0.450000 0.019500 0.020000
v 0.450000 0.019500 0.038000
v -0.450000 0.019500 0.038000
v -0.450000 0.019500 0.020000
v 0.450000 1.950000 0.020000
v 0.450000 1.950000 0.038000
v -0.450000 1.950000 0.020000
v -0.450000 1.950000 0.038000
v -0.448000 0.021480 0.040000
v -0.448000 1.948020 0.040000
v 0.448000 0.021480 0.040000
v 0.448000 1.948020 0.040000
v -0.355854 0.997427 0.074188
v -0.355854 0.997427 0.053675
v -0.357997 0.998314 0.053675
v -0.357997 0.998314 0.074188
v -0.354014 0.996015 0.074188
v -0.354014 0.996015 0.053675
v -0.352602 0.994174 0.074188
v -0.352602 0.994174 0.053675
v -0.351714 0.992031 0.074188
v -0.351714 0.992031 0.053675
v -0.351411 0.989732 0.074188
v -0.351411 0.989732 0.053675
v -0.351714 0.987432 0.074188
v -0.351714 0.987432 0.053675
v -0.352602 0.985289 0.074188
v -0.352602 0.985289 0.053675
v -0.354014 0.983449 0.074188
v -0.354014 0.983449 0.053675
v -0.355854 0.982037 0.074188
v -0.355854 0.982037 0.053675
v -0.357997 0.981149 0.074188
v -0.357997 0.981149 0.053675
v -0.360297 0.980846 0.074188
v -0.360297 0.980846 0.053675
v -0.362597 0.981149 0.074188
v -0.362597 0.981149 0.053675
v -0.364740 0.982037 0.074188
v -0.364740 0.982037 0.053675
v -0.366580 0.983449 0.074188
v -0.366580 0.983449 0.053675
v -0.367992 0.985289 0.074188
v -0.367992 0.985289 0.053675
v -0.368880 0.987432 0.074188
v -0.368880 0.987432 0.053675
v -0.369182 0.989732 0.074188
v -0.369182 0.989732 0.053675
v -0.368880 0.992031 0.074188
v -0.368880 0.992031 0.053675
v -0.367992 0.994174 0.074188
v -0.367992 0.994174 0.053675
v -0.366580 0.996015 0.074188
v -0.366580 0.996015 0.053675
v -0.364740 0.997427 0.074188
v -0.364740 0.997427 0.053675
v -0.362597 0.998314 0.074188
v -0.362597 0.998314 0.053675
v -0.360297 0.998617 0.074188
v -0.360297 0.998617 0.053675
v -0.357402 1.000530 0.051396
v -0.360297 1.000920 0.051396
v -0.354705 0.999418 0.051396
v -0.352388 0.997640 0.051396
v -0.350611 0.995324 0.051396
v -0.349494 0.992626 0.051396
v -0.349112 0.989732 0.051396
v -0.349494 0.986837 0.051396
v -0.350611 0.984139 0.051396
v -0.352388 0.981823 0.051396
v -0.354705 0.980046 0.051396
v -0.357402 0.978928 0.051396
v -0.360297 0.978547 0.051396
v -0.363192 0.978928 0.051396
v -0.365889 0.980046 0.051396
v -0.368205 0.981823 0.051396
v -0.369983 0.984139 0.051396
v -0.371100 0.986837 0.051396
v -0.371481 0.989732 0.051396
v -0.371100 0.992626 0.051396
v -0.369983 0.995324 0.051396
v -0.368205 0.997640 0.051396
v -0.365889 0.999418 0.051396
v -0.363192 1.000530 0.051396
v -0.353518 1.015030 0.051396
v -0.360297 1.015920 0.051396
v -0.367076 1.015030 0.051396
v -0.347201 1.012410 0.051396
v -0.341777 1.008250 0.051396
v -0.337615 1.002830 0.051396
v -0.334998 0.996510 0.051396
v -0.334106 0.989732 0.051396
v -0.334998 0.982953 0.051396
v -0.337615 0.976636 0.051396
v -0.341777 0.971212 0.051396
v -0.347201 0.967049 0.051396
v -0.353518 0.964433 0.051396
v -0.360297 0.963540 0.051396
v -0.367076 0.964433 0.051396
v -0.373392 0.967049 0.051396
v -0.378817 0.971212 0.051396
v -0.382979 0.976636 0.051396
v -0.385596 0.982953 0.051396
v -0.386488 0.989732 0.051396
v -0.385596 0.996510 0.051396
v -0.382979 1.002830 0.051396
v -0.378817 1.008250 0.051396
v -0.373392 1.012410 0.051396
v -0.360297 1.018220 0.049117
v -0.367671 1.017250 0.049117
v -0.352923 1.017250 0.049117
v -0.346052 1.014400 0.049117
v -0.340151 0.969586 0.049117
v -0.335624 0.975487 0.049117
v -0.346052 0.965059 0.049117
v -0.352923 0.962212 0.049117
v -0.360297 0.961242 0.049117
v -0.367671 0.962212 0.049117
v -0.374542 0.965059 0.049117
v -0.380442 0.969586 0.049117
v -0.384970 0.975487 0.049117
v -0.387816 0.982358 0.049117
v -0.388787 0.989732 0.049117
v -0.387816 0.997105 0.049117
v -0.384970 1.003980 0.049117
v -0.380442 1.009880 0.049117
v -0.374542 1.014400 0.049117
v -0.340151 1.009880 0.049117
v -0.335624 1.003980 0.049117
v -0.332778 0.997105 0.049117
v -0.331807 0.989732 0.049117
v -0.332778 0.982358 0.049117
v -0.374542 1.014400 0.040000
v -0.367671 1.017250 0.040000
v -0.380442 1.009880 0.040000
v -0.384970 1.003980 0.040000
v -0.387816 0.997105 0.040000
v -0.388787 0.989732 0.040000
v -0.387816 0.982358 0.040000
v -0.384970 0.975487 0.040000
v -0.380442 0.969586 0.040000
v -0.374542 0.965059 0.040000
v -0.367671 0.962212 0.040000
v -0.360297 0.961242 0.040000
v -0.352923 0.962212 0.040000
v -0.346052 0.965059 0.040000
v -0.340151 0.969586 0.040000
v -0.335624 0.975487 0.040000
v -0.332778 0.982358 0.040000
v -0.331807 0.989732 0.040000
v -0.332778 0.997105 0.040000
v -0.335624 1.003980 0.040000
v -0.340151 1.009880 0.040000
v -0.346052 1.014400 0.040000
v -0.352923 1.017250 0.040000
v -0.360297 1.018220 0.040000
vt 0.3210 0.6606
vt 0.3338 0.6734
vt 0.0057 0.6734
vt 0.0184 0.6606
vt 0.3210 0.0050
vt 0.3338 0.0050
vt 0.0057 0.0050
vt 0.0184 0.0050
vt 0.3345 0.0050
vt 0.3345 0.6741
vt 0.6741 0.6790
vt 0.6741 0.6850
vt 0.0050 0.6850
vt 0.0050 0.6790
vt 0.0698 0.0050
vt 0.0759 0.0050
vt 0.0759 0.3345
vt 0.0698 0.3345
vt 0.6741 0.6967
vt 0.6741 0.6906
vt 0.0050 0.6906
vt 0.0050 0.6967
vt 0.0050 0.6741
vt 0.0050 0.0050
vt 0.9950 0.3293
vt 0.3394 0.3293
vt 0.3394 0.3225
vt 0.9950 0.3225
vt 0.0815 0.0050
vt 0.0815 0.3076
vt 0.0882 0.3076
vt 0.0882 0.0050
vt 0.9950 0.3342
vt 0.3394 0.3342
vt 0.3394 0.3409
vt 0.9950 0.3409
vt 0.0231 0.3076
vt 0.0297 0.3076
vt 0.0297 0.0050
vt 0.0231 0.0050
vt 0.0348 0.3076
vt 0.0415 0.3076
vt 0.0415 0.0050
vt 0.0348 0.0050
vt 0.0976 0.0688
vt 0.0989 0.0708
vt 0.0963 0.0709
vt 0.1002 0.0687
vt 0.0988 0.0665
vt 0.0965 0.0669
vt 0.0950 0.0688
vt 0.0940 0.0708
vt 0.0955 0.0731
vt 0.0977 0.0731
vt 0.1000 0.0727
vt 0.1015 0.0708
vt 0.1025 0.0688
vt 0.1010 0.0665
vt 0.0994 0.0646
vt 0.0953 0.0820
vt 0.0931 0.0828
vt 0.0943 0.0844
vt 0.0945 0.0809
vt 0.0967 0.0802
vt 0.0979 0.0817
vt 0.0991 0.0802
vt 0.1004 0.0820
vt 0.1013 0.0809
vt 0.1026 0.0828
vt 0.1015 0.0844
vt 0.0971 0.0153
vt 0.0977 0.0135
vt 0.0955 0.0135
vt 0.0996 0.0149
vt 0.1000 0.0130
vt 0.1019 0.0135
vt 0.1001 0.0886
vt 0.1020 0.0892
vt 0.1020 0.0869
vt 0.1001 0.0906
vt 0.0979 0.0899
vt 0.1012 0.0253
vt 0.0993 0.0253
vt 0.0998 0.0275
vt 0.0998 0.0231
vt 0.0956 0.0886
vt 0.0957 0.0906
vt 0.0938 0.0892
vt 0.0938 0.0869
vt 0.0969 0.0650
vt 0.0946 0.0665
vt 0.0957 0.0863
vt 0.0965 0.0837
vt 0.0992 0.0837
vt 0.1001 0.0863
vt 0.0979 0.0879
vt 0.0979 0.0855
vt 0.0931 0.0687
vt 0.0975 0.0216
vt 0.0998 0.0212
vt 0.0975 0.0239
vt 0.0975 0.0267
vt 0.0954 0.0253
vt 0.0955 0.0228
vt 0.0955 0.0206
vt 0.0936 0.0219
vt 0.0931 0.0241
vt 0.1004 0.0367
vt 0.0991 0.0348
vt 0.1013 0.0355
vt 0.0979 0.0364
vt 0.0967 0.0348
vt 0.0953 0.0367
vt 0.0945 0.0355
vt 0.0931 0.0374
vt 0.0943 0.0390
vt 0.0994 0.0050
vt 0.0988 0.0069
vt 0.1010 0.0069
vt 0.0969 0.0054
vt 0.0965 0.0073
vt 0.0946 0.0069
vt 0.0956 0.0433
vt 0.0938 0.0438
vt 0.0938 0.0415
vt 0.0957 0.0452
vt 0.0979 0.0445
vt 0.1012 0.0551
vt 0.0993 0.0551
vt 0.0998 0.0529
vt 0.0998 0.0573
vt 0.1001 0.0433
vt 0.1001 0.0452
vt 0.1020 0.0438
vt 0.1020 0.0415
vt 0.0996 0.0745
vt 0.1019 0.0731
vt 0.0971 0.0750
vt 0.1026 0.0374
vt 0.1015 0.0390
vt 0.0936 0.0727
vt 0.0992 0.0383
vt 0.0965 0.0383
vt 0.0957 0.0409
vt 0.0979 0.0425
vt 0.1001 0.0409
vt 0.0979 0.0402
vt 0.1034 0.0709
vt 0.0975 0.0588
vt 0.0998 0.0592
vt 0.0975 0.0565
vt 0.0975 0.0537
vt 0.0954 0.0551
vt 0.0955 0.0576
vt 0.0955 0.0599
vt 0.0936 0.0585
vt 0.0931 0.0563
vt 0.0931 0.0539
vt 0.0955 0.0526
vt 0.0936 0.0517
vt 0.0955 0.0504
vt 0.0940 0.0112
vt 0.0936 0.0130
vt 0.0963 0.0113
vt 0.0989 0.0112
vt 0.1015 0.0112
vt 0.1034 0.0113
vt 0.0975 0.0290
vt 0.0998 0.0294
vt 0.0955 0.0278
vt 0.0955 0.0300
vt 0.1025 0.0092
vt 0.1002 0.0091
vt 0.1029 0.0073
vt 0.0936 0.0287
vt 0.0931 0.0265
vt 0.0976 0.0092
vt 0.0950 0.0092
vt 0.0931 0.0091
vt 0.0975 0.0514
vt 0.0998 0.0510
vt 0.1029 0.0669
vt 0.0532 0.0050
vt 0.0471 0.0050
vt 0.0471 0.3076
vt 0.0532 0.3076
vt 0.9884 0.3109
vt 0.9884 0.3169
vt 0.3394 0.3169
vt 0.3394 0.3109
vt 0.0581 0.0050
vt 0.0642 0.0050
vt 0.0642 0.3076
vt 0.0581 0.3076
vt 0.9884 0.3526
vt 0.9884 0.3465
vt 0.3394 0.3465
vt 0.3394 0.3526
vt 0.9878 0.3459
vt 0.3401 0.3459
vt 0.3394 0.3062
vt 0.9871 0.3062
vt 0.9871 0.0050
vt 0.3394 0.0050
vt 0.0465 0.0057
vt 0.0465 0.3069
vt 0.9878 0.3176
vt 0.3401 0.3176
vt 0.0649 0.0057
vt 0.0649 0.3069
vt 0.1208 0.0216
vt 0.1139 0.0216
vt 0.1139 0.0208
vt 0.1208 0.0208
vt 0.1208 0.0222
vt 0.1139 0.0222
vt 0.1188 0.0793
vt 0.1188 0.0724
vt 0.1194 0.0724
vt 0.1194 0.0793
vt 0.1181 0.0793
vt 0.1181 0.0724
vt 0.1173 0.0793
vt 0.1173 0.0724
vt 0.1165 0.0793
vt 0.1165 0.0724
vt 0.1158 0.0793
vt 0.1158 0.0724
vt 0.1152 0.0793
vt 0.1152 0.0724
vt 0.1087 0.0639
vt 0.1156 0.0639
vt 0.1156 0.0633
vt 0.1087 0.0633
vt 0.1087 0.0647
vt 0.1156 0.0647
vt 0.1087 0.0654
vt 0.1156 0.0654
vt 0.1087 0.0662
vt 0.1156 0.0662
vt 0.1087 0.0669
vt 0.1156 0.0669
vt 0.1087 0.0676
vt 0.1156 0.0676
vt 0.1110 0.0361
vt 0.1110 0.0430
vt 0.1116 0.0430
vt 0.1116 0.0361
vt 0.1103 0.0361
vt 0.1103 0.0430
vt 0.1095 0.0361
vt 0.1095 0.0430
vt 0.1087 0.0361
vt 0.1087 0.0430
vt 0.1080 0.0361
vt 0.1080 0.0430
vt 0.1074 0.0361
vt 0.1074 0.0430
vt 0.1208 0.0186
vt 0.1139 0.0186
vt 0.1139 0.0180
vt 0.1208 0.0180
vt 0.1208 0.0193
vt 0.1139 0.0193
vt 0.1208 0.0201
vt 0.1139 0.0201
vt 0.1037 0.1089
vt 0.1027 0.1091
vt 0.1027 0.1083
vt 0.1035 0.1082
vt 0.1046 0.1086
vt 0.1042 0.1079
vt 0.1054 0.1080
vt 0.1048 0.1074
vt 0.1060 0.1072
vt 0.1053 0.1068
vt 0.1063 0.1063
vt 0.1056 0.1061
vt 0.1065 0.1053
vt 0.1057 0.1053
vt 0.1063 0.1043
vt 0.1056 0.1045
vt 0.1060 0.1034
vt 0.1053 0.1038
vt 0.1054 0.1026
vt 0.1048 0.1032
vt 0.1046 0.1020
vt 0.1042 0.1027
vt 0.1037 0.1017
vt 0.1035 0.1024
vt 0.1027 0.1015
vt 0.1027 0.1023
vt 0.1017 0.1017
vt 0.1019 0.1024
vt 0.1008 0.1020
vt 0.1012 0.1027
vt 0.1001 0.1026
vt 0.1006 0.1032
vt 0.0995 0.1034
vt 0.1001 0.1038
vt 0.0991 0.1043
vt 0.0998 0.1045
vt 0.0990 0.1053
vt 0.0997 0.1053
vt 0.0991 0.1063
vt 0.0998 0.1061
vt 0.0995 0.1072
vt 0.1001 0.1068
vt 0.1001 0.1080
vt 0.1006 0.1074
vt 0.1008 0.1086
vt 0.1012 0.1079
vt 0.1017 0.1089
vt 0.1019 0.1082
vt 0.1050 0.1138
vt 0.1027 0.1141
vt 0.1004 0.1138
vt 0.1071 0.1129
vt 0.1089 0.1115
vt 0.1103 0.1097
vt 0.1112 0.1076
vt 0.1115 0.1053
vt 0.1112 0.1030
vt 0.1103 0.1009
vt 0.1089 0.0991
vt 0.1071 0.0977
vt 0.1050 0.0968
vt 0.1027 0.0965
vt 0.1004 0.0968
vt 0.0983 0.0977
vt 0.0965 0.0991
vt 0.0951 0.1009
vt 0.0942 0.1030
vt 0.0939 0.1053
vt 0.0942 0.1076
vt 0.0951 0.1097
vt 0.0965 0.1115
vt 0.0983 0.1129
vt 0.1088 0.0078
vt 0.1087 0.0088
vt 0.1088 0.0097
vt 0.1092 0.0106
vt 0.1098 0.0114
vt 0.1106 0.0120
vt 0.1115 0.0124
vt 0.1125 0.0125
vt 0.1134 0.0124
vt 0.1143 0.0120
vt 0.1151 0.0114
vt 0.1157 0.0106
vt 0.1161 0.0097
vt 0.1162 0.0088
vt 0.1161 0.0078
vt 0.1157 0.0069
vt 0.1151 0.0061
vt 0.1143 0.0055
vt 0.1134 0.0051
vt 0.1125 0.0050
vt 0.1115 0.0051
vt 0.1106 0.0055
vt 0.1098 0.0061
vt 0.1092 0.0069
vt 0.1027 0.1149
vt 0.1002 0.1146
vt 0.1052 0.1146
vt 0.1075 0.1136
vt 0.1095 0.0985
vt 0.1110 0.1005
vt 0.1075 0.0970
vt 0.1052 0.0961
vt 0.1027 0.0957
vt 0.1002 0.0961
vt 0.0979 0.0970
vt 0.0959 0.0985
vt 0.0944 0.1005
vt 0.0935 0.1028
vt 0.0931 0.1053
vt 0.0935 0.1078
vt 0.0944 0.1101
vt 0.0959 0.1121
vt 0.0979 0.1136
vt 0.1095 0.1121
vt 0.1110 0.1101
vt 0.1120 0.1078
vt 0.1123 0.1053
vt 0.1120 0.1028
vt 0.1061 0.0199
vt 0.1092 0.0199
vt 0.1092 0.0223
vt 0.1061 0.0223
vt 0.1061 0.0180
vt 0.1092 0.0180
vt 0.1081 0.0508
vt 0.1081 0.0478
vt 0.1061 0.0478
vt 0.1061 0.0508
vt 0.1104 0.0508
vt 0.1104 0.0478
vt 0.1129 0.0508
vt 0.1129 0.0478
vt 0.1154 0.0508
vt 0.1154 0.0478
vt 0.1177 0.0508
vt 0.1177 0.0478
vt 0.1196 0.0508
vt 0.1196 0.0478
vt 0.1105 0.0866
vt 0.1074 0.0866
vt 0.1074 0.0885
vt 0.1105 0.0885
vt 0.1105 0.0842
vt 0.1074 0.0842
vt 0.1105 0.0818
vt 0.1074 0.0818
vt 0.1105 0.0793
vt 0.1074 0.0793
vt 0.1105 0.0770
vt 0.1074 0.0770
vt 0.1105 0.0750
vt 0.1074 0.0750
vt 0.1081 0.0555
vt 0.1081 0.0586
vt 0.1061 0.0586
vt 0.1061 0.0555
vt 0.1104 0.0555
vt 0.1104 0.0586
vt 0.1129 0.0555
vt 0.1129 0.0586
vt 0.1153 0.0555
vt 0.1153 0.0586
vt 0.1177 0.0555
vt 0.1177 0.0586
vt 0.1196 0.0555
vt 0.1196 0.0586
vt 0.1061 0.0295
vt 0.1092 0.0295
vt 0.1092 0.0315
vt 0.1061 0.0315
vt 0.1061 0.0272
vt 0.1092 0.0272
vt 0.1061 0.0247
vt 0.1092 0.0247
vn 0.0000 -0.0000 1.0000
vn 0.7071 -0.0000 0.7071
vn 1.0000 0.0000 0.0000
vn 0.0000 1.0000 0.0000
vn -1.0000 0.0000 0.0000
vn -0.7071 -0.0000 0.7071
vn 0.0000 -1.0000 0.0000
vn 0.0000 0.7071 0.7071
vn -0.1004 -0.1657 0.9811
vn 0.1003 0.1657 0.9811
vn -0.3039 0.1818 0.9352
vn 0.3039 -0.1818 0.9352
vn 0.0763 -0.5161 0.8532
vn -0.2764 -0.4472 0.8507
vn -0.4955 -0.1656 0.8527
vn -0.6578 0.1657 0.7347
vn -0.4399 0.5161 0.7350
vn -0.0761 0.5161 0.8532
vn 0.2763 0.4473 0.8506
vn 0.4955 0.1656 0.8527
vn 0.6578 -0.1656 0.7347
vn 0.4398 -0.5161 0.7350
vn 0.1861 -0.7983 0.5728
vn 0.5489 -0.7346 0.3988
vn 0.7236 -0.4472 0.5257
vn 0.8349 -0.5161 0.1912
vn 0.6023 -0.7983 0.0000
vn 0.8349 -0.5161 -0.1912
vn 0.5489 -0.7346 -0.3988
vn 0.7236 -0.4472 -0.5257
vn 0.4398 -0.5161 -0.7350
vn 0.1861 -0.7983 -0.5728
vn 0.0763 -0.5160 -0.8532
vn -0.2097 -0.7346 -0.6453
vn -0.2764 -0.4472 -0.8507
vn -0.5632 -0.5161 -0.6454
vn -0.4873 -0.7983 -0.3540
vn -0.7878 -0.5161 -0.3361
vn -0.6785 -0.7346 -0.0000
vn -0.8944 -0.4472 -0.0000
vn -0.7878 -0.5161 0.3361
vn -0.4873 -0.7983 0.3540
vn -0.5632 -0.5161 0.6454
vn -0.2096 -0.7346 0.6453
vn -0.1077 -0.9373 0.3314
vn 0.2819 -0.9373 0.2048
vn 0.2819 -0.9373 -0.2048
vn -0.1077 -0.9373 -0.3314
vn -0.3485 -0.9373 -0.0000
vn -0.7956 -0.1817 0.5780
vn -0.9641 -0.1657 0.2077
vn -0.9641 -0.1657 -0.2077
vn -0.9833 0.1817 -0.0000
vn -0.9020 0.1657 0.3986
vn -0.7236 0.4473 0.5257
vn -0.8349 0.5161 0.1912
vn -0.5490 0.7345 0.3989
vn -0.6024 0.7982 -0.0000
vn -0.8349 0.5161 -0.1912
vn -0.5490 0.7345 -0.3989
vn -0.7236 0.4473 -0.5257
vn -0.4399 0.5161 -0.7350
vn -0.1861 0.7982 -0.5729
vn -0.0761 0.5161 -0.8532
vn 0.2097 0.7345 -0.6454
vn 0.2764 0.4473 -0.8506
vn 0.5631 0.5161 -0.6455
vn 0.4873 0.7982 -0.3541
vn 0.7879 0.5161 -0.3361
vn 0.6786 0.7345 -0.0000
vn 0.8944 0.4473 0.0000
vn 0.7879 0.5161 0.3361
vn 0.4873 0.7982 0.3541
vn 0.5630 0.5160 0.6455
vn 0.2097 0.7345 0.6454
vn -0.1861 0.7982 0.5729
vn -0.2822 0.9372 0.2050
vn -0.2822 0.9372 -0.2050
vn 0.1078 0.9372 -0.3317
vn 0.3488 0.9372 -0.0000
vn 0.1078 0.9372 0.3317
vn 0.7956 0.1817 0.5780
vn 0.9641 0.1656 0.2078
vn 0.9641 0.1656 -0.2078
vn 0.9833 -0.1817 -0.0000
vn 0.9020 -0.1657 0.3986
vn 0.9021 -0.1656 -0.3986
vn 0.6578 -0.1657 -0.7347
vn 0.3039 -0.1818 -0.9352
vn -0.1003 -0.1657 -0.9811
vn -0.4955 -0.1657 -0.8527
vn -0.7956 -0.1817 -0.5780
vn -0.9020 0.1657 -0.3986
vn -0.6578 0.1657 -0.7347
vn -0.3039 0.1818 -0.9352
vn 0.1003 0.1656 -0.9811
vn 0.4955 0.1657 -0.8527
vn 0.7956 0.1817 -0.5780
vn 0.0000 -0.7107 0.7035
vn 0.0000 0.7107 0.7035
vn 0.4999 0.8661 0.0000
vn 0.2587 0.9659 0.0000
vn 0.7072 0.7070 0.0000
vn 0.8660 0.5000 0.0000
vn 0.9659 0.2590 0.0000
vn 0.9659 -0.2589 0.0000
vn 0.8660 -0.5001 0.0000
vn 0.7071 -0.7071 0.0000
vn 0.5001 -0.8660 0.0000
vn 0.2589 -0.9659 0.0000
vn -0.2589 -0.9659 0.0000
vn -0.5001 -0.8660 0.0000
vn -0.7071 -0.7071 0.0000
vn -0.8660 -0.5001 0.0000
vn -0.9660 -0.2587 0.0000
vn -0.9659 0.2587 0.0000
vn -0.8660 0.5000 0.0000
vn -0.7072 0.7070 0.0000
vn -0.4999 0.8661 0.0000
vn -0.2587 0.9659 0.0000
vn 0.1825 0.6802 0.7099
vn 0.0000 0.7040 0.7102
vn 0.3518 0.6100 0.7100
vn 0.4979 0.4978 0.7102
vn 0.4978 0.4978 0.7102
vn 0.6097 0.3520 0.7102
vn 0.6801 0.1823 0.7101
vn 0.6800 0.1823 0.7101
vn 0.7040 0.0000 0.7102
vn 0.6801 -0.1823 0.7101
vn 0.6097 -0.3520 0.7102
vn 0.4978 -0.4978 0.7102
vn 0.3520 -0.6097 0.7102
vn 0.1823 -0.6800 0.7102
vn 0.0000 -0.7040 0.7102
vn -0.1823 -0.6800 0.7102
vn -0.3521 -0.6097 0.7102
vn -0.4978 -0.4979 0.7102
vn -0.6097 -0.3520 0.7102
vn -0.6801 -0.1822 0.7101
vn -0.6801 -0.1821 0.7101
vn -0.7041 0.0000 0.7101
vn -0.6801 0.1822 0.7102
vn -0.6097 0.3520 0.7101
vn -0.4979 0.4978 0.7101
vn -0.3518 0.6100 0.7100
vn -0.1825 0.6802 0.7099
vn -0.1823 0.6800 0.7102
vn 0.1823 0.6800 0.7101
vn 0.3520 0.6097 0.7102
vn 0.3520 -0.6097 0.7101
vn 0.1822 -0.6801 0.7101
vn 0.0000 -0.7041 0.7101
vn -0.1822 -0.6801 0.7102
vn -0.3520 -0.6097 0.7102
vn -0.4978 -0.4978 0.7102
vn -0.6097 -0.3520 0.7101
vn -0.6801 0.1822 0.7101
vn -0.6096 0.3520 0.7103
vn -0.4975 0.4978 0.7104
vn -0.4974 0.4979 0.7104
vn -0.3519 0.6097 0.7102
vn -0.3520 0.6097 0.7102
vn 0.4975 0.4978 0.7104
vn 0.4974 0.4978 0.7104
vn 0.6096 0.3519 0.7103
vn 0.6801 0.1822 0.7101
vn 0.7041 0.0000 0.7101
vn 0.6801 -0.1822 0.7101
vn -0.2590 0.9659 0.0000
vn -0.7068 0.7074 0.0000
vn -0.8661 0.4999 0.0000
vn -0.9659 -0.2588 0.0000
vn -0.8660 -0.5000 0.0000
vn -0.5000 -0.8660 0.0000
vn -0.2588 -0.9659 0.0000
vn 0.2588 -0.9659 0.0000
vn 0.5000 -0.8660 0.0000
vn 0.8661 -0.5000 0.0000
vn 0.9659 -0.2588 0.0000
vn 0.9659 0.2587 0.0000
vn 0.8661 0.4999 0.0000
vn 0.7068 0.7074 0.0000
vn 0.4998 0.8661 0.0000
vn 0.2590 0.9659 0.0000
usemtl FrontColor
s 1
f 1/1/1 2/2/1 3/3/1 4/4/1
f 5/5/1 6/6/1 2/2/1 1/1/1
f 4/4/1 3/3/1 7/7/1 8/8/1
s 2
f 2/2/2 6/6/2 9/9/2 10/10/2
s 3
f 11/11/3 10/12/3 9/13/3 12/14/3
s 4
f 13/15/4 14/16/4 10/17/4 11/18/4
s 5
f 15/19/5 16/20/5 14/21/5 13/22/5
s 6
f 7/7/6 3/3/6 14/23/6 16/24/6
s 7
f 4/25/3 8/26/3 17/27/3 18/28/3
s 8
f 1/29/7 4/30/7 18/31/7 19/32/7
s 9
f 5/33/5 1/34/5 19/35/5 20/36/5
s 10
f 3/3/8 2/2/8 10/10/8 14/23/8
s 11
f 21/37/1 22/38/1 23/39/1 24/40/1
s 12
f 25/41/7 21/42/7 24/43/7 26/44/7
s 13
f 27/45/9 28/46/10 29/47/11
f 28/46/10 27/45/9 30/48/12
f 27/45/9 31/49/13 30/48/12
f 27/45/9 32/50/14 31/49/13
f 32/50/14 27/45/9 33/51/15
f 27/45/9 29/47/11 33/51/15
f 33/51/15 29/47/11 34/52/16
f 29/47/11 35/53/17 34/52/16
f 29/47/11 36/54/18 35/53/17
f 28/46/10 36/54/18 29/47/11
f 28/46/10 37/55/19 36/54/18
f 37/55/19 28/46/10 38/56/20
f 28/46/10 30/48/12 38/56/20
f 38/56/20 30/48/12 39/57/21
f 30/48/12 40/58/22 39/57/21
f 30/48/12 31/49/13 40/58/22
f 41/59/23 40/58/22 31/49/13
f 42/60/24 40/61/22 41/62/23
f 42/60/24 43/63/25 40/61/22
f 42/60/24 44/64/26 43/63/25
f 45/65/27 44/64/26 42/60/24
f 45/65/27 46/66/28 44/64/26
f 47/67/29 46/66/28 45/65/27
f 47/67/29 48/68/30 46/66/28
f 47/67/29 49/69/31 48/68/30
f 50/70/32 49/69/31 47/67/29
f 50/71/32 51/72/33 49/73/31
f 52/74/34 51/72/33 50/71/32
f 52/74/34 53/75/35 51/72/33
f 52/74/34 54/76/36 53/75/35
f 55/77/37 54/78/36 52/79/34
f 55/77/37 56/80/38 54/78/36
f 57/81/39 56/80/38 55/77/37
f 57/82/39 58/83/40 56/84/38
f 57/82/39 59/85/41 58/83/40
f 60/86/42 59/87/41 57/81/39
f 60/86/42 61/88/43 59/87/41
f 62/89/44 61/88/43 60/86/42
f 62/90/44 32/50/14 61/91/43
f 62/90/44 31/49/13 32/50/14
f 41/59/23 31/49/13 62/90/44
f 63/92/45 41/62/23 62/89/44
f 64/93/46 41/62/23 63/92/45
f 64/93/46 42/60/24 41/62/23
f 64/93/46 45/65/27 42/60/24
f 65/94/47 45/65/27 64/93/46
f 65/94/47 47/67/29 45/65/27
f 65/94/47 50/70/32 47/67/29
f 66/95/48 50/70/32 65/94/47
f 66/95/48 52/79/34 50/70/32
f 66/95/48 55/77/37 52/79/34
f 67/96/49 55/77/37 66/95/48
f 67/96/49 57/81/39 55/77/37
f 67/96/49 60/86/42 57/81/39
f 63/92/45 60/86/42 67/96/49
f 63/92/45 62/89/44 60/86/42
f 68/97/7 63/92/45 67/96/49
f 68/97/7 64/93/46 63/92/45
f 68/97/7 65/94/47 64/93/46
f 68/97/7 66/95/48 65/94/47
f 68/97/7 67/96/49 66/95/48
f 33/51/15 61/91/43 32/50/14
f 69/98/50 61/91/43 33/51/15
f 69/99/50 59/85/41 61/100/43
f 70/101/51 59/85/41 69/99/50
f 70/101/51 58/83/40 59/85/41
f 58/83/40 70/101/51 71/102/52
f 70/101/51 72/103/53 71/102/52
f 70/101/51 73/104/54 72/103/53
f 73/104/54 70/101/51 69/99/50
f 73/104/54 69/99/50 34/105/16
f 34/52/16 69/98/50 33/51/15
f 74/106/55 73/104/54 34/105/16
f 73/104/54 74/106/55 75/107/56
f 76/108/57 75/109/56 74/110/55
f 77/111/58 75/109/56 76/108/57
f 77/111/58 78/112/59 75/109/56
f 79/113/60 78/112/59 77/111/58
f 79/113/60 80/114/61 78/112/59
f 79/113/60 81/115/62 80/114/61
f 82/116/63 81/115/62 79/113/60
f 82/117/63 83/118/64 81/119/62
f 84/120/65 83/118/64 82/117/63
f 84/120/65 85/121/66 83/118/64
f 84/120/65 86/122/67 85/121/66
f 87/123/68 86/124/67 84/125/65
f 87/123/68 88/126/69 86/124/67
f 89/127/70 88/126/69 87/123/68
f 89/128/70 90/129/71 88/130/69
f 89/128/70 91/131/72 90/129/71
f 92/132/73 91/133/72 89/127/70
f 92/132/73 93/134/74 91/133/72
f 94/135/75 93/134/74 92/132/73
f 94/136/75 37/55/19 93/137/74
f 94/136/75 36/54/18 37/55/19
f 95/138/76 36/54/18 94/136/75
f 95/138/76 35/53/17 36/54/18
f 76/108/57 35/139/17 95/140/76
f 76/108/57 74/110/55 35/139/17
f 34/52/16 35/53/17 74/141/55
f 96/142/77 76/108/57 95/140/76
f 96/142/77 77/111/58 76/108/57
f 97/143/78 77/111/58 96/142/77
f 97/143/78 79/113/60 77/111/58
f 97/143/78 82/116/63 79/113/60
f 98/144/79 82/116/63 97/143/78
f 98/144/79 84/125/65 82/116/63
f 98/144/79 87/123/68 84/125/65
f 99/145/80 87/123/68 98/144/79
f 99/145/80 89/127/70 87/123/68
f 99/145/80 92/132/73 89/127/70
f 100/146/81 92/132/73 99/145/80
f 100/146/81 94/135/75 92/132/73
f 100/146/81 95/140/76 94/135/75
f 96/142/77 95/140/76 100/146/81
f 101/147/4 96/142/77 100/146/81
f 101/147/4 97/143/78 96/142/77
f 101/147/4 98/144/79 97/143/78
f 101/147/4 99/145/80 98/144/79
f 101/147/4 100/146/81 99/145/80
f 38/56/20 93/137/74 37/55/19
f 102/148/82 93/137/74 38/56/20
f 102/149/82 91/131/72 93/150/74
f 103/151/83 91/131/72 102/149/82
f 103/151/83 90/129/71 91/131/72
f 90/129/71 103/151/83 104/152/84
f 103/151/83 105/153/85 104/152/84
f 103/151/83 106/154/86 105/153/85
f 106/154/86 103/151/83 102/149/82
f 106/154/86 102/149/82 39/155/21
f 39/57/21 102/148/82 38/56/20
f 43/156/25 106/154/86 39/155/21
f 106/154/86 43/156/25 44/157/26
f 106/154/86 44/157/26 105/153/85
f 105/153/85 44/157/26 46/158/28
f 105/153/85 46/158/28 107/159/87
f 107/159/87 46/158/28 48/160/30
f 48/160/30 108/161/88 107/159/87
f 108/162/88 48/163/30 49/73/31
f 108/162/88 49/73/31 109/164/89
f 109/164/89 49/73/31 51/72/33
f 109/164/89 51/72/33 110/165/90
f 110/165/90 51/72/33 53/75/35
f 53/75/35 111/166/91 110/165/90
f 111/166/91 53/75/35 54/76/36
f 111/166/91 54/76/36 112/167/92
f 112/168/92 54/169/36 56/84/38
f 112/168/92 56/84/38 71/102/52
f 71/102/52 56/84/38 58/83/40
f 113/170/93 112/168/92 71/102/52
f 114/171/94 112/168/92 113/170/93
f 114/172/94 111/166/91 112/167/92
f 111/166/91 114/172/94 115/173/95
f 114/172/94 81/119/62 115/173/95
f 114/172/94 80/174/61 81/119/62
f 80/175/61 114/171/94 113/170/93
f 113/170/93 78/176/59 80/175/61
f 72/103/53 78/176/59 113/170/93
f 72/103/53 75/107/56 78/176/59
f 73/104/54 75/107/56 72/103/53
f 71/102/52 72/103/53 113/170/93
f 115/173/95 81/119/62 83/118/64
f 115/173/95 83/118/64 116/177/96
f 116/177/96 83/118/64 85/121/66
f 85/121/66 117/178/97 116/177/96
f 117/178/97 85/121/66 86/122/67
f 117/178/97 86/122/67 118/179/98
f 118/180/98 86/181/67 88/130/69
f 118/180/98 88/130/69 104/152/84
f 104/152/84 88/130/69 90/129/71
f 107/159/87 118/180/98 104/152/84
f 108/161/88 118/180/98 107/159/87
f 108/162/88 117/178/97 118/179/98
f 117/178/97 108/162/88 109/164/89
f 117/178/97 109/164/89 116/177/96
f 116/177/96 109/164/89 110/165/90
f 110/165/90 115/173/95 116/177/96
f 111/166/91 115/173/95 110/165/90
f 104/152/84 105/153/85 107/159/87
f 39/57/21 40/58/22 43/182/25
s 14
f 119/183/7 120/184/7 121/185/7 122/186/7
s 15
f 123/187/3 124/188/3 120/189/3 119/190/3
s 16
f 125/191/4 126/192/4 124/193/4 123/194/4
s 17
f 122/195/5 121/196/5 126/197/5 125/198/5
s 18
f 127/199/6 128/200/6 126/197/6 121/196/6
s 19
f 128/201/1 127/202/1 129/203/1 130/204/1
s 20
f 129/205/99 127/206/99 121/185/99 120/184/99
s 21
f 130/207/2 129/208/2 120/189/2 124/188/2
s 22
f 128/209/100 130/210/100 124/193/100 126/192/100
s 23
f 131/211/101 132/212/101 133/213/102 134/214/102
f 135/215/103 136/216/103 132/212/101 131/211/101
f 137/217/104 138/218/104 136/219/103 135/220/103
f 139/221/105 140/222/105 138/218/104 137/217/104
f 141/223/3 142/224/3 140/222/105 139/221/105
f 143/225/106 144/226/106 142/224/3 141/223/3
f 145/227/107 146/228/107 144/226/106 143/225/106
f 147/229/108 148/230/108 146/228/107 145/227/107
f 149/231/109 150/232/109 148/233/108 147/234/108
f 151/235/110 152/236/110 150/232/109 149/231/109
f 153/237/7 154/238/7 152/236/110 151/235/110
f 155/239/111 156/240/111 154/238/7 153/237/7
f 157/241/112 158/242/112 156/240/111 155/239/111
f 159/243/113 160/244/113 158/242/112 157/241/112
f 161/245/114 162/246/114 160/247/113 159/248/113
f 163/249/115 164/250/115 162/246/114 161/245/114
f 165/251/5 166/252/5 164/250/115 163/249/115
f 167/253/116 168/254/116 166/252/5 165/251/5
f 169/255/117 170/256/117 168/254/116 167/253/116
f 171/257/118 172/258/118 170/256/117 169/255/117
f 173/259/119 174/260/119 172/261/118 171/262/118
f 175/263/120 176/264/120 174/260/119 173/259/119
f 177/265/4 178/266/4 176/264/120 175/263/120
f 134/214/102 133/213/102 178/266/4 177/265/4
s 24
f 179/267/121 180/268/122 178/269/122 133/270/121
f 181/271/123 179/267/121 133/270/121 132/272/123
f 182/273/124 181/271/123 132/272/123 136/274/125
f 183/275/126 182/273/124 136/274/125 138/276/126
f 184/277/127 183/275/126 138/276/126 140/278/128
f 185/279/129 184/277/127 140/278/128 142/280/129
f 186/281/130 185/279/129 142/280/129 144/282/130
f 187/283/131 186/281/130 144/282/130 146/284/131
f 188/285/132 187/283/131 146/284/131 148/286/132
f 189/287/133 188/285/132 148/286/132 150/288/133
f 190/289/134 189/287/133 150/288/133 152/290/134
f 191/291/135 190/289/134 152/290/134 154/292/135
f 192/293/136 191/291/135 154/292/135 156/294/136
f 193/295/137 192/293/136 156/294/136 158/296/137
f 194/297/138 193/295/137 158/296/137 160/298/138
f 195/299/139 194/297/138 160/298/138 162/300/139
f 196/301/140 195/299/139 162/300/139 164/302/141
f 197/303/142 196/301/140 164/302/141 166/304/142
f 198/305/143 197/303/142 166/304/142 168/306/143
f 199/307/144 198/305/143 168/306/143 170/308/144
f 200/309/145 199/307/144 170/308/144 172/310/145
f 201/311/146 200/309/145 172/310/145 174/312/146
f 202/313/147 201/311/146 174/312/146 176/314/147
f 180/268/122 202/313/147 176/314/147 178/269/122
s 25
f 180/268/1 179/267/1 203/315/1 204/316/1
f 204/316/1 205/317/1 202/313/1 180/268/1
f 179/267/1 181/271/1 206/318/1 203/315/1
f 181/271/1 182/273/1 207/319/1 206/318/1
f 182/273/1 183/275/1 208/320/1 207/319/1
f 183/275/1 184/277/1 209/321/1 208/320/1
f 184/277/1 185/279/1 210/322/1 209/321/1
f 185/279/1 186/281/1 211/323/1 210/322/1
f 186/281/1 187/283/1 212/324/1 211/323/1
f 213/325/1 212/324/1 187/283/1 188/285/1
f 214/326/1 213/325/1 188/285/1 189/287/1
f 215/327/1 214/326/1 189/287/1 190/289/1
f 216/328/1 215/327/1 190/289/1 191/291/1
f 217/329/1 216/328/1 191/291/1 192/293/1
f 218/330/1 217/329/1 192/293/1 193/295/1
f 219/331/1 218/330/1 193/295/1 194/297/1
f 220/332/1 219/331/1 194/297/1 195/299/1
f 221/333/1 220/332/1 195/299/1 196/301/1
f 222/334/1 221/333/1 196/301/1 197/303/1
f 223/335/1 222/334/1 197/303/1 198/305/1
f 224/336/1 223/335/1 198/305/1 199/307/1
f 225/337/1 224/336/1 199/307/1 200/309/1
f 226/338/1 225/337/1 200/309/1 201/311/1
f 205/317/1 226/338/1 201/311/1 202/313/1
s 26
f 179/339/1 180/340/1 202/341/1 201/342/1 200/343/1 199/344/1 198/345/1 197/346/1 196/347/1 195/348/1 194/349/1 193/350/1 192/351/1 191/352/1 190/353/1 189/354/1 188/355/1 187/356/1 186/357/1 185/358/1 184/359/1 183/360/1 182/361/1 181/362/1
s 27
f 205/317/148 204/316/122 227/363/122 228/364/148
f 204/316/122 203/315/149 229/365/149 227/363/122
f 203/315/149 206/318/150 230/366/150 229/365/149
f 212/324/131 213/325/132 231/367/132 232/368/131
f 213/325/132 214/326/151 233/369/151 231/367/132
f 214/326/151 215/327/152 234/370/152 233/369/151
f 215/327/152 216/328/153 235/371/153 234/370/152
f 216/328/153 217/329/154 236/372/154 235/371/153
f 217/329/154 218/330/155 237/373/137 236/372/154
f 218/330/155 219/331/156 238/374/156 237/373/137
f 219/331/156 220/332/157 239/375/157 238/374/156
f 220/332/157 221/333/140 240/376/140 239/375/157
f 221/333/140 222/334/142 241/377/142 240/376/140
f 222/334/142 223/335/158 242/378/158 241/377/142
f 223/335/158 224/336/159 243/379/159 242/378/158
f 224/336/159 225/337/160 244/380/161 243/379/159
f 225/337/160 226/338/162 245/381/163 244/380/161
f 226/338/162 205/317/148 228/364/148 245/381/163
f 206/318/150 207/319/164 246/382/165 230/366/150
f 207/319/164 208/320/166 247/383/166 246/382/165
f 208/320/166 209/321/167 248/384/167 247/383/166
f 209/321/167 210/322/168 249/385/168 248/384/167
f 210/322/168 211/323/169 250/386/169 249/385/168
f 211/323/169 212/324/131 232/368/131 250/386/169
s 28
f 251/387/119 245/388/119 228/389/170 252/390/170
f 253/391/171 244/392/171 245/388/119 251/387/119
f 254/393/172 243/394/172 244/395/171 253/396/171
f 255/397/116 242/398/116 243/394/172 254/393/172
f 256/399/5 241/400/5 242/398/116 255/397/116
f 257/401/173 240/402/173 241/400/5 256/399/5
f 258/403/174 239/404/174 240/402/173 257/401/173
f 259/405/113 238/406/113 239/404/174 258/403/174
f 260/407/175 237/408/175 238/409/113 259/410/113
f 261/411/176 236/412/176 237/408/175 260/407/175
f 262/413/7 235/414/7 236/412/176 261/411/176
f 263/415/177 234/416/177 235/414/7 262/413/7
f 264/417/178 233/418/178 234/416/177 263/415/177
f 265/419/108 231/420/108 233/418/178 264/417/178
f 266/421/179 232/422/179 231/423/108 265/424/108
f 267/425/180 250/426/180 232/422/179 266/421/179
f 268/427/3 249/428/3 250/426/180 267/425/180
f 269/429/181 248/430/181 249/428/3 268/427/3
f 270/431/182 247/432/182 248/430/181 269/429/181
f 271/433/183 246/434/183 247/432/182 270/431/182
f 272/435/184 230/436/184 246/437/183 271/438/183
f 273/439/185 229/440/185 230/436/184 272/435/184
f 274/441/4 227/442/4 229/440/185 273/439/185
f 252/390/170 228/389/170 227/442/4 274/441/4
