# Blender v2.78 (sub 0) OBJ File: 'video_store_shelf_archive.blend'
# www.blender.org
mtllib video_store_shelf_archive.mtl
o Mesh9_Group13_Group1_Model
v 0.480947 0.019053 0.010000
v -0.480947 0.019053 0.010000
v -0.480947 1.940950 0.010000
v 0.480947 1.940950 0.010000
v -0.479687 0.020313 0.020000
v -0.479687 0.020313 0.140000
v 0.479687 0.020313 0.140000
v 0.479687 0.020313 0.020000
v -0.479687 0.679687 0.020000
v -0.479687 0.679687 0.140000
v 0.479687 0.679687 0.020000
v 0.479687 0.679687 0.140000
v -0.479687 1.939690 0.020000
v 0.479687 1.939690 0.020000
v -0.479687 1.939690 0.148000
v -0.479687 0.679687 0.148000
v -0.479687 0.020313 0.148000
v -0.481687 1.941690 0.150000
v -0.481687 0.679687 0.150000
v -0.481687 0.018313 0.150000
v -0.498000 1.958000 0.150000
v -0.498000 0.679687 0.150000
v -0.498000 0.002000 0.150000
v 0.481687 0.018313 0.150000
v 0.498000 0.002000 0.150000
v 0.481687 1.941690 0.150000
v 0.481687 0.679687 0.150000
v 0.498000 0.679687 0.150000
v 0.498000 1.958000 0.150000
v -0.500000 1.958000 0.148000
v -0.500000 0.679687 0.148000
v -0.498000 1.958000 0.000000
v -0.498000 0.679687 0.000000
v -0.500000 0.679687 0.002000
v -0.500000 1.958000 0.002000
v -0.500000 0.002000 0.002000
v -0.498000 0.002000 0.000000
v -0.500000 0.002000 0.148000
v -0.498000 -0.000000 0.148000
v 0.498000 -0.000000 0.148000
v 0.500000 0.002000 0.148000
v 0.498000 -0.000000 0.002000
v 0.500000 0.002000 0.002000
v 0.498000 0.002000 0.000000
v -0.498000 -0.000000 0.002000
v 0.500000 1.958000 0.002000
v 0.500000 0.679687 0.002000
v 0.498000 0.679687 0.000000
v 0.498000 1.958000 0.000000
v 0.500000 0.679687 0.148000
v 0.500000 1.958000 0.148000
v 0.498000 1.960000 0.148000
v -0.498000 1.960000 0.148000
v -0.498000 1.960000 0.002000
v 0.498000 1.960000 0.002000
v -0.482947 1.942950 0.000000
v -0.482947 0.679687 0.000000
v -0.482947 0.017053 0.000000
v 0.482947 0.017053 0.000000
v 0.482947 0.679687 0.000000
v 0.482947 1.942950 0.000000
v -0.480947 1.940950 0.002000
v -0.480947 0.679687 0.002000
v -0.480947 0.019053 0.002000
v -0.480947 1.940950 0.010000
v -0.480947 0.679687 0.010000
v -0.480947 0.019053 0.010000
v 0.479687 0.020313 0.148000
v 0.480947 0.019053 0.002000
v 0.480947 0.019053 0.010000
v 0.480947 0.679687 0.010000
v 0.480947 0.679687 0.002000
v 0.480947 1.940950 0.002000
v 0.480947 1.940950 0.010000
v 0.479687 1.939690 0.148000
v 0.479687 0.679687 0.148000
v -0.469687 1.308160 0.025000
v -0.469687 1.308160 0.035000
v -0.477131 1.299690 0.035000
v -0.477131 1.299690 0.025000
v -0.469687 1.309690 0.035000
v -0.469687 1.309690 0.025000
v -0.479687 1.309690 0.035000
v -0.479687 1.299690 0.035000
v -0.479687 1.299690 0.025000
v -0.479687 1.309690 0.025000
v -0.469687 1.098160 0.106230
v -0.469687 1.098160 0.116230
v -0.477131 1.089690 0.116230
v -0.477131 1.089690 0.106230
v -0.469687 1.099690 0.116230
v -0.469687 1.099690 0.106230
v -0.479687 1.099690 0.116230
v -0.479687 1.089690 0.116230
v -0.479687 1.089690 0.106230
v -0.479687 1.099690 0.106230
v -0.469687 1.308160 0.105000
v -0.469687 1.308160 0.115000
v -0.477131 1.299690 0.115000
v -0.477131 1.299690 0.105000
v -0.469687 1.309690 0.115000
v -0.469687 1.309690 0.105000
v -0.479687 1.309690 0.115000
v -0.479687 1.299690 0.115000
v -0.479687 1.299690 0.105000
v -0.479687 1.309690 0.105000
v 0.469687 1.728160 0.115000
v 0.469687 1.728160 0.105000
v 0.477131 1.719690 0.105000
v 0.477131 1.719690 0.115000
v 0.469687 1.729690 0.105000
v 0.469687 1.729690 0.115000
v 0.479687 1.729690 0.105000
v 0.479687 1.719690 0.105000
v 0.479687 1.719690 0.115000
v 0.479687 1.729690 0.115000
v -0.469687 1.728160 0.105000
v -0.469687 1.728160 0.115000
v -0.477131 1.719690 0.115000
v -0.477131 1.719690 0.105000
v -0.469687 1.729690 0.115000
v -0.469687 1.729690 0.105000
v -0.479687 1.729690 0.115000
v -0.479687 1.719690 0.115000
v -0.479687 1.719690 0.105000
v -0.479687 1.729690 0.105000
v -0.469687 1.098160 0.026231
v -0.469687 1.098160 0.036231
v -0.477131 1.089690 0.036231
v -0.477131 1.089690 0.026231
v -0.469687 1.099690 0.036231
v -0.469687 1.099690 0.026231
v -0.479687 1.099690 0.036231
v -0.479687 1.089690 0.036231
v -0.479687 1.089690 0.026231
v -0.479687 1.099690 0.026231
v 0.477687 1.739690 0.128000
v 0.477687 1.739690 0.022000
v -0.477687 1.739690 0.022000
v -0.477687 1.739690 0.128000
v 0.479687 1.737690 0.128000
v 0.479687 1.737690 0.022000
v 0.477687 1.737690 0.130000
v -0.477687 1.737690 0.130000
v -0.479687 1.737690 0.128000
v -0.479687 1.737690 0.022000
v -0.477687 1.737690 0.020000
v 0.477687 1.737690 0.020000
v 0.477687 1.731690 0.020000
v 0.479687 1.731690 0.022000
v 0.477687 1.729690 0.022000
v -0.477687 1.729690 0.022000
v -0.477687 1.731690 0.020000
v 0.477687 1.729690 0.128000
v 0.479687 1.731690 0.128000
v 0.477687 1.731690 0.130000
v -0.477687 1.729690 0.128000
v -0.477687 1.731690 0.130000
v -0.479687 1.731690 0.128000
v -0.479687 1.731690 0.022000
v -0.469687 0.888164 0.026231
v -0.469687 0.888164 0.036231
v -0.477131 0.879687 0.036231
v -0.477131 0.879687 0.026231
v -0.469687 0.889687 0.036231
v -0.469687 0.889687 0.026231
v -0.479687 0.889687 0.036231
v -0.479687 0.879687 0.036231
v -0.479687 0.879687 0.026231
v -0.479687 0.889687 0.026231
v 0.477687 1.529690 0.128000
v 0.477687 1.529690 0.022000
v -0.477687 1.529690 0.022000
v -0.477687 1.529690 0.128000
v 0.479687 1.527690 0.128000
v 0.479687 1.527690 0.022000
v 0.477687 1.527690 0.130000
v -0.477687 1.527690 0.130000
v -0.479687 1.527690 0.128000
v -0.479687 1.527690 0.022000
v -0.477687 1.527690 0.020000
v 0.477687 1.527690 0.020000
v 0.477687 1.521690 0.020000
v 0.479687 1.521690 0.022000
v 0.477687 1.519690 0.022000
v -0.477687 1.519690 0.022000
v -0.477687 1.521690 0.020000
v -0.477687 1.519690 0.128000
v 0.477687 1.519690 0.128000
v 0.477687 1.521690 0.130000
v -0.477687 1.521690 0.130000
v 0.479687 1.521690 0.128000
v -0.479687 1.521690 0.128000
v -0.479687 1.521690 0.022000
v 0.477687 1.099690 0.128000
v -0.477687 1.099690 0.128000
v -0.477687 1.099690 0.022000
v 0.477687 1.099690 0.022000
v 0.477687 1.101690 0.130000
v -0.477687 1.101690 0.130000
v 0.479687 1.101690 0.128000
v 0.479687 1.101690 0.022000
v 0.477687 1.101690 0.020000
v -0.477687 1.101690 0.020000
v -0.479687 1.101690 0.022000
v -0.479687 1.101690 0.128000
v -0.477687 1.107690 0.130000
v -0.479687 1.107690 0.128000
v 0.477687 1.107690 0.130000
v 0.479687 1.107690 0.128000
v 0.477687 1.109690 0.128000
v -0.477687 1.109690 0.128000
v 0.477687 1.109690 0.022000
v 0.479687 1.107690 0.022000
v 0.477687 1.107690 0.020000
v -0.477687 1.109690 0.022000
v -0.477687 1.107690 0.020000
v -0.479687 1.107690 0.022000
v 0.469687 1.308160 0.035000
v 0.469687 1.308160 0.025000
v 0.477131 1.299690 0.025000
v 0.477131 1.299690 0.035000
v 0.469687 1.309690 0.025000
v 0.469687 1.309690 0.035000
v 0.479687 1.309690 0.025000
v 0.479687 1.299690 0.025000
v 0.479687 1.299690 0.035000
v 0.479687 1.309690 0.035000
v -0.469687 1.728160 0.025000
v -0.469687 1.728160 0.035000
v -0.477131 1.719690 0.035000
v -0.477131 1.719690 0.025000
v -0.469687 1.729690 0.035000
v -0.469687 1.729690 0.025000
v -0.479687 1.729690 0.035000
v -0.479687 1.719690 0.035000
v -0.479687 1.719690 0.025000
v -0.479687 1.729690 0.025000
v 0.469687 0.888164 0.116230
v 0.469687 0.888164 0.106230
v 0.477131 0.879687 0.106230
v 0.477131 0.879687 0.116230
v 0.469687 0.889687 0.106230
v 0.469687 0.889687 0.116230
v 0.479687 0.889687 0.106230
v 0.479687 0.879687 0.106230
v 0.479687 0.879687 0.116230
v 0.479687 0.889687 0.116230
v 0.469687 1.098160 0.116230
v 0.469687 1.098160 0.106230
v 0.477131 1.089690 0.106230
v 0.477131 1.089690 0.116230
v 0.469687 1.099690 0.106230
v 0.469687 1.099690 0.116230
v 0.479687 1.099690 0.106230
v 0.479687 1.089690 0.106230
v 0.479687 1.089690 0.116230
v 0.479687 1.099690 0.116230
v -0.469687 1.518160 0.105000
v -0.469687 1.518160 0.115000
v -0.477131 1.509690 0.115000
v -0.477131 1.509690 0.105000
v -0.469687 1.519690 0.115000
v -0.469687 1.519690 0.105000
v -0.479687 1.519690 0.115000
v -0.479687 1.509690 0.115000
v -0.479687 1.509690 0.105000
v -0.479687 1.519690 0.105000
v 0.469687 1.518160 0.035000
v 0.469687 1.518160 0.025000
v 0.477131 1.509690 0.025000
v 0.477131 1.509690 0.035000
v 0.469687 1.519690 0.025000
v 0.469687 1.519690 0.035000
v 0.479687 1.519690 0.025000
v 0.479687 1.509690 0.025000
v 0.479687 1.509690 0.035000
v 0.479687 1.519690 0.035000
v -0.469687 1.518160 0.025000
v -0.469687 1.518160 0.035000
v -0.477131 1.509690 0.035000
v -0.477131 1.509690 0.025000
v -0.469687 1.519690 0.035000
v -0.469687 1.519690 0.025000
v -0.479687 1.519690 0.035000
v -0.479687 1.509690 0.035000
v -0.479687 1.509690 0.025000
v -0.479687 1.519690 0.025000
v 0.469687 1.098160 0.036231
v 0.469687 1.098160 0.026231
v 0.477131 1.089690 0.026231
v 0.477131 1.089690 0.036231
v 0.469687 1.099690 0.026231
v 0.469687 1.099690 0.036231
v 0.479687 1.099690 0.026231
v 0.479687 1.089690 0.026231
v 0.479687 1.089690 0.036231
v 0.479687 1.099690 0.036231
v 0.469687 0.888164 0.036231
v 0.469687 0.888164 0.026231
v 0.477131 0.879687 0.026231
v 0.477131 0.879687 0.036231
v 0.469687 0.889687 0.026231
v 0.469687 0.889687 0.036231
v 0.479687 0.889687 0.026231
v 0.479687 0.879687 0.026231
v 0.479687 0.879687 0.036231
v 0.479687 0.889687 0.036231
v 0.477687 1.319690 0.022000
v -0.477687 1.319690 0.022000
v -0.477687 1.319690 0.128000
v 0.477687 1.319690 0.128000
v 0.477687 1.317690 0.020000
v -0.477687 1.317690 0.020000
v 0.479687 1.317690 0.022000
v 0.479687 1.317690 0.128000
v 0.477687 1.317690 0.130000
v -0.477687 1.317690 0.130000
v -0.479687 1.317690 0.128000
v -0.479687 1.317690 0.022000
v -0.477687 1.311690 0.020000
v -0.479687 1.311690 0.022000
v -0.477687 1.309690 0.022000
v 0.477687 1.309690 0.022000
v 0.477687 1.311690 0.020000
v -0.477687 1.309690 0.128000
v 0.477687 1.309690 0.128000
v 0.477687 1.311690 0.130000
v -0.477687 1.311690 0.130000
v 0.479687 1.311690 0.128000
v 0.479687 1.311690 0.022000
v -0.479687 1.311690 0.128000
v 0.469687 1.728160 0.035000
v 0.469687 1.728160 0.025000
v 0.477131 1.719690 0.025000
v 0.477131 1.719690 0.035000
v 0.469687 1.729690 0.025000
v 0.469687 1.729690 0.035000
v 0.479687 1.729690 0.025000
v 0.479687 1.719690 0.025000
v 0.479687 1.719690 0.035000
v 0.479687 1.729690 0.035000
v 0.469687 1.308160 0.115000
v 0.469687 1.308160 0.105000
v 0.477131 1.299690 0.105000
v 0.477131 1.299690 0.115000
v 0.469687 1.309690 0.105000
v 0.469687 1.309690 0.115000
v 0.479687 1.309690 0.105000
v 0.479687 1.299690 0.105000
v 0.479687 1.299690 0.115000
v 0.479687 1.309690 0.115000
v 0.477687 0.899687 0.128000
v 0.477687 0.899687 0.022000
v -0.477687 0.899687 0.022000
v -0.477687 0.899687 0.128000
v 0.479687 0.897687 0.128000
v 0.479687 0.897687 0.022000
v 0.477687 0.897687 0.130000
v -0.477687 0.897687 0.130000
v -0.479687 0.897687 0.128000
v -0.479687 0.897687 0.022000
v -0.477687 0.897687 0.020000
v 0.477687 0.897687 0.020000
v 0.477687 0.891687 0.020000
v 0.479687 0.891687 0.022000
v 0.477687 0.889687 0.022000
v -0.477687 0.889687 0.022000
v -0.477687 0.891687 0.020000
v 0.477687 0.889687 0.128000
v 0.479687 0.891687 0.128000
v 0.477687 0.891687 0.130000
v -0.477687 0.889687 0.128000
v -0.477687 0.891687 0.130000
v -0.479687 0.891687 0.128000
v -0.479687 0.891687 0.022000
v -0.469687 0.888164 0.106230
v -0.469687 0.888164 0.116230
v -0.477131 0.879687 0.116230
v -0.477131 0.879687 0.106230
v -0.469687 0.889687 0.116230
v -0.469687 0.889687 0.106230
v -0.479687 0.889687 0.116230
v -0.479687 0.879687 0.116230
v -0.479687 0.879687 0.106230
v -0.479687 0.889687 0.106230
v 0.469687 1.518160 0.115000
v 0.469687 1.518160 0.105000
v 0.477131 1.509690 0.105000
v 0.477131 1.509690 0.115000
v 0.469687 1.519690 0.105000
v 0.469687 1.519690 0.115000
v 0.479687 1.519690 0.105000
v 0.479687 1.509690 0.105000
v 0.479687 1.509690 0.115000
v 0.479687 1.519690 0.115000
v 0.477687 0.689687 0.022000
v -0.477687 0.689687 0.022000
v -0.477687 0.689687 0.128000
v 0.477687 0.689687 0.128000
v 0.477687 0.687687 0.020000
v -0.477687 0.687687 0.020000
v 0.479687 0.687687 0.022000
v 0.479687 0.687687 0.128000
v 0.477687 0.687687 0.130000
v -0.477687 0.687687 0.130000
v -0.479687 0.687687 0.128000
v -0.479687 0.687687 0.022000
v -0.479687 0.681687 0.022000
v -0.477687 0.681687 0.020000
v -0.477687 0.679687 0.022000
v -0.477687 0.679687 0.128000
v -0.479687 0.681687 0.128000
v -0.477687 0.681687 0.130000
v 0.477687 0.679687 0.128000
v 0.477687 0.681687 0.130000
v 0.479687 0.681687 0.128000
v 0.477687 0.679687 0.022000
v 0.479687 0.681687 0.022000
v 0.477687 0.681687 0.020000
vt 0.4795 0.7319
vt 0.4795 0.4945
vt 0.0050 0.4945
vt 0.0050 0.7319
vt 0.5116 0.1664
vt 0.5413 0.1664
vt 0.5413 0.4033
vt 0.5116 0.4033
vt 0.0170 0.2609
vt 0.1798 0.2609
vt 0.1798 0.2905
vt 0.0170 0.2905
vt 0.1798 0.0170
vt 0.0170 0.0170
vt 0.0170 0.2539
vt 0.1798 0.2539
vt 0.1798 0.3266
vt 0.1798 0.2970
vt 0.0170 0.2970
vt 0.0170 0.3266
vt 0.2695 0.0170
vt 0.2695 0.2539
vt 0.4323 0.2539
vt 0.4323 0.0170
vt 0.6834 0.4033
vt 0.6834 0.1664
vt 0.7130 0.1664
vt 0.7130 0.4033
vt 0.4859 0.7313
vt 0.7969 0.7313
vt 0.7969 0.4945
vt 0.4859 0.4945
vt 0.6744 0.0857
vt 0.9855 0.0857
vt 0.6744 0.1153
vt 0.9855 0.1173
vt 0.6744 0.1173
vt 0.5116 0.1153
vt 0.5116 0.1173
vt 0.0090 0.4838
vt 0.0090 0.1723
vt 0.0095 0.1723
vt 0.0095 0.4834
vt 0.0095 0.0095
vt 0.0090 0.0090
vt 0.0050 0.4879
vt 0.0050 0.1723
vt 0.0050 0.0050
vt 0.2469 0.0090
vt 0.2509 0.0050
vt 0.2469 0.4838
vt 0.2469 0.1723
vt 0.2509 0.1723
vt 0.2509 0.4879
vt 0.5121 0.1240
vt 0.8277 0.1240
vt 0.8277 0.1235
vt 0.5121 0.1235
vt 0.5038 0.0055
vt 0.5038 0.3211
vt 0.5043 0.3211
vt 0.5043 0.0055
vt 0.5043 0.4884
vt 0.5038 0.4884
vt 0.9950 0.1235
vt 0.9950 0.1240
vt 0.7560 0.4128
vt 0.7560 0.1669
vt 0.7555 0.1669
vt 0.7555 0.4128
vt 0.7560 0.1664
vt 0.7920 0.1669
vt 0.7920 0.1664
vt 0.7925 0.1669
vt 0.7920 0.4128
vt 0.7925 0.4128
vt 0.7920 0.4133
vt 0.7560 0.4133
vt 0.2575 0.0055
vt 0.2575 0.3211
vt 0.2580 0.3211
vt 0.2580 0.0055
vt 0.9945 0.0415
vt 0.6789 0.0415
vt 0.6789 0.0410
vt 0.9945 0.0410
vt 0.5116 0.0410
vt 0.5116 0.0415
vt 0.2580 0.4884
vt 0.2575 0.4884
vt 0.2509 0.4884
vt 0.0050 0.4884
vt 0.5038 0.0050
vt 0.2580 0.0050
vt 0.9950 0.0050
vt 0.9950 0.0410
vt 0.9945 0.0050
vt 0.5116 0.1240
vt 0.5116 0.1600
vt 0.5121 0.1600
vt 0.8277 0.1600
vt 0.9950 0.1600
vt 0.5001 0.0092
vt 0.5001 0.3211
vt 0.5001 0.4846
vt 0.2617 0.4846
vt 0.2617 0.3211
vt 0.2617 0.0092
vt 0.4996 0.0097
vt 0.4996 0.3211
vt 0.4996 0.4842
vt 0.4795 0.7403
vt 0.1681 0.7403
vt 0.1681 0.7383
vt 0.4795 0.7383
vt 0.0050 0.7383
vt 0.0050 0.7403
vt 0.2300 0.2386
vt 0.2320 0.2386
vt 0.2320 0.4754
vt 0.2300 0.4754
vt 0.2464 0.0095
vt 0.2622 0.4842
vt 0.4741 0.2545
vt 0.4721 0.2545
vt 0.4721 0.0170
vt 0.4741 0.0170
vt 0.9603 0.7383
vt 0.7972 0.7383
vt 0.7972 0.7403
vt 0.9603 0.7403
vt 0.4859 0.7403
vt 0.4859 0.7383
vt 0.2622 0.3211
vt 0.2622 0.0097
vt 0.6789 0.0050
vt 0.5116 0.0050
vt 0.2464 0.4834
vt 0.2464 0.1723
vt 0.5116 0.0795
vt 0.8227 0.0499
vt 0.8227 0.0479
vt 0.5116 0.0479
vt 0.8227 0.0795
vt 0.9855 0.0479
vt 0.9855 0.0499
vt 0.8318 0.1664
vt 0.8002 0.1664
vt 0.8002 0.4033
vt 0.8318 0.4033
vt 0.8036 0.6562
vt 0.8036 0.4103
vt 0.8396 0.4103
vt 0.8396 0.6562
vt 0.4807 0.2545
vt 0.4827 0.2545
vt 0.4827 0.0170
vt 0.4807 0.0170
vt 0.2355 0.1098
vt 0.2355 0.1122
vt 0.2334 0.1122
vt 0.2334 0.1098
vt 0.2359 0.1122
vt 0.2359 0.1098
vt 0.2239 0.2256
vt 0.2214 0.2256
vt 0.2220 0.2231
vt 0.2239 0.2252
vt 0.2214 0.2231
vt 0.2239 0.2323
vt 0.2239 0.2317
vt 0.2214 0.2317
vt 0.2214 0.2323
vt 0.2342 0.1723
vt 0.2342 0.1699
vt 0.2335 0.1723
vt 0.2317 0.1702
vt 0.2317 0.1699
vt 0.2355 0.1183
vt 0.2355 0.1208
vt 0.2334 0.1208
vt 0.2334 0.1183
vt 0.2359 0.1208
vt 0.2359 0.1183
vt 0.2342 0.2324
vt 0.2317 0.2324
vt 0.2323 0.2300
vt 0.2342 0.2321
vt 0.2317 0.2300
vt 0.2359 0.0177
vt 0.2359 0.0170
vt 0.2334 0.0170
vt 0.2334 0.0177
vt 0.2239 0.1741
vt 0.2239 0.1716
vt 0.2232 0.1741
vt 0.2214 0.1720
vt 0.2214 0.1716
vt 0.2235 0.0256
vt 0.2235 0.0281
vt 0.2214 0.0281
vt 0.2214 0.0256
vt 0.2239 0.0281
vt 0.2239 0.0256
vt 0.2239 0.0367
vt 0.2214 0.0367
vt 0.2220 0.0342
vt 0.2239 0.0363
vt 0.2214 0.0342
vt 0.2239 0.0434
vt 0.2239 0.0428
vt 0.2214 0.0428
vt 0.2214 0.0434
vt 0.2239 0.0538
vt 0.2239 0.0514
vt 0.2232 0.0538
vt 0.2214 0.0517
vt 0.2214 0.0514
vt 0.2338 0.1441
vt 0.2338 0.1466
vt 0.2359 0.1466
vt 0.2359 0.1441
vt 0.2334 0.1466
vt 0.2334 0.1441
vt 0.2359 0.1527
vt 0.2334 0.1527
vt 0.2340 0.1552
vt 0.2359 0.1531
vt 0.2334 0.1552
vt 0.2334 0.1613
vt 0.2334 0.1619
vt 0.2359 0.1619
vt 0.2359 0.1613
vt 0.2239 0.2403
vt 0.2239 0.2428
vt 0.2232 0.2403
vt 0.2214 0.2424
vt 0.2214 0.2428
vt 0.2338 0.1785
vt 0.2338 0.1809
vt 0.2317 0.1809
vt 0.2317 0.1785
vt 0.2342 0.1809
vt 0.2342 0.1785
vt 0.2342 0.1895
vt 0.2317 0.1895
vt 0.2323 0.1870
vt 0.2342 0.1891
vt 0.2317 0.1870
vt 0.2342 0.1963
vt 0.2342 0.1956
vt 0.2317 0.1956
vt 0.2317 0.1963
vt 0.2342 0.2067
vt 0.2342 0.2042
vt 0.2335 0.2067
vt 0.2317 0.2046
vt 0.2317 0.2042
vt 0.1977 0.2695
vt 0.1977 0.2720
vt 0.1956 0.2720
vt 0.1956 0.2695
vt 0.1981 0.2720
vt 0.1981 0.2695
vt 0.2720 0.2634
vt 0.2695 0.2634
vt 0.2701 0.2609
vt 0.2720 0.2630
vt 0.2695 0.2609
vt 0.2720 0.2701
vt 0.2720 0.2695
vt 0.2695 0.2695
vt 0.2695 0.2701
vt 0.2204 0.2771
vt 0.2204 0.2746
vt 0.2198 0.2771
vt 0.2180 0.2750
vt 0.2180 0.2746
vt 0.0660 0.9833
vt 0.0398 0.9833
vt 0.0398 0.7474
vt 0.0660 0.7474
vt 0.0660 0.9838
vt 0.0398 0.9838
vt 0.0665 0.9833
vt 0.0665 0.7474
vt 0.0660 0.7469
vt 0.0398 0.7469
vt 0.0393 0.7474
vt 0.0393 0.9833
vt 0.5121 0.4719
vt 0.5121 0.4704
vt 0.5116 0.4704
vt 0.5116 0.4719
vt 0.5121 0.4724
vt 0.7480 0.4724
vt 0.7480 0.4719
vt 0.0737 0.7474
vt 0.0999 0.7474
vt 0.0999 0.7469
vt 0.0737 0.7469
vt 0.7480 0.4795
vt 0.7480 0.4790
vt 0.7485 0.4795
vt 0.5121 0.4790
vt 0.5121 0.4795
vt 0.7480 0.4810
vt 0.7485 0.4810
vt 0.5121 0.4810
vt 0.5116 0.4810
vt 0.5116 0.4795
vt 0.0999 0.9833
vt 0.0737 0.9833
vt 0.0737 0.9838
vt 0.0999 0.9838
vt 0.7485 0.4719
vt 0.7480 0.4704
vt 0.7485 0.4704
vt 0.2887 0.2849
vt 0.2887 0.2874
vt 0.2867 0.2874
vt 0.2867 0.2849
vt 0.2891 0.2874
vt 0.2891 0.2849
vt 0.2239 0.2599
vt 0.2214 0.2599
vt 0.2220 0.2575
vt 0.2239 0.2596
vt 0.2214 0.2575
vt 0.1895 0.2615
vt 0.1895 0.2609
vt 0.1870 0.2609
vt 0.1870 0.2615
vt 0.1981 0.2634
vt 0.1981 0.2609
vt 0.1975 0.2634
vt 0.1956 0.2613
vt 0.1956 0.2609
vt 0.7461 0.4028
vt 0.7199 0.4028
vt 0.7199 0.1669
vt 0.7461 0.1669
vt 0.7461 0.4033
vt 0.7199 0.4033
vt 0.7466 0.4028
vt 0.7466 0.1669
vt 0.7461 0.1664
vt 0.7199 0.1664
vt 0.7194 0.1669
vt 0.7194 0.4028
vt 0.2393 0.2486
vt 0.2393 0.2472
vt 0.2386 0.2472
vt 0.2386 0.2486
vt 0.8646 0.1669
vt 0.8651 0.1669
vt 0.8646 0.1664
vt 0.8646 0.4028
vt 0.8651 0.4028
vt 0.8384 0.4028
vt 0.8384 0.1669
vt 0.8379 0.1669
vt 0.8379 0.4028
vt 0.8384 0.1664
vt 0.7480 0.4547
vt 0.7480 0.4532
vt 0.7485 0.4532
vt 0.7485 0.4547
vt 0.5121 0.4532
vt 0.5121 0.4547
vt 0.5116 0.4547
vt 0.5116 0.4532
vt 0.8384 0.4033
vt 0.8646 0.4033
vt 0.2386 0.2643
vt 0.2386 0.2658
vt 0.2393 0.2658
vt 0.2393 0.2643
vt 0.4395 0.0175
vt 0.4395 0.2534
vt 0.4657 0.2534
vt 0.4657 0.0175
vt 0.5121 0.4275
vt 0.7480 0.4275
vt 0.7480 0.4280
vt 0.5121 0.4280
vt 0.7485 0.4280
vt 0.4657 0.0170
vt 0.4395 0.0170
vt 0.5121 0.4380
vt 0.5121 0.4376
vt 0.5116 0.4376
vt 0.7480 0.4380
vt 0.7480 0.4376
vt 0.7485 0.4376
vt 0.4395 0.2539
vt 0.4657 0.2539
vt 0.5116 0.4280
vt 0.5121 0.4295
vt 0.5116 0.4295
vt 0.7480 0.4295
vt 0.7485 0.4295
vt 0.2137 0.2534
vt 0.2142 0.2534
vt 0.2137 0.2539
vt 0.2137 0.0175
vt 0.2142 0.0175
vt 0.1875 0.2534
vt 0.1875 0.2539
vt 0.1870 0.2534
vt 0.1875 0.0175
vt 0.1870 0.0175
vt 0.1875 0.0170
vt 0.7480 0.4361
vt 0.7485 0.4361
vt 0.2137 0.0170
vt 0.5121 0.4361
vt 0.5116 0.4361
vt 0.2784 0.2849
vt 0.2784 0.2874
vt 0.2805 0.2874
vt 0.2805 0.2849
vt 0.2781 0.2874
vt 0.2781 0.2849
vt 0.2891 0.2609
vt 0.2867 0.2609
vt 0.2873 0.2634
vt 0.2891 0.2613
vt 0.2867 0.2634
vt 0.2867 0.2695
vt 0.2867 0.2701
vt 0.2891 0.2701
vt 0.2891 0.2695
vt 0.2891 0.2764
vt 0.2891 0.2788
vt 0.2885 0.2764
vt 0.2867 0.2784
vt 0.2867 0.2788
vt 0.2235 0.1029
vt 0.2235 0.1054
vt 0.2214 0.1054
vt 0.2214 0.1029
vt 0.2239 0.1054
vt 0.2239 0.1029
vt 0.2239 0.1139
vt 0.2214 0.1139
vt 0.2220 0.1115
vt 0.2239 0.1136
vt 0.2214 0.1115
vt 0.2239 0.1207
vt 0.2239 0.1201
vt 0.2214 0.1201
vt 0.2214 0.1207
vt 0.2239 0.1311
vt 0.2239 0.1287
vt 0.2232 0.1311
vt 0.2214 0.1290
vt 0.2214 0.1287
vt 0.2218 0.1802
vt 0.2218 0.1826
vt 0.2239 0.1826
vt 0.2239 0.1802
vt 0.2214 0.1826
vt 0.2214 0.1802
vt 0.2239 0.1888
vt 0.2214 0.1888
vt 0.2220 0.1912
vt 0.2239 0.1891
vt 0.2214 0.1912
vt 0.2214 0.1973
vt 0.2214 0.1980
vt 0.2239 0.1980
vt 0.2239 0.1973
vt 0.2239 0.2059
vt 0.2239 0.2084
vt 0.2232 0.2059
vt 0.2214 0.2080
vt 0.2214 0.2084
vt 0.2115 0.2815
vt 0.2115 0.2840
vt 0.2136 0.2840
vt 0.2136 0.2815
vt 0.2111 0.2840
vt 0.2111 0.2815
vt 0.2067 0.2609
vt 0.2042 0.2609
vt 0.2049 0.2634
vt 0.2067 0.2613
vt 0.2042 0.2634
vt 0.2128 0.2609
vt 0.2128 0.2615
vt 0.2153 0.2615
vt 0.2153 0.2609
vt 0.2221 0.2660
vt 0.2221 0.2685
vt 0.2215 0.2660
vt 0.2197 0.2681
vt 0.2197 0.2685
vt 0.1960 0.2832
vt 0.1960 0.2857
vt 0.1939 0.2857
vt 0.1939 0.2832
vt 0.1964 0.2857
vt 0.1964 0.2832
vt 0.2221 0.2857
vt 0.2197 0.2857
vt 0.2203 0.2832
vt 0.2221 0.2853
vt 0.2197 0.2832
vt 0.2720 0.2839
vt 0.2720 0.2832
vt 0.2695 0.2832
vt 0.2695 0.2839
vt 0.2050 0.2874
vt 0.2050 0.2849
vt 0.2043 0.2874
vt 0.2025 0.2853
vt 0.2025 0.2849
vt 0.2218 0.0943
vt 0.2218 0.0968
vt 0.2239 0.0968
vt 0.2239 0.0943
vt 0.2214 0.0968
vt 0.2214 0.0943
vt 0.2359 0.0342
vt 0.2334 0.0342
vt 0.2340 0.0367
vt 0.2359 0.0346
vt 0.2334 0.0367
vt 0.2334 0.0428
vt 0.2334 0.0434
vt 0.2359 0.0434
vt 0.2359 0.0428
vt 0.2359 0.0514
vt 0.2359 0.0538
vt 0.2353 0.0514
vt 0.2334 0.0535
vt 0.2334 0.0538
vt 0.2235 0.2489
vt 0.2235 0.2513
vt 0.2214 0.2513
vt 0.2214 0.2489
vt 0.2239 0.2513
vt 0.2239 0.2489
vt 0.2359 0.0865
vt 0.2334 0.0865
vt 0.2340 0.0840
vt 0.2359 0.0861
vt 0.2334 0.0840
vt 0.2359 0.0932
vt 0.2359 0.0926
vt 0.2334 0.0926
vt 0.2334 0.0932
vt 0.2359 0.1036
vt 0.2359 0.1012
vt 0.2353 0.1036
vt 0.2334 0.1016
vt 0.2334 0.1012
vt 0.2218 0.1372
vt 0.2218 0.1397
vt 0.2239 0.1397
vt 0.2239 0.1372
vt 0.2214 0.1397
vt 0.2214 0.1372
vt 0.2239 0.1458
vt 0.2214 0.1458
vt 0.2220 0.1483
vt 0.2239 0.1462
vt 0.2214 0.1483
vt 0.2214 0.1544
vt 0.2214 0.1550
vt 0.2239 0.1550
vt 0.2239 0.1544
vt 0.2239 0.1630
vt 0.2239 0.1655
vt 0.2232 0.1630
vt 0.2214 0.1651
vt 0.2214 0.1655
vt 0.2338 0.0600
vt 0.2338 0.0624
vt 0.2359 0.0624
vt 0.2359 0.0600
vt 0.2334 0.0624
vt 0.2334 0.0600
vt 0.2359 0.0685
vt 0.2334 0.0685
vt 0.2340 0.0710
vt 0.2359 0.0689
vt 0.2334 0.0710
vt 0.2334 0.0771
vt 0.2334 0.0778
vt 0.2359 0.0778
vt 0.2359 0.0771
vt 0.2359 0.0256
vt 0.2359 0.0281
vt 0.2353 0.0256
vt 0.2334 0.0277
vt 0.2334 0.0281
vt 0.5482 0.4028
vt 0.5482 0.1669
vt 0.5744 0.1669
vt 0.5744 0.4028
vt 0.5477 0.4028
vt 0.5477 0.1669
vt 0.5482 0.4033
vt 0.5744 0.4033
vt 0.5749 0.4028
vt 0.5749 0.1669
vt 0.5744 0.1664
vt 0.5482 0.1664
vt 0.2334 0.1355
vt 0.2334 0.1370
vt 0.2341 0.1370
vt 0.2341 0.1355
vt 0.6762 0.4028
vt 0.6757 0.4028
vt 0.6757 0.4033
vt 0.6757 0.1669
vt 0.6762 0.1669
vt 0.6495 0.4028
vt 0.6495 0.1669
vt 0.6490 0.1669
vt 0.6490 0.4028
vt 0.6495 0.1664
vt 0.6757 0.1664
vt 0.2341 0.1284
vt 0.2341 0.1269
vt 0.2334 0.1269
vt 0.2334 0.1284
vt 0.7480 0.4461
vt 0.7480 0.4447
vt 0.7485 0.4447
vt 0.7485 0.4461
vt 0.5121 0.4447
vt 0.5121 0.4461
vt 0.5116 0.4461
vt 0.5116 0.4447
vt 0.6495 0.4033
vt 0.2115 0.2678
vt 0.2115 0.2702
vt 0.2136 0.2702
vt 0.2136 0.2678
vt 0.2111 0.2702
vt 0.2111 0.2678
vt 0.2805 0.2695
vt 0.2781 0.2695
vt 0.2787 0.2720
vt 0.2805 0.2699
vt 0.2781 0.2720
vt 0.2781 0.2781
vt 0.2781 0.2787
vt 0.2805 0.2787
vt 0.2805 0.2781
vt 0.1895 0.2678
vt 0.1895 0.2702
vt 0.1889 0.2678
vt 0.1870 0.2699
vt 0.1870 0.2702
vt 0.2218 0.0600
vt 0.2218 0.0624
vt 0.2239 0.0624
vt 0.2239 0.0600
vt 0.2214 0.0624
vt 0.2214 0.0600
vt 0.2239 0.0685
vt 0.2214 0.0685
vt 0.2220 0.0710
vt 0.2239 0.0689
vt 0.2214 0.0710
vt 0.2214 0.0771
vt 0.2214 0.0778
vt 0.2239 0.0778
vt 0.2239 0.0771
vt 0.2239 0.0857
vt 0.2239 0.0882
vt 0.2232 0.0857
vt 0.2214 0.0878
vt 0.2214 0.0882
vt 0.8732 0.6467
vt 0.8470 0.6467
vt 0.8470 0.4108
vt 0.8732 0.4108
vt 0.8732 0.6471
vt 0.8470 0.6471
vt 0.8737 0.6467
vt 0.8737 0.4108
vt 0.8732 0.4103
vt 0.8470 0.4103
vt 0.8465 0.4108
vt 0.8465 0.6467
vt 0.2393 0.2400
vt 0.2393 0.2386
vt 0.2386 0.2386
vt 0.2386 0.2400
vt 0.0317 0.7474
vt 0.0322 0.7474
vt 0.0317 0.7469
vt 0.0317 0.9833
vt 0.0322 0.9833
vt 0.0055 0.7474
vt 0.0055 0.7469
vt 0.0050 0.7474
vt 0.0055 0.9833
vt 0.0050 0.9833
vt 0.5121 0.4618
vt 0.5121 0.4633
vt 0.5116 0.4633
vt 0.5116 0.4618
vt 0.0055 0.9838
vt 0.0317 0.9838
vt 0.2386 0.2557
vt 0.2386 0.2572
vt 0.2393 0.2572
vt 0.2393 0.2557
vt 0.7480 0.4633
vt 0.7480 0.4618
vt 0.7485 0.4618
vt 0.7485 0.4633
vt 0.2338 0.2128
vt 0.2338 0.2153
vt 0.2317 0.2153
vt 0.2317 0.2128
vt 0.2342 0.2153
vt 0.2342 0.2128
vt 0.2342 0.2239
vt 0.2317 0.2239
vt 0.2323 0.2214
vt 0.2342 0.2235
vt 0.2317 0.2214
vt 0.2239 0.2152
vt 0.2239 0.2145
vt 0.2214 0.2145
vt 0.2214 0.2152
vt 0.2239 0.0195
vt 0.2239 0.0170
vt 0.2232 0.0195
vt 0.2214 0.0174
vt 0.2214 0.0170
vt 0.1874 0.2764
vt 0.1874 0.2788
vt 0.1895 0.2788
vt 0.1895 0.2764
vt 0.1870 0.2788
vt 0.1870 0.2764
vt 0.2050 0.2764
vt 0.2025 0.2764
vt 0.2031 0.2788
vt 0.2050 0.2767
vt 0.2025 0.2788
vt 0.2695 0.2764
vt 0.2695 0.2770
vt 0.2720 0.2770
vt 0.2720 0.2764
vt 0.2805 0.2609
vt 0.2805 0.2634
vt 0.2799 0.2609
vt 0.2781 0.2630
vt 0.2781 0.2634
vt 0.5821 0.4028
vt 0.5821 0.1669
vt 0.6082 0.1669
vt 0.6082 0.4028
vt 0.7480 0.4103
vt 0.5121 0.4103
vt 0.5121 0.4108
vt 0.7480 0.4108
vt 0.5116 0.4108
vt 0.6082 0.4033
vt 0.5821 0.4033
vt 0.7485 0.4204
vt 0.7480 0.4209
vt 0.7480 0.4204
vt 0.5121 0.4209
vt 0.5121 0.4204
vt 0.5116 0.4204
vt 0.5821 0.1664
vt 0.6082 0.1664
vt 0.7485 0.4108
vt 0.7485 0.4123
vt 0.7480 0.4123
vt 0.6413 0.4028
vt 0.6413 0.4033
vt 0.6418 0.4028
vt 0.6152 0.4028
vt 0.6152 0.4033
vt 0.6147 0.4028
vt 0.6152 0.1669
vt 0.6147 0.1669
vt 0.6152 0.1664
vt 0.6413 0.1669
vt 0.6413 0.1664
vt 0.6418 0.1669
vt 0.5116 0.4123
vt 0.5121 0.4123
vt 0.7485 0.4189
vt 0.7480 0.4189
vt 0.5116 0.4189
vt 0.5121 0.4189
vn 0.0000 0.0000 -1.0000
vn 0.0000 1.0000 0.0000
vn 1.0000 0.0000 0.0000
vn 0.0000 -0.0000 1.0000
vn -1.0000 0.0000 0.0000
vn 0.7071 -0.0000 0.7071
vn -0.7388 0.4765 0.4765
vn -0.7071 -0.0000 0.7071
vn -0.4765 0.4765 0.7388
vn -0.4765 0.4765 -0.7388
vn -0.7071 0.0000 -0.7071
vn -0.7388 0.4765 -0.4765
vn -0.7388 -0.4765 -0.4765
vn -0.4765 -0.4765 -0.7388
vn -0.4765 -0.4765 0.7388
vn -0.7388 -0.4765 0.4765
vn -0.4765 -0.7388 0.4765
vn 0.4765 -0.7388 0.4765
vn 0.4765 -0.4765 0.7388
vn 0.7388 -0.4765 0.4765
vn 0.4765 -0.7388 -0.4765
vn 0.7388 -0.4765 -0.4765
vn 0.4765 -0.4765 -0.7388
vn -0.4765 -0.7388 -0.4765
vn 0.7388 0.4765 -0.4765
vn 0.7071 0.0000 -0.7071
vn 0.4765 0.4765 -0.7388
vn 0.4765 0.4765 0.7388
vn 0.7388 0.4765 0.4765
vn 0.4765 0.7388 0.4765
vn -0.4765 0.7388 0.4765
vn -0.4765 0.7388 -0.4765
vn 0.4765 0.7388 -0.4765
vn 0.0000 0.7071 0.7071
vn 0.0000 0.7071 -0.7071
vn 0.0000 -1.0000 0.0000
vn 0.0000 -0.7071 0.7071
vn 0.0000 -0.7071 -0.7071
vn 0.9357 -0.3528 0.0000
vn 0.7511 -0.6601 0.0000
vn 0.9357 -0.3527 0.0000
vn 0.7511 -0.6602 0.0000
vn -0.9357 -0.3527 0.0000
vn -0.7511 -0.6601 0.0000
vn 0.9358 -0.3526 0.0000
vn 0.7514 -0.6598 0.0000
vn 0.4765 0.4765 0.7389
vn -0.4765 0.4765 0.7389
vn -0.9357 -0.3528 0.0000
vn -0.9358 -0.3526 0.0000
vn -0.7514 -0.6598 0.0000
vn -0.7511 -0.6602 0.0000
usemtl FrontColor
s 1
f 1/1/1 2/2/1 3/3/1 4/4/1
s 2
f 5/5/2 6/6/2 7/7/2 8/8/2
s 3
f 5/9/3 9/10/3 10/11/3 6/12/3
s 4
f 8/13/4 11/14/4 9/15/4 5/16/4
s 5
f 8/17/5 7/18/5 12/19/5 11/20/5
s 6
f 12/21/4 10/22/4 6/23/4 7/24/4
s 7
f 11/25/2 9/26/2 10/27/2 12/28/2
s 8
f 13/29/4 9/30/4 11/31/4 14/32/4
s 9
f 9/33/3 13/34/3 10/35/3
f 15/36/3 16/37/3 10/35/3 13/34/3
f 6/38/3 10/35/3 16/37/3 17/39/3
s 10
f 18/40/6 19/41/6 16/42/6 15/43/6
f 17/44/6 16/42/6 19/41/6 20/45/6
s 11
f 21/46/4 22/47/4 19/41/4 18/40/4
f 20/45/4 19/41/4 22/47/4 23/48/4
f 24/49/4 20/45/4 23/48/4 25/50/4
f 26/51/4 27/52/4 28/53/4 29/54/4
f 25/50/4 28/53/4 27/52/4 24/49/4
f 18/40/4 26/51/4 29/54/4 21/46/4
s 12
f 30/55/7 31/56/8 22/57/8 21/58/9
f 32/59/10 33/60/11 34/61/11 35/62/12
f 36/63/13 34/61/11 33/60/11 37/64/14
f 23/65/15 22/57/8 31/56/8 38/66/16
f 39/67/17 40/68/18 25/69/19 23/70/15
f 25/69/19 40/68/18 41/71/20
f 40/68/18 42/72/21 43/73/22 41/71/20
f 42/72/21 44/74/23 43/73/22
f 42/72/21 45/75/24 37/76/14 44/74/23
f 37/76/14 45/75/24 36/77/13
f 45/75/24 39/67/17 38/78/16 36/77/13
f 39/67/17 23/70/15 38/78/16
f 46/79/25 47/80/26 48/81/26 49/82/27
f 29/83/28 28/84/6 50/85/6 51/86/29
f 41/87/20 50/85/6 28/84/6 25/88/19
f 44/89/23 48/81/26 47/80/26 43/90/22
f 52/91/30 53/92/31 21/46/9 29/54/28
f 54/93/32 55/94/33 49/82/27 32/59/10
f 49/82/27 55/94/33 46/79/25
f 55/95/33 52/96/30 51/86/29 46/97/25
f 52/96/30 29/83/28 51/86/29
f 54/93/32 32/59/10 35/62/12
f 53/98/31 54/99/32 35/100/12 30/55/7
f 21/58/9 53/98/31 30/55/7
s 13
f 35/100/5 34/101/5 31/56/5 30/55/5
f 38/66/5 31/56/5 34/101/5 36/102/5
s 14
f 56/103/1 57/104/1 33/60/1 32/59/1
f 37/64/1 33/60/1 57/104/1 58/105/1
f 58/105/1 59/106/1 44/89/1 37/64/1
f 49/82/1 48/81/1 60/107/1 61/108/1
f 59/106/1 60/107/1 48/81/1 44/89/1
f 61/108/1 56/103/1 32/59/1 49/82/1
s 15
f 62/109/26 63/110/26 57/104/26 56/103/26
f 58/105/26 57/104/26 63/110/26 64/111/26
s 16
f 65/112/3 66/113/3 63/114/3 62/115/3
f 64/116/3 63/114/3 66/113/3 67/117/3
s 17
f 6/118/2 17/119/2 68/120/2 7/121/2
s 18
f 20/45/34 24/49/34 68/122/34 17/44/34
s 19
f 59/106/35 58/105/35 64/111/35 69/123/35
s 20
f 70/124/2 69/125/2 64/126/2 67/127/2
s 21
f 70/128/5 71/129/5 72/130/5 69/131/5
f 73/132/5 72/130/5 71/129/5 74/133/5
s 22
f 61/108/11 60/107/11 72/134/11 73/135/11
f 69/123/11 72/134/11 60/107/11 59/106/11
s 23
f 51/86/3 50/85/3 47/136/3 46/97/3
f 43/137/3 47/136/3 50/85/3 41/87/3
s 24
f 75/138/8 76/139/8 27/52/8 26/51/8
f 24/49/8 27/52/8 76/139/8 68/122/8
s 25
f 14/140/5 12/141/5 76/142/5 75/143/5
f 11/144/5 12/141/5 14/140/5
f 68/145/5 76/142/5 12/141/5 7/146/5
s 26
f 14/147/36 75/148/36 15/149/36 13/150/36
s 27
f 26/51/37 18/40/37 15/43/37 75/138/37
s 28
f 55/151/2 54/152/2 53/153/2 52/154/2
s 29
f 56/103/38 61/108/38 73/135/38 62/109/38
s 30
f 65/155/36 62/156/36 73/157/36 74/158/36
s 31
f 77/159/39 78/160/39 79/161/40 80/162/40
f 81/163/3 78/160/39 77/159/39 82/164/3
s 32
f 81/165/4 83/166/4 79/167/4 78/168/4
f 84/169/4 79/167/4 83/166/4
s 33
f 85/170/36 80/171/36 79/172/36 84/173/36
s 34
f 85/174/1 86/175/1 80/176/1
f 77/177/1 80/176/1 86/175/1 82/178/1
s 35
f 87/179/41 88/180/41 89/181/40 90/182/40
f 91/183/3 88/180/41 87/179/41 92/184/3
s 36
f 91/185/4 93/186/4 89/187/4 88/188/4
f 94/189/4 89/187/4 93/186/4
s 37
f 95/190/36 90/191/36 89/192/36 94/193/36
s 38
f 95/194/1 96/195/1 90/196/1
f 87/197/1 90/196/1 96/195/1 92/198/1
s 39
f 97/199/39 98/200/39 99/201/42 100/202/42
f 101/203/3 98/200/39 97/199/39 102/204/3
s 40
f 101/205/4 103/206/4 99/207/4 98/208/4
f 104/209/4 99/207/4 103/206/4
s 41
f 105/210/36 100/211/36 99/212/36 104/213/36
s 42
f 105/214/1 106/215/1 100/216/1
f 97/217/1 100/216/1 106/215/1 102/218/1
s 43
f 107/219/43 108/220/43 109/221/44 110/222/44
f 111/223/5 108/220/43 107/219/43 112/224/5
s 44
f 111/225/1 113/226/1 109/227/1 108/228/1
f 114/229/1 109/227/1 113/226/1
s 45
f 115/230/36 110/231/36 109/232/36 114/233/36
s 46
f 115/234/4 116/235/4 110/236/4
f 107/237/4 110/236/4 116/235/4 112/238/4
s 47
f 117/239/41 118/240/41 119/241/40 120/242/40
f 121/243/3 118/240/41 117/239/41 122/244/3
s 48
f 121/245/4 123/246/4 119/247/4 118/248/4
f 124/249/4 119/247/4 123/246/4
s 49
f 125/250/36 120/251/36 119/252/36 124/253/36
s 50
f 125/254/1 126/255/1 120/256/1
f 117/257/1 120/256/1 126/255/1 122/258/1
s 51
f 127/259/41 128/260/41 129/261/40 130/262/40
f 131/263/3 128/260/41 127/259/41 132/264/3
s 52
f 131/265/4 133/266/4 129/267/4 128/268/4
f 134/269/4 129/267/4 133/266/4
s 53
f 135/270/36 130/271/36 129/272/36 134/273/36
s 54
f 135/274/1 136/275/1 130/276/1
f 127/277/1 130/276/1 136/275/1 132/278/1
s 55
f 137/279/2 138/280/2 139/281/2 140/282/2
s 56
f 138/280/33 137/279/30 141/283/29 142/284/25
f 137/279/30 143/285/28 141/283/29
f 137/279/30 140/282/31 144/286/9 143/285/28
f 144/286/9 140/282/31 145/287/7
f 140/282/31 139/281/32 146/288/12 145/287/7
f 139/281/32 147/289/10 146/288/12
f 139/281/32 138/280/33 148/290/27 147/289/10
f 148/290/27 138/280/33 142/284/25
f 149/291/23 148/292/27 142/293/25 150/294/22
f 151/295/21 149/291/23 150/294/22
f 151/295/21 152/296/24 153/297/14 149/291/23
f 154/298/18 151/299/21 150/300/22 155/301/20
f 156/302/19 154/303/18 155/304/20
f 157/305/17 154/303/18 156/302/19 158/306/15
f 143/307/28 156/302/19 155/304/20 141/308/29
f 158/306/15 144/309/9 145/310/7 159/311/16
f 157/305/17 158/306/15 159/311/16
f 152/312/24 157/313/17 159/314/16 160/315/13
f 153/297/14 152/296/24 160/316/13
f 147/317/10 153/297/14 160/316/13 146/318/12
s 57
f 152/312/36 151/299/36 154/298/36 157/313/36
s 58
f 158/306/4 156/302/4 143/307/4 144/309/4
s 59
f 161/319/45 162/320/45 163/321/46 164/322/46
f 165/323/3 162/320/45 161/319/45 166/324/3
s 60
f 165/325/4 167/326/4 163/327/4 162/328/4
f 168/329/4 163/327/4 167/326/4
s 61
f 169/330/36 164/331/36 163/332/36 168/333/36
s 62
f 169/334/1 170/335/1 164/336/1
f 161/337/1 164/336/1 170/335/1 166/338/1
s 63
f 171/339/2 172/340/2 173/341/2 174/342/2
s 64
f 172/340/33 171/339/30 175/343/29 176/344/25
f 171/339/30 177/345/47 175/343/29
f 171/339/30 174/342/31 178/346/48 177/345/47
f 178/346/48 174/342/31 179/347/7
f 174/342/31 173/341/32 180/348/12 179/347/7
f 173/341/32 181/349/10 180/348/12
f 173/341/32 172/340/33 182/350/27 181/349/10
f 182/350/27 172/340/33 176/344/25
f 183/351/23 182/352/27 176/353/25 184/354/22
f 185/355/21 183/356/23 184/357/22
f 185/355/21 186/358/24 187/359/14 183/356/23
f 188/360/17 189/361/18 190/362/19 191/363/15
f 190/362/19 189/361/18 192/364/20
f 189/361/18 185/355/21 184/357/22 192/364/20
f 177/365/47 190/366/19 192/367/20 175/368/29
f 191/369/15 178/370/48 179/371/7 193/372/16
f 188/360/17 191/363/15 193/373/16
f 186/358/24 188/360/17 193/373/16 194/374/13
f 187/359/14 186/358/24 194/374/13
f 181/375/10 187/376/14 194/377/13 180/378/12
s 65
f 189/361/36 188/360/36 186/358/36 185/355/36
s 66
f 191/369/4 190/366/4 177/365/4 178/370/4
s 67
f 195/379/36 196/380/36 197/381/36 198/382/36
s 68
f 196/383/17 195/384/18 199/385/19 200/386/15
f 199/385/19 195/384/18 201/387/20
f 195/379/18 198/382/21 202/388/22 201/389/20
f 198/390/21 203/391/23 202/392/22
f 198/390/21 197/393/24 204/394/14 203/391/23
f 204/394/14 197/393/24 205/395/13
f 197/381/24 196/380/17 206/396/16 205/397/13
f 196/383/17 200/386/15 206/398/16
f 200/386/15 207/399/9 208/400/7 206/398/16
f 209/401/28 199/385/19 201/387/20 210/402/29
f 211/403/30 209/404/28 210/405/29
f 211/403/30 212/406/31 207/407/9 209/404/28
f 213/408/33 211/403/30 210/405/29 214/409/25
f 215/410/27 213/408/33 214/409/25
f 216/411/32 213/408/33 215/410/27 217/412/10
f 216/411/32 217/412/10 218/413/12
f 217/414/10 204/394/14 205/395/13 218/415/12
f 212/406/31 216/411/32 218/413/12 208/416/7
f 207/407/9 212/406/31 208/416/7
f 203/391/23 215/417/27 214/418/25 202/392/22
s 69
f 207/399/4 200/386/4 199/385/4 209/401/4
s 70
f 212/406/2 211/403/2 213/408/2 216/411/2
s 71
f 219/419/49 220/420/49 221/421/44 222/422/44
f 223/423/5 220/420/49 219/419/49 224/424/5
s 72
f 223/425/1 225/426/1 221/427/1 220/428/1
f 226/429/1 221/427/1 225/426/1
s 73
f 227/430/36 222/431/36 221/432/36 226/433/36
s 74
f 227/434/4 228/435/4 222/436/4
f 219/437/4 222/436/4 228/435/4 224/438/4
s 75
f 229/439/41 230/440/41 231/441/40 232/442/40
f 233/443/3 230/440/41 229/439/41 234/444/3
s 76
f 233/445/4 235/446/4 231/447/4 230/448/4
f 236/449/4 231/447/4 235/446/4
s 77
f 237/450/36 232/451/36 231/452/36 236/453/36
s 78
f 237/454/1 238/455/1 232/456/1
f 229/457/1 232/456/1 238/455/1 234/458/1
s 79
f 239/459/50 240/460/50 241/461/51 242/462/51
f 243/463/5 240/460/50 239/459/50 244/464/5
s 80
f 243/465/1 245/466/1 241/467/1 240/468/1
f 246/469/1 241/467/1 245/466/1
s 81
f 247/470/36 242/471/36 241/472/36 246/473/36
s 82
f 247/474/4 248/475/4 242/476/4
f 239/477/4 242/476/4 248/475/4 244/478/4
s 83
f 249/479/43 250/480/43 251/481/44 252/482/44
f 253/483/5 250/480/43 249/479/43 254/484/5
s 84
f 253/485/1 255/486/1 251/487/1 250/488/1
f 256/489/1 251/487/1 255/486/1
s 85
f 257/490/36 252/491/36 251/492/36 256/493/36
s 86
f 257/494/4 258/495/4 252/496/4
f 249/497/4 252/496/4 258/495/4 254/498/4
s 87
f 259/499/39 260/500/39 261/501/42 262/502/42
f 263/503/3 260/500/39 259/499/39 264/504/3
s 88
f 263/505/4 265/506/4 261/507/4 260/508/4
f 266/509/4 261/507/4 265/506/4
s 89
f 267/510/36 262/511/36 261/512/36 266/513/36
s 90
f 267/514/1 268/515/1 262/516/1
f 259/517/1 262/516/1 268/515/1 264/518/1
s 91
f 269/519/49 270/520/49 271/521/44 272/522/44
f 273/523/5 270/520/49 269/519/49 274/524/5
s 92
f 273/525/1 275/526/1 271/527/1 270/528/1
f 276/529/1 271/527/1 275/526/1
s 93
f 277/530/36 272/531/36 271/532/36 276/533/36
s 94
f 277/534/4 278/535/4 272/536/4
f 269/537/4 272/536/4 278/535/4 274/538/4
s 95
f 279/539/39 280/540/39 281/541/40 282/542/40
f 283/543/3 280/540/39 279/539/39 284/544/3
s 96
f 283/545/4 285/546/4 281/547/4 280/548/4
f 286/549/4 281/547/4 285/546/4
s 97
f 287/550/36 282/551/36 281/552/36 286/553/36
s 98
f 287/554/1 288/555/1 282/556/1
f 279/557/1 282/556/1 288/555/1 284/558/1
s 99
f 289/559/43 290/560/43 291/561/44 292/562/44
f 293/563/5 290/560/43 289/559/43 294/564/5
s 100
f 293/565/1 295/566/1 291/567/1 290/568/1
f 296/569/1 291/567/1 295/566/1
s 101
f 297/570/36 292/571/36 291/572/36 296/573/36
s 102
f 297/574/4 298/575/4 292/576/4
f 289/577/4 292/576/4 298/575/4 294/578/4
s 103
f 299/579/50 300/580/50 301/581/51 302/582/51
f 303/583/5 300/580/50 299/579/50 304/584/5
s 104
f 303/585/1 305/586/1 301/587/1 300/588/1
f 306/589/1 301/587/1 305/586/1
s 105
f 307/590/36 302/591/36 301/592/36 306/593/36
s 106
f 307/594/4 308/595/4 302/596/4
f 299/597/4 302/596/4 308/595/4 304/598/4
s 107
f 309/599/2 310/600/2 311/601/2 312/602/2
s 108
f 310/600/32 309/599/33 313/603/27 314/604/10
f 313/603/27 309/599/33 315/605/25
f 309/599/33 312/602/30 316/606/29 315/605/25
f 312/602/30 317/607/28 316/606/29
f 312/602/30 311/601/31 318/608/9 317/607/28
f 318/608/9 311/601/31 319/609/7
f 311/601/31 310/600/32 320/610/12 319/609/7
f 310/600/32 314/604/10 320/610/12
f 314/611/10 321/612/14 322/613/13 320/614/12
f 321/615/14 323/616/24 322/617/13
f 324/618/21 323/616/24 321/615/14 325/619/23
f 326/620/17 327/621/18 328/622/19 329/623/15
f 328/622/19 327/621/18 330/624/20
f 327/621/18 324/618/21 331/625/22 330/624/20
f 324/618/21 325/619/23 331/625/22
f 325/626/23 313/627/27 315/628/25 331/629/22
f 317/630/28 328/631/19 330/632/20 316/633/29
f 329/634/15 318/635/9 319/636/7 332/637/16
f 326/620/17 329/623/15 332/638/16
f 323/616/24 326/620/17 332/638/16 322/617/13
s 109
f 327/621/36 326/620/36 323/616/36 324/618/36
s 110
f 328/631/4 317/630/4 318/635/4 329/634/4
s 111
f 333/639/43 334/640/43 335/641/44 336/642/44
f 337/643/5 334/640/43 333/639/43 338/644/5
s 112
f 337/645/1 339/646/1 335/647/1 334/648/1
f 340/649/1 335/647/1 339/646/1
s 113
f 341/650/36 336/651/36 335/652/36 340/653/36
s 114
f 341/654/4 342/655/4 336/656/4
f 333/657/4 336/656/4 342/655/4 338/658/4
s 115
f 343/659/49 344/660/49 345/661/52 346/662/52
f 347/663/5 344/660/49 343/659/49 348/664/5
s 116
f 347/665/1 349/666/1 345/667/1 344/668/1
f 350/669/1 345/667/1 349/666/1
s 117
f 351/670/36 346/671/36 345/672/36 350/673/36
s 118
f 351/674/4 352/675/4 346/676/4
f 343/677/4 346/676/4 352/675/4 348/678/4
s 119
f 353/679/2 354/680/2 355/681/2 356/682/2
s 120
f 354/680/33 353/679/30 357/683/29 358/684/25
f 353/679/30 359/685/28 357/683/29
f 353/679/30 356/682/31 360/686/9 359/685/28
f 360/686/9 356/682/31 361/687/7
f 356/682/31 355/681/32 362/688/12 361/687/7
f 355/681/32 363/689/10 362/688/12
f 355/681/32 354/680/33 364/690/27 363/689/10
f 364/690/27 354/680/33 358/684/25
f 365/691/23 364/692/27 358/693/25 366/694/22
f 367/695/21 365/696/23 366/697/22
f 367/695/21 368/698/24 369/699/14 365/696/23
f 370/700/18 367/695/21 366/697/22 371/701/20
f 372/702/19 370/700/18 371/701/20
f 373/703/17 370/700/18 372/702/19 374/704/15
f 374/705/15 360/706/9 361/707/7 375/708/16
f 373/703/17 374/704/15 375/709/16
f 368/698/24 373/703/17 375/709/16 376/710/13
f 369/699/14 368/698/24 376/710/13
f 363/711/10 369/712/14 376/713/13 362/714/12
f 359/715/28 372/716/19 371/717/20 357/718/29
s 121
f 368/698/36 367/695/36 370/700/36 373/703/36
s 122
f 359/715/4 360/706/4 374/705/4 372/716/4
s 123
f 377/719/45 378/720/45 379/721/46 380/722/46
f 381/723/3 378/720/45 377/719/45 382/724/3
s 124
f 381/725/4 383/726/4 379/727/4 378/728/4
f 384/729/4 379/727/4 383/726/4
s 125
f 385/730/36 380/731/36 379/732/36 384/733/36
s 126
f 385/734/1 386/735/1 380/736/1
f 377/737/1 380/736/1 386/735/1 382/738/1
s 127
f 387/739/49 388/740/49 389/741/52 390/742/52
f 391/743/5 388/740/49 387/739/49 392/744/5
s 128
f 391/745/1 393/746/1 389/747/1 388/748/1
f 394/749/1 389/747/1 393/746/1
s 129
f 395/750/36 390/751/36 389/752/36 394/753/36
s 130
f 395/754/4 396/755/4 390/756/4
f 387/757/4 390/756/4 396/755/4 392/758/4
s 131
f 397/759/2 398/760/2 399/761/2 400/762/2
s 132
f 398/763/32 397/764/33 401/765/27 402/766/10
f 397/764/33 403/767/25 401/765/27
f 397/759/33 400/762/30 404/768/29 403/769/25
f 404/770/29 400/771/30 405/772/28
f 400/771/30 399/773/31 406/774/9 405/772/28
f 399/773/31 407/775/7 406/774/9
f 399/761/31 398/760/32 408/776/12 407/777/7
f 408/778/12 398/763/32 402/766/10
f 409/779/13 408/778/12 402/766/10 410/780/14
f 411/781/24 409/782/13 410/783/14
f 411/781/24 412/784/17 413/785/16 409/782/13
f 413/785/16 412/784/17 414/786/15
f 412/784/17 415/787/18 416/788/19 414/786/15
f 415/787/18 417/789/20 416/788/19
f 415/787/18 418/790/21 419/791/22 417/789/20
f 419/791/22 418/790/21 420/792/23
f 418/790/21 411/781/24 410/783/14 420/792/23
f 403/767/25 419/793/22 420/794/23 401/765/27
f 417/795/20 404/770/29 405/772/28 416/796/19
f 407/775/7 413/797/16 414/798/15 406/774/9
s 133
f 406/774/4 414/798/4 416/796/4 405/772/4
