# Blender v2.78 (sub 0) OBJ File: 'video_store_shelf_small.blend'
# www.blender.org
mtllib video_store_shelf_small.mtl
o Mesh14_Group19_Group18_Group1_Model
v -0.700000 1.130000 0.051816
v -0.700000 1.136080 0.097978
v 0.700000 1.136080 0.097978
v 0.700000 1.130000 0.051816
v -0.700000 1.135220 0.099100
v 0.700000 1.135220 0.099100
v 0.700000 1.117370 0.101450
v -0.700000 1.117370 0.101450
v -0.700000 1.116250 0.100589
v 0.700000 1.116250 0.100589
v -0.700000 1.110080 0.053756
v 0.700000 1.110080 0.053756
v 0.700000 1.360000 -0.029376
v 0.700000 1.130000 -0.051815
v -0.700000 1.130000 -0.051815
v -0.700000 1.360000 -0.029376
v -0.700000 0.616224 -0.141525
v 0.700000 0.616224 -0.141525
v 0.700000 0.615102 -0.140664
v -0.700000 0.615102 -0.140664
v 0.700000 0.634070 -0.139175
v -0.700000 0.634070 -0.139175
v -0.700000 0.634931 -0.138053
v 0.700000 0.634931 -0.138053
v -0.700000 0.630000 -0.100596
v 0.700000 0.630000 -0.100596
v -0.700000 0.610083 -0.102536
v 0.700000 0.610083 -0.102536
v 0.701000 -0.000000 0.250000
v 0.719000 -0.000000 0.250000
v 0.719000 1.399000 0.120093
v 0.701000 1.399000 0.120093
v 0.720000 -0.000000 0.248996
v 0.720000 1.399000 0.119089
v 0.740000 -0.000000 0.198372
v 0.740000 1.399000 0.068465
v 0.739000 1.399000 0.069470
v 0.739000 -0.000000 0.199376
v 0.740000 1.399000 -0.068465
v 0.740000 0.000000 -0.198372
v 0.739000 0.000000 -0.199376
v 0.739000 1.399000 -0.069469
v 0.719000 0.000000 -0.250000
v 0.719000 1.399000 -0.120093
v 0.720000 1.399000 -0.119089
v 0.720000 0.000000 -0.248996
v 0.700000 0.000000 -0.248996
v 0.700000 1.399000 -0.119089
v 0.701000 1.399000 -0.120093
v 0.701000 0.000000 -0.250000
v 0.701000 1.400000 0.118996
v 0.701000 1.400000 -0.118996
v 0.700000 1.399000 0.119089
v 0.719000 1.400000 -0.068372
v 0.739000 1.400000 -0.068372
v 0.721000 1.399000 -0.069469
v 0.739000 1.400000 0.068372
v 0.719000 1.400000 0.068372
v 0.721000 1.399000 0.069470
v 0.720000 1.399000 0.070474
v 0.719000 1.400000 0.118996
v 0.700000 -0.000000 0.248996
v 0.720000 1.399000 -0.070473
v 0.719000 1.400000 -0.118996
v 0.720000 -0.000000 0.200381
v 0.721000 -0.000000 0.199376
v 0.721000 0.000000 -0.199376
v 0.720000 0.000000 -0.200381
v 0.700000 1.360000 -0.029376
v 0.700000 1.380000 -0.027425
v 0.700000 0.000000 -0.162059
v 0.700000 1.380000 0.027426
v 0.700000 1.360000 0.029377
v 0.700000 -0.000000 0.162059
v -0.700000 0.880000 0.076206
v -0.700000 0.885504 0.118016
v 0.700000 0.885504 0.118016
v 0.700000 0.880000 0.076206
v -0.700000 0.884643 0.119138
v 0.700000 0.884643 0.119138
v -0.700000 0.866797 0.121487
v 0.700000 0.866797 0.121487
v -0.700000 0.865675 0.120626
v 0.700000 0.865675 0.120626
v -0.700000 0.860083 0.078146
v 0.700000 0.860083 0.078146
v 0.700000 0.130000 0.149376
v 0.700000 0.360095 0.126937
v -0.700000 0.360095 0.126937
v -0.700000 0.130000 0.149376
v -0.700000 1.360000 0.029377
v -0.700000 1.130000 0.051816
v 0.700000 1.130000 0.051816
v 0.700000 1.360000 0.029377
v -0.700000 0.630000 -0.100596
v -0.700000 0.860083 -0.078157
v 0.700000 0.860083 -0.078157
v 0.700000 0.630000 -0.100596
v 0.700000 0.112419 0.169376
v -0.700000 0.112419 0.169376
v -0.700000 -0.000000 0.169376
v 0.700000 -0.000000 0.169376
v -0.700000 0.380000 -0.124986
v -0.700000 0.610083 -0.102547
v 0.700000 0.610083 -0.102547
v 0.700000 0.380000 -0.124986
v -0.700000 0.360083 -0.126927
v -0.700000 0.365835 -0.170616
v 0.700000 0.365835 -0.170616
v 0.700000 0.360083 -0.126927
v -0.700000 0.366957 -0.171477
v 0.700000 0.366957 -0.171477
v 0.700000 0.384803 -0.169127
v -0.700000 0.384803 -0.169127
v -0.700000 0.385664 -0.168005
v 0.700000 0.385664 -0.168005
v -0.700000 0.380000 -0.124986
v 0.700000 0.380000 -0.124986
v 0.700000 0.115262 -0.190653
v -0.700000 0.115262 -0.190653
v -0.700000 0.116384 -0.191514
v 0.700000 0.116384 -0.191514
v -0.700000 0.112419 -0.169058
v 0.700000 0.112419 -0.169058
v -0.700000 0.134230 -0.189165
v 0.700000 0.134230 -0.189165
v -0.700000 0.135091 -0.188043
v 0.700000 0.135091 -0.188043
v -0.700000 0.130000 -0.149376
v 0.700000 0.130000 -0.149376
v -0.700000 0.134230 0.189165
v -0.700000 0.116384 0.191514
v 0.700000 0.116384 0.191514
v 0.700000 0.134230 0.189165
v -0.700000 0.115262 0.190653
v 0.700000 0.115262 0.190653
v -0.700000 0.112419 0.169058
v 0.700000 0.112419 0.169058
v 0.700000 0.135091 0.188043
v -0.700000 0.135091 0.188043
v -0.700000 0.130000 0.149376
v 0.700000 0.130000 0.149376
v -0.700000 1.110280 0.053767
v -0.700000 0.880000 0.076206
v 0.700000 0.880000 0.076206
v 0.700000 1.110280 0.053767
v -0.700000 0.630000 0.100596
v -0.700000 0.634931 0.138053
v 0.700000 0.634931 0.138053
v 0.700000 0.630000 0.100596
v -0.700000 0.634070 0.139175
v 0.700000 0.634070 0.139175
v 0.700000 0.616224 0.141525
v -0.700000 0.616224 0.141525
v -0.700000 0.615102 0.140664
v 0.700000 0.615102 0.140664
v -0.700000 0.610083 0.102536
v 0.700000 0.610083 0.102536
v -0.700000 0.866797 -0.121487
v 0.700000 0.866797 -0.121487
v 0.700000 0.865675 -0.120626
v -0.700000 0.865675 -0.120626
v -0.700000 0.884643 -0.119138
v 0.700000 0.884643 -0.119138
v -0.700000 0.885504 -0.118016
v 0.700000 0.885504 -0.118016
v -0.700000 0.880000 -0.076206
v 0.700000 0.880000 -0.076206
v -0.700000 0.860083 -0.078146
v 0.700000 0.860083 -0.078146
v -0.719000 1.399000 -0.120093
v -0.701000 1.399000 -0.120093
v -0.701000 0.000000 -0.250000
v -0.719000 0.000000 -0.250000
v -0.719000 1.400000 -0.118996
v -0.701000 1.400000 -0.118996
v -0.720000 1.399000 -0.119089
v -0.720000 0.000000 -0.248996
v -0.720000 1.399000 -0.070473
v -0.719000 1.400000 -0.068372
v -0.721000 1.399000 -0.069469
v -0.739000 1.399000 -0.069469
v -0.739000 1.400000 -0.068372
v -0.739000 0.000000 -0.199376
v -0.740000 0.000000 -0.198372
v -0.740000 1.399000 -0.068465
v -0.740000 1.399000 0.068465
v -0.739000 1.400000 0.068372
v -0.739000 1.399000 0.069470
v -0.721000 1.399000 0.069470
v -0.719000 1.400000 0.068372
v -0.739000 -0.000000 0.199376
v -0.740000 -0.000000 0.198372
v -0.720000 1.399000 0.070474
v -0.720000 1.399000 0.119089
v -0.719000 1.400000 0.118996
v -0.719000 1.399000 0.120093
v -0.701000 1.399000 0.120093
v -0.701000 1.400000 0.118996
v -0.719000 -0.000000 0.250000
v -0.720000 -0.000000 0.248996
v -0.701000 -0.000000 0.250000
v -0.700000 -0.000000 0.248996
v -0.700000 1.399000 0.119089
v -0.700000 1.399000 -0.119089
v -0.700000 0.000000 -0.248996
v -0.720000 0.000000 -0.200381
v -0.721000 0.000000 -0.199376
v -0.721000 -0.000000 0.199376
v -0.720000 -0.000000 0.200381
v -0.700000 -0.000000 0.162059
v -0.700000 0.130000 0.149376
v -0.700000 1.360000 0.029377
v -0.700000 1.380000 0.027426
v -0.700000 1.380000 -0.027425
v -0.700000 1.360000 -0.029376
v -0.700000 0.000000 -0.162059
v -0.700000 0.880000 -0.076206
v -0.700000 1.110080 -0.053767
v 0.700000 1.110080 -0.053767
v 0.700000 0.880000 -0.076206
v -0.700000 0.112419 -0.169376
v 0.700000 0.112419 -0.169376
v 0.700000 0.000000 -0.169376
v -0.700000 0.000000 -0.169376
v 0.700000 1.135220 -0.099100
v -0.700000 1.135220 -0.099100
v -0.700000 1.136080 -0.097978
v 0.700000 1.136080 -0.097978
v 0.700000 1.117370 -0.101450
v -0.700000 1.117370 -0.101450
v 0.700000 1.116250 -0.100589
v -0.700000 1.116250 -0.100589
v -0.700000 1.110080 -0.053756
v 0.700000 1.110080 -0.053756
v -0.700000 1.130000 -0.051815
v 0.700000 1.130000 -0.051815
v -0.700000 0.384803 0.169127
v 0.700000 0.384803 0.169127
v 0.700000 0.385664 0.168005
v -0.700000 0.385664 0.168005
v 0.700000 0.366957 0.171477
v -0.700000 0.366957 0.171477
v -0.700000 0.365835 0.170616
v 0.700000 0.365835 0.170616
v -0.700000 0.360083 0.126927
v 0.700000 0.360083 0.126927
v -0.700000 0.380000 0.124986
v 0.700000 0.380000 0.124986
v -0.700000 0.860440 0.078157
v -0.700000 0.630000 0.100596
v 0.700000 0.630000 0.100596
v 0.700000 0.860440 0.078157
v -0.700000 0.610097 0.102547
v -0.700000 0.380000 0.124986
v 0.700000 0.380000 0.124986
v 0.700000 0.610097 0.102547
v -0.700000 0.130000 -0.149376
v -0.700000 0.360083 -0.126937
v 0.700000 0.360083 -0.126937
v 0.700000 0.130000 -0.149376
v -0.700000 1.380000 -0.068376
v -0.700000 1.380000 0.068377
v 0.700000 1.380000 0.068377
v 0.700000 1.380000 -0.068376
v -0.700000 1.379000 0.069377
v 0.700000 1.379000 0.069377
v 0.700000 1.361000 0.069377
v -0.700000 1.361000 0.069377
v -0.700000 1.360000 0.068377
v 0.700000 1.360000 0.068377
v 0.700000 1.360000 0.029377
v -0.700000 1.360000 0.029377
v 0.700000 1.379000 -0.069376
v -0.700000 1.379000 -0.069376
v -0.700000 1.361000 -0.069376
v 0.700000 1.361000 -0.069376
v 0.700000 1.360000 -0.068376
v -0.700000 1.360000 -0.068376
v -0.700000 1.360000 -0.029376
v 0.700000 1.360000 -0.029376
vt 0.0169 0.3684
vt 0.0050 0.3684
vt 0.0050 0.7255
vt 0.0169 0.7255
vt 0.4466 0.1750
vt 0.8037 0.1750
vt 0.8037 0.1752
vt 0.4466 0.1752
vt 0.8037 0.1705
vt 0.4466 0.1705
vt 0.4466 0.1702
vt 0.8037 0.1702
vt 0.3475 0.5499
vt 0.3596 0.5499
vt 0.3596 0.1928
vt 0.3475 0.1928
vt 0.1424 0.9724
vt 0.2013 0.9724
vt 0.2013 0.6153
vt 0.1424 0.6153
vt 0.8037 0.1384
vt 0.4466 0.1384
vt 0.4466 0.1387
vt 0.8037 0.1387
vt 0.4466 0.1339
vt 0.8037 0.1339
vt 0.8037 0.1337
vt 0.4466 0.1337
vt 0.2084 0.9724
vt 0.2181 0.9724
vt 0.2181 0.6153
vt 0.2084 0.6153
vt 0.2356 0.6153
vt 0.2258 0.6153
vt 0.2258 0.9724
vt 0.2356 0.9724
vt 0.7372 0.6303
vt 0.7372 0.6257
vt 0.3788 0.6257
vt 0.3788 0.6303
vt 0.8035 0.0423
vt 0.4466 0.0754
vt 0.4466 0.0751
vt 0.8035 0.0420
vt 0.3962 0.2977
vt 0.7531 0.2646
vt 0.7531 0.2648
vt 0.3962 0.2980
vt 0.7531 0.2297
vt 0.3962 0.1965
vt 0.3962 0.1963
vt 0.7531 0.2294
vt 0.4466 0.0815
vt 0.8035 0.1146
vt 0.8035 0.1149
vt 0.4466 0.0818
vt 0.7531 0.4313
vt 0.3962 0.3982
vt 0.3962 0.3985
vt 0.7531 0.4316
vt 0.1442 0.0139
vt 0.0835 0.0139
vt 0.0835 0.0137
vt 0.1443 0.0137
vt 0.0964 0.0185
vt 0.0964 0.0236
vt 0.0962 0.0236
vt 0.0962 0.0191
vt 0.0964 0.0239
vt 0.1313 0.0236
vt 0.1313 0.0239
vt 0.1316 0.0236
vt 0.1313 0.0185
vt 0.1316 0.0191
vt 0.1319 0.0188
vt 0.1442 0.0185
vt 0.1443 0.0188
vt 0.1445 0.0185
vt 0.1445 0.0139
vt 0.3962 0.3375
vt 0.7531 0.3043
vt 0.7531 0.3041
vt 0.3962 0.3372
vt 0.0959 0.0188
vt 0.0835 0.0185
vt 0.0835 0.0188
vt 0.0832 0.0185
vt 0.0832 0.0139
vt 0.4466 0.0627
vt 0.8035 0.0296
vt 0.4466 0.0625
vt 0.8035 0.0293
vt 0.8207 0.5938
vt 0.8207 0.5892
vt 0.4623 0.5892
vt 0.4623 0.5938
vt 0.8050 0.1504
vt 0.8050 0.1458
vt 0.4466 0.1458
vt 0.4466 0.1504
vt 0.4466 0.0942
vt 0.8035 0.1273
vt 0.8035 0.1276
vt 0.4466 0.0944
vt 0.8050 0.1626
vt 0.8050 0.1580
vt 0.4466 0.1580
vt 0.4466 0.1626
vt 0.4062 0.3753
vt 0.4011 0.3748
vt 0.7531 0.4092
vt 0.4011 0.3608
vt 0.4062 0.3603
vt 0.7531 0.3265
vt 0.0349 0.3684
vt 0.0241 0.3684
vt 0.0241 0.7255
vt 0.0349 0.7255
vt 0.4293 0.1907
vt 0.7863 0.1907
vt 0.7863 0.1909
vt 0.4293 0.1909
vt 0.4293 0.1861
vt 0.7863 0.1861
vt 0.4293 0.1858
vt 0.7863 0.1858
vt 0.0415 0.7255
vt 0.0524 0.7255
vt 0.0524 0.3684
vt 0.0415 0.3684
vt 0.0761 0.0050
vt 0.0172 0.0050
vt 0.0172 0.3621
vt 0.0761 0.3621
vt 0.2780 0.9724
vt 0.3369 0.9724
vt 0.3369 0.6153
vt 0.2780 0.6153
vt 0.1353 0.6153
vt 0.0763 0.6153
vt 0.0763 0.9724
vt 0.1353 0.9724
vt 0.1789 0.2084
vt 0.1789 0.5655
vt 0.2076 0.5655
vt 0.2076 0.2084
vt 0.4378 0.6379
vt 0.3788 0.6379
vt 0.3788 0.9950
vt 0.4378 0.9950
vt 0.2649 0.2015
vt 0.2536 0.2015
vt 0.2536 0.5586
vt 0.2649 0.5586
vt 0.8037 0.0098
vt 0.4466 0.0098
vt 0.4466 0.0101
vt 0.8037 0.0101
vt 0.4466 0.0052
vt 0.8037 0.0052
vt 0.8037 0.0050
vt 0.4466 0.0050
vt 0.2345 0.5603
vt 0.2456 0.5603
vt 0.2456 0.2032
vt 0.2345 0.2032
vt 0.2209 0.2050
vt 0.2209 0.5620
vt 0.2211 0.5620
vt 0.2211 0.2050
vt 0.2154 0.5620
vt 0.2154 0.2050
vt 0.0096 0.0050
vt 0.0050 0.0050
vt 0.0050 0.3621
vt 0.0096 0.3621
vt 0.3669 0.1910
vt 0.3669 0.5481
vt 0.3667 0.5481
vt 0.3667 0.1910
vt 0.3768 0.1910
vt 0.3768 0.5481
vt 0.3840 0.5464
vt 0.3886 0.5464
vt 0.3886 0.1893
vt 0.3840 0.1893
vt 0.1634 0.5673
vt 0.1634 0.2102
vt 0.1632 0.2102
vt 0.1632 0.5673
vt 0.1690 0.5673
vt 0.1690 0.2102
vt 0.7538 0.9828
vt 0.7538 0.6257
vt 0.7541 0.6257
vt 0.7541 0.9828
vt 0.7440 0.6257
vt 0.7440 0.9828
vt 0.5110 0.9950
vt 0.5700 0.9950
vt 0.5700 0.6379
vt 0.5110 0.6379
vt 0.7953 0.6118
vt 0.7857 0.6118
vt 0.7857 0.9689
vt 0.7953 0.9689
vt 0.4466 0.0220
vt 0.8037 0.0220
vt 0.8037 0.0222
vt 0.4466 0.0222
vt 0.8037 0.0175
vt 0.4466 0.0175
vt 0.4466 0.0172
vt 0.8037 0.0172
vt 0.0589 0.9724
vt 0.0687 0.9724
vt 0.0687 0.6153
vt 0.0589 0.6153
vt 0.5829 0.5714
vt 0.2258 0.5714
vt 0.2258 0.5717
vt 0.5829 0.5717
vt 0.5829 0.5668
vt 0.2258 0.5668
vt 0.5829 0.5666
vt 0.2258 0.5666
vt 0.3441 0.9724
vt 0.3548 0.9724
vt 0.3548 0.6153
vt 0.3441 0.6153
vt 0.3724 0.6153
vt 0.3614 0.6153
vt 0.3614 0.9724
vt 0.3724 0.9724
vt 0.3962 0.4379
vt 0.3962 0.4425
vt 0.7546 0.4425
vt 0.7546 0.4379
vt 0.0832 0.1280
vt 0.0832 0.1234
vt 0.0835 0.1234
vt 0.0835 0.1280
vt 0.0835 0.1231
vt 0.3962 0.4630
vt 0.7531 0.4962
vt 0.7531 0.4959
vt 0.3962 0.4628
vt 0.0959 0.1231
vt 0.0964 0.1234
vt 0.0962 0.1229
vt 0.0962 0.1183
vt 0.0964 0.1183
vt 0.0832 0.0736
vt 0.4401 0.1067
vt 0.4401 0.1065
vt 0.0832 0.0733
vt 0.0964 0.1180
vt 0.1313 0.1180
vt 0.1313 0.1183
vt 0.1316 0.1183
vt 0.1316 0.1229
vt 0.1313 0.1234
vt 0.4401 0.0050
vt 0.0832 0.0381
vt 0.0832 0.0384
vt 0.4401 0.0053
vt 0.1319 0.1231
vt 0.1443 0.1231
vt 0.1442 0.1234
vt 0.1445 0.1234
vt 0.1445 0.1280
vt 0.1442 0.1280
vt 0.7531 0.5023
vt 0.3962 0.5354
vt 0.3962 0.5357
vt 0.7531 0.5025
vt 0.4401 0.1776
vt 0.0832 0.2108
vt 0.0832 0.2105
vt 0.4401 0.1774
vt 0.0832 0.0832
vt 0.4401 0.1164
vt 0.4401 0.1166
vt 0.0832 0.0835
vt 0.0835 0.1282
vt 0.1443 0.1282
vt 0.3962 0.4504
vt 0.7531 0.4835
vt 0.0989 0.5788
vt 0.0989 0.5834
vt 0.4573 0.5834
vt 0.4573 0.5788
vt 0.7531 0.4833
vt 0.3962 0.4501
vt 0.0589 0.5910
vt 0.0589 0.5956
vt 0.4173 0.5956
vt 0.4173 0.5910
vt 0.3962 0.5483
vt 0.7531 0.5152
vt 0.7531 0.5149
vt 0.3962 0.5481
vt 0.4223 0.6014
vt 0.4223 0.6060
vt 0.7807 0.6060
vt 0.7807 0.6014
vt 0.0832 0.1883
vt 0.1164 0.1851
vt 0.4301 0.1545
vt 0.4352 0.1540
vt 0.4352 0.1400
vt 0.4301 0.1395
vt 0.0832 0.1057
vt 0.3317 0.1997
vt 0.2728 0.1997
vt 0.2728 0.5568
vt 0.3317 0.5568
vt 0.5771 0.6379
vt 0.5771 0.9950
vt 0.6057 0.9950
vt 0.6057 0.6379
vt 0.5249 0.0748
vt 0.8820 0.0748
vt 0.8820 0.0746
vt 0.5249 0.0746
vt 0.5249 0.0793
vt 0.8820 0.0793
vt 0.5249 0.0796
vt 0.8820 0.0796
vt 0.7734 0.6257
vt 0.7614 0.6257
vt 0.7614 0.9828
vt 0.7734 0.9828
vt 0.8031 0.9585
vt 0.8150 0.9585
vt 0.8150 0.6014
vt 0.8031 0.6014
vt 0.3649 0.5593
vt 0.7220 0.5593
vt 0.7220 0.5595
vt 0.3649 0.5595
vt 0.7220 0.5547
vt 0.3649 0.5547
vt 0.3649 0.5544
vt 0.7220 0.5544
vt 0.2432 0.9724
vt 0.2544 0.9724
vt 0.2544 0.6153
vt 0.2432 0.6153
vt 0.2717 0.6153
vt 0.2606 0.6153
vt 0.2606 0.9724
vt 0.2717 0.9724
vt 0.6118 0.9950
vt 0.6709 0.9950
vt 0.6709 0.6379
vt 0.6118 0.6379
vt 0.7614 0.5551
vt 0.8203 0.5551
vt 0.8203 0.1980
vt 0.7614 0.1980
vt 0.5039 0.6379
vt 0.4449 0.6379
vt 0.4449 0.9950
vt 0.5039 0.9950
vt 0.1215 0.2137
vt 0.1564 0.2137
vt 0.1564 0.5707
vt 0.1215 0.5707
vt 0.0589 0.6080
vt 0.4160 0.6080
vt 0.4160 0.6082
vt 0.0589 0.6082
vt 0.4160 0.6034
vt 0.0589 0.6034
vt 0.0589 0.6031
vt 0.4160 0.6031
vt 0.1141 0.2154
vt 0.1041 0.2154
vt 0.1041 0.5725
vt 0.1141 0.5725
vt 0.4206 0.6138
vt 0.7777 0.6138
vt 0.7777 0.6136
vt 0.4206 0.6136
vt 0.7777 0.6184
vt 0.4206 0.6184
vt 0.4206 0.6187
vt 0.7777 0.6187
vt 0.0832 0.5742
vt 0.0932 0.5742
vt 0.0932 0.2171
vt 0.0832 0.2171
vn 0.0000 0.9914 -0.1306
vn 0.0000 0.7937 0.6083
vn 0.0000 0.1305 0.9914
vn 0.0000 -0.6095 0.7928
vn 0.0000 -0.9914 0.1306
vn 0.0000 0.0971 -0.9953
vn 0.0000 -0.6088 -0.7933
vn 0.0000 0.1306 -0.9914
vn 0.0000 0.7933 -0.6088
vn 0.0000 0.9914 0.1305
vn 0.0000 -0.9914 -0.1305
vn 0.0000 0.0925 0.9957
vn 0.4672 0.5223 0.7134
vn 0.7070 0.0654 0.7042
vn 0.7254 0.5088 0.4636
vn 0.7072 0.0654 0.7040
vn 0.4672 0.5222 0.7134
vn 0.7254 0.5087 -0.4637
vn 0.7070 0.0654 -0.7042
vn 0.4671 0.5222 -0.7136
vn 0.7253 0.5087 -0.4637
vn -0.7070 0.0654 -0.7042
vn -0.7254 0.5087 -0.4637
vn -0.4671 0.5222 -0.7136
vn -0.4671 0.7587 0.4540
vn -0.4671 0.7587 -0.4540
vn -0.7254 0.5087 0.4637
vn 0.3659 0.8610 -0.3533
vn 0.4671 0.7587 -0.4540
vn 0.1521 0.8526 -0.4999
vn 0.4672 0.7588 0.4539
vn 0.3659 0.8611 0.3531
vn 0.1521 0.8528 0.4996
vn 0.5203 0.8403 0.1522
vn -0.4671 0.5222 0.7136
vn -0.7070 0.0654 0.7042
vn 0.5203 0.8403 -0.1522
vn 1.0000 0.0000 0.0000
vn 0.0000 0.0925 -0.9957
vn 0.7072 0.0654 -0.7040
vn -1.0000 0.0000 0.0000
vn 0.0000 1.0000 0.0000
vn 0.0000 0.9914 -0.1305
vn 0.0000 0.7934 0.6088
vn 0.0000 -0.6088 0.7933
vn 0.0000 -0.9914 0.1305
vn 0.0000 0.0971 0.9953
vn 0.0000 -0.0000 1.0000
vn 0.0000 0.1305 -0.9914
vn 0.0000 0.7933 0.6088
vn 0.0000 0.0970 0.9953
vn 0.0000 0.1306 0.9914
vn 0.0000 0.7934 -0.6088
vn -0.7253 0.5087 -0.4637
vn -0.5203 0.8403 -0.1522
vn -0.3659 0.8610 -0.3533
vn -0.1521 0.8526 -0.4999
vn -0.7254 0.5088 0.4636
vn -0.4672 0.7588 0.4539
vn -0.4672 0.5223 0.7134
vn -0.1521 0.8528 0.4996
vn -0.3659 0.8611 0.3531
vn -0.7072 0.0654 0.7040
vn -0.5203 0.8403 0.1522
vn 0.4671 0.5222 0.7136
vn 0.4671 0.7587 0.4540
vn 0.7254 0.5087 0.4637
vn -0.7072 0.0654 -0.7040
vn 0.0000 0.0000 -1.0000
vn 0.0000 0.7937 -0.6083
vn 0.0000 -0.6095 -0.7928
vn 0.0000 -0.9914 -0.1306
vn 0.0000 0.9914 0.1306
vn 0.0000 0.0969 0.9953
vn 0.0000 0.7071 0.7071
vn 0.0000 -0.7071 0.7071
vn 0.0000 -1.0000 0.0000
vn 0.0000 0.7071 -0.7071
vn 0.0000 -0.7071 -0.7071
usemtl FrontColor
s 1
f 1/1/1 2/2/1 3/3/1 4/4/1
s 2
f 5/5/2 6/6/2 3/7/2 2/8/2
s 3
f 7/9/3 6/6/3 5/5/3 8/10/3
s 4
f 7/9/4 8/10/4 9/11/4 10/12/4
s 5
f 9/13/5 11/14/5 12/15/5 10/16/5
s 6
f 13/17/6 14/18/6 15/19/6 16/20/6
s 7
f 17/21/7 18/22/7 19/23/7 20/24/7
s 8
f 21/25/8 18/22/8 17/21/8 22/26/8
s 9
f 21/25/9 22/26/9 23/27/9 24/28/9
s 10
f 23/29/10 25/30/10 26/31/10 24/32/10
s 11
f 27/33/11 20/34/11 19/35/11 28/36/11
s 12
f 29/37/12 30/38/12 31/39/12 32/40/12
s 13
f 31/41/13 30/42/14 33/43/14 34/44/15
f 35/45/16 36/46/15 37/47/17 38/48/16
f 39/49/18 40/50/19 41/51/19 42/52/20
f 43/53/19 44/54/20 45/55/21 46/56/19
f 47/57/22 48/58/23 49/59/24 50/60/22
f 51/61/25 52/62/26 48/63/23 53/64/27
f 54/65/28 55/66/29 42/67/20 56/68/30
f 55/66/29 39/69/18 42/67/20
f 55/66/29 57/70/31 36/71/15 39/69/18
f 36/71/15 57/70/31 37/72/17
f 57/70/31 58/73/32 59/74/33 37/72/17
f 58/73/32 60/75/34 59/74/33
f 58/73/32 61/76/31 34/77/15 60/75/34
f 61/76/31 31/78/13 34/77/15
f 61/76/31 51/61/25 32/79/35 31/78/13
f 51/61/25 53/64/27 32/79/35
f 53/80/27 62/81/36 29/82/36 32/83/35
f 63/84/37 54/65/28 56/68/30
f 64/85/29 54/65/28 63/84/37 45/86/21
f 44/87/20 64/85/29 45/86/21
f 52/62/26 64/85/29 44/87/20 49/88/24
f 48/63/23 52/62/26 49/88/24
s 14
f 33/43/38 65/89/38 60/90/38 34/44/38
s 15
f 60/90/16 65/89/16 66/91/16 59/92/16
s 16
f 66/93/12 38/94/12 37/95/12 59/96/12
s 17
f 35/45/38 40/50/38 39/49/38 36/46/38
s 18
f 41/97/39 67/98/39 56/99/39 42/100/39
s 19
f 68/101/40 63/102/40 56/103/40 67/104/40
s 20
f 68/101/38 46/56/38 45/55/38 63/102/38
s 21
f 43/105/39 50/106/39 49/107/39 44/108/39
s 22
f 69/109/41 70/110/41 48/58/41 47/57/41 71/111/41
f 53/80/41 48/58/41 70/110/41 72/112/41
f 62/81/41 53/80/41 72/112/41 73/113/41 74/114/41
s 23
f 52/62/42 51/61/42 54/65/42 64/85/42
f 58/73/42 54/65/42 51/61/42 61/76/42
f 55/66/42 54/65/42 58/73/42 57/70/42
s 24
f 75/115/43 76/116/43 77/117/43 78/118/43
s 25
f 79/119/44 80/120/44 77/121/44 76/122/44
s 26
f 79/119/3 81/123/3 82/124/3 80/120/3
s 27
f 82/124/45 81/123/45 83/125/45 84/126/45
s 28
f 83/127/46 85/128/46 86/129/46 84/130/46
s 29
f 87/131/47 88/132/47 89/133/47 90/134/47
s 30
f 91/135/47 92/136/47 93/137/47 94/138/47
s 31
f 95/139/6 96/140/6 97/141/6 98/142/6
s 32
f 99/143/48 100/144/48 101/145/48 102/146/48
s 33
f 103/147/6 104/148/6 105/149/6 106/150/6
s 34
f 107/151/11 108/152/11 109/153/11 110/154/11
s 35
f 111/155/7 112/156/7 109/157/7 108/158/7
s 36
f 113/159/8 112/156/8 111/155/8 114/160/8
s 37
f 113/159/9 114/160/9 115/161/9 116/162/9
s 38
f 115/163/10 117/164/10 118/165/10 116/166/10
s 39
f 119/167/7 120/168/7 121/169/7 122/170/7
s 40
f 123/171/11 120/168/11 119/167/11 124/172/11
s 41
f 121/173/49 125/174/49 126/175/49 122/176/49
s 42
f 127/177/9 128/178/9 126/179/9 125/180/9
s 43
f 127/177/10 129/181/10 130/182/10 128/178/10
s 44
f 131/183/3 132/184/3 133/185/3 134/186/3
s 45
f 135/187/45 136/188/45 133/189/45 132/190/45
s 46
f 135/187/46 137/191/46 138/192/46 136/188/46
s 47
f 139/193/50 140/194/50 131/195/50 134/196/50
s 48
f 141/197/43 140/194/43 139/193/43 142/198/43
s 49
f 143/199/51 144/200/51 145/201/51 146/202/51
s 50
f 147/203/43 148/204/43 149/205/43 150/206/43
s 51
f 151/207/50 152/208/50 149/209/50 148/210/50
s 52
f 153/211/52 152/208/52 151/207/52 154/212/52
s 53
f 153/211/45 154/212/45 155/213/45 156/214/45
s 54
f 155/215/46 157/216/46 158/217/46 156/218/46
s 55
f 159/219/7 160/220/7 161/221/7 162/222/7
s 56
f 159/219/49 163/223/49 164/224/49 160/220/49
s 57
f 164/224/53 163/223/53 165/225/53 166/226/53
s 58
f 165/227/10 167/228/10 168/229/10 166/230/10
s 59
f 169/231/11 162/232/11 161/233/11 170/234/11
s 60
f 171/235/39 172/236/39 173/237/39 174/238/39
s 61
f 172/239/20 171/240/24 175/241/26 176/242/29
f 171/240/24 177/243/54 175/241/26
f 171/244/24 174/245/22 178/246/22 177/247/54
f 177/243/54 179/248/55 180/249/56 175/241/26
f 181/250/57 180/249/56 179/248/55
f 181/250/57 182/251/24 183/252/26 180/249/56
f 182/253/24 184/254/22 185/255/22 186/256/23
f 186/257/23 187/258/58 188/259/59 183/252/26
f 189/260/60 188/259/59 187/258/58
f 189/260/60 190/261/61 191/262/62 188/259/59
f 192/263/63 189/264/60 187/265/58 193/266/63
f 194/267/64 195/268/58 196/269/59 191/262/62
f 197/270/60 196/269/59 195/268/58
f 197/270/60 198/271/65 199/272/66 196/269/59
f 200/273/36 197/274/60 195/275/58 201/276/36
f 198/277/65 202/278/14 203/279/14 204/280/67
f 173/281/19 172/282/20 205/283/18 206/284/19
f 172/239/20 176/242/29 205/285/18
f 204/286/67 205/285/18 176/242/29 199/272/66
f 198/271/65 204/286/67 199/272/66
f 190/261/61 194/267/64 191/262/62
f 182/251/24 186/257/23 183/252/26
s 62
f 179/287/41 177/247/41 178/246/41 207/288/41
s 63
f 182/289/39 181/290/39 208/291/39 184/292/39
s 64
f 208/293/68 181/294/68 179/287/68 207/288/68
s 65
f 187/265/41 186/256/41 185/255/41 193/266/41
s 66
f 190/295/12 189/296/12 192/297/12 209/298/12
s 67
f 190/299/63 209/300/63 210/301/63 194/302/63
s 68
f 195/275/41 194/302/41 210/301/41 201/276/41
s 69
f 198/303/12 197/304/12 200/305/12 202/306/12
s 70
f 204/280/38 203/279/38 211/307/38 212/308/38 213/309/38 214/310/38
f 214/310/38 215/311/38 205/283/38 204/280/38
f 215/311/38 216/312/38 217/313/38 206/284/38 205/283/38
s 71
f 191/262/42 196/269/42 199/272/42 176/242/42
f 176/242/42 175/241/42 180/249/42 191/262/42
f 180/249/42 183/252/42 188/259/42 191/262/42
s 72
f 218/314/6 219/315/6 220/316/6 221/317/6
s 73
f 222/318/69 223/319/69 224/320/69 225/321/69
s 74
f 226/322/70 227/323/70 228/324/70 229/325/70
s 75
f 226/322/49 230/326/49 231/327/49 227/323/49
s 76
f 231/327/71 230/326/71 232/328/71 233/329/71
s 77
f 234/330/72 233/331/72 232/332/72 235/333/72
s 78
f 228/334/73 236/335/73 237/336/73 229/337/73
s 79
f 238/338/50 239/339/50 240/340/50 241/341/50
s 80
f 242/342/52 239/339/52 238/338/52 243/343/52
s 81
f 242/342/45 243/343/45 244/344/45 245/345/45
s 82
f 244/346/46 246/347/46 247/348/46 245/349/46
s 83
f 248/350/43 241/351/43 240/352/43 249/353/43
s 84
f 250/354/74 251/355/74 252/356/74 253/357/74
s 85
f 254/358/47 255/359/47 256/360/47 257/361/47
s 86
f 258/362/6 259/363/6 260/364/6 261/365/6
s 87
f 262/366/42 263/367/42 264/368/42 265/369/42
s 88
f 266/370/75 267/371/75 264/372/75 263/373/75
s 89
f 268/374/48 267/371/48 266/370/48 269/375/48
s 90
f 268/374/76 269/375/76 270/376/76 271/377/76
s 91
f 272/378/77 271/379/77 270/380/77 273/381/77
s 92
f 274/382/78 275/383/78 262/384/78 265/385/78
s 93
f 276/386/69 275/383/69 274/382/69 277/387/69
s 94
f 276/386/79 277/387/79 278/388/79 279/389/79
s 95
f 280/390/77 279/391/77 278/392/77 281/393/77
