# Blender v2.78 (sub 0) OBJ File: 'video_store_shelf_big.blend'
# www.blender.org
mtllib video_store_shelf_big.mtl
o Mesh11_Group12_Group1_Model
v 0.980000 1.240000 0.009000
v 0.980000 1.240000 0.001000
v 0.020000 1.240000 0.001000
v 0.020000 1.240000 0.009000
v 0.980000 1.239000 0.000000
v 0.020000 1.239000 0.000000
v 0.020000 1.231000 0.000000
v 0.980000 1.231000 0.000000
v 0.980000 1.230000 -0.001000
v 0.020000 1.230000 -0.001000
v 0.020000 1.230000 -0.050000
v 0.980000 1.230000 -0.050000
v 0.020000 1.239000 0.010000
v 0.980000 1.239000 0.010000
v 0.980000 1.211000 0.010000
v 0.020000 1.211000 0.010000
v 0.020000 1.210000 0.009000
v 0.980000 1.210000 0.009000
v 0.980000 1.210000 -0.050000
v 0.020000 1.210000 -0.050000
v 0.020000 2.150000 -0.050000
v 0.020000 2.150000 -0.001000
v 0.980000 2.150000 -0.001000
v 0.980000 2.150000 -0.050000
v 0.020000 2.149000 0.000000
v 0.980000 2.149000 0.000000
v 0.980000 2.001000 0.000000
v 0.020000 2.001000 0.000000
v 0.020000 2.000000 -0.001000
v 0.980000 2.000000 -0.001000
v 0.980000 2.000000 -0.050000
v 0.020000 2.000000 -0.050000
v 0.020000 0.700000 0.001000
v 0.020000 0.700000 0.009000
v 0.980000 0.700000 0.009000
v 0.980000 0.700000 0.001000
v 0.020000 0.699000 0.010000
v 0.980000 0.699000 0.010000
v 0.980000 0.671000 0.010000
v 0.020000 0.671000 0.010000
v 0.020000 0.670000 0.009000
v 0.980000 0.670000 0.009000
v 0.980000 0.670000 -0.050000
v 0.020000 0.670000 -0.050000
v 0.980000 0.699000 0.000000
v 0.020000 0.699000 0.000000
v 0.980000 0.691000 0.000000
v 0.020000 0.691000 0.000000
v 0.980000 0.690000 -0.001000
v 0.020000 0.690000 -0.001000
v 0.020000 0.690000 -0.050000
v 0.980000 0.690000 -0.050000
v 0.980000 1.490000 0.009000
v 0.980000 1.490000 0.001000
v 0.020000 1.490000 0.001000
v 0.020000 1.490000 0.009000
v 0.980000 1.489000 0.000000
v 0.020000 1.489000 0.000000
v 0.020000 1.481000 0.000000
v 0.980000 1.481000 0.000000
v 0.980000 1.480000 -0.001000
v 0.020000 1.480000 -0.001000
v 0.020000 1.480000 -0.050000
v 0.980000 1.480000 -0.050000
v 0.020000 1.489000 0.010000
v 0.980000 1.489000 0.010000
v 0.020000 1.461000 0.010000
v 0.980000 1.461000 0.010000
v 0.020000 1.460000 0.009000
v 0.980000 1.460000 0.009000
v 0.980000 1.460000 -0.050000
v 0.020000 1.460000 -0.050000
v 0.980000 0.430000 0.009000
v 0.980000 0.430000 0.001000
v 0.020000 0.430000 0.001000
v 0.020000 0.430000 0.009000
v 0.980000 0.429000 0.000000
v 0.020000 0.429000 0.000000
v 0.020000 0.421000 0.000000
v 0.980000 0.421000 0.000000
v 0.980000 0.420000 -0.001000
v 0.020000 0.420000 -0.001000
v 0.020000 0.420000 -0.050000
v 0.980000 0.420000 -0.050000
v 0.020000 0.429000 0.010000
v 0.980000 0.429000 0.010000
v 0.980000 0.401000 0.010000
v 0.020000 0.401000 0.010000
v 0.020000 0.400000 0.009000
v 0.980000 0.400000 0.009000
v 0.980000 0.400000 -0.050000
v 0.020000 0.400000 -0.050000
v 0.980000 1.760000 0.009000
v 0.980000 1.760000 0.001000
v 0.020000 1.760000 0.001000
v 0.020000 1.760000 0.009000
v 0.980000 1.759000 0.000000
v 0.020000 1.759000 0.000000
v 0.020000 1.751000 0.000000
v 0.980000 1.751000 0.000000
v 0.980000 1.750000 -0.001000
v 0.020000 1.750000 -0.001000
v 0.020000 1.750000 -0.050000
v 0.980000 1.750000 -0.050000
v 0.020000 1.759000 0.010000
v 0.980000 1.759000 0.010000
v 0.020000 1.731000 0.010000
v 0.980000 1.731000 0.010000
v 0.020000 1.730000 0.009000
v 0.980000 1.730000 0.009000
v 0.980000 1.730000 -0.050000
v 0.020000 1.730000 -0.050000
v 0.980000 0.970000 0.009000
v 0.980000 0.970000 0.001000
v 0.020000 0.970000 0.001000
v 0.020000 0.970000 0.009000
v 0.980000 0.969000 0.000000
v 0.020000 0.969000 0.000000
v 0.020000 0.961000 0.000000
v 0.980000 0.961000 0.000000
v 0.980000 0.960000 -0.001000
v 0.020000 0.960000 -0.001000
v 0.020000 0.960000 -0.050000
v 0.980000 0.960000 -0.050000
v 0.020000 0.969000 0.010000
v 0.980000 0.969000 0.010000
v 0.980000 0.941000 0.010000
v 0.020000 0.941000 0.010000
v 0.020000 0.940000 0.009000
v 0.980000 0.940000 0.009000
v 0.980000 0.940000 -0.050000
v 0.020000 0.940000 -0.050000
v 0.000000 2.000000 -0.050000
v 0.000000 0.150000 -0.050000
v 1.000000 0.150000 -0.050000
v 1.000000 2.000000 -0.050000
v 0.980000 2.149000 -0.050000
v 0.980000 0.001000 -0.050000
v 0.980000 0.001000 0.019000
v 0.980000 2.149000 0.019000
v 0.981000 0.000000 -0.050000
v 0.981000 -0.000000 0.019000
v 0.999000 -0.000000 0.019000
v 0.999000 0.000000 -0.050000
v 1.000000 0.001000 -0.050000
v 1.000000 0.001000 0.019000
v 0.999000 2.150000 -0.050000
v 0.999000 2.150000 0.019000
v 1.000000 2.149000 0.019000
v 1.000000 2.149000 -0.050000
v 0.981000 2.150000 0.019000
v 0.981000 2.150000 -0.050000
v 0.981000 2.149000 0.020000
v 0.981000 0.001000 0.020000
v 0.999000 0.001000 0.020000
v 0.999000 2.149000 0.020000
v 0.000000 2.149000 -0.050000
v 0.000000 0.001000 -0.050000
v 0.000000 0.001000 0.019000
v 0.000000 2.149000 0.019000
v 0.001000 0.000000 -0.050000
v 0.001000 -0.000000 0.019000
v 0.019000 -0.000000 0.019000
v 0.019000 0.000000 -0.050000
v 0.020000 0.001000 -0.050000
v 0.020000 0.001000 0.019000
v 0.019000 2.150000 -0.050000
v 0.019000 2.150000 0.019000
v 0.020000 2.149000 0.019000
v 0.020000 2.149000 -0.050000
v 0.001000 2.150000 0.019000
v 0.001000 2.150000 -0.050000
v 0.001000 2.149000 0.020000
v 0.001000 0.001000 0.020000
v 0.019000 0.001000 0.020000
v 0.019000 2.149000 0.020000
v 0.980000 0.130000 0.000000
v 0.020000 0.130000 0.000000
v 0.020000 0.000000 0.000000
v 0.980000 0.000000 0.000000
v 0.980000 0.160000 0.009000
v 0.980000 0.160000 0.001000
v 0.020000 0.160000 0.001000
v 0.020000 0.160000 0.009000
v 0.980000 0.159000 0.000000
v 0.020000 0.159000 0.000000
v 0.980000 0.151000 0.000000
v 0.020000 0.151000 0.000000
v 0.980000 0.150000 -0.001000
v 0.020000 0.150000 -0.001000
v 0.020000 0.150000 -0.050000
v 0.980000 0.150000 -0.050000
v 0.020000 0.159000 0.010000
v 0.980000 0.159000 0.010000
v 0.020000 0.131000 0.010000
v 0.980000 0.131000 0.010000
v 0.020000 0.130000 0.009000
v 0.980000 0.130000 0.009000
v 0.980000 0.130000 -0.050000
v 0.020000 0.130000 -0.050000
vt 0.6233 0.8073
vt 0.6206 0.8073
vt 0.6206 0.4795
vt 0.6233 0.4795
vt 0.6202 0.8073
vt 0.6202 0.4795
vt 0.6351 0.4795
vt 0.6324 0.4795
vt 0.6324 0.8073
vt 0.6351 0.8073
vt 0.6596 0.8160
vt 0.6596 0.4881
vt 0.6599 0.4881
vt 0.6599 0.8160
vt 0.6428 0.4881
vt 0.6428 0.8160
vt 0.6202 0.8331
vt 0.9481 0.8331
vt 0.9481 0.8335
vt 0.6202 0.8335
vt 0.9481 0.8236
vt 0.6202 0.8236
vt 0.6449 0.3328
vt 0.6449 0.0050
vt 0.6446 0.0050
vt 0.6446 0.3328
vt 0.6650 0.0050
vt 0.6650 0.3328
vt 0.4690 0.4795
vt 0.4858 0.4795
vt 0.4858 0.8073
vt 0.4690 0.8073
vt 0.4861 0.4795
vt 0.4861 0.8073
vt 0.5439 0.4795
vt 0.4934 0.4795
vt 0.4934 0.8073
vt 0.5439 0.8073
vt 0.5511 0.8073
vt 0.5511 0.4795
vt 0.5507 0.4795
vt 0.5507 0.8073
vt 0.5678 0.4795
vt 0.5678 0.8073
vt 0.1218 0.4795
vt 0.1245 0.4795
vt 0.1245 0.8073
vt 0.1218 0.8073
vt 0.6672 0.8071
vt 0.9950 0.8071
vt 0.9950 0.8074
vt 0.6672 0.8074
vt 0.9950 0.7975
vt 0.6672 0.7975
vt 0.0053 0.8073
vt 0.0053 0.4795
vt 0.0050 0.4795
vt 0.0050 0.8073
vt 0.0255 0.4795
vt 0.0255 0.8073
vt 0.1214 0.8073
vt 0.1214 0.4795
vt 0.0328 0.8073
vt 0.0355 0.8073
vt 0.0355 0.4795
vt 0.0328 0.4795
vt 0.0617 0.8073
vt 0.0617 0.4795
vt 0.0620 0.4795
vt 0.0620 0.8073
vt 0.0450 0.4795
vt 0.0450 0.8073
vt 0.2392 0.8247
vt 0.2365 0.8247
vt 0.2365 0.4968
vt 0.2392 0.4968
vt 0.2361 0.8247
vt 0.2361 0.4968
vt 0.2493 0.4968
vt 0.2466 0.4968
vt 0.2466 0.8247
vt 0.2493 0.8247
vt 0.0860 0.8073
vt 0.0860 0.4795
vt 0.0864 0.4795
vt 0.0864 0.8073
vt 0.0693 0.4795
vt 0.0693 0.8073
vt 0.6672 0.7723
vt 0.9950 0.7723
vt 0.9950 0.7726
vt 0.6672 0.7726
vt 0.6672 0.7627
vt 0.9950 0.7627
vt 0.0940 0.8073
vt 0.0940 0.4795
vt 0.0936 0.4795
vt 0.0936 0.8073
vt 0.1141 0.4795
vt 0.1141 0.8073
vt 0.1349 0.8247
vt 0.1322 0.8247
vt 0.1322 0.4968
vt 0.1349 0.4968
vt 0.1319 0.8247
vt 0.1319 0.4968
vt 0.1468 0.4968
vt 0.1440 0.4968
vt 0.1440 0.8247
vt 0.1468 0.8247
vt 0.1729 0.8247
vt 0.1729 0.4968
vt 0.1733 0.4968
vt 0.1733 0.8247
vt 0.1562 0.4968
vt 0.1562 0.8247
vt 0.2848 0.8244
vt 0.6127 0.8244
vt 0.6127 0.8248
vt 0.2848 0.8248
vt 0.6127 0.8149
vt 0.2848 0.8149
vt 0.1809 0.8247
vt 0.1809 0.4968
vt 0.1805 0.4968
vt 0.1805 0.8247
vt 0.2010 0.4968
vt 0.2010 0.8247
vt 0.5781 0.8073
vt 0.5754 0.8073
vt 0.5754 0.4795
vt 0.5781 0.4795
vt 0.5750 0.8073
vt 0.5750 0.4795
vt 0.5882 0.4795
vt 0.5855 0.4795
vt 0.5855 0.8073
vt 0.5882 0.8073
vt 0.6126 0.8073
vt 0.6126 0.4795
vt 0.6130 0.4795
vt 0.6130 0.8073
vt 0.5959 0.4795
vt 0.5959 0.8073
vt 0.6672 0.7897
vt 0.9950 0.7897
vt 0.9950 0.7900
vt 0.6672 0.7900
vt 0.6672 0.7801
vt 0.9950 0.7801
vt 0.2087 0.8247
vt 0.2087 0.4968
vt 0.2083 0.4968
vt 0.2083 0.8247
vt 0.2288 0.4968
vt 0.2288 0.8247
vt 0.7276 0.3328
vt 0.7248 0.3328
vt 0.7248 0.0050
vt 0.7276 0.0050
vt 0.7245 0.3328
vt 0.7245 0.0050
vt 0.7377 0.0050
vt 0.7349 0.0050
vt 0.7349 0.3328
vt 0.7377 0.3328
vt 0.7899 0.3398
vt 0.7899 0.0120
vt 0.7902 0.0120
vt 0.7902 0.3398
vt 0.7732 0.0120
vt 0.7732 0.3398
vt 0.6672 0.7549
vt 0.9950 0.7549
vt 0.9950 0.7553
vt 0.6672 0.7553
vt 0.9950 0.7454
vt 0.6672 0.7454
vt 0.2573 0.8247
vt 0.2573 0.4968
vt 0.2570 0.4968
vt 0.2570 0.8247
vt 0.2775 0.4968
vt 0.2775 0.8247
vt 0.0050 0.3465
vt 0.6368 0.3465
vt 0.6368 0.0050
vt 0.0050 0.0050
vt 0.0053 0.4095
vt 0.7389 0.4095
vt 0.7389 0.3859
vt 0.0053 0.3859
vt 0.7392 0.4095
vt 0.7392 0.3859
vt 0.0050 0.3779
vt 0.0050 0.3543
vt 0.0053 0.3543
vt 0.0053 0.3779
vt 0.7392 0.3543
vt 0.7392 0.3779
vt 0.7389 0.3779
vt 0.7389 0.3543
vt 0.0050 0.3859
vt 0.0050 0.4095
vt 0.0053 0.3856
vt 0.7389 0.3856
vt 0.7454 0.0050
vt 0.7515 0.0050
vt 0.7515 0.0053
vt 0.7454 0.0053
vt 0.0053 0.3782
vt 0.7389 0.3782
vt 0.7515 0.7392
vt 0.7454 0.7392
vt 0.7454 0.7389
vt 0.7515 0.7389
vt 0.3397 0.5030
vt 0.3397 0.4968
vt 0.3161 0.4968
vt 0.3161 0.5030
vt 0.2848 0.5030
vt 0.2848 0.4968
vt 0.3084 0.4968
vt 0.3084 0.5030
vt 0.0053 0.4405
vt 0.7389 0.4405
vt 0.7389 0.4169
vt 0.0053 0.4169
vt 0.4022 0.5033
vt 0.3787 0.5033
vt 0.3787 0.5037
vt 0.4022 0.5037
vt 0.3787 0.4972
vt 0.4022 0.4972
vt 0.4022 0.4968
vt 0.3787 0.4968
vt 0.7389 0.4482
vt 0.7389 0.4717
vt 0.7386 0.4717
vt 0.7386 0.4482
vt 0.0050 0.4169
vt 0.0050 0.4405
vt 0.7596 0.7392
vt 0.7593 0.7389
vt 0.7596 0.7389
vt 0.7593 0.0053
vt 0.7596 0.0053
vt 0.7596 0.0050
vt 0.7657 0.0050
vt 0.7657 0.0053
vt 0.7661 0.0053
vt 0.7661 0.7389
vt 0.7657 0.7389
vt 0.7657 0.7392
vt 0.0050 0.4482
vt 0.0050 0.4717
vt 0.3474 0.5030
vt 0.3474 0.4968
vt 0.3709 0.4968
vt 0.3709 0.5030
vt 0.6724 0.0050
vt 0.6724 0.3328
vt 0.7168 0.3328
vt 0.7168 0.0050
vt 0.8006 0.3328
vt 0.7978 0.3328
vt 0.7978 0.0050
vt 0.8006 0.0050
vt 0.7975 0.3328
vt 0.7975 0.0050
vt 0.7732 0.6752
vt 0.7759 0.6752
vt 0.7759 0.3474
vt 0.7732 0.3474
vt 0.8003 0.6839
vt 0.8003 0.3561
vt 0.8007 0.3561
vt 0.8007 0.6839
vt 0.7836 0.3561
vt 0.7836 0.6839
vt 0.1336 0.4890
vt 0.4615 0.4890
vt 0.4615 0.4894
vt 0.1336 0.4894
vt 0.1336 0.4795
vt 0.4615 0.4795
vt 0.8083 0.3415
vt 0.8083 0.0137
vt 0.8079 0.0137
vt 0.8079 0.3415
vt 0.8284 0.0137
vt 0.8284 0.3415
vn 0.0000 1.0000 0.0000
vn 0.0000 0.7071 -0.7071
vn 0.0000 0.0000 -1.0000
vn 0.0000 0.7072 -0.7071
vn 0.0000 0.7071 0.7071
vn 0.0000 -0.0000 1.0000
vn 0.0000 -0.7072 0.7071
vn 0.0000 -1.0000 0.0000
vn 0.0000 -0.7071 0.7071
vn -1.0000 -0.0000 0.0000
vn -0.7071 -0.7071 -0.0000
vn -0.4765 -0.7388 0.4765
vn -0.7388 -0.4765 0.4765
vn 0.4765 -0.7388 0.4765
vn 0.7071 -0.7071 -0.0000
vn 0.7388 -0.4765 0.4765
vn 0.7072 0.7070 0.0000
vn 0.4766 0.7388 0.4766
vn 0.7389 0.4764 0.4765
vn -0.4766 0.7388 0.4766
vn -0.7072 0.7070 0.0000
vn -0.7389 0.4764 0.4765
vn -0.4765 0.4765 0.7388
vn -0.4765 -0.4765 0.7388
vn 0.4765 -0.4765 0.7388
vn 0.4765 0.4765 0.7388
vn 1.0000 0.0000 0.0000
vn 0.7389 0.4765 0.4765
usemtl FrontColor
s 1
f 1/1/1 2/2/1 3/3/1 4/4/1
s 2
f 3/3/2 2/2/2 5/5/2 6/6/2
s 3
f 7/7/3 6/8/3 5/9/3 8/10/3
s 4
f 9/11/4 10/12/4 7/13/4 8/14/4
s 5
f 11/15/1 10/12/1 9/11/1 12/16/1
s 6
f 13/17/5 14/18/5 1/19/5 4/20/5
s 7
f 15/21/6 14/18/6 13/17/6 16/22/6
s 8
f 17/23/7 18/24/7 15/25/7 16/26/7
s 9
f 19/27/8 18/24/8 17/23/8 20/28/8
s 10
f 21/29/1 22/30/1 23/31/1 24/32/1
s 11
f 23/31/5 22/30/5 25/33/5 26/34/5
s 12
f 27/35/6 26/36/6 25/37/6 28/38/6
s 13
f 29/39/7 30/40/7 27/41/7 28/42/7
s 14
f 31/43/8 30/40/8 29/39/8 32/44/8
s 15
f 33/45/1 34/46/1 35/47/1 36/48/1
s 16
f 37/49/5 38/50/5 35/51/5 34/52/5
s 17
f 39/53/6 38/50/6 37/49/6 40/54/6
s 18
f 41/55/9 42/56/9 39/57/9 40/58/9
s 19
f 43/59/8 42/56/8 41/55/8 44/60/8
s 20
f 33/45/2 36/48/2 45/61/2 46/62/2
s 21
f 45/63/3 47/64/3 48/65/3 46/66/3
s 22
f 49/67/2 50/68/2 48/69/2 47/70/2
s 23
f 51/71/1 50/68/1 49/67/1 52/72/1
s 24
f 53/73/1 54/74/1 55/75/1 56/76/1
s 25
f 55/75/2 54/74/2 57/77/2 58/78/2
s 26
f 59/79/3 58/80/3 57/81/3 60/82/3
s 27
f 61/83/4 62/84/4 59/85/4 60/86/4
s 28
f 63/87/1 62/84/1 61/83/1 64/88/1
s 29
f 65/89/5 66/90/5 53/91/5 56/92/5
s 30
f 65/89/6 67/93/6 68/94/6 66/90/6
s 31
f 69/95/7 70/96/7 68/97/7 67/98/7
s 32
f 71/99/8 70/96/8 69/95/8 72/100/8
s 33
f 73/101/1 74/102/1 75/103/1 76/104/1
s 34
f 75/103/2 74/102/2 77/105/2 78/106/2
s 35
f 79/107/3 78/108/3 77/109/3 80/110/3
s 36
f 81/111/2 82/112/2 79/113/2 80/114/2
s 37
f 83/115/1 82/112/1 81/111/1 84/116/1
s 38
f 85/117/5 86/118/5 73/119/5 76/120/5
s 39
f 87/121/6 86/118/6 85/117/6 88/122/6
s 40
f 89/123/9 90/124/9 87/125/9 88/126/9
s 41
f 91/127/8 90/124/8 89/123/8 92/128/8
s 42
f 93/129/1 94/130/1 95/131/1 96/132/1
s 43
f 95/131/2 94/130/2 97/133/2 98/134/2
s 44
f 99/135/3 98/136/3 97/137/3 100/138/3
s 45
f 101/139/2 102/140/2 99/141/2 100/142/2
s 46
f 103/143/1 102/140/1 101/139/1 104/144/1
s 47
f 105/145/5 106/146/5 93/147/5 96/148/5
s 48
f 105/145/6 107/149/6 108/150/6 106/146/6
s 49
f 109/151/7 110/152/7 108/153/7 107/154/7
s 50
f 111/155/8 110/152/8 109/151/8 112/156/8
s 51
f 113/157/1 114/158/1 115/159/1 116/160/1
s 52
f 115/159/2 114/158/2 117/161/2 118/162/2
s 53
f 119/163/3 118/164/3 117/165/3 120/166/3
s 54
f 121/167/2 122/168/2 119/169/2 120/170/2
s 55
f 123/171/1 122/168/1 121/167/1 124/172/1
s 56
f 125/173/5 126/174/5 113/175/5 116/176/5
s 57
f 127/177/6 126/174/6 125/173/6 128/178/6
s 58
f 129/179/9 130/180/9 127/181/9 128/182/9
s 59
f 131/183/8 130/180/8 129/179/8 132/184/8
s 60
f 133/185/6 134/186/6 135/187/6 136/188/6
s 61
f 137/189/10 138/190/10 139/191/10 140/192/10
s 62
f 141/193/11 142/194/12 139/191/13 138/190/11
f 143/195/14 144/196/15 145/197/15 146/198/16
f 147/199/17 148/200/18 149/201/19 150/202/17
f 151/203/20 152/204/21 137/189/21 140/192/22
f 151/203/20 140/192/22 153/205/23
f 140/192/22 139/191/13 154/206/24 153/205/23
f 139/191/13 142/194/12 154/206/24
f 142/207/12 143/208/14 155/209/25 154/210/24
f 143/195/14 146/198/16 155/211/25
f 146/198/16 149/201/19 156/212/26 155/211/25
f 149/201/19 148/200/18 156/212/26
f 148/213/18 151/214/20 153/215/23 156/216/26
s 63
f 141/217/8 144/218/8 143/219/8 142/220/8
s 64
f 145/197/27 150/202/27 149/201/27 146/198/27
s 65
f 147/221/1 152/222/1 151/223/1 148/224/1
s 66
f 156/216/6 153/215/6 154/210/6 155/209/6
s 67
f 157/225/10 158/226/10 159/227/10 160/228/10
s 68
f 161/229/11 162/230/12 159/231/13 158/232/11
f 163/233/14 164/234/15 165/235/15 166/236/16
f 167/237/17 168/238/18 169/239/28 170/240/17
f 171/241/20 172/242/21 157/225/21 160/228/22
f 171/243/20 160/244/22 173/245/23
f 160/244/22 159/246/13 174/247/24 173/245/23
f 159/246/13 162/248/12 174/247/24
f 162/248/12 163/249/14 175/250/25 174/247/24
f 163/249/14 166/251/16 175/250/25
f 166/251/16 169/252/28 176/253/26 175/250/25
f 169/252/28 168/254/18 176/253/26
f 168/254/18 171/243/20 173/245/23 176/253/26
s 69
f 161/229/8 164/234/8 163/233/8 162/230/8
s 70
f 165/255/27 170/240/27 169/239/27 166/256/27
s 71
f 167/257/1 172/258/1 171/259/1 168/260/1
s 72
f 174/247/6 175/250/6 176/253/6 173/245/6
s 73
f 177/261/6 178/262/6 179/263/6 180/264/6
s 74
f 181/265/1 182/266/1 183/267/1 184/268/1
s 75
f 183/267/2 182/266/2 185/269/2 186/270/2
s 76
f 185/271/3 187/272/3 188/273/3 186/274/3
s 77
f 189/275/2 190/276/2 188/277/2 187/278/2
s 78
f 191/279/1 190/276/1 189/275/1 192/280/1
s 79
f 193/281/5 194/282/5 181/283/5 184/284/5
s 80
f 193/281/6 195/285/6 196/286/6 194/282/6
s 81
f 197/287/9 198/288/9 196/289/9 195/290/9
s 82
f 199/291/8 198/288/8 197/287/8 200/292/8
