# Blender v2.78 (sub 0) OBJ File: 'video_store_poster_01.blend'
# www.blender.org
mtllib video_store_poster_01.mtl
o Mesh2_Group1_Model
v -0.086880 -0.431774 0.007952
v -0.299848 -0.308817 0.007952
v -0.299640 -0.349443 0.013351
v -0.157661 -0.431414 0.013351
v -0.015998 -0.431959 0.004088
v -0.299955 -0.268017 0.004088
v 0.054952 -0.432028 0.001767
v -0.299994 -0.227099 0.001767
v 0.116635 -0.426667 0.000992
v -0.300000 -0.186123 0.000993
v 0.110879 -0.432035 0.001157
v 0.300000 -0.255677 0.000992
v 0.173881 -0.431997 0.002867
v 0.299963 -0.314424 0.002867
v 0.125935 -0.432037 0.001099
v 0.299703 -0.372932 0.008477
v 0.236662 -0.431718 0.008477
v 0.298999 -0.430963 0.017780
v -0.300000 0.467963 0.000993
v 0.300000 0.467963 0.000993
v -0.299298 -0.389835 0.020275
v -0.228308 -0.430821 0.020275
v -0.298788 -0.429938 0.028711
v -0.299640 -0.349443 0.013351
v -0.299848 -0.308817 0.007952
v -0.299913 -0.308929 0.006968
v -0.299726 -0.349592 0.012373
v -0.299955 -0.268017 0.004088
v -0.299998 -0.268092 0.003099
v -0.299994 -0.227099 0.001767
v -0.300016 -0.227137 0.000775
v -0.300000 -0.186123 0.000993
v -0.300005 -0.186133 -0.000000
v -0.298788 -0.429938 0.028711
v -0.299298 -0.389835 0.020275
v -0.299405 -0.390021 0.019306
v -0.298906 -0.430142 0.027747
v -0.300000 0.467963 0.000993
v -0.300000 0.467963 0.000000
v 0.300000 0.467963 0.000993
v 0.300000 0.467963 0.000000
v 0.300000 -0.255677 0.000992
v 0.300015 -0.255692 -0.000000
v 0.299963 -0.314424 0.002867
v 0.300022 -0.314487 0.001878
v 0.299703 -0.372932 0.008477
v 0.299821 -0.373058 0.007499
v 0.298999 -0.430963 0.017780
v 0.299145 -0.431120 0.016811
v 0.236662 -0.431718 0.008477
v 0.236779 -0.431845 0.007499
v 0.173881 -0.431997 0.002867
v 0.174005 -0.432000 0.001878
v 0.125935 -0.432037 0.001099
v 0.125952 -0.432028 0.000106
v 0.110879 -0.432035 0.001157
v 0.110871 -0.432058 0.000164
v 0.054952 -0.432028 0.001767
v 0.054930 -0.432065 0.000775
v -0.015998 -0.431959 0.004088
v -0.016041 -0.432034 0.003099
v -0.086880 -0.431774 0.007952
v -0.086945 -0.431886 0.006968
v -0.157661 -0.431414 0.013351
v -0.157748 -0.431563 0.012373
v -0.228308 -0.430821 0.020275
v -0.228416 -0.431007 0.019306
v 0.116650 -0.426683 -0.000000
vt 0.1797 0.0052
vt 0.0051 0.1060
vt 0.0053 0.0727
vt 0.1217 0.0055
vt 0.2378 0.0051
vt 0.0050 0.1395
vt 0.2960 0.0050
vt 0.0050 0.1730
vt 0.3465 0.0094
vt 0.0050 0.2066
vt 0.3418 0.0050
vt 0.4968 0.1496
vt 0.3935 0.0050
vt 0.4968 0.1014
vt 0.3542 0.0050
vt 0.4966 0.0535
vt 0.4449 0.0053
vt 0.4960 0.0059
vt 0.0050 0.7428
vt 0.4968 0.7428
vt 0.0056 0.0396
vt 0.0638 0.0060
vt 0.0060 0.0067
vt 0.8193 0.7699
vt 0.7860 0.7744
vt 0.7861 0.7752
vt 0.8195 0.7707
vt 0.7526 0.7775
vt 0.7527 0.7783
vt 0.7191 0.7794
vt 0.7191 0.7802
vt 0.6855 0.7801
vt 0.6855 0.7809
vt 0.8853 0.7573
vt 0.8525 0.7643
vt 0.8526 0.7650
vt 0.8855 0.7581
vt 0.1493 0.7801
vt 0.1493 0.7809
vt 0.5349 0.2128
vt 0.5349 0.7047
vt 0.5340 0.7047
vt 0.5340 0.2128
vt 0.7420 0.7513
vt 0.1488 0.7513
vt 0.1488 0.7505
vt 0.7420 0.7505
vt 0.1007 0.7528
vt 0.1006 0.7520
vt 0.0527 0.7574
vt 0.0526 0.7566
vt 0.0051 0.7650
vt 0.0050 0.7642
vt 0.5121 0.2130
vt 0.5197 0.2641
vt 0.5205 0.2640
vt 0.5129 0.2128
vt 0.5243 0.3155
vt 0.5251 0.3154
vt 0.5258 0.3548
vt 0.5266 0.3548
vt 0.5257 0.3672
vt 0.5265 0.3672
vt 0.5252 0.4130
vt 0.5260 0.4130
vt 0.5233 0.4712
vt 0.5241 0.4712
vt 0.5201 0.5293
vt 0.5209 0.5293
vt 0.5157 0.5873
vt 0.5165 0.5874
vt 0.5100 0.6452
vt 0.5108 0.6453
vt 0.5031 0.7030
vt 0.5039 0.7031
vt 0.5550 0.2064
vt 0.6064 0.2065
vt 0.5031 0.1102
vt 0.5033 0.1582
vt 0.6534 0.2022
vt 0.5031 0.0620
vt 0.6458 0.2066
vt 0.9363 0.2057
vt 0.9945 0.1721
vt 0.9948 0.1390
vt 0.8784 0.2062
vt 0.9941 0.2050
vt 0.9949 0.1057
vt 0.8203 0.2065
vt 0.9950 0.0722
vt 0.7622 0.2066
vt 0.9950 0.0386
vt 0.7040 0.2066
vt 0.6582 0.2066
vt 0.9950 0.0050
vt 0.5038 0.2058
vn 0.0653 0.1130 0.9914
vn 0.0868 0.1504 0.9848
vn 0.0436 0.0755 0.9962
vn 0.0218 0.0378 0.9990
vn -0.0104 0.0067 0.9999
vn 0.0036 0.0063 1.0000
vn 0.0074 0.0227 0.9997
vn -0.0099 0.0106 0.9999
vn -0.0519 0.0279 0.9983
vn -0.0594 0.0637 0.9962
vn -0.0165 -0.0086 0.9998
vn -0.1184 0.1270 0.9848
vn -0.1476 0.1583 0.9763
vn 0.0000 -0.0000 1.0000
vn 0.1082 0.1874 0.9763
vn 0.1188 0.2058 0.9713
vn -0.9962 0.0069 0.0866
vn -0.9979 0.0040 0.0652
vn -0.9990 0.0020 0.0435
vn -0.9997 0.0007 0.0231
vn -1.0000 0.0002 0.0081
vn -1.0000 0.0002 0.0080
vn -0.9935 0.0114 0.1134
vn -0.9944 0.0099 0.1053
vn -1.0000 0.0000 0.0025
vn 0.0000 1.0000 0.0000
vn 1.0000 0.0000 0.0076
vn 0.9997 0.0005 0.0224
vn 0.9980 0.0028 0.0633
vn 0.9938 0.0071 0.1111
vn 0.9911 0.0095 0.1330
vn -0.0096 -0.9897 0.1430
vn -0.0083 -0.9907 0.1355
vn -0.0048 -0.9958 0.0917
vn -0.0013 -0.9991 0.0428
vn 0.0015 -1.0000 0.0003
vn 0.0009 -1.0000 0.0020
vn 0.0006 -0.9998 0.0186
vn 0.0007 -0.9991 0.0433
vn 0.0020 -0.9972 0.0753
vn 0.0040 -0.9936 0.1128
vn 0.0040 -0.9936 0.1129
vn 0.0069 -0.9886 0.1501
vn 0.0099 -0.9831 0.1826
vn 0.0114 -0.9804 0.1965
vn 0.1184 -0.1270 -0.9848
vn 0.0519 -0.0278 -0.9983
vn 0.0594 -0.0638 -0.9962
vn 0.0104 -0.0066 -0.9999
vn 0.0149 -0.0160 -0.9998
vn 0.0165 0.0089 -0.9998
vn -0.1082 -0.1875 -0.9763
vn -0.1082 -0.1874 -0.9763
vn -0.0868 -0.1504 -0.9848
vn -0.1188 -0.2058 -0.9713
vn -0.0653 -0.1130 -0.9914
vn -0.0652 -0.1130 -0.9914
vn -0.0436 -0.0755 -0.9962
vn -0.0218 -0.0378 -0.9990
vn -0.0074 -0.0226 -0.9997
vn -0.0054 -0.0094 -0.9999
vn 0.1476 -0.1583 -0.9763
usemtl FrontColor
s 1
f 1/1/1 2/2/1 3/3/2 4/4/2
f 5/5/3 6/6/3 2/2/1 1/1/1
f 7/7/4 8/8/4 6/6/3 5/5/3
f 9/9/5 10/10/6 8/8/4 7/7/4 11/11/7
f 9/9/5 12/12/8 10/10/6
f 12/12/8 9/9/5 13/13/9 14/14/10
f 15/15/11 13/13/9 9/9/5
f 15/15/11 9/9/5 11/11/7
f 16/16/12 14/14/10 13/13/9 17/17/12
f 18/18/13 16/16/12 17/17/12
f 19/19/14 10/10/6 12/12/8 20/20/14
f 4/4/2 3/3/2 21/21/15 22/22/15
f 23/23/16 22/22/15 21/21/15
s 2
f 24/24/17 25/25/18 26/26/18 27/27/17
f 25/25/18 28/28/19 29/29/19 26/26/18
f 28/28/19 30/30/20 31/31/20 29/29/19
f 30/30/20 32/32/21 33/33/22 31/31/20
f 34/34/23 35/35/24 36/36/24 37/37/23
f 35/35/24 24/24/17 27/27/17 36/36/24
s 3
f 32/32/21 38/38/25 39/39/25 33/33/21
s 4
f 38/40/26 40/41/26 41/42/26 39/43/26
s 5
f 40/44/27 42/45/28 43/46/28 41/47/27
f 42/45/28 44/48/29 45/49/29 43/46/28
f 44/48/29 46/50/30 47/51/30 45/49/29
f 46/50/30 48/52/31 49/53/31 47/51/30
s 6
f 48/54/32 50/55/33 51/56/34 49/57/32
f 50/55/33 52/58/35 51/56/34
f 53/59/36 51/56/34 52/58/35
f 52/58/35 54/60/37 55/61/37 53/59/36
f 54/60/37 56/62/38 57/63/38 55/61/37
f 56/62/38 58/64/39 59/65/39 57/63/38
f 58/64/39 60/66/40 61/67/40 59/65/39
f 60/66/40 62/68/41 63/69/42 61/67/40
f 62/68/41 64/70/43 65/71/43 63/69/42
f 64/70/43 66/72/44 67/73/44 65/71/43
f 66/72/44 34/74/45 37/75/45 67/73/44
s 7
f 51/76/46 53/77/47 45/78/48 47/79/46
f 45/78/48 53/77/47 68/80/49 43/81/50
f 68/80/49 53/77/47 55/82/51
f 67/83/52 36/84/53 27/85/54 65/86/54
f 36/84/53 67/83/52 37/87/55
f 65/86/54 27/85/54 26/88/56 63/89/57
f 63/89/57 26/88/56 29/90/58 61/91/58
f 61/91/58 29/90/58 31/92/59 59/93/59
f 57/94/60 59/93/59 31/92/59 33/95/61 68/80/49
f 33/95/61 43/81/50 68/80/49
f 57/94/60 68/80/49 55/82/51
f 51/76/46 47/79/46 49/96/62
