# Blender v2.78 (sub 0) OBJ File: 'video_store_counter.blend'
# www.blender.org
mtllib video_store_counter.mtl
o Mesh4_Group2_Group1_Model
v -0.285000 -0.000000 0.990000
v -0.285000 0.060000 0.990000
v -0.285000 0.060000 -0.990000
v -0.285000 0.000000 -0.990000
v -0.280000 0.120000 -0.990000
v -0.280000 0.120000 0.990000
v -0.275000 0.120000 0.990000
v -0.275000 0.120000 -0.990000
v -0.165000 0.968000 -1.100000
v 0.165000 0.968000 -1.100000
v 0.165000 0.000000 -1.100000
v -0.165000 0.000000 -1.100000
v -0.165000 -0.000000 1.100000
v 0.165000 -0.000000 1.100000
v 0.165000 0.968000 1.100000
v -0.165000 0.968000 1.100000
v 0.167000 0.968000 -1.111000
v 0.284000 0.968000 -1.111000
v 0.284000 0.000000 -1.111000
v 0.167000 0.000000 -1.111000
v 0.286000 0.968000 -1.109000
v 0.286000 0.000000 -1.109000
v 0.286000 0.000000 -0.992000
v 0.286000 0.968000 -0.992000
v 0.284000 0.968000 -0.990000
v 0.284000 0.000000 -0.990000
v 0.275000 0.000000 -0.990000
v 0.275000 0.968000 -0.990000
v 0.165000 0.000000 -1.109000
v 0.165000 0.968000 -1.109000
v 0.165000 0.968000 -1.100000
v 0.165000 0.000000 -1.100000
v 0.288298 1.021000 -1.115300
v 0.288298 0.970000 -1.115300
v -0.288298 0.970000 -1.115300
v -0.288298 1.021000 -1.115300
v 0.290298 1.021000 -1.113300
v 0.290298 0.970000 -1.113300
v 0.290298 0.970000 1.113300
v 0.290298 1.021000 1.113300
v 0.288298 1.021000 1.115300
v 0.288298 0.970000 1.115300
v 0.288298 1.023000 1.113300
v 0.288298 1.023000 -1.113300
v -0.288298 1.023000 -1.113300
v -0.290298 1.021000 -1.113300
v -0.290298 0.970000 -1.113300
v -0.288298 0.968000 -1.113300
v 0.288298 0.968000 -1.113300
v -0.288298 0.968000 1.113300
v -0.290298 0.970000 1.113300
v -0.288298 0.970000 1.115300
v 0.288298 0.968000 1.113300
v -0.288298 1.023000 1.113300
v -0.288298 1.021000 1.115300
v -0.290298 1.021000 1.113300
v 0.275000 1.023000 -1.100000
v 0.275000 1.023000 1.100000
v -0.275000 1.023000 -1.100000
v -0.275000 1.023000 1.100000
v 0.275000 0.968000 -1.100000
v -0.275000 0.968000 -1.100000
v -0.275000 0.968000 1.100000
v 0.275000 0.968000 1.100000
v -0.165000 0.000000 -1.110000
v -0.165000 0.060000 -1.110000
v 0.165000 0.060000 -1.110000
v 0.165000 0.000000 -1.110000
v 0.165000 0.120000 -1.105000
v -0.165000 0.120000 -1.105000
v -0.165000 0.120000 -1.100000
v 0.165000 0.120000 -1.100000
v 0.286000 -0.000000 1.109000
v 0.286000 -0.000000 0.992000
v 0.286000 0.968000 0.992000
v 0.286000 0.968000 1.109000
v 0.284000 -0.000000 0.990000
v 0.284000 0.968000 0.990000
v 0.275000 0.968000 0.990000
v 0.275000 -0.000000 0.990000
v 0.284000 0.968000 1.111000
v 0.284000 -0.000000 1.111000
v 0.167000 0.968000 1.111000
v 0.167000 -0.000000 1.111000
v 0.165000 0.968000 1.109000
v 0.165000 -0.000000 1.109000
v 0.165000 -0.000000 1.100000
v 0.165000 0.968000 1.100000
v 0.275000 0.968000 0.990000
v 0.275000 0.120000 0.990000
v 0.275000 0.120000 -0.990000
v 0.275000 0.968000 -0.990000
v 0.275000 1.023000 -1.100000
v -0.275000 1.023000 -1.100000
v -0.275000 1.023000 1.100000
v 0.275000 1.023000 1.100000
v 0.285000 0.000000 -0.990000
v 0.285000 0.060000 -0.990000
v 0.285000 0.060000 0.990000
v 0.285000 -0.000000 0.990000
v 0.280000 0.120000 0.990000
v 0.280000 0.120000 -0.990000
v 0.275000 0.120000 -0.990000
v 0.275000 0.120000 0.990000
v 0.165000 -0.000000 1.110000
v 0.165000 0.060000 1.110000
v -0.165000 0.060000 1.110000
v -0.165000 -0.000000 1.110000
v -0.165000 0.120000 1.105000
v 0.165000 0.120000 1.105000
v 0.165000 0.120000 1.100000
v -0.165000 0.120000 1.100000
v -0.286000 0.000000 -1.109000
v -0.286000 0.000000 -0.992000
v -0.286000 0.968000 -0.992000
v -0.286000 0.968000 -1.109000
v -0.284000 0.000000 -0.990000
v -0.284000 0.968000 -0.990000
v -0.275000 0.968000 -0.990000
v -0.275000 0.000000 -0.990000
v -0.284000 0.968000 -1.111000
v -0.284000 0.000000 -1.111000
v -0.167000 0.968000 -1.111000
v -0.167000 0.000000 -1.111000
v -0.165000 0.968000 -1.109000
v -0.165000 0.000000 -1.109000
v -0.165000 0.000000 -1.100000
v -0.165000 0.968000 -1.100000
v -0.284000 -0.000000 1.111000
v -0.167000 -0.000000 1.111000
v -0.167000 0.968000 1.111000
v -0.284000 0.968000 1.111000
v -0.165000 -0.000000 1.109000
v -0.165000 0.968000 1.109000
v -0.165000 0.968000 1.100000
v -0.165000 -0.000000 1.100000
v -0.286000 0.968000 1.109000
v -0.286000 -0.000000 1.109000
v -0.286000 0.968000 0.992000
v -0.286000 -0.000000 0.992000
v -0.284000 0.968000 0.990000
v -0.284000 -0.000000 0.990000
v -0.275000 -0.000000 0.990000
v -0.275000 0.968000 0.990000
v -0.275000 0.968000 -0.990000
v -0.275000 0.120000 -0.990000
v -0.275000 0.120000 0.990000
v -0.275000 0.968000 0.990000
vt 0.4539 0.0050
vt 0.4395 0.0050
vt 0.4395 0.4800
vt 0.4539 0.4800
vt 0.4251 0.4800
vt 0.4251 0.0050
vt 0.0149 0.6351
vt 0.4900 0.6351
vt 0.4900 0.6363
vt 0.0149 0.6363
vt 0.0149 0.6517
vt 0.0149 0.7309
vt 0.2472 0.7309
vt 0.2472 0.6517
vt 0.7020 0.0941
vt 0.7020 0.0149
vt 0.4698 0.0149
vt 0.4698 0.0941
vt 0.6505 0.1505
vt 0.6224 0.1505
vt 0.6224 0.3828
vt 0.6505 0.3828
vt 0.6219 0.1505
vt 0.6219 0.3828
vt 0.2531 0.6798
vt 0.2531 0.6517
vt 0.4853 0.6517
vt 0.4853 0.6798
vt 0.5265 0.3828
vt 0.5265 0.1505
vt 0.5270 0.1505
vt 0.5270 0.3828
vt 0.5243 0.1505
vt 0.5243 0.3828
vt 0.6509 0.3828
vt 0.6509 0.1505
vt 0.4698 0.1109
vt 0.4698 0.1130
vt 0.7020 0.1130
vt 0.7020 0.1109
vt 0.5061 0.2889
vt 0.5184 0.2889
vt 0.5184 0.1505
vt 0.5061 0.1505
vt 0.5800 0.1510
vt 0.5678 0.1510
vt 0.5678 0.1505
vt 0.5800 0.1505
vt 0.5678 0.6852
vt 0.5800 0.6852
vt 0.5800 0.6857
vt 0.5678 0.6857
vt 0.5397 0.7645
vt 0.5397 0.7640
vt 0.5402 0.7640
vt 0.0055 0.7640
vt 0.0055 0.7645
vt 0.0055 0.6257
vt 0.0050 0.7640
vt 0.0050 0.6257
vt 0.0055 0.6252
vt 0.5475 0.6857
vt 0.5597 0.6857
vt 0.5597 0.6852
vt 0.5475 0.6852
vt 0.5602 0.6852
vt 0.9945 0.0050
vt 0.9945 0.1433
vt 0.9950 0.1433
vt 0.9950 0.0050
vt 0.5602 0.1510
vt 0.5597 0.1510
vt 0.5597 0.1505
vt 0.4603 0.1433
vt 0.4603 0.0050
vt 0.4598 0.0050
vt 0.4598 0.1433
vt 0.5673 0.6852
vt 0.5673 0.1510
vt 0.5397 0.6257
vt 0.5402 0.6257
vt 0.5397 0.6252
vt 0.5475 0.1510
vt 0.5475 0.1505
vt 0.0087 0.7608
vt 0.5365 0.7608
vt 0.0087 0.6289
vt 0.5365 0.6289
vt 0.9913 0.0082
vt 0.9913 0.1401
vt 0.4635 0.1401
vt 0.4635 0.0082
vt 0.5061 0.2961
vt 0.5061 0.4344
vt 0.5184 0.4344
vt 0.5184 0.2961
vt 0.7011 0.4175
vt 0.7011 0.4031
vt 0.6219 0.4031
vt 0.6219 0.4175
vt 0.6219 0.3887
vt 0.7011 0.3887
vt 0.4698 0.2297
vt 0.4698 0.1505
vt 0.4710 0.1505
vt 0.4710 0.2297
vt 0.2531 0.7514
vt 0.2531 0.7233
vt 0.4853 0.7233
vt 0.4853 0.7514
vt 0.2531 0.7228
vt 0.4853 0.7228
vt 0.5475 0.7360
vt 0.5475 0.7382
vt 0.7797 0.7382
vt 0.7797 0.7360
vt 0.4853 0.7518
vt 0.2531 0.7518
vt 0.6219 0.4234
vt 0.6219 0.4515
vt 0.8542 0.4515
vt 0.8542 0.4234
vt 0.4698 0.1014
vt 0.7020 0.1014
vt 0.7020 0.1009
vt 0.4698 0.1009
vt 0.7020 0.1036
vt 0.4698 0.1036
vt 0.2085 0.4800
vt 0.0050 0.4800
vt 0.0050 0.0050
vt 0.2085 0.0050
vt 0.0050 0.6182
vt 0.0050 0.4863
vt 0.5328 0.4863
vt 0.5328 0.6182
vt 0.5872 0.1505
vt 0.6016 0.1505
vt 0.6016 0.6256
vt 0.5872 0.6256
vt 0.6160 0.6256
vt 0.6160 0.1505
vt 0.4900 0.6446
vt 0.0149 0.6446
vt 0.0149 0.6434
vt 0.4900 0.6434
vt 0.6664 0.6318
vt 0.6664 0.6462
vt 0.5872 0.6462
vt 0.5872 0.6318
vt 0.5872 0.6606
vt 0.6664 0.6606
vt 0.4610 0.1505
vt 0.4610 0.2297
vt 0.4598 0.2297
vt 0.4598 0.1505
vt 0.4853 0.7150
vt 0.4853 0.6869
vt 0.2531 0.6869
vt 0.2531 0.7150
vt 0.4853 0.6864
vt 0.2531 0.6864
vt 0.4698 0.1274
vt 0.4698 0.1295
vt 0.7020 0.1295
vt 0.7020 0.1274
vt 0.2531 0.7154
vt 0.4853 0.7154
vt 0.5475 0.7013
vt 0.5475 0.7294
vt 0.7797 0.7294
vt 0.7797 0.7013
vt 0.2472 0.7382
vt 0.0149 0.7382
vt 0.0149 0.7377
vt 0.2472 0.7377
vt 0.0149 0.7403
vt 0.2472 0.7403
vt 0.4603 0.2365
vt 0.4884 0.2365
vt 0.4884 0.4688
vt 0.4603 0.4688
vt 0.4889 0.2365
vt 0.4889 0.4688
vt 0.7020 0.1191
vt 0.7020 0.1213
vt 0.4698 0.1213
vt 0.4698 0.1191
vt 0.4598 0.4688
vt 0.4598 0.2365
vt 0.5872 0.6666
vt 0.5872 0.6946
vt 0.8194 0.6946
vt 0.8194 0.6666
vt 0.4984 0.1505
vt 0.4984 0.3828
vt 0.4989 0.3828
vt 0.4989 0.1505
vt 0.4962 0.3828
vt 0.4962 0.1505
vt 0.2150 0.4800
vt 0.4185 0.4800
vt 0.4185 0.0050
vt 0.2150 0.0050
vn -1.0000 0.0000 0.0000
vn -0.9965 0.0830 0.0000
vn 0.0000 1.0000 0.0000
vn 0.0000 0.0000 -1.0000
vn 0.0000 -0.0000 1.0000
vn 0.7071 0.0000 -0.7071
vn 1.0000 0.0000 0.0000
vn 0.7071 -0.0000 0.7071
vn -0.7071 0.0000 -0.7071
vn 0.7388 0.4765 -0.4765
vn 0.7388 -0.4765 -0.4765
vn 0.4765 -0.4765 -0.7388
vn 0.4765 0.4765 -0.7388
vn 0.7388 -0.4765 0.4765
vn 0.7388 0.4765 0.4765
vn 0.4765 0.4765 0.7388
vn 0.4765 -0.4765 0.7388
vn 0.4765 0.7388 0.4765
vn 0.4765 0.7388 -0.4765
vn -0.4765 0.7388 -0.4765
vn -0.4765 0.4765 -0.7388
vn -0.7388 0.4765 -0.4765
vn -0.4765 -0.4765 -0.7388
vn -0.7388 -0.4765 -0.4765
vn -0.4765 -0.7388 -0.4765
vn 0.4765 -0.7388 -0.4765
vn -0.4765 -0.7388 0.4765
vn -0.7388 -0.4765 0.4765
vn -0.4765 -0.4765 0.7388
vn 0.4765 -0.7388 0.4765
vn -0.4765 0.7388 0.4765
vn -0.4765 0.4765 0.7388
vn -0.7388 0.4765 0.4765
vn 0.0000 -1.0000 -0.0000
vn 0.0000 0.0830 -0.9965
vn -0.7071 -0.0000 0.7071
vn 0.9965 0.0830 0.0000
vn 0.0000 0.0830 0.9965
usemtl FrontColor
s 1
f 1/1/1 2/2/1 3/3/1 4/4/1
s 2
f 5/5/2 3/3/2 2/2/2 6/6/2
s 3
f 5/7/3 6/8/3 7/9/3 8/10/3
s 4
f 9/11/4 10/12/4 11/13/4 12/14/4
s 5
f 13/15/5 14/16/5 15/17/5 16/18/5
s 6
f 17/19/4 18/20/4 19/21/4 20/22/4
s 7
f 19/21/6 18/20/6 21/23/6 22/24/6
s 8
f 23/25/7 22/26/7 21/27/7 24/28/7
s 9
f 25/29/8 26/30/8 23/31/8 24/32/8
s 10
f 27/33/5 26/30/5 25/29/5 28/34/5
s 11
f 17/19/9 20/22/9 29/35/9 30/36/9
s 12
f 31/37/1 30/38/1 29/39/1 32/40/1
s 13
f 33/41/4 34/42/4 35/43/4 36/44/4
s 14
f 37/45/10 38/46/11 34/47/12 33/48/13
f 39/49/14 40/50/15 41/51/16 42/52/17
f 40/53/15 43/54/18 41/55/16
f 44/56/19 43/54/18 40/53/15 37/57/10
f 45/58/20 44/56/19 33/59/13 36/60/21
f 44/56/19 37/57/10 33/59/13
f 45/58/20 36/60/21 46/61/22
f 36/62/21 35/63/23 47/64/24 46/65/22
f 35/63/23 48/66/25 47/64/24
f 49/67/26 48/68/25 35/69/23 34/70/12
f 48/66/25 50/71/27 51/72/28 47/64/24
f 51/72/28 50/71/27 52/73/29
f 50/74/27 53/75/30 42/76/17 52/77/29
f 53/78/30 49/79/26 38/46/11 39/49/14
f 38/46/11 49/79/26 34/47/12
f 53/78/30 39/49/14 42/52/17
f 43/54/18 54/80/31 55/81/32 41/55/16
f 54/80/31 45/58/20 46/61/22 56/82/33
f 56/83/33 51/72/28 52/73/29 55/84/32
f 54/80/31 56/82/33 55/81/32
s 15
f 40/50/7 39/49/7 38/46/7 37/45/7
s 16
f 43/54/3 44/56/3 57/85/3 58/86/3
f 44/56/3 45/58/3 59/87/3 57/85/3
f 54/80/3 43/54/3 58/86/3 60/88/3
f 60/88/3 59/87/3 45/58/3 54/80/3
s 17
f 61/89/34 62/90/34 48/68/34 49/67/34
f 50/74/34 48/68/34 62/90/34 63/91/34
f 63/91/34 64/92/34 53/75/34 50/74/34
f 64/92/34 61/89/34 49/67/34 53/75/34
s 18
f 41/93/5 55/94/5 52/95/5 42/96/5
s 19
f 51/72/1 56/83/1 46/65/1 47/64/1
s 20
f 65/97/4 66/98/4 67/99/4 68/100/4
s 21
f 69/101/35 67/99/35 66/98/35 70/102/35
s 22
f 69/103/3 70/104/3 71/105/3 72/106/3
s 23
f 73/107/7 74/108/7 75/109/7 76/110/7
s 24
f 75/109/6 74/108/6 77/111/6 78/112/6
s 25
f 79/113/4 78/114/4 77/115/4 80/116/4
s 26
f 73/107/8 76/110/8 81/117/8 82/118/8
s 27
f 81/119/5 83/120/5 84/121/5 82/122/5
s 28
f 85/123/36 86/124/36 84/125/36 83/126/36
s 29
f 87/127/1 86/124/1 85/123/1 88/128/1
s 30
f 89/129/7 90/130/7 91/131/7 92/132/7
s 31
f 93/133/3 94/134/3 95/135/3 96/136/3
s 32
f 97/137/7 98/138/7 99/139/7 100/140/7
s 33
f 101/141/37 99/139/37 98/138/37 102/142/37
s 34
f 101/143/3 102/144/3 103/145/3 104/146/3
s 35
f 105/147/5 106/148/5 107/149/5 108/150/5
s 36
f 109/151/38 107/149/38 106/148/38 110/152/38
s 37
f 109/153/3 110/154/3 111/155/3 112/156/3
s 38
f 113/157/1 114/158/1 115/159/1 116/160/1
s 39
f 115/159/36 114/158/36 117/161/36 118/162/36
s 40
f 119/163/5 118/164/5 117/165/5 120/166/5
s 41
f 113/157/9 116/160/9 121/167/9 122/168/9
s 42
f 121/169/4 123/170/4 124/171/4 122/172/4
s 43
f 125/173/6 126/174/6 124/175/6 123/176/6
s 44
f 127/177/7 126/174/7 125/173/7 128/178/7
s 45
f 129/179/5 130/180/5 131/181/5 132/182/5
s 46
f 131/181/8 130/180/8 133/183/8 134/184/8
s 47
f 135/185/7 134/186/7 133/187/7 136/188/7
s 48
f 129/179/36 132/182/36 137/189/36 138/190/36
s 49
f 137/191/1 139/192/1 140/193/1 138/194/1
s 50
f 141/195/9 142/196/9 140/197/9 139/198/9
s 51
f 143/199/4 142/196/4 141/195/4 144/200/4
s 52
f 145/201/1 146/202/1 147/203/1 148/204/1
