# Blender v2.78 (sub 0) OBJ File: 'video_store_wall.blend'
# www.blender.org
mtllib video_store_wall.mtl
o Mesh1_Group2_Group1_Model
v 2.000000 2.128000 0.000001
v 2.000000 2.128000 0.019001
v 0.000000 2.128000 0.019001
v 0.000000 2.128000 0.000001
v 2.000000 2.148000 0.000001
v 2.000000 2.129000 0.020001
v 2.000000 2.148000 0.020001
v 0.000000 2.148000 0.020001
v 0.000000 2.129000 0.020001
v 0.000000 2.148000 0.000001
v 2.000000 0.120000 0.000000
v 2.000000 2.128000 0.000001
v 0.000000 2.128000 0.000001
v 0.000000 0.120000 0.000000
v 2.000000 0.049237 0.020000
v 2.000000 0.119000 0.010142
v 0.000000 0.119000 0.010142
v 0.000000 0.049237 0.020000
v 0.000000 -0.000000 0.020000
v 2.000000 -0.000000 0.020000
v 2.000000 0.120000 0.008990
v 0.000000 0.120000 0.008990
v 0.000000 0.120000 0.000000
v 2.000000 0.120000 0.000000
v 2.000000 0.000000 0.000000
v 0.000000 0.000000 0.000000
vt 0.9661 0.0050
vt 0.9573 0.0050
vt 0.9573 0.9296
vt 0.9661 0.9296
vt 0.9395 0.9593
vt 0.9488 0.9593
vt 0.9400 0.9685
vt 0.9395 0.9681
vt 0.9488 0.9685
vt 0.9766 0.9296
vt 0.9854 0.9296
vt 0.9854 0.0050
vt 0.9766 0.0050
vt 0.9593 0.9593
vt 0.9593 0.9685
vt 0.9681 0.9593
vt 0.9685 0.9598
vt 0.9685 0.9685
vt 0.9568 0.0050
vt 0.9568 0.9296
vt 0.9333 0.0050
vt 0.0050 0.0050
vt 0.0050 0.9296
vt 0.9333 0.9296
vt 0.9296 0.9623
vt 0.9296 0.9945
vt 0.0050 0.9945
vt 0.0050 0.9623
vt 0.0050 0.9395
vt 0.9296 0.9395
vt 0.9467 0.0050
vt 0.9467 0.9296
vt 0.9462 0.9296
vt 0.9462 0.0050
vt 0.9420 0.0050
vt 0.9420 0.9296
vt 0.9623 0.9488
vt 0.9395 0.9395
vt 0.9950 0.9437
vt 0.9945 0.9442
vt 0.9395 0.9488
vt 0.9950 0.9395
vt 0.9950 0.9791
vt 0.9722 0.9791
vt 0.9950 0.9883
vt 0.9400 0.9836
vt 0.9395 0.9842
vt 0.9395 0.9883
vn 0.0000 -1.0000 0.0000
vn 1.0000 0.0000 0.0000
vn 0.0000 -0.0000 1.0000
vn -1.0000 0.0000 0.0000
vn 0.0000 -0.7071 0.7071
vn 0.0000 0.0701 0.9975
vn 0.0000 0.4778 0.8785
vn 0.0000 0.9368 0.3499
vn 0.0000 1.0000 0.0000
usemtl FrontColor
s 1
f 1/1/1 2/2/1 3/3/1 4/4/1
s 2
f 1/5/2 5/6/2 6/7/2 2/8/2
f 7/9/2 6/7/2 5/6/2
s 3
f 8/10/3 9/11/3 6/12/3 7/13/3
s 4
f 8/14/4 10/15/4 9/16/4
f 3/17/4 9/16/4 10/15/4 4/18/4
s 5
f 6/19/5 9/20/5 3/3/5 2/2/5
s 6
f 11/21/3 12/22/3 13/23/3 14/24/3
s 7
f 15/25/6 16/26/7 17/27/7 18/28/6
f 15/25/6 18/28/6 19/29/3 20/30/3
f 17/31/7 16/32/7 21/33/8 22/34/8
f 23/35/9 22/34/8 21/33/8 24/36/9
s 8
f 15/37/2 25/38/2 21/39/2 16/40/2
f 20/41/2 25/38/2 15/37/2
f 24/42/2 21/39/2 25/38/2
s 9
f 19/43/4 18/44/4 26/45/4
f 17/46/4 22/47/4 26/45/4 18/44/4
f 23/48/4 26/45/4 22/47/4
