# Blender v2.78 (sub 0) OBJ File: 'video_store_labels.blend'
# www.blender.org
mtllib video_store_labels_comedy.mtl
o Mesh7_Group11_Group10_Group1_Model
v 0.200000 0.150000 -0.002753
v 0.200000 0.000000 -0.002753
v -0.200000 0.000000 -0.002753
v -0.200000 0.150000 -0.002753
v 0.200000 0.150000 0.002247
v 0.200000 -0.000000 0.002247
v -0.200000 0.150000 0.002247
v -0.200000 -0.000000 0.002247
v -0.200000 0.140000 0.002247
v 0.060000 0.029000 -0.011753
v 0.060000 0.005839 -0.011753
v 0.059000 0.007839 -0.012753
v 0.059000 0.029000 -0.012753
v 0.060000 0.001000 -0.003753
v 0.060000 0.029000 -0.003753
v 0.059000 0.029000 -0.002753
v 0.059000 0.001000 -0.002753
v 0.059000 0.030000 -0.003753
v 0.059000 0.030000 -0.011753
v -0.059000 0.029000 -0.012753
v -0.059000 0.030000 -0.011753
v 0.059000 0.006839 -0.013753
v 0.060000 0.005839 -0.021753
v 0.059000 0.006839 -0.021753
v 0.060000 0.001000 -0.021753
v 0.059000 0.000000 -0.003753
v 0.059000 0.000000 -0.021753
v -0.059000 0.001000 -0.002753
v -0.059000 0.000000 -0.003753
v -0.060000 0.001000 -0.003753
v -0.060000 0.001000 -0.021753
v -0.059000 0.000000 -0.021753
v -0.060000 0.005839 -0.011753
v -0.060000 0.029000 -0.011753
v -0.059000 0.007839 -0.012753
v -0.060000 0.029000 -0.003753
v -0.059000 0.030000 -0.003753
v -0.059000 0.029000 -0.002753
v -0.059000 0.006839 -0.013753
v -0.060000 0.005839 -0.021753
v -0.059000 0.006839 -0.021753
v 0.059000 0.005839 -0.022753
v -0.059000 0.005839 -0.022753
v -0.059000 0.001000 -0.022753
v 0.059000 0.001000 -0.022753
v -0.060000 0.029000 0.011247
v -0.060000 0.005839 0.011247
v -0.059000 0.007839 0.012247
v -0.059000 0.029000 0.012247
v -0.060000 0.001000 0.003247
v -0.060000 0.029000 0.003247
v -0.059000 0.029000 0.002247
v -0.059000 0.001000 0.002247
v -0.059000 0.030000 0.003247
v -0.059000 0.030000 0.011247
v 0.059000 0.029000 0.012247
v 0.059000 0.030000 0.011247
v -0.059000 0.006839 0.013247
v -0.060000 0.005839 0.021247
v -0.059000 0.006839 0.021247
v -0.060000 0.001000 0.021247
v -0.059000 -0.000000 0.003247
v -0.059000 -0.000000 0.021247
v 0.059000 0.001000 0.002247
v 0.059000 -0.000000 0.003247
v 0.060000 0.001000 0.003247
v 0.060000 0.001000 0.021247
v 0.059000 -0.000000 0.021247
v 0.060000 0.005839 0.011247
v 0.060000 0.029000 0.011247
v 0.059000 0.007839 0.012247
v 0.060000 0.029000 0.003247
v 0.059000 0.030000 0.003247
v 0.059000 0.029000 0.002247
v 0.059000 0.006839 0.013247
v 0.060000 0.005839 0.021247
v 0.059000 0.006839 0.021247
v -0.059000 0.005839 0.022247
v 0.059000 0.005839 0.022247
v 0.059000 0.001000 0.022247
v -0.059000 0.001000 0.022247
vt 0.0050 0.4857
vt 0.1852 0.4857
vt 0.1852 0.0050
vt 0.0050 0.0050
vt 0.3835 0.6593
vt 0.5637 0.6593
vt 0.5637 0.6653
vt 0.3835 0.6653
vt 0.3835 0.4857
vt 0.3835 0.0050
vt 0.3895 0.0050
vt 0.3895 0.4857
vt 0.5727 0.6653
vt 0.7530 0.6653
vt 0.7530 0.6593
vt 0.5847 0.6593
vt 0.5727 0.6593
vt 0.3976 0.4937
vt 0.4036 0.4937
vt 0.4036 0.0131
vt 0.3976 0.0131
vt 0.3745 0.0050
vt 0.1942 0.0050
vt 0.1942 0.4857
vt 0.2063 0.4857
vt 0.3745 0.4857
vt 0.7002 0.7309
vt 0.6723 0.7309
vt 0.6747 0.7297
vt 0.7002 0.7297
vt 0.6665 0.7405
vt 0.7002 0.7405
vt 0.7002 0.7417
vt 0.6665 0.7417
vt 0.7014 0.7405
vt 0.7014 0.7309
vt 0.6009 0.5538
vt 0.7427 0.5538
vt 0.7427 0.5526
vt 0.6009 0.5526
vt 0.6735 0.7285
vt 0.6723 0.7189
vt 0.6735 0.7189
vt 0.6665 0.7189
vt 0.6653 0.7405
vt 0.6653 0.7189
vt 0.7439 0.5900
vt 0.6021 0.5900
vt 0.6021 0.5888
vt 0.7439 0.5888
vt 0.6009 0.5900
vt 0.4237 0.8164
vt 0.4454 0.8164
vt 0.4454 0.8152
vt 0.4237 0.8152
vt 0.7439 0.5816
vt 0.7439 0.5538
vt 0.7427 0.5792
vt 0.8042 0.0392
vt 0.8139 0.0392
vt 0.8139 0.0404
vt 0.8042 0.0404
vt 0.6021 0.6249
vt 0.6009 0.6237
vt 0.6021 0.6237
vt 0.7439 0.6237
vt 0.7439 0.6249
vt 0.8175 0.1902
vt 0.8163 0.1914
vt 0.8151 0.1914
vt 0.8054 0.1902
vt 0.8054 0.1914
vt 0.8042 0.3332
vt 0.8042 0.1914
vt 0.8054 0.3332
vt 0.7540 0.6047
vt 0.7540 0.5989
vt 0.7528 0.5989
vt 0.7528 0.6047
vt 0.4466 0.8152
vt 0.4466 0.6734
vt 0.4454 0.6734
vt 0.6665 0.7177
vt 0.6723 0.7177
vt 0.6009 0.5792
vt 0.8163 0.3332
vt 0.8151 0.3332
vt 0.5500 0.0870
vt 0.5500 0.0654
vt 0.5442 0.0750
vt 0.5442 0.0870
vt 0.5164 0.0750
vt 0.5164 0.0654
vt 0.8139 0.1822
vt 0.8042 0.1822
vt 0.6110 0.5989
vt 0.6110 0.6047
vt 0.4237 0.6734
vt 0.5164 0.0170
vt 0.5442 0.0170
vt 0.5418 0.0158
vt 0.5164 0.0158
vt 0.7439 0.5291
vt 0.7439 0.4954
vt 0.7427 0.4954
vt 0.7427 0.5291
vt 0.7427 0.4942
vt 0.4982 0.0050
vt 0.5078 0.0050
vt 0.5078 0.0062
vt 0.4982 0.0062
vt 0.5090 0.0062
vt 0.5090 0.1480
vt 0.5078 0.1480
vt 0.4471 0.0062
vt 0.4459 0.0050
vt 0.4483 0.0062
vt 0.4579 0.0050
vt 0.4579 0.0062
vt 0.4692 0.1480
vt 0.4909 0.1480
vt 0.4909 0.1468
vt 0.4692 0.1468
vt 0.7427 0.5303
vt 0.6009 0.5291
vt 0.6009 0.5303
vt 0.4551 0.6746
vt 0.4539 0.6746
vt 0.4551 0.6734
vt 0.4551 0.6962
vt 0.4539 0.6962
vt 0.4610 0.6842
vt 0.4888 0.6842
vt 0.4888 0.6854
vt 0.4634 0.6854
vt 0.4900 0.6842
vt 0.4888 0.6746
vt 0.4900 0.6746
vt 0.4888 0.6734
vt 0.6009 0.4954
vt 0.6009 0.4942
vt 0.4622 0.6866
vt 0.4610 0.6962
vt 0.4622 0.6962
vt 0.4591 0.0062
vt 0.4591 0.1480
vt 0.4579 0.1480
vt 0.4610 0.6974
vt 0.4551 0.6974
vt 0.4680 0.0050
vt 0.4680 0.1468
vt 0.4692 0.0050
vt 0.4459 0.1618
vt 0.4459 0.1560
vt 0.4471 0.1560
vt 0.4471 0.1618
vt 0.5164 0.0266
vt 0.5500 0.0266
vt 0.5442 0.0050
vt 0.5500 0.0050
vt 0.4371 0.1629
vt 0.4371 0.0211
vt 0.4117 0.0211
vt 0.4117 0.1629
vt 0.4471 0.1480
vt 0.4483 0.1480
vt 0.4982 0.1480
vt 0.5889 0.1560
vt 0.5889 0.1618
vt 0.4909 0.0050
vn 0.0000 0.0000 -1.0000
vn 1.0000 0.0000 0.0000
vn 0.0000 1.0000 0.0000
vn -1.0000 0.0000 0.0000
vn 0.0000 -1.0000 -0.0000
vn 0.0000 -0.0000 1.0000
vn 0.7388 0.4765 -0.4765
vn 0.8518 0.3705 -0.3705
vn 0.8372 0.1566 -0.5239
vn 0.4765 0.4765 -0.7388
vn 0.7388 -0.4765 0.4765
vn 0.7388 0.4765 0.4765
vn 0.4765 0.4765 0.7388
vn 0.4765 -0.4765 0.7388
vn 0.4765 0.7388 0.4765
vn 0.4765 0.7388 -0.4765
vn -0.4765 0.4765 -0.7388
vn -0.4765 0.7388 -0.4765
vn 0.8372 0.5239 -0.1566
vn 0.7388 -0.4765 -0.4765
vn 0.4765 -0.7388 0.4765
vn 0.4765 -0.7388 -0.4765
vn -0.4765 -0.4765 0.7388
vn -0.4765 -0.7388 0.4765
vn -0.7388 -0.4765 0.4765
vn -0.7388 -0.4765 -0.4765
vn -0.4765 -0.7388 -0.4765
vn -0.8517 0.3705 -0.3705
vn -0.7388 0.4765 -0.4765
vn -0.8372 0.1566 -0.5239
vn -0.7388 0.4765 0.4765
vn -0.4765 0.7388 0.4765
vn -0.4765 0.4765 0.7388
vn -0.8372 0.5239 -0.1566
vn -0.4765 -0.4765 -0.7388
vn 0.4765 -0.4765 -0.7388
vn 0.0000 0.7071 -0.7071
vn -0.8517 0.3705 0.3705
vn -0.8372 0.1566 0.5239
vn -0.8372 0.5239 0.1566
vn 0.8517 0.3705 0.3705
vn 0.8372 0.1566 0.5239
vn 0.8372 0.5239 0.1566
vn 0.0000 0.7071 0.7071
usemtl FrontColor
s 1
f 1/1/1 2/2/1 3/3/1 4/4/1
s 2
f 2/5/2 1/6/2 5/7/2 6/8/2
s 3
f 1/9/3 4/10/3 7/11/3 5/12/3
s 4
f 4/13/4 3/14/4 8/15/4 9/16/4 7/17/4
s 5
f 8/18/5 3/19/5 2/20/5 6/21/5
s 6
f 6/22/6 5/23/6 7/24/6 9/25/6 8/26/6
s 7
f 10/27/7 11/28/8 12/29/9 13/30/10
f 14/31/11 15/32/12 16/33/13 17/34/14
f 15/32/12 18/35/15 16/33/13
f 15/32/12 10/27/7 19/36/16 18/35/15
f 19/36/16 10/27/7 13/30/10
f 13/37/10 20/38/17 21/39/18 19/40/16
f 12/29/9 11/28/8 22/41/19
f 11/28/8 23/42/7 24/43/16 22/41/19
f 25/44/20 14/31/11 26/45/21 27/46/22
f 26/45/21 14/31/11 17/34/14
f 17/47/14 28/48/23 29/49/24 26/50/21
f 30/51/25 29/49/24 28/48/23
f 30/52/25 31/53/26 32/54/27 29/55/24
f 33/56/28 34/57/29 20/38/17 35/58/30
f 34/57/29 21/39/18 20/38/17
f 34/59/29 36/60/31 37/61/32 21/62/18
f 37/63/32 36/64/31 38/65/33
f 36/64/31 30/51/25 28/48/23 38/65/33
f 38/65/33 16/66/13 18/67/15 37/63/32
f 33/68/28 35/69/30 39/70/34
f 40/71/29 33/68/28 39/70/34 41/72/18
f 42/73/10 43/74/17 41/72/18 24/75/16
f 31/76/26 40/77/29 43/78/17 44/79/35
f 40/71/29 41/72/18 43/74/17
f 32/54/27 31/53/26 44/80/35
f 44/80/35 45/81/36 27/82/22 32/54/27
f 25/44/20 27/46/22 45/83/36
f 23/42/7 25/44/20 45/83/36 42/84/10
f 24/43/16 23/42/7 42/84/10
s 8
f 15/32/2 14/31/2 11/28/2 10/27/2
f 23/42/2 11/28/2 14/31/2 25/44/2
s 9
f 12/85/1 35/58/1 20/38/1 13/37/1
s 10
f 35/69/37 12/86/37 22/87/37 39/70/37
s 11
f 31/88/4 30/89/4 33/90/4 40/91/4
f 34/92/4 33/90/4 30/89/4 36/93/4
s 12
f 21/62/3 37/61/3 18/94/3 19/95/3
s 13
f 41/72/3 39/70/3 22/87/3 24/75/3
s 14
f 44/79/1 43/78/1 42/96/1 45/97/1
s 15
f 29/55/5 32/54/5 27/82/5 26/98/5
s 16
f 46/99/31 47/100/38 48/101/39 49/102/33
f 50/103/26 51/104/29 52/105/17 53/106/35
f 51/104/29 54/107/18 52/105/17
f 51/108/29 46/109/31 55/110/32 54/111/18
f 55/110/32 46/109/31 49/112/33
f 49/112/33 56/113/13 57/114/15 55/110/32
f 48/115/39 47/116/38 58/117/40
f 47/116/38 59/118/31 60/119/32 58/117/40
f 61/120/25 50/121/26 62/122/27 63/123/24
f 62/124/27 50/103/26 53/106/35
f 53/106/35 64/125/36 65/126/22 62/124/27
f 66/127/20 65/128/22 64/129/36
f 66/127/20 67/130/11 68/131/21 65/128/22
f 69/132/41 70/133/12 56/134/13 71/135/42
f 70/133/12 57/136/15 56/134/13
f 70/133/12 72/137/7 73/138/16 57/136/15
f 73/138/16 72/137/7 74/139/10
f 72/137/7 66/127/20 64/129/36 74/139/10
f 74/140/10 52/105/17 54/107/18 73/141/16
f 69/132/41 71/135/42 75/142/43
f 76/143/12 69/132/41 75/142/43 77/144/15
f 78/145/33 79/146/13 77/147/15 60/119/32
f 67/130/11 76/143/12 79/148/13 80/149/14
f 76/143/12 77/144/15 79/148/13
f 68/131/21 67/130/11 80/149/14
f 80/150/14 81/151/23 63/123/24 68/152/21
f 61/120/25 63/123/24 81/151/23
f 59/153/31 61/154/25 81/155/23 78/156/33
f 60/119/32 59/118/31 78/145/33
s 17
f 51/157/4 50/158/4 47/100/4 46/99/4
f 59/159/4 47/100/4 50/158/4 61/160/4
s 18
f 48/161/6 71/162/6 56/163/6 49/164/6
s 19
f 71/165/44 48/115/44 58/117/44 75/166/44
s 20
f 67/130/2 66/127/2 69/132/2 76/143/2
f 70/133/2 69/132/2 66/127/2 72/137/2
s 21
f 57/114/3 73/167/3 54/111/3 55/110/3
s 22
f 77/147/3 75/166/3 58/117/3 60/119/3
s 23
f 80/168/6 79/169/6 78/156/6 81/155/6
s 24
f 65/170/5 68/152/5 63/123/5 62/122/5
o Mesh1_Group3_Group2_Group1_Model
v 0.537615 0.029000 -0.011753
v 0.537615 0.005839 -0.011753
v 0.536615 0.007839 -0.012753
v 0.536615 0.029000 -0.012753
v 0.537615 0.001000 -0.003753
v 0.537615 0.029000 -0.003753
v 0.536615 0.029000 -0.002753
v 0.536615 0.001000 -0.002753
v 0.536615 0.030000 -0.003753
v 0.536615 0.030000 -0.011753
v 0.418615 0.029000 -0.012753
v 0.418615 0.030000 -0.011753
v 0.536615 0.006839 -0.013753
v 0.537615 0.005839 -0.021753
v 0.536615 0.006839 -0.021753
v 0.537615 0.001000 -0.021753
v 0.536615 0.000000 -0.003753
v 0.536615 0.000000 -0.021753
v 0.418615 0.001000 -0.002753
v 0.418615 0.000000 -0.003753
v 0.417615 0.001000 -0.003753
v 0.417615 0.001000 -0.021753
v 0.418615 0.000000 -0.021753
v 0.417615 0.005839 -0.011753
v 0.417615 0.029000 -0.011753
v 0.418615 0.007839 -0.012753
v 0.417615 0.029000 -0.003753
v 0.418615 0.030000 -0.003753
v 0.418615 0.029000 -0.002753
v 0.418615 0.006839 -0.013753
v 0.417615 0.005839 -0.021753
v 0.418615 0.006839 -0.021753
v 0.536615 0.005839 -0.022753
v 0.418615 0.005839 -0.022753
v 0.418615 0.001000 -0.022753
v 0.536615 0.001000 -0.022753
v 0.677615 0.150000 -0.002753
v 0.677615 0.000000 -0.002753
v 0.277615 0.000000 -0.002753
v 0.277615 0.150000 -0.002753
v 0.677615 0.150000 0.002247
v 0.677615 -0.000000 0.002247
v 0.277615 0.150000 0.002247
v 0.277615 -0.000000 0.002247
v 0.277615 0.140000 0.002247
v 0.417615 0.029000 0.011247
v 0.417615 0.005839 0.011247
v 0.418615 0.007839 0.012247
v 0.418615 0.029000 0.012247
v 0.417615 0.001000 0.003247
v 0.417615 0.029000 0.003247
v 0.418615 0.029000 0.002247
v 0.418615 0.001000 0.002247
v 0.418615 0.030000 0.003247
v 0.418615 0.030000 0.011247
v 0.536615 0.029000 0.012247
v 0.536615 0.030000 0.011247
v 0.418615 0.006839 0.013247
v 0.417615 0.005839 0.021247
v 0.418615 0.006839 0.021247
v 0.417615 0.001000 0.021247
v 0.418615 -0.000000 0.003247
v 0.418615 -0.000000 0.021247
v 0.536615 0.001000 0.002247
v 0.536615 -0.000000 0.003247
v 0.537615 0.001000 0.003247
v 0.537615 0.001000 0.021247
v 0.536615 -0.000000 0.021247
v 0.537615 0.005839 0.011247
v 0.537615 0.029000 0.011247
v 0.536615 0.007839 0.012247
v 0.537615 0.029000 0.003247
v 0.536615 0.030000 0.003247
v 0.536615 0.029000 0.002247
v 0.536615 0.006839 0.013247
v 0.537615 0.005839 0.021247
v 0.536615 0.006839 0.021247
v 0.418615 0.005839 0.022247
v 0.536615 0.005839 0.022247
v 0.536615 0.001000 0.022247
v 0.418615 0.001000 0.022247
vt 0.7002 0.7953
vt 0.6723 0.7953
vt 0.6747 0.7941
vt 0.7002 0.7941
vt 0.6665 0.8049
vt 0.7002 0.8049
vt 0.7002 0.8061
vt 0.6665 0.8061
vt 0.7014 0.8049
vt 0.7014 0.7953
vt 0.8042 0.3424
vt 0.9460 0.3424
vt 0.9460 0.3412
vt 0.8042 0.3412
vt 0.6735 0.7929
vt 0.6723 0.7833
vt 0.6735 0.7833
vt 0.6665 0.7833
vt 0.6653 0.8049
vt 0.6653 0.7833
vt 0.9472 0.3786
vt 0.8054 0.3786
vt 0.8054 0.3774
vt 0.9472 0.3774
vt 0.8042 0.3786
vt 0.8042 0.6513
vt 0.8259 0.6513
vt 0.8259 0.6501
vt 0.8042 0.6501
vt 0.9472 0.3702
vt 0.9472 0.3424
vt 0.9460 0.3678
vt 0.8042 0.6593
vt 0.8139 0.6593
vt 0.8139 0.6605
vt 0.8042 0.6605
vt 0.8054 0.4135
vt 0.8042 0.4123
vt 0.8054 0.4123
vt 0.9472 0.4123
vt 0.9472 0.4135
vt 0.8356 0.0392
vt 0.8344 0.0404
vt 0.8332 0.0404
vt 0.8236 0.0392
vt 0.8236 0.0404
vt 0.8224 0.1822
vt 0.8224 0.0404
vt 0.8236 0.1822
vt 0.7439 0.6389
vt 0.7439 0.6331
vt 0.7427 0.6331
vt 0.7427 0.6389
vt 0.8271 0.6501
vt 0.8271 0.5083
vt 0.8259 0.5083
vt 0.6665 0.7821
vt 0.6723 0.7821
vt 0.8042 0.3678
vt 0.8344 0.1822
vt 0.8332 0.1822
vt 0.5500 0.1172
vt 0.5500 0.0956
vt 0.5442 0.1052
vt 0.5442 0.1172
vt 0.5164 0.1052
vt 0.5164 0.0956
vt 0.8139 0.8023
vt 0.8042 0.8023
vt 0.6009 0.6331
vt 0.6009 0.6389
vt 0.8042 0.5083
vt 0.0050 0.9749
vt 0.1852 0.9749
vt 0.1852 0.4942
vt 0.0050 0.4942
vt 0.4982 0.8807
vt 0.6785 0.8807
vt 0.6785 0.8867
vt 0.4982 0.8867
vt 0.7901 0.4857
vt 0.7901 0.0050
vt 0.7962 0.0050
vt 0.7962 0.4857
vt 0.8042 0.4277
vt 0.9845 0.4277
vt 0.9845 0.4217
vt 0.8163 0.4217
vt 0.8042 0.4217
vt 0.7901 0.9950
vt 0.7962 0.9950
vt 0.7962 0.5143
vt 0.7901 0.5143
vt 0.3745 0.4942
vt 0.1942 0.4942
vt 0.1942 0.9749
vt 0.2063 0.9749
vt 0.3745 0.9749
vt 0.5164 0.0472
vt 0.5442 0.0472
vt 0.5418 0.0460
vt 0.5164 0.0460
vt 0.7258 0.7082
vt 0.7258 0.6746
vt 0.7246 0.6746
vt 0.7246 0.7082
vt 0.7246 0.6734
vt 0.3835 0.6734
vt 0.3931 0.6734
vt 0.3931 0.6746
vt 0.3835 0.6746
vt 0.3943 0.6746
vt 0.3943 0.8164
vt 0.3931 0.8164
vt 0.4028 0.6746
vt 0.4016 0.6734
vt 0.4040 0.6746
vt 0.4136 0.6734
vt 0.4136 0.6746
vt 0.4994 0.8164
vt 0.5211 0.8164
vt 0.5211 0.8152
vt 0.4994 0.8152
vt 0.7246 0.7094
vt 0.5828 0.7082
vt 0.5828 0.7094
vt 0.5840 0.7189
vt 0.5828 0.7189
vt 0.5840 0.7177
vt 0.5840 0.7405
vt 0.5828 0.7405
vt 0.5898 0.7285
vt 0.6176 0.7285
vt 0.6176 0.7297
vt 0.5922 0.7297
vt 0.6188 0.7285
vt 0.6176 0.7189
vt 0.6188 0.7189
vt 0.6176 0.7177
vt 0.5828 0.6746
vt 0.5828 0.6734
vt 0.5910 0.7309
vt 0.5898 0.7405
vt 0.5910 0.7405
vt 0.4148 0.6746
vt 0.4148 0.8164
vt 0.4136 0.8164
vt 0.5898 0.7417
vt 0.5840 0.7417
vt 0.4982 0.6734
vt 0.4982 0.8152
vt 0.4994 0.6734
vt 0.6009 0.5443
vt 0.6009 0.5385
vt 0.6021 0.5385
vt 0.6021 0.5443
vt 0.5164 0.0568
vt 0.5500 0.0568
vt 0.5442 0.0352
vt 0.5500 0.0352
vt 0.5740 0.8152
vt 0.5740 0.6734
vt 0.5486 0.6734
vt 0.5486 0.8152
vt 0.4028 0.8164
vt 0.4040 0.8164
vt 0.3835 0.8164
vt 0.7439 0.5385
vt 0.7439 0.5443
vt 0.5211 0.6734
vn 0.7388 0.4765 -0.4765
vn 0.8517 0.3705 -0.3705
vn 0.8372 0.1566 -0.5239
vn 0.4765 0.4765 -0.7388
vn 0.7388 -0.4765 0.4765
vn 0.7388 0.4765 0.4765
vn 0.4765 0.4765 0.7388
vn 0.4765 -0.4765 0.7388
vn 0.4765 0.7388 0.4765
vn 0.4765 0.7388 -0.4765
vn -0.4765 0.4765 -0.7388
vn -0.4765 0.7388 -0.4765
vn 0.8372 0.5240 -0.1566
vn 0.7388 -0.4765 -0.4765
vn 0.4765 -0.7388 0.4765
vn 0.4765 -0.7388 -0.4765
vn -0.4765 -0.4765 0.7388
vn -0.4765 -0.7388 0.4765
vn -0.7388 -0.4765 0.4765
vn -0.7388 -0.4765 -0.4765
vn -0.4765 -0.7388 -0.4765
vn -0.8517 0.3705 -0.3705
vn -0.7388 0.4765 -0.4765
vn -0.8372 0.1566 -0.5239
vn -0.7388 0.4765 0.4765
vn -0.4765 0.7388 0.4765
vn -0.4765 0.4765 0.7388
vn -0.8372 0.5240 -0.1566
vn -0.4765 -0.4765 -0.7388
vn 0.4765 -0.4765 -0.7388
vn 1.0000 -0.0000 0.0000
vn 0.0000 0.0000 -1.0000
vn 0.0000 0.7071 -0.7071
vn -1.0000 -0.0000 0.0000
vn 0.0000 1.0000 0.0000
vn 0.0000 -1.0000 -0.0000
vn 0.0000 -0.0000 1.0000
vn -0.8517 0.3705 0.3705
vn -0.8372 0.1566 0.5240
vn -0.8372 0.5240 0.1566
vn 0.8517 0.3705 0.3705
vn 0.8372 0.1566 0.5239
vn 0.8372 0.5239 0.1566
vn 0.0000 0.7071 0.7071
usemtl FrontColor
s 1
f 82/171/45 83/172/46 84/173/47 85/174/48
f 86/175/49 87/176/50 88/177/51 89/178/52
f 87/176/50 90/179/53 88/177/51
f 87/176/50 82/171/45 91/180/54 90/179/53
f 91/180/54 82/171/45 85/174/48
f 85/181/48 92/182/55 93/183/56 91/184/54
f 84/173/47 83/172/46 94/185/57
f 83/172/46 95/186/45 96/187/54 94/185/57
f 97/188/58 86/175/49 98/189/59 99/190/60
f 98/189/59 86/175/49 89/178/52
f 89/191/52 100/192/61 101/193/62 98/194/59
f 102/195/63 101/193/62 100/192/61
f 102/196/63 103/197/64 104/198/65 101/199/62
f 105/200/66 106/201/67 92/182/55 107/202/68
f 106/201/67 93/183/56 92/182/55
f 106/203/67 108/204/69 109/205/70 93/206/56
f 109/207/70 108/208/69 110/209/71
f 108/208/69 102/195/63 100/192/61 110/209/71
f 110/209/71 88/210/51 90/211/53 109/207/70
f 105/212/66 107/213/68 111/214/72
f 112/215/67 105/212/66 111/214/72 113/216/56
f 114/217/48 115/218/55 113/216/56 96/219/54
f 103/220/64 112/221/67 115/222/55 116/223/73
f 112/215/67 113/216/56 115/218/55
f 104/198/65 103/197/64 116/224/73
f 116/224/73 117/225/74 99/226/60 104/198/65
f 97/188/58 99/190/60 117/227/74
f 95/186/45 97/188/58 117/227/74 114/228/48
f 96/187/54 95/186/45 114/228/48
s 2
f 87/176/75 86/175/75 83/172/75 82/171/75
f 95/186/75 83/172/75 86/175/75 97/188/75
s 3
f 84/229/76 107/202/76 92/182/76 85/181/76
s 4
f 107/213/77 84/230/77 94/231/77 111/214/77
s 5
f 103/232/78 102/233/78 105/234/78 112/235/78
f 106/236/78 105/234/78 102/233/78 108/237/78
s 6
f 93/206/79 109/205/79 90/238/79 91/239/79
s 7
f 113/216/79 111/214/79 94/231/79 96/219/79
s 8
f 116/223/76 115/222/76 114/240/76 117/241/76
s 9
f 101/199/80 104/198/80 99/226/80 98/242/80
s 10
f 118/243/76 119/244/76 120/245/76 121/246/76
s 11
f 119/247/75 118/248/75 122/249/75 123/250/75
s 12
f 118/251/79 121/252/79 124/253/79 122/254/79
s 13
f 121/255/78 120/256/78 125/257/78 126/258/78 124/259/78
s 14
f 125/260/80 120/261/80 119/262/80 123/263/80
s 15
f 123/264/81 122/265/81 124/266/81 126/267/81 125/268/81
s 16
f 127/269/69 128/270/82 129/271/83 130/272/71
f 131/273/64 132/274/67 133/275/55 134/276/73
f 132/274/67 135/277/56 133/275/55
f 132/278/67 127/279/69 136/280/70 135/281/56
f 136/280/70 127/279/69 130/282/71
f 130/282/71 137/283/51 138/284/53 136/280/70
f 129/285/83 128/286/82 139/287/84
f 128/286/82 140/288/69 141/289/70 139/287/84
f 142/290/63 131/291/64 143/292/65 144/293/62
f 143/294/65 131/273/64 134/276/73
f 134/276/73 145/295/74 146/296/60 143/294/65
f 147/297/58 146/298/60 145/299/74
f 147/297/58 148/300/49 149/301/59 146/298/60
f 150/302/85 151/303/50 137/304/51 152/305/86
f 151/303/50 138/306/53 137/304/51
f 151/303/50 153/307/45 154/308/54 138/306/53
f 154/308/54 153/307/45 155/309/48
f 153/307/45 147/297/58 145/299/74 155/309/48
f 155/310/48 133/275/55 135/277/56 154/311/54
f 150/302/85 152/305/86 156/312/87
f 157/313/50 150/302/85 156/312/87 158/314/53
f 159/315/71 160/316/51 158/317/53 141/289/70
f 148/300/49 157/313/50 160/318/51 161/319/52
f 157/313/50 158/314/53 160/318/51
f 149/301/59 148/300/49 161/319/52
f 161/320/52 162/321/61 144/293/62 149/322/59
f 142/290/63 144/293/62 162/321/61
f 140/323/69 142/324/63 162/325/61 159/326/71
f 141/289/70 140/288/69 159/315/71
s 17
f 132/327/78 131/328/78 128/270/78 127/269/78
f 140/329/78 128/270/78 131/328/78 142/330/78
s 18
f 129/331/81 152/332/81 137/333/81 130/334/81
s 19
f 152/335/88 129/285/88 139/287/88 156/336/88
s 20
f 148/300/75 147/297/75 150/302/75 157/313/75
f 151/303/75 150/302/75 147/297/75 153/307/75
s 21
f 138/284/79 154/337/79 135/281/79 136/280/79
s 22
f 158/317/79 156/336/79 139/287/79 141/289/79
s 23
f 161/338/81 160/339/81 159/326/81 162/325/81
s 24
f 146/340/80 149/322/80 144/293/80 143/292/80
o Mesh6_Group9_Group6_Group1_Model
v -0.265595 0.150000 -0.002753
v -0.265595 0.000000 -0.002753
v -0.665595 0.000000 -0.002753
v -0.665595 0.150000 -0.002753
v -0.265595 0.150000 0.002247
v -0.265595 -0.000000 0.002247
v -0.665595 0.150000 0.002247
v -0.665595 -0.000000 0.002247
v -0.665595 0.140000 0.002247
v -0.525595 0.029000 0.011247
v -0.525595 0.005839 0.011247
v -0.524595 0.007839 0.012247
v -0.524595 0.029000 0.012247
v -0.525595 0.001000 0.003247
v -0.525595 0.029000 0.003247
v -0.524595 0.029000 0.002247
v -0.524595 0.001000 0.002247
v -0.524595 0.030000 0.003247
v -0.524595 0.030000 0.011247
v -0.406595 0.029000 0.012247
v -0.406595 0.030000 0.011247
v -0.524595 0.006839 0.013247
v -0.525595 0.005839 0.021247
v -0.524595 0.006839 0.021247
v -0.525595 0.001000 0.021247
v -0.524595 -0.000000 0.003247
v -0.524595 -0.000000 0.021247
v -0.406595 0.001000 0.002247
v -0.406595 -0.000000 0.003247
v -0.405595 0.001000 0.003247
v -0.405595 0.001000 0.021247
v -0.406595 -0.000000 0.021247
v -0.405595 0.005839 0.011247
v -0.405595 0.029000 0.011247
v -0.406595 0.007839 0.012247
v -0.405595 0.029000 0.003247
v -0.406595 0.030000 0.003247
v -0.406595 0.029000 0.002247
v -0.406595 0.006839 0.013247
v -0.405595 0.005839 0.021247
v -0.406595 0.006839 0.021247
v -0.524595 0.005839 0.022247
v -0.406595 0.005839 0.022247
v -0.406595 0.001000 0.022247
v -0.524595 0.001000 0.022247
v -0.405595 0.029000 -0.011753
v -0.405595 0.005839 -0.011753
v -0.406595 0.007839 -0.012753
v -0.406595 0.029000 -0.012753
v -0.405595 0.001000 -0.003753
v -0.405595 0.029000 -0.003753
v -0.406595 0.029000 -0.002753
v -0.406595 0.001000 -0.002753
v -0.406595 0.030000 -0.003753
v -0.406595 0.030000 -0.011753
v -0.524595 0.029000 -0.012753
v -0.524595 0.030000 -0.011753
v -0.406595 0.006839 -0.013753
v -0.405595 0.005839 -0.021753
v -0.406595 0.006839 -0.021753
v -0.405595 0.001000 -0.021753
v -0.406595 0.000000 -0.003753
v -0.406595 0.000000 -0.021753
v -0.524595 0.001000 -0.002753
v -0.524595 0.000000 -0.003753
v -0.525595 0.001000 -0.003753
v -0.525595 0.001000 -0.021753
v -0.524595 0.000000 -0.021753
v -0.525595 0.005839 -0.011753
v -0.525595 0.029000 -0.011753
v -0.524595 0.007839 -0.012753
v -0.525595 0.029000 -0.003753
v -0.524595 0.030000 -0.003753
v -0.524595 0.029000 -0.002753
v -0.524595 0.006839 -0.013753
v -0.525595 0.005839 -0.021753
v -0.524595 0.006839 -0.021753
v -0.406595 0.005839 -0.022753
v -0.524595 0.005839 -0.022753
v -0.524595 0.001000 -0.022753
v -0.406595 0.001000 -0.022753
vt 0.4117 0.6507
vt 0.5919 0.6507
vt 0.5919 0.1701
vt 0.4117 0.1701
vt 0.4982 0.8666
vt 0.6785 0.8666
vt 0.6785 0.8727
vt 0.4982 0.8727
vt 0.7620 0.9749
vt 0.7620 0.4942
vt 0.7680 0.4942
vt 0.7680 0.9749
vt 0.7922 0.5002
vt 0.9724 0.5002
vt 0.9724 0.4942
vt 0.8042 0.4942
vt 0.7922 0.4942
vt 0.7761 0.9849
vt 0.7821 0.9849
vt 0.7821 0.5043
vt 0.7761 0.5043
vt 0.7812 0.0050
vt 0.6009 0.0050
vt 0.6009 0.4857
vt 0.6129 0.4857
vt 0.7812 0.4857
vt 0.6665 0.7631
vt 0.6944 0.7631
vt 0.6920 0.7619
vt 0.6665 0.7619
vt 0.7002 0.7727
vt 0.6665 0.7727
vt 0.6665 0.7739
vt 0.7002 0.7739
vt 0.6653 0.7727
vt 0.6653 0.7631
vt 0.7216 0.7177
vt 0.7216 0.8595
vt 0.7204 0.8595
vt 0.7204 0.7177
vt 0.6932 0.7607
vt 0.6944 0.7511
vt 0.6932 0.7511
vt 0.7002 0.7511
vt 0.7014 0.7727
vt 0.7014 0.7511
vt 0.4901 0.8776
vt 0.4901 0.7358
vt 0.4889 0.7358
vt 0.4889 0.8776
vt 0.4551 0.7068
vt 0.4539 0.7068
vt 0.4551 0.7056
vt 0.4551 0.7284
vt 0.4539 0.7284
vt 0.4610 0.7164
vt 0.4888 0.7164
vt 0.4888 0.7176
vt 0.4634 0.7176
vt 0.4900 0.7164
vt 0.4888 0.7068
vt 0.4900 0.7068
vt 0.4888 0.7056
vt 0.7096 0.8595
vt 0.7096 0.7177
vt 0.7108 0.7177
vt 0.7108 0.8595
vt 0.4622 0.7188
vt 0.4610 0.7284
vt 0.4622 0.7284
vt 0.5404 0.6734
vt 0.5404 0.8152
vt 0.5392 0.8152
vt 0.5392 0.6734
vt 0.4610 0.7296
vt 0.4551 0.7296
vt 0.4660 0.7358
vt 0.4660 0.8776
vt 0.4672 0.8776
vt 0.4672 0.7358
vt 0.7002 0.7499
vt 0.6944 0.7499
vt 0.5841 0.1468
vt 0.5841 0.0050
vt 0.5586 0.0050
vt 0.5586 0.1468
vt 0.5284 0.8152
vt 0.5284 0.6734
vt 0.5296 0.6734
vt 0.5296 0.8152
vt 0.3893 0.4942
vt 0.3835 0.4942
vt 0.3835 0.6360
vt 0.3893 0.6360
vt 0.6176 0.7631
vt 0.5898 0.7631
vt 0.5922 0.7619
vt 0.6176 0.7619
vt 0.5840 0.7727
vt 0.6176 0.7727
vt 0.6176 0.7739
vt 0.5840 0.7739
vt 0.6188 0.7727
vt 0.6188 0.7631
vt 0.8042 0.0062
vt 0.9460 0.0062
vt 0.9460 0.0050
vt 0.8042 0.0050
vt 0.5910 0.7607
vt 0.5898 0.7511
vt 0.5910 0.7511
vt 0.5840 0.7511
vt 0.5828 0.7727
vt 0.5828 0.7511
vt 0.7297 0.7157
vt 0.7297 0.8575
vt 0.7310 0.8575
vt 0.7310 0.7157
vt 0.6176 0.7833
vt 0.6188 0.7833
vt 0.6176 0.7821
vt 0.6176 0.8049
vt 0.6188 0.8049
vt 0.6118 0.7929
vt 0.5840 0.7929
vt 0.5840 0.7941
vt 0.6094 0.7941
vt 0.5828 0.7929
vt 0.5840 0.7833
vt 0.5828 0.7833
vt 0.5840 0.7821
vt 0.6379 0.7177
vt 0.6379 0.8595
vt 0.6367 0.8595
vt 0.6367 0.7177
vt 0.6106 0.7953
vt 0.6118 0.8049
vt 0.6106 0.8049
vt 0.6452 0.8595
vt 0.6452 0.7177
vt 0.6464 0.7177
vt 0.6464 0.8595
vt 0.6118 0.8061
vt 0.6176 0.8061
vt 0.7538 0.8575
vt 0.7538 0.7157
vt 0.7526 0.7157
vt 0.7526 0.8575
vt 0.5840 0.7499
vt 0.5898 0.7499
vt 0.8042 0.0316
vt 0.9460 0.0316
vt 0.6572 0.7177
vt 0.6572 0.8595
vt 0.6560 0.8595
vt 0.6560 0.7177
vt 0.6271 0.7177
vt 0.6271 0.8595
vt 0.4034 0.5023
vt 0.3976 0.5023
vt 0.3976 0.6441
vt 0.4034 0.6441
vn 0.0000 0.0000 -1.0000
vn 1.0000 0.0000 0.0000
vn 0.0000 1.0000 0.0000
vn -1.0000 -0.0000 0.0000
vn 0.0000 -1.0000 -0.0000
vn 0.0000 -0.0000 1.0000
vn -0.7388 0.4765 0.4765
vn -0.8517 0.3705 0.3705
vn -0.8372 0.1566 0.5239
vn -0.4765 0.4765 0.7388
vn -0.7388 -0.4765 -0.4765
vn -0.7388 0.4765 -0.4765
vn -0.4765 0.4765 -0.7388
vn -0.4765 -0.4765 -0.7388
vn -0.4765 0.7388 -0.4765
vn -0.4765 0.7388 0.4765
vn 0.4765 0.4765 0.7388
vn 0.4765 0.7388 0.4765
vn -0.8372 0.5240 0.1566
vn -0.7388 -0.4765 0.4765
vn -0.4765 -0.7388 -0.4765
vn -0.4765 -0.7388 0.4765
vn 0.4765 -0.4765 -0.7388
vn 0.4765 -0.7388 -0.4765
vn 0.7388 -0.4765 -0.4765
vn 0.7388 -0.4765 0.4765
vn 0.4765 -0.7388 0.4765
vn 0.8518 0.3705 0.3705
vn 0.7388 0.4765 0.4765
vn 0.8372 0.1566 0.5239
vn 0.7388 0.4765 -0.4765
vn 0.4765 0.7388 -0.4765
vn 0.4765 0.4765 -0.7388
vn 0.8372 0.5239 0.1566
vn 0.4765 -0.4765 0.7388
vn -0.4765 -0.4765 0.7388
vn 0.0000 0.7071 0.7071
vn 0.8517 0.3705 -0.3705
vn 0.8372 0.1566 -0.5239
vn 0.8372 0.5240 -0.1566
vn -0.8517 0.3706 -0.3706
vn -0.8372 0.1566 -0.5239
vn -0.8372 0.5239 -0.1566
vn 0.0000 0.7071 -0.7071
usemtl FrontColor
s 1
f 163/341/89 164/342/89 165/343/89 166/344/89
s 2
f 164/345/90 163/346/90 167/347/90 168/348/90
s 3
f 163/349/91 166/350/91 169/351/91 167/352/91
s 4
f 166/353/92 165/354/92 170/355/92 171/356/92 169/357/92
s 5
f 170/358/93 165/359/93 164/360/93 168/361/93
s 6
f 168/362/94 167/363/94 169/364/94 171/365/94 170/366/94
s 7
f 172/367/95 173/368/96 174/369/97 175/370/98
f 176/371/99 177/372/100 178/373/101 179/374/102
f 177/372/100 180/375/103 178/373/101
f 177/372/100 172/367/95 181/376/104 180/375/103
f 181/376/104 172/367/95 175/370/98
f 175/377/98 182/378/105 183/379/106 181/380/104
f 174/369/97 173/368/96 184/381/107
f 173/368/96 185/382/95 186/383/104 184/381/107
f 187/384/108 176/371/99 188/385/109 189/386/110
f 188/385/109 176/371/99 179/374/102
f 179/387/102 190/388/111 191/389/112 188/390/109
f 192/391/113 191/392/112 190/393/111
f 192/391/113 193/394/114 194/395/115 191/392/112
f 195/396/116 196/397/117 182/398/105 197/399/118
f 196/397/117 183/400/106 182/398/105
f 196/397/117 198/401/119 199/402/120 183/400/106
f 199/402/120 198/401/119 200/403/121
f 198/401/119 192/391/113 190/393/111 200/403/121
f 200/404/121 178/405/101 180/406/103 199/407/120
f 195/396/116 197/399/118 201/408/122
f 202/409/117 195/396/116 201/408/122 203/410/106
f 204/411/98 205/412/105 203/413/106 186/414/104
f 193/394/114 202/409/117 205/415/105 206/416/123
f 202/409/117 203/410/106 205/415/105
f 194/395/115 193/394/114 206/416/123
f 206/417/123 207/418/124 189/419/110 194/420/115
f 187/384/108 189/386/110 207/421/124
f 185/382/95 187/384/108 207/421/124 204/422/98
f 186/383/104 185/382/95 204/422/98
s 8
f 177/372/92 176/371/92 173/368/92 172/367/92
f 185/382/92 173/368/92 176/371/92 187/384/92
s 9
f 174/423/94 197/424/94 182/425/94 175/426/94
s 10
f 197/427/125 174/428/125 184/429/125 201/430/125
s 11
f 193/394/90 192/391/90 195/396/90 202/409/90
f 196/397/90 195/396/90 192/391/90 198/401/90
s 12
f 183/379/91 199/407/91 180/406/91 181/380/91
s 13
f 203/413/91 201/430/91 184/429/91 186/414/91
s 14
f 206/431/94 205/432/94 204/433/94 207/434/94
s 15
f 191/389/93 194/420/93 189/419/93 188/390/93
s 16
f 208/435/119 209/436/126 210/437/127 211/438/121
f 212/439/114 213/440/117 214/441/105 215/442/123
f 213/440/117 216/443/106 214/441/105
f 213/440/117 208/435/119 217/444/120 216/443/106
f 217/444/120 208/435/119 211/438/121
f 211/445/121 218/446/101 219/447/103 217/448/120
f 210/437/127 209/436/126 220/449/128
f 209/436/126 221/450/119 222/451/120 220/449/128
f 223/452/113 212/439/114 224/453/115 225/454/112
f 224/453/115 212/439/114 215/442/123
f 215/455/123 226/456/124 227/457/110 224/458/115
f 228/459/108 227/460/110 226/461/124
f 228/459/108 229/462/99 230/463/109 227/460/110
f 231/464/129 232/465/100 218/466/101 233/467/130
f 232/465/100 219/468/103 218/466/101
f 232/465/100 234/469/95 235/470/104 219/468/103
f 235/470/104 234/469/95 236/471/98
f 234/469/95 228/459/108 226/461/124 236/471/98
f 236/472/98 214/473/105 216/474/106 235/475/104
f 231/464/129 233/467/130 237/476/131
f 238/477/100 231/464/129 237/476/131 239/478/103
f 240/479/121 241/480/101 239/481/103 222/482/120
f 229/462/99 238/477/100 241/483/101 242/484/102
f 238/477/100 239/478/103 241/483/101
f 230/463/109 229/462/99 242/484/102
f 242/485/102 243/486/111 225/487/112 230/488/109
f 223/452/113 225/454/112 243/489/111
f 221/450/119 223/452/113 243/489/111 240/490/121
f 222/451/120 221/450/119 240/490/121
s 17
f 213/440/90 212/439/90 209/436/90 208/435/90
f 221/450/90 209/436/90 212/439/90 223/452/90
s 18
f 210/491/89 233/492/89 218/446/89 211/445/89
s 19
f 233/493/132 210/494/132 220/495/132 237/496/132
s 20
f 229/462/92 228/459/92 231/464/92 238/477/92
f 232/465/92 231/464/92 228/459/92 234/469/92
s 21
f 219/497/91 235/475/91 216/474/91 217/498/91
s 22
f 239/481/91 237/496/91 220/495/91 222/482/91
s 23
f 242/499/89 241/500/89 240/501/89 243/502/89
s 24
f 227/457/93 230/488/93 225/487/93 224/458/93
