# Blender v2.78 (sub 0) OBJ File: 'video_store_labels.blend'
# www.blender.org
mtllib video_store_labels_horror.mtl
o Mesh1_Group3_Group2_Group1_Model
v 0.060000 0.029000 -0.011500
v 0.060000 0.005839 -0.011500
v 0.059000 0.007839 -0.012500
v 0.059000 0.029000 -0.012500
v 0.060000 0.001000 -0.003500
v 0.060000 0.029000 -0.003500
v 0.059000 0.029000 -0.002500
v 0.059000 0.001000 -0.002500
v 0.059000 0.030000 -0.003500
v 0.059000 0.030000 -0.011500
v -0.059000 0.029000 -0.012500
v -0.059000 0.030000 -0.011500
v 0.059000 0.006839 -0.013500
v 0.060000 0.005839 -0.021500
v 0.059000 0.006839 -0.021500
v 0.060000 0.001000 -0.021500
v 0.059000 0.000000 -0.003500
v 0.059000 0.000000 -0.021500
v -0.059000 0.001000 -0.002500
v -0.059000 0.000000 -0.003500
v -0.060000 0.001000 -0.003500
v -0.060000 0.001000 -0.021500
v -0.059000 0.000000 -0.021500
v -0.060000 0.005839 -0.011500
v -0.060000 0.029000 -0.011500
v -0.059000 0.007839 -0.012500
v -0.060000 0.029000 -0.003500
v -0.059000 0.030000 -0.003500
v -0.059000 0.029000 -0.002500
v -0.059000 0.006839 -0.013500
v -0.060000 0.005839 -0.021500
v -0.059000 0.006839 -0.021500
v 0.059000 0.005839 -0.022500
v -0.059000 0.005839 -0.022500
v -0.059000 0.001000 -0.022500
v 0.059000 0.001000 -0.022500
v 0.200000 0.150000 -0.002500
v 0.200000 0.000000 -0.002500
v -0.200000 0.000000 -0.002500
v -0.200000 0.150000 -0.002500
v 0.200000 0.150000 0.002500
v 0.200000 -0.000000 0.002500
v -0.200000 0.150000 0.002500
v -0.200000 -0.000000 0.002500
v -0.200000 0.140000 0.002500
v -0.060000 0.029000 0.011500
v -0.060000 0.005839 0.011500
v -0.059000 0.007839 0.012500
v -0.059000 0.029000 0.012500
v -0.060000 0.001000 0.003500
v -0.060000 0.029000 0.003500
v -0.059000 0.029000 0.002500
v -0.059000 0.001000 0.002500
v -0.059000 0.030000 0.003500
v -0.059000 0.030000 0.011500
v 0.059000 0.029000 0.012500
v 0.059000 0.030000 0.011500
v -0.059000 0.006839 0.013500
v -0.060000 0.005839 0.021500
v -0.059000 0.006839 0.021500
v -0.060000 0.001000 0.021500
v -0.059000 -0.000000 0.003500
v -0.059000 -0.000000 0.021500
v 0.059000 0.001000 0.002500
v 0.059000 -0.000000 0.003500
v 0.060000 0.001000 0.003500
v 0.060000 0.001000 0.021500
v 0.059000 -0.000000 0.021500
v 0.060000 0.005839 0.011500
v 0.060000 0.029000 0.011500
v 0.059000 0.007839 0.012500
v 0.060000 0.029000 0.003500
v 0.059000 0.030000 0.003500
v 0.059000 0.029000 0.002500
v 0.059000 0.006839 0.013500
v 0.060000 0.005839 0.021500
v 0.059000 0.006839 0.021500
v -0.059000 0.005839 0.022500
v 0.059000 0.005839 0.022500
v 0.059000 0.001000 0.022500
v -0.059000 0.001000 0.022500
vt 0.7002 0.7953
vt 0.6723 0.7953
vt 0.6747 0.7941
vt 0.7002 0.7941
vt 0.6665 0.8049
vt 0.7002 0.8049
vt 0.7002 0.8061
vt 0.6665 0.8061
vt 0.7014 0.8049
vt 0.7014 0.7953
vt 0.8042 0.3424
vt 0.9460 0.3424
vt 0.9460 0.3412
vt 0.8042 0.3412
vt 0.6735 0.7929
vt 0.6723 0.7833
vt 0.6735 0.7833
vt 0.6665 0.7833
vt 0.6653 0.8049
vt 0.6653 0.7833
vt 0.9472 0.3786
vt 0.8054 0.3786
vt 0.8054 0.3774
vt 0.9472 0.3774
vt 0.8042 0.3786
vt 0.8042 0.6513
vt 0.8259 0.6513
vt 0.8259 0.6501
vt 0.8042 0.6501
vt 0.9472 0.3702
vt 0.9472 0.3424
vt 0.9460 0.3678
vt 0.8042 0.6593
vt 0.8139 0.6593
vt 0.8139 0.6605
vt 0.8042 0.6605
vt 0.8054 0.4135
vt 0.8042 0.4123
vt 0.8054 0.4123
vt 0.9472 0.4123
vt 0.9472 0.4135
vt 0.8356 0.0392
vt 0.8344 0.0404
vt 0.8332 0.0404
vt 0.8236 0.0392
vt 0.8236 0.0404
vt 0.8224 0.1822
vt 0.8224 0.0404
vt 0.8236 0.1822
vt 0.7439 0.6389
vt 0.7439 0.6331
vt 0.7427 0.6331
vt 0.7427 0.6389
vt 0.8271 0.6501
vt 0.8271 0.5083
vt 0.8259 0.5083
vt 0.6665 0.7821
vt 0.6723 0.7821
vt 0.8042 0.3678
vt 0.8344 0.1822
vt 0.8332 0.1822
vt 0.5500 0.1172
vt 0.5500 0.0956
vt 0.5442 0.1052
vt 0.5442 0.1172
vt 0.5164 0.1052
vt 0.5164 0.0956
vt 0.8139 0.8023
vt 0.8042 0.8023
vt 0.6009 0.6331
vt 0.6009 0.6389
vt 0.8042 0.5083
vt 0.0050 0.9749
vt 0.1852 0.9749
vt 0.1852 0.4942
vt 0.0050 0.4942
vt 0.4982 0.8807
vt 0.6785 0.8807
vt 0.6785 0.8867
vt 0.4982 0.8867
vt 0.7901 0.4857
vt 0.7901 0.0050
vt 0.7962 0.0050
vt 0.7962 0.4857
vt 0.8042 0.4277
vt 0.9845 0.4277
vt 0.9845 0.4217
vt 0.8163 0.4217
vt 0.8042 0.4217
vt 0.7901 0.9950
vt 0.7962 0.9950
vt 0.7962 0.5143
vt 0.7901 0.5143
vt 0.3745 0.4942
vt 0.1942 0.4942
vt 0.1942 0.9749
vt 0.2063 0.9749
vt 0.3745 0.9749
vt 0.5164 0.0472
vt 0.5442 0.0472
vt 0.5418 0.0460
vt 0.5164 0.0460
vt 0.7258 0.7082
vt 0.7258 0.6746
vt 0.7246 0.6746
vt 0.7246 0.7082
vt 0.7246 0.6734
vt 0.3835 0.6734
vt 0.3931 0.6734
vt 0.3931 0.6746
vt 0.3835 0.6746
vt 0.3943 0.6746
vt 0.3943 0.8164
vt 0.3931 0.8164
vt 0.4028 0.6746
vt 0.4016 0.6734
vt 0.4040 0.6746
vt 0.4136 0.6734
vt 0.4136 0.6746
vt 0.4994 0.8164
vt 0.5211 0.8164
vt 0.5211 0.8152
vt 0.4994 0.8152
vt 0.7246 0.7094
vt 0.5828 0.7082
vt 0.5828 0.7094
vt 0.5840 0.7189
vt 0.5828 0.7189
vt 0.5840 0.7177
vt 0.5840 0.7405
vt 0.5828 0.7405
vt 0.5898 0.7285
vt 0.6176 0.7285
vt 0.6176 0.7297
vt 0.5922 0.7297
vt 0.6188 0.7285
vt 0.6176 0.7189
vt 0.6188 0.7189
vt 0.6176 0.7177
vt 0.5828 0.6746
vt 0.5828 0.6734
vt 0.5910 0.7309
vt 0.5898 0.7405
vt 0.5910 0.7405
vt 0.4148 0.6746
vt 0.4148 0.8164
vt 0.4136 0.8164
vt 0.5898 0.7417
vt 0.5840 0.7417
vt 0.4982 0.6734
vt 0.4982 0.8152
vt 0.4994 0.6734
vt 0.6009 0.5443
vt 0.6009 0.5385
vt 0.6021 0.5385
vt 0.6021 0.5443
vt 0.5164 0.0568
vt 0.5500 0.0568
vt 0.5442 0.0352
vt 0.5500 0.0352
vt 0.5740 0.8152
vt 0.5740 0.6734
vt 0.5486 0.6734
vt 0.5486 0.8152
vt 0.4028 0.8164
vt 0.4040 0.8164
vt 0.3835 0.8164
vt 0.7439 0.5385
vt 0.7439 0.5443
vt 0.5211 0.6734
vn 0.7388 0.4765 -0.4765
vn 0.8517 0.3705 -0.3705
vn 0.8372 0.1566 -0.5239
vn 0.4765 0.4765 -0.7388
vn 0.7388 -0.4765 0.4765
vn 0.7388 0.4765 0.4765
vn 0.4765 0.4765 0.7388
vn 0.4765 -0.4765 0.7388
vn 0.4765 0.7388 0.4765
vn 0.4765 0.7388 -0.4765
vn -0.4765 0.4765 -0.7388
vn -0.4765 0.7388 -0.4765
vn 0.8372 0.5240 -0.1566
vn 0.7388 -0.4765 -0.4765
vn 0.4765 -0.7388 0.4765
vn 0.4765 -0.7388 -0.4765
vn -0.4765 -0.4765 0.7388
vn -0.4765 -0.7388 0.4765
vn -0.7388 -0.4765 0.4765
vn -0.7388 -0.4765 -0.4765
vn -0.4765 -0.7388 -0.4765
vn -0.8517 0.3705 -0.3705
vn -0.7388 0.4765 -0.4765
vn -0.8372 0.1566 -0.5239
vn -0.7388 0.4765 0.4765
vn -0.4765 0.7388 0.4765
vn -0.4765 0.4765 0.7388
vn -0.8372 0.5240 -0.1566
vn -0.4765 -0.4765 -0.7388
vn 0.4765 -0.4765 -0.7388
vn 1.0000 0.0000 0.0000
vn 0.0000 0.0000 -1.0000
vn 0.0000 0.7071 -0.7071
vn -1.0000 -0.0000 0.0000
vn 0.0000 1.0000 0.0000
vn 0.0000 -1.0000 -0.0000
vn 0.0000 -0.0000 1.0000
vn -0.8517 0.3705 0.3705
vn -0.8372 0.1566 0.5240
vn -0.8372 0.5240 0.1566
vn 0.8517 0.3705 0.3705
vn 0.8372 0.1566 0.5239
vn 0.8372 0.5239 0.1566
vn 0.0000 0.7071 0.7071
usemtl FrontColor
s 1
f 1/1/1 2/2/2 3/3/3 4/4/4
f 5/5/5 6/6/6 7/7/7 8/8/8
f 6/6/6 9/9/9 7/7/7
f 6/6/6 1/1/1 10/10/10 9/9/9
f 10/10/10 1/1/1 4/4/4
f 4/11/4 11/12/11 12/13/12 10/14/10
f 3/3/3 2/2/2 13/15/13
f 2/2/2 14/16/1 15/17/10 13/15/13
f 16/18/14 5/5/5 17/19/15 18/20/16
f 17/19/15 5/5/5 8/8/8
f 8/21/8 19/22/17 20/23/18 17/24/15
f 21/25/19 20/23/18 19/22/17
f 21/26/19 22/27/20 23/28/21 20/29/18
f 24/30/22 25/31/23 11/12/11 26/32/24
f 25/31/23 12/13/12 11/12/11
f 25/33/23 27/34/25 28/35/26 12/36/12
f 28/37/26 27/38/25 29/39/27
f 27/38/25 21/25/19 19/22/17 29/39/27
f 29/39/27 7/40/7 9/41/9 28/37/26
f 24/42/22 26/43/24 30/44/28
f 31/45/23 24/42/22 30/44/28 32/46/12
f 33/47/4 34/48/11 32/46/12 15/49/10
f 22/50/20 31/51/23 34/52/11 35/53/29
f 31/45/23 32/46/12 34/48/11
f 23/28/21 22/27/20 35/54/29
f 35/54/29 36/55/30 18/56/16 23/28/21
f 16/18/14 18/20/16 36/57/30
f 14/16/1 16/18/14 36/57/30 33/58/4
f 15/17/10 14/16/1 33/58/4
s 2
f 6/6/31 5/5/31 2/2/31 1/1/31
f 14/16/31 2/2/31 5/5/31 16/18/31
s 3
f 3/59/32 26/32/32 11/12/32 4/11/32
s 4
f 26/43/33 3/60/33 13/61/33 30/44/33
s 5
f 22/62/34 21/63/34 24/64/34 31/65/34
f 25/66/34 24/64/34 21/63/34 27/67/34
s 6
f 12/36/35 28/35/35 9/68/35 10/69/35
s 7
f 32/46/35 30/44/35 13/61/35 15/49/35
s 8
f 35/53/32 34/52/32 33/70/32 36/71/32
s 9
f 20/29/36 23/28/36 18/56/36 17/72/36
s 10
f 37/73/32 38/74/32 39/75/32 40/76/32
s 11
f 38/77/31 37/78/31 41/79/31 42/80/31
s 12
f 37/81/35 40/82/35 43/83/35 41/84/35
s 13
f 40/85/34 39/86/34 44/87/34 45/88/34 43/89/34
s 14
f 44/90/36 39/91/36 38/92/36 42/93/36
s 15
f 42/94/37 41/95/37 43/96/37 45/97/37 44/98/37
s 16
f 46/99/25 47/100/38 48/101/39 49/102/27
f 50/103/20 51/104/23 52/105/11 53/106/29
f 51/104/23 54/107/12 52/105/11
f 51/108/23 46/109/25 55/110/26 54/111/12
f 55/110/26 46/109/25 49/112/27
f 49/112/27 56/113/7 57/114/9 55/110/26
f 48/115/39 47/116/38 58/117/40
f 47/116/38 59/118/25 60/119/26 58/117/40
f 61/120/19 50/121/20 62/122/21 63/123/18
f 62/124/21 50/103/20 53/106/29
f 53/106/29 64/125/30 65/126/16 62/124/21
f 66/127/14 65/128/16 64/129/30
f 66/127/14 67/130/5 68/131/15 65/128/16
f 69/132/41 70/133/6 56/134/7 71/135/42
f 70/133/6 57/136/9 56/134/7
f 70/133/6 72/137/1 73/138/10 57/136/9
f 73/138/10 72/137/1 74/139/4
f 72/137/1 66/127/14 64/129/30 74/139/4
f 74/140/4 52/105/11 54/107/12 73/141/10
f 69/132/41 71/135/42 75/142/43
f 76/143/6 69/132/41 75/142/43 77/144/9
f 78/145/27 79/146/7 77/147/9 60/119/26
f 67/130/5 76/143/6 79/148/7 80/149/8
f 76/143/6 77/144/9 79/148/7
f 68/131/15 67/130/5 80/149/8
f 80/150/8 81/151/17 63/123/18 68/152/15
f 61/120/19 63/123/18 81/151/17
f 59/153/25 61/154/19 81/155/17 78/156/27
f 60/119/26 59/118/25 78/145/27
s 17
f 51/157/34 50/158/34 47/100/34 46/99/34
f 59/159/34 47/100/34 50/158/34 61/160/34
s 18
f 48/161/37 71/162/37 56/163/37 49/164/37
s 19
f 71/165/44 48/115/44 58/117/44 75/166/44
s 20
f 67/130/31 66/127/31 69/132/31 76/143/31
f 70/133/31 69/132/31 66/127/31 72/137/31
s 21
f 57/114/35 73/167/35 54/111/35 55/110/35
s 22
f 77/147/35 75/166/35 58/117/35 60/119/35
s 23
f 80/168/37 79/169/37 78/156/37 81/155/37
s 24
f 65/170/36 68/152/36 63/123/36 62/122/36
