# Blender v2.78 (sub 0) OBJ File: 'video_store_neon_lights.blend'
# www.blender.org
mtllib video_store_neon_lights.mtl
o Mesh6_Group11_Group10_Group1_Model
v 0.851213 0.089491 0.055600
v 0.896117 0.089491 0.055600
v 0.896117 0.109236 0.044200
v 0.851213 0.109236 0.044200
v 0.851213 0.069745 0.044200
v 0.896117 0.069745 0.044200
v 0.851213 0.069745 0.021400
v 0.896117 0.069745 0.021400
v 0.851213 0.089491 0.010000
v 0.896117 0.089491 0.010000
v 0.851213 0.109236 0.021400
v 0.896117 0.109236 0.021400
v 0.851213 0.107307 0.022514
v 0.851213 0.107307 0.043086
v 0.851213 0.089491 0.012228
v 0.851213 0.071675 0.022514
v 0.851213 0.071675 0.043086
v 0.851213 0.089491 0.053372
v 0.896117 0.107307 0.043086
v 0.896117 0.107307 0.022514
v 0.896117 0.089491 0.053372
v 0.896117 0.071675 0.043086
v 0.896117 0.071675 0.022514
v 0.896117 0.089491 0.012228
v -0.877548 0.080830 0.010000
v -0.882548 0.089491 0.010000
v -0.882548 0.089491 0.000000
v -0.877548 0.080830 0.000000
v -0.877548 0.080830 0.015000
v -0.867548 0.080830 0.015000
v -0.867548 0.080830 0.010000
v -0.867548 0.080830 0.000000
v -0.862548 0.089491 0.010000
v -0.862548 0.089491 0.000000
v -0.867548 0.098151 0.010000
v -0.867548 0.098151 0.000000
v -0.867548 0.098151 0.015000
v -0.877548 0.098151 0.010000
v -0.877548 0.098151 0.015000
v -0.877548 0.098151 0.000000
v 0.851213 -0.000000 0.055600
v 0.896117 -0.000000 0.055600
v 0.896117 0.019745 0.044200
v 0.851213 0.019745 0.044200
v 0.851213 -0.019745 0.044200
v 0.896117 -0.019745 0.044200
v 0.851213 -0.019745 0.021400
v 0.896117 -0.019745 0.021400
v 0.851213 -0.000000 0.010000
v 0.896117 -0.000000 0.010000
v 0.851213 0.019745 0.021400
v 0.896117 0.019745 0.021400
v 0.851213 0.017816 0.022514
v 0.851213 0.017816 0.043086
v 0.851213 -0.000000 0.012228
v 0.851213 -0.017816 0.022514
v 0.851213 -0.017816 0.043086
v 0.851213 -0.000000 0.053372
v 0.896117 0.017816 0.043086
v 0.896117 0.017816 0.022514
v 0.896117 -0.000000 0.053372
v 0.896117 -0.017816 0.043086
v 0.896117 -0.017816 0.022514
v 0.896117 -0.000000 0.012228
v -0.877548 -0.008660 0.010000
v -0.882548 -0.000000 0.010000
v -0.882548 0.000000 0.000000
v -0.877548 -0.008660 -0.000000
v -0.877548 -0.008660 0.015000
v -0.867548 -0.008660 0.015000
v -0.867548 -0.008660 0.010000
v -0.867548 -0.008660 -0.000000
v -0.862548 -0.000000 0.010000
v -0.862548 0.000000 0.000000
v -0.867548 0.008660 0.010000
v -0.867548 0.008660 0.000000
v -0.867548 0.008660 0.015000
v -0.877548 0.008660 0.010000
v -0.877548 0.008660 0.015000
v -0.877548 0.008660 0.000000
v -0.895000 -0.000000 0.055600
v -0.850096 -0.000000 0.055600
v -0.850096 0.019745 0.044200
v -0.895000 0.019745 0.044200
v -0.895000 -0.019745 0.044200
v -0.850096 -0.019745 0.044200
v -0.895000 -0.019745 0.021400
v -0.850096 -0.019745 0.021400
v -0.895000 -0.000000 0.010000
v -0.850096 -0.000000 0.010000
v -0.895000 0.019745 0.021400
v -0.850096 0.019745 0.021400
v -0.895000 0.017816 0.022514
v -0.895000 0.017816 0.043086
v -0.895000 -0.000000 0.012228
v -0.895000 -0.017816 0.022514
v -0.895000 -0.017816 0.043086
v -0.895000 -0.000000 0.053372
v -0.850096 0.017816 0.043086
v -0.850096 0.017816 0.022514
v -0.850096 -0.000000 0.053372
v -0.850096 -0.017816 0.043086
v -0.850096 -0.017816 0.022514
v -0.850096 -0.000000 0.012228
v 0.868665 -0.008660 0.010000
v 0.863665 -0.000000 0.010000
v 0.863665 0.000000 0.000000
v 0.868665 -0.008660 -0.000000
v 0.868665 -0.008660 0.015000
v 0.878665 -0.008660 0.015000
v 0.878665 -0.008660 0.010000
v 0.878665 -0.008660 -0.000000
v 0.883665 -0.000000 0.010000
v 0.883665 0.000000 0.000000
v 0.878665 0.008660 0.010000
v 0.878665 0.008660 0.000000
v 0.878665 0.008660 0.015000
v 0.868665 0.008660 0.010000
v 0.868665 0.008660 0.015000
v 0.868665 0.008660 0.000000
v -1.000000 -0.012321 0.039913
v -1.000000 -0.000000 0.047027
v -1.000000 -0.000000 0.018574
v -1.000000 -0.012321 0.025687
v -0.995000 -0.017321 0.042800
v -0.995000 -0.000000 0.052800
v -0.995000 -0.017321 0.022800
v -0.995000 -0.000000 0.012800
v -1.000000 0.012320 0.025687
v -0.995000 0.017320 0.022800
v -1.000000 0.012320 0.039913
v -0.995000 0.017320 0.042800
v 0.995000 0.017320 0.042800
v 0.995000 -0.000000 0.052800
v 0.995000 0.017320 0.022800
v 0.995000 -0.000000 0.012800
v 0.995000 -0.017321 0.022800
v 0.995000 -0.017321 0.042800
v 1.000000 -0.012321 0.039913
v 1.000000 -0.000000 0.047027
v 1.000000 -0.012321 0.025687
v 1.000000 -0.000000 0.018574
v 1.000000 0.012320 0.025687
v 1.000000 0.012320 0.039913
v -1.000000 0.077170 0.039913
v -1.000000 0.089491 0.047027
v -1.000000 0.089491 0.018574
v -1.000000 0.077170 0.025687
v -0.995000 0.072170 0.042800
v -0.995000 0.089491 0.052800
v -0.995000 0.072170 0.022800
v -0.995000 0.089491 0.012800
v -1.000000 0.101811 0.025687
v -0.995000 0.106811 0.022800
v -1.000000 0.101811 0.039913
v -0.995000 0.106811 0.042800
v 0.995000 0.106811 0.042800
v 0.995000 0.089491 0.052800
v 0.995000 0.106811 0.022800
v 0.995000 0.089491 0.012800
v 0.995000 0.072170 0.022800
v 0.995000 0.072170 0.042800
v 1.000000 0.077170 0.039913
v 1.000000 0.089491 0.047027
v 1.000000 0.077170 0.025687
v 1.000000 0.089491 0.018574
v 1.000000 0.101811 0.025687
v 1.000000 0.101811 0.039913
v -0.895000 0.089491 0.055600
v -0.850096 0.089491 0.055600
v -0.850096 0.109236 0.044200
v -0.895000 0.109236 0.044200
v -0.895000 0.069745 0.044200
v -0.850096 0.069745 0.044200
v -0.895000 0.069745 0.021400
v -0.850096 0.069745 0.021400
v -0.895000 0.089491 0.010000
v -0.850096 0.089491 0.010000
v -0.895000 0.109236 0.021400
v -0.850096 0.109236 0.021400
v -0.895000 0.107307 0.022514
v -0.895000 0.107307 0.043086
v -0.895000 0.089491 0.012228
v -0.895000 0.071675 0.022514
v -0.895000 0.071675 0.043086
v -0.895000 0.089491 0.053372
v -0.850096 0.107307 0.043086
v -0.850096 0.107307 0.022514
v -0.850096 0.089491 0.053372
v -0.850096 0.071675 0.043086
v -0.850096 0.071675 0.022514
v -0.850096 0.089491 0.012228
v 0.868665 0.080830 0.010000
v 0.863665 0.089491 0.010000
v 0.863665 0.089491 0.000000
v 0.868665 0.080830 0.000000
v 0.868665 0.080830 0.015000
v 0.878665 0.080830 0.015000
v 0.878665 0.080830 0.010000
v 0.878665 0.080830 0.000000
v 0.883665 0.089491 0.010000
v 0.883665 0.089491 0.000000
v 0.878665 0.098151 0.010000
v 0.878665 0.098151 0.000000
v 0.878665 0.098151 0.015000
v 0.868665 0.098151 0.010000
v 0.868665 0.098151 0.015000
v 0.868665 0.098151 0.000000
vt 0.1086 0.1628
vt 0.1290 0.1628
vt 0.1290 0.1717
vt 0.1086 0.1717
vt 0.1086 0.1538
vt 0.1290 0.1538
vt 0.1627 0.1333
vt 0.1627 0.1130
vt 0.1524 0.1130
vt 0.1524 0.1333
vt 0.1027 0.1730
vt 0.0823 0.1730
vt 0.0823 0.1819
vt 0.1027 0.1819
vt 0.1027 0.1640
vt 0.0823 0.1640
vt 0.1684 0.1129
vt 0.1684 0.0925
vt 0.1788 0.0925
vt 0.1788 0.1129
vt 0.0896 0.1371
vt 0.0896 0.1474
vt 0.0905 0.1469
vt 0.0905 0.1376
vt 0.0986 0.1526
vt 0.0986 0.1516
vt 0.1075 0.1474
vt 0.1067 0.1469
vt 0.1075 0.1371
vt 0.1067 0.1376
vt 0.0986 0.1319
vt 0.0986 0.1329
vt 0.0813 0.1473
vt 0.0813 0.1577
vt 0.0804 0.1572
vt 0.0804 0.1478
vt 0.0723 0.1628
vt 0.0723 0.1618
vt 0.0634 0.1577
vt 0.0642 0.1572
vt 0.0634 0.1473
vt 0.0642 0.1478
vt 0.0723 0.1422
vt 0.0723 0.1432
vt 0.1213 0.1342
vt 0.1173 0.1342
vt 0.1173 0.1387
vt 0.1213 0.1387
vt 0.1213 0.1319
vt 0.1538 0.0948
vt 0.1538 0.0993
vt 0.1561 0.0993
vt 0.1561 0.0948
vt 0.1606 0.0993
vt 0.1606 0.0948
vt 0.1561 0.0925
vt 0.1606 0.0925
vt 0.1388 0.1598
vt 0.1349 0.1598
vt 0.1349 0.1553
vt 0.1388 0.1553
vt 0.1388 0.1621
vt 0.1125 0.2102
vt 0.1102 0.2102
vt 0.1102 0.2057
vt 0.1125 0.2057
vt 0.1057 0.2102
vt 0.1057 0.2057
vt 0.1102 0.2034
vt 0.1057 0.2034
vt 0.1713 0.2036
vt 0.1917 0.2036
vt 0.1917 0.2126
vt 0.1713 0.2126
vt 0.1713 0.1947
vt 0.1917 0.1947
vt 0.0737 0.2150
vt 0.0737 0.1947
vt 0.0634 0.1947
vt 0.0634 0.2150
vt 0.2165 0.1540
vt 0.1961 0.1540
vt 0.1961 0.1630
vt 0.2165 0.1630
vt 0.2165 0.1451
vt 0.1961 0.1451
vt 0.1319 0.2150
vt 0.1319 0.1947
vt 0.1423 0.1947
vt 0.1423 0.2150
vt 0.1976 0.1998
vt 0.1976 0.2102
vt 0.1985 0.2097
vt 0.1985 0.2004
vt 0.2066 0.2154
vt 0.2066 0.2143
vt 0.2155 0.2102
vt 0.2146 0.2097
vt 0.2155 0.1998
vt 0.2146 0.2004
vt 0.2066 0.1947
vt 0.2066 0.1957
vt 0.2184 0.0977
vt 0.2184 0.1081
vt 0.2175 0.1075
vt 0.2175 0.0982
vt 0.2095 0.1132
vt 0.2095 0.1122
vt 0.2005 0.1081
vt 0.2014 0.1075
vt 0.2005 0.0977
vt 0.2014 0.0982
vt 0.2095 0.0925
vt 0.2095 0.0936
vt 0.1227 0.0948
vt 0.1188 0.0948
vt 0.1188 0.0993
vt 0.1227 0.0993
vt 0.1227 0.0925
vt 0.1188 0.1211
vt 0.1188 0.1256
vt 0.1211 0.1256
vt 0.1211 0.1211
vt 0.1256 0.1256
vt 0.1256 0.1211
vt 0.1211 0.1188
vt 0.1256 0.1188
vt 0.1242 0.1102
vt 0.1203 0.1102
vt 0.1203 0.1057
vt 0.1242 0.1057
vt 0.1242 0.1125
vt 0.0833 0.1344
vt 0.0810 0.1344
vt 0.0810 0.1298
vt 0.0833 0.1298
vt 0.0765 0.1344
vt 0.0765 0.1298
vt 0.0810 0.1276
vt 0.0765 0.1276
vt 0.1699 0.1540
vt 0.1902 0.1540
vt 0.1902 0.1630
vt 0.1699 0.1630
vt 0.1699 0.1451
vt 0.1902 0.1451
vt 0.1948 0.1129
vt 0.1948 0.0925
vt 0.1845 0.0925
vt 0.1845 0.1129
vt 0.0998 0.1963
vt 0.0794 0.1963
vt 0.0794 0.2053
vt 0.0998 0.2053
vt 0.0998 0.1874
vt 0.0794 0.1874
vt 0.1903 0.1392
vt 0.1903 0.1188
vt 0.2006 0.1188
vt 0.2006 0.1392
vt 0.1290 0.1342
vt 0.1290 0.1445
vt 0.1299 0.1440
vt 0.1299 0.1347
vt 0.1380 0.1497
vt 0.1380 0.1487
vt 0.1469 0.1445
vt 0.1461 0.1440
vt 0.1469 0.1342
vt 0.1461 0.1347
vt 0.1380 0.1290
vt 0.1380 0.1300
vt 0.1484 0.0977
vt 0.1484 0.1081
vt 0.1475 0.1075
vt 0.1475 0.0982
vt 0.1394 0.1132
vt 0.1394 0.1122
vt 0.1305 0.1081
vt 0.1314 0.1075
vt 0.1305 0.0977
vt 0.1314 0.0982
vt 0.1394 0.0925
vt 0.1394 0.0936
vt 0.1125 0.1240
vt 0.1086 0.1240
vt 0.1086 0.1285
vt 0.1125 0.1285
vt 0.1125 0.1217
vt 0.0634 0.1313
vt 0.0634 0.1358
vt 0.0656 0.1358
vt 0.0656 0.1313
vt 0.0702 0.1358
vt 0.0702 0.1313
vt 0.0656 0.1290
vt 0.0702 0.1290
vt 0.0892 0.1204
vt 0.0852 0.1204
vt 0.0852 0.1159
vt 0.0892 0.1159
vt 0.0892 0.1227
vt 0.1023 0.1256
vt 0.1000 0.1256
vt 0.1000 0.1211
vt 0.1023 0.1211
vt 0.0955 0.1256
vt 0.0955 0.1211
vt 0.1000 0.1188
vt 0.0955 0.1188
vt 0.1614 0.1538
vt 0.1558 0.1506
vt 0.1558 0.1635
vt 0.1614 0.1603
vt 0.1637 0.1525
vt 0.1558 0.1480
vt 0.1637 0.1616
vt 0.1558 0.1661
vt 0.1503 0.1603
vt 0.1480 0.1616
vt 0.1503 0.1538
vt 0.1480 0.1525
vt 0.9512 0.0207
vt 0.0488 0.0207
vt 0.0488 0.0129
vt 0.9512 0.0129
vt 0.0342 0.9075
vt 0.0342 0.0050
vt 0.0433 0.0050
vt 0.0433 0.9075
vt 0.0488 0.0347
vt 0.9512 0.0347
vt 0.9512 0.0269
vt 0.0488 0.0269
vt 0.0488 0.0426
vt 0.9512 0.0426
vt 0.0488 0.0925
vt 0.0488 0.9950
vt 0.0578 0.9950
vt 0.0578 0.0925
vt 0.0488 0.0050
vt 0.9512 0.0050
vt 0.1517 0.2026
vt 0.1573 0.2058
vt 0.1573 0.2084
vt 0.1494 0.2039
vt 0.1517 0.1961
vt 0.1573 0.1929
vt 0.1494 0.1948
vt 0.1573 0.1903
vt 0.1629 0.1961
vt 0.1652 0.1948
vt 0.1629 0.2026
vt 0.1652 0.2039
vt 0.1001 0.0984
vt 0.0946 0.0952
vt 0.0946 0.1081
vt 0.1001 0.1048
vt 0.1024 0.0971
vt 0.0946 0.0925
vt 0.1024 0.1061
vt 0.0946 0.1107
vt 0.0890 0.1048
vt 0.0867 0.1061
vt 0.0890 0.0984
vt 0.0867 0.0971
vt 0.9512 0.0645
vt 0.0488 0.0645
vt 0.0488 0.0566
vt 0.9512 0.0566
vt 0.0050 0.9075
vt 0.0050 0.0050
vt 0.0141 0.0050
vt 0.0141 0.9075
vt 0.0488 0.0785
vt 0.9512 0.0785
vt 0.9512 0.0707
vt 0.0488 0.0707
vt 0.0488 0.0864
vt 0.9512 0.0864
vt 0.0196 0.0050
vt 0.0196 0.9075
vt 0.0287 0.9075
vt 0.0287 0.0050
vt 0.0488 0.0488
vt 0.9512 0.0488
vt 0.0656 0.1180
vt 0.0712 0.1212
vt 0.0712 0.1238
vt 0.0634 0.1193
vt 0.0656 0.1115
vt 0.0712 0.1083
vt 0.0634 0.1102
vt 0.0712 0.1057
vt 0.0768 0.1115
vt 0.0791 0.1102
vt 0.0768 0.1180
vt 0.0791 0.1193
vt 0.2006 0.1888
vt 0.2006 0.1684
vt 0.1903 0.1684
vt 0.1903 0.1888
vt 0.1736 0.1392
vt 0.1736 0.1188
vt 0.1684 0.1188
vt 0.1684 0.1392
vt 0.1839 0.1392
vt 0.1839 0.1188
vt 0.1844 0.1774
vt 0.1640 0.1774
vt 0.1640 0.1863
vt 0.1844 0.1863
vt 0.1844 0.1684
vt 0.1640 0.1684
vt 0.0634 0.1888
vt 0.0634 0.1684
vt 0.0737 0.1684
vt 0.0737 0.1888
vt 0.1349 0.1736
vt 0.1349 0.1839
vt 0.1357 0.1834
vt 0.1357 0.1741
vt 0.1438 0.1891
vt 0.1438 0.1881
vt 0.1528 0.1839
vt 0.1519 0.1834
vt 0.1528 0.1736
vt 0.1519 0.1741
vt 0.1438 0.1684
vt 0.1438 0.1694
vt 0.1265 0.1823
vt 0.1265 0.1927
vt 0.1256 0.1922
vt 0.1256 0.1828
vt 0.1175 0.1978
vt 0.1175 0.1968
vt 0.1086 0.1927
vt 0.1095 0.1922
vt 0.1086 0.1823
vt 0.1095 0.1828
vt 0.1175 0.1772
vt 0.1175 0.1782
vt 0.1125 0.0948
vt 0.1086 0.0948
vt 0.1086 0.0993
vt 0.1125 0.0993
vt 0.1125 0.0925
vt 0.1071 0.1109
vt 0.1071 0.1154
vt 0.1094 0.1154
vt 0.1094 0.1109
vt 0.1139 0.1154
vt 0.1139 0.1109
vt 0.1094 0.1086
vt 0.1139 0.1086
vt 0.0673 0.0971
vt 0.0634 0.0971
vt 0.0634 0.0925
vt 0.0673 0.0925
vt 0.0673 0.0993
vt 0.0804 0.0993
vt 0.0781 0.0993
vt 0.0781 0.0948
vt 0.0804 0.0948
vt 0.0736 0.0993
vt 0.0736 0.0948
vt 0.0781 0.0925
vt 0.0736 0.0925
vn 0.0000 0.0000 1.0000
vn 0.0000 0.8660 0.5000
vn 0.0000 -0.8660 0.5000
vn 0.0000 -0.8660 -0.5000
vn 0.0000 0.0000 -1.0000
vn 0.0000 0.8660 -0.5000
vn -1.0000 0.0000 0.0000
vn 1.0000 -0.0000 0.0000
vn -0.5000 -0.8660 0.0000
vn 0.5000 -0.8660 -0.0000
vn 0.5000 0.8660 0.0000
vn -0.5000 0.8660 0.0000
vn -0.5000 0.8660 -0.0001
vn -0.8918 -0.3918 0.2262
vn -0.9413 0.0000 0.3376
vn -0.9413 0.0000 -0.3377
vn -0.8918 -0.3918 -0.2262
vn -0.4315 -0.7813 0.4511
vn -0.4315 0.0000 0.9021
vn -0.4315 -0.7813 -0.4511
vn -0.4315 0.0000 -0.9021
vn -0.8918 0.3918 -0.2262
vn -0.4315 0.7813 -0.4511
vn -0.8918 0.3918 0.2262
vn -0.4315 0.7813 0.4511
vn 0.4315 0.7813 0.4511
vn 0.4315 0.0000 0.9021
vn 0.4315 0.7813 -0.4510
vn 0.4315 0.0000 -0.9021
vn 0.4315 -0.7813 -0.4511
vn 0.4315 -0.7813 0.4510
vn 0.8918 -0.3918 0.2262
vn 0.9413 -0.0000 0.3376
vn 0.8918 -0.3918 -0.2262
vn 0.9413 0.0000 -0.3377
vn 0.8918 0.3918 -0.2262
vn 0.8918 0.3918 0.2262
vn 0.4315 0.7813 -0.4511
vn 0.4315 -0.7813 0.4511
usemtl FrontColor
s 1
f 1/1/1 2/2/1 3/3/2 4/4/2
f 5/5/3 6/6/3 2/2/1 1/1/1
f 7/7/4 8/8/4 6/9/3 5/10/3
f 9/11/5 10/12/5 8/13/4 7/14/4
f 11/15/6 12/16/6 10/12/5 9/11/5
f 12/17/6 11/18/6 4/19/2 3/20/2
s 2
f 4/21/7 11/22/7 13/23/7 14/24/7
f 11/22/7 9/25/7 15/26/7 13/23/7
f 9/25/7 7/27/7 16/28/7 15/26/7
f 7/27/7 5/29/7 17/30/7 16/28/7
f 5/29/7 1/31/7 18/32/7 17/30/7
f 1/31/7 4/21/7 14/24/7 18/32/7
s 3
f 12/33/8 3/34/8 19/35/8 20/36/8
f 3/34/8 2/37/8 21/38/8 19/35/8
f 2/37/8 6/39/8 22/40/8 21/38/8
f 6/39/8 8/41/8 23/42/8 22/40/8
f 8/41/8 10/43/8 24/44/8 23/42/8
f 10/43/8 12/33/8 20/36/8 24/44/8
s 4
f 25/45/9 26/46/7 27/47/7 28/48/9
f 29/49/9 26/46/7 25/45/9
f 30/50/10 29/51/9 25/52/9 31/53/10
f 31/53/10 25/52/9 28/54/9 32/55/10
f 33/56/8 31/53/10 32/55/10 34/57/8
f 33/56/8 30/50/10 31/53/10
f 35/58/11 33/59/8 34/60/8 36/61/11
f 37/62/11 33/59/8 35/58/11
f 37/63/11 35/64/11 38/65/12 39/66/13
f 38/65/12 35/64/11 36/67/11 40/68/12
f 26/69/7 38/65/12 40/68/12 27/70/7
f 26/69/7 39/66/13 38/65/12
s 5
f 41/71/1 42/72/1 43/73/2 44/74/2
f 45/75/3 46/76/3 42/72/1 41/71/1
f 47/77/4 48/78/4 46/79/3 45/80/3
f 49/81/5 50/82/5 48/83/4 47/84/4
f 51/85/6 52/86/6 50/82/5 49/81/5
f 52/87/6 51/88/6 44/89/2 43/90/2
s 6
f 44/91/7 51/92/7 53/93/7 54/94/7
f 51/92/7 49/95/7 55/96/7 53/93/7
f 49/95/7 47/97/7 56/98/7 55/96/7
f 47/97/7 45/99/7 57/100/7 56/98/7
f 45/99/7 41/101/7 58/102/7 57/100/7
f 41/101/7 44/91/7 54/94/7 58/102/7
s 7
f 52/103/8 43/104/8 59/105/8 60/106/8
f 43/104/8 42/107/8 61/108/8 59/105/8
f 42/107/8 46/109/8 62/110/8 61/108/8
f 46/109/8 48/111/8 63/112/8 62/110/8
f 48/111/8 50/113/8 64/114/8 63/112/8
f 50/113/8 52/103/8 60/106/8 64/114/8
s 8
f 65/115/9 66/116/7 67/117/7 68/118/9
f 69/119/9 66/116/7 65/115/9
f 70/120/10 69/121/9 65/122/9 71/123/10
f 71/123/10 65/122/9 68/124/9 72/125/10
f 73/126/8 71/123/10 72/125/10 74/127/8
f 73/126/8 70/120/10 71/123/10
f 75/128/11 73/129/8 74/130/8 76/131/11
f 77/132/11 73/129/8 75/128/11
f 77/133/11 75/134/11 78/135/12 79/136/12
f 78/135/12 75/134/11 76/137/11 80/138/12
f 66/139/7 78/135/12 80/138/12 67/140/7
f 66/139/7 79/136/12 78/135/12
s 9
f 81/141/1 82/142/1 83/143/2 84/144/2
f 85/145/3 86/146/3 82/142/1 81/141/1
f 87/147/4 88/148/4 86/149/3 85/150/3
f 89/151/5 90/152/5 88/153/4 87/154/4
f 91/155/6 92/156/6 90/152/5 89/151/5
f 92/157/6 91/158/6 84/159/2 83/160/2
s 10
f 84/161/7 91/162/7 93/163/7 94/164/7
f 91/162/7 89/165/7 95/166/7 93/163/7
f 89/165/7 87/167/7 96/168/7 95/166/7
f 87/167/7 85/169/7 97/170/7 96/168/7
f 85/169/7 81/171/7 98/172/7 97/170/7
f 81/171/7 84/161/7 94/164/7 98/172/7
s 11
f 92/173/8 83/174/8 99/175/8 100/176/8
f 83/174/8 82/177/8 101/178/8 99/175/8
f 82/177/8 86/179/8 102/180/8 101/178/8
f 86/179/8 88/181/8 103/182/8 102/180/8
f 88/181/8 90/183/8 104/184/8 103/182/8
f 90/183/8 92/173/8 100/176/8 104/184/8
s 12
f 105/185/9 106/186/7 107/187/7 108/188/9
f 109/189/9 106/186/7 105/185/9
f 110/190/10 109/191/9 105/192/9 111/193/10
f 111/193/10 105/192/9 108/194/9 112/195/10
f 113/196/8 111/193/10 112/195/10 114/197/8
f 113/196/8 110/190/10 111/193/10
f 115/198/11 113/199/8 114/200/8 116/201/11
f 117/202/11 113/199/8 115/198/11
f 117/203/11 115/204/11 118/205/12 119/206/12
f 118/205/12 115/204/11 116/207/11 120/208/12
f 106/209/7 118/205/12 120/208/12 107/210/7
f 106/209/7 119/206/12 118/205/12
s 13
f 121/211/14 122/212/15 123/213/16 124/214/17
f 122/212/15 121/211/14 125/215/18 126/216/19
f 121/211/14 124/214/17 127/217/20 125/215/18
f 124/214/17 123/213/16 128/218/21 127/217/20
f 123/213/16 129/219/22 130/220/23 128/218/21
f 129/219/22 123/213/16 122/212/15 131/221/24
f 131/221/24 122/212/15 126/216/19 132/222/25
f 133/223/26 132/224/25 126/225/19 134/226/27
f 135/227/28 130/228/23 132/229/25 133/230/26
f 136/231/29 128/232/21 130/233/23 135/234/28
f 137/235/30 127/236/20 128/232/21 136/231/29
f 138/237/31 125/238/18 127/239/20 137/240/30
f 134/226/27 126/225/19 125/241/18 138/242/31
f 139/243/32 140/244/33 134/245/27 138/246/31
f 141/247/34 142/248/35 140/244/33 139/243/32
f 142/248/35 141/247/34 137/249/30 136/250/29
f 141/247/34 139/243/32 138/246/31 137/249/30
f 143/251/36 142/248/35 136/250/29 135/252/28
f 144/253/37 140/244/33 142/248/35 143/251/36
f 140/244/33 144/253/37 133/254/26 134/245/27
f 144/253/37 143/251/36 135/252/28 133/254/26
f 129/219/22 131/221/24 132/222/25 130/220/23
s 14
f 145/255/14 146/256/15 147/257/16 148/258/17
f 146/256/15 145/255/14 149/259/18 150/260/19
f 145/255/14 148/258/17 151/261/20 149/259/18
f 148/258/17 147/257/16 152/262/21 151/261/20
f 147/257/16 153/263/22 154/264/23 152/262/21
f 153/263/22 147/257/16 146/256/15 155/265/24
f 155/265/24 146/256/15 150/260/19 156/266/25
f 157/267/26 156/268/25 150/269/19 158/270/27
f 159/271/38 154/272/23 156/273/25 157/274/26
f 160/275/29 152/276/21 154/277/23 159/278/38
f 161/279/30 151/280/20 152/276/21 160/275/29
f 162/281/39 149/282/18 151/283/20 161/284/30
f 158/270/27 150/269/19 149/285/18 162/286/39
f 163/287/32 164/288/33 158/289/27 162/290/39
f 165/291/34 166/292/35 164/288/33 163/287/32
f 166/292/35 165/291/34 161/293/30 160/294/29
f 165/291/34 163/287/32 162/290/39 161/293/30
f 167/295/36 166/292/35 160/294/29 159/296/38
f 168/297/37 164/288/33 166/292/35 167/295/36
f 164/288/33 168/297/37 157/298/26 158/289/27
f 168/297/37 167/295/36 159/296/38 157/298/26
f 153/263/22 155/265/24 156/266/25 154/264/23
s 15
f 169/299/1 170/300/1 171/301/2 172/302/2
f 173/303/3 174/304/3 170/305/1 169/306/1
f 175/307/4 176/308/4 174/304/3 173/303/3
f 177/309/5 178/310/5 176/311/4 175/312/4
f 179/313/6 180/314/6 178/310/5 177/309/5
f 180/315/6 179/316/6 172/317/2 171/318/2
s 16
f 172/319/7 179/320/7 181/321/7 182/322/7
f 179/320/7 177/323/7 183/324/7 181/321/7
f 177/323/7 175/325/7 184/326/7 183/324/7
f 175/325/7 173/327/7 185/328/7 184/326/7
f 173/327/7 169/329/7 186/330/7 185/328/7
f 169/329/7 172/319/7 182/322/7 186/330/7
s 17
f 180/331/8 171/332/8 187/333/8 188/334/8
f 171/332/8 170/335/8 189/336/8 187/333/8
f 170/335/8 174/337/8 190/338/8 189/336/8
f 174/337/8 176/339/8 191/340/8 190/338/8
f 176/339/8 178/341/8 192/342/8 191/340/8
f 178/341/8 180/331/8 188/334/8 192/342/8
s 18
f 193/343/9 194/344/7 195/345/7 196/346/9
f 197/347/9 194/344/7 193/343/9
f 198/348/10 197/349/9 193/350/9 199/351/10
f 199/351/10 193/350/9 196/352/9 200/353/10
f 201/354/8 199/351/10 200/353/10 202/355/8
f 201/354/8 198/348/10 199/351/10
f 203/356/11 201/357/8 202/358/8 204/359/11
f 205/360/11 201/357/8 203/356/11
f 205/361/11 203/362/11 206/363/12 207/364/13
f 206/363/12 203/362/11 204/365/11 208/366/12
f 194/367/7 206/363/12 208/366/12 195/368/7
f 194/367/7 207/364/13 206/363/12
