<?xml version="1.0" encoding="utf-8"?>
<COLLADA xmlns="http://www.collada.org/2005/11/COLLADASchema" version="1.4.1">
  <asset>
    <contributor>
      <author>Blender User</author>
      <authoring_tool>Blender 2.78.0 commit date:2016-10-24, commit time:12:20, hash:e8299c8</authoring_tool>
    </contributor>
    <created>2021-10-29T19:47:18</created>
    <modified>2021-10-29T19:47:18</modified>
    <unit name="meter" meter="1"/>
    <up_axis>Z_UP</up_axis>
  </asset>
  <library_images>
    <image id="video_store_ceiling__color_png" name="video_store_ceiling__color_png">
      <init_from>/I:/3D_Asset_Packages/For%20Sale/Video_Store/Ceiling/Model/video_store_ceiling__color.png</init_from>
    </image>
  </library_images>
  <library_effects>
    <effect id="FrontColor-effect">
      <profile_COMMON>
        <newparam sid="video_store_ceiling__color_png-surface">
          <surface type="2D">
            <init_from>video_store_ceiling__color_png</init_from>
          </surface>
        </newparam>
        <newparam sid="video_store_ceiling__color_png-sampler">
          <sampler2D>
            <source>video_store_ceiling__color_png-surface</source>
          </sampler2D>
        </newparam>
        <technique sid="common">
          <phong>
            <emission>
              <color sid="emission">0 0 0 1</color>
            </emission>
            <ambient>
              <color sid="ambient">0 0 0 1</color>
            </ambient>
            <diffuse>
              <texture texture="video_store_ceiling__color_png-sampler" texcoord="UVMap"/>
            </diffuse>
            <specular>
              <color sid="specular">1 1 1 1</color>
            </specular>
            <shininess>
              <float sid="shininess">52</float>
            </shininess>
            <transparent opaque="A_ONE">
              <color>1 1 1 1</color>
            </transparent>
            <index_of_refraction>
              <float sid="index_of_refraction">1</float>
            </index_of_refraction>
          </phong>
        </technique>
      </profile_COMMON>
    </effect>
  </library_effects>
  <library_materials>
    <material id="FrontColor-material" name="FrontColor">
      <instance_effect url="#FrontColor-effect"/>
    </material>
  </library_materials>
  <library_geometries>
    <geometry id="Mesh5_Group6_Group1_Model-mesh" name="Mesh5_Group6_Group1_Model">
      <mesh>
        <source id="Mesh5_Group6_Group1_Model-mesh-positions">
          <float_array id="Mesh5_Group6_Group1_Model-mesh-positions-array" count="255">0.01914799 0.004999995 -1.98085 0.01914799 0.004999995 -1.01 0.99 0.004999995 -1.01 0.99 0.004999995 -1.98085 1.01 0.004999995 -1.98085 1.01 0.004999995 -1.01 1.98085 0.004999995 -1.01 1.98085 0.004999995 -1.98085 0.99 0.004999995 -0.01914799 0.99 0.004999995 -0.99 0.01914799 0.004999995 -0.99 0.01914799 0.004999995 -0.01914799 1.01 0.004999995 -0.01914799 1.01 0.008999943 -0.01914799 1.98085 0.008999943 -0.01914799 1.98085 0.004999995 -0.01914799 1.01 0.004999995 -0.99 1.01 0.008999943 -0.99 1.98085 0.004999995 -0.99 1.98085 0.008999943 -0.99 1.98185 0.00999999 -0.018148 1.98185 0.00999999 -0.957253 1.98185 0.00999999 -0.991 1.999 0.00999999 -0.000999987 1.99043 0.00999999 -0.505 1.009 0.00999999 -0.018148 0.000999987 0.00999999 -0.000999987 1.009 0.00999999 -0.991 1.98185 0.00999999 -1.009 1.009 0.00999999 -1.009 1.98185 0.00999999 -1.98185 1.999 0.00999999 -0.05274695 1.999 0.00999999 -1.999 1.495 0.00999999 -1.99043 1.04275 0.00999999 -1.98185 1.94725 0.00999999 -1.999 0.018148 0.00999999 -1.98185 0.991 0.00999999 -1.98185 0.000999987 0.00999999 -1.999 0.009573996 0.00999999 -1.495 0.018148 0.00999999 -1.04275 0.000999987 0.00999999 -1.94725 0.018148 0.00999999 -0.018148 0.018148 0.00999999 -0.991 0.991 0.00999999 -0.018148 0.991 0.00999999 -0.991 0.991 0.00999999 -1.009 0.018148 0.00999999 -1.009 1.009 0.00999999 -1.98185 1.98085 0.008999943 -1.98085 1.98085 0.008999943 -1.01 1.01 0.008999943 -1.98085 0.01914799 0.008999943 -1.98085 0.99 0.008999943 -1.98085 0.01914799 0.008999943 -1.01 0.01914799 0.008999943 -0.01914799 0.01914799 0.008999943 -0.99 0.99 0.008999943 -0.01914799 0.99 0.008999943 -0.99 0.99 0.008999943 -1.01 1.01 0.008999943 -1.01 1.01 0.004999995 -1.01 1.98085 0.004999995 -1.01 1.01 0.004999995 -1.98085 1.98085 0.004999995 -1.98085 0.99 0.004999995 -1.01 0.99 0.004999995 -1.98085 0.01914799 0.004999995 -1.01 0.01914799 0.004999995 -1.98085 0.99 0.004999995 -0.99 0.01914799 0.004999995 -0.99 0.99 0.004999995 -0.01914799 0.01914799 0.004999995 -0.01914799 0 0.008999943 -2 0 0.008999943 0 2 0.008999943 -2 2 0.008999943 0 2 0 0 0 0 0 2 0 -2 0 0 -2 1.98085 0.004999995 -0.01914799 1.98085 0.004999995 -0.99 1.01 0.004999995 -0.99 1.01 0.004999995 -0.01914799</float_array>
          <technique_common>
            <accessor source="#Mesh5_Group6_Group1_Model-mesh-positions-array" count="85" stride="3">
              <param name="X" type="float"/>
              <param name="Y" type="float"/>
              <param name="Z" type="float"/>
            </accessor>
          </technique_common>
        </source>
        <source id="Mesh5_Group6_Group1_Model-mesh-normals">
          <float_array id="Mesh5_Group6_Group1_Model-mesh-normals-array" count="273">0 1 0 0 0 -1 1 0 0 0 0 1 -1 0 0 -0.7071101 0.7071035 0 -0.7070435 0.7071701 0 -0.7070971 0.7071164 0 0 1 0 0 1 0 0 1 0 0 1 0 0 -1 0 0 1 0 0 1 0 0 1 0 0 1 0 0 1 0 0 1 2.0873e-6 0 1 0 0 1 0 0 1 0 0 1 3.81289e-6 0 1 0 0 0.4472143 0.8944268 0 1 0 0 0.707107 -0.7071066 0 0.7071067 -0.7071068 0 0.7071068 -0.7071069 0.7071543 0.7070594 0 0.707032 0.7071816 0 0.7071544 0.7070592 0 0 0.7071023 0.7071113 0 0.7071022 0.7071114 -0.707197 0.7070167 0 -0.707018 0.7071956 0 -0.7070178 0.7071957 0 0 0.7071234 0.7070902 0 0.7071255 0.7070881 0 0.7071229 0.7070907 0 0.7071235 0.7070901 0 0.7071236 0.70709 0.7071063 0.7071074 0 0.7071053 0.7071082 0 0.7071065 0.7071072 0 0.7071042 0.7071093 0 0.7071076 0.7071061 0 0 0.7071062 -0.7071073 0 0.7071073 -0.7071064 -0.7071543 0.7070593 0 -0.7070849 0.7071287 0 -0.7071545 0.7070592 0 0 0.7071016 0.707112 0 0.7071026 0.707111 0 0.7071235 -0.7070901 0 0.7071236 -0.70709 -0.7071536 0.70706 0 -0.7070839 0.7071298 0 -0.7071537 0.7070599 0 0.7071536 0.70706 0 0.7070839 0.7071298 0 0.7070838 0.7071298 0 0 0.7071234 -0.7070902 0 0.7071232 -0.7070904 -0.7071095 0.7071042 0 -0.7071069 0.7071068 0 -0.707107 0.7071067 0 0 0.707125 -0.7070886 0 0.7071236 -0.70709 0 0.7071233 -0.7070903 0.7070761 0.7071375 0 0.7069847 0.707229 0 0.707132 0.7070816 0 0 0.7071074 0.7071062 0 0.7071066 0.7071071 -0.7070422 0.7071714 0 0 0.707107 -0.7071066 0.7070319 0.7071816 0 -0.7071972 0.7070164 0 0 0.7071256 0.7070881 0 0.7071063 -0.7071074 -0.7070848 0.7071288 0 -0.7070838 0.7071298 0 0.7071537 0.7070599 0 0 0.7071235 -0.7070902 -0.7071068 0.7071067 0 -0.7071095 0.7071042 0 0 0.7071236 -0.7070899 0 0.7071251 -0.7070885 0.7069846 0.707229 0 0.7070745 0.7071391 0</float_array>
          <technique_common>
            <accessor source="#Mesh5_Group6_Group1_Model-mesh-normals-array" count="91" stride="3">
              <param name="X" type="float"/>
              <param name="Y" type="float"/>
              <param name="Z" type="float"/>
            </accessor>
          </technique_common>
        </source>
        <source id="Mesh5_Group6_Group1_Model-mesh-map-0">
          <float_array id="Mesh5_Group6_Group1_Model-mesh-map-0-array" count="792">0.636833 0.656351 0.323961 0.969225 0.323961 0.656351 0.317873 0.656351 0.004999995 0.969224 0.004999995 0.656351 0.642921 0.969225 0.955795 0.656351 0.955795 0.969225 0.788972 0.323961 0.790261 0.636833 0.790261 0.323961 0.76508 0.330676 0.763791 0.643549 0.763791 0.330676 0.772184 0.323961 0.773474 0.636833 0.773474 0.323961 0.780578 0.323961 0.781867 0.636834 0.781867 0.323961 0.341043 0.643684 0.330489 0.643362 0.643363 0.643362 0.643685 0.643684 0.486789 0.646449 0.341043 0.643684 0.643685 0.330167 0.649211 0.649211 0.643685 0.643684 0.330167 0.643684 0.324366 0.330167 0.330167 0.330167 0.341043 0.643684 0.324366 0.643684 0.330167 0.643684 0.486789 0.646449 0.632535 0.649211 0.005321979 0.649211 0.01084899 0.643684 0.008083999 0.486789 0.01084899 0.341044 0.005321979 0.632534 0.008083999 0.486789 0.005321979 0.649211 0.008083999 0.486789 0.005321979 0.632534 0.005321979 0.005321979 0.01084899 0.01084798 0.1677449 0.008084952 0.31349 0.01084798 0.02199995 0.005321979 0.1677449 0.008084952 0.005321979 0.005321979 0.1677449 0.008084952 0.02199995 0.005321979 0.649211 0.005321979 0.649211 0.005321979 0.643685 0.324366 0.643685 0.01084798 0.643685 0.324366 0.330167 0.330167 0.330167 0.324366 0.324366 0.01084798 0.330167 0.324366 0.324366 0.324366 0.01084899 0.330167 0.324366 0.324366 0.324366 0.330167 0.01084899 0.341044 0.01084899 0.324366 0.01084899 0.330167 0.330167 0.330167 0.324366 0.324366 0.330167 0.324366 0.31349 0.01084798 0.330167 0.01084798 0.324366 0.01084798 0.632535 0.649211 0.486789 0.646449 0.649211 0.649211 0.643685 0.643684 0.643363 0.330489 0.643685 0.330167 0.330167 0.330167 0.643363 0.330489 0.330489 0.330489 0.330167 0.330167 0.330489 0.643362 0.330167 0.643684 0.01084899 0.643684 0.324044 0.643362 0.324366 0.643684 0.01084899 0.341044 0.01117098 0.330489 0.01117098 0.643362 0.01084899 0.01084798 0.01117098 0.324044 0.01084899 0.324366 0.31349 0.01084798 0.324044 0.01117098 0.01117098 0.01117098 0.643685 0.01084798 0.330489 0.01117098 0.330167 0.01084798 0.643685 0.324366 0.643363 0.01117098 0.643685 0.01084798 0.643685 0.324366 0.330489 0.324044 0.643363 0.324044 0.330167 0.324366 0.330489 0.01117098 0.330489 0.324044 0.324366 0.01084798 0.324044 0.324044 0.324044 0.01117098 0.324366 0.324366 0.01117098 0.324044 0.324044 0.324044 0.324366 0.330167 0.01117098 0.330489 0.01084899 0.330167 0.324366 0.643684 0.324044 0.330489 0.324366 0.330167 0.718465 0.337391 0.719753 0.650263 0.719753 0.337391 0.729826 0.323961 0.728537 0.636833 0.728537 0.323961 0.736931 0.330676 0.73822 0.643548 0.73822 0.330676 0.745325 0.335712 0.746614 0.648584 0.746614 0.335712 0.755397 0.323961 0.756686 0.636833 0.756686 0.323961 0.664745 0.332354 0.666034 0.645228 0.666034 0.332354 0.676107 0.323961 0.674818 0.636833 0.674818 0.323961 0.683211 0.330676 0.6845 0.643549 0.6845 0.330676 0.691605 0.335712 0.692894 0.648585 0.692894 0.335712 0.701677 0.323961 0.702966 0.636834 0.702966 0.323961 0.710071 0.330676 0.71136 0.643549 0.71136 0.330676 0.65764 0.323961 0.656351 0.636834 0.656351 0.323961 0.004999995 0.004999995 0.649533 0.004999995 0.02199995 0.005321979 0.004999995 0.649533 0.004999995 0.004999995 0.005321979 0.632534 0.649533 0.649533 0.004999995 0.649533 0.632535 0.649211 0.649211 0.005321979 0.649533 0.649533 0.649211 0.649211 0.961882 0.323961 0.964783 0.968494 0.964783 0.323961 0.974855 0.330676 0.971955 0.975209 0.971955 0.330676 0.982027 0.337391 0.984928 0.981924 0.984928 0.337391 0.992099 0.344106 0.995 0.988639 0.995 0.344106 0.656351 0.317873 0.969225 0.004999995 0.969225 0.317873 0.636833 0.656351 0.636833 0.969225 0.323961 0.969225 0.317873 0.656351 0.317873 0.969224 0.004999995 0.969224 0.642921 0.969225 0.642921 0.656351 0.955795 0.656351 0.788972 0.323961 0.788972 0.636833 0.790261 0.636833 0.76508 0.330676 0.76508 0.643549 0.763791 0.643549 0.772184 0.323961 0.772184 0.636833 0.773474 0.636833 0.780578 0.323961 0.780578 0.636834 0.781867 0.636834 0.643363 0.643362 0.643685 0.643684 0.341043 0.643684 0.341043 0.643684 0.330167 0.643684 0.330489 0.643362 0.643685 0.643684 0.649211 0.649211 0.486789 0.646449 0.643685 0.330167 0.649211 0.005321979 0.649211 0.649211 0.330167 0.643684 0.324366 0.643684 0.324366 0.330167 0.341043 0.643684 0.486789 0.646449 0.324366 0.643684 0.005321979 0.649211 0.01084899 0.643684 0.324366 0.643684 0.324366 0.643684 0.486789 0.646449 0.005321979 0.649211 0.01084899 0.643684 0.005321979 0.649211 0.008083999 0.486789 0.005321979 0.005321979 0.01084899 0.01084798 0.01084899 0.324366 0.01084899 0.324366 0.008083999 0.486789 0.005321979 0.005321979 0.01084899 0.01084798 0.005321979 0.005321979 0.1677449 0.008084952 0.649211 0.005321979 0.643685 0.01084798 0.330167 0.01084798 0.330167 0.01084798 0.1677449 0.008084952 0.649211 0.005321979 0.649211 0.005321979 0.643685 0.330167 0.643685 0.324366 0.643685 0.324366 0.643685 0.330167 0.330167 0.330167 0.324366 0.01084798 0.330167 0.01084798 0.330167 0.324366 0.01084899 0.330167 0.01084899 0.324366 0.324366 0.324366 0.01084899 0.341044 0.008083999 0.486789 0.01084899 0.324366 0.330167 0.330167 0.324366 0.330167 0.324366 0.324366 0.31349 0.01084798 0.1677449 0.008084952 0.330167 0.01084798 0.643685 0.643684 0.643363 0.643362 0.643363 0.330489 0.330167 0.330167 0.643685 0.330167 0.643363 0.330489 0.330167 0.330167 0.330489 0.330489 0.330489 0.643362 0.01084899 0.643684 0.01117098 0.643362 0.324044 0.643362 0.01117098 0.643362 0.01084899 0.643684 0.01084899 0.341044 0.01084899 0.341044 0.01084899 0.330167 0.01117098 0.330489 0.01084899 0.01084798 0.01117098 0.01117098 0.01117098 0.324044 0.01117098 0.01117098 0.01084899 0.01084798 0.31349 0.01084798 0.31349 0.01084798 0.324366 0.01084798 0.324044 0.01117098 0.643685 0.01084798 0.643363 0.01117098 0.330489 0.01117098 0.643685 0.324366 0.643363 0.324044 0.643363 0.01117098 0.643685 0.324366 0.330167 0.324366 0.330489 0.324044 0.330167 0.324366 0.330167 0.01084798 0.330489 0.01117098 0.324366 0.01084798 0.324366 0.324366 0.324044 0.324044 0.324366 0.324366 0.01084899 0.324366 0.01117098 0.324044 0.324366 0.330167 0.324044 0.330489 0.01117098 0.330489 0.324366 0.643684 0.324044 0.643362 0.324044 0.330489 0.718465 0.337391 0.718465 0.650263 0.719753 0.650263 0.729826 0.323961 0.729826 0.636833 0.728537 0.636833 0.736931 0.330676 0.736931 0.643548 0.73822 0.643548 0.745325 0.335712 0.745325 0.648584 0.746614 0.648584 0.755397 0.323961 0.755397 0.636833 0.756686 0.636833 0.664745 0.332354 0.664745 0.645228 0.666034 0.645228 0.676107 0.323961 0.676107 0.636833 0.674818 0.636833 0.683211 0.330676 0.683211 0.643549 0.6845 0.643549 0.691605 0.335712 0.691605 0.648585 0.692894 0.648585 0.701677 0.323961 0.701677 0.636834 0.702966 0.636834 0.710071 0.330676 0.710071 0.643549 0.71136 0.643549 0.65764 0.323961 0.65764 0.636834 0.656351 0.636834 0.649211 0.005321979 0.02199995 0.005321979 0.649533 0.004999995 0.005321979 0.005321979 0.004999995 0.004999995 0.02199995 0.005321979 0.005321979 0.005321979 0.005321979 0.632534 0.004999995 0.004999995 0.005321979 0.649211 0.004999995 0.649533 0.005321979 0.632534 0.005321979 0.649211 0.632535 0.649211 0.004999995 0.649533 0.649211 0.649211 0.649533 0.649533 0.632535 0.649211 0.649211 0.005321979 0.649533 0.004999995 0.649533 0.649533 0.961882 0.323961 0.961882 0.968494 0.964783 0.968494 0.974855 0.330676 0.974855 0.975209 0.971955 0.975209 0.982027 0.337391 0.982027 0.981924 0.984928 0.981924 0.992099 0.344106 0.992099 0.988639 0.995 0.988639 0.656351 0.317873 0.656351 0.004999995 0.969225 0.004999995</float_array>
          <technique_common>
            <accessor source="#Mesh5_Group6_Group1_Model-mesh-map-0-array" count="396" stride="2">
              <param name="S" type="float"/>
              <param name="T" type="float"/>
            </accessor>
          </technique_common>
        </source>
        <vertices id="Mesh5_Group6_Group1_Model-mesh-vertices">
          <input semantic="POSITION" source="#Mesh5_Group6_Group1_Model-mesh-positions"/>
        </vertices>
        <polylist material="FrontColor-material" count="132">
          <input semantic="VERTEX" source="#Mesh5_Group6_Group1_Model-mesh-vertices" offset="0"/>
          <input semantic="NORMAL" source="#Mesh5_Group6_Group1_Model-mesh-normals" offset="1"/>
          <input semantic="TEXCOORD" source="#Mesh5_Group6_Group1_Model-mesh-map-0" offset="2" set="0"/>
          <vcount>3 3 3 3 3 3 3 3 3 3 3 3 3 3 3 3 3 3 3 3 3 3 3 3 3 3 3 3 3 3 3 3 3 3 3 3 3 3 3 3 3 3 3 3 3 3 3 3 3 3 3 3 3 3 3 3 3 3 3 3 3 3 3 3 3 3 3 3 3 3 3 3 3 3 3 3 3 3 3 3 3 3 3 3 3 3 3 3 3 3 3 3 3 3 3 3 3 3 3 3 3 3 3 3 3 3 3 3 3 3 3 3 3 3 3 3 3 3 3 3 3 3 3 3 3 3 3 3 3 3 3 3 </vcount>
          <p>1 0 0 3 0 1 0 0 2 5 0 3 7 0 4 4 0 5 9 0 6 11 0 7 8 0 8 13 1 9 15 1 10 12 1 11 17 2 12 12 2 13 16 2 14 19 3 15 16 3 16 18 3 17 14 4 18 18 4 19 15 4 20 21 5 21 19 6 22 14 7 23 20 8 24 24 9 25 21 0 26 25 10 27 23 11 28 20 8 29 22 12 30 29 0 31 27 0 32 21 0 33 28 13 34 22 12 35 24 9 36 31 0 37 32 14 38 30 15 39 33 16 40 34 17 41 35 18 42 33 16 43 32 14 44 33 16 45 35 18 46 38 19 47 36 20 48 39 0 49 40 0 50 41 0 51 39 0 52 38 19 53 39 0 54 41 0 55 26 21 56 26 21 57 44 22 58 42 23 59 44 22 60 27 0 61 45 0 62 47 12 63 45 0 64 46 0 65 48 24 66 46 0 67 29 0 68 34 17 69 37 25 70 48 24 71 27 0 72 46 0 73 45 0 74 40 0 75 43 0 76 47 12 77 31 0 78 24 9 79 23 11 80 20 26 81 13 27 82 25 28 83 27 29 84 13 30 85 17 31 86 27 32 87 19 33 88 22 33 89 30 34 90 50 35 91 28 36 92 34 37 93 51 38 94 49 39 95 36 40 96 53 41 97 37 41 98 40 42 99 54 43 100 52 44 101 42 45 102 56 46 103 43 46 104 44 47 105 55 48 106 42 48 107 44 49 108 58 50 109 57 51 110 45 52 111 56 53 112 58 52 113 47 54 114 59 55 115 54 54 116 46 56 117 53 57 118 59 58 119 29 59 120 51 60 121 48 61 122 28 62 123 60 63 124 29 63 125 60 1 126 62 1 127 61 1 128 51 2 129 61 2 130 63 2 131 49 3 132 63 3 133 64 3 134 50 4 135 64 4 136 62 4 137 59 4 138 66 4 139 65 4 140 54 1 141 65 1 142 67 1 143 52 2 144 67 2 145 68 2 146 53 3 147 68 3 148 66 3 149 58 3 150 70 3 151 69 3 152 57 4 153 69 4 154 71 4 155 55 1 156 71 1 157 72 1 158 56 2 159 72 2 160 70 2 161 73 64 162 74 65 163 41 66 164 75 67 165 73 68 166 35 69 167 76 70 168 75 71 169 31 72 170 26 73 171 76 74 172 23 74 173 76 3 174 78 3 175 77 3 176 75 2 177 77 2 178 79 2 179 73 1 180 79 1 181 80 1 182 74 4 183 80 4 184 78 4 185 82 0 186 84 0 187 81 0 188 1 0 189 2 0 190 3 0 191 5 0 192 6 0 193 7 0 194 9 0 195 10 0 196 11 0 197 13 1 198 14 1 199 15 1 200 17 2 201 13 2 202 12 2 203 19 3 204 17 3 205 16 3 206 14 4 207 19 4 208 18 4 209 14 7 210 20 7 211 21 5 212 21 5 213 22 75 214 19 6 215 20 8 216 23 11 217 24 9 218 25 10 219 26 21 220 23 11 221 22 12 222 28 13 223 29 0 224 21 0 225 24 9 226 28 13 227 32 14 228 30 15 229 28 13 230 28 13 231 24 9 232 32 14 233 30 15 234 32 14 235 33 16 236 38 19 237 36 20 238 37 25 239 37 25 240 33 16 241 38 19 242 36 20 243 38 19 244 39 0 245 26 21 246 42 23 247 43 0 248 43 0 249 39 0 250 26 21 251 26 21 252 25 10 253 44 22 254 44 22 255 25 10 256 27 0 257 47 12 258 43 0 259 45 0 260 48 24 261 37 25 262 46 0 263 34 17 264 33 16 265 37 25 266 27 0 267 29 0 268 46 0 269 40 0 270 39 0 271 43 0 272 20 26 273 14 76 274 13 27 275 27 29 276 25 77 277 13 30 278 27 32 279 17 32 280 19 33 281 30 34 282 49 78 283 50 35 284 49 39 285 30 39 286 34 37 287 34 37 288 48 79 289 51 38 290 36 40 291 52 40 292 53 41 293 52 44 294 36 44 295 40 42 296 40 42 297 47 43 298 54 43 299 42 45 300 55 45 301 56 46 302 44 47 303 57 80 304 55 48 305 44 49 306 45 81 307 58 50 308 45 52 309 43 53 310 56 53 311 47 54 312 46 55 313 59 55 314 46 56 315 37 82 316 53 57 317 29 59 318 60 83 319 51 60 320 28 62 321 50 84 322 60 63 323 60 1 324 50 1 325 62 1 326 51 2 327 60 2 328 61 2 329 49 3 330 51 3 331 63 3 332 50 4 333 49 4 334 64 4 335 59 4 336 53 4 337 66 4 338 54 1 339 59 1 340 65 1 341 52 2 342 54 2 343 67 2 344 53 3 345 52 3 346 68 3 347 58 3 348 56 3 349 70 3 350 57 4 351 58 4 352 69 4 353 55 1 354 57 1 355 71 1 356 56 2 357 55 2 358 72 2 359 26 85 360 41 66 361 74 65 362 38 86 363 73 64 364 41 66 365 38 87 366 35 69 367 73 68 368 32 88 369 75 67 370 35 69 371 32 89 372 31 72 373 75 71 374 23 90 375 76 70 376 31 72 377 26 73 378 74 73 379 76 74 380 76 3 381 74 3 382 78 3 383 75 2 384 76 2 385 77 2 386 73 1 387 75 1 388 79 1 389 74 4 390 73 4 391 80 4 392 82 0 393 83 0 394 84 0 395</p>
        </polylist>
      </mesh>
    </geometry>
  </library_geometries>
  <library_controllers/>
  <library_visual_scenes>
    <visual_scene id="Scene" name="Scene">
      <node id="Mesh5_Group6_Group1_Model" name="Mesh5_Group6_Group1_Model" type="NODE">
        <matrix sid="transform">1 0 0 0 0 -1.62921e-7 -1 0 0 1 -1.62921e-7 0 0 0 0 1</matrix>
        <instance_geometry url="#Mesh5_Group6_Group1_Model-mesh" name="Mesh5_Group6_Group1_Model">
          <bind_material>
            <technique_common>
              <instance_material symbol="FrontColor-material" target="#FrontColor-material">
                <bind_vertex_input semantic="UVMap" input_semantic="TEXCOORD" input_set="0"/>
              </instance_material>
            </technique_common>
          </bind_material>
        </instance_geometry>
      </node>
    </visual_scene>
  </library_visual_scenes>
  <scene>
    <instance_visual_scene url="#Scene"/>
  </scene>
</COLLADA>