<?xml version="1.0" encoding="utf-8"?>
<COLLADA xmlns="http://www.collada.org/2005/11/COLLADASchema" version="1.4.1">
  <asset>
    <contributor>
      <author>Blender User</author>
      <authoring_tool>Blender 2.78.0 commit date:2016-10-24, commit time:12:20, hash:e8299c8</authoring_tool>
    </contributor>
    <created>2021-11-03T07:53:46</created>
    <modified>2021-11-03T07:53:46</modified>
    <unit name="meter" meter="1"/>
    <up_axis>Z_UP</up_axis>
  </asset>
  <library_images>
    <image id="video_store_shelf_archive__color_png" name="video_store_shelf_archive__color_png">
      <init_from>/I:/3D_Asset_Packages/For%20Sale/Video_Store/Shelf_Archive/Model/video_store_shelf_archive__color.png</init_from>
    </image>
  </library_images>
  <library_effects>
    <effect id="FrontColor-effect">
      <profile_COMMON>
        <newparam sid="video_store_shelf_archive__color_png-surface">
          <surface type="2D">
            <init_from>video_store_shelf_archive__color_png</init_from>
          </surface>
        </newparam>
        <newparam sid="video_store_shelf_archive__color_png-sampler">
          <sampler2D>
            <source>video_store_shelf_archive__color_png-surface</source>
          </sampler2D>
        </newparam>
        <technique sid="common">
          <phong>
            <emission>
              <color sid="emission">0 0 0 1</color>
            </emission>
            <ambient>
              <color sid="ambient">0 0 0 1</color>
            </ambient>
            <diffuse>
              <texture texture="video_store_shelf_archive__color_png-sampler" texcoord="UVMap"/>
            </diffuse>
            <specular>
              <color sid="specular">1 1 1 1</color>
            </specular>
            <shininess>
              <float sid="shininess">52</float>
            </shininess>
            <transparent opaque="A_ONE">
              <color>1 1 1 1</color>
            </transparent>
            <index_of_refraction>
              <float sid="index_of_refraction">1</float>
            </index_of_refraction>
          </phong>
        </technique>
      </profile_COMMON>
    </effect>
  </library_effects>
  <library_materials>
    <material id="FrontColor-material" name="FrontColor">
      <instance_effect url="#FrontColor-effect"/>
    </material>
  </library_materials>
  <library_geometries>
    <geometry id="Mesh9_Group13_Group1_Model-mesh" name="Mesh9_Group13_Group1_Model">
      <mesh>
        <source id="Mesh9_Group13_Group1_Model-mesh-positions">
          <float_array id="Mesh9_Group13_Group1_Model-mesh-positions-array" count="1260">0.480947 0.01905298 0.00999999 -0.480947 0.01905298 0.00999999 -0.480947 1.94095 0.00999999 0.480947 1.94095 0.00999999 -0.479687 0.02031296 0.01999998 -0.479687 0.02031296 0.14 0.479687 0.02031296 0.14 0.479687 0.02031296 0.01999998 -0.479687 0.679687 0.01999998 -0.479687 0.679687 0.14 0.479687 0.679687 0.01999998 0.479687 0.679687 0.14 -0.479687 1.93969 0.01999998 0.479687 1.93969 0.01999998 -0.479687 1.93969 0.148 -0.479687 0.679687 0.148 -0.479687 0.02031296 0.148 -0.481687 1.94169 0.15 -0.481687 0.679687 0.15 -0.481687 0.01831299 0.15 -0.498 1.958 0.15 -0.498 0.679687 0.15 -0.498 0.001999974 0.15 0.481687 0.01831299 0.15 0.498 0.001999974 0.15 0.481687 1.94169 0.15 0.481687 0.679687 0.15 0.498 0.679687 0.15 0.498 1.958 0.15 -0.5 1.958 0.148 -0.5 0.679687 0.148 -0.498 1.958 0 -0.498 0.679687 0 -0.5 0.679687 0.001999974 -0.5 1.958 0.001999974 -0.5 0.001999974 0.001999974 -0.498 0.001999974 0 -0.5 0.001999974 0.148 -0.498 0 0.148 0.498 0 0.148 0.5 0.001999974 0.148 0.498 0 0.001999974 0.5 0.001999974 0.001999974 0.498 0.001999974 0 -0.498 0 0.001999974 0.5 1.958 0.001999974 0.5 0.679687 0.001999974 0.498 0.679687 0 0.498 1.958 0 0.5 0.679687 0.148 0.5 1.958 0.148 0.498 1.96 0.148 -0.498 1.96 0.148 -0.498 1.96 0.001999974 0.498 1.96 0.001999974 -0.482947 1.94295 0 -0.482947 0.679687 0 -0.482947 0.01705294 0 0.482947 0.01705294 0 0.482947 0.679687 0 0.482947 1.94295 0 -0.480947 1.94095 0.001999974 -0.480947 0.679687 0.001999974 -0.480947 0.01905298 0.001999974 -0.480947 1.94095 0.00999999 -0.480947 0.679687 0.00999999 -0.480947 0.01905298 0.00999999 0.479687 0.02031296 0.148 0.480947 0.01905298 0.001999974 0.480947 0.01905298 0.00999999 0.480947 0.679687 0.00999999 0.480947 0.679687 0.001999974 0.480947 1.94095 0.001999974 0.480947 1.94095 0.00999999 0.479687 1.93969 0.148 0.479687 0.679687 0.148 -0.469687 1.30816 0.02499997 -0.469687 1.30816 0.03499996 -0.477131 1.29969 0.03499996 -0.477131 1.29969 0.02499997 -0.469687 1.30969 0.03499996 -0.469687 1.30969 0.02499997 -0.479687 1.30969 0.03499996 -0.479687 1.29969 0.03499996 -0.479687 1.29969 0.02499997 -0.479687 1.30969 0.02499997 -0.469687 1.09816 0.10623 -0.469687 1.09816 0.11623 -0.477131 1.08969 0.11623 -0.477131 1.08969 0.10623 -0.469687 1.09969 0.11623 -0.469687 1.09969 0.10623 -0.479687 1.09969 0.11623 -0.479687 1.08969 0.11623 -0.479687 1.08969 0.10623 -0.479687 1.09969 0.10623 -0.469687 1.30816 0.105 -0.469687 1.30816 0.115 -0.477131 1.29969 0.115 -0.477131 1.29969 0.105 -0.469687 1.30969 0.115 -0.469687 1.30969 0.105 -0.479687 1.30969 0.115 -0.479687 1.29969 0.115 -0.479687 1.29969 0.105 -0.479687 1.30969 0.105 0.469687 1.72816 0.115 0.469687 1.72816 0.105 0.477131 1.71969 0.105 0.477131 1.71969 0.115 0.469687 1.72969 0.105 0.469687 1.72969 0.115 0.479687 1.72969 0.105 0.479687 1.71969 0.105 0.479687 1.71969 0.115 0.479687 1.72969 0.115 -0.469687 1.72816 0.105 -0.469687 1.72816 0.115 -0.477131 1.71969 0.115 -0.477131 1.71969 0.105 -0.469687 1.72969 0.115 -0.469687 1.72969 0.105 -0.479687 1.72969 0.115 -0.479687 1.71969 0.115 -0.479687 1.71969 0.105 -0.479687 1.72969 0.105 -0.469687 1.09816 0.02623099 -0.469687 1.09816 0.03623098 -0.477131 1.08969 0.03623098 -0.477131 1.08969 0.02623099 -0.469687 1.09969 0.03623098 -0.469687 1.09969 0.02623099 -0.479687 1.09969 0.03623098 -0.479687 1.08969 0.03623098 -0.479687 1.08969 0.02623099 -0.479687 1.09969 0.02623099 0.477687 1.73969 0.128 0.477687 1.73969 0.02199995 -0.477687 1.73969 0.02199995 -0.477687 1.73969 0.128 0.479687 1.73769 0.128 0.479687 1.73769 0.02199995 0.477687 1.73769 0.1299999 -0.477687 1.73769 0.1299999 -0.479687 1.73769 0.128 -0.479687 1.73769 0.02199995 -0.477687 1.73769 0.01999998 0.477687 1.73769 0.01999998 0.477687 1.73169 0.01999998 0.479687 1.73169 0.02199995 0.477687 1.72969 0.02199995 -0.477687 1.72969 0.02199995 -0.477687 1.73169 0.01999998 0.477687 1.72969 0.128 0.479687 1.73169 0.128 0.477687 1.73169 0.1299999 -0.477687 1.72969 0.128 -0.477687 1.73169 0.1299999 -0.479687 1.73169 0.128 -0.479687 1.73169 0.02199995 -0.469687 0.888164 0.02623099 -0.469687 0.888164 0.03623098 -0.477131 0.879687 0.03623098 -0.477131 0.879687 0.02623099 -0.469687 0.889687 0.03623098 -0.469687 0.889687 0.02623099 -0.479687 0.889687 0.03623098 -0.479687 0.879687 0.03623098 -0.479687 0.879687 0.02623099 -0.479687 0.889687 0.02623099 0.477687 1.52969 0.128 0.477687 1.52969 0.02199995 -0.477687 1.52969 0.02199995 -0.477687 1.52969 0.128 0.479687 1.52769 0.128 0.479687 1.52769 0.02199995 0.477687 1.52769 0.1299999 -0.477687 1.52769 0.1299999 -0.479687 1.52769 0.128 -0.479687 1.52769 0.02199995 -0.477687 1.52769 0.01999998 0.477687 1.52769 0.01999998 0.477687 1.52169 0.01999998 0.479687 1.52169 0.02199995 0.477687 1.51969 0.02199995 -0.477687 1.51969 0.02199995 -0.477687 1.52169 0.01999998 -0.477687 1.51969 0.128 0.477687 1.51969 0.128 0.477687 1.52169 0.1299999 -0.477687 1.52169 0.1299999 0.479687 1.52169 0.128 -0.479687 1.52169 0.128 -0.479687 1.52169 0.02199995 0.477687 1.09969 0.128 -0.477687 1.09969 0.128 -0.477687 1.09969 0.02199995 0.477687 1.09969 0.02199995 0.477687 1.10169 0.1299999 -0.477687 1.10169 0.1299999 0.479687 1.10169 0.128 0.479687 1.10169 0.02199995 0.477687 1.10169 0.01999998 -0.477687 1.10169 0.01999998 -0.479687 1.10169 0.02199995 -0.479687 1.10169 0.128 -0.477687 1.10769 0.1299999 -0.479687 1.10769 0.128 0.477687 1.10769 0.1299999 0.479687 1.10769 0.128 0.477687 1.10969 0.128 -0.477687 1.10969 0.128 0.477687 1.10969 0.02199995 0.479687 1.10769 0.02199995 0.477687 1.10769 0.01999998 -0.477687 1.10969 0.02199995 -0.477687 1.10769 0.01999998 -0.479687 1.10769 0.02199995 0.469687 1.30816 0.03499996 0.469687 1.30816 0.02499997 0.477131 1.29969 0.02499997 0.477131 1.29969 0.03499996 0.469687 1.30969 0.02499997 0.469687 1.30969 0.03499996 0.479687 1.30969 0.02499997 0.479687 1.29969 0.02499997 0.479687 1.29969 0.03499996 0.479687 1.30969 0.03499996 -0.469687 1.72816 0.02499997 -0.469687 1.72816 0.03499996 -0.477131 1.71969 0.03499996 -0.477131 1.71969 0.02499997 -0.469687 1.72969 0.03499996 -0.469687 1.72969 0.02499997 -0.479687 1.72969 0.03499996 -0.479687 1.71969 0.03499996 -0.479687 1.71969 0.02499997 -0.479687 1.72969 0.02499997 0.469687 0.888164 0.11623 0.469687 0.888164 0.10623 0.477131 0.879687 0.10623 0.477131 0.879687 0.11623 0.469687 0.889687 0.10623 0.469687 0.889687 0.11623 0.479687 0.889687 0.10623 0.479687 0.879687 0.10623 0.479687 0.879687 0.11623 0.479687 0.889687 0.11623 0.469687 1.09816 0.11623 0.469687 1.09816 0.10623 0.477131 1.08969 0.10623 0.477131 1.08969 0.11623 0.469687 1.09969 0.10623 0.469687 1.09969 0.11623 0.479687 1.09969 0.10623 0.479687 1.08969 0.10623 0.479687 1.08969 0.11623 0.479687 1.09969 0.11623 -0.469687 1.51816 0.105 -0.469687 1.51816 0.115 -0.477131 1.50969 0.115 -0.477131 1.50969 0.105 -0.469687 1.51969 0.115 -0.469687 1.51969 0.105 -0.479687 1.51969 0.115 -0.479687 1.50969 0.115 -0.479687 1.50969 0.105 -0.479687 1.51969 0.105 0.469687 1.51816 0.03499996 0.469687 1.51816 0.02499997 0.477131 1.50969 0.02499997 0.477131 1.50969 0.03499996 0.469687 1.51969 0.02499997 0.469687 1.51969 0.03499996 0.479687 1.51969 0.02499997 0.479687 1.50969 0.02499997 0.479687 1.50969 0.03499996 0.479687 1.51969 0.03499996 -0.469687 1.51816 0.02499997 -0.469687 1.51816 0.03499996 -0.477131 1.50969 0.03499996 -0.477131 1.50969 0.02499997 -0.469687 1.51969 0.03499996 -0.469687 1.51969 0.02499997 -0.479687 1.51969 0.03499996 -0.479687 1.50969 0.03499996 -0.479687 1.50969 0.02499997 -0.479687 1.51969 0.02499997 0.469687 1.09816 0.03623098 0.469687 1.09816 0.02623099 0.477131 1.08969 0.02623099 0.477131 1.08969 0.03623098 0.469687 1.09969 0.02623099 0.469687 1.09969 0.03623098 0.479687 1.09969 0.02623099 0.479687 1.08969 0.02623099 0.479687 1.08969 0.03623098 0.479687 1.09969 0.03623098 0.469687 0.888164 0.03623098 0.469687 0.888164 0.02623099 0.477131 0.879687 0.02623099 0.477131 0.879687 0.03623098 0.469687 0.889687 0.02623099 0.469687 0.889687 0.03623098 0.479687 0.889687 0.02623099 0.479687 0.879687 0.02623099 0.479687 0.879687 0.03623098 0.479687 0.889687 0.03623098 0.477687 1.31969 0.02199995 -0.477687 1.31969 0.02199995 -0.477687 1.31969 0.128 0.477687 1.31969 0.128 0.477687 1.31769 0.01999998 -0.477687 1.31769 0.01999998 0.479687 1.31769 0.02199995 0.479687 1.31769 0.128 0.477687 1.31769 0.1299999 -0.477687 1.31769 0.1299999 -0.479687 1.31769 0.128 -0.479687 1.31769 0.02199995 -0.477687 1.31169 0.01999998 -0.479687 1.31169 0.02199995 -0.477687 1.30969 0.02199995 0.477687 1.30969 0.02199995 0.477687 1.31169 0.01999998 -0.477687 1.30969 0.128 0.477687 1.30969 0.128 0.477687 1.31169 0.1299999 -0.477687 1.31169 0.1299999 0.479687 1.31169 0.128 0.479687 1.31169 0.02199995 -0.479687 1.31169 0.128 0.469687 1.72816 0.03499996 0.469687 1.72816 0.02499997 0.477131 1.71969 0.02499997 0.477131 1.71969 0.03499996 0.469687 1.72969 0.02499997 0.469687 1.72969 0.03499996 0.479687 1.72969 0.02499997 0.479687 1.71969 0.02499997 0.479687 1.71969 0.03499996 0.479687 1.72969 0.03499996 0.469687 1.30816 0.115 0.469687 1.30816 0.105 0.477131 1.29969 0.105 0.477131 1.29969 0.115 0.469687 1.30969 0.105 0.469687 1.30969 0.115 0.479687 1.30969 0.105 0.479687 1.29969 0.105 0.479687 1.29969 0.115 0.479687 1.30969 0.115 0.477687 0.899687 0.128 0.477687 0.899687 0.02199995 -0.477687 0.899687 0.02199995 -0.477687 0.899687 0.128 0.479687 0.897687 0.128 0.479687 0.897687 0.02199995 0.477687 0.897687 0.1299999 -0.477687 0.897687 0.1299999 -0.479687 0.897687 0.128 -0.479687 0.897687 0.02199995 -0.477687 0.897687 0.01999998 0.477687 0.897687 0.01999998 0.477687 0.891687 0.01999998 0.479687 0.891687 0.02199995 0.477687 0.889687 0.02199995 -0.477687 0.889687 0.02199995 -0.477687 0.891687 0.01999998 0.477687 0.889687 0.128 0.479687 0.891687 0.128 0.477687 0.891687 0.1299999 -0.477687 0.889687 0.128 -0.477687 0.891687 0.1299999 -0.479687 0.891687 0.128 -0.479687 0.891687 0.02199995 -0.469687 0.888164 0.10623 -0.469687 0.888164 0.11623 -0.477131 0.879687 0.11623 -0.477131 0.879687 0.10623 -0.469687 0.889687 0.11623 -0.469687 0.889687 0.10623 -0.479687 0.889687 0.11623 -0.479687 0.879687 0.11623 -0.479687 0.879687 0.10623 -0.479687 0.889687 0.10623 0.469687 1.51816 0.115 0.469687 1.51816 0.105 0.477131 1.50969 0.105 0.477131 1.50969 0.115 0.469687 1.51969 0.105 0.469687 1.51969 0.115 0.479687 1.51969 0.105 0.479687 1.50969 0.105 0.479687 1.50969 0.115 0.479687 1.51969 0.115 0.477687 0.689687 0.02199995 -0.477687 0.689687 0.02199995 -0.477687 0.689687 0.128 0.477687 0.689687 0.128 0.477687 0.687687 0.01999998 -0.477687 0.687687 0.01999998 0.479687 0.687687 0.02199995 0.479687 0.687687 0.128 0.477687 0.687687 0.1299999 -0.477687 0.687687 0.1299999 -0.479687 0.687687 0.128 -0.479687 0.687687 0.02199995 -0.479687 0.681687 0.02199995 -0.477687 0.681687 0.01999998 -0.477687 0.679687 0.02199995 -0.477687 0.679687 0.128 -0.479687 0.681687 0.128 -0.477687 0.681687 0.1299999 0.477687 0.679687 0.128 0.477687 0.681687 0.1299999 0.479687 0.681687 0.128 0.477687 0.679687 0.02199995 0.479687 0.681687 0.02199995 0.477687 0.681687 0.01999998</float_array>
          <technique_common>
            <accessor source="#Mesh9_Group13_Group1_Model-mesh-positions-array" count="420" stride="3">
              <param name="X" type="float"/>
              <param name="Y" type="float"/>
              <param name="Z" type="float"/>
            </accessor>
          </technique_common>
        </source>
        <source id="Mesh9_Group13_Group1_Model-mesh-normals">
          <float_array id="Mesh9_Group13_Group1_Model-mesh-normals-array" count="945">0 0 -1 0 1 0 1 0 0 0 0 1 -1 0 0 0.7071059 0 0.7071077 0.7071071 0 0.7071066 0.7071071 0 0.7071065 0.7071096 0 0.707104 0 0 1 2.7759e-7 0 1 2.79164e-7 0 1 0 0 1 0 0 1 0 0 1 -0.7071086 0 0.707105 -0.4767353 0.4767098 0.7385603 -0.7385476 0.476725 0.4767399 -0.7071061 0 -0.7071075 -0.7385559 0.4767189 -0.476733 -0.4767348 0.476732 -0.7385463 -0.4767326 -0.4767315 -0.738548 -0.7385386 -0.4767389 -0.4767398 -0.7071087 0 0.707105 -0.7385472 -0.4767327 0.4767326 -0.4767279 -0.4767361 0.7385481 0.4767285 -0.7385509 0.4767313 -0.4767377 -0.7385422 0.4767354 0.4767313 -0.4767345 0.738547 0.7385398 -0.4767383 0.4767386 0.4767368 -0.7385423 -0.4767361 0.4767293 -0.4767332 -0.7385492 0.7385461 -0.4767333 -0.4767338 -0.4767277 -0.7385509 -0.476732 0.7071061 0 -0.7071075 0.4767351 0.4767097 -0.7385605 0.7385475 0.4767251 -0.4767399 0.7071066 0 0.7071071 0.7385575 0.4767184 0.4767311 0.476737 0.4767323 0.7385447 -0.4767394 0.7385307 0.4767517 0.4767462 0.7385364 0.4767359 0.4767388 0.7385307 -0.4767521 -0.4767457 0.7385364 -0.4767365 0.707106 0 -0.7071076 0.707106 0 -0.7071076 0.7071062 0 -0.7071075 0 0.7071076 0.7071061 0 0.7071078 0.7071059 0 0.7071077 0.7071059 0 0.7071074 -0.7071062 0 0.7071076 -0.7071061 -0.707106 0 -0.7071076 -0.707106 0 -0.7071076 -0.7071062 0 -0.7071075 -0.7071079 0 0.7071057 -0.7071059 0 0.7071076 -0.7071079 0 0.7071058 -0.70711 0 0.7071036 0 -1 0 0 -0.7070556 0.7071579 0 -0.7071428 0.7070708 0 -0.707143 0.7070707 0 -0.7071049 -0.7071087 0 -0.7071543 -0.7070593 0 -0.7071543 -0.7070593 0.9357175 -0.3527503 0 0.7511346 -0.6601491 0 0.9357176 -0.3527502 0 -4.5072e-7 0 -1 -2.56726e-7 0 -1 -2.50664e-7 0 -1 0.9357184 -0.3527482 0 0.751137 -0.6601464 0 0.9357189 -0.3527467 0 0.9357172 -0.3527514 0 0.7511326 -0.6601514 0 0.9357176 -0.3527503 0 9.01432e-7 0 1 5.01323e-7 0 1 5.13448e-7 0 1 1.80288e-6 0 -1 1.02691e-6 0 -1 1.00266e-6 0 -1 -0.9357184 -0.3527482 0 -0.751137 -0.6601464 0 -0.9357189 -0.3527467 0 -9.01406e-7 0 -1 -5.013e-7 0 -1 -5.13426e-7 0 -1 -1.80281e-6 0 1 -1.02685e-6 0 1 -1.0026e-6 0 1 0.9357184 -0.3527482 0 0.7511371 -0.6601463 0 0.9357187 -0.352747 0 9.01406e-7 0 1 5.013e-7 0 1 5.13426e-7 0 1 1.80281e-6 0 -1 1.02685e-6 0 -1 1.0026e-6 0 -1 0.9357188 -0.3527469 0 0.7511392 -0.6601439 0 0.9357188 -0.3527469 0 4.5072e-7 0 1 2.5066e-7 0 1 2.56723e-7 0 1 0.4767346 0.7385281 0.4767603 0.7385334 0.4767446 -0.476742 0.47673 0.7385661 -0.4767063 0.4767243 0.4767128 0.7385655 0.738432 0.4768229 0.4768207 -0.4767278 0.7385652 0.4767098 -0.4768159 0.4768405 0.7384239 -0.738534 0.4767413 0.4767445 -0.4767369 0.738529 -0.4767568 -0.4767249 0.4767141 -0.7385643 -0.7384322 0.4768263 -0.4768173 0.4768156 0.4768416 -0.7384233 0.7384459 -0.4768037 -0.4768186 0.476741 -0.4767331 -0.7385416 0.4767443 -0.7385355 -0.4767391 -0.4767445 -0.738528 -0.4767506 0.7385501 -0.4767214 0.4767395 0.4767449 -0.7385272 0.4767515 0.4768212 -0.4767971 0.7384485 -0.4767403 -0.476732 0.7385427 -0.4767447 -0.7385348 0.4767399 -0.7384456 -0.4768035 0.4768193 -0.7385497 -0.4767217 -0.4767398 -0.476821 -0.4767981 -0.7384479 0.9357902 -0.3525575 0 0.7514063 -0.6598398 0 0.9357901 -0.3525575 0 0.4767414 0.738538 0.4767382 0.7385305 0.4767476 -0.4767436 0.4767437 0.7385313 -0.4767462 0.4767146 0.4767316 0.7385596 0.7384276 0.4768262 0.4768244 -0.4767415 0.7385305 0.4767498 -0.4767996 0.4767972 0.7384623 -0.7385324 0.4767441 0.4767441 -0.4767438 0.7385389 -0.4767346 -0.4767203 0.4767302 -0.7385568 -0.7384285 0.4768293 -0.4768199 0.4768015 0.4767953 -0.7384623 0.7384335 -0.476826 -0.4768155 0.476731 -0.476735 -0.7385467 0.4767345 -0.7385439 -0.476736 -0.4767323 -0.7385512 -0.4767269 0.4767301 -0.7385504 0.4767305 -0.4767282 -0.4767336 0.7385495 -0.4767323 -0.738543 0.4767395 0.4768157 -0.47682 0.7384373 0.7385375 -0.4767407 0.4767397 -0.7384327 -0.4768229 0.47682 -0.7385356 -0.4767442 -0.4767392 -0.4768146 -0.476821 -0.7384373 0.4767459 -0.7385371 0.4767352 -0.4767237 -0.4767028 0.7385723 -0.4767504 -0.7385149 0.4767651 0.4768128 -0.4768097 0.7384457 0.7385404 -0.4767255 0.4767504 0.4767529 -0.7385156 -0.4767615 0.4767245 -0.4767039 -0.7385711 0.7384388 -0.4768102 -0.4768229 -0.4767454 -0.7385378 -0.4767345 -0.4768128 -0.4768108 -0.7384451 -0.73854 -0.4767287 -0.4767478 -0.7384385 -0.4768071 0.4768265 -0.4768081 0.4768052 0.7384517 0.7384341 0.4768226 0.4768179 0.4767272 0.47674 0.738546 0.4767381 0.738543 0.4767337 -0.4767382 0.7385355 0.4767453 0.7385382 0.4767438 -0.4767355 0.4767375 0.7385364 -0.4767447 0.4768108 0.4768034 -0.7384511 -0.4767308 0.4767383 -0.7385448 -0.4767374 0.7385439 -0.476733 -0.7384343 0.4768259 -0.4768144 -0.7385386 0.4767405 0.476738 -0.9357175 -0.3527503 0 -0.7511346 -0.6601491 0 -0.9357176 -0.3527503 0 2.25358e-7 0 -1 1.25331e-7 0 -1 1.28362e-7 0 -1 0.7511394 -0.6601438 0 -0.9357897 -0.3525589 0 -0.7514041 -0.6598424 0 -0.9357901 -0.3525577 0 9.01787e-7 0 -1 5.01003e-7 0 -1 5.13223e-7 0 -1 -1.80356e-6 0 1 -1.02644e-6 0 1 -1.002e-6 0 1 -0.9357184 -0.3527482 0 -0.7511371 -0.6601463 0 -0.9357187 -0.352747 0 9.01449e-7 0 1 5.01333e-7 0 1 5.13458e-7 0 1 2.25362e-7 0 -1 1.25333e-7 0 -1 1.28364e-7 0 -1 -0.9357188 -0.3527469 0 -0.7511392 -0.6601439 0 -2.2536e-7 0 -1 -1.2533e-7 0 -1 -1.28361e-7 0 -1 -4.50718e-7 0 1 -2.56721e-7 0 1 -2.50659e-7 0 1 -0.9357902 -0.3525575 0 -0.7514063 -0.6598398 0 -0.9357901 -0.3525575 0 0.4767323 0.7385512 -0.4767269 -0.476731 0.476735 -0.7385467 -0.4767345 0.7385439 -0.476736 0.4768146 0.476821 -0.7384373 0.7385356 0.4767442 -0.4767392 0.4767323 0.738543 0.4767395 0.4767282 0.4767336 0.7385495 0.7384327 0.4768229 0.47682 -0.4767301 0.7385504 0.4767305 -0.4768157 0.47682 0.7384373 -0.7385375 0.4767407 0.4767397 -0.7384335 0.476826 -0.4768155 -0.4768123 -0.4768002 -0.7384522 -0.4767346 -0.7385364 -0.4767476 0.4767334 -0.4767557 -0.7385318 0.4767321 -0.7385589 -0.4767152 0.4767323 -0.7385355 0.4767511 -0.4767306 -0.4767543 0.7385346 -0.4767299 -0.738558 0.4767188 0.4768133 -0.4767992 0.7384523 -0.9357188 -0.3527469 0 -0.7511394 -0.6601438 0 2.25351e-7 0 -1 1.25325e-7 0 -1 1.28356e-7 0 -1 -0.9357172 -0.3527514 0 -0.7511326 -0.6601514 0 -0.9357177 -0.35275 0 -9.01432e-7 0 -1 -5.01323e-7 0 -1 -5.13448e-7 0 -1 0.476732 0.7385455 0.4767358 0.7385381 0.476741 -0.4767383 0.4767292 0.7385537 -0.4767261 0.4767321 0.4767375 0.7385444 0.7384351 0.4768226 0.4768163 -0.4767298 0.7385529 0.4767267 -0.4768196 0.4768239 0.7384322 -0.7385401 0.4767405 0.4767359 -0.4767314 0.7385465 -0.4767352 -0.476735 0.476739 -0.7385416 -0.7384359 0.4768229 -0.4768148 0.4768185 0.4768249 -0.7384322 0.476727 -0.4767277 -0.7385542 0.4767357 -0.7385364 -0.4767464 0.476733 -0.7385504 0.4767276 0.4768127 -0.4768229 0.7384373 -0.4767242 -0.4767262 0.7385569 -0.4767364 -0.7385357 0.476747 -0.4768117 -0.4768239 -0.7384373 0.9357897 -0.3525589 0 0.7514041 -0.6598424 0 0.9357902 -0.3525574 0 1.80357e-6 0 1 1.00201e-6 0 1 1.02645e-6 0 1 -9.01449e-7 0 -1 -5.01333e-7 0 -1 -5.13458e-7 0 -1 0.4767373 0.738547 -0.4767284 -0.4767347 0.4767237 -0.7385517 -0.4767407 0.7385322 -0.4767479 0.7385429 0.4767315 -0.4767407 0.4768192 0.4768199 -0.738435 0.4767411 0.7385315 0.4767487 0.7384394 0.4768131 0.4768193 0.4767339 0.4767225 0.7385529 -0.4767377 0.7385462 0.4767291 -0.7385433 0.4767312 0.4767403 -0.4768192 0.4768189 0.7384357 -0.7384396 0.4768133 -0.4768187 -0.4768111 -0.4768239 -0.7384377 -0.7385346 -0.4767444 -0.4767404 -0.7384326 -0.4768229 0.47682 0.7385352 -0.4767411 0.4767429 0.4768112 -0.4768228 0.7384383 0.7384328 -0.4768261 -0.4768166 0.4767248 -0.4767274 -0.7385557 0.707106 0 0.7071077 -0.707106 0 0.7071077 0 -0.7070554 0.7071582 0 -0.7071048 -0.7071089 0.7511346 -0.6601492 0 0.751135 -0.6601487 0 0.7511309 -0.6601533 0 -0.751135 -0.6601487 0 0.7511355 -0.6601482 0 0.7511391 -0.6601441 0 -0.7511346 -0.660149 0 0.7511393 -0.6601438 0 -0.7514024 -0.6598442 0 -0.7511355 -0.6601482 0 -0.7511394 -0.6601437 0 -0.7511393 -0.6601438 0 -0.7511305 -0.6601539 0 0.751402 -0.6598447 0</float_array>
          <technique_common>
            <accessor source="#Mesh9_Group13_Group1_Model-mesh-normals-array" count="315" stride="3">
              <param name="X" type="float"/>
              <param name="Y" type="float"/>
              <param name="Z" type="float"/>
            </accessor>
          </technique_common>
        </source>
        <source id="Mesh9_Group13_Group1_Model-mesh-map-0">
          <float_array id="Mesh9_Group13_Group1_Model-mesh-map-0-array" count="3636">0.479451 0.494462 0.004999995 0.731921 0.479451 0.731921 0.541261 0.166437 0.511636 0.403273 0.511636 0.166437 0.179799 0.260894 0.01702195 0.290518 0.01702195 0.260894 0.01702195 0.01702195 0.179799 0.253859 0.179799 0.01702195 0.179799 0.29696 0.01702195 0.326584 0.179799 0.326584 0.269481 0.253859 0.432259 0.01702195 0.269481 0.01702195 0.683378 0.166437 0.713001 0.403273 0.683378 0.403273 0.796926 0.731299 0.485875 0.494462 0.485875 0.731299 0.674414 0.08571797 0.985464 0.08571797 0.674414 0.115342 0.985464 0.117317 0.674414 0.115342 0.985464 0.08571797 0.674414 0.115342 0.511636 0.117317 0.511636 0.115342 0.009026944 0.172298 0.009520947 0.48335 0.009026944 0.483843 0.009520947 0.009520947 0.009026944 0.172298 0.009026944 0.009026944 0.004999995 0.172298 0.009026944 0.483843 0.004999995 0.48787 0.009026944 0.009026944 0.004999995 0.172298 0.004999995 0.004999995 0.009026944 0.009026944 0.250879 0.004999995 0.246852 0.009026944 0.246852 0.483843 0.250879 0.172298 0.250879 0.48787 0.250879 0.172298 0.246852 0.009026944 0.250879 0.004999995 0.246852 0.483843 0.004999995 0.48787 0.009026944 0.483843 0.827702 0.123995 0.51213 0.123501 0.51213 0.123995 0.503832 0.321066 0.504326 0.005493998 0.503832 0.005493998 0.504326 0.321066 0.503832 0.488363 0.504326 0.488363 0.827702 0.123501 0.995 0.123995 0.995 0.123501 0.756003 0.16693 0.755509 0.412809 0.756003 0.412809 0.755509 0.16693 0.756003 0.16693 0.756003 0.166437 0.792045 0.16693 0.756003 0.166437 0.756003 0.16693 0.792045 0.16693 0.792539 0.16693 0.792045 0.166437 0.792045 0.412809 0.792539 0.16693 0.792045 0.16693 0.792539 0.412809 0.792045 0.412809 0.792045 0.413303 0.756003 0.412809 0.792045 0.413303 0.792045 0.412809 0.756003 0.412809 0.755509 0.412809 0.756003 0.413303 0.257459 0.321066 0.257953 0.005493998 0.257459 0.005493998 0.678935 0.04153597 0.994506 0.04104197 0.994506 0.04153597 0.678935 0.04104197 0.511636 0.04153597 0.511636 0.04104197 0.257953 0.321066 0.257459 0.488363 0.257953 0.488363 0.004999995 0.488363 0.250879 0.48787 0.250879 0.488363 0.257953 0.004999995 0.503832 0.005493998 0.503832 0.004999995 0.257953 0.005493998 0.257953 0.004999995 0.257459 0.005493998 0.995 0.04104197 0.994506 0.004999995 0.995 0.004999995 0.995 0.04104197 0.994506 0.04153597 0.994506 0.04104197 0.503832 0.004999995 0.503832 0.005493998 0.504326 0.005493998 0.511636 0.1600379 0.51213 0.123995 0.511636 0.123995 0.51213 0.123501 0.511636 0.123995 0.51213 0.123995 0.827702 0.1600379 0.51213 0.123995 0.51213 0.1600379 0.827702 0.123995 0.995 0.1600379 0.995 0.123995 0.500115 0.009208977 0.503832 0.321066 0.503832 0.005493998 0.503832 0.321066 0.500115 0.484647 0.503832 0.488363 0.26167 0.484647 0.503832 0.488363 0.500115 0.484647 0.257953 0.321066 0.26167 0.009208977 0.257953 0.005493998 0.26167 0.484647 0.257953 0.321066 0.257953 0.488363 0.500115 0.009208977 0.257953 0.005493998 0.26167 0.009208977 0.499622 0.00970298 0.500115 0.321066 0.500115 0.009208977 0.500115 0.321066 0.499622 0.484154 0.500115 0.484647 0.168088 0.74031 0.479451 0.738335 0.479451 0.74031 0.168088 0.738335 0.004999995 0.74031 0.004999995 0.738335 0.231956 0.238568 0.229981 0.475405 0.229981 0.238568 0.246852 0.009026944 0.009520947 0.009520947 0.009026944 0.009026944 0.500115 0.484647 0.262164 0.484154 0.26167 0.484647 0.472136 0.254481 0.474111 0.01702195 0.474111 0.254481 0.797238 0.738335 0.960326 0.74031 0.960326 0.738335 0.797238 0.74031 0.485875 0.738335 0.485875 0.74031 0.26167 0.321066 0.262164 0.00970298 0.26167 0.009208977 0.262164 0.484154 0.26167 0.321066 0.26167 0.484647 0.678935 0.04104197 0.994506 0.004999995 0.994506 0.04104197 0.678935 0.004999995 0.511636 0.04104197 0.511636 0.004999995 0.246358 0.48335 0.246852 0.172298 0.246852 0.483843 0.246852 0.172298 0.246358 0.009520947 0.246852 0.009026944 0.822689 0.04990994 0.511636 0.04793494 0.511636 0.07953399 0.822689 0.07953399 0.822689 0.04990994 0.511636 0.07953399 0.822689 0.04793494 0.985464 0.04990994 0.985464 0.04793494 0.800161 0.166437 0.83176 0.403273 0.83176 0.166437 0.009026944 0.483843 0.246358 0.48335 0.246852 0.483843 0.803596 0.410309 0.839639 0.656188 0.803596 0.656188 0.26167 0.009208977 0.499622 0.00970298 0.500115 0.009208977 0.482698 0.254481 0.480723 0.01702195 0.480723 0.254481 0.235507 0.112231 0.233416 0.109762 0.235507 0.109762 0.235507 0.112231 0.235884 0.109762 0.235884 0.112231 0.221394 0.22558 0.223863 0.225202 0.223863 0.22558 0.221394 0.223111 0.222025 0.223111 0.221394 0.22558 0.223863 0.231698 0.221394 0.232329 0.223863 0.232329 0.234167 0.17234 0.234167 0.169871 0.233536 0.17234 0.231698 0.170249 0.234167 0.169871 0.231698 0.169871 0.235507 0.120818 0.233416 0.118349 0.235507 0.118349 0.235507 0.120818 0.235884 0.118349 0.235884 0.120818 0.231698 0.23245 0.234167 0.2320719 0.234167 0.23245 0.231698 0.229981 0.232329 0.229981 0.231698 0.23245 0.235885 0.01702195 0.233416 0.01765298 0.235885 0.01765298 0.223863 0.174058 0.223863 0.171589 0.223231 0.174058 0.221394 0.171967 0.223863 0.171589 0.221394 0.171589 0.2234849 0.02807796 0.221394 0.02560895 0.2234849 0.02560895 0.2234849 0.02807796 0.223863 0.02560895 0.223863 0.02807796 0.221394 0.03666496 0.223863 0.03628695 0.223863 0.03666496 0.221394 0.03419595 0.222025 0.03419595 0.221394 0.03666496 0.223863 0.04278296 0.221394 0.04341399 0.223863 0.04341399 0.223863 0.05383896 0.223863 0.05136996 0.223232 0.05383896 0.221394 0.05174797 0.223863 0.05136996 0.221394 0.05136996 0.233793 0.146579 0.235884 0.14411 0.233793 0.14411 0.233793 0.146579 0.233416 0.14411 0.233416 0.146579 0.233416 0.152697 0.235884 0.153075 0.235884 0.152697 0.233416 0.155166 0.2340469 0.155166 0.233416 0.152697 0.233416 0.161915 0.235884 0.161284 0.233416 0.161284 0.223862 0.240285 0.223862 0.242754 0.223232 0.240285 0.221394 0.242376 0.223862 0.242754 0.221394 0.242754 0.233789 0.180927 0.231698 0.178459 0.233789 0.178459 0.233789 0.180927 0.234167 0.178459 0.234167 0.180927 0.231698 0.189514 0.234167 0.189137 0.234167 0.189514 0.231698 0.187046 0.232329 0.187046 0.231698 0.189514 0.234167 0.1956329 0.231698 0.196264 0.234167 0.196264 0.234167 0.206688 0.234167 0.2042199 0.233536 0.206688 0.231698 0.2045969 0.234167 0.2042199 0.231698 0.2042199 0.197723 0.27195 0.1956329 0.269481 0.197723 0.269481 0.197723 0.27195 0.198101 0.269481 0.198101 0.27195 0.269481 0.263363 0.27195 0.262985 0.27195 0.263363 0.269481 0.260894 0.270112 0.260894 0.269481 0.263363 0.27195 0.269481 0.269481 0.270112 0.27195 0.270112 0.220428 0.277102 0.220428 0.274634 0.219797 0.277102 0.217959 0.275011 0.220428 0.274634 0.217959 0.274634 0.03984194 0.983265 0.06601095 0.747415 0.06601095 0.983265 0.06601095 0.983265 0.03984194 0.983759 0.03984194 0.983265 0.06601095 0.983265 0.06650495 0.983265 0.06601095 0.983759 0.06601095 0.747415 0.06650495 0.983265 0.06601095 0.983265 0.06650495 0.747415 0.06601095 0.747415 0.06601095 0.746922 0.03984194 0.747415 0.06601095 0.746922 0.06601095 0.747415 0.03984194 0.747415 0.03934794 0.747415 0.03984194 0.746922 0.03984194 0.983265 0.03934794 0.747415 0.03984194 0.747415 0.03934794 0.983265 0.03984194 0.983265 0.03984194 0.983759 0.51213 0.470418 0.511636 0.4719 0.51213 0.4719 0.51213 0.472393 0.51213 0.4719 0.511636 0.4719 0.74798 0.472393 0.51213 0.4719 0.51213 0.472393 0.09986597 0.747415 0.07369595 0.746922 0.07369595 0.747415 0.74798 0.479499 0.74798 0.479006 0.748473 0.479499 0.74798 0.479006 0.51213 0.479499 0.51213 0.479006 0.74798 0.479499 0.748473 0.48098 0.74798 0.48098 0.51213 0.48098 0.511636 0.479499 0.51213 0.479499 0.51213 0.479006 0.51213 0.479499 0.511636 0.479499 0.07369595 0.983265 0.09986597 0.983759 0.09986597 0.983265 0.74798 0.4719 0.74798 0.472393 0.748473 0.4719 0.74798 0.4719 0.748473 0.470418 0.74798 0.470418 0.09986597 0.747415 0.07369595 0.983265 0.09986597 0.983265 0.74798 0.479499 0.51213 0.48098 0.51213 0.479499 0.288746 0.287407 0.286655 0.284938 0.288746 0.284938 0.288746 0.287407 0.289124 0.284938 0.289124 0.287407 0.221394 0.259928 0.223863 0.259552 0.223863 0.259928 0.221394 0.257459 0.222026 0.257459 0.221394 0.259928 0.189514 0.260894 0.187046 0.261525 0.189514 0.261525 0.198101 0.263363 0.198101 0.260894 0.1974689 0.263363 0.1956329 0.26127 0.198101 0.260894 0.1956329 0.260894 0.719937 0.40278 0.746104 0.16693 0.746104 0.40278 0.746104 0.40278 0.719937 0.403273 0.719937 0.40278 0.746104 0.40278 0.746598 0.40278 0.746104 0.403273 0.746104 0.16693 0.746598 0.40278 0.746104 0.40278 0.746598 0.16693 0.746104 0.16693 0.746104 0.166437 0.719937 0.16693 0.746104 0.166437 0.746104 0.16693 0.719937 0.16693 0.719443 0.16693 0.719937 0.166437 0.719937 0.40278 0.719443 0.16693 0.719937 0.16693 0.719443 0.40278 0.719937 0.40278 0.719937 0.403273 0.239266 0.247155 0.238568 0.248636 0.239266 0.248636 0.864605 0.16693 0.865099 0.16693 0.864605 0.166437 0.864605 0.40278 0.865099 0.16693 0.864605 0.16693 0.838438 0.16693 0.837945 0.40278 0.838438 0.40278 0.837945 0.16693 0.838438 0.16693 0.838438 0.166437 0.864605 0.16693 0.838438 0.166437 0.838438 0.16693 0.74798 0.453244 0.748473 0.454726 0.74798 0.454726 0.51213 0.454726 0.511636 0.453244 0.51213 0.453244 0.838438 0.40278 0.837945 0.40278 0.838438 0.403273 0.838438 0.40278 0.864605 0.403273 0.864605 0.40278 0.865099 0.40278 0.864605 0.40278 0.864605 0.403273 0.238568 0.26581 0.239266 0.264329 0.238568 0.264329 0.838438 0.40278 0.864605 0.16693 0.838438 0.16693 0.74798 0.453244 0.51213 0.454726 0.51213 0.453244 0.439505 0.253365 0.465673 0.01751595 0.439505 0.01751595 0.74798 0.427483 0.51213 0.427977 0.51213 0.427483 0.74798 0.427977 0.74798 0.427483 0.748473 0.427977 0.465673 0.01751595 0.439505 0.01702195 0.439505 0.01751595 0.51213 0.438045 0.51213 0.437551 0.511636 0.437551 0.74798 0.438045 0.51213 0.437551 0.51213 0.438045 0.74798 0.437551 0.74798 0.438045 0.748473 0.437551 0.439505 0.253365 0.465673 0.253859 0.465673 0.253365 0.51213 0.427483 0.51213 0.427977 0.511636 0.427977 0.51213 0.429458 0.511636 0.427977 0.51213 0.427977 0.74798 0.427977 0.748473 0.429458 0.74798 0.429458 0.213707 0.253365 0.214201 0.253365 0.213707 0.253859 0.213707 0.01751595 0.214201 0.253365 0.213707 0.253365 0.213707 0.253365 0.187539 0.253859 0.187539 0.253365 0.187046 0.253365 0.187539 0.253365 0.187539 0.253859 0.187539 0.253365 0.187046 0.01751595 0.187539 0.01751595 0.187539 0.01751595 0.187046 0.01751595 0.187539 0.01702195 0.74798 0.437551 0.748473 0.43607 0.74798 0.43607 0.187539 0.01751595 0.213707 0.01702195 0.213707 0.01751595 0.214201 0.01751595 0.213707 0.01751595 0.213707 0.01702195 0.51213 0.43607 0.511636 0.437551 0.51213 0.437551 0.51213 0.427977 0.74798 0.429458 0.51213 0.429458 0.213707 0.253365 0.187539 0.01751595 0.213707 0.01751595 0.278446 0.287407 0.280537 0.284938 0.278446 0.284938 0.278446 0.287407 0.278068 0.284938 0.278068 0.287407 0.286655 0.260894 0.289124 0.261272 0.289124 0.260894 0.286655 0.263363 0.287288 0.263363 0.286655 0.260894 0.286655 0.270112 0.289124 0.269481 0.286655 0.269481 0.289124 0.276351 0.289124 0.27882 0.288492 0.276351 0.286655 0.278442 0.289124 0.27882 0.286655 0.27882 0.2234849 0.105361 0.221394 0.102892 0.2234849 0.102892 0.2234849 0.105361 0.223863 0.102892 0.223863 0.105361 0.221394 0.113948 0.223863 0.11357 0.223863 0.113948 0.221394 0.1114799 0.222025 0.1114799 0.221394 0.113948 0.223863 0.120067 0.221394 0.120698 0.223863 0.120698 0.223863 0.1311219 0.223863 0.128654 0.223232 0.1311219 0.221394 0.129031 0.223863 0.128654 0.221394 0.128654 0.22177 0.182645 0.223863 0.180176 0.22177 0.180176 0.22177 0.182645 0.221394 0.180176 0.221394 0.182645 0.221394 0.188763 0.223863 0.189139 0.223863 0.188763 0.221394 0.191232 0.222025 0.191232 0.221394 0.188763 0.221394 0.1979809 0.223863 0.19735 0.221394 0.19735 0.223863 0.205937 0.223863 0.208406 0.223231 0.205937 0.221394 0.20803 0.223863 0.208406 0.221394 0.208406 0.211467 0.283972 0.213558 0.281503 0.211467 0.281503 0.211467 0.283972 0.211089 0.281503 0.211089 0.283972 0.2042199 0.260894 0.206689 0.261272 0.206689 0.260894 0.2042199 0.263363 0.20485 0.263363 0.2042199 0.260894 0.2128069 0.261525 0.215276 0.260894 0.2128069 0.260894 0.222145 0.266047 0.222145 0.268515 0.2215149 0.266047 0.219676 0.268138 0.222145 0.268515 0.219676 0.268515 0.196006 0.285689 0.193915 0.283221 0.196006 0.283221 0.196006 0.285689 0.196384 0.283221 0.196384 0.285689 0.219676 0.285689 0.222145 0.285312 0.222145 0.285689 0.219676 0.283221 0.220309 0.283221 0.219676 0.285689 0.27195 0.283221 0.269481 0.283852 0.27195 0.283852 0.204971 0.287407 0.204971 0.284938 0.204338 0.287407 0.202502 0.285316 0.204971 0.284938 0.202502 0.284938 0.221772 0.09677398 0.223863 0.09430497 0.221772 0.09430497 0.221772 0.09677398 0.221394 0.09430497 0.221394 0.09677398 0.233416 0.03419595 0.235885 0.03457397 0.235885 0.03419595 0.233416 0.03666496 0.234046 0.03666496 0.233416 0.03419595 0.233416 0.04341399 0.235885 0.04278296 0.233416 0.04278296 0.235885 0.05136996 0.235885 0.05383896 0.235254 0.05136996 0.233416 0.05346095 0.235885 0.05383896 0.233416 0.05383896 0.2234849 0.251341 0.221394 0.248872 0.2234849 0.248872 0.2234849 0.251341 0.223862 0.248872 0.223862 0.251341 0.233416 0.08647 0.235884 0.08609199 0.235884 0.08647 0.233416 0.084001 0.2340469 0.084001 0.233416 0.08647 0.235885 0.092588 0.233416 0.09321898 0.235885 0.09321898 0.235884 0.103644 0.235884 0.101175 0.235253 0.103644 0.233416 0.101553 0.235884 0.101175 0.233416 0.101175 0.221772 0.1397089 0.223863 0.137241 0.221772 0.137241 0.221772 0.1397089 0.221394 0.137241 0.221394 0.1397089 0.221394 0.145828 0.223863 0.146205 0.223863 0.145828 0.221394 0.1482959 0.222025 0.1482959 0.221394 0.145828 0.221394 0.155046 0.223863 0.154415 0.221394 0.154415 0.223863 0.163002 0.223863 0.165471 0.223232 0.163002 0.221394 0.165093 0.223863 0.165471 0.221394 0.165471 0.233792 0.06242597 0.235885 0.05995696 0.233792 0.05995696 0.233792 0.06242597 0.233416 0.05995696 0.233416 0.06242597 0.233416 0.06854397 0.235885 0.06891995 0.235885 0.06854397 0.233416 0.07101297 0.234046 0.07101297 0.233416 0.06854397 0.233416 0.077762 0.235885 0.07713097 0.233416 0.07713097 0.235885 0.02560895 0.235885 0.02807796 0.235254 0.02560895 0.233416 0.02770197 0.235885 0.02807796 0.233416 0.02807796 0.548196 0.16693 0.574364 0.40278 0.548196 0.40278 0.548196 0.40278 0.547702 0.16693 0.548196 0.16693 0.547702 0.40278 0.548196 0.40278 0.548196 0.403273 0.574364 0.40278 0.548196 0.403273 0.548196 0.40278 0.574364 0.40278 0.574857 0.40278 0.574364 0.403273 0.574364 0.16693 0.574857 0.40278 0.574364 0.40278 0.574857 0.16693 0.574364 0.16693 0.574364 0.166437 0.548196 0.16693 0.574364 0.166437 0.574364 0.16693 0.548196 0.16693 0.547702 0.16693 0.548196 0.166437 0.233416 0.137004 0.234114 0.135523 0.233416 0.135523 0.676185 0.40278 0.675691 0.40278 0.675691 0.403273 0.675691 0.40278 0.676185 0.16693 0.675691 0.16693 0.649523 0.16693 0.649029 0.40278 0.649523 0.40278 0.649029 0.16693 0.649523 0.16693 0.649523 0.166437 0.675691 0.16693 0.649523 0.166437 0.649523 0.16693 0.675691 0.16693 0.676185 0.16693 0.675691 0.166437 0.234114 0.126936 0.233416 0.128417 0.234114 0.128417 0.747979 0.444657 0.748473 0.446139 0.747979 0.446139 0.51213 0.446139 0.511636 0.444657 0.51213 0.444657 0.649523 0.40278 0.649029 0.40278 0.649523 0.403273 0.649523 0.40278 0.675691 0.403273 0.675691 0.40278 0.649523 0.40278 0.675691 0.16693 0.649523 0.16693 0.747979 0.446139 0.51213 0.444657 0.747979 0.444657 0.211467 0.270233 0.213558 0.267764 0.211467 0.267764 0.211467 0.270233 0.211089 0.267764 0.211089 0.270233 0.278068 0.269481 0.280537 0.269859 0.280537 0.269481 0.278068 0.27195 0.278699 0.27195 0.278068 0.269481 0.278068 0.278699 0.280537 0.278068 0.278068 0.278068 0.189514 0.267764 0.189514 0.270233 0.188884 0.267764 0.187046 0.269855 0.189514 0.270233 0.187046 0.270233 0.221772 0.06242597 0.223863 0.05995696 0.221772 0.05995696 0.221772 0.06242597 0.221394 0.05995696 0.221394 0.06242597 0.221394 0.06854397 0.223863 0.06892198 0.223863 0.06854397 0.221394 0.07101297 0.222025 0.07101297 0.221394 0.06854397 0.221394 0.077762 0.223863 0.07713097 0.221394 0.07713097 0.223863 0.08571797 0.223863 0.08818697 0.223232 0.08571797 0.221394 0.08780896 0.223863 0.08818697 0.221394 0.08818697 0.847025 0.646652 0.873192 0.410803 0.873192 0.646652 0.873192 0.646652 0.847025 0.647146 0.847025 0.646652 0.873192 0.646652 0.873686 0.646652 0.873192 0.647146 0.873192 0.410803 0.873686 0.646652 0.873192 0.646652 0.873686 0.410803 0.873192 0.410803 0.873192 0.410309 0.847025 0.410803 0.873192 0.410309 0.873192 0.410803 0.847025 0.410803 0.846532 0.410803 0.847025 0.410309 0.847025 0.646652 0.846532 0.410803 0.847025 0.410803 0.846532 0.646652 0.847025 0.646652 0.847025 0.647146 0.239266 0.238568 0.238568 0.240049 0.239266 0.240049 0.03166097 0.747415 0.03215497 0.747415 0.03166097 0.746922 0.03166097 0.983265 0.03215497 0.747415 0.03166097 0.747415 0.03166097 0.747415 0.005493998 0.746922 0.005493998 0.747415 0.004999995 0.747415 0.005493998 0.747415 0.005493998 0.746922 0.005493998 0.747415 0.004999995 0.983265 0.005493998 0.983265 0.51213 0.463313 0.511636 0.461831 0.51213 0.461831 0.005493998 0.983265 0.004999995 0.983265 0.005493998 0.983759 0.005493998 0.983265 0.03166097 0.983759 0.03166097 0.983265 0.03215497 0.983265 0.03166097 0.983265 0.03166097 0.983759 0.238568 0.257223 0.239266 0.255742 0.238568 0.255742 0.74798 0.461831 0.748473 0.463313 0.74798 0.463313 0.03166097 0.747415 0.005493998 0.983265 0.03166097 0.983265 0.51213 0.463313 0.74798 0.461831 0.74798 0.463313 0.2337909 0.215275 0.231698 0.2128069 0.2337909 0.2128069 0.2337909 0.215275 0.234167 0.2128069 0.234167 0.215275 0.231698 0.223862 0.234167 0.223487 0.234167 0.223862 0.231698 0.221394 0.232329 0.221394 0.231698 0.223862 0.223863 0.214524 0.221394 0.215155 0.223863 0.215155 0.223863 0.01949095 0.223863 0.01702195 0.223232 0.01949095 0.221394 0.01739799 0.223863 0.01702195 0.221394 0.01702195 0.187424 0.27882 0.189514 0.276351 0.187424 0.276351 0.187424 0.27882 0.187046 0.276351 0.187046 0.27882 0.202502 0.276351 0.204971 0.276729 0.204971 0.276351 0.202502 0.27882 0.203135 0.27882 0.202502 0.276351 0.269481 0.276982 0.27195 0.276351 0.269481 0.276351 0.280537 0.260894 0.280537 0.263363 0.279905 0.260894 0.278068 0.262985 0.280537 0.263363 0.278068 0.263363 0.58205 0.16693 0.608218 0.40278 0.58205 0.40278 0.51213 0.410309 0.747979 0.410803 0.747979 0.410309 0.51213 0.410309 0.511636 0.410803 0.51213 0.410803 0.608218 0.40278 0.58205 0.403273 0.58205 0.40278 0.748473 0.420377 0.747979 0.420871 0.747979 0.420377 0.51213 0.420871 0.747979 0.420377 0.747979 0.420871 0.51213 0.420871 0.511636 0.420377 0.51213 0.420377 0.58205 0.16693 0.608218 0.166437 0.608218 0.16693 0.748473 0.410803 0.747979 0.410309 0.747979 0.410803 0.748473 0.410803 0.747979 0.412284 0.748473 0.412284 0.641343 0.40278 0.641343 0.403273 0.641836 0.40278 0.615175 0.40278 0.641343 0.403273 0.641343 0.40278 0.615175 0.403273 0.615175 0.40278 0.614681 0.40278 0.615175 0.16693 0.614681 0.40278 0.615175 0.40278 0.615175 0.16693 0.615175 0.166437 0.614681 0.16693 0.641343 0.16693 0.615175 0.166437 0.615175 0.16693 0.641343 0.166437 0.641343 0.16693 0.641836 0.16693 0.641343 0.40278 0.641836 0.16693 0.641343 0.16693 0.511636 0.412284 0.51213 0.410803 0.511636 0.410803 0.748473 0.420377 0.747979 0.418896 0.748473 0.418896 0.511636 0.418896 0.51213 0.420377 0.511636 0.420377 0.51213 0.418896 0.747979 0.420377 0.51213 0.420377 0.479451 0.494462 0.004999995 0.494462 0.004999995 0.731921 0.541261 0.166437 0.541261 0.403273 0.511636 0.403273 0.179799 0.260894 0.179799 0.290518 0.01702195 0.290518 0.01702195 0.01702195 0.01702195 0.253859 0.179799 0.253859 0.179799 0.29696 0.01702195 0.29696 0.01702195 0.326584 0.269481 0.253859 0.432259 0.253859 0.432259 0.01702195 0.683378 0.166437 0.713001 0.166437 0.713001 0.403273 0.796926 0.731299 0.796926 0.494462 0.485875 0.494462 0.985464 0.117317 0.674414 0.117317 0.674414 0.115342 0.674414 0.115342 0.674414 0.117317 0.511636 0.117317 0.009026944 0.172298 0.009520947 0.172298 0.009520947 0.48335 0.009520947 0.009520947 0.009520947 0.172298 0.009026944 0.172298 0.004999995 0.172298 0.009026944 0.172298 0.009026944 0.483843 0.009026944 0.009026944 0.009026944 0.172298 0.004999995 0.172298 0.009026944 0.009026944 0.004999995 0.004999995 0.250879 0.004999995 0.246852 0.483843 0.246852 0.172298 0.250879 0.172298 0.250879 0.172298 0.246852 0.172298 0.246852 0.009026944 0.246852 0.483843 0.250879 0.48787 0.004999995 0.48787 0.827702 0.123995 0.827702 0.123501 0.51213 0.123501 0.503832 0.321066 0.504326 0.321066 0.504326 0.005493998 0.504326 0.321066 0.503832 0.321066 0.503832 0.488363 0.827702 0.123501 0.827702 0.123995 0.995 0.123995 0.756003 0.16693 0.755509 0.16693 0.755509 0.412809 0.792045 0.16693 0.792045 0.166437 0.756003 0.166437 0.792045 0.412809 0.792539 0.412809 0.792539 0.16693 0.756003 0.412809 0.756003 0.413303 0.792045 0.413303 0.257459 0.321066 0.257953 0.321066 0.257953 0.005493998 0.678935 0.04153597 0.678935 0.04104197 0.994506 0.04104197 0.678935 0.04104197 0.678935 0.04153597 0.511636 0.04153597 0.257953 0.321066 0.257459 0.321066 0.257459 0.488363 0.004999995 0.488363 0.004999995 0.48787 0.250879 0.48787 0.257953 0.004999995 0.257953 0.005493998 0.503832 0.005493998 0.995 0.04104197 0.994506 0.04104197 0.994506 0.004999995 0.511636 0.1600379 0.51213 0.1600379 0.51213 0.123995 0.827702 0.1600379 0.827702 0.123995 0.51213 0.123995 0.827702 0.123995 0.827702 0.1600379 0.995 0.1600379 0.500115 0.009208977 0.500115 0.321066 0.503832 0.321066 0.503832 0.321066 0.500115 0.321066 0.500115 0.484647 0.26167 0.484647 0.257953 0.488363 0.503832 0.488363 0.257953 0.321066 0.26167 0.321066 0.26167 0.009208977 0.26167 0.484647 0.26167 0.321066 0.257953 0.321066 0.500115 0.009208977 0.503832 0.005493998 0.257953 0.005493998 0.499622 0.00970298 0.499622 0.321066 0.500115 0.321066 0.500115 0.321066 0.499622 0.321066 0.499622 0.484154 0.168088 0.74031 0.168088 0.738335 0.479451 0.738335 0.168088 0.738335 0.168088 0.74031 0.004999995 0.74031 0.231956 0.238568 0.231956 0.475405 0.229981 0.475405 0.246852 0.009026944 0.246358 0.009520947 0.009520947 0.009520947 0.500115 0.484647 0.499622 0.484154 0.262164 0.484154 0.472136 0.254481 0.472136 0.01702195 0.474111 0.01702195 0.797238 0.738335 0.797238 0.74031 0.960326 0.74031 0.797238 0.74031 0.797238 0.738335 0.485875 0.738335 0.26167 0.321066 0.262164 0.321066 0.262164 0.00970298 0.262164 0.484154 0.262164 0.321066 0.26167 0.321066 0.678935 0.04104197 0.678935 0.004999995 0.994506 0.004999995 0.678935 0.004999995 0.678935 0.04104197 0.511636 0.04104197 0.246358 0.48335 0.246358 0.172298 0.246852 0.172298 0.246852 0.172298 0.246358 0.172298 0.246358 0.009520947 0.822689 0.04990994 0.822689 0.04793494 0.511636 0.04793494 0.822689 0.04793494 0.822689 0.04990994 0.985464 0.04990994 0.800161 0.166437 0.800161 0.403273 0.83176 0.403273 0.009026944 0.483843 0.009520947 0.48335 0.246358 0.48335 0.803596 0.410309 0.839639 0.410309 0.839639 0.656188 0.26167 0.009208977 0.262164 0.00970298 0.499622 0.00970298 0.482698 0.254481 0.482698 0.01702195 0.480723 0.01702195 0.235507 0.112231 0.233416 0.112231 0.233416 0.109762 0.235507 0.112231 0.235507 0.109762 0.235884 0.109762 0.221394 0.22558 0.222025 0.223111 0.223863 0.225202 0.223863 0.231698 0.221394 0.231698 0.221394 0.232329 0.231698 0.170249 0.233536 0.17234 0.234167 0.169871 0.235507 0.120818 0.233416 0.120818 0.233416 0.118349 0.235507 0.120818 0.235507 0.118349 0.235884 0.118349 0.231698 0.23245 0.232329 0.229981 0.234167 0.2320719 0.235885 0.01702195 0.233416 0.01702195 0.233416 0.01765298 0.221394 0.171967 0.223231 0.174058 0.223863 0.171589 0.2234849 0.02807796 0.221394 0.02807796 0.221394 0.02560895 0.2234849 0.02807796 0.2234849 0.02560895 0.223863 0.02560895 0.221394 0.03666496 0.222025 0.03419595 0.223863 0.03628695 0.223863 0.04278296 0.221394 0.04278296 0.221394 0.04341399 0.221394 0.05174797 0.223232 0.05383896 0.223863 0.05136996 0.233793 0.146579 0.235884 0.146579 0.235884 0.14411 0.233793 0.146579 0.233793 0.14411 0.233416 0.14411 0.233416 0.152697 0.2340469 0.155166 0.235884 0.153075 0.233416 0.161915 0.235884 0.161915 0.235884 0.161284 0.221394 0.242376 0.223232 0.240285 0.223862 0.242754 0.233789 0.180927 0.231698 0.180927 0.231698 0.178459 0.233789 0.180927 0.233789 0.178459 0.234167 0.178459 0.231698 0.189514 0.232329 0.187046 0.234167 0.189137 0.234167 0.1956329 0.231698 0.1956329 0.231698 0.196264 0.231698 0.2045969 0.233536 0.206688 0.234167 0.2042199 0.197723 0.27195 0.1956329 0.27195 0.1956329 0.269481 0.197723 0.27195 0.197723 0.269481 0.198101 0.269481 0.269481 0.263363 0.270112 0.260894 0.27195 0.262985 0.27195 0.269481 0.269481 0.269481 0.269481 0.270112 0.217959 0.275011 0.219797 0.277102 0.220428 0.274634 0.03984194 0.983265 0.03984194 0.747415 0.06601095 0.747415 0.06601095 0.983265 0.06601095 0.983759 0.03984194 0.983759 0.06601095 0.747415 0.06650495 0.747415 0.06650495 0.983265 0.03984194 0.747415 0.03984194 0.746922 0.06601095 0.746922 0.03984194 0.983265 0.03934794 0.983265 0.03934794 0.747415 0.51213 0.470418 0.511636 0.470418 0.511636 0.4719 0.74798 0.472393 0.74798 0.4719 0.51213 0.4719 0.09986597 0.747415 0.09986597 0.746922 0.07369595 0.746922 0.74798 0.479006 0.74798 0.479499 0.51213 0.479499 0.74798 0.479499 0.748473 0.479499 0.748473 0.48098 0.51213 0.48098 0.511636 0.48098 0.511636 0.479499 0.07369595 0.983265 0.07369595 0.983759 0.09986597 0.983759 0.74798 0.4719 0.748473 0.4719 0.748473 0.470418 0.09986597 0.747415 0.07369595 0.747415 0.07369595 0.983265 0.74798 0.479499 0.74798 0.48098 0.51213 0.48098 0.288746 0.287407 0.286655 0.287407 0.286655 0.284938 0.288746 0.287407 0.288746 0.284938 0.289124 0.284938 0.221394 0.259928 0.222026 0.257459 0.223863 0.259552 0.189514 0.260894 0.187046 0.260894 0.187046 0.261525 0.1956329 0.26127 0.1974689 0.263363 0.198101 0.260894 0.719937 0.40278 0.719937 0.16693 0.746104 0.16693 0.746104 0.40278 0.746104 0.403273 0.719937 0.403273 0.746104 0.16693 0.746598 0.16693 0.746598 0.40278 0.719937 0.16693 0.719937 0.166437 0.746104 0.166437 0.719937 0.40278 0.719443 0.40278 0.719443 0.16693 0.239266 0.247155 0.238568 0.247155 0.238568 0.248636 0.864605 0.40278 0.865099 0.40278 0.865099 0.16693 0.838438 0.16693 0.837945 0.16693 0.837945 0.40278 0.864605 0.16693 0.864605 0.166437 0.838438 0.166437 0.74798 0.453244 0.748473 0.453244 0.748473 0.454726 0.51213 0.454726 0.511636 0.454726 0.511636 0.453244 0.838438 0.40278 0.838438 0.403273 0.864605 0.403273 0.238568 0.26581 0.239266 0.26581 0.239266 0.264329 0.838438 0.40278 0.864605 0.40278 0.864605 0.16693 0.74798 0.453244 0.74798 0.454726 0.51213 0.454726 0.439505 0.253365 0.465673 0.253365 0.465673 0.01751595 0.74798 0.427483 0.74798 0.427977 0.51213 0.427977 0.465673 0.01751595 0.465673 0.01702195 0.439505 0.01702195 0.74798 0.438045 0.74798 0.437551 0.51213 0.437551 0.439505 0.253365 0.439505 0.253859 0.465673 0.253859 0.51213 0.429458 0.511636 0.429458 0.511636 0.427977 0.74798 0.427977 0.748473 0.427977 0.748473 0.429458 0.213707 0.01751595 0.214201 0.01751595 0.214201 0.253365 0.213707 0.253365 0.213707 0.253859 0.187539 0.253859 0.187539 0.253365 0.187046 0.253365 0.187046 0.01751595 0.74798 0.437551 0.748473 0.437551 0.748473 0.43607 0.187539 0.01751595 0.187539 0.01702195 0.213707 0.01702195 0.51213 0.43607 0.511636 0.43607 0.511636 0.437551 0.51213 0.427977 0.74798 0.427977 0.74798 0.429458 0.213707 0.253365 0.187539 0.253365 0.187539 0.01751595 0.278446 0.287407 0.280537 0.287407 0.280537 0.284938 0.278446 0.287407 0.278446 0.284938 0.278068 0.284938 0.286655 0.260894 0.287288 0.263363 0.289124 0.261272 0.286655 0.270112 0.289124 0.270112 0.289124 0.269481 0.286655 0.278442 0.288492 0.276351 0.289124 0.27882 0.2234849 0.105361 0.221394 0.105361 0.221394 0.102892 0.2234849 0.105361 0.2234849 0.102892 0.223863 0.102892 0.221394 0.113948 0.222025 0.1114799 0.223863 0.11357 0.223863 0.120067 0.221394 0.120067 0.221394 0.120698 0.221394 0.129031 0.223232 0.1311219 0.223863 0.128654 0.22177 0.182645 0.223863 0.182645 0.223863 0.180176 0.22177 0.182645 0.22177 0.180176 0.221394 0.180176 0.221394 0.188763 0.222025 0.191232 0.223863 0.189139 0.221394 0.1979809 0.223863 0.1979809 0.223863 0.19735 0.221394 0.20803 0.223231 0.205937 0.223863 0.208406 0.211467 0.283972 0.213558 0.283972 0.213558 0.281503 0.211467 0.283972 0.211467 0.281503 0.211089 0.281503 0.2042199 0.260894 0.20485 0.263363 0.206689 0.261272 0.2128069 0.261525 0.215276 0.261525 0.215276 0.260894 0.219676 0.268138 0.2215149 0.266047 0.222145 0.268515 0.196006 0.285689 0.193915 0.285689 0.193915 0.283221 0.196006 0.285689 0.196006 0.283221 0.196384 0.283221 0.219676 0.285689 0.220309 0.283221 0.222145 0.285312 0.27195 0.283221 0.269481 0.283221 0.269481 0.283852 0.202502 0.285316 0.204338 0.287407 0.204971 0.284938 0.221772 0.09677398 0.223863 0.09677398 0.223863 0.09430497 0.221772 0.09677398 0.221772 0.09430497 0.221394 0.09430497 0.233416 0.03419595 0.234046 0.03666496 0.235885 0.03457397 0.233416 0.04341399 0.235885 0.04341399 0.235885 0.04278296 0.233416 0.05346095 0.235254 0.05136996 0.235885 0.05383896 0.2234849 0.251341 0.221394 0.251341 0.221394 0.248872 0.2234849 0.251341 0.2234849 0.248872 0.223862 0.248872 0.233416 0.08647 0.2340469 0.084001 0.235884 0.08609199 0.235885 0.092588 0.233416 0.092588 0.233416 0.09321898 0.233416 0.101553 0.235253 0.103644 0.235884 0.101175 0.221772 0.1397089 0.223863 0.1397089 0.223863 0.137241 0.221772 0.1397089 0.221772 0.137241 0.221394 0.137241 0.221394 0.145828 0.222025 0.1482959 0.223863 0.146205 0.221394 0.155046 0.223863 0.155046 0.223863 0.154415 0.221394 0.165093 0.223232 0.163002 0.223863 0.165471 0.233792 0.06242597 0.235885 0.06242597 0.235885 0.05995696 0.233792 0.06242597 0.233792 0.05995696 0.233416 0.05995696 0.233416 0.06854397 0.234046 0.07101297 0.235885 0.06891995 0.233416 0.077762 0.235885 0.077762 0.235885 0.07713097 0.233416 0.02770197 0.235254 0.02560895 0.235885 0.02807796 0.548196 0.16693 0.574364 0.16693 0.574364 0.40278 0.548196 0.40278 0.547702 0.40278 0.547702 0.16693 0.574364 0.40278 0.574364 0.403273 0.548196 0.403273 0.574364 0.16693 0.574857 0.16693 0.574857 0.40278 0.548196 0.16693 0.548196 0.166437 0.574364 0.166437 0.233416 0.137004 0.234114 0.137004 0.234114 0.135523 0.675691 0.40278 0.676185 0.40278 0.676185 0.16693 0.649523 0.16693 0.649029 0.16693 0.649029 0.40278 0.675691 0.16693 0.675691 0.166437 0.649523 0.166437 0.234114 0.126936 0.233416 0.126936 0.233416 0.128417 0.747979 0.444657 0.748473 0.444657 0.748473 0.446139 0.51213 0.446139 0.511636 0.446139 0.511636 0.444657 0.649523 0.40278 0.649523 0.403273 0.675691 0.403273 0.649523 0.40278 0.675691 0.40278 0.675691 0.16693 0.747979 0.446139 0.51213 0.446139 0.51213 0.444657 0.211467 0.270233 0.213558 0.270233 0.213558 0.267764 0.211467 0.270233 0.211467 0.267764 0.211089 0.267764 0.278068 0.269481 0.278699 0.27195 0.280537 0.269859 0.278068 0.278699 0.280537 0.278699 0.280537 0.278068 0.187046 0.269855 0.188884 0.267764 0.189514 0.270233 0.221772 0.06242597 0.223863 0.06242597 0.223863 0.05995696 0.221772 0.06242597 0.221772 0.05995696 0.221394 0.05995696 0.221394 0.06854397 0.222025 0.07101297 0.223863 0.06892198 0.221394 0.077762 0.223863 0.077762 0.223863 0.07713097 0.221394 0.08780896 0.223232 0.08571797 0.223863 0.08818697 0.847025 0.646652 0.847025 0.410803 0.873192 0.410803 0.873192 0.646652 0.873192 0.647146 0.847025 0.647146 0.873192 0.410803 0.873686 0.410803 0.873686 0.646652 0.847025 0.410803 0.847025 0.410309 0.873192 0.410309 0.847025 0.646652 0.846532 0.646652 0.846532 0.410803 0.239266 0.238568 0.238568 0.238568 0.238568 0.240049 0.03166097 0.983265 0.03215497 0.983265 0.03215497 0.747415 0.03166097 0.747415 0.03166097 0.746922 0.005493998 0.746922 0.005493998 0.747415 0.004999995 0.747415 0.004999995 0.983265 0.51213 0.463313 0.511636 0.463313 0.511636 0.461831 0.005493998 0.983265 0.005493998 0.983759 0.03166097 0.983759 0.238568 0.257223 0.239266 0.257223 0.239266 0.255742 0.74798 0.461831 0.748473 0.461831 0.748473 0.463313 0.03166097 0.747415 0.005493998 0.747415 0.005493998 0.983265 0.51213 0.463313 0.51213 0.461831 0.74798 0.461831 0.2337909 0.215275 0.231698 0.215275 0.231698 0.2128069 0.2337909 0.215275 0.2337909 0.2128069 0.234167 0.2128069 0.231698 0.223862 0.232329 0.221394 0.234167 0.223487 0.223863 0.214524 0.221394 0.214524 0.221394 0.215155 0.221394 0.01739799 0.223232 0.01949095 0.223863 0.01702195 0.187424 0.27882 0.189514 0.27882 0.189514 0.276351 0.187424 0.27882 0.187424 0.276351 0.187046 0.276351 0.202502 0.276351 0.203135 0.27882 0.204971 0.276729 0.269481 0.276982 0.27195 0.276982 0.27195 0.276351 0.278068 0.262985 0.279905 0.260894 0.280537 0.263363 0.58205 0.16693 0.608218 0.16693 0.608218 0.40278 0.51213 0.410309 0.51213 0.410803 0.747979 0.410803 0.608218 0.40278 0.608218 0.403273 0.58205 0.403273 0.51213 0.420871 0.51213 0.420377 0.747979 0.420377 0.58205 0.16693 0.58205 0.166437 0.608218 0.166437 0.748473 0.410803 0.747979 0.410803 0.747979 0.412284 0.615175 0.40278 0.615175 0.403273 0.641343 0.403273 0.615175 0.16693 0.614681 0.16693 0.614681 0.40278 0.641343 0.16693 0.641343 0.166437 0.615175 0.166437 0.641343 0.40278 0.641836 0.40278 0.641836 0.16693 0.511636 0.412284 0.51213 0.412284 0.51213 0.410803 0.748473 0.420377 0.747979 0.420377 0.747979 0.418896 0.511636 0.418896 0.51213 0.418896 0.51213 0.420377 0.51213 0.418896 0.747979 0.418896 0.747979 0.420377</float_array>
          <technique_common>
            <accessor source="#Mesh9_Group13_Group1_Model-mesh-map-0-array" count="1818" stride="2">
              <param name="S" type="float"/>
              <param name="T" type="float"/>
            </accessor>
          </technique_common>
        </source>
        <vertices id="Mesh9_Group13_Group1_Model-mesh-vertices">
          <input semantic="POSITION" source="#Mesh9_Group13_Group1_Model-mesh-positions"/>
        </vertices>
        <polylist material="FrontColor-material" count="606">
          <input semantic="VERTEX" source="#Mesh9_Group13_Group1_Model-mesh-vertices" offset="0"/>
          <input semantic="NORMAL" source="#Mesh9_Group13_Group1_Model-mesh-normals" offset="1"/>
          <input semantic="TEXCOORD" source="#Mesh9_Group13_Group1_Model-mesh-map-0" offset="2" set="0"/>
          <vcount>3 3 3 3 3 3 3 3 3 3 3 3 3 3 3 3 3 3 3 3 3 3 3 3 3 3 3 3 3 3 3 3 3 3 3 3 3 3 3 3 3 3 3 3 3 3 3 3 3 3 3 3 3 3 3 3 3 3 3 3 3 3 3 3 3 3 3 3 3 3 3 3 3 3 3 3 3 3 3 3 3 3 3 3 3 3 3 3 3 3 3 3 3 3 3 3 3 3 3 3 3 3 3 3 3 3 3 3 3 3 3 3 3 3 3 3 3 3 3 3 3 3 3 3 3 3 3 3 3 3 3 3 3 3 3 3 3 3 3 3 3 3 3 3 3 3 3 3 3 3 3 3 3 3 3 3 3 3 3 3 3 3 3 3 3 3 3 3 3 3 3 3 3 3 3 3 3 3 3 3 3 3 3 3 3 3 3 3 3 3 3 3 3 3 3 3 3 3 3 3 3 3 3 3 3 3 3 3 3 3 3 3 3 3 3 3 3 3 3 3 3 3 3 3 3 3 3 3 3 3 3 3 3 3 3 3 3 3 3 3 3 3 3 3 3 3 3 3 3 3 3 3 3 3 3 3 3 3 3 3 3 3 3 3 3 3 3 3 3 3 3 3 3 3 3 3 3 3 3 3 3 3 3 3 3 3 3 3 3 3 3 3 3 3 3 3 3 3 3 3 3 3 3 3 3 3 3 3 3 3 3 3 3 3 3 3 3 3 3 3 3 3 3 3 3 3 3 3 3 3 3 3 3 3 3 3 3 3 3 3 3 3 3 3 3 3 3 3 3 3 3 3 3 3 3 3 3 3 3 3 3 3 3 3 3 3 3 3 3 3 3 3 3 3 3 3 3 3 3 3 3 3 3 3 3 3 3 3 3 3 3 3 3 3 3 3 3 3 3 3 3 3 3 3 3 3 3 3 3 3 3 3 3 3 3 3 3 3 3 3 3 3 3 3 3 3 3 3 3 3 3 3 3 3 3 3 3 3 3 3 3 3 3 3 3 3 3 3 3 3 3 3 3 3 3 3 3 3 3 3 3 3 3 3 3 3 3 3 3 3 3 3 3 3 3 3 3 3 3 3 3 3 3 3 3 3 3 3 3 3 3 3 3 3 3 3 3 3 3 3 3 3 3 3 3 3 3 3 3 3 3 3 3 3 3 3 3 3 3 3 3 3 3 3 3 3 3 3 3 3 3 3 3 3 3 3 3 3 3 3 3 3 3 3 3 3 3 3 3 3 3 3 3 3 3 3 3 3 3 3 3 3 3 3 3 3 3 3 3 3 3 3 3 3 3 3 3 3 3 3 3 3 3 3 3 3 3 3 3 3 3 3 3 3 3 3 3 3 3 3 3 3 3 3 3 3 </vcount>
          <p>1 0 0 3 0 1 0 0 2 5 1 3 7 1 4 4 1 5 8 2 6 5 2 7 4 2 8 10 3 9 4 3 10 7 3 11 6 4 12 10 4 13 7 4 14 9 3 15 6 3 16 11 3 17 8 1 18 11 1 19 10 1 20 8 3 21 13 3 22 12 3 23 8 2 24 12 2 25 9 2 26 14 2 27 9 2 28 12 2 29 9 2 30 16 2 31 5 2 32 18 5 33 14 6 34 17 7 35 16 8 36 18 5 37 19 8 38 21 9 39 17 10 40 20 11 41 19 3 42 21 9 43 22 3 44 19 3 45 24 12 46 23 13 47 25 3 48 27 14 49 28 3 50 27 14 51 23 13 52 24 12 53 25 3 54 20 11 55 17 10 56 30 15 57 20 16 58 29 17 59 32 18 60 34 19 61 31 20 62 33 18 63 36 21 64 35 22 65 21 23 66 37 24 67 22 25 68 39 26 69 22 25 70 38 27 71 24 28 72 39 26 73 40 29 74 41 30 75 40 29 76 39 26 77 41 30 78 43 31 79 42 32 80 44 33 81 43 31 82 41 30 83 36 21 84 44 33 85 35 22 86 38 27 87 35 22 88 44 33 89 38 27 90 22 25 91 37 24 92 46 34 93 48 35 94 45 36 95 27 37 96 50 38 97 28 39 98 49 37 99 24 28 100 40 29 101 47 34 102 42 32 103 43 31 104 52 40 105 28 39 106 51 41 107 54 42 108 31 20 109 53 43 110 48 35 111 54 42 112 45 36 113 51 41 114 45 36 115 54 42 116 51 41 117 28 39 118 50 38 119 53 43 120 31 20 121 34 19 122 53 43 123 29 17 124 52 40 125 20 16 126 52 40 127 29 17 128 33 4 129 29 4 130 34 4 131 30 4 132 35 4 133 37 4 134 55 0 135 32 0 136 31 0 137 32 0 138 57 0 139 36 0 140 58 0 141 36 0 142 57 0 143 47 0 144 60 0 145 48 0 146 58 0 147 47 0 148 43 0 149 55 0 150 48 0 151 60 0 152 61 44 153 56 34 154 55 45 155 56 34 156 63 46 157 57 46 158 65 2 159 61 2 160 64 2 161 62 2 162 66 2 163 63 2 164 16 1 165 6 1 166 5 1 167 23 47 168 16 48 169 19 49 170 57 50 171 68 51 172 58 51 173 68 1 174 66 1 175 69 1 176 70 4 177 68 4 178 69 4 179 71 4 180 73 4 181 72 4 182 59 18 183 72 52 184 60 53 185 68 54 186 59 18 187 58 54 188 49 2 189 45 2 190 50 2 191 46 2 192 40 2 193 42 2 194 74 55 195 26 56 196 25 57 197 26 56 198 67 58 199 23 58 200 11 4 201 74 4 202 13 4 203 10 4 204 11 4 205 13 4 206 75 4 207 6 4 208 67 4 209 74 59 210 12 59 211 13 59 212 17 60 213 74 61 214 25 62 215 53 1 216 51 1 217 54 1 218 60 63 219 61 64 220 55 65 221 61 59 222 73 59 223 64 59 224 77 66 225 79 67 226 76 68 227 77 66 228 81 2 229 80 2 230 82 3 231 77 3 232 80 3 233 83 3 234 78 3 235 82 3 236 79 59 237 83 59 238 84 59 239 84 0 240 85 69 241 79 70 242 76 71 243 85 69 244 81 0 245 87 72 246 89 73 247 86 74 248 87 72 249 91 2 250 90 2 251 92 3 252 87 3 253 90 3 254 93 3 255 88 3 256 92 3 257 89 59 258 93 59 259 94 59 260 94 0 261 95 0 262 89 0 263 86 0 264 95 0 265 91 0 266 97 75 267 99 76 268 96 77 269 97 75 270 101 2 271 100 2 272 102 78 273 97 79 274 100 3 275 103 3 276 98 80 277 102 78 278 99 59 279 103 59 280 104 59 281 104 0 282 105 81 283 99 82 284 96 83 285 105 81 286 101 0 287 107 84 288 109 85 289 106 86 290 107 84 291 111 4 292 110 4 293 112 87 294 107 88 295 110 0 296 113 0 297 108 89 298 112 87 299 109 59 300 113 59 301 114 59 302 114 3 303 115 90 304 109 91 305 106 92 306 115 90 307 111 3 308 117 93 309 119 94 310 116 95 311 117 93 312 121 2 313 120 2 314 122 96 315 117 97 316 120 3 317 123 3 318 118 98 319 122 96 320 119 59 321 123 59 322 124 59 323 124 0 324 125 99 325 119 100 326 116 101 327 125 99 328 121 0 329 127 102 330 129 103 331 126 104 332 127 102 333 131 2 334 130 2 335 132 105 336 127 106 337 130 3 338 133 3 339 128 107 340 132 105 341 129 59 342 133 59 343 134 59 344 134 0 345 135 0 346 129 0 347 126 0 348 135 0 349 131 0 350 137 1 351 139 1 352 136 1 353 136 108 354 141 109 355 137 110 356 136 108 357 142 111 358 140 112 359 139 113 360 142 111 361 136 108 362 143 114 363 139 113 364 144 115 365 138 116 366 144 115 367 139 113 368 138 116 369 146 117 370 145 118 371 137 110 372 146 117 373 138 116 374 147 119 375 137 110 376 141 109 377 147 119 378 149 120 379 148 121 380 150 122 381 148 121 382 149 120 383 151 123 384 148 121 385 150 122 386 150 122 387 154 124 388 153 125 389 155 126 390 153 125 391 154 124 392 153 125 393 157 127 394 156 128 395 155 126 396 140 112 397 142 111 398 143 114 399 158 129 400 157 127 401 156 128 402 157 127 403 158 129 404 156 128 405 159 130 406 151 123 407 152 131 408 151 123 409 159 130 410 152 131 411 145 118 412 146 117 413 150 59 414 156 59 415 151 59 416 155 3 417 143 3 418 157 3 419 161 132 420 163 133 421 160 134 422 161 132 423 165 2 424 164 2 425 166 3 426 161 3 427 164 3 428 167 3 429 162 3 430 166 3 431 163 59 432 167 59 433 168 59 434 168 0 435 169 0 436 163 0 437 160 0 438 169 0 439 165 0 440 171 1 441 173 1 442 170 1 443 170 135 444 175 136 445 171 137 446 170 135 447 176 138 448 174 139 449 173 140 450 176 138 451 170 135 452 177 141 453 173 140 454 178 142 455 172 143 456 178 142 457 173 140 458 172 143 459 180 144 460 179 145 461 171 137 462 180 144 463 172 143 464 181 146 465 171 137 466 175 136 467 181 146 468 183 147 469 182 148 470 184 149 471 182 148 472 183 147 473 185 150 474 182 148 475 184 149 476 188 151 477 190 152 478 187 153 479 189 154 480 188 151 481 191 155 482 184 149 483 191 155 484 188 151 485 189 154 486 174 139 487 176 138 488 177 141 489 192 156 490 190 152 491 187 153 492 190 152 493 192 156 494 187 153 495 193 157 496 185 150 497 186 158 498 185 150 499 193 157 500 186 158 501 179 145 502 180 144 503 187 59 504 184 59 505 188 59 506 189 3 507 177 3 508 190 3 509 195 59 510 197 59 511 194 59 512 194 159 513 199 160 514 195 161 515 198 162 516 194 159 517 200 163 518 197 164 519 200 163 520 194 159 521 197 164 522 202 165 523 201 166 524 196 167 525 202 165 526 197 164 527 203 168 528 196 167 529 204 169 530 195 161 531 204 169 532 196 167 533 195 161 534 199 160 535 205 170 536 206 171 537 205 170 538 199 160 539 198 162 540 209 172 541 208 173 542 210 174 543 208 173 544 209 172 545 211 175 546 208 173 547 210 174 548 210 174 549 213 176 550 212 177 551 214 178 552 212 177 553 213 176 554 212 177 555 216 179 556 215 180 557 215 180 558 216 179 559 217 181 560 203 168 561 217 181 562 216 179 563 215 180 564 207 182 565 211 175 566 206 171 567 211 175 568 207 182 569 214 178 570 201 166 571 202 165 572 199 3 573 208 3 574 206 3 575 210 1 576 215 1 577 211 1 578 219 183 579 221 184 580 218 185 581 219 183 582 223 4 583 222 4 584 224 186 585 219 187 586 222 0 587 225 0 588 220 188 589 224 186 590 221 59 591 225 59 592 226 59 593 226 3 594 227 3 595 221 3 596 218 3 597 227 3 598 223 3 599 229 102 600 231 189 601 228 102 602 229 102 603 233 2 604 232 2 605 234 3 606 229 3 607 232 3 608 235 3 609 230 3 610 234 3 611 231 59 612 235 59 613 236 59 614 236 0 615 237 0 616 231 0 617 228 0 618 237 0 619 233 0 620 239 190 621 241 191 622 238 192 623 239 190 624 243 4 625 242 4 626 244 193 627 239 194 628 242 0 629 245 0 630 240 195 631 244 193 632 241 59 633 245 59 634 246 59 635 246 3 636 247 196 637 241 197 638 238 198 639 247 196 640 243 3 641 249 199 642 251 200 643 248 201 644 249 199 645 253 4 646 252 4 647 254 0 648 249 0 649 252 0 650 255 0 651 250 0 652 254 0 653 251 59 654 255 59 655 256 59 656 256 3 657 257 3 658 251 3 659 248 3 660 257 3 661 253 3 662 259 75 663 261 76 664 258 77 665 259 75 666 263 2 667 262 2 668 264 202 669 259 203 670 262 3 671 265 3 672 260 204 673 264 202 674 261 59 675 265 59 676 266 59 677 266 0 678 267 81 679 261 82 680 258 83 681 267 81 682 263 0 683 269 183 684 271 184 685 268 185 686 269 183 687 273 4 688 272 4 689 274 205 690 269 206 691 272 0 692 275 0 693 270 207 694 274 205 695 271 59 696 275 59 697 276 59 698 276 3 699 277 3 700 271 3 701 268 3 702 277 3 703 273 3 704 279 66 705 281 67 706 278 68 707 279 66 708 283 2 709 282 2 710 284 3 711 279 3 712 282 3 713 285 3 714 280 3 715 284 3 716 281 59 717 285 59 718 286 59 719 286 0 720 287 69 721 281 70 722 278 71 723 287 69 724 283 0 725 289 208 726 291 209 727 288 201 728 289 208 729 293 4 730 292 4 731 294 210 732 289 211 733 292 0 734 295 0 735 290 212 736 294 210 737 291 59 738 295 59 739 296 59 740 296 3 741 297 213 742 291 214 743 288 215 744 297 213 745 293 3 746 299 216 747 301 217 748 298 218 749 299 216 750 303 4 751 302 4 752 304 0 753 299 0 754 302 0 755 305 0 756 300 0 757 304 0 758 301 59 759 305 59 760 306 59 761 306 3 762 307 3 763 301 3 764 298 3 765 307 3 766 303 3 767 309 1 768 311 1 769 308 1 770 308 219 771 313 220 772 309 221 773 312 222 774 308 219 775 314 223 776 311 224 777 314 223 778 308 219 779 311 224 780 316 225 781 315 226 782 310 227 783 316 225 784 311 224 785 317 228 786 310 227 787 318 229 788 309 221 789 318 229 790 310 227 791 309 221 792 313 220 793 319 230 794 320 231 795 319 230 796 313 220 797 320 231 798 322 232 799 321 157 800 322 232 801 324 233 802 323 234 803 326 235 804 328 236 805 325 237 806 327 238 807 326 235 808 329 155 809 323 234 810 329 155 811 326 235 812 323 234 813 324 233 814 330 147 815 312 222 816 330 147 817 324 233 818 327 238 819 315 226 820 316 225 821 317 228 822 331 156 823 328 236 824 325 237 825 328 236 826 331 156 827 325 237 828 321 157 829 322 232 830 325 59 831 323 59 832 326 59 833 316 3 834 328 3 835 327 3 836 333 239 837 335 240 838 332 239 839 333 239 840 337 4 841 336 4 842 338 241 843 333 242 844 336 0 845 339 0 846 334 243 847 338 241 848 335 59 849 339 59 850 340 59 851 340 3 852 341 3 853 335 3 854 332 3 855 341 3 856 337 3 857 343 244 858 345 245 859 342 246 860 343 244 861 347 4 862 346 4 863 348 247 864 343 248 865 346 0 866 349 0 867 344 249 868 348 247 869 345 59 870 349 59 871 350 59 872 350 3 873 351 3 874 345 3 875 342 3 876 351 3 877 347 3 878 353 1 879 355 1 880 352 1 881 352 250 882 357 251 883 353 252 884 352 250 885 358 253 886 356 254 887 355 255 888 358 253 889 352 250 890 359 256 891 355 255 892 360 257 893 354 258 894 360 257 895 355 255 896 354 258 897 362 259 898 361 260 899 353 252 900 362 259 901 354 258 902 363 261 903 353 252 904 357 251 905 363 261 906 365 147 907 364 262 908 366 263 909 364 262 910 365 147 911 367 150 912 364 262 913 366 263 914 366 263 915 370 155 916 369 264 917 371 265 918 369 264 919 370 155 920 369 264 921 373 266 922 372 267 923 359 256 924 374 156 925 373 266 926 372 267 927 373 266 928 374 156 929 372 267 930 375 157 931 367 150 932 368 268 933 367 150 934 375 157 935 368 268 936 361 260 937 362 259 938 371 265 939 356 254 940 358 253 941 366 59 942 372 59 943 367 59 944 359 3 945 371 3 946 358 3 947 377 269 948 379 270 949 376 271 950 377 269 951 381 2 952 380 2 953 382 272 954 377 273 955 380 3 956 383 3 957 378 274 958 382 272 959 379 59 960 383 59 961 384 59 962 384 0 963 385 0 964 379 0 965 376 0 966 385 0 967 381 0 968 387 244 969 389 245 970 386 246 971 387 244 972 391 4 973 390 4 974 392 275 975 387 276 976 390 0 977 393 0 978 388 277 979 392 275 980 389 59 981 393 59 982 394 59 983 394 3 984 395 3 985 389 3 986 386 3 987 395 3 988 391 3 989 397 1 990 399 1 991 396 1 992 396 278 993 401 279 994 397 280 995 396 278 996 402 281 997 400 282 998 399 283 999 402 281 1000 396 278 1001 403 284 1002 399 283 1003 404 285 1004 398 286 1005 404 285 1006 399 283 1007 398 286 1008 406 287 1009 405 288 1010 397 280 1011 406 287 1012 398 286 1013 407 289 1014 397 280 1015 401 279 1016 407 289 1017 409 290 1018 408 291 1019 410 150 1020 408 291 1021 409 290 1022 411 267 1023 408 291 1024 410 150 1025 412 292 1026 411 267 1027 413 266 1028 414 264 1029 413 266 1030 411 267 1031 414 264 1032 416 293 1033 415 294 1034 417 263 1035 416 293 1036 414 264 1037 418 295 1038 417 263 1039 419 296 1040 410 150 1041 419 296 1042 417 263 1043 418 295 1044 400 282 1045 402 281 1046 403 284 1047 415 294 1048 416 293 1049 412 292 1050 405 288 1051 406 287 1052 413 3 1053 404 3 1054 405 3 1055 1 0 1056 2 0 1057 3 0 1058 5 1 1059 6 1 1060 7 1 1061 8 2 1062 9 2 1063 5 2 1064 10 3 1065 8 3 1066 4 3 1067 6 4 1068 11 4 1069 10 4 1070 9 3 1071 5 3 1072 6 3 1073 8 1 1074 9 1 1075 11 1 1076 8 3 1077 10 3 1078 13 3 1079 14 2 1080 15 2 1081 9 2 1082 9 2 1083 15 2 1084 16 2 1085 18 5 1086 15 297 1087 14 6 1088 16 8 1089 15 297 1090 18 5 1091 21 9 1092 18 3 1093 17 10 1094 19 3 1095 18 3 1096 21 9 1097 19 3 1098 22 3 1099 24 12 1100 25 3 1101 26 3 1102 27 14 1103 27 14 1104 26 3 1105 23 13 1106 25 3 1107 28 3 1108 20 11 1109 30 15 1110 21 23 1111 20 16 1112 32 18 1113 33 18 1114 34 19 1115 33 18 1116 32 18 1117 36 21 1118 21 23 1119 30 15 1120 37 24 1121 39 26 1122 24 28 1123 22 25 1124 41 30 1125 42 32 1126 40 29 1127 44 33 1128 36 21 1129 43 31 1130 38 27 1131 37 24 1132 35 22 1133 46 34 1134 47 34 1135 48 35 1136 27 37 1137 49 37 1138 50 38 1139 49 37 1140 27 37 1141 24 28 1142 47 34 1143 46 34 1144 42 32 1145 52 40 1146 20 16 1147 28 39 1148 54 42 1149 48 35 1150 31 20 1151 51 41 1152 50 38 1153 45 36 1154 53 43 1155 34 19 1156 29 17 1157 33 4 1158 30 4 1159 29 4 1160 30 4 1161 33 4 1162 35 4 1163 55 0 1164 56 0 1165 32 0 1166 32 0 1167 56 0 1168 57 0 1169 58 0 1170 43 0 1171 36 0 1172 47 0 1173 59 0 1174 60 0 1175 58 0 1176 59 0 1177 47 0 1178 55 0 1179 31 0 1180 48 0 1181 61 44 1182 62 34 1183 56 34 1184 56 34 1185 62 34 1186 63 46 1187 65 2 1188 62 2 1189 61 2 1190 62 2 1191 65 2 1192 66 2 1193 16 1 1194 67 1 1195 6 1 1196 23 47 1197 67 47 1198 16 48 1199 57 50 1200 63 50 1201 68 51 1202 68 1 1203 63 1 1204 66 1 1205 70 4 1206 71 4 1207 68 4 1208 71 4 1209 70 4 1210 73 4 1211 59 18 1212 71 18 1213 72 52 1214 68 54 1215 71 18 1216 59 18 1217 49 2 1218 46 2 1219 45 2 1220 46 2 1221 49 2 1222 40 2 1223 74 55 1224 75 298 1225 26 56 1226 26 56 1227 75 298 1228 67 58 1229 11 4 1230 75 4 1231 74 4 1232 75 4 1233 11 4 1234 6 4 1235 74 59 1236 14 59 1237 12 59 1238 17 60 1239 14 299 1240 74 61 1241 53 1 1242 52 1 1243 51 1 1244 60 63 1245 72 300 1246 61 64 1247 61 59 1248 72 59 1249 73 59 1250 77 66 1251 78 301 1252 79 67 1253 77 66 1254 76 68 1255 81 2 1256 82 3 1257 78 3 1258 77 3 1259 79 59 1260 78 59 1261 83 59 1262 76 71 1263 79 70 1264 85 69 1265 87 72 1266 88 302 1267 89 73 1268 87 72 1269 86 74 1270 91 2 1271 92 3 1272 88 3 1273 87 3 1274 89 59 1275 88 59 1276 93 59 1277 86 0 1278 89 0 1279 95 0 1280 97 75 1281 98 303 1282 99 76 1283 97 75 1284 96 77 1285 101 2 1286 102 78 1287 98 80 1288 97 79 1289 99 59 1290 98 59 1291 103 59 1292 96 83 1293 99 82 1294 105 81 1295 107 84 1296 108 304 1297 109 85 1298 107 84 1299 106 86 1300 111 4 1301 112 87 1302 108 89 1303 107 88 1304 109 59 1305 108 59 1306 113 59 1307 106 92 1308 109 91 1309 115 90 1310 117 93 1311 118 305 1312 119 94 1313 117 93 1314 116 95 1315 121 2 1316 122 96 1317 118 98 1318 117 97 1319 119 59 1320 118 59 1321 123 59 1322 116 101 1323 119 100 1324 125 99 1325 127 102 1326 128 306 1327 129 103 1328 127 102 1329 126 104 1330 131 2 1331 132 105 1332 128 107 1333 127 106 1334 129 59 1335 128 59 1336 133 59 1337 126 0 1338 129 0 1339 135 0 1340 137 1 1341 138 1 1342 139 1 1343 136 108 1344 140 112 1345 141 109 1346 139 113 1347 143 114 1348 142 111 1349 138 116 1350 145 118 1351 144 115 1352 137 110 1353 147 119 1354 146 117 1355 147 119 1356 141 109 1357 149 120 1358 151 123 1359 152 131 1360 148 121 1361 150 122 1362 149 120 1363 154 124 1364 153 125 1365 155 126 1366 157 127 1367 155 126 1368 154 124 1369 140 112 1370 143 114 1371 144 115 1372 158 129 1373 156 128 1374 158 129 1375 159 130 1376 152 131 1377 159 130 1378 145 118 1379 150 59 1380 153 59 1381 156 59 1382 155 3 1383 142 3 1384 143 3 1385 161 132 1386 162 133 1387 163 133 1388 161 132 1389 160 134 1390 165 2 1391 166 3 1392 162 3 1393 161 3 1394 163 59 1395 162 59 1396 167 59 1397 160 0 1398 163 0 1399 169 0 1400 171 1 1401 172 1 1402 173 1 1403 170 135 1404 174 139 1405 175 136 1406 173 140 1407 177 141 1408 176 138 1409 172 143 1410 179 145 1411 178 142 1412 171 137 1413 181 146 1414 180 144 1415 181 146 1416 175 136 1417 183 147 1418 185 150 1419 186 158 1420 182 148 1421 188 151 1422 189 154 1423 190 152 1424 184 149 1425 183 147 1426 191 155 1427 189 154 1428 191 155 1429 174 139 1430 177 141 1431 178 142 1432 192 156 1433 187 153 1434 192 156 1435 193 157 1436 186 158 1437 193 157 1438 179 145 1439 187 59 1440 185 59 1441 184 59 1442 189 3 1443 176 3 1444 177 3 1445 195 59 1446 196 59 1447 197 59 1448 194 159 1449 198 162 1450 199 160 1451 197 164 1452 201 166 1453 200 163 1454 196 167 1455 203 168 1456 202 165 1457 195 161 1458 205 170 1459 204 169 1460 206 171 1461 207 182 1462 205 170 1463 198 162 1464 200 163 1465 209 172 1466 211 175 1467 206 171 1468 208 173 1469 210 174 1470 209 172 1471 213 176 1472 212 177 1473 214 178 1474 216 179 1475 203 168 1476 204 169 1477 217 181 1478 215 180 1479 217 181 1480 207 182 1481 214 178 1482 213 176 1483 201 166 1484 199 3 1485 198 3 1486 208 3 1487 210 1 1488 212 1 1489 215 1 1490 219 183 1491 220 307 1492 221 184 1493 219 183 1494 218 185 1495 223 4 1496 224 186 1497 220 188 1498 219 187 1499 221 59 1500 220 59 1501 225 59 1502 218 3 1503 221 3 1504 227 3 1505 229 102 1506 230 308 1507 231 189 1508 229 102 1509 228 102 1510 233 2 1511 234 3 1512 230 3 1513 229 3 1514 231 59 1515 230 59 1516 235 59 1517 228 0 1518 231 0 1519 237 0 1520 239 190 1521 240 309 1522 241 191 1523 239 190 1524 238 192 1525 243 4 1526 244 193 1527 240 195 1528 239 194 1529 241 59 1530 240 59 1531 245 59 1532 238 198 1533 241 197 1534 247 196 1535 249 199 1536 250 310 1537 251 200 1538 249 199 1539 248 201 1540 253 4 1541 254 0 1542 250 0 1543 249 0 1544 251 59 1545 250 59 1546 255 59 1547 248 3 1548 251 3 1549 257 3 1550 259 75 1551 260 303 1552 261 76 1553 259 75 1554 258 77 1555 263 2 1556 264 202 1557 260 204 1558 259 203 1559 261 59 1560 260 59 1561 265 59 1562 258 83 1563 261 82 1564 267 81 1565 269 183 1566 270 307 1567 271 184 1568 269 183 1569 268 185 1570 273 4 1571 274 205 1572 270 207 1573 269 206 1574 271 59 1575 270 59 1576 275 59 1577 268 3 1578 271 3 1579 277 3 1580 279 66 1581 280 301 1582 281 67 1583 279 66 1584 278 68 1585 283 2 1586 284 3 1587 280 3 1588 279 3 1589 281 59 1590 280 59 1591 285 59 1592 278 71 1593 281 70 1594 287 69 1595 289 208 1596 290 311 1597 291 209 1598 289 208 1599 288 201 1600 293 4 1601 294 210 1602 290 212 1603 289 211 1604 291 59 1605 290 59 1606 295 59 1607 288 215 1608 291 214 1609 297 213 1610 299 216 1611 300 217 1612 301 217 1613 299 216 1614 298 218 1615 303 4 1616 304 0 1617 300 0 1618 299 0 1619 301 59 1620 300 59 1621 305 59 1622 298 3 1623 301 3 1624 307 3 1625 309 1 1626 310 1 1627 311 1 1628 308 219 1629 312 222 1630 313 220 1631 311 224 1632 315 226 1633 314 223 1634 310 227 1635 317 228 1636 316 225 1637 309 221 1638 319 230 1639 318 229 1640 320 231 1641 321 157 1642 319 230 1643 322 232 1644 320 231 1645 324 233 1646 326 235 1647 327 238 1648 328 236 1649 323 234 1650 330 147 1651 329 155 1652 312 222 1653 314 223 1654 330 147 1655 327 238 1656 329 155 1657 315 226 1658 317 228 1659 318 229 1660 331 156 1661 325 237 1662 331 156 1663 321 157 1664 325 59 1665 322 59 1666 323 59 1667 316 3 1668 317 3 1669 328 3 1670 333 239 1671 334 312 1672 335 240 1673 333 239 1674 332 239 1675 337 4 1676 338 241 1677 334 243 1678 333 242 1679 335 59 1680 334 59 1681 339 59 1682 332 3 1683 335 3 1684 341 3 1685 343 244 1686 344 313 1687 345 245 1688 343 244 1689 342 246 1690 347 4 1691 348 247 1692 344 249 1693 343 248 1694 345 59 1695 344 59 1696 349 59 1697 342 3 1698 345 3 1699 351 3 1700 353 1 1701 354 1 1702 355 1 1703 352 250 1704 356 254 1705 357 251 1706 355 255 1707 359 256 1708 358 253 1709 354 258 1710 361 260 1711 360 257 1712 353 252 1713 363 261 1714 362 259 1715 363 261 1716 357 251 1717 365 147 1718 367 150 1719 368 268 1720 364 262 1721 366 263 1722 365 147 1723 370 155 1724 369 264 1725 371 265 1726 373 266 1727 359 256 1728 360 257 1729 374 156 1730 372 267 1731 374 156 1732 375 157 1733 368 268 1734 375 157 1735 361 260 1736 371 265 1737 370 155 1738 356 254 1739 366 59 1740 369 59 1741 372 59 1742 359 3 1743 373 3 1744 371 3 1745 377 269 1746 378 314 1747 379 270 1748 377 269 1749 376 271 1750 381 2 1751 382 272 1752 378 274 1753 377 273 1754 379 59 1755 378 59 1756 383 59 1757 376 0 1758 379 0 1759 385 0 1760 387 244 1761 388 313 1762 389 245 1763 387 244 1764 386 246 1765 391 4 1766 392 275 1767 388 277 1768 387 276 1769 389 59 1770 388 59 1771 393 59 1772 386 3 1773 389 3 1774 395 3 1775 397 1 1776 398 1 1777 399 1 1778 396 278 1779 400 282 1780 401 279 1781 399 283 1782 403 284 1783 402 281 1784 398 286 1785 405 288 1786 404 285 1787 397 280 1788 407 289 1789 406 287 1790 407 289 1791 401 279 1792 409 290 1793 411 267 1794 412 292 1795 408 291 1796 414 264 1797 415 294 1798 413 266 1799 417 263 1800 418 295 1801 416 293 1802 410 150 1803 409 290 1804 419 296 1805 418 295 1806 419 296 1807 400 282 1808 403 284 1809 404 285 1810 415 294 1811 412 292 1812 413 266 1813 405 288 1814 413 3 1815 415 3 1816 404 3 1817</p>
        </polylist>
      </mesh>
    </geometry>
  </library_geometries>
  <library_controllers/>
  <library_visual_scenes>
    <visual_scene id="Scene" name="Scene">
      <node id="Mesh9_Group13_Group1_Model" name="Mesh9_Group13_Group1_Model" type="NODE">
        <matrix sid="transform">1 0 0 0 0 -1.62921e-7 -1 0 0 1 -1.62921e-7 0 0 0 0 1</matrix>
        <instance_geometry url="#Mesh9_Group13_Group1_Model-mesh" name="Mesh9_Group13_Group1_Model">
          <bind_material>
            <technique_common>
              <instance_material symbol="FrontColor-material" target="#FrontColor-material">
                <bind_vertex_input semantic="UVMap" input_semantic="TEXCOORD" input_set="0"/>
              </instance_material>
            </technique_common>
          </bind_material>
        </instance_geometry>
      </node>
    </visual_scene>
  </library_visual_scenes>
  <scene>
    <instance_visual_scene url="#Scene"/>
  </scene>
</COLLADA>