<?xml version="1.0" encoding="utf-8"?>
<COLLADA xmlns="http://www.collada.org/2005/11/COLLADASchema" version="1.4.1">
  <asset>
    <contributor>
      <author>Blender User</author>
      <authoring_tool>Blender 2.78.0 commit date:2016-10-24, commit time:12:20, hash:e8299c8</authoring_tool>
    </contributor>
    <created>2021-10-27T17:17:13</created>
    <modified>2021-10-27T17:17:13</modified>
    <unit name="meter" meter="1"/>
    <up_axis>Z_UP</up_axis>
  </asset>
  <library_images>
    <image id="video_store_shelf_small__color_png" name="video_store_shelf_small__color_png">
      <init_from>/I:/3D_Asset_Packages/For%20Sale/Video_Store/Shelf_Small/Model/video_store_shelf_small__color.png</init_from>
    </image>
  </library_images>
  <library_effects>
    <effect id="FrontColor-effect">
      <profile_COMMON>
        <newparam sid="video_store_shelf_small__color_png-surface">
          <surface type="2D">
            <init_from>video_store_shelf_small__color_png</init_from>
          </surface>
        </newparam>
        <newparam sid="video_store_shelf_small__color_png-sampler">
          <sampler2D>
            <source>video_store_shelf_small__color_png-surface</source>
          </sampler2D>
        </newparam>
        <technique sid="common">
          <phong>
            <emission>
              <color sid="emission">0 0 0 1</color>
            </emission>
            <ambient>
              <color sid="ambient">0 0 0 1</color>
            </ambient>
            <diffuse>
              <texture texture="video_store_shelf_small__color_png-sampler" texcoord="UVMap"/>
            </diffuse>
            <specular>
              <color sid="specular">1 1 1 1</color>
            </specular>
            <shininess>
              <float sid="shininess">52</float>
            </shininess>
            <transparent opaque="A_ONE">
              <color>1 1 1 1</color>
            </transparent>
            <index_of_refraction>
              <float sid="index_of_refraction">1</float>
            </index_of_refraction>
          </phong>
        </technique>
      </profile_COMMON>
    </effect>
  </library_effects>
  <library_materials>
    <material id="FrontColor-material" name="FrontColor">
      <instance_effect url="#FrontColor-effect"/>
    </material>
  </library_materials>
  <library_geometries>
    <geometry id="Mesh14_Group19_Group18_Group1_Model-mesh" name="Mesh14_Group19_Group18_Group1_Model">
      <mesh>
        <source id="Mesh14_Group19_Group18_Group1_Model-mesh-positions">
          <float_array id="Mesh14_Group19_Group18_Group1_Model-mesh-positions-array" count="843">-0.7 1.13 0.05181598 -0.7 1.13608 0.09797799 0.7 1.13608 0.09797799 0.7 1.13 0.05181598 -0.7 1.13522 0.09909999 0.7 1.13522 0.09909999 0.7 1.11737 0.10145 -0.7 1.11737 0.10145 -0.7 1.11625 0.100589 0.7 1.11625 0.100589 -0.7 1.11008 0.05375599 0.7 1.11008 0.05375599 0.7 1.36 -0.02937597 0.7 1.13 -0.05181497 -0.7 1.13 -0.05181497 -0.7 1.36 -0.02937597 -0.7 0.616224 -0.141525 0.7 0.616224 -0.141525 0.7 0.615102 -0.140664 -0.7 0.615102 -0.140664 0.7 0.63407 -0.1391749 -0.7 0.63407 -0.1391749 -0.7 0.634931 -0.1380529 0.7 0.634931 -0.1380529 -0.7 0.63 -0.100596 0.7 0.63 -0.100596 -0.7 0.610083 -0.102536 0.7 0.610083 -0.102536 0.701 0 0.25 0.719 0 0.25 0.719 1.399 0.120093 0.701 1.399 0.120093 0.72 0 0.248996 0.72 1.399 0.119089 0.74 0 0.198372 0.74 1.399 0.06846499 0.739 1.399 0.06946998 0.739 0 0.199376 0.74 1.399 -0.06846499 0.74 0 -0.198372 0.739 0 -0.199376 0.739 1.399 -0.06946897 0.719 0 -0.25 0.719 1.399 -0.120093 0.72 1.399 -0.119089 0.72 0 -0.248996 0.7 0 -0.248996 0.7 1.399 -0.119089 0.701 1.399 -0.120093 0.701 0 -0.25 0.701 1.4 0.118996 0.701 1.4 -0.118996 0.7 1.399 0.119089 0.719 1.4 -0.06837195 0.739 1.4 -0.06837195 0.721 1.399 -0.06946897 0.739 1.4 0.06837195 0.719 1.4 0.06837195 0.721 1.399 0.06946998 0.72 1.399 0.07047396 0.719 1.4 0.118996 0.7 0 0.248996 0.72 1.399 -0.07047295 0.719 1.4 -0.118996 0.72 0 0.200381 0.721 0 0.199376 0.721 0 -0.199376 0.72 0 -0.200381 0.7 1.36 -0.02937597 0.7 1.38 -0.02742499 0.7 0 -0.162059 0.7 1.38 0.027426 0.7 1.36 0.02937698 0.7 0 0.162059 -0.7 0.88 0.07620596 -0.7 0.885504 0.118016 0.7 0.885504 0.118016 0.7 0.88 0.07620596 -0.7 0.884643 0.119138 0.7 0.884643 0.119138 -0.7 0.866797 0.121487 0.7 0.866797 0.121487 -0.7 0.865675 0.120626 0.7 0.865675 0.120626 -0.7 0.860083 0.07814598 0.7 0.860083 0.07814598 0.7 0.1299999 0.149376 0.7 0.360095 0.126937 -0.7 0.360095 0.126937 -0.7 0.1299999 0.149376 -0.7 1.36 0.02937698 -0.7 1.13 0.05181598 0.7 1.13 0.05181598 0.7 1.36 0.02937698 -0.7 0.63 -0.100596 -0.7 0.860083 -0.078157 0.7 0.860083 -0.078157 0.7 0.63 -0.100596 0.7 0.112419 0.169376 -0.7 0.112419 0.169376 -0.7 0 0.169376 0.7 0 0.169376 -0.7 0.38 -0.124986 -0.7 0.610083 -0.102547 0.7 0.610083 -0.102547 0.7 0.38 -0.124986 -0.7 0.360083 -0.126927 -0.7 0.365835 -0.170616 0.7 0.365835 -0.170616 0.7 0.360083 -0.126927 -0.7 0.366957 -0.171477 0.7 0.366957 -0.171477 0.7 0.384803 -0.169127 -0.7 0.384803 -0.169127 -0.7 0.385664 -0.168005 0.7 0.385664 -0.168005 -0.7 0.38 -0.124986 0.7 0.38 -0.124986 0.7 0.115262 -0.190653 -0.7 0.115262 -0.190653 -0.7 0.116384 -0.191514 0.7 0.116384 -0.191514 -0.7 0.112419 -0.169058 0.7 0.112419 -0.169058 -0.7 0.13423 -0.1891649 0.7 0.13423 -0.1891649 -0.7 0.135091 -0.1880429 0.7 0.135091 -0.1880429 -0.7 0.1299999 -0.149376 0.7 0.1299999 -0.149376 -0.7 0.13423 0.1891649 -0.7 0.116384 0.191514 0.7 0.116384 0.191514 0.7 0.13423 0.1891649 -0.7 0.115262 0.190653 0.7 0.115262 0.190653 -0.7 0.112419 0.169058 0.7 0.112419 0.169058 0.7 0.135091 0.1880429 -0.7 0.135091 0.1880429 -0.7 0.1299999 0.149376 0.7 0.1299999 0.149376 -0.7 1.11028 0.05376696 -0.7 0.88 0.07620596 0.7 0.88 0.07620596 0.7 1.11028 0.05376696 -0.7 0.63 0.100596 -0.7 0.634931 0.1380529 0.7 0.634931 0.1380529 0.7 0.63 0.100596 -0.7 0.63407 0.1391749 0.7 0.63407 0.1391749 0.7 0.616224 0.141525 -0.7 0.616224 0.141525 -0.7 0.615102 0.140664 0.7 0.615102 0.140664 -0.7 0.610083 0.102536 0.7 0.610083 0.102536 -0.7 0.866797 -0.121487 0.7 0.866797 -0.121487 0.7 0.865675 -0.120626 -0.7 0.865675 -0.120626 -0.7 0.884643 -0.119138 0.7 0.884643 -0.119138 -0.7 0.885504 -0.118016 0.7 0.885504 -0.118016 -0.7 0.88 -0.07620596 0.7 0.88 -0.07620596 -0.7 0.860083 -0.07814598 0.7 0.860083 -0.07814598 -0.719 1.399 -0.120093 -0.701 1.399 -0.120093 -0.701 0 -0.25 -0.719 0 -0.25 -0.719 1.4 -0.118996 -0.701 1.4 -0.118996 -0.72 1.399 -0.119089 -0.72 0 -0.248996 -0.72 1.399 -0.07047295 -0.719 1.4 -0.06837195 -0.721 1.399 -0.06946897 -0.739 1.399 -0.06946897 -0.739 1.4 -0.06837195 -0.739 0 -0.199376 -0.74 0 -0.198372 -0.74 1.399 -0.06846499 -0.74 1.399 0.06846499 -0.739 1.4 0.06837195 -0.739 1.399 0.06946998 -0.721 1.399 0.06946998 -0.719 1.4 0.06837195 -0.739 0 0.199376 -0.74 0 0.198372 -0.72 1.399 0.07047396 -0.72 1.399 0.119089 -0.719 1.4 0.118996 -0.719 1.399 0.120093 -0.701 1.399 0.120093 -0.701 1.4 0.118996 -0.719 0 0.25 -0.72 0 0.248996 -0.701 0 0.25 -0.7 0 0.248996 -0.7 1.399 0.119089 -0.7 1.399 -0.119089 -0.7 0 -0.248996 -0.72 0 -0.200381 -0.721 0 -0.199376 -0.721 0 0.199376 -0.72 0 0.200381 -0.7 0 0.162059 -0.7 0.1299999 0.149376 -0.7 1.36 0.02937698 -0.7 1.38 0.027426 -0.7 1.38 -0.02742499 -0.7 1.36 -0.02937597 -0.7 0 -0.162059 -0.7 0.88 -0.07620596 -0.7 1.11008 -0.05376696 0.7 1.11008 -0.05376696 0.7 0.88 -0.07620596 -0.7 0.112419 -0.169376 0.7 0.112419 -0.169376 0.7 0 -0.169376 -0.7 0 -0.169376 0.7 1.13522 -0.09909999 -0.7 1.13522 -0.09909999 -0.7 1.13608 -0.09797799 0.7 1.13608 -0.09797799 0.7 1.11737 -0.10145 -0.7 1.11737 -0.10145 0.7 1.11625 -0.100589 -0.7 1.11625 -0.100589 -0.7 1.11008 -0.05375599 0.7 1.11008 -0.05375599 -0.7 1.13 -0.05181497 0.7 1.13 -0.05181497 -0.7 0.384803 0.169127 0.7 0.384803 0.169127 0.7 0.385664 0.168005 -0.7 0.385664 0.168005 0.7 0.366957 0.171477 -0.7 0.366957 0.171477 -0.7 0.365835 0.170616 0.7 0.365835 0.170616 -0.7 0.360083 0.126927 0.7 0.360083 0.126927 -0.7 0.38 0.124986 0.7 0.38 0.124986 -0.7 0.86044 0.078157 -0.7 0.63 0.100596 0.7 0.63 0.100596 0.7 0.86044 0.078157 -0.7 0.610097 0.102547 -0.7 0.38 0.124986 0.7 0.38 0.124986 0.7 0.610097 0.102547 -0.7 0.1299999 -0.149376 -0.7 0.360083 -0.126937 0.7 0.360083 -0.126937 0.7 0.1299999 -0.149376 -0.7 1.38 -0.068376 -0.7 1.38 0.06837695 0.7 1.38 0.06837695 0.7 1.38 -0.068376 -0.7 1.379 0.069377 0.7 1.379 0.069377 0.7 1.361 0.069377 -0.7 1.361 0.069377 -0.7 1.36 0.06837695 0.7 1.36 0.06837695 0.7 1.36 0.02937698 -0.7 1.36 0.02937698 0.7 1.379 -0.06937599 -0.7 1.379 -0.06937599 -0.7 1.361 -0.06937599 0.7 1.361 -0.06937599 0.7 1.36 -0.068376 -0.7 1.36 -0.068376 -0.7 1.36 -0.02937597 0.7 1.36 -0.02937597</float_array>
          <technique_common>
            <accessor source="#Mesh14_Group19_Group18_Group1_Model-mesh-positions-array" count="281" stride="3">
              <param name="X" type="float"/>
              <param name="Y" type="float"/>
              <param name="Z" type="float"/>
            </accessor>
          </technique_common>
        </source>
        <source id="Mesh14_Group19_Group18_Group1_Model-mesh-normals">
          <float_array id="Mesh14_Group19_Group18_Group1_Model-mesh-normals-array" count="933">0 0.9914379 -0.1305791 0 0.991437 -0.130586 0 0.991438 -0.130579 0 0.7936708 0.6083476 0 0.7936707 0.6083476 0 0.1305248 0.9914451 0 0.1305272 0.9914447 0 0.1305248 0.9914451 0 -0.6093956 0.7928664 0 -0.6095702 0.7927321 0 -0.6095703 0.792732 0 -0.9914332 0.1306147 0 -0.9914328 0.1306181 0 -0.9914333 0.1306146 0 0.09709984 -0.9952747 0 0.09709984 -0.9952747 0 -0.6087844 -0.7933357 0 -0.6087844 -0.7933358 0 0.1305554 -0.991441 0 0.1305554 -0.9914411 0 0.7933217 -0.6088026 0 0.7932928 -0.6088405 0 0.7932927 -0.6088405 0 0.9914457 0.1305205 0 0.991446 0.1305184 0 0.9914457 0.1305206 0 -0.9914472 -0.1305088 0 -0.9914469 -0.1305109 0 -0.9914472 -0.1305088 0 0.09245902 0.9957165 0 0.09245955 0.9957165 0 0.09245902 0.9957165 0.4674135 0.5227664 0.7129096 0.7069807 0.0653916 0.7042033 0.7253851 0.50878 0.4636371 0.7070021 0.06538975 0.704182 0.4673926 0.522512 0.7131097 0.7070018 0.06538975 0.7041823 0.7070018 0.06538975 -0.7041823 0.467213 0.5224418 -0.7132789 0.7251144 0.5089347 -0.4638906 0.4672143 0.5224431 -0.713277 0.7069807 0.0653916 -0.7042033 -0.7070018 0.06538975 -0.7041823 -0.4673326 0.5226522 -0.7130463 -0.467248 0.7584799 -0.4542989 -0.7251501 0.5088878 0.4638866 -0.4673337 0.7583772 0.4543823 0.4672806 0.7584153 -0.4543734 0.1523441 0.8527668 -0.4995799 0.365898 0.8609918 -0.3532873 0.4674178 0.7583072 0.4544129 0.7254836 0.5087242 0.4635443 0.152293 0.8529123 0.4993472 0.3658589 0.8610842 0.3531025 0.5196896 0.8406113 0.1526285 0.4672833 0.7585288 0.4541811 -0.4672189 0.5224248 0.7132874 -0.7070018 0.06538975 0.7041823 0.5197415 0.8405725 -0.152666 0.4673776 0.7582525 -0.4545453 0.725346 0.5087428 -0.4637391 -0.725347 0.5087506 -0.463729 1 0 0 1 0 0 1 0 0 0.7070096 0.06538903 0.7041746 0.707354 0.06535577 0.7038316 0.7070093 0.06538909 0.7041748 0 0.09245842 0.9957166 1 0 0 1 0 0 0 0.09245902 -0.9957165 0 0.09245955 -0.9957165 0 0.09245902 -0.9957165 0.7070091 0.06539654 -0.7041743 0.7073544 0.06534826 -0.703832 0.7073546 0.06534826 -0.7038317 -1 5.80589e-7 0 -1 0 0 -1 3.1902e-6 0 -1 -8.54813e-7 0 -1 4.93455e-7 0 -1 -9.46183e-6 0 -1 -2.66495e-7 0 -1 0 0 0 1 0 0 0.9914459 -0.1305184 0 0.9914464 -0.1305146 0 0.9914459 -0.1305186 0 0.7933818 0.6087242 0 0.7933237 0.6088 0 0.7933238 0.6088001 0 0.1305005 0.9914483 0 0.1304993 0.9914484 0 0.1305005 0.9914484 0 -0.6088102 0.793316 0 -0.6087521 0.7933605 0 -0.6087521 0.7933606 0 -0.9914469 0.1305111 0 -0.9914464 0.1305149 0 -0.9914469 0.130511 0 0.09706014 0.9952785 0 0.09706014 0.9952786 0 0.09709984 0.9952747 0 0.09709984 0.9952746 0 0.09706515 -0.9952781 0 0.09706521 -0.9952781 0 0 1 0 -0.9914442 -0.1305318 0 -0.9914445 -0.1305299 0 -0.9914441 -0.1305318 0 0.7933508 -0.6087647 0 0.7933219 -0.6088026 0 0.9914437 0.1305356 0 -0.6087917 -0.7933302 0 -0.6087917 -0.7933301 0 -0.9914451 -0.1305252 0 -0.9914452 -0.1305242 0 -0.991445 -0.1305252 0 0.1305007 -0.9914483 0 0.1305006 -0.9914483 0 0.7933291 -0.6087931 0 0.7933363 -0.6087837 0 0.7933364 -0.6087837 0 0.9914436 0.1305361 0 0.9914436 0.1305361 0 0.1305006 0.9914483 0 0.1305007 0.9914483 0 0.1305006 0.9914482 0 -0.6087917 0.7933302 0 -0.6087917 0.7933301 0 -0.9914452 0.1305242 0 -0.9914451 0.1305252 0 0.7933291 0.6087931 0 0.7933363 0.6087837 0 0.7933364 0.6087837 0 0.9914436 -0.1305361 0 0.9914436 -0.1305361 0 0.09698289 0.9952861 0 0.09698289 0.9952861 0 0.991446 -0.1305184 0 0.9914457 -0.1305205 0 0.991446 -0.1305184 0 0.7933217 0.6088026 0 0.7932928 0.6088405 0 0.7932927 0.6088405 0 0.1305554 0.991441 0 0.1305554 0.9914411 0 -0.6087844 0.7933357 0 -0.6087844 0.7933358 0 -0.9914469 0.1305109 0 -0.9914472 0.1305088 0 -0.991447 0.130511 0 -0.6088102 -0.793316 0 -0.6087521 -0.7933605 0 -0.6087521 -0.7933606 0 0.1304993 -0.9914484 0 0.1305005 -0.9914483 0 0.1304993 -0.9914484 0 0.7933818 -0.6087242 0 0.7933237 -0.6088 0 0.7933238 -0.6088001 0 0.9914464 0.1305146 0 0.9914459 0.1305184 0 0.9914465 0.1305146 0 -0.9914464 -0.1305149 0 -0.9914469 -0.1305111 0 -0.9914463 -0.1305149 -0.4673282 0.5226703 -0.7130358 0.4673308 0.7583788 -0.4543827 0.4672195 0.5224235 -0.7132879 -0.7253386 0.5087589 -0.4637332 -0.4672433 0.7584792 -0.454305 -0.7069807 0.0653916 -0.7042033 -0.5197083 0.840593 -0.1526654 -0.1523385 0.8527547 -0.4996024 -0.3658922 0.861003 -0.3532658 -0.4673997 0.7582359 -0.4545502 -0.467214 0.5224392 -0.7132801 -0.7070019 0.06538665 -0.7041825 -0.7253751 0.508714 -0.4637251 -0.7252242 0.5089452 0.4637076 -0.4674106 0.5225506 0.7130696 -0.4673007 0.758484 0.4542378 -0.1522964 0.8529061 0.4993567 -0.7070022 0.06538665 0.7041822 -0.7070019 0.06538665 0.7041825 -0.5197054 0.8406009 0.1526318 -0.4673876 0.7583212 0.4544203 -0.3658651 0.8610794 0.3531076 -0.467301 0.5225386 0.7131503 -0.7253764 0.5087909 0.4636388 0.4673332 0.5226511 0.7130467 -0.7069807 0.0653916 0.7042033 0.7070019 0.06538844 0.7041823 0.7253502 0.5087478 0.4637271 0.7070019 0.06538844 -0.7041823 0.7070019 0.06538844 -0.7041824 0.7251479 0.5088921 -0.4638852 0.4672527 0.7584763 0.4543002 -1 0 0 -1 0 0 -0.7073543 0.06534975 -0.7038319 -0.7070091 0.06539666 -0.7041742 -0.7073545 0.06534969 -0.7038317 -1 0 0 -1 0 0 -1 0 0 -0.707354 0.0653572 0.7038316 -0.7070097 0.06538712 0.7041746 -0.7070094 0.06538712 0.7041749 -1 0 0 -1 0 0 1 1.48426e-7 0 1 1.26464e-7 0 1 -6.43323e-7 0 1 2.13499e-6 0 1 -9.09975e-6 0 1 2.8563e-6 0 1 0 0 1 9.48021e-7 0 0 0.0970664 -0.995278 0 0.09706646 -0.995278 0 0.09706634 -0.995278 0 0 -1 0 0.7936708 -0.6083476 0 0.7936707 -0.6083476 0 0.1305272 -0.9914447 0 0.1305248 -0.9914451 0 0.1305273 -0.9914448 0 -0.6093956 -0.7928664 0 -0.6095702 -0.7927321 0 -0.6095703 -0.792732 0 -0.9914328 -0.1306181 0 -0.9914332 -0.1306147 0 -0.9914328 -0.1306182 0 0.9914374 0.1305832 0 0.9914383 0.1305763 0 0.9914374 0.1305834 0 0.7933508 0.6087647 0 0.7933219 0.6088026 0 -0.9914445 0.1305299 0 -0.9914442 0.1305318 0 -0.9914444 0.1305299 0 0.9914437 -0.1305356 0 0.09691625 0.9952926 0 0.09691613 0.9952926 0 0.09691625 0.9952926 0 0.0970593 0.9952786 0 0.0970593 0.9952786 0 0.09706515 -0.9952781 0 0.7070463 0.7071673 0 0.7071666 0.7070471 0 0.7071667 0.707047 0 -0.7071666 0.7070471 0 -0.7071065 0.7071071 0 -0.7071064 0.7071072 0 -1 0 0 0.707049 -0.7071647 0 0.7071692 -0.7070444 0 0.7071693 -0.7070444 0 -0.7071692 -0.7070444 0 -0.7071091 -0.7071045 0 -0.7071091 -0.7071046 0 0.991437 -0.1305862 0 0.1305273 0.9914448 0 -0.6093955 0.7928665 0 -0.9914328 0.1306182 0 0.991446 0.1305184 0 -0.991447 -0.130511 1 0 0 0.7073543 0.06535571 0.7038314 0 0.09245842 0.9957165 1 0 0 0.7070089 0.06539654 -0.7041745 0 0.9914465 -0.1305146 0 0.7933819 0.6087242 0 0.1304993 0.9914484 0 -0.9914463 0.1305149 0 0.09706014 0.9952785 0 -0.9914444 -0.1305299 0 0.7933509 -0.6087647 0 0.1305006 -0.9914482 0 0.793329 -0.6087931 0 -0.991445 0.1305252 0 0.793329 0.6087931 0 0.9914457 -0.1305206 0 -0.9914472 0.1305088 0 0.1305005 -0.9914484 0 0.7933819 -0.6087242 0 0.9914459 0.1305186 0 -0.9914469 -0.130511 0.7070019 0.06538844 0.7041824 -0.707009 0.06539672 -0.7041745 -0.7073541 0.0653572 0.7038313 1 1.64809e-7 0 1 0 0 0 0.09706646 -0.995278 0 0.1305248 -0.9914451 0 -0.6093955 -0.7928665 0 -0.9914333 -0.1306146 0 0.9914383 0.1305762 0 0.7933509 0.6087647 0 -0.9914441 0.1305318 0 0.09691613 0.9952926 0 0.09706515 -0.9952781 0 0.7070462 0.7071674 0 -0.7071667 0.707047 0 0.7070489 -0.7071648 0 -0.7071693 -0.7070444</float_array>
          <technique_common>
            <accessor source="#Mesh14_Group19_Group18_Group1_Model-mesh-normals-array" count="311" stride="3">
              <param name="X" type="float"/>
              <param name="Y" type="float"/>
              <param name="Z" type="float"/>
            </accessor>
          </technique_common>
        </source>
        <source id="Mesh14_Group19_Group18_Group1_Model-mesh-map-0">
          <float_array id="Mesh14_Group19_Group18_Group1_Model-mesh-map-0-array" count="1674">0.004999995 0.3684 0.01687598 0.725493 0.01687598 0.3684 0.803736 0.1750209 0.446644 0.17524 0.446644 0.1750209 0.803736 0.1750209 0.446644 0.170468 0.803736 0.170468 0.446644 0.170468 0.803736 0.170182 0.803736 0.170468 0.359583 0.549878 0.347535 0.192786 0.347535 0.549878 0.201306 0.972396 0.1423619 0.615304 0.1423619 0.972396 0.446644 0.13844 0.803737 0.1387259 0.803737 0.13844 0.446644 0.13844 0.803737 0.133888 0.446644 0.133888 0.803737 0.133888 0.446644 0.133668 0.446644 0.133888 0.218071 0.972396 0.2084349 0.615304 0.2084349 0.972396 0.225822 0.615304 0.235631 0.972396 0.235631 0.615304 0.737205 0.625736 0.378833 0.630327 0.737205 0.630327 0.803482 0.04225498 0.446644 0.07513397 0.803482 0.04199898 0.39622 0.297715 0.753058 0.264837 0.39622 0.297971 0.39622 0.196519 0.753058 0.229398 0.753058 0.229654 0.803482 0.1146399 0.446644 0.081761 0.446644 0.081505 0.753058 0.431343 0.39622 0.398464 0.753058 0.431599 0.08352398 0.01394897 0.144251 0.01369398 0.144228 0.01394897 0.09643697 0.02364099 0.096156 0.01905 0.09643697 0.01853996 0.09643697 0.02364099 0.09641295 0.02389597 0.096156 0.02364099 0.1313149 0.02364099 0.09641295 0.02389597 0.09643697 0.02364099 0.131339 0.02389597 0.1313149 0.02364099 0.131595 0.02364099 0.1313149 0.02364099 0.131595 0.01905 0.131595 0.02364099 0.1313149 0.01853996 0.131851 0.01879495 0.131595 0.01905 0.144228 0.01853996 0.131851 0.01879495 0.1313149 0.01853996 0.144228 0.01853996 0.144507 0.01853996 0.144251 0.01879495 0.144228 0.01394897 0.144507 0.01853996 0.144228 0.01853996 0.144228 0.01394897 0.144251 0.01369398 0.144507 0.01394897 0.753058 0.304322 0.39622 0.337201 0.39622 0.337457 0.09590095 0.01879495 0.09643697 0.01853996 0.096156 0.01905 0.08352398 0.01853996 0.09590095 0.01879495 0.08349996 0.01879495 0.08324396 0.01853996 0.08352398 0.01853996 0.08349996 0.01879495 0.08352398 0.01853996 0.08324396 0.01394897 0.08352398 0.01394897 0.08349996 0.01369398 0.08352398 0.01394897 0.08324396 0.01394897 0.446644 0.062734 0.803482 0.04199898 0.446644 0.07513397 0.803482 0.02959895 0.446644 0.06247699 0.803482 0.02934294 0.820666 0.589222 0.462293 0.593813 0.820666 0.593813 0.39622 0.196519 0.753058 0.26458 0.39622 0.297715 0.805017 0.145839 0.446644 0.15043 0.805017 0.15043 0.803482 0.127297 0.446644 0.09441798 0.446644 0.09416097 0.446644 0.09416097 0.803482 0.1148959 0.803482 0.127297 0.805017 0.158011 0.446644 0.162602 0.805017 0.162602 0.39622 0.398208 0.753058 0.431343 0.406168 0.375326 0.39622 0.337457 0.401066 0.374828 0.401066 0.360837 0.39622 0.337457 0.406168 0.36034 0.753058 0.304322 0.08352398 0.01394897 0.09643697 0.01853996 0.08352398 0.01853996 0.1313149 0.01853996 0.144228 0.01394897 0.144228 0.01853996 0.09643697 0.01853996 0.1313149 0.02364099 0.09643697 0.02364099 0.02412599 0.3684 0.03488194 0.725493 0.03488194 0.3684 0.786349 0.190669 0.429257 0.190888 0.429257 0.190669 0.429257 0.1861169 0.786349 0.190669 0.429257 0.190669 0.429257 0.1861169 0.786349 0.185831 0.786349 0.1861169 0.05244195 0.725493 0.04151397 0.3684 0.04151397 0.725493 0.01717096 0.004999995 0.07613897 0.362092 0.07613897 0.004999995 0.336929 0.972396 0.277985 0.615304 0.277985 0.972396 0.07628899 0.615304 0.135254 0.972396 0.135254 0.615304 0.178876 0.565527 0.20755 0.2084349 0.178876 0.2084349 0.378833 0.637908 0.437797 0.995 0.437797 0.637908 0.253642 0.20148 0.264882 0.558572 0.264882 0.20148 0.446644 0.009771943 0.803736 0.01005798 0.803736 0.009771943 0.446644 0.009771943 0.803736 0.005219995 0.446644 0.005219995 0.803736 0.005219995 0.446644 0.004999995 0.446644 0.005219995 0.2455829 0.560311 0.234516 0.203218 0.234516 0.560311 0.220898 0.56205 0.221117 0.204957 0.220898 0.204957 0.220898 0.56205 0.21539 0.204957 0.21539 0.56205 0.004999995 0.004999995 0.009590983 0.362093 0.009590983 0.004999995 0.366948 0.54814 0.366661 0.191047 0.366948 0.191047 0.376811 0.191047 0.366948 0.54814 0.366948 0.191047 0.38864 0.546401 0.384049 0.189308 0.384049 0.546401 0.163446 0.210173 0.163227 0.567266 0.163446 0.567266 0.168954 0.567266 0.163446 0.210173 0.163446 0.567266 0.753835 0.625736 0.75412 0.982829 0.753835 0.982829 0.753835 0.625736 0.743972 0.982829 0.743972 0.625736 0.569993 0.995 0.510978 0.637908 0.510978 0.995 0.785702 0.611826 0.795338 0.968919 0.795338 0.611826 0.803737 0.02200895 0.446644 0.02222895 0.446644 0.02200895 0.803737 0.02200895 0.446644 0.01745694 0.803737 0.01745694 0.446644 0.01745694 0.803737 0.01717096 0.803737 0.01745694 0.06870996 0.972396 0.05890095 0.615304 0.05890095 0.972396 0.225822 0.57139 0.582915 0.571676 0.582915 0.57139 0.582915 0.566838 0.225822 0.57139 0.582915 0.57139 0.582915 0.566838 0.225822 0.566618 0.225822 0.566838 0.354815 0.972396 0.344058 0.615304 0.344058 0.972396 0.361445 0.615304 0.372374 0.972396 0.372374 0.615304 0.39622 0.442542 0.754592 0.43795 0.39622 0.43795 0.08324396 0.123376 0.08352297 0.127967 0.08324396 0.127967 0.08324396 0.123376 0.08349996 0.123121 0.08352297 0.123376 0.39622 0.463034 0.753058 0.495913 0.39622 0.462778 0.09589999 0.123121 0.08352297 0.123376 0.08349996 0.123121 0.09615695 0.122865 0.09643697 0.123376 0.09589999 0.123121 0.09615695 0.122865 0.09643697 0.118274 0.09643697 0.123376 0.08324396 0.07357299 0.440081 0.106452 0.08324396 0.07331699 0.131339 0.118019 0.09643697 0.118274 0.09641295 0.118019 0.131595 0.118274 0.131316 0.118274 0.131339 0.118019 0.131595 0.122865 0.131316 0.118274 0.131595 0.118274 0.08324396 0.03813499 0.440081 0.005255997 0.440081 0.004999995 0.131851 0.123121 0.144227 0.123376 0.131316 0.123376 0.144508 0.123376 0.144227 0.123376 0.14425 0.123121 0.144508 0.127967 0.144227 0.123376 0.144508 0.123376 0.39622 0.535419 0.753058 0.502541 0.753058 0.502284 0.440081 0.177642 0.08324396 0.210521 0.440081 0.177386 0.440081 0.116379 0.08324396 0.08349996 0.08324396 0.08324396 0.08324396 0.127967 0.08352297 0.127967 0.08349996 0.128222 0.08349996 0.128222 0.144227 0.127967 0.14425 0.128222 0.144508 0.127967 0.14425 0.128222 0.144227 0.127967 0.131595 0.122865 0.131851 0.123121 0.131316 0.123376 0.09615695 0.118274 0.09641295 0.118019 0.09643697 0.118274 0.39622 0.462778 0.753058 0.483513 0.39622 0.450378 0.09889298 0.583381 0.457267 0.57879 0.09889298 0.57879 0.753058 0.483257 0.39622 0.450378 0.753058 0.483513 0.08324396 0.07331699 0.440081 0.005255997 0.08324396 0.03839099 0.05890095 0.595552 0.417274 0.590961 0.05890095 0.590961 0.753058 0.515197 0.39622 0.548075 0.39622 0.548332 0.39622 0.535675 0.753058 0.514941 0.753058 0.502541 0.422302 0.605985 0.780674 0.601394 0.422302 0.601394 0.08324396 0.210521 0.116403 0.185111 0.440081 0.177386 0.435235 0.140015 0.440081 0.177386 0.435235 0.154006 0.430134 0.139518 0.08324396 0.08349996 0.440081 0.116635 0.131316 0.123376 0.144227 0.127967 0.08352297 0.127967 0.08352297 0.127967 0.09643697 0.123376 0.131316 0.123376 0.09643697 0.118274 0.131316 0.123376 0.09643697 0.123376 0.272769 0.199741 0.331732 0.556833 0.331732 0.199741 0.577051 0.995 0.605725 0.637908 0.577051 0.637908 0.881981 0.07476997 0.524888 0.07454997 0.524888 0.07476997 0.524888 0.07932299 0.881981 0.07476997 0.524888 0.07476997 0.524888 0.07932299 0.881981 0.07960796 0.881981 0.07932299 0.761359 0.625736 0.773407 0.982829 0.773407 0.625736 0.814966 0.958486 0.803089 0.601394 0.803089 0.958486 0.722016 0.559285 0.364923 0.559505 0.364923 0.559285 0.722016 0.559285 0.364923 0.554733 0.722016 0.554733 0.364923 0.554733 0.722016 0.554447 0.722016 0.554733 0.254449 0.972396 0.24321 0.615304 0.24321 0.972396 0.260597 0.615304 0.271665 0.972396 0.271665 0.615304 0.67088 0.995 0.611826 0.637908 0.611826 0.995 0.820328 0.555094 0.761359 0.198002 0.761359 0.555094 0.444905 0.637908 0.503871 0.995 0.503871 0.637908 0.156378 0.213651 0.121497 0.570743 0.121497 0.213651 0.415994 0.607979 0.05890095 0.608234 0.05890095 0.607979 0.415994 0.607979 0.05890095 0.603387 0.415994 0.603387 0.05890095 0.603387 0.415994 0.603132 0.415994 0.603387 0.104109 0.21539 0.114057 0.572482 0.114057 0.21539 0.777655 0.61382 0.420563 0.613565 0.420563 0.61382 0.777655 0.61382 0.420563 0.618411 0.777655 0.618411 0.420563 0.618411 0.777655 0.618666 0.777655 0.618411 0.09319198 0.574221 0.08324396 0.217128 0.08324396 0.574221 0.004999995 0.3684 0.004999995 0.725493 0.01687598 0.725493 0.803736 0.1750209 0.803736 0.17524 0.446644 0.17524 0.803736 0.1750209 0.446644 0.1750209 0.446644 0.170468 0.446644 0.170468 0.446644 0.170182 0.803736 0.170182 0.359583 0.549878 0.359583 0.192786 0.347535 0.192786 0.201306 0.972396 0.201306 0.615304 0.1423619 0.615304 0.446644 0.13844 0.446644 0.1387259 0.803737 0.1387259 0.446644 0.13844 0.803737 0.13844 0.803737 0.133888 0.803737 0.133888 0.803737 0.133668 0.446644 0.133668 0.218071 0.972396 0.218071 0.615304 0.2084349 0.615304 0.225822 0.615304 0.225822 0.972396 0.235631 0.972396 0.737205 0.625736 0.378833 0.625736 0.378833 0.630327 0.803482 0.04225498 0.446644 0.07538998 0.446644 0.07513397 0.39622 0.297715 0.753058 0.26458 0.753058 0.264837 0.39622 0.196519 0.39622 0.196263 0.753058 0.229398 0.803482 0.1146399 0.803482 0.1148959 0.446644 0.081761 0.753058 0.431343 0.39622 0.398208 0.39622 0.398464 0.08352398 0.01394897 0.08349996 0.01369398 0.144251 0.01369398 0.09643697 0.02364099 0.096156 0.02364099 0.096156 0.01905 0.1313149 0.02364099 0.131339 0.02389597 0.09641295 0.02389597 0.1313149 0.02364099 0.1313149 0.01853996 0.131595 0.01905 0.144228 0.01853996 0.144251 0.01879495 0.131851 0.01879495 0.144228 0.01394897 0.144507 0.01394897 0.144507 0.01853996 0.753058 0.304322 0.753058 0.304066 0.39622 0.337201 0.08352398 0.01853996 0.09643697 0.01853996 0.09590095 0.01879495 0.08352398 0.01853996 0.08324396 0.01853996 0.08324396 0.01394897 0.446644 0.062734 0.803482 0.02959895 0.803482 0.04199898 0.803482 0.02959895 0.446644 0.062734 0.446644 0.06247699 0.820666 0.589222 0.462293 0.589222 0.462293 0.593813 0.39622 0.196519 0.753058 0.229654 0.753058 0.26458 0.805017 0.145839 0.446644 0.145839 0.446644 0.15043 0.803482 0.127297 0.803482 0.127553 0.446644 0.09441798 0.446644 0.09416097 0.446644 0.081761 0.803482 0.1148959 0.805017 0.158011 0.446644 0.158011 0.446644 0.162602 0.753058 0.409168 0.406168 0.375326 0.753058 0.431343 0.401066 0.374828 0.39622 0.398208 0.406168 0.375326 0.39622 0.337457 0.39622 0.398208 0.401066 0.374828 0.753058 0.326497 0.753058 0.304322 0.406168 0.36034 0.39622 0.337457 0.401066 0.360837 0.406168 0.36034 0.08352398 0.01394897 0.144228 0.01394897 0.09643697 0.01853996 0.1313149 0.01853996 0.09643697 0.01853996 0.144228 0.01394897 0.09643697 0.01853996 0.1313149 0.01853996 0.1313149 0.02364099 0.02412599 0.3684 0.02412599 0.725493 0.03488194 0.725493 0.786349 0.190669 0.786349 0.190888 0.429257 0.190888 0.429257 0.1861169 0.786349 0.1861169 0.786349 0.190669 0.429257 0.1861169 0.429257 0.185831 0.786349 0.185831 0.05244195 0.725493 0.05244195 0.3684 0.04151397 0.3684 0.01717096 0.004999995 0.01717096 0.362092 0.07613897 0.362092 0.336929 0.972396 0.336929 0.615304 0.277985 0.615304 0.07628899 0.615304 0.07628899 0.972396 0.135254 0.972396 0.178876 0.565527 0.20755 0.565527 0.20755 0.2084349 0.378833 0.637908 0.378833 0.995 0.437797 0.995 0.253642 0.20148 0.253642 0.558572 0.264882 0.558572 0.446644 0.009771943 0.446644 0.01005798 0.803736 0.01005798 0.446644 0.009771943 0.803736 0.009771943 0.803736 0.005219995 0.803736 0.005219995 0.803736 0.004999995 0.446644 0.004999995 0.2455829 0.560311 0.2455829 0.203218 0.234516 0.203218 0.220898 0.56205 0.221117 0.56205 0.221117 0.204957 0.220898 0.56205 0.220898 0.204957 0.21539 0.204957 0.004999995 0.004999995 0.004999995 0.362093 0.009590983 0.362093 0.366948 0.54814 0.366661 0.54814 0.366661 0.191047 0.376811 0.191047 0.376811 0.54814 0.366948 0.54814 0.38864 0.546401 0.38864 0.189308 0.384049 0.189308 0.163446 0.210173 0.163227 0.210173 0.163227 0.567266 0.168954 0.567266 0.168954 0.210173 0.163446 0.210173 0.753835 0.625736 0.75412 0.625736 0.75412 0.982829 0.753835 0.625736 0.753835 0.982829 0.743972 0.982829 0.569993 0.995 0.569993 0.637908 0.510978 0.637908 0.785702 0.611826 0.785702 0.968919 0.795338 0.968919 0.803737 0.02200895 0.803737 0.02222895 0.446644 0.02222895 0.803737 0.02200895 0.446644 0.02200895 0.446644 0.01745694 0.446644 0.01745694 0.446644 0.01717096 0.803737 0.01717096 0.06870996 0.972396 0.06870996 0.615304 0.05890095 0.615304 0.225822 0.57139 0.225822 0.571676 0.582915 0.571676 0.582915 0.566838 0.225822 0.566838 0.225822 0.57139 0.582915 0.566838 0.582915 0.566618 0.225822 0.566618 0.354815 0.972396 0.354815 0.615304 0.344058 0.615304 0.361445 0.615304 0.361445 0.972396 0.372374 0.972396 0.39622 0.442542 0.754592 0.442542 0.754592 0.43795 0.08324396 0.123376 0.08352297 0.123376 0.08352297 0.127967 0.39622 0.463034 0.753058 0.496169 0.753058 0.495913 0.09589999 0.123121 0.09643697 0.123376 0.08352297 0.123376 0.09615695 0.122865 0.09615695 0.118274 0.09643697 0.118274 0.08324396 0.07357299 0.440081 0.106708 0.440081 0.106452 0.131339 0.118019 0.131316 0.118274 0.09643697 0.118274 0.131595 0.122865 0.131316 0.123376 0.131316 0.118274 0.08324396 0.03813499 0.08324396 0.03839099 0.440081 0.005255997 0.131851 0.123121 0.14425 0.123121 0.144227 0.123376 0.144508 0.127967 0.144227 0.127967 0.144227 0.123376 0.39622 0.535419 0.39622 0.535675 0.753058 0.502541 0.440081 0.177642 0.08324396 0.210777 0.08324396 0.210521 0.440081 0.116379 0.440081 0.116635 0.08324396 0.08349996 0.08349996 0.128222 0.08352297 0.127967 0.144227 0.127967 0.39622 0.462778 0.753058 0.495913 0.753058 0.483513 0.09889298 0.583381 0.457267 0.583381 0.457267 0.57879 0.753058 0.483257 0.39622 0.450122 0.39622 0.450378 0.08324396 0.07331699 0.440081 0.106452 0.440081 0.005255997 0.05890095 0.595552 0.417274 0.595552 0.417274 0.590961 0.753058 0.515197 0.753058 0.514941 0.39622 0.548075 0.39622 0.535675 0.39622 0.548075 0.753058 0.514941 0.422302 0.605985 0.780674 0.605985 0.780674 0.601394 0.435235 0.154006 0.440081 0.177386 0.430134 0.154504 0.08324396 0.210521 0.08324396 0.188346 0.116403 0.185111 0.116403 0.185111 0.430134 0.154504 0.440081 0.177386 0.435235 0.140015 0.440081 0.116635 0.440081 0.177386 0.440081 0.116635 0.435235 0.140015 0.430134 0.139518 0.430134 0.139518 0.08324396 0.105675 0.08324396 0.08349996 0.131316 0.123376 0.144227 0.123376 0.144227 0.127967 0.08352297 0.127967 0.08352297 0.123376 0.09643697 0.123376 0.09643697 0.118274 0.131316 0.118274 0.131316 0.123376 0.272769 0.199741 0.272769 0.556833 0.331732 0.556833 0.577051 0.995 0.605725 0.995 0.605725 0.637908 0.881981 0.07476997 0.881981 0.07454997 0.524888 0.07454997 0.524888 0.07932299 0.881981 0.07932299 0.881981 0.07476997 0.524888 0.07932299 0.524888 0.07960796 0.881981 0.07960796 0.761359 0.625736 0.761359 0.982829 0.773407 0.982829 0.814966 0.958486 0.814966 0.601394 0.803089 0.601394 0.722016 0.559285 0.722016 0.559505 0.364923 0.559505 0.722016 0.559285 0.364923 0.559285 0.364923 0.554733 0.364923 0.554733 0.364923 0.554447 0.722016 0.554447 0.254449 0.972396 0.254449 0.615304 0.24321 0.615304 0.260597 0.615304 0.260597 0.972396 0.271665 0.972396 0.67088 0.995 0.67088 0.637908 0.611826 0.637908 0.820328 0.555094 0.820328 0.198002 0.761359 0.198002 0.444905 0.637908 0.444905 0.995 0.503871 0.995 0.156378 0.213651 0.156378 0.570743 0.121497 0.570743 0.415994 0.607979 0.415994 0.608234 0.05890095 0.608234 0.415994 0.607979 0.05890095 0.607979 0.05890095 0.603387 0.05890095 0.603387 0.05890095 0.603132 0.415994 0.603132 0.104109 0.21539 0.104109 0.572482 0.114057 0.572482 0.777655 0.61382 0.777655 0.613565 0.420563 0.613565 0.777655 0.61382 0.420563 0.61382 0.420563 0.618411 0.420563 0.618411 0.420563 0.618666 0.777655 0.618666 0.09319198 0.574221 0.09319198 0.217128 0.08324396 0.217128</float_array>
          <technique_common>
            <accessor source="#Mesh14_Group19_Group18_Group1_Model-mesh-map-0-array" count="837" stride="2">
              <param name="S" type="float"/>
              <param name="T" type="float"/>
            </accessor>
          </technique_common>
        </source>
        <vertices id="Mesh14_Group19_Group18_Group1_Model-mesh-vertices">
          <input semantic="POSITION" source="#Mesh14_Group19_Group18_Group1_Model-mesh-positions"/>
        </vertices>
        <polylist material="FrontColor-material" count="279">
          <input semantic="VERTEX" source="#Mesh14_Group19_Group18_Group1_Model-mesh-vertices" offset="0"/>
          <input semantic="NORMAL" source="#Mesh14_Group19_Group18_Group1_Model-mesh-normals" offset="1"/>
          <input semantic="TEXCOORD" source="#Mesh14_Group19_Group18_Group1_Model-mesh-map-0" offset="2" set="0"/>
          <vcount>3 3 3 3 3 3 3 3 3 3 3 3 3 3 3 3 3 3 3 3 3 3 3 3 3 3 3 3 3 3 3 3 3 3 3 3 3 3 3 3 3 3 3 3 3 3 3 3 3 3 3 3 3 3 3 3 3 3 3 3 3 3 3 3 3 3 3 3 3 3 3 3 3 3 3 3 3 3 3 3 3 3 3 3 3 3 3 3 3 3 3 3 3 3 3 3 3 3 3 3 3 3 3 3 3 3 3 3 3 3 3 3 3 3 3 3 3 3 3 3 3 3 3 3 3 3 3 3 3 3 3 3 3 3 3 3 3 3 3 3 3 3 3 3 3 3 3 3 3 3 3 3 3 3 3 3 3 3 3 3 3 3 3 3 3 3 3 3 3 3 3 3 3 3 3 3 3 3 3 3 3 3 3 3 3 3 3 3 3 3 3 3 3 3 3 3 3 3 3 3 3 3 3 3 3 3 3 3 3 3 3 3 3 3 3 3 3 3 3 3 3 3 3 3 3 3 3 3 3 3 3 3 3 3 3 3 3 3 3 3 3 3 3 3 3 3 3 3 3 3 3 3 3 3 3 3 3 3 3 3 3 3 3 3 3 3 3 3 3 3 3 3 3 3 3 3 3 3 3 </vcount>
          <p>1 0 0 3 1 1 0 2 2 5 3 3 1 3 4 4 4 5 5 5 6 7 6 7 6 7 8 7 8 9 9 9 10 6 10 11 10 11 12 9 12 13 8 13 14 13 14 15 15 14 16 12 15 17 17 16 18 19 16 19 16 17 20 17 18 21 21 18 22 20 19 23 21 20 24 23 21 25 20 22 26 24 23 27 23 24 28 22 25 29 19 26 30 27 27 31 26 28 32 29 29 33 31 30 34 28 31 35 30 32 36 32 33 37 33 34 38 34 35 39 36 36 40 37 37 41 39 38 42 41 39 43 38 40 44 43 41 45 45 42 46 42 42 47 46 43 48 48 44 49 49 43 50 51 45 51 52 46 52 50 47 53 54 48 54 55 49 55 53 50 56 54 48 57 38 40 58 41 39 59 56 51 60 38 40 61 54 48 62 35 52 63 56 51 64 36 36 65 56 51 66 58 53 67 36 36 68 57 54 69 59 55 70 58 53 71 60 56 72 59 55 73 57 54 74 60 56 75 30 32 76 33 34 77 50 47 78 30 32 79 60 56 80 50 47 81 52 46 82 31 57 83 61 58 84 31 57 85 52 46 86 62 59 87 53 50 88 55 49 89 63 60 90 62 59 91 44 61 92 43 41 93 63 60 94 44 61 95 63 60 96 48 44 97 51 45 98 47 62 99 51 45 100 48 44 101 64 63 102 33 64 103 32 65 104 59 66 105 65 67 106 58 68 107 37 31 108 58 69 109 65 31 110 39 70 111 35 71 112 34 65 113 66 72 114 41 73 115 40 74 116 62 75 117 66 76 118 67 77 119 67 65 120 44 65 121 62 65 122 49 73 123 43 72 124 42 73 125 47 78 126 46 79 127 68 80 128 52 81 129 69 82 130 71 83 131 52 81 132 72 84 133 61 85 134 51 86 135 53 86 136 63 86 137 57 86 138 50 86 139 60 86 140 53 86 141 56 86 142 54 86 143 75 87 144 77 88 145 74 89 146 79 90 147 75 91 148 78 92 149 80 93 150 79 94 151 78 95 152 80 96 153 83 97 154 81 98 155 84 99 156 83 100 157 82 101 158 87 102 159 89 103 160 86 103 161 91 104 162 93 104 163 90 105 164 95 106 165 97 106 166 94 107 167 99 108 168 101 108 169 98 108 170 103 106 171 105 106 172 102 107 173 107 109 174 109 110 175 106 111 176 111 16 177 107 16 178 110 17 179 111 18 180 113 18 181 112 19 182 113 112 183 115 113 184 112 20 185 116 114 186 115 114 187 114 114 188 119 115 189 121 115 190 118 116 191 119 117 192 123 118 193 122 119 194 124 120 195 121 121 196 120 120 197 127 122 198 124 123 199 126 124 200 128 125 201 127 125 202 126 126 203 131 127 204 133 128 205 130 129 206 135 130 207 131 130 208 134 131 209 136 132 210 135 133 211 134 132 212 139 134 213 133 135 214 138 136 215 139 137 216 141 137 217 140 138 218 143 139 219 145 139 220 142 140 221 147 141 222 149 142 223 146 143 224 151 144 225 147 145 226 150 146 227 151 147 228 153 147 229 152 148 230 153 149 231 155 149 232 152 150 233 156 151 234 155 152 235 154 153 236 159 154 237 161 155 238 158 156 239 162 157 240 159 158 241 158 159 242 162 160 243 165 161 244 163 162 245 166 163 246 165 164 247 164 165 248 161 166 249 169 167 250 168 168 251 171 73 252 173 72 253 170 73 254 170 169 255 175 170 256 171 171 257 170 169 258 176 172 259 174 173 260 170 169 261 177 174 262 176 172 263 178 175 264 174 173 265 176 172 266 180 176 267 179 177 268 178 175 269 180 176 270 182 178 271 179 177 272 181 179 273 184 180 274 185 181 275 186 182 276 182 178 277 185 181 278 188 183 279 187 184 280 186 182 281 189 185 282 187 184 283 188 183 284 188 183 285 192 186 286 191 187 287 193 188 288 195 189 289 190 190 290 196 191 291 195 189 292 194 192 293 197 193 294 195 189 295 196 191 296 196 191 297 200 194 298 199 194 299 197 193 300 202 195 301 203 196 302 171 171 303 205 197 304 172 198 305 171 171 306 175 170 307 204 199 308 204 199 309 198 200 310 203 196 311 197 193 312 203 196 313 198 200 314 189 185 315 193 188 316 190 190 317 181 179 318 185 181 319 182 178 320 176 201 321 206 202 322 178 79 323 180 72 324 183 73 325 181 74 326 207 203 327 178 204 328 206 205 329 185 206 330 192 207 331 186 208 332 188 31 333 208 69 334 189 31 335 208 209 336 193 210 337 189 211 338 194 201 339 209 212 340 200 213 341 196 29 342 201 30 343 197 31 344 202 214 345 211 215 346 203 216 347 214 217 348 203 216 349 213 218 350 215 219 351 205 220 352 204 221 353 190 86 354 198 86 355 175 86 356 175 86 357 179 86 358 190 86 359 182 86 360 190 86 361 179 86 362 218 222 363 220 223 364 217 224 365 222 225 366 224 225 367 221 225 368 226 226 369 228 226 370 225 227 371 229 228 372 226 229 373 225 230 374 229 231 375 232 232 376 230 233 377 232 234 378 234 235 379 233 236 380 235 237 381 228 238 382 227 239 383 238 240 384 240 241 385 237 144 386 238 147 387 242 147 388 241 148 389 242 149 390 244 149 391 241 150 392 245 242 393 244 243 394 243 244 395 240 245 396 248 245 397 247 245 398 250 246 399 252 247 400 249 248 401 254 249 402 256 250 403 253 249 404 258 251 405 260 251 406 257 251 407 262 86 408 264 86 409 261 86 410 266 252 411 262 253 412 265 254 413 266 108 414 268 108 415 267 108 416 268 255 417 270 256 418 267 257 419 270 258 420 272 258 421 271 258 422 274 259 423 264 260 424 273 261 425 274 225 426 276 225 427 275 225 428 276 262 429 278 263 430 275 264 431 278 258 432 280 258 433 279 258 434 1 0 435 2 265 436 3 1 437 5 3 438 2 4 439 1 3 440 5 5 441 4 266 442 7 6 443 7 8 444 8 267 445 9 9 446 10 11 447 11 268 448 9 12 449 13 14 450 14 15 451 15 14 452 17 16 453 18 17 454 19 16 455 17 18 456 16 19 457 21 18 458 21 20 459 22 20 460 23 21 461 24 23 462 25 269 463 23 24 464 19 26 465 18 270 466 27 27 467 29 29 468 30 30 469 31 30 470 30 32 471 29 33 472 32 33 473 34 35 474 35 52 475 36 36 476 39 38 477 40 38 478 41 39 479 43 41 480 44 61 481 45 42 482 46 43 483 47 62 484 48 44 485 51 45 486 47 62 487 52 46 488 54 48 489 41 39 490 55 49 491 56 51 492 35 52 493 38 40 494 56 51 495 57 54 496 58 53 497 60 56 498 33 34 499 59 55 500 50 47 501 31 57 502 30 32 503 61 58 504 28 58 505 31 57 506 63 60 507 53 50 508 62 59 509 63 60 510 43 41 511 48 44 512 64 63 513 59 271 514 33 64 515 59 66 516 64 272 517 65 67 518 37 31 519 36 273 520 58 69 521 39 70 522 38 274 523 35 71 524 66 72 525 55 73 526 41 73 527 62 75 528 55 275 529 66 76 530 67 65 531 45 65 532 44 65 533 49 73 534 48 74 535 43 72 536 70 79 537 68 80 538 46 79 539 69 82 540 47 78 541 68 80 542 52 81 543 47 78 544 69 82 545 73 79 546 61 85 547 72 84 548 52 81 549 71 83 550 72 84 551 51 86 552 50 86 553 53 86 554 57 86 555 53 86 556 50 86 557 53 86 558 57 86 559 56 86 560 75 87 561 76 276 562 77 88 563 79 90 564 76 277 565 75 91 566 80 93 567 81 278 568 79 94 569 80 96 570 82 96 571 83 97 572 84 99 573 85 279 574 83 100 575 87 102 576 88 280 577 89 103 578 91 104 579 92 105 580 93 104 581 95 106 582 96 107 583 97 106 584 99 108 585 100 108 586 101 108 587 103 106 588 104 107 589 105 106 590 107 109 591 108 281 592 109 110 593 111 16 594 108 17 595 107 16 596 111 18 597 110 19 598 113 18 599 113 112 600 114 282 601 115 113 602 116 114 603 117 114 604 115 114 605 119 115 606 120 116 607 121 115 608 119 117 609 118 118 610 123 118 611 124 120 612 125 283 613 121 121 614 127 122 615 125 284 616 124 123 617 128 125 618 129 126 619 127 125 620 131 127 621 132 128 622 133 128 623 135 130 624 132 131 625 131 130 626 136 132 627 137 285 628 135 133 629 139 134 630 130 286 631 133 135 632 139 137 633 138 138 634 141 137 635 143 139 636 144 140 637 145 139 638 147 141 639 148 287 640 149 142 641 151 144 642 148 144 643 147 145 644 151 147 645 150 148 646 153 147 647 153 149 648 154 150 649 155 149 650 156 151 651 157 288 652 155 152 653 159 154 654 160 154 655 161 155 656 162 157 657 163 289 658 159 158 659 162 160 660 164 290 661 165 161 662 166 163 663 167 291 664 165 164 665 161 166 666 160 292 667 169 167 668 171 73 669 172 74 670 173 72 671 170 169 672 174 173 673 175 170 674 170 169 675 173 174 676 177 174 677 178 175 678 179 177 679 174 173 680 180 176 681 181 179 682 182 178 683 181 179 684 183 180 685 184 180 686 186 182 687 187 184 688 182 178 689 189 185 690 190 190 691 187 184 692 188 183 693 186 182 694 192 186 695 193 188 696 194 192 697 195 189 698 197 193 699 198 200 700 195 189 701 196 191 702 194 192 703 200 194 704 197 193 705 201 293 706 202 195 707 171 171 708 204 199 709 205 197 710 204 199 711 175 170 712 198 200 713 176 201 714 177 213 715 206 202 716 180 72 717 207 73 718 183 73 719 207 203 720 180 294 721 178 204 722 185 206 723 184 79 724 192 207 725 188 31 726 191 273 727 208 69 728 208 209 729 209 295 730 193 210 731 194 201 732 193 79 733 209 212 734 196 29 735 199 30 736 201 30 737 213 218 738 203 216 739 212 65 740 202 214 741 210 296 742 211 215 743 211 215 744 212 65 745 203 216 746 214 217 747 204 221 748 203 216 749 204 221 750 214 217 751 215 219 752 215 219 753 216 297 754 205 220 755 190 86 756 195 86 757 198 86 758 175 86 759 174 86 760 179 86 761 182 86 762 187 86 763 190 86 764 218 222 765 219 298 766 220 223 767 222 225 768 223 225 769 224 225 770 226 226 771 227 227 772 228 226 773 229 228 774 230 299 775 226 229 776 229 231 777 231 300 778 232 232 779 232 234 780 231 301 781 234 235 782 235 237 783 236 302 784 228 238 785 238 240 786 239 303 787 240 241 788 238 147 789 237 148 790 242 147 791 242 149 792 243 150 793 244 149 794 245 242 795 246 304 796 244 243 797 240 245 798 239 245 799 248 245 800 250 246 801 251 305 802 252 247 803 254 249 804 255 250 805 256 250 806 258 251 807 259 306 808 260 251 809 262 86 810 263 86 811 264 86 812 266 252 813 263 307 814 262 253 815 266 108 816 265 108 817 268 108 818 268 255 819 269 308 820 270 256 821 270 258 822 269 258 823 272 258 824 274 259 825 261 309 826 264 260 827 274 225 828 273 225 829 276 225 830 276 262 831 277 310 832 278 263 833 278 258 834 277 258 835 280 258 836</p>
        </polylist>
      </mesh>
    </geometry>
  </library_geometries>
  <library_controllers/>
  <library_visual_scenes>
    <visual_scene id="Scene" name="Scene">
      <node id="Mesh14_Group19_Group18_Group1_Model" name="Mesh14_Group19_Group18_Group1_Model" type="NODE">
        <matrix sid="transform">1 0 0 0 0 -1.62921e-7 -1 0 0 1 -1.62921e-7 0 0 0 0 1</matrix>
        <instance_geometry url="#Mesh14_Group19_Group18_Group1_Model-mesh" name="Mesh14_Group19_Group18_Group1_Model">
          <bind_material>
            <technique_common>
              <instance_material symbol="FrontColor-material" target="#FrontColor-material">
                <bind_vertex_input semantic="UVMap" input_semantic="TEXCOORD" input_set="0"/>
              </instance_material>
            </technique_common>
          </bind_material>
        </instance_geometry>
      </node>
    </visual_scene>
  </library_visual_scenes>
  <scene>
    <instance_visual_scene url="#Scene"/>
  </scene>
</COLLADA>