<?xml version="1.0" encoding="utf-8"?>
<COLLADA xmlns="http://www.collada.org/2005/11/COLLADASchema" version="1.4.1">
  <asset>
    <contributor>
      <author>Blender User</author>
      <authoring_tool>Blender 2.78.0 commit date:2016-10-24, commit time:12:20, hash:e8299c8</authoring_tool>
    </contributor>
    <created>2021-10-29T18:30:15</created>
    <modified>2021-10-29T18:30:15</modified>
    <unit name="meter" meter="1"/>
    <up_axis>Z_UP</up_axis>
  </asset>
  <library_images>
    <image id="video_store_lables__color_png" name="video_store_lables__color_png">
      <init_from>/I:/3D_Asset_Packages/For%20Sale/Video_Store/Labels/Model/video_store_lables__color.png</init_from>
    </image>
  </library_images>
  <library_effects>
    <effect id="FrontColor-effect">
      <profile_COMMON>
        <newparam sid="video_store_lables__color_png-surface">
          <surface type="2D">
            <init_from>video_store_lables__color_png</init_from>
          </surface>
        </newparam>
        <newparam sid="video_store_lables__color_png-sampler">
          <sampler2D>
            <source>video_store_lables__color_png-surface</source>
          </sampler2D>
        </newparam>
        <technique sid="common">
          <phong>
            <emission>
              <color sid="emission">0 0 0 1</color>
            </emission>
            <ambient>
              <color sid="ambient">0 0 0 1</color>
            </ambient>
            <diffuse>
              <texture texture="video_store_lables__color_png-sampler" texcoord="UVMap"/>
            </diffuse>
            <specular>
              <color sid="specular">1 1 1 1</color>
            </specular>
            <shininess>
              <float sid="shininess">52</float>
            </shininess>
            <transparent opaque="A_ONE">
              <color>1 1 1 1</color>
            </transparent>
            <index_of_refraction>
              <float sid="index_of_refraction">1</float>
            </index_of_refraction>
          </phong>
        </technique>
      </profile_COMMON>
    </effect>
  </library_effects>
  <library_materials>
    <material id="FrontColor-material" name="FrontColor">
      <instance_effect url="#FrontColor-effect"/>
    </material>
  </library_materials>
  <library_geometries>
    <geometry id="Mesh6_Group9_Group6_Group1_Model-mesh" name="Mesh6_Group9_Group6_Group1_Model">
      <mesh>
        <source id="Mesh6_Group9_Group6_Group1_Model-mesh-positions">
          <float_array id="Mesh6_Group9_Group6_Group1_Model-mesh-positions-array" count="243">0.2 0.15 -0.002499997 0.2 0 -0.002499997 -0.1999999 0 -0.002499997 -0.1999999 0.15 -0.002499997 0.2 0.15 0.002499997 0.2 0 0.002499997 -0.1999999 0.15 0.002499997 -0.1999999 0 0.002499997 -0.1999999 0.14 0.002499997 -0.06 0.02899998 0.0115 -0.06 0.00583899 0.0115 -0.05900001 0.007838964 0.01249998 -0.05900001 0.02899998 0.01249998 -0.06 0.000999987 0.003499984 -0.06 0.02899998 0.003499984 -0.05900001 0.02899998 0.002499997 -0.05900001 0.000999987 0.002499997 -0.05900001 0.02999997 0.003499984 -0.05900001 0.02999997 0.0115 0.05900001 0.02899998 0.01249998 0.05900001 0.02999997 0.0115 -0.05900001 0.006838977 0.01349997 -0.06 0.00583899 0.02149999 -0.05900001 0.006838977 0.02149999 -0.06 0.000999987 0.02149999 -0.05900001 0 0.003499984 -0.05900001 0 0.02149999 0.05900001 0.000999987 0.002499997 0.05900001 0 0.003499984 0.06 0.000999987 0.003499984 0.06 0.000999987 0.02149999 0.05900001 0 0.02149999 0.06 0.00583899 0.0115 0.06 0.02899998 0.0115 0.05900001 0.007838964 0.01249998 0.06 0.02899998 0.003499984 0.05900001 0.02999997 0.003499984 0.05900001 0.02899998 0.002499997 0.05900001 0.006838977 0.01349997 0.06 0.00583899 0.02149999 0.05900001 0.006838977 0.02149999 -0.05900001 0.00583899 0.02249997 0.05900001 0.00583899 0.02249997 0.05900001 0.000999987 0.02249997 -0.05900001 0.000999987 0.02249997 0.06 0.02899998 -0.0115 0.06 0.00583899 -0.0115 0.05900001 0.007838964 -0.01249998 0.05900001 0.02899998 -0.01249998 0.06 0.000999987 -0.003499984 0.06 0.02899998 -0.003499984 0.05900001 0.02899998 -0.002499997 0.05900001 0.000999987 -0.002499997 0.05900001 0.02999997 -0.003499984 0.05900001 0.02999997 -0.0115 -0.05900001 0.02899998 -0.01249998 -0.05900001 0.02999997 -0.0115 0.05900001 0.006838977 -0.01349997 0.06 0.00583899 -0.02149999 0.05900001 0.006838977 -0.02149999 0.06 0.000999987 -0.02149999 0.05900001 0 -0.003499984 0.05900001 0 -0.02149999 -0.05900001 0.000999987 -0.002499997 -0.05900001 0 -0.003499984 -0.06 0.000999987 -0.003499984 -0.06 0.000999987 -0.02149999 -0.05900001 0 -0.02149999 -0.06 0.00583899 -0.0115 -0.06 0.02899998 -0.0115 -0.05900001 0.007838964 -0.01249998 -0.06 0.02899998 -0.003499984 -0.05900001 0.02999997 -0.003499984 -0.05900001 0.02899998 -0.002499997 -0.05900001 0.006838977 -0.01349997 -0.06 0.00583899 -0.02149999 -0.05900001 0.006838977 -0.02149999 0.05900001 0.00583899 -0.02249997 -0.05900001 0.00583899 -0.02249997 -0.05900001 0.000999987 -0.02249997 0.05900001 0.000999987 -0.02249997</float_array>
          <technique_common>
            <accessor source="#Mesh6_Group9_Group6_Group1_Model-mesh-positions-array" count="81" stride="3">
              <param name="X" type="float"/>
              <param name="Y" type="float"/>
              <param name="Z" type="float"/>
            </accessor>
          </technique_common>
        </source>
        <source id="Mesh6_Group9_Group6_Group1_Model-mesh-normals">
          <float_array id="Mesh6_Group9_Group6_Group1_Model-mesh-normals-array" count="243">0 0 -1 1 0 0 0 1 0 -1 0 0 0 -1 0 0 0 1 -0.73828 0.4769382 0.4769408 -0.8374458 0.1569762 0.5234913 -0.4765163 0.47651 0.7388305 -0.7385298 0.4767421 -0.4767501 -0.4767536 -0.476748 -0.7385238 -0.7385181 -0.4767538 -0.4767565 -0.4767905 0.7384769 -0.4767836 -0.4767395 0.4767338 -0.738542 -0.4767397 0.738542 0.4767336 0.4767394 0.4767338 0.7385421 -0.8517139 0.3705255 0.3705326 -0.8373633 0.5236657 0.1568344 -0.7384832 0.4767785 0.476786 -0.4767611 -0.7385118 0.4767591 -0.7384557 -0.4768019 0.4768052 -0.4767376 -0.738542 -0.4767358 0.4767398 -0.4767339 -0.7385419 0.7385303 -0.4767445 -0.4767469 0.4767611 -0.7385118 -0.4767591 0.7385187 -0.4767538 0.4767558 0.7385225 0.4767476 0.476756 0.8374458 0.1569762 0.5234913 0.8517562 0.3704782 0.3704825 0.4767905 0.7384769 0.4767836 0.7384823 0.4767787 -0.4767872 0.4767397 0.738542 -0.4767336 0.4767534 0.4767473 -0.7385244 0.8373633 0.5236658 0.1568343 0.7382242 0.4769784 0.4769871 0.4765172 0.7388302 0.4765096 0.4767393 0.4767336 0.7385423 -0.4767431 0.7385423 0.4767299 -0.4768122 0.4768051 0.7384492 0.4768117 -0.4768053 0.7384492 0.4767376 -0.738542 0.4767358 -0.4767389 -0.4767338 0.7385424 0 0.7071074 0.7071062 0 0.7071067 0.7071069 0.7382801 0.4769374 -0.4769416 0.8374457 0.1569762 -0.5234915 0.4765162 0.4765089 -0.7388312 0.7385298 0.4767451 0.4767473 0.4767536 -0.476748 0.7385238 0.7385167 -0.4767558 0.4767568 0.4767876 0.7384769 0.4767866 0.4767395 0.4767338 0.738542 0.4767373 0.7385414 -0.4767372 -0.4767305 0.4767416 -0.7385429 0.8517138 0.3705287 -0.3705295 0.8373588 0.5236703 -0.1568433 0.7384814 0.4767829 -0.4767844 0.4767635 -0.738512 -0.4767564 0.7384559 -0.476802 -0.4768047 0.4767354 -0.7385436 0.4767355 -0.4767398 -0.4767339 0.7385419 -0.7385303 -0.4767445 0.4767469 -0.4767609 -0.7385119 0.4767591 -0.7385162 -0.476756 -0.4767574 -0.7385225 0.4767585 -0.476745 -0.8374413 0.156985 -0.5234959 -0.8516926 0.3705559 -0.3705511 -0.476791 0.7384762 -0.4767843 -0.7384823 0.4767787 0.4767872 -0.4767534 0.4767473 0.7385244 -0.8373632 0.523666 -0.1568345 -0.7382236 0.4769796 -0.4769868 -0.4765185 0.7388312 -0.4765068 -0.4767399 0.4767338 -0.7385418 0.4767357 0.7385433 -0.4767357 0.4768111 0.4768052 -0.7384498 -0.4768106 -0.4768055 -0.7384499 -0.4767379 -0.7385437 -0.4767328 0.4767395 -0.4767341 -0.7385419 0 0.7071074 -0.7071062 0 0.7071067 -0.7071069</float_array>
          <technique_common>
            <accessor source="#Mesh6_Group9_Group6_Group1_Model-mesh-normals-array" count="81" stride="3">
              <param name="X" type="float"/>
              <param name="Y" type="float"/>
              <param name="Z" type="float"/>
            </accessor>
          </technique_common>
        </source>
        <source id="Mesh6_Group9_Group6_Group1_Model-mesh-map-0">
          <float_array id="Mesh6_Group9_Group6_Group1_Model-mesh-map-0-array" count="876">0.591914 0.650744 0.411665 0.170082 0.411665 0.650744 0.678481 0.866646 0.498232 0.872655 0.498232 0.866646 0.76196 0.494206 0.767968 0.974868 0.76196 0.974868 0.972407 0.500214 0.804175 0.494206 0.792158 0.500214 0.78206 0.984934 0.776053 0.504272 0.776053 0.984934 0.600905 0.004999995 0.612922 0.485662 0.781154 0.004999995 0.666529 0.7631 0.691957 0.761898 0.666529 0.761898 0.666529 0.772713 0.700175 0.773914 0.700175 0.772713 0.666529 0.772713 0.665327 0.772713 0.666529 0.773914 0.666529 0.7631 0.665327 0.772713 0.666529 0.772713 0.665327 0.7631 0.666529 0.7631 0.666529 0.761898 0.721634 0.859466 0.720432 0.71767 0.721634 0.71767 0.691957 0.761898 0.69436 0.7631 0.693159 0.760696 0.69436 0.751083 0.693159 0.760696 0.69436 0.7631 0.700175 0.772713 0.701377 0.751083 0.700175 0.751083 0.701377 0.772713 0.700175 0.772713 0.700175 0.773914 0.490054 0.735789 0.488853 0.877584 0.490054 0.877584 0.455144 0.706793 0.453942 0.706793 0.455144 0.705591 0.455144 0.728423 0.453942 0.706793 0.455144 0.706793 0.48879 0.716406 0.463362 0.717608 0.460959 0.716406 0.48879 0.716406 0.489992 0.716406 0.48879 0.717608 0.48879 0.706793 0.489992 0.716406 0.48879 0.716406 0.489992 0.706793 0.48879 0.706793 0.48879 0.705591 0.455144 0.706793 0.48879 0.705591 0.48879 0.706793 0.709617 0.71767 0.710819 0.859466 0.709617 0.859466 0.460959 0.716406 0.463362 0.717608 0.46216 0.718809 0.460959 0.728423 0.46216 0.718809 0.46216 0.728423 0.540447 0.815175 0.539245 0.67338 0.540447 0.67338 0.460959 0.728423 0.455144 0.729624 0.455144 0.728423 0.460959 0.728423 0.46216 0.728423 0.460959 0.729624 0.453942 0.728423 0.455144 0.728423 0.455144 0.729624 0.466021 0.877584 0.467223 0.735789 0.466021 0.735789 0.700175 0.751083 0.701377 0.751083 0.700175 0.749881 0.700175 0.751083 0.69436 0.749881 0.69436 0.751083 0.693159 0.751083 0.69436 0.751083 0.69436 0.749881 0.666529 0.772713 0.69436 0.7631 0.666529 0.7631 0.69436 0.7631 0.700175 0.751083 0.69436 0.751083 0.584056 0.004999995 0.558628 0.146795 0.584056 0.146795 0.52843 0.67338 0.529632 0.815175 0.52843 0.815175 0.455144 0.728423 0.460959 0.716406 0.460959 0.728423 0.460959 0.716406 0.48879 0.706793 0.48879 0.716406 0.710819 0.859466 0.720432 0.71767 0.720432 0.859466 0.529632 0.815175 0.539245 0.67338 0.539245 0.815175 0.38348 0.494206 0.389295 0.636001 0.389295 0.494206 0.467223 0.735789 0.488853 0.877584 0.488853 0.735789 0.617634 0.7631 0.592206 0.761898 0.617634 0.761898 0.617634 0.772713 0.583988 0.773914 0.583988 0.772713 0.617634 0.772713 0.618836 0.772713 0.617634 0.773914 0.617634 0.7631 0.618836 0.772713 0.617634 0.772713 0.618836 0.7631 0.617634 0.7631 0.617634 0.761898 0.946033 0.006201982 0.804238 0.004999995 0.804238 0.006201982 0.592206 0.761898 0.589803 0.7631 0.591004 0.760696 0.589803 0.751083 0.591004 0.760696 0.589803 0.7631 0.583988 0.772713 0.582786 0.751083 0.583988 0.751083 0.582786 0.772713 0.583988 0.772713 0.583988 0.773914 0.729749 0.857452 0.730951 0.715657 0.729749 0.715657 0.617634 0.783294 0.618836 0.783294 0.617634 0.782092 0.617634 0.804924 0.618836 0.783294 0.617634 0.783294 0.583988 0.792907 0.609416 0.794109 0.61182 0.792907 0.583988 0.792907 0.582786 0.792907 0.583988 0.794109 0.583988 0.783294 0.582786 0.792907 0.583988 0.792907 0.582786 0.783294 0.583988 0.783294 0.583988 0.782092 0.617634 0.783294 0.583988 0.782092 0.583988 0.783294 0.637891 0.859466 0.63669 0.71767 0.637891 0.71767 0.61182 0.792907 0.609416 0.794109 0.610618 0.795311 0.61182 0.804924 0.610618 0.795311 0.610618 0.804924 0.645195 0.71767 0.646397 0.859466 0.645195 0.859466 0.61182 0.804924 0.617634 0.806126 0.617634 0.804924 0.61182 0.804924 0.610618 0.804924 0.61182 0.806126 0.618836 0.804924 0.617634 0.804924 0.617634 0.806126 0.753783 0.715657 0.752581 0.857452 0.753783 0.857452 0.583988 0.751083 0.582786 0.751083 0.583988 0.749881 0.583988 0.751083 0.589803 0.749881 0.589803 0.751083 0.591004 0.751083 0.589803 0.751083 0.589803 0.749881 0.617634 0.772713 0.589803 0.7631 0.617634 0.7631 0.589803 0.7631 0.583988 0.751083 0.589803 0.751083 0.946033 0.03162997 0.804238 0.006201982 0.804238 0.03162997 0.657212 0.859466 0.65601 0.71767 0.657212 0.71767 0.617634 0.804924 0.61182 0.792907 0.61182 0.804924 0.61182 0.792907 0.583988 0.783294 0.583988 0.792907 0.63669 0.71767 0.627077 0.859466 0.627077 0.71767 0.65601 0.71767 0.646397 0.859466 0.646397 0.71767 0.397573 0.502259 0.403387 0.644054 0.403387 0.502259 0.752581 0.857452 0.730951 0.715657 0.730951 0.857452 0.591914 0.650744 0.591914 0.170082 0.411665 0.170082 0.678481 0.866646 0.678481 0.872655 0.498232 0.872655 0.76196 0.494206 0.767968 0.494206 0.767968 0.974868 0.792158 0.494206 0.792158 0.500214 0.804175 0.494206 0.972407 0.500214 0.972407 0.494206 0.804175 0.494206 0.78206 0.984934 0.78206 0.504272 0.776053 0.504272 0.781154 0.485662 0.781154 0.004999995 0.612922 0.485662 0.600905 0.004999995 0.600905 0.485662 0.612922 0.485662 0.666529 0.7631 0.69436 0.7631 0.691957 0.761898 0.666529 0.772713 0.666529 0.773914 0.700175 0.773914 0.666529 0.7631 0.665327 0.7631 0.665327 0.772713 0.721634 0.859466 0.720432 0.859466 0.720432 0.71767 0.69436 0.751083 0.693159 0.751083 0.693159 0.760696 0.700175 0.772713 0.701377 0.772713 0.701377 0.751083 0.490054 0.735789 0.488853 0.735789 0.488853 0.877584 0.455144 0.728423 0.453942 0.728423 0.453942 0.706793 0.48879 0.716406 0.48879 0.717608 0.463362 0.717608 0.48879 0.706793 0.489992 0.706793 0.489992 0.716406 0.455144 0.706793 0.455144 0.705591 0.48879 0.705591 0.709617 0.71767 0.710819 0.71767 0.710819 0.859466 0.460959 0.728423 0.460959 0.716406 0.46216 0.718809 0.540447 0.815175 0.539245 0.815175 0.539245 0.67338 0.460959 0.728423 0.460959 0.729624 0.455144 0.729624 0.466021 0.877584 0.467223 0.877584 0.467223 0.735789 0.700175 0.751083 0.700175 0.749881 0.69436 0.749881 0.666529 0.772713 0.700175 0.772713 0.69436 0.7631 0.69436 0.7631 0.700175 0.772713 0.700175 0.751083 0.584056 0.004999995 0.558628 0.004999995 0.558628 0.146795 0.52843 0.67338 0.529632 0.67338 0.529632 0.815175 0.455144 0.728423 0.455144 0.706793 0.460959 0.716406 0.460959 0.716406 0.455144 0.706793 0.48879 0.706793 0.710819 0.859466 0.710819 0.71767 0.720432 0.71767 0.529632 0.815175 0.529632 0.67338 0.539245 0.67338 0.38348 0.494206 0.38348 0.636001 0.389295 0.636001 0.467223 0.735789 0.467223 0.877584 0.488853 0.877584 0.617634 0.7631 0.589803 0.7631 0.592206 0.761898 0.617634 0.772713 0.617634 0.773914 0.583988 0.773914 0.617634 0.7631 0.618836 0.7631 0.618836 0.772713 0.946033 0.006201982 0.946033 0.004999995 0.804238 0.004999995 0.589803 0.751083 0.591004 0.751083 0.591004 0.760696 0.583988 0.772713 0.582786 0.772713 0.582786 0.751083 0.729749 0.857452 0.730951 0.857452 0.730951 0.715657 0.617634 0.804924 0.618836 0.804924 0.618836 0.783294 0.583988 0.792907 0.583988 0.794109 0.609416 0.794109 0.583988 0.783294 0.582786 0.783294 0.582786 0.792907 0.617634 0.783294 0.617634 0.782092 0.583988 0.782092 0.637891 0.859466 0.63669 0.859466 0.63669 0.71767 0.61182 0.804924 0.61182 0.792907 0.610618 0.795311 0.645195 0.71767 0.646397 0.71767 0.646397 0.859466 0.61182 0.804924 0.61182 0.806126 0.617634 0.806126 0.753783 0.715657 0.752581 0.715657 0.752581 0.857452 0.583988 0.751083 0.583988 0.749881 0.589803 0.749881 0.617634 0.772713 0.583988 0.772713 0.589803 0.7631 0.589803 0.7631 0.583988 0.772713 0.583988 0.751083 0.946033 0.03162997 0.946033 0.006201982 0.804238 0.006201982 0.657212 0.859466 0.65601 0.859466 0.65601 0.71767 0.617634 0.804924 0.617634 0.783294 0.61182 0.792907 0.61182 0.792907 0.617634 0.783294 0.583988 0.783294 0.63669 0.71767 0.63669 0.859466 0.627077 0.859466 0.65601 0.71767 0.65601 0.859466 0.646397 0.859466 0.397573 0.502259 0.397573 0.644054 0.403387 0.644054 0.752581 0.857452 0.752581 0.715657 0.730951 0.715657</float_array>
          <technique_common>
            <accessor source="#Mesh6_Group9_Group6_Group1_Model-mesh-map-0-array" count="438" stride="2">
              <param name="S" type="float"/>
              <param name="T" type="float"/>
            </accessor>
          </technique_common>
        </source>
        <vertices id="Mesh6_Group9_Group6_Group1_Model-mesh-vertices">
          <input semantic="POSITION" source="#Mesh6_Group9_Group6_Group1_Model-mesh-positions"/>
        </vertices>
        <polylist material="FrontColor-material" count="146">
          <input semantic="VERTEX" source="#Mesh6_Group9_Group6_Group1_Model-mesh-vertices" offset="0"/>
          <input semantic="NORMAL" source="#Mesh6_Group9_Group6_Group1_Model-mesh-normals" offset="1"/>
          <input semantic="TEXCOORD" source="#Mesh6_Group9_Group6_Group1_Model-mesh-map-0" offset="2" set="0"/>
          <vcount>3 3 3 3 3 3 3 3 3 3 3 3 3 3 3 3 3 3 3 3 3 3 3 3 3 3 3 3 3 3 3 3 3 3 3 3 3 3 3 3 3 3 3 3 3 3 3 3 3 3 3 3 3 3 3 3 3 3 3 3 3 3 3 3 3 3 3 3 3 3 3 3 3 3 3 3 3 3 3 3 3 3 3 3 3 3 3 3 3 3 3 3 3 3 3 3 3 3 3 3 3 3 3 3 3 3 3 3 3 3 3 3 3 3 3 3 3 3 3 3 3 3 3 3 3 3 3 3 3 3 3 3 3 3 3 3 3 3 3 3 3 3 3 3 3 3 </vcount>
          <p>1 0 0 3 0 1 0 0 2 0 1 3 5 1 4 1 1 5 3 2 6 4 2 7 0 2 8 2 3 9 8 3 10 3 3 11 2 4 12 5 4 13 7 4 14 4 5 15 8 5 16 5 5 17 9 6 18 11 7 19 12 8 20 14 9 21 16 10 22 13 11 23 14 9 24 17 12 25 15 13 26 9 6 27 17 12 28 14 9 29 18 14 30 9 6 31 12 8 32 19 15 33 18 14 34 12 8 35 11 7 36 10 16 37 21 17 38 22 18 39 21 17 40 10 16 41 13 11 42 26 19 43 24 20 44 25 21 45 13 11 46 16 10 47 27 22 48 25 21 49 16 10 50 29 23 51 28 24 52 27 22 53 30 25 54 28 24 55 29 23 56 33 26 57 34 27 58 32 28 59 33 26 60 20 29 61 19 15 62 35 30 63 20 29 64 33 26 65 36 31 66 35 30 67 37 32 68 29 23 69 37 32 70 35 30 71 15 13 72 36 31 73 37 32 74 32 28 75 34 27 76 38 33 77 39 34 78 38 33 79 40 35 80 42 36 81 23 37 82 41 38 83 39 34 84 43 39 85 30 25 86 39 34 87 40 35 88 42 36 89 31 40 90 30 25 91 43 39 92 44 41 93 31 40 94 43 39 95 24 20 96 26 19 97 44 41 98 24 20 99 41 38 100 22 18 101 23 37 102 22 18 103 41 38 104 14 3 105 10 3 106 9 3 107 10 3 108 24 3 109 22 3 110 34 5 111 12 5 112 11 5 113 11 42 114 38 43 115 34 43 116 30 1 117 32 1 118 39 1 119 32 1 120 35 1 121 33 1 122 36 2 123 18 2 124 20 2 125 38 2 126 23 2 127 40 2 128 42 5 129 44 5 130 43 5 131 31 4 132 25 4 133 28 4 134 45 44 135 47 45 136 48 46 137 50 47 138 52 48 139 49 49 140 50 47 141 53 50 142 51 51 143 45 44 144 53 50 145 50 47 146 54 52 147 45 44 148 48 46 149 55 53 150 54 52 151 48 46 152 47 45 153 46 54 154 57 55 155 58 56 156 57 55 157 46 54 158 49 49 159 62 57 160 60 58 161 61 59 162 49 49 163 52 48 164 63 60 165 61 59 166 52 48 167 65 61 168 64 62 169 63 60 170 66 63 171 64 62 172 65 61 173 69 64 174 70 65 175 68 66 176 69 64 177 56 67 178 55 53 179 71 68 180 56 67 181 69 64 182 72 14 183 71 68 184 73 69 185 65 61 186 73 69 187 71 68 188 51 51 189 72 14 190 73 69 191 68 66 192 70 65 193 74 70 194 75 71 195 74 70 196 76 72 197 78 73 198 59 74 199 77 75 200 75 71 201 79 76 202 66 63 203 75 71 204 76 72 205 78 73 206 67 77 207 66 63 208 79 76 209 80 78 210 67 77 211 79 76 212 60 58 213 62 57 214 80 78 215 60 58 216 77 75 217 58 56 218 59 74 219 58 56 220 77 75 221 50 1 222 46 1 223 45 1 224 46 1 225 60 1 226 58 1 227 70 0 228 48 0 229 47 0 230 47 79 231 74 80 232 70 80 233 66 3 234 68 3 235 75 3 236 68 3 237 71 3 238 69 3 239 72 2 240 54 2 241 56 2 242 74 2 243 59 2 244 76 2 245 78 0 246 80 0 247 79 0 248 67 4 249 61 4 250 64 4 251 1 0 252 2 0 253 3 0 254 0 1 255 4 1 256 5 1 257 3 2 258 6 2 259 4 2 260 6 3 261 3 3 262 8 3 263 2 3 264 7 3 265 8 3 266 2 4 267 1 4 268 5 4 269 7 5 270 5 5 271 8 5 272 4 5 273 6 5 274 8 5 275 9 6 276 10 16 277 11 7 278 14 9 279 15 13 280 16 10 281 9 6 282 18 14 283 17 12 284 19 15 285 20 29 286 18 14 287 22 18 288 23 37 289 21 17 290 13 11 291 25 21 292 26 19 293 27 22 294 28 24 295 25 21 296 30 25 297 31 40 298 28 24 299 33 26 300 19 15 301 34 27 302 35 30 303 36 31 304 20 29 305 29 23 306 27 22 307 37 32 308 15 13 309 17 12 310 36 31 311 39 34 312 32 28 313 38 33 314 42 36 315 40 35 316 23 37 317 39 34 318 42 36 319 43 39 320 44 41 321 26 19 322 31 40 323 24 20 324 44 41 325 41 38 326 14 3 327 13 3 328 10 3 329 10 3 330 13 3 331 24 3 332 34 5 333 19 5 334 12 5 335 11 42 336 21 42 337 38 43 338 30 1 339 29 1 340 32 1 341 32 1 342 29 1 343 35 1 344 36 2 345 17 2 346 18 2 347 38 2 348 21 2 349 23 2 350 42 5 351 41 5 352 44 5 353 31 4 354 26 4 355 25 4 356 45 44 357 46 54 358 47 45 359 50 47 360 51 51 361 52 48 362 45 44 363 54 52 364 53 50 365 55 53 366 56 67 367 54 52 368 58 56 369 59 74 370 57 55 371 49 49 372 61 59 373 62 57 374 63 60 375 64 62 376 61 59 377 66 63 378 67 77 379 64 62 380 69 64 381 55 53 382 70 65 383 71 68 384 72 14 385 56 67 386 65 61 387 63 60 388 73 69 389 51 51 390 53 50 391 72 14 392 75 71 393 68 66 394 74 70 395 78 73 396 76 72 397 59 74 398 75 71 399 78 73 400 79 76 401 80 78 402 62 57 403 67 77 404 60 58 405 80 78 406 77 75 407 50 1 408 49 1 409 46 1 410 46 1 411 49 1 412 60 1 413 70 0 414 55 0 415 48 0 416 47 79 417 57 79 418 74 80 419 66 3 420 65 3 421 68 3 422 68 3 423 65 3 424 71 3 425 72 2 426 53 2 427 54 2 428 74 2 429 57 2 430 59 2 431 78 0 432 77 0 433 80 0 434 67 4 435 62 4 436 61 4 437</p>
        </polylist>
      </mesh>
    </geometry>
  </library_geometries>
  <library_controllers/>
  <library_visual_scenes>
    <visual_scene id="Scene" name="Scene">
      <node id="Mesh6_Group9_Group6_Group1_Model" name="Mesh6_Group9_Group6_Group1_Model" type="NODE">
        <matrix sid="transform">1 0 0 0 0 -1.62921e-7 -1 0 0 1 -1.62921e-7 4.12189e-11 0 0 0 1</matrix>
        <instance_geometry url="#Mesh6_Group9_Group6_Group1_Model-mesh" name="Mesh6_Group9_Group6_Group1_Model">
          <bind_material>
            <technique_common>
              <instance_material symbol="FrontColor-material" target="#FrontColor-material">
                <bind_vertex_input semantic="UVMap" input_semantic="TEXCOORD" input_set="0"/>
              </instance_material>
            </technique_common>
          </bind_material>
        </instance_geometry>
      </node>
    </visual_scene>
  </library_visual_scenes>
  <scene>
    <instance_visual_scene url="#Scene"/>
  </scene>
</COLLADA>