<?xml version="1.0" encoding="utf-8"?>
<COLLADA xmlns="http://www.collada.org/2005/11/COLLADASchema" version="1.4.1">
  <asset>
    <contributor>
      <author>Blender User</author>
      <authoring_tool>Blender 2.78.0 commit date:2016-10-24, commit time:12:20, hash:e8299c8</authoring_tool>
    </contributor>
    <created>2021-10-29T18:31:44</created>
    <modified>2021-10-29T18:31:44</modified>
    <unit name="meter" meter="1"/>
    <up_axis>Z_UP</up_axis>
  </asset>
  <library_images>
    <image id="video_store_lables__color_png" name="video_store_lables__color_png">
      <init_from>/I:/3D_Asset_Packages/For%20Sale/Video_Store/Labels/Model/video_store_lables__color.png</init_from>
    </image>
  </library_images>
  <library_effects>
    <effect id="FrontColor-effect">
      <profile_COMMON>
        <newparam sid="video_store_lables__color_png-surface">
          <surface type="2D">
            <init_from>video_store_lables__color_png</init_from>
          </surface>
        </newparam>
        <newparam sid="video_store_lables__color_png-sampler">
          <sampler2D>
            <source>video_store_lables__color_png-surface</source>
          </sampler2D>
        </newparam>
        <technique sid="common">
          <phong>
            <emission>
              <color sid="emission">0 0 0 1</color>
            </emission>
            <ambient>
              <color sid="ambient">0 0 0 1</color>
            </ambient>
            <diffuse>
              <texture texture="video_store_lables__color_png-sampler" texcoord="UVMap"/>
            </diffuse>
            <specular>
              <color sid="specular">1 1 1 1</color>
            </specular>
            <shininess>
              <float sid="shininess">52</float>
            </shininess>
            <transparent opaque="A_ONE">
              <color>1 1 1 1</color>
            </transparent>
            <index_of_refraction>
              <float sid="index_of_refraction">1</float>
            </index_of_refraction>
          </phong>
        </technique>
      </profile_COMMON>
    </effect>
  </library_effects>
  <library_materials>
    <material id="FrontColor-material" name="FrontColor">
      <instance_effect url="#FrontColor-effect"/>
    </material>
  </library_materials>
  <library_geometries>
    <geometry id="Mesh1_Group3_Group2_Group1_Model-mesh" name="Mesh1_Group3_Group2_Group1_Model">
      <mesh>
        <source id="Mesh1_Group3_Group2_Group1_Model-mesh-positions">
          <float_array id="Mesh1_Group3_Group2_Group1_Model-mesh-positions-array" count="243">0.06 0.02899998 -0.0115 0.06 0.00583899 -0.0115 0.05900001 0.007838964 -0.01249998 0.05900001 0.02899998 -0.01249998 0.06 0.000999987 -0.003499984 0.06 0.02899998 -0.003499984 0.05900001 0.02899998 -0.002499997 0.05900001 0.000999987 -0.002499997 0.05900001 0.02999997 -0.003499984 0.05900001 0.02999997 -0.0115 -0.05899995 0.02899998 -0.01249998 -0.05899995 0.02999997 -0.0115 0.05900001 0.006838977 -0.01349997 0.06 0.00583899 -0.02149999 0.05900001 0.006838977 -0.02149999 0.06 0.000999987 -0.02149999 0.05900001 0 -0.003499984 0.05900001 0 -0.02149999 -0.05899995 0.000999987 -0.002499997 -0.05899995 0 -0.003499984 -0.06 0.000999987 -0.003499984 -0.06 0.000999987 -0.02149999 -0.05899995 0 -0.02149999 -0.06 0.00583899 -0.0115 -0.06 0.02899998 -0.0115 -0.05899995 0.007838964 -0.01249998 -0.06 0.02899998 -0.003499984 -0.05899995 0.02999997 -0.003499984 -0.05899995 0.02899998 -0.002499997 -0.05899995 0.006838977 -0.01349997 -0.06 0.00583899 -0.02149999 -0.05899995 0.006838977 -0.02149999 0.05900001 0.00583899 -0.02249997 -0.05899995 0.00583899 -0.02249997 -0.05899995 0.000999987 -0.02249997 0.05900001 0.000999987 -0.02249997 0.1999999 0.15 -0.002499997 0.1999999 0 -0.002499997 -0.1999999 0 -0.002499997 -0.1999999 0.15 -0.002499997 0.1999999 0.15 0.002499997 0.1999999 0 0.002499997 -0.1999999 0.15 0.002499997 -0.1999999 0 0.002499997 -0.1999999 0.14 0.002499997 -0.06 0.02899998 0.0115 -0.06 0.00583899 0.0115 -0.05899995 0.007838964 0.01249998 -0.05899995 0.02899998 0.01249998 -0.06 0.000999987 0.003499984 -0.06 0.02899998 0.003499984 -0.05899995 0.02899998 0.002499997 -0.05899995 0.000999987 0.002499997 -0.05899995 0.02999997 0.003499984 -0.05899995 0.02999997 0.0115 0.05900001 0.02899998 0.01249998 0.05900001 0.02999997 0.0115 -0.05899995 0.006838977 0.01349997 -0.06 0.00583899 0.02149999 -0.05899995 0.006838977 0.02149999 -0.06 0.000999987 0.02149999 -0.05899995 0 0.003499984 -0.05899995 0 0.02149999 0.05900001 0.000999987 0.002499997 0.05900001 0 0.003499984 0.06 0.000999987 0.003499984 0.06 0.000999987 0.02149999 0.05900001 0 0.02149999 0.06 0.00583899 0.0115 0.06 0.02899998 0.0115 0.05900001 0.007838964 0.01249998 0.06 0.02899998 0.003499984 0.05900001 0.02999997 0.003499984 0.05900001 0.02899998 0.002499997 0.05900001 0.006838977 0.01349997 0.06 0.00583899 0.02149999 0.05900001 0.006838977 0.02149999 -0.05899995 0.00583899 0.02249997 0.05900001 0.00583899 0.02249997 0.05900001 0.000999987 0.02249997 -0.05899995 0.000999987 0.02249997</float_array>
          <technique_common>
            <accessor source="#Mesh1_Group3_Group2_Group1_Model-mesh-positions-array" count="81" stride="3">
              <param name="X" type="float"/>
              <param name="Y" type="float"/>
              <param name="Z" type="float"/>
            </accessor>
          </technique_common>
        </source>
        <source id="Mesh1_Group3_Group2_Group1_Model-mesh-normals">
          <float_array id="Mesh1_Group3_Group2_Group1_Model-mesh-normals-array" count="243">0.7382801 0.4769463 -0.4769327 0.8374413 0.156985 -0.5234958 0.4765077 0.4765183 -0.7388307 0.7385298 0.4767538 0.4767385 0.4767448 -0.4767568 0.7385237 0.7385167 -0.4767646 0.4767481 0.4767905 0.7384769 0.4767836 0.4767308 0.4767426 0.738542 0.4767401 0.7385417 -0.4767336 -0.4767255 0.4767397 -0.7385473 0.8517138 0.3705377 -0.3705205 0.8373429 0.5237028 -0.1568191 0.7384815 0.4767799 -0.4767873 0.4767635 -0.738512 -0.4767564 0.7384559 -0.476802 -0.4768047 0.4767354 -0.7385436 0.4767355 -0.4767233 -0.4767429 0.7385467 -0.7385222 -0.4767585 0.4767456 -0.4767541 -0.7385152 0.4767608 -0.738508 -0.4767645 -0.4767615 -0.7385137 0.4767653 -0.4767519 -0.8374428 0.1569703 -0.5234978 -0.8517063 0.3705365 -0.370539 -0.4767801 0.7384807 -0.4767883 -0.7384729 0.4767976 0.4767827 -0.4767282 0.738547 0.4767374 -0.4767372 0.4767568 0.7385287 -0.8373509 0.5236822 -0.1568461 -0.7382158 0.4769906 -0.476988 -0.4765064 0.7388342 -0.4765142 -0.4767292 0.476737 -0.7385467 0.4767416 0.7385433 -0.4767299 0.4768111 0.4768052 -0.7384498 -0.4768001 -0.4768086 -0.7384547 -0.4767281 -0.738547 -0.4767374 0.4767395 -0.4767341 -0.7385419 1 0 0 0 0 -1 0 0.7071069 -0.7071067 0 0.707107 -0.7071067 -1 0 0 0 1 0 0 -1 0 0 0 1 -0.7382706 0.4769483 0.4769452 -0.8374388 0.1569776 0.5235019 -0.4765059 0.4765137 0.7388348 -0.7385212 0.4767597 -0.4767459 -0.4767373 -0.4767569 -0.7385286 -0.7385085 -0.4767701 -0.4767553 -0.4767801 0.7384808 -0.4767881 -0.4767231 0.4767428 -0.7385469 -0.4767282 0.738547 0.4767374 0.4767394 0.4767338 0.7385421 -0.8517285 0.3705148 0.3705099 -0.8373365 0.5237123 0.156822 -0.7384746 0.4767934 0.4767845 -0.4767541 -0.7385152 0.4767609 -0.7384475 -0.4768102 0.4768095 -0.4767284 -0.738547 -0.4767372 0.476731 -0.4767428 -0.7385419 0.7385304 -0.4767533 -0.4767381 0.4767611 -0.7385118 -0.4767591 0.7385187 -0.4767538 0.4767558 0.7385225 0.4767476 0.476756 0.8374458 0.1569762 0.5234913 0.8517139 0.3705287 0.3705294 0.7384823 0.4767904 -0.4767754 0.4767397 0.7385424 -0.476733 0.4767447 0.4767567 -0.738524 0.837359 0.5236701 0.1568431 0.7382242 0.4769814 0.4769842 0.4765142 0.7388303 0.4765123 0.4767393 0.4767336 0.7385423 -0.4767268 0.7385461 0.4767403 -0.4768015 0.4768083 0.738454 0.4768117 -0.4768053 0.7384492 0.4767376 -0.738542 0.4767358 -0.4767283 -0.476737 0.7385473 0 0.7071069 0.7071067 0 0.707107 0.7071067</float_array>
          <technique_common>
            <accessor source="#Mesh1_Group3_Group2_Group1_Model-mesh-normals-array" count="81" stride="3">
              <param name="X" type="float"/>
              <param name="Y" type="float"/>
              <param name="Z" type="float"/>
            </accessor>
          </technique_common>
        </source>
        <source id="Mesh1_Group3_Group2_Group1_Model-mesh-map-0">
          <float_array id="Mesh1_Group3_Group2_Group1_Model-mesh-map-0-array" count="876">0.700175 0.795311 0.674746 0.794109 0.700175 0.794109 0.700175 0.804924 0.666528 0.806126 0.666528 0.804924 0.700175 0.804924 0.701377 0.804924 0.700175 0.806126 0.700175 0.795311 0.701377 0.804924 0.700175 0.804924 0.701377 0.795311 0.700175 0.795311 0.700175 0.794109 0.946033 0.342405 0.804238 0.341203 0.804238 0.342405 0.674746 0.794109 0.672343 0.795311 0.673546 0.792907 0.672343 0.783294 0.673546 0.792907 0.672343 0.795311 0.666528 0.804924 0.665327 0.783294 0.666528 0.783294 0.665327 0.804924 0.666528 0.804924 0.666528 0.806126 0.80544 0.378642 0.947236 0.377441 0.947236 0.378642 0.804238 0.378642 0.80544 0.377441 0.80544 0.378642 0.825868 0.651295 0.804238 0.650094 0.804238 0.651295 0.947236 0.342405 0.946033 0.367833 0.947236 0.370236 0.947236 0.342405 0.946033 0.341203 0.946033 0.342405 0.813851 0.659288 0.804238 0.660489 0.804238 0.659288 0.80544 0.41349 0.804238 0.412289 0.80544 0.412289 0.804238 0.378642 0.80544 0.412289 0.804238 0.412289 0.947236 0.412289 0.80544 0.41349 0.80544 0.412289 0.835574 0.03922396 0.834373 0.04042595 0.83317 0.04042595 0.823557 0.03922396 0.83317 0.04042595 0.823557 0.04042595 0.822356 0.04042595 0.823557 0.1822209 0.822356 0.1822209 0.743903 0.633116 0.7427 0.638931 0.743903 0.638931 0.823557 0.03922396 0.823557 0.04042595 0.822356 0.04042595 0.825868 0.650094 0.825868 0.651295 0.827068 0.650094 0.827068 0.508298 0.825868 0.650094 0.827068 0.650094 0.666528 0.783294 0.665327 0.783294 0.666528 0.782092 0.666528 0.783294 0.672343 0.782092 0.672343 0.783294 0.673546 0.783294 0.672343 0.783294 0.672343 0.782092 0.700175 0.804924 0.672343 0.795311 0.700175 0.795311 0.672343 0.795311 0.666528 0.783294 0.672343 0.783294 0.946033 0.367833 0.804238 0.342405 0.804238 0.367833 0.834373 0.1822209 0.83317 0.04042595 0.834373 0.04042595 0.549998 0.117223 0.544183 0.105207 0.544183 0.117223 0.544183 0.105207 0.516351 0.09559398 0.516351 0.105207 0.813851 0.660489 0.804238 0.802285 0.804238 0.660489 0.83317 0.04042595 0.823557 0.1822209 0.823557 0.04042595 0.7427 0.633116 0.600905 0.638931 0.7427 0.638931 0.825868 0.650094 0.804238 0.508298 0.804238 0.650094 0.185249 0.974868 0.004999995 0.494206 0.004999995 0.974868 0.678481 0.880739 0.498232 0.886747 0.498232 0.880739 0.790145 0.004999995 0.796152 0.485662 0.790145 0.485662 0.984486 0.427739 0.816254 0.421731 0.804238 0.427739 0.796152 0.995 0.790145 0.514338 0.790145 0.995 0.19424 0.494206 0.206257 0.974868 0.374489 0.494206 0.516351 0.04721397 0.541779 0.04601299 0.516351 0.04601299 0.725783 0.674582 0.724582 0.708228 0.725783 0.708228 0.725783 0.674582 0.724582 0.67338 0.724582 0.674582 0.393094 0.67338 0.38348 0.674582 0.38348 0.67338 0.393094 0.674582 0.393094 0.67338 0.394295 0.674582 0.394295 0.816377 0.393094 0.674582 0.394295 0.674582 0.402801 0.674582 0.401599 0.67338 0.404002 0.674582 0.413616 0.67338 0.404002 0.674582 0.401599 0.67338 0.521063 0.816377 0.499434 0.815175 0.499434 0.816377 0.724582 0.70943 0.725783 0.708228 0.724582 0.708228 0.582786 0.708228 0.724582 0.70943 0.724582 0.708228 0.583988 0.718872 0.582786 0.718872 0.583988 0.71767 0.583988 0.740502 0.582786 0.718872 0.583988 0.718872 0.617634 0.728485 0.592206 0.729687 0.589803 0.728485 0.617634 0.728485 0.618836 0.728485 0.617634 0.729687 0.617634 0.718872 0.618836 0.728485 0.617634 0.728485 0.618836 0.718872 0.617634 0.718872 0.617634 0.71767 0.583988 0.718872 0.617634 0.71767 0.617634 0.718872 0.724582 0.674582 0.582786 0.67338 0.582786 0.674582 0.589803 0.728485 0.592206 0.729687 0.591005 0.730888 0.589803 0.740502 0.591005 0.730888 0.591005 0.740502 0.414817 0.816377 0.413616 0.674582 0.414817 0.674582 0.589803 0.740502 0.583988 0.741703 0.583988 0.740502 0.589803 0.740502 0.591005 0.740502 0.589803 0.741703 0.582786 0.740502 0.583988 0.740502 0.583988 0.741703 0.498232 0.815175 0.499434 0.67338 0.498232 0.67338 0.499434 0.816377 0.499434 0.815175 0.498232 0.815175 0.600905 0.538496 0.602107 0.544311 0.600905 0.544311 0.413616 0.674582 0.413616 0.67338 0.414817 0.674582 0.516351 0.05682796 0.544183 0.04721397 0.516351 0.04721397 0.544183 0.04721397 0.549997 0.03519797 0.544183 0.03519797 0.57399 0.67338 0.548562 0.815175 0.57399 0.815175 0.402801 0.674582 0.404002 0.816377 0.402801 0.816377 0.583988 0.740502 0.589803 0.728485 0.589803 0.740502 0.589803 0.728485 0.617634 0.718872 0.617634 0.728485 0.38348 0.816377 0.393094 0.674582 0.393094 0.816377 0.404002 0.816377 0.413616 0.674582 0.413616 0.816377 0.743902 0.544311 0.602107 0.538496 0.743902 0.538496 0.499434 0.67338 0.521063 0.815175 0.521063 0.67338 0.700175 0.795311 0.672343 0.795311 0.674746 0.794109 0.700175 0.804924 0.700175 0.806126 0.666528 0.806126 0.700175 0.795311 0.701377 0.795311 0.701377 0.804924 0.946033 0.342405 0.946033 0.341203 0.804238 0.341203 0.672343 0.783294 0.673546 0.783294 0.673546 0.792907 0.666528 0.804924 0.665327 0.804924 0.665327 0.783294 0.80544 0.378642 0.80544 0.377441 0.947236 0.377441 0.825868 0.651295 0.825868 0.650094 0.804238 0.650094 0.947236 0.342405 0.946033 0.342405 0.946033 0.367833 0.813851 0.659288 0.813851 0.660489 0.804238 0.660489 0.804238 0.378642 0.80544 0.378642 0.80544 0.412289 0.947236 0.412289 0.947236 0.41349 0.80544 0.41349 0.823557 0.03922396 0.835574 0.03922396 0.83317 0.04042595 0.822356 0.04042595 0.823557 0.04042595 0.823557 0.1822209 0.743903 0.633116 0.7427 0.633116 0.7427 0.638931 0.827068 0.508298 0.825868 0.508298 0.825868 0.650094 0.666528 0.783294 0.666528 0.782092 0.672343 0.782092 0.700175 0.804924 0.666528 0.804924 0.672343 0.795311 0.672343 0.795311 0.666528 0.804924 0.666528 0.783294 0.946033 0.367833 0.946033 0.342405 0.804238 0.342405 0.834373 0.1822209 0.83317 0.1822209 0.83317 0.04042595 0.549998 0.117223 0.549998 0.09559398 0.544183 0.105207 0.544183 0.105207 0.549998 0.09559398 0.516351 0.09559398 0.813851 0.660489 0.813851 0.802285 0.804238 0.802285 0.83317 0.04042595 0.83317 0.1822209 0.823557 0.1822209 0.7427 0.633116 0.600905 0.633116 0.600905 0.638931 0.825868 0.650094 0.825868 0.508298 0.804238 0.508298 0.185249 0.974868 0.185249 0.494206 0.004999995 0.494206 0.678481 0.880739 0.678481 0.886747 0.498232 0.886747 0.790145 0.004999995 0.796152 0.004999995 0.796152 0.485662 0.804238 0.421731 0.804238 0.427739 0.816254 0.421731 0.984486 0.427739 0.984486 0.421731 0.816254 0.421731 0.796152 0.995 0.796152 0.514338 0.790145 0.514338 0.374489 0.974868 0.374489 0.494206 0.206257 0.974868 0.19424 0.494206 0.19424 0.974868 0.206257 0.974868 0.516351 0.04721397 0.544183 0.04721397 0.541779 0.04601299 0.725783 0.674582 0.724582 0.674582 0.724582 0.708228 0.393094 0.67338 0.393094 0.674582 0.38348 0.674582 0.394295 0.816377 0.393094 0.816377 0.393094 0.674582 0.413616 0.67338 0.413616 0.674582 0.404002 0.674582 0.521063 0.816377 0.521063 0.815175 0.499434 0.815175 0.582786 0.708228 0.582786 0.70943 0.724582 0.70943 0.583988 0.740502 0.582786 0.740502 0.582786 0.718872 0.617634 0.728485 0.617634 0.729687 0.592206 0.729687 0.617634 0.718872 0.618836 0.718872 0.618836 0.728485 0.583988 0.718872 0.583988 0.71767 0.617634 0.71767 0.724582 0.674582 0.724582 0.67338 0.582786 0.67338 0.589803 0.740502 0.589803 0.728485 0.591005 0.730888 0.414817 0.816377 0.413616 0.816377 0.413616 0.674582 0.589803 0.740502 0.589803 0.741703 0.583988 0.741703 0.498232 0.815175 0.499434 0.815175 0.499434 0.67338 0.600905 0.538496 0.602107 0.538496 0.602107 0.544311 0.516351 0.05682796 0.549997 0.05682796 0.544183 0.04721397 0.544183 0.04721397 0.549997 0.05682796 0.549997 0.03519797 0.57399 0.67338 0.548562 0.67338 0.548562 0.815175 0.402801 0.674582 0.404002 0.674582 0.404002 0.816377 0.583988 0.740502 0.583988 0.718872 0.589803 0.728485 0.589803 0.728485 0.583988 0.718872 0.617634 0.718872 0.38348 0.816377 0.38348 0.674582 0.393094 0.674582 0.404002 0.816377 0.404002 0.674582 0.413616 0.674582 0.743902 0.544311 0.602107 0.544311 0.602107 0.538496 0.499434 0.67338 0.499434 0.815175 0.521063 0.815175</float_array>
          <technique_common>
            <accessor source="#Mesh1_Group3_Group2_Group1_Model-mesh-map-0-array" count="438" stride="2">
              <param name="S" type="float"/>
              <param name="T" type="float"/>
            </accessor>
          </technique_common>
        </source>
        <vertices id="Mesh1_Group3_Group2_Group1_Model-mesh-vertices">
          <input semantic="POSITION" source="#Mesh1_Group3_Group2_Group1_Model-mesh-positions"/>
        </vertices>
        <polylist material="FrontColor-material" count="146">
          <input semantic="VERTEX" source="#Mesh1_Group3_Group2_Group1_Model-mesh-vertices" offset="0"/>
          <input semantic="NORMAL" source="#Mesh1_Group3_Group2_Group1_Model-mesh-normals" offset="1"/>
          <input semantic="TEXCOORD" source="#Mesh1_Group3_Group2_Group1_Model-mesh-map-0" offset="2" set="0"/>
          <vcount>3 3 3 3 3 3 3 3 3 3 3 3 3 3 3 3 3 3 3 3 3 3 3 3 3 3 3 3 3 3 3 3 3 3 3 3 3 3 3 3 3 3 3 3 3 3 3 3 3 3 3 3 3 3 3 3 3 3 3 3 3 3 3 3 3 3 3 3 3 3 3 3 3 3 3 3 3 3 3 3 3 3 3 3 3 3 3 3 3 3 3 3 3 3 3 3 3 3 3 3 3 3 3 3 3 3 3 3 3 3 3 3 3 3 3 3 3 3 3 3 3 3 3 3 3 3 3 3 3 3 3 3 3 3 3 3 3 3 3 3 3 3 3 3 3 3 </vcount>
          <p>0 0 0 2 1 1 3 2 2 5 3 3 7 4 4 4 5 5 5 3 6 8 6 7 6 7 8 0 0 9 8 6 10 5 3 11 9 8 12 0 0 13 3 2 14 10 9 15 9 8 16 3 2 17 2 1 18 1 10 19 12 11 20 13 12 21 12 11 22 1 10 23 4 5 24 17 13 25 15 14 26 16 15 27 4 5 28 7 4 29 18 16 30 16 15 31 7 4 32 20 17 33 19 18 34 18 16 35 21 19 36 19 18 37 20 17 38 24 20 39 25 21 40 23 22 41 24 20 42 11 23 43 10 9 44 26 24 45 11 23 46 24 20 47 27 25 48 26 24 49 28 26 50 20 17 51 28 26 52 26 24 53 6 7 54 27 25 55 28 26 56 23 22 57 25 21 58 29 27 59 30 28 60 29 27 61 31 29 62 33 30 63 14 31 64 32 32 65 30 28 66 34 33 67 21 19 68 30 28 69 31 29 70 33 30 71 22 34 72 21 19 73 34 33 74 35 35 75 22 34 76 34 33 77 15 14 78 17 13 79 35 35 80 15 14 81 32 32 82 13 12 83 14 31 84 13 12 85 32 32 86 5 36 87 1 36 88 0 36 89 1 36 90 15 36 91 13 36 92 25 37 93 3 37 94 2 37 95 2 38 96 29 38 97 25 39 98 21 40 99 23 40 100 30 40 101 23 40 102 26 40 103 24 40 104 27 41 105 9 41 106 11 41 107 29 41 108 14 41 109 31 41 110 33 37 111 35 37 112 34 37 113 22 42 114 16 42 115 19 42 116 37 37 117 39 37 118 36 37 119 36 36 120 41 36 121 37 36 122 39 41 123 40 41 124 36 41 125 38 40 126 44 40 127 39 40 128 38 42 129 41 42 130 43 42 131 40 43 132 44 43 133 41 43 134 45 44 135 47 45 136 48 46 137 50 47 138 52 48 139 49 49 140 50 47 141 53 50 142 51 51 143 45 44 144 53 50 145 50 47 146 54 52 147 45 44 148 48 46 149 55 53 150 54 52 151 48 46 152 47 45 153 46 54 154 57 55 155 58 56 156 57 55 157 46 54 158 49 49 159 62 57 160 60 58 161 61 59 162 49 49 163 52 48 164 63 60 165 61 59 166 52 48 167 65 61 168 64 62 169 63 60 170 66 63 171 64 62 172 65 61 173 69 64 174 70 65 175 68 66 176 69 64 177 56 6 178 55 53 179 71 67 180 56 6 181 69 64 182 72 68 183 71 67 184 73 69 185 65 61 186 73 69 187 71 67 188 51 51 189 72 68 190 73 69 191 68 66 192 70 65 193 74 70 194 75 71 195 74 70 196 76 72 197 78 73 198 59 74 199 77 75 200 75 71 201 79 76 202 66 63 203 75 71 204 76 72 205 78 73 206 67 77 207 66 63 208 79 76 209 80 78 210 67 77 211 79 76 212 60 58 213 62 57 214 80 78 215 60 58 216 77 75 217 58 56 218 59 74 219 58 56 220 77 75 221 50 40 222 46 40 223 45 40 224 46 40 225 60 40 226 58 40 227 70 43 228 48 43 229 47 43 230 47 79 231 74 79 232 70 80 233 66 36 234 68 36 235 75 36 236 68 36 237 71 36 238 69 36 239 72 41 240 54 41 241 56 41 242 74 41 243 59 41 244 76 41 245 78 43 246 80 43 247 79 43 248 67 42 249 61 42 250 64 42 251 0 0 252 1 10 253 2 1 254 5 3 255 6 7 256 7 4 257 0 0 258 9 8 259 8 6 260 10 9 261 11 23 262 9 8 263 13 12 264 14 31 265 12 11 266 4 5 267 16 15 268 17 13 269 18 16 270 19 18 271 16 15 272 21 19 273 22 34 274 19 18 275 24 20 276 10 9 277 25 21 278 26 24 279 27 25 280 11 23 281 20 17 282 18 16 283 28 26 284 6 7 285 8 6 286 27 25 287 30 28 288 23 22 289 29 27 290 33 30 291 31 29 292 14 31 293 30 28 294 33 30 295 34 33 296 35 35 297 17 13 298 22 34 299 15 14 300 35 35 301 32 32 302 5 36 303 4 36 304 1 36 305 1 36 306 4 36 307 15 36 308 25 37 309 10 37 310 3 37 311 2 38 312 12 39 313 29 38 314 21 40 315 20 40 316 23 40 317 23 40 318 20 40 319 26 40 320 27 41 321 8 41 322 9 41 323 29 41 324 12 41 325 14 41 326 33 37 327 32 37 328 35 37 329 22 42 330 17 42 331 16 42 332 37 37 333 38 37 334 39 37 335 36 36 336 40 36 337 41 36 338 39 41 339 42 41 340 40 41 341 42 40 342 39 40 343 44 40 344 38 40 345 43 40 346 44 40 347 38 42 348 37 42 349 41 42 350 43 43 351 41 43 352 44 43 353 40 43 354 42 43 355 44 43 356 45 44 357 46 54 358 47 45 359 50 47 360 51 51 361 52 48 362 45 44 363 54 52 364 53 50 365 55 53 366 56 6 367 54 52 368 58 56 369 59 74 370 57 55 371 49 49 372 61 59 373 62 57 374 63 60 375 64 62 376 61 59 377 66 63 378 67 77 379 64 62 380 69 64 381 55 53 382 70 65 383 71 67 384 72 68 385 56 6 386 65 61 387 63 60 388 73 69 389 51 51 390 53 50 391 72 68 392 75 71 393 68 66 394 74 70 395 78 73 396 76 72 397 59 74 398 75 71 399 78 73 400 79 76 401 80 78 402 62 57 403 67 77 404 60 58 405 80 78 406 77 75 407 50 40 408 49 40 409 46 40 410 46 40 411 49 40 412 60 40 413 70 43 414 55 43 415 48 43 416 47 79 417 57 80 418 74 79 419 66 36 420 65 36 421 68 36 422 68 36 423 65 36 424 71 36 425 72 41 426 53 41 427 54 41 428 74 41 429 57 41 430 59 41 431 78 43 432 77 43 433 80 43 434 67 42 435 62 42 436 61 42 437</p>
        </polylist>
      </mesh>
    </geometry>
  </library_geometries>
  <library_controllers/>
  <library_visual_scenes>
    <visual_scene id="Scene" name="Scene">
      <node id="Mesh1_Group3_Group2_Group1_Model" name="Mesh1_Group3_Group2_Group1_Model" type="NODE">
        <matrix sid="transform">1 0 0 0 0 -1.62921e-7 -1 0 0 1 -1.62921e-7 4.12189e-11 0 0 0 1</matrix>
        <instance_geometry url="#Mesh1_Group3_Group2_Group1_Model-mesh" name="Mesh1_Group3_Group2_Group1_Model">
          <bind_material>
            <technique_common>
              <instance_material symbol="FrontColor-material" target="#FrontColor-material">
                <bind_vertex_input semantic="UVMap" input_semantic="TEXCOORD" input_set="0"/>
              </instance_material>
            </technique_common>
          </bind_material>
        </instance_geometry>
      </node>
    </visual_scene>
  </library_visual_scenes>
  <scene>
    <instance_visual_scene url="#Scene"/>
  </scene>
</COLLADA>