<?xml version="1.0" encoding="utf-8"?>
<COLLADA xmlns="http://www.collada.org/2005/11/COLLADASchema" version="1.4.1">
  <asset>
    <contributor>
      <author>Blender User</author>
      <authoring_tool>Blender 2.78.0 commit date:2016-10-24, commit time:12:20, hash:e8299c8</authoring_tool>
    </contributor>
    <created>2021-10-27T21:42:35</created>
    <modified>2021-10-27T21:42:35</modified>
    <unit name="meter" meter="1"/>
    <up_axis>Z_UP</up_axis>
  </asset>
  <library_cameras>
    <camera id="Camera-camera" name="Camera">
      <optics>
        <technique_common>
          <perspective>
            <xfov sid="xfov">49.13434</xfov>
            <aspect_ratio>1.777778</aspect_ratio>
            <znear sid="znear">0.1</znear>
            <zfar sid="zfar">100</zfar>
          </perspective>
        </technique_common>
      </optics>
      <extra>
        <technique profile="blender">
          <YF_dofdist>0</YF_dofdist>
          <shiftx>0</shiftx>
          <shifty>0</shifty>
        </technique>
      </extra>
    </camera>
  </library_cameras>
  <library_lights>
    <light id="Lamp-light" name="Lamp">
      <technique_common>
        <point>
          <color sid="color">1 1 1</color>
          <constant_attenuation>1</constant_attenuation>
          <linear_attenuation>0</linear_attenuation>
          <quadratic_attenuation>0.00111109</quadratic_attenuation>
        </point>
      </technique_common>
      <extra>
        <technique profile="blender">
          <adapt_thresh>0.000999987</adapt_thresh>
          <area_shape>1</area_shape>
          <area_size>0.1</area_size>
          <area_sizey>0.1</area_sizey>
          <area_sizez>1</area_sizez>
          <atm_distance_factor>1</atm_distance_factor>
          <atm_extinction_factor>1</atm_extinction_factor>
          <atm_turbidity>2</atm_turbidity>
          <att1>0</att1>
          <att2>1</att2>
          <backscattered_light>1</backscattered_light>
          <bias>1</bias>
          <blue>1</blue>
          <buffers>1</buffers>
          <bufflag>0</bufflag>
          <bufsize>2880</bufsize>
          <buftype>2</buftype>
          <clipend>30.002</clipend>
          <clipsta>1.000799</clipsta>
          <compressthresh>0.04999995</compressthresh>
          <dist sid="blender_dist">29.99998</dist>
          <energy sid="blender_energy">1</energy>
          <falloff_type>2</falloff_type>
          <filtertype>0</filtertype>
          <flag>0</flag>
          <gamma sid="blender_gamma">1</gamma>
          <green>1</green>
          <halo_intensity sid="blnder_halo_intensity">1</halo_intensity>
          <horizon_brightness>1</horizon_brightness>
          <mode>8192</mode>
          <ray_samp>1</ray_samp>
          <ray_samp_method>1</ray_samp_method>
          <ray_samp_type>0</ray_samp_type>
          <ray_sampy>1</ray_sampy>
          <ray_sampz>1</ray_sampz>
          <red>1</red>
          <samp>3</samp>
          <shadhalostep>0</shadhalostep>
          <shadow_b sid="blender_shadow_b">0</shadow_b>
          <shadow_g sid="blender_shadow_g">0</shadow_g>
          <shadow_r sid="blender_shadow_r">0</shadow_r>
          <sky_colorspace>0</sky_colorspace>
          <sky_exposure>1</sky_exposure>
          <skyblendfac>1</skyblendfac>
          <skyblendtype>1</skyblendtype>
          <soft>3</soft>
          <spotblend>0.15</spotblend>
          <spotsize>75</spotsize>
          <spread>1</spread>
          <sun_brightness>1</sun_brightness>
          <sun_effect_type>0</sun_effect_type>
          <sun_intensity>1</sun_intensity>
          <sun_size>1</sun_size>
          <type>0</type>
        </technique>
      </extra>
    </light>
  </library_lights>
  <library_images>
    <image id="video_store_shelf_big__color_png" name="video_store_shelf_big__color_png">
      <init_from>/I:/3D_Asset_Packages/For%20Sale/Video_Store/Shelf_Big/Model/video_store_shelf_big__color.png</init_from>
    </image>
  </library_images>
  <library_effects>
    <effect id="FrontColor-effect">
      <profile_COMMON>
        <newparam sid="video_store_shelf_big__color_png-surface">
          <surface type="2D">
            <init_from>video_store_shelf_big__color_png</init_from>
          </surface>
        </newparam>
        <newparam sid="video_store_shelf_big__color_png-sampler">
          <sampler2D>
            <source>video_store_shelf_big__color_png-surface</source>
          </sampler2D>
        </newparam>
        <technique sid="common">
          <phong>
            <emission>
              <color sid="emission">0 0 0 1</color>
            </emission>
            <ambient>
              <color sid="ambient">0 0 0 1</color>
            </ambient>
            <diffuse>
              <texture texture="video_store_shelf_big__color_png-sampler" texcoord="UVMap"/>
            </diffuse>
            <specular>
              <color sid="specular">1 1 1 1</color>
            </specular>
            <shininess>
              <float sid="shininess">52</float>
            </shininess>
            <transparent opaque="A_ONE">
              <color>1 1 1 1</color>
            </transparent>
            <index_of_refraction>
              <float sid="index_of_refraction">1</float>
            </index_of_refraction>
          </phong>
        </technique>
      </profile_COMMON>
    </effect>
  </library_effects>
  <library_materials>
    <material id="FrontColor-material" name="FrontColor">
      <instance_effect url="#FrontColor-effect"/>
    </material>
  </library_materials>
  <library_geometries>
    <geometry id="Mesh11_Group12_Group1_Model-mesh" name="Mesh11_Group12_Group1_Model">
      <mesh>
        <source id="Mesh11_Group12_Group1_Model-mesh-positions">
          <float_array id="Mesh11_Group12_Group1_Model-mesh-positions-array" count="600">0.98 1.24 0.008999943 0.98 1.24 0.000999987 0.01999998 1.24 0.000999987 0.01999998 1.24 0.008999943 0.98 1.239 0 0.01999998 1.239 0 0.01999998 1.231 0 0.98 1.231 0 0.98 1.23 -0.000999987 0.01999998 1.23 -0.000999987 0.01999998 1.23 -0.04999995 0.98 1.23 -0.04999995 0.01999998 1.239 0.00999999 0.98 1.239 0.00999999 0.98 1.211 0.00999999 0.01999998 1.211 0.00999999 0.01999998 1.21 0.008999943 0.98 1.21 0.008999943 0.98 1.21 -0.04999995 0.01999998 1.21 -0.04999995 0.01999998 2.15 -0.04999995 0.01999998 2.15 -0.000999987 0.98 2.15 -0.000999987 0.98 2.15 -0.04999995 0.01999998 2.149 0 0.98 2.149 0 0.98 2.001 0 0.01999998 2.001 0 0.01999998 2 -0.000999987 0.98 2 -0.000999987 0.98 2 -0.04999995 0.01999998 2 -0.04999995 0.01999998 0.7 0.000999987 0.01999998 0.7 0.008999943 0.98 0.7 0.008999943 0.98 0.7 0.000999987 0.01999998 0.699 0.00999999 0.98 0.699 0.00999999 0.98 0.671 0.00999999 0.01999998 0.671 0.00999999 0.01999998 0.67 0.008999943 0.98 0.67 0.008999943 0.98 0.67 -0.04999995 0.01999998 0.67 -0.04999995 0.98 0.699 0 0.01999998 0.699 0 0.98 0.691 0 0.01999998 0.691 0 0.98 0.69 -0.000999987 0.01999998 0.69 -0.000999987 0.01999998 0.69 -0.04999995 0.98 0.69 -0.04999995 0.98 1.49 0.008999943 0.98 1.49 0.000999987 0.01999998 1.49 0.000999987 0.01999998 1.49 0.008999943 0.98 1.489 0 0.01999998 1.489 0 0.01999998 1.481 0 0.98 1.481 0 0.98 1.48 -0.000999987 0.01999998 1.48 -0.000999987 0.01999998 1.48 -0.04999995 0.98 1.48 -0.04999995 0.01999998 1.489 0.00999999 0.98 1.489 0.00999999 0.01999998 1.461 0.00999999 0.98 1.461 0.00999999 0.01999998 1.46 0.008999943 0.98 1.46 0.008999943 0.98 1.46 -0.04999995 0.01999998 1.46 -0.04999995 0.98 0.43 0.008999943 0.98 0.43 0.000999987 0.01999998 0.43 0.000999987 0.01999998 0.43 0.008999943 0.98 0.429 0 0.01999998 0.429 0 0.01999998 0.421 0 0.98 0.421 0 0.98 0.42 -0.000999987 0.01999998 0.42 -0.000999987 0.01999998 0.42 -0.04999995 0.98 0.42 -0.04999995 0.01999998 0.429 0.00999999 0.98 0.429 0.00999999 0.98 0.401 0.00999999 0.01999998 0.401 0.00999999 0.01999998 0.4 0.008999943 0.98 0.4 0.008999943 0.98 0.4 -0.04999995 0.01999998 0.4 -0.04999995 0.98 1.76 0.008999943 0.98 1.76 0.000999987 0.01999998 1.76 0.000999987 0.01999998 1.76 0.008999943 0.98 1.759 0 0.01999998 1.759 0 0.01999998 1.751 0 0.98 1.751 0 0.98 1.75 -0.000999987 0.01999998 1.75 -0.000999987 0.01999998 1.75 -0.04999995 0.98 1.75 -0.04999995 0.01999998 1.759 0.00999999 0.98 1.759 0.00999999 0.01999998 1.731 0.00999999 0.98 1.731 0.00999999 0.01999998 1.73 0.008999943 0.98 1.73 0.008999943 0.98 1.73 -0.04999995 0.01999998 1.73 -0.04999995 0.98 0.97 0.008999943 0.98 0.97 0.000999987 0.01999998 0.97 0.000999987 0.01999998 0.97 0.008999943 0.98 0.969 0 0.01999998 0.969 0 0.01999998 0.961 0 0.98 0.961 0 0.98 0.96 -0.000999987 0.01999998 0.96 -0.000999987 0.01999998 0.96 -0.04999995 0.98 0.96 -0.04999995 0.01999998 0.969 0.00999999 0.98 0.969 0.00999999 0.98 0.941 0.00999999 0.01999998 0.941 0.00999999 0.01999998 0.94 0.008999943 0.98 0.94 0.008999943 0.98 0.94 -0.04999995 0.01999998 0.94 -0.04999995 0 2 -0.04999995 0 0.15 -0.04999995 1 0.15 -0.04999995 1 2 -0.04999995 0.98 2.149 -0.04999995 0.98 0.000999987 -0.04999995 0.98 0.000999987 0.01899999 0.98 2.149 0.01899999 0.981 0 -0.04999995 0.981 0 0.01899999 0.999 0 0.01899999 0.999 0 -0.04999995 1 0.000999987 -0.04999995 1 0.000999987 0.01899999 0.999 2.15 -0.04999995 0.999 2.15 0.01899999 1 2.149 0.01899999 1 2.149 -0.04999995 0.981 2.15 0.01899999 0.981 2.15 -0.04999995 0.981 2.149 0.01999998 0.981 0.000999987 0.01999998 0.999 0.000999987 0.01999998 0.999 2.149 0.01999998 0 2.149 -0.04999995 0 0.000999987 -0.04999995 0 0.000999987 0.01899999 0 2.149 0.01899999 0.000999987 0 -0.04999995 0.000999987 0 0.01899999 0.01899999 0 0.01899999 0.01899999 0 -0.04999995 0.01999998 0.000999987 -0.04999995 0.01999998 0.000999987 0.01899999 0.01899999 2.15 -0.04999995 0.01899999 2.15 0.01899999 0.01999998 2.149 0.01899999 0.01999998 2.149 -0.04999995 0.000999987 2.15 0.01899999 0.000999987 2.15 -0.04999995 0.000999987 2.149 0.01999998 0.000999987 0.000999987 0.01999998 0.01899999 0.000999987 0.01999998 0.01899999 2.149 0.01999998 0.98 0.1299999 0 0.01999998 0.1299999 0 0.01999998 0 0 0.98 0 0 0.98 0.16 0.008999943 0.98 0.16 0.000999987 0.01999998 0.16 0.000999987 0.01999998 0.16 0.008999943 0.98 0.159 0 0.01999998 0.159 0 0.98 0.151 0 0.01999998 0.151 0 0.98 0.15 -0.000999987 0.01999998 0.15 -0.000999987 0.01999998 0.15 -0.04999995 0.98 0.15 -0.04999995 0.01999998 0.159 0.00999999 0.98 0.159 0.00999999 0.01999998 0.131 0.00999999 0.98 0.131 0.00999999 0.01999998 0.1299999 0.008999943 0.98 0.1299999 0.008999943 0.98 0.1299999 -0.04999995 0.01999998 0.1299999 -0.04999995</float_array>
          <technique_common>
            <accessor source="#Mesh11_Group12_Group1_Model-mesh-positions-array" count="200" stride="3">
              <param name="X" type="float"/>
              <param name="Y" type="float"/>
              <param name="Z" type="float"/>
            </accessor>
          </technique_common>
        </source>
        <source id="Mesh11_Group12_Group1_Model-mesh-normals">
          <float_array id="Mesh11_Group12_Group1_Model-mesh-normals-array" count="282">0 1 0 0 0.7070657 -0.7071478 0 0.7071534 -0.7070602 0 0.7071535 -0.7070601 0 0 -1 0 0.7071534 -0.7070601 0 0.7071534 0.7070602 0 0.7070658 0.7071478 0 0.7070657 0.7071478 0 0 1 0 -0.7071535 0.7070601 0 -0.7071536 0.7070601 0 -0.7071536 0.70706 0 -1 0 0 0.7071534 0.7070602 0 0.706978 0.7072355 0 0.7069779 0.7072357 0 -0.7071534 0.7070601 0 0.7071096 0.707104 0 0.7071096 0.707104 0 0.7071096 0.7071039 0 -0.7071096 0.707104 0 -0.7071096 0.707104 0 -0.7071096 0.7071039 0 0.7071096 -0.707104 0 0.7071096 -0.707104 0 0.7070657 -0.7071479 0 0.7071315 -0.7070821 0 0.7070876 -0.7071259 0 0.7070876 -0.707126 0 0.7070877 0.7071259 0 0.7071316 0.707082 0 0.7071316 0.707082 0 -0.7071315 0.707082 0 0.7070657 -0.7071479 0 0.7070658 -0.7071478 0 0.7071095 -0.707104 0 0.7070658 0.7071478 0 -0.7071534 0.7070602 0 -0.7070658 0.7071478 0 -0.7070657 0.7071478 -1 0 0 -0.4767571 -0.7385296 0.4767355 -0.7070705 -0.7071431 0 -0.7070695 -0.7071441 0 0.7071449 -0.7070687 0 0.7385291 -0.4767526 0.4767407 0.4767421 -0.7385274 0.476754 0.4768012 0.7384702 0.4767833 0.7071292 0.7070844 0 0.7071282 0.7070854 0 -0.7072036 0.70701 0 -0.7385707 0.4766929 0.4767361 -0.4767861 0.7384707 0.4767977 -0.4767551 0.476686 0.7385629 -0.7385647 -0.4767062 0.476732 -0.4767624 -0.4767601 0.7385103 0.476737 -0.4767269 0.7385481 0.7386063 0.4766467 0.4767271 0.4767801 0.476715 0.738528 1 0 0 -0.4767364 -0.7385402 0.4767398 -0.7071068 -0.7071068 0 -0.7071068 -0.7071068 0 0.7071065 -0.7071071 0 0.7385402 -0.4767363 0.4767398 0.4767574 -0.7385134 0.4767604 0.4767888 0.7384331 0.4768532 0.7071663 0.7070473 0 0.7071664 0.7070472 0 -0.7071655 0.7070482 0 -0.738582 0.4766751 0.4767364 -0.4767946 0.7385009 0.4767425 -0.4767583 0.4767556 0.738516 -0.7385501 -0.4767261 0.4767348 -0.4767598 -0.4767572 0.7385138 0.4767318 -0.4767286 0.7385504 0.7385922 0.4766668 0.4767287 0.4767688 0.4766554 0.7385737 0 0.7070987 -0.707115 0 0.7070987 0.7071149 0 0.7070987 0.7071149 0 -0.7070987 0.7071149 0 -0.7071151 0.7070985 0 -0.7071151 0.7070984 0 0.7071536 0.7070601 0 0.7071535 0.7070601 0 0.7071315 -0.707082 0 0.7070876 0.7071259 0 -0.7071316 0.707082 0.7071459 -0.7070677 0 -0.7072045 0.707009 0 0.7071065 -0.7071071 0 -0.7071655 0.7070481 0</float_array>
          <technique_common>
            <accessor source="#Mesh11_Group12_Group1_Model-mesh-normals-array" count="94" stride="3">
              <param name="X" type="float"/>
              <param name="Y" type="float"/>
              <param name="Z" type="float"/>
            </accessor>
          </technique_common>
        </source>
        <source id="Mesh11_Group12_Group1_Model-mesh-map-0">
          <float_array id="Mesh11_Group12_Group1_Model-mesh-map-0-array" count="1200">0.620569 0.807303 0.623301 0.479455 0.623301 0.807303 0.620569 0.807303 0.620227 0.479455 0.620569 0.479455 0.632393 0.479455 0.635124 0.807303 0.635124 0.479455 0.659554 0.488145 0.659895 0.815993 0.659554 0.815993 0.659554 0.488145 0.64282 0.815993 0.64282 0.488145 0.948076 0.833127 0.620227 0.833469 0.620227 0.833127 0.948076 0.833127 0.620227 0.823565 0.948076 0.823565 0.6449 0.004999995 0.644558 0.332848 0.6449 0.332848 0.6449 0.004999995 0.665049 0.332848 0.665049 0.004999995 0.485761 0.479455 0.469027 0.807303 0.469027 0.479455 0.485761 0.479455 0.486103 0.807303 0.485761 0.807303 0.493358 0.479455 0.543902 0.807303 0.543902 0.479455 0.551052 0.479455 0.55071 0.807303 0.551052 0.807303 0.551052 0.479455 0.567786 0.807303 0.567786 0.479455 0.1245149 0.479455 0.121783 0.807303 0.121783 0.479455 0.995 0.807058 0.667151 0.8074 0.667151 0.807058 0.995 0.807058 0.667151 0.797496 0.995 0.797496 0.005341947 0.479455 0.004999995 0.807303 0.005341947 0.807303 0.005341947 0.479455 0.02549099 0.807303 0.02549099 0.479455 0.121783 0.807303 0.121441 0.479455 0.121783 0.479455 0.03553897 0.807303 0.03280699 0.479455 0.03280699 0.807303 0.06170594 0.479455 0.06204795 0.807303 0.06170594 0.807303 0.06170594 0.479455 0.044972 0.807303 0.044972 0.479455 0.236486 0.824683 0.2392179 0.496834 0.2392179 0.824683 0.236486 0.824683 0.236145 0.496834 0.236486 0.496834 0.246572 0.496834 0.249305 0.824682 0.249305 0.496834 0.08603698 0.479455 0.08637899 0.807303 0.08603698 0.807303 0.08603698 0.479455 0.06930297 0.807303 0.06930297 0.479455 0.995 0.7723 0.667151 0.772641 0.667151 0.7723 0.667151 0.762737 0.995 0.7723 0.667151 0.7723 0.09397596 0.479455 0.093634 0.807303 0.09397596 0.807303 0.09397596 0.479455 0.114125 0.807303 0.114125 0.479455 0.13221 0.824683 0.134943 0.496834 0.134943 0.824683 0.13221 0.824683 0.131869 0.496834 0.13221 0.496834 0.144034 0.496834 0.146766 0.824683 0.146766 0.496834 0.172933 0.496834 0.1732749 0.824683 0.172933 0.824683 0.172933 0.496834 0.1562 0.824683 0.1562 0.496834 0.612655 0.824438 0.284807 0.824779 0.284807 0.824438 0.612655 0.824438 0.284807 0.814875 0.612655 0.814875 0.180872 0.496834 0.180531 0.824683 0.180872 0.824683 0.180872 0.496834 0.201022 0.824683 0.201022 0.496834 0.575383 0.807303 0.578115 0.479455 0.578115 0.807303 0.575383 0.807303 0.575041 0.479455 0.575383 0.479455 0.585469 0.479455 0.588201 0.807303 0.588201 0.479455 0.61263 0.479455 0.612972 0.807303 0.61263 0.807303 0.61263 0.479455 0.595896 0.807303 0.595896 0.479455 0.994999 0.789679 0.667151 0.790021 0.667151 0.789679 0.667151 0.780117 0.994999 0.789679 0.667151 0.789679 0.208679 0.496834 0.208338 0.824683 0.208679 0.824683 0.208679 0.496834 0.228829 0.824683 0.228829 0.496834 0.724845 0.332848 0.727577 0.004999995 0.727577 0.332848 0.724845 0.332848 0.724503 0.004999995 0.724845 0.004999995 0.734931 0.004999995 0.737663 0.332848 0.737663 0.004999995 0.789899 0.01195198 0.79024 0.3398 0.789899 0.3398 0.789899 0.01195198 0.773165 0.3398 0.773165 0.01195198 0.995 0.75492 0.667151 0.755262 0.667151 0.75492 0.995 0.75492 0.667151 0.745358 0.995 0.745358 0.257341 0.496834 0.257 0.824683 0.257341 0.824683 0.257341 0.496834 0.277491 0.824683 0.277491 0.496834 0.636791 0.346509 0.004999995 0.004999995 0.004999995 0.346509 0.738902 0.409512 0.005341947 0.385948 0.005341947 0.409512 0.739244 0.385948 0.738902 0.409512 0.739244 0.409512 0.004999995 0.354324 0.005341947 0.377888 0.004999995 0.377888 0.739244 0.377888 0.738902 0.354324 0.739244 0.354324 0.004999995 0.409512 0.005341947 0.385948 0.004999995 0.385948 0.004999995 0.385948 0.005341947 0.385948 0.005341947 0.385607 0.738902 0.385948 0.005341947 0.385607 0.005341947 0.385948 0.738902 0.385948 0.739244 0.385948 0.738902 0.385607 0.751505 0.004999995 0.745358 0.005341947 0.745358 0.004999995 0.004999995 0.377888 0.005341947 0.377888 0.005341947 0.378229 0.738902 0.377888 0.005341947 0.378229 0.005341947 0.377888 0.738902 0.377888 0.739244 0.377888 0.738902 0.378229 0.745358 0.739244 0.751505 0.738902 0.751505 0.739244 0.339653 0.496834 0.316089 0.502981 0.339653 0.502981 0.738902 0.354324 0.005341947 0.377888 0.005341947 0.354324 0.284807 0.496834 0.308371 0.502981 0.284807 0.502981 0.745358 0.738902 0.751505 0.005341947 0.751505 0.738902 0.738903 0.440453 0.005341947 0.416889 0.005341947 0.440453 0.378655 0.503323 0.402219 0.503664 0.402219 0.503323 0.402219 0.497176 0.378655 0.496834 0.378655 0.497176 0.738903 0.471736 0.738562 0.448172 0.738903 0.448172 0.004999995 0.440453 0.005341947 0.416889 0.004999995 0.416889 0.759603 0.739244 0.759262 0.738902 0.759603 0.738902 0.759262 0.005341947 0.759603 0.738902 0.759262 0.738902 0.759262 0.005341947 0.759603 0.004999995 0.759603 0.005341947 0.765749 0.004999995 0.759603 0.005341947 0.759603 0.004999995 0.765749 0.004999995 0.766091 0.005341947 0.765749 0.005341947 0.766091 0.738902 0.765749 0.005341947 0.766091 0.005341947 0.766091 0.738902 0.765749 0.739244 0.765749 0.738902 0.759603 0.739244 0.765749 0.738902 0.765749 0.739244 0.402219 0.497176 0.378655 0.503323 0.402219 0.503323 0.738562 0.448172 0.004999995 0.471736 0.004999995 0.448172 0.347372 0.496834 0.370936 0.502981 0.347372 0.502981 0.765749 0.005341947 0.759603 0.738902 0.759603 0.005341947 0.672365 0.332848 0.716761 0.004999995 0.672365 0.004999995 0.797838 0.332848 0.80057 0.004999995 0.80057 0.332848 0.797838 0.332848 0.797496 0.004999995 0.797838 0.004999995 0.775898 0.675221 0.773165 0.347372 0.773165 0.675221 0.800327 0.356062 0.800669 0.68391 0.800327 0.68391 0.800327 0.356062 0.783593 0.68391 0.783593 0.356062 0.461455 0.489017 0.133607 0.489359 0.133607 0.489017 0.133607 0.479455 0.461455 0.489017 0.133607 0.489017 0.808265 0.01368999 0.807924 0.341538 0.808265 0.341538 0.808265 0.01368999 0.828413 0.341538 0.828413 0.01368999 0.620569 0.807303 0.620569 0.479455 0.623301 0.479455 0.620569 0.807303 0.620227 0.807303 0.620227 0.479455 0.632393 0.479455 0.632393 0.807303 0.635124 0.807303 0.659554 0.488145 0.659895 0.488145 0.659895 0.815993 0.659554 0.488145 0.659554 0.815993 0.64282 0.815993 0.948076 0.833127 0.948076 0.833469 0.620227 0.833469 0.948076 0.833127 0.620227 0.833127 0.620227 0.823565 0.6449 0.004999995 0.644558 0.004999995 0.644558 0.332848 0.6449 0.004999995 0.6449 0.332848 0.665049 0.332848 0.485761 0.479455 0.485761 0.807303 0.469027 0.807303 0.485761 0.479455 0.486103 0.479455 0.486103 0.807303 0.493358 0.479455 0.493358 0.807303 0.543902 0.807303 0.551052 0.479455 0.55071 0.479455 0.55071 0.807303 0.551052 0.479455 0.551052 0.807303 0.567786 0.807303 0.1245149 0.479455 0.1245149 0.807303 0.121783 0.807303 0.995 0.807058 0.995 0.8074 0.667151 0.8074 0.995 0.807058 0.667151 0.807058 0.667151 0.797496 0.005341947 0.479455 0.004999995 0.479455 0.004999995 0.807303 0.005341947 0.479455 0.005341947 0.807303 0.02549099 0.807303 0.121783 0.807303 0.121441 0.807303 0.121441 0.479455 0.03553897 0.807303 0.03553897 0.479455 0.03280699 0.479455 0.06170594 0.479455 0.06204795 0.479455 0.06204795 0.807303 0.06170594 0.479455 0.06170594 0.807303 0.044972 0.807303 0.236486 0.824683 0.236486 0.496834 0.2392179 0.496834 0.236486 0.824683 0.236145 0.824683 0.236145 0.496834 0.246572 0.496834 0.246572 0.824682 0.249305 0.824682 0.08603698 0.479455 0.08637899 0.479455 0.08637899 0.807303 0.08603698 0.479455 0.08603698 0.807303 0.06930297 0.807303 0.995 0.7723 0.995 0.772641 0.667151 0.772641 0.667151 0.762737 0.995 0.762737 0.995 0.7723 0.09397596 0.479455 0.093634 0.479455 0.093634 0.807303 0.09397596 0.479455 0.09397596 0.807303 0.114125 0.807303 0.13221 0.824683 0.13221 0.496834 0.134943 0.496834 0.13221 0.824683 0.131869 0.824683 0.131869 0.496834 0.144034 0.496834 0.144034 0.824683 0.146766 0.824683 0.172933 0.496834 0.1732749 0.496834 0.1732749 0.824683 0.172933 0.496834 0.172933 0.824683 0.1562 0.824683 0.612655 0.824438 0.612655 0.824779 0.284807 0.824779 0.612655 0.824438 0.284807 0.824438 0.284807 0.814875 0.180872 0.496834 0.180531 0.496834 0.180531 0.824683 0.180872 0.496834 0.180872 0.824683 0.201022 0.824683 0.575383 0.807303 0.575383 0.479455 0.578115 0.479455 0.575383 0.807303 0.575041 0.807303 0.575041 0.479455 0.585469 0.479455 0.585469 0.807303 0.588201 0.807303 0.61263 0.479455 0.612972 0.479455 0.612972 0.807303 0.61263 0.479455 0.61263 0.807303 0.595896 0.807303 0.994999 0.789679 0.994999 0.790021 0.667151 0.790021 0.667151 0.780117 0.994999 0.780117 0.994999 0.789679 0.208679 0.496834 0.208338 0.496834 0.208338 0.824683 0.208679 0.496834 0.208679 0.824683 0.228829 0.824683 0.724845 0.332848 0.724845 0.004999995 0.727577 0.004999995 0.724845 0.332848 0.724503 0.332848 0.724503 0.004999995 0.734931 0.004999995 0.734931 0.332848 0.737663 0.332848 0.789899 0.01195198 0.79024 0.01195198 0.79024 0.3398 0.789899 0.01195198 0.789899 0.3398 0.773165 0.3398 0.995 0.75492 0.995 0.755262 0.667151 0.755262 0.995 0.75492 0.667151 0.75492 0.667151 0.745358 0.257341 0.496834 0.257 0.496834 0.257 0.824683 0.257341 0.496834 0.257341 0.824683 0.277491 0.824683 0.636791 0.346509 0.636791 0.004999995 0.004999995 0.004999995 0.738902 0.409512 0.738902 0.385948 0.005341947 0.385948 0.739244 0.385948 0.738902 0.385948 0.738902 0.409512 0.004999995 0.354324 0.005341947 0.354324 0.005341947 0.377888 0.739244 0.377888 0.738902 0.377888 0.738902 0.354324 0.004999995 0.409512 0.005341947 0.409512 0.005341947 0.385948 0.738902 0.385948 0.738902 0.385607 0.005341947 0.385607 0.751505 0.004999995 0.751505 0.005341947 0.745358 0.005341947 0.738902 0.377888 0.738902 0.378229 0.005341947 0.378229 0.745358 0.739244 0.745358 0.738902 0.751505 0.738902 0.339653 0.496834 0.316089 0.496834 0.316089 0.502981 0.738902 0.354324 0.738902 0.377888 0.005341947 0.377888 0.284807 0.496834 0.308371 0.496834 0.308371 0.502981 0.745358 0.738902 0.745358 0.005341947 0.751505 0.005341947 0.738903 0.440453 0.738903 0.416889 0.005341947 0.416889 0.378655 0.503323 0.378655 0.503664 0.402219 0.503664 0.402219 0.497176 0.402219 0.496834 0.378655 0.496834 0.738903 0.471736 0.738562 0.471736 0.738562 0.448172 0.004999995 0.440453 0.005341947 0.440453 0.005341947 0.416889 0.759262 0.005341947 0.759603 0.005341947 0.759603 0.738902 0.765749 0.004999995 0.765749 0.005341947 0.759603 0.005341947 0.766091 0.738902 0.765749 0.738902 0.765749 0.005341947 0.759603 0.739244 0.759603 0.738902 0.765749 0.738902 0.402219 0.497176 0.378655 0.497176 0.378655 0.503323 0.738562 0.448172 0.738562 0.471736 0.004999995 0.471736 0.347372 0.496834 0.370936 0.496834 0.370936 0.502981 0.765749 0.005341947 0.765749 0.738902 0.759603 0.738902 0.672365 0.332848 0.716761 0.332848 0.716761 0.004999995 0.797838 0.332848 0.797838 0.004999995 0.80057 0.004999995 0.797838 0.332848 0.797496 0.332848 0.797496 0.004999995 0.775898 0.675221 0.775898 0.347372 0.773165 0.347372 0.800327 0.356062 0.800669 0.356062 0.800669 0.68391 0.800327 0.356062 0.800327 0.68391 0.783593 0.68391 0.461455 0.489017 0.461455 0.489359 0.133607 0.489359 0.133607 0.479455 0.461455 0.479455 0.461455 0.489017 0.808265 0.01368999 0.807924 0.01368999 0.807924 0.341538 0.808265 0.01368999 0.808265 0.341538 0.828413 0.341538</float_array>
          <technique_common>
            <accessor source="#Mesh11_Group12_Group1_Model-mesh-map-0-array" count="600" stride="2">
              <param name="S" type="float"/>
              <param name="T" type="float"/>
            </accessor>
          </technique_common>
        </source>
        <vertices id="Mesh11_Group12_Group1_Model-mesh-vertices">
          <input semantic="POSITION" source="#Mesh11_Group12_Group1_Model-mesh-positions"/>
        </vertices>
        <polylist material="FrontColor-material" count="200">
          <input semantic="VERTEX" source="#Mesh11_Group12_Group1_Model-mesh-vertices" offset="0"/>
          <input semantic="NORMAL" source="#Mesh11_Group12_Group1_Model-mesh-normals" offset="1"/>
          <input semantic="TEXCOORD" source="#Mesh11_Group12_Group1_Model-mesh-map-0" offset="2" set="0"/>
          <vcount>3 3 3 3 3 3 3 3 3 3 3 3 3 3 3 3 3 3 3 3 3 3 3 3 3 3 3 3 3 3 3 3 3 3 3 3 3 3 3 3 3 3 3 3 3 3 3 3 3 3 3 3 3 3 3 3 3 3 3 3 3 3 3 3 3 3 3 3 3 3 3 3 3 3 3 3 3 3 3 3 3 3 3 3 3 3 3 3 3 3 3 3 3 3 3 3 3 3 3 3 3 3 3 3 3 3 3 3 3 3 3 3 3 3 3 3 3 3 3 3 3 3 3 3 3 3 3 3 3 3 3 3 3 3 3 3 3 3 3 3 3 3 3 3 3 3 3 3 3 3 3 3 3 3 3 3 3 3 3 3 3 3 3 3 3 3 3 3 3 3 3 3 3 3 3 3 3 3 3 3 3 3 3 3 3 3 3 3 3 3 3 3 3 3 3 3 3 3 3 3 </vcount>
          <p>1 0 0 3 0 1 0 0 2 1 1 3 5 2 4 2 3 5 5 4 6 7 4 7 6 4 8 9 5 9 7 5 10 8 3 11 9 0 12 11 0 13 10 0 14 13 6 15 3 7 16 12 8 17 13 9 18 15 9 19 14 9 20 17 10 21 15 11 22 16 12 23 17 13 24 19 13 25 18 13 26 21 0 27 23 0 28 20 0 29 21 14 30 25 15 31 22 16 32 25 9 33 27 9 34 26 9 35 29 17 36 27 17 37 28 10 38 29 13 39 31 13 40 30 13 41 33 0 42 35 0 43 32 0 44 37 18 45 33 19 46 36 20 47 37 9 48 39 9 49 38 9 50 41 21 51 39 22 52 40 23 53 41 13 54 43 13 55 42 13 56 35 24 57 45 24 58 32 25 59 46 4 60 45 4 61 44 4 62 49 2 63 46 1 64 48 26 65 49 0 66 51 0 67 50 0 68 53 0 69 55 0 70 52 0 71 53 1 72 57 2 73 54 3 74 57 4 75 59 4 76 58 4 77 61 5 78 59 5 79 60 3 80 61 0 81 63 0 82 62 0 83 65 6 84 55 7 85 64 8 86 66 9 87 65 9 88 64 9 89 69 10 90 66 11 91 68 12 92 69 13 93 71 13 94 70 13 95 73 0 96 75 0 97 72 0 98 73 27 99 77 28 100 74 29 101 77 4 102 79 4 103 78 4 104 81 28 105 79 24 106 80 24 107 81 0 108 83 0 109 82 0 110 85 30 111 75 31 112 84 32 113 85 9 114 87 9 115 86 9 116 89 33 117 87 22 118 88 23 119 89 13 120 91 13 121 90 13 122 93 0 123 95 0 124 92 0 125 93 26 126 97 34 127 94 34 128 97 4 129 99 4 130 98 4 131 101 35 132 99 2 133 100 3 134 101 0 135 103 0 136 102 0 137 105 8 138 95 8 139 104 8 140 106 9 141 105 9 142 104 9 143 109 10 144 106 11 145 108 12 146 109 13 147 111 13 148 110 13 149 113 0 150 115 0 151 112 0 152 113 36 153 117 1 154 114 34 155 117 4 156 119 4 157 118 4 158 121 24 159 119 24 160 120 24 161 121 0 162 123 0 163 122 0 164 125 37 165 115 18 166 124 20 167 125 9 168 127 9 169 126 9 170 129 38 171 127 39 172 128 40 173 129 13 174 131 13 175 130 13 176 133 9 177 135 9 178 132 9 179 137 41 180 139 41 181 136 41 182 141 42 183 137 43 184 140 44 185 143 45 186 145 46 187 142 47 188 147 48 189 149 49 190 146 50 191 151 51 192 139 52 193 150 53 194 150 53 195 139 52 196 152 54 197 138 55 198 152 54 199 139 52 200 138 55 201 141 42 202 153 56 203 142 47 204 153 56 205 141 42 206 142 47 207 145 46 208 154 57 209 148 58 210 154 57 211 145 46 212 148 58 213 147 48 214 155 59 215 150 53 216 155 59 217 147 48 218 143 13 219 141 13 220 140 13 221 149 60 222 145 60 223 144 60 224 151 0 225 147 0 226 146 0 227 152 9 228 154 9 229 155 9 230 157 41 231 159 41 232 156 41 233 161 61 234 157 62 235 160 63 236 163 64 237 165 65 238 162 66 239 167 67 240 169 68 241 166 69 242 171 70 243 159 71 244 170 72 245 170 72 246 159 71 247 172 73 248 158 74 249 172 73 250 159 71 251 158 74 252 161 61 253 173 75 254 162 66 255 173 75 256 161 61 257 162 66 258 165 65 259 174 76 260 168 77 261 174 76 262 165 65 263 168 77 264 167 67 265 175 78 266 170 72 267 175 78 268 167 67 269 163 13 270 161 13 271 160 13 272 169 60 273 165 60 274 164 60 275 171 0 276 167 0 277 166 0 278 174 9 279 172 9 280 173 9 281 177 9 282 179 9 283 176 9 284 181 0 285 183 0 286 180 0 287 181 79 288 185 24 289 182 25 290 186 4 291 185 4 292 184 4 293 189 24 294 186 24 295 188 24 296 189 0 297 191 0 298 190 0 299 193 18 300 183 80 301 192 81 302 194 9 303 193 9 304 192 9 305 197 82 306 194 83 307 196 84 308 197 13 309 199 13 310 198 13 311 1 0 312 2 0 313 3 0 314 1 1 315 4 26 316 5 2 317 5 4 318 4 4 319 7 4 320 9 5 321 6 3 322 7 5 323 9 0 324 8 0 325 11 0 326 13 6 327 0 85 328 3 7 329 13 9 330 12 9 331 15 9 332 17 10 333 14 11 334 15 11 335 17 13 336 16 13 337 19 13 338 21 0 339 22 0 340 23 0 341 21 14 342 24 86 343 25 15 344 25 9 345 24 9 346 27 9 347 29 17 348 26 10 349 27 17 350 29 13 351 28 13 352 31 13 353 33 0 354 34 0 355 35 0 356 37 18 357 34 19 358 33 19 359 37 9 360 36 9 361 39 9 362 41 21 363 38 22 364 39 22 365 41 13 366 40 13 367 43 13 368 35 24 369 44 24 370 45 24 371 46 4 372 47 4 373 45 4 374 49 2 375 47 3 376 46 1 377 49 0 378 48 0 379 51 0 380 53 0 381 54 0 382 55 0 383 53 1 384 56 26 385 57 2 386 57 4 387 56 4 388 59 4 389 61 5 390 58 3 391 59 5 392 61 0 393 60 0 394 63 0 395 65 6 396 52 85 397 55 7 398 66 9 399 67 9 400 65 9 401 69 10 402 67 11 403 66 11 404 69 13 405 68 13 406 71 13 407 73 0 408 74 0 409 75 0 410 73 27 411 76 87 412 77 28 413 77 4 414 76 4 415 79 4 416 81 28 417 78 29 418 79 24 419 81 0 420 80 0 421 83 0 422 85 30 423 72 88 424 75 31 425 85 9 426 84 9 427 87 9 428 89 33 429 86 89 430 87 22 431 89 13 432 88 13 433 91 13 434 93 0 435 94 0 436 95 0 437 93 26 438 96 26 439 97 34 440 97 4 441 96 4 442 99 4 443 101 35 444 98 34 445 99 2 446 101 0 447 100 0 448 103 0 449 105 8 450 92 8 451 95 8 452 106 9 453 107 9 454 105 9 455 109 10 456 107 11 457 106 11 458 109 13 459 108 13 460 111 13 461 113 0 462 114 0 463 115 0 464 113 36 465 116 24 466 117 1 467 117 4 468 116 4 469 119 4 470 121 24 471 118 25 472 119 24 473 121 0 474 120 0 475 123 0 476 125 37 477 112 8 478 115 18 479 125 9 480 124 9 481 127 9 482 129 38 483 126 11 484 127 39 485 129 13 486 128 13 487 131 13 488 133 9 489 134 9 490 135 9 491 137 41 492 138 41 493 139 41 494 141 42 495 138 55 496 137 43 497 143 45 498 144 90 499 145 46 500 147 48 501 148 58 502 149 49 503 151 51 504 136 91 505 139 52 506 138 55 507 153 56 508 152 54 509 142 47 510 154 57 511 153 56 512 148 58 513 155 59 514 154 57 515 150 53 516 152 54 517 155 59 518 143 13 519 142 13 520 141 13 521 149 60 522 148 60 523 145 60 524 151 0 525 150 0 526 147 0 527 152 9 528 153 9 529 154 9 530 157 41 531 158 41 532 159 41 533 161 61 534 158 74 535 157 62 536 163 64 537 164 92 538 165 65 539 167 67 540 168 77 541 169 68 542 171 70 543 156 93 544 159 71 545 158 74 546 173 75 547 172 73 548 162 66 549 174 76 550 173 75 551 168 77 552 175 78 553 174 76 554 170 72 555 172 73 556 175 78 557 163 13 558 162 13 559 161 13 560 169 60 561 168 60 562 165 60 563 171 0 564 170 0 565 167 0 566 174 9 567 175 9 568 172 9 569 177 9 570 178 9 571 179 9 572 181 0 573 182 0 574 183 0 575 181 79 576 184 79 577 185 24 578 186 4 579 187 4 580 185 4 581 189 24 582 187 25 583 186 24 584 189 0 585 188 0 586 191 0 587 193 18 588 180 19 589 183 80 590 194 9 591 195 9 592 193 9 593 197 82 594 195 82 595 194 83 596 197 13 597 196 13 598 199 13 599</p>
        </polylist>
      </mesh>
    </geometry>
  </library_geometries>
  <library_controllers/>
  <library_visual_scenes>
    <visual_scene id="Scene" name="Scene">
      <node id="Camera" name="Camera" type="NODE">
        <matrix sid="transform">0.6859207 -0.3240135 0.6515582 7.481132 0.7276763 0.3054208 -0.6141704 -6.50764 0 0.8953956 0.4452714 5.343665 0 0 0 1</matrix>
        <instance_camera url="#Camera-camera"/>
      </node>
      <node id="Lamp" name="Lamp" type="NODE">
        <matrix sid="transform">-0.2908646 -0.7711008 0.5663932 4.076245 0.9551712 -0.1998834 0.2183912 1.005454 -0.05518906 0.6045247 0.7946723 5.903862 0 0 0 1</matrix>
        <instance_light url="#Lamp-light"/>
      </node>
      <node id="Mesh11_Group12_Group1_Model" name="Mesh11_Group12_Group1_Model" type="NODE">
        <matrix sid="transform">1 0 0 0 0 -1.62921e-7 -1 0 0 1 -1.62921e-7 0 0 0 0 1</matrix>
        <instance_geometry url="#Mesh11_Group12_Group1_Model-mesh" name="Mesh11_Group12_Group1_Model">
          <bind_material>
            <technique_common>
              <instance_material symbol="FrontColor-material" target="#FrontColor-material">
                <bind_vertex_input semantic="UVMap" input_semantic="TEXCOORD" input_set="0"/>
              </instance_material>
            </technique_common>
          </bind_material>
        </instance_geometry>
      </node>
    </visual_scene>
  </library_visual_scenes>
  <scene>
    <instance_visual_scene url="#Scene"/>
  </scene>
</COLLADA>