<?xml version="1.0" encoding="utf-8"?>
<COLLADA xmlns="http://www.collada.org/2005/11/COLLADASchema" version="1.4.1">
  <asset>
    <contributor>
      <author>Blender User</author>
      <authoring_tool>Blender 2.78.0 commit date:2016-10-24, commit time:12:20, hash:e8299c8</authoring_tool>
    </contributor>
    <created>2021-11-04T18:19:36</created>
    <modified>2021-11-04T18:19:36</modified>
    <unit name="meter" meter="1"/>
    <up_axis>Z_UP</up_axis>
  </asset>
  <library_images>
    <image id="video_store_adults_door__color_png" name="video_store_adults_door__color_png">
      <init_from>/I:/3D_Asset_Packages/For%20Sale/Video_Store/Adults_Door/Model/video_store_adults_door__color.png</init_from>
    </image>
  </library_images>
  <library_effects>
    <effect id="FrontColor-effect">
      <profile_COMMON>
        <newparam sid="video_store_adults_door__color_png-surface">
          <surface type="2D">
            <init_from>video_store_adults_door__color_png</init_from>
          </surface>
        </newparam>
        <newparam sid="video_store_adults_door__color_png-sampler">
          <sampler2D>
            <source>video_store_adults_door__color_png-surface</source>
          </sampler2D>
        </newparam>
        <technique sid="common">
          <phong>
            <emission>
              <color sid="emission">0 0 0 1</color>
            </emission>
            <ambient>
              <color sid="ambient">0 0 0 1</color>
            </ambient>
            <diffuse>
              <texture texture="video_store_adults_door__color_png-sampler" texcoord="UVMap"/>
            </diffuse>
            <specular>
              <color sid="specular">1 1 1 1</color>
            </specular>
            <shininess>
              <float sid="shininess">52</float>
            </shininess>
            <transparent opaque="A_ONE">
              <color>1 1 1 1</color>
            </transparent>
            <index_of_refraction>
              <float sid="index_of_refraction">1</float>
            </index_of_refraction>
          </phong>
        </technique>
      </profile_COMMON>
    </effect>
  </library_effects>
  <library_materials>
    <material id="FrontColor-material" name="FrontColor">
      <instance_effect url="#FrontColor-effect"/>
    </material>
  </library_materials>
  <library_geometries>
    <geometry id="Mesh3_Group4_Group1_Model-mesh" name="Mesh3_Group4_Group1_Model">
      <mesh>
        <source id="Mesh3_Group4_Group1_Model-mesh-positions">
          <float_array id="Mesh3_Group4_Group1_Model-mesh-positions-array" count="822">0.45 1.95 0.01999998 0.488 1.988 0.01999998 -0.488 1.988 0.01999998 -0.45 1.95 0.01999998 0.45 0 0.01999998 0.488 0 0.01999998 -0.488 0 0.01999998 -0.45 0 0.01999998 0.49 0 0.01799994 0.49 1.99 0.01799994 0.49 1.99 0 0.49 0 0 -0.49 1.99 0 -0.49 1.99 0.01799994 -0.49 0 0 -0.49 0 0.01799994 -0.45 0 0 -0.45 1.95 0 0.45 1.95 0 0.45 0 0 -0.45 0.01949995 0 -0.45 0 0 0.45 0 0 0.45 0.01949995 0 -0.45 0.01949995 0.01999998 0.45 0.01949995 0.01999998 -0.36214 0.98675 0.099994 -0.358454 0.992713 0.099994 -0.366114 0.992978 0.099119 -0.354479 0.986485 0.099119 -0.358694 0.979858 0.09748995 -0.365577 0.981188 0.09746497 -0.369845 0.98675 0.09748995 -0.372826 0.992713 0.09532397 -0.368567 0.999605 0.09532397 -0.3619 0.999605 0.09748995 -0.355017 0.998275 0.09746497 -0.350749 0.992713 0.09748995 -0.347767 0.98675 0.09532397 -0.352027 0.979858 0.09532397 -0.356798 0.974345 0.09198296 -0.349897 0.975599 0.08876997 -0.346473 0.981188 0.09125798 -0.344322 0.979858 0.084719 -0.348974 0.974345 0.08121401 -0.344322 0.979858 0.07770895 -0.349897 0.975599 0.07365798 -0.346473 0.981188 0.07116997 -0.352027 0.979858 0.06710398 -0.356798 0.974345 0.070445 -0.358694 0.979858 0.06493699 -0.364269 0.975599 0.06898796 -0.365577 0.981188 0.06496298 -0.371161 0.979858 0.06898796 -0.369457 0.974345 0.07455796 -0.375281 0.979858 0.07466 -0.373152 0.975599 0.08121401 -0.377384 0.981188 0.08121401 -0.375281 0.979858 0.08776795 -0.369457 0.974345 0.08787 -0.371161 0.979858 0.09343999 -0.364269 0.975599 0.09343999 -0.362426 0.971914 0.08776795 -0.354722 0.971914 0.08526498 -0.354722 0.971914 0.07716298 -0.362426 0.971914 0.07466 -0.367188 0.971914 0.08121401 -0.360297 0.970627 0.08121401 -0.375528 0.986485 0.09227997 -0.378727 0.98675 0.08526498 -0.378727 0.98675 0.07716298 -0.379123 0.992978 0.08121401 -0.377588 0.992713 0.08876997 -0.374121 0.998275 0.09125798 -0.376272 0.999605 0.084719 -0.370697 1.00386 0.08876997 -0.37162 1.00512 0.08121401 -0.376272 0.999605 0.07770895 -0.370697 1.00386 0.07365798 -0.374121 0.998275 0.07116997 -0.368567 0.999605 0.06710398 -0.363796 1.00512 0.070445 -0.3619 0.999605 0.06493699 -0.356324 1.00386 0.06898796 -0.355017 0.998275 0.06496298 -0.349433 0.999605 0.06898796 -0.351136 1.00512 0.07455796 -0.345312 0.999605 0.07466 -0.347442 1.00386 0.08121401 -0.343209 0.998275 0.08121401 -0.345312 0.999605 0.08776795 -0.351136 1.00512 0.08787 -0.349433 0.999605 0.09343999 -0.356324 1.00386 0.09343999 -0.363796 1.00512 0.09198296 -0.365872 1.00755 0.08526498 -0.365872 1.00755 0.07716298 -0.358167 1.00755 0.07466 -0.353405 1.00755 0.08121401 -0.358167 1.00755 0.08776795 -0.360297 1.00884 0.08121401 -0.345066 0.992978 0.09227997 -0.341867 0.992713 0.08526498 -0.341867 0.992713 0.07716298 -0.34147 0.986485 0.08121401 -0.343006 0.98675 0.08876997 -0.343006 0.98675 0.07365798 -0.347767 0.98675 0.06710398 -0.354479 0.986485 0.06330895 -0.36214 0.98675 0.06243395 -0.369845 0.98675 0.06493699 -0.375528 0.986485 0.07014799 -0.377588 0.992713 0.07365798 -0.372826 0.992713 0.06710398 -0.366115 0.992978 0.06330895 -0.358454 0.992713 0.06243395 -0.350749 0.992713 0.06493699 -0.345066 0.992978 0.07014799 0.45 0.01949995 0.01999998 0.45 0.01949995 0.03799998 -0.45 0.01949995 0.03799998 -0.45 0.01949995 0.01999998 0.45 1.95 0.01999998 0.45 1.95 0.03799998 -0.45 1.95 0.01999998 -0.45 1.95 0.03799998 -0.448 0.02147996 0.03999996 -0.448 1.94802 0.03999996 0.448 0.02147996 0.03999996 0.448 1.94802 0.03999996 -0.355854 0.997427 0.07418799 -0.355854 0.997427 0.05367499 -0.357997 0.998314 0.05367499 -0.357997 0.998314 0.07418799 -0.354014 0.996015 0.07418799 -0.354014 0.996015 0.05367499 -0.352602 0.994174 0.07418799 -0.352602 0.994174 0.05367499 -0.351714 0.992031 0.07418799 -0.351714 0.992031 0.05367499 -0.351411 0.989732 0.07418799 -0.351411 0.989732 0.05367499 -0.351714 0.987432 0.07418799 -0.351714 0.987432 0.05367499 -0.352602 0.985289 0.07418799 -0.352602 0.985289 0.05367499 -0.354014 0.983449 0.07418799 -0.354014 0.983449 0.05367499 -0.355854 0.982037 0.07418799 -0.355854 0.982037 0.05367499 -0.357997 0.981149 0.07418799 -0.357997 0.981149 0.05367499 -0.360297 0.980846 0.07418799 -0.360297 0.980846 0.05367499 -0.362597 0.981149 0.07418799 -0.362597 0.981149 0.05367499 -0.36474 0.982037 0.07418799 -0.36474 0.982037 0.05367499 -0.36658 0.983449 0.07418799 -0.36658 0.983449 0.05367499 -0.367992 0.985289 0.07418799 -0.367992 0.985289 0.05367499 -0.36888 0.987432 0.07418799 -0.36888 0.987432 0.05367499 -0.369182 0.989732 0.07418799 -0.369182 0.989732 0.05367499 -0.36888 0.992031 0.07418799 -0.36888 0.992031 0.05367499 -0.367992 0.994174 0.07418799 -0.367992 0.994174 0.05367499 -0.36658 0.996015 0.07418799 -0.36658 0.996015 0.05367499 -0.36474 0.997427 0.07418799 -0.36474 0.997427 0.05367499 -0.362597 0.998314 0.07418799 -0.362597 0.998314 0.05367499 -0.360297 0.998617 0.07418799 -0.360297 0.998617 0.05367499 -0.357402 1.00053 0.05139595 -0.360297 1.00092 0.05139595 -0.354705 0.999418 0.05139595 -0.352388 0.99764 0.05139595 -0.350611 0.995324 0.05139595 -0.349494 0.992626 0.05139595 -0.349112 0.989732 0.05139595 -0.349494 0.986837 0.05139595 -0.350611 0.984139 0.05139595 -0.352388 0.981823 0.05139595 -0.354705 0.980046 0.05139595 -0.357402 0.978928 0.05139595 -0.360297 0.978547 0.05139595 -0.363192 0.978928 0.05139595 -0.365889 0.980046 0.05139595 -0.368205 0.981823 0.05139595 -0.369983 0.984139 0.05139595 -0.3711 0.986837 0.05139595 -0.371481 0.989732 0.05139595 -0.3711 0.992626 0.05139595 -0.369983 0.995324 0.05139595 -0.368205 0.99764 0.05139595 -0.365889 0.999418 0.05139595 -0.363192 1.00053 0.05139595 -0.353518 1.01503 0.05139595 -0.360297 1.01592 0.05139595 -0.367076 1.01503 0.05139595 -0.347201 1.01241 0.05139595 -0.341777 1.00825 0.05139595 -0.337615 1.00283 0.05139595 -0.334998 0.99651 0.05139595 -0.334106 0.989732 0.05139595 -0.334998 0.982953 0.05139595 -0.337615 0.976636 0.05139595 -0.341777 0.971212 0.05139595 -0.347201 0.967049 0.05139595 -0.353518 0.964433 0.05139595 -0.360297 0.96354 0.05139595 -0.367076 0.964433 0.05139595 -0.373392 0.967049 0.05139595 -0.378817 0.971212 0.05139595 -0.382979 0.976636 0.05139595 -0.385596 0.982953 0.05139595 -0.386488 0.989732 0.05139595 -0.385596 0.99651 0.05139595 -0.382979 1.00283 0.05139595 -0.378817 1.00825 0.05139595 -0.373392 1.01241 0.05139595 -0.360297 1.01822 0.04911696 -0.367671 1.01725 0.04911696 -0.352923 1.01725 0.04911696 -0.346052 1.0144 0.04911696 -0.340151 0.969586 0.04911696 -0.335624 0.975487 0.04911696 -0.346052 0.965059 0.04911696 -0.352923 0.962212 0.04911696 -0.360297 0.961242 0.04911696 -0.367671 0.962212 0.04911696 -0.374542 0.965059 0.04911696 -0.380442 0.969586 0.04911696 -0.38497 0.975487 0.04911696 -0.387816 0.982358 0.04911696 -0.388787 0.989732 0.04911696 -0.387816 0.997105 0.04911696 -0.38497 1.00398 0.04911696 -0.380442 1.00988 0.04911696 -0.374542 1.0144 0.04911696 -0.340151 1.00988 0.04911696 -0.335624 1.00398 0.04911696 -0.332778 0.997105 0.04911696 -0.331807 0.989732 0.04911696 -0.332778 0.982358 0.04911696 -0.374542 1.0144 0.03999996 -0.367671 1.01725 0.03999996 -0.380442 1.00988 0.03999996 -0.38497 1.00398 0.03999996 -0.387816 0.997105 0.03999996 -0.388787 0.989732 0.03999996 -0.387816 0.982358 0.03999996 -0.38497 0.975487 0.03999996 -0.380442 0.969586 0.03999996 -0.374542 0.965059 0.03999996 -0.367671 0.962212 0.03999996 -0.360297 0.961242 0.03999996 -0.352923 0.962212 0.03999996 -0.346052 0.965059 0.03999996 -0.340151 0.969586 0.03999996 -0.335624 0.975487 0.03999996 -0.332778 0.982358 0.03999996 -0.331807 0.989732 0.03999996 -0.332778 0.997105 0.03999996 -0.335624 1.00398 0.03999996 -0.340151 1.00988 0.03999996 -0.346052 1.0144 0.03999996 -0.352923 1.01725 0.03999996 -0.360297 1.01822 0.03999996</float_array>
          <technique_common>
            <accessor source="#Mesh3_Group4_Group1_Model-mesh-positions-array" count="274" stride="3">
              <param name="X" type="float"/>
              <param name="Y" type="float"/>
              <param name="Z" type="float"/>
            </accessor>
          </technique_common>
        </source>
        <source id="Mesh3_Group4_Group1_Model-mesh-normals">
          <float_array id="Mesh3_Group4_Group1_Model-mesh-normals-array" count="1140">0 0 1 0 0 1 0 0 1 0 0 1 0.7071056 0 0.707108 0.7071063 0 0.7071073 0.7071056 0 0.707108 1 0 0 0 1 0 -1 0 0 -0.7071056 0 0.707108 -0.7071063 0 0.7071073 -0.7071063 0 0.7071073 0 -1 0 0 0.7071427 0.7070709 0 0.707074 0.7071396 0 0.7070738 0.7071397 -0.100355 -0.1656958 0.9810575 0.1003459 0.1657025 0.9810574 -0.3038775 0.1817548 0.9352132 0.3038734 -0.181752 0.935215 0.07625776 -0.5160534 0.8531553 -0.2763658 -0.4471802 0.8506773 -0.4954831 -0.1656414 0.8526779 -0.6578088 0.1656762 0.7347375 -0.439877 0.5160515 0.7349824 -0.07612788 0.5160627 0.8531611 0.276346 0.4472941 0.8506238 0.4955088 0.1656453 0.8526621 0.6578179 -0.1656349 0.7347385 0.4397546 -0.5160622 0.7350481 0.1861194 -0.7982653 0.5728282 0.5489153 -0.7346038 0.3988098 0.7236204 -0.4471933 0.5257298 0.8349463 -0.5160606 0.1911706 0.602294 -0.7982745 0 0.8349485 -0.5160566 -0.1911713 0.5489159 -0.7346034 -0.3988099 0.7236201 -0.4471935 -0.52573 0.4398369 -0.5160579 -0.735002 0.1861297 -0.7982794 -0.5728053 0.07625597 -0.516047 -0.8531592 -0.2096597 -0.7346153 -0.6452776 -0.2763817 -0.4472053 -0.8506589 -0.5631668 -0.516079 -0.6453725 -0.4872553 -0.7982831 -0.3540148 -0.7878466 -0.5160585 -0.3361271 -0.6785016 -0.734599 -4.46104e-7 -0.8944394 -0.4471891 0 -0.7878418 -0.5160679 0.336124 -0.4872553 -0.7982832 0.3540146 -0.5631667 -0.5160549 0.645392 -0.2096377 -0.7346046 0.645297 -0.1076894 -0.9373091 0.3314432 0.281948 -0.937306 0.2048481 0.2819491 -0.9373055 -0.2048493 -0.1076898 -0.9373086 -0.3314448 -0.3485044 -0.9373072 -5.22472e-7 -7.24032e-6 -1 0 -0.7955533 -0.1817223 0.5779896 -0.9640539 -0.165676 0.2077297 -0.9640539 -0.1656762 -0.2077296 -0.9833465 0.1817408 -2.12342e-7 -0.9020432 0.1656796 0.3985831 -0.7235727 0.4472855 0.5257169 -0.8349381 0.5160527 0.1912277 -0.5490038 0.7345027 0.3988741 -0.602356 0.7982276 0 -0.8349379 0.5160527 -0.1912284 -0.5490043 0.7345023 -0.3988744 -0.7235726 0.4472857 -0.525717 -0.4399152 0.5160636 -0.7349511 -0.1861482 0.7982299 -0.5728682 -0.07612079 0.5160593 -0.8531638 0.2097052 0.7345013 -0.6453926 0.276362 0.4473192 -0.8506054 0.5630802 0.5160655 -0.6454588 0.4873288 0.7982207 -0.3540544 0.7878726 0.5160559 -0.33607 0.6785994 0.7345086 -3.98373e-7 0.8943971 0.4472739 0 0.787873 0.5160552 0.3360705 0.4873279 0.7982214 0.354054 0.5630413 0.5160357 0.6455166 0.2096834 0.7344892 0.6454136 -0.1861375 0.7982158 0.5728912 -0.2821805 0.9371982 0.2050214 -0.2821809 0.937198 -0.2050216 0.1077789 0.9372024 -0.3317159 0.3487628 0.937211 -2.44007e-7 0.1077781 0.9372032 0.331714 -1.13276e-5 1 0 0.7955519 0.181725 0.5779908 0.9640524 0.1656064 0.2077921 0.9640526 0.1656047 -0.2077921 0.9833484 -0.1817305 -1.3737e-7 0.9020394 -0.1656781 0.3985922 0.9020593 -0.1656382 -0.3985638 0.6578274 -0.1656695 -0.7347223 0.3038739 -0.1817573 -0.9352139 -0.1003299 -0.1656689 -0.9810647 -0.4954808 -0.1656561 -0.8526762 -0.7955722 -0.1817214 -0.5779639 -0.9020434 0.1656798 -0.3985826 -0.6578146 0.1656702 -0.7347335 -0.3038951 0.1817574 -0.935207 0.1002972 0.1656277 -0.9810749 0.4954684 0.1656831 -0.8526783 0.7955709 0.1817249 -0.5779646 -0.707111 0 0.7071027 -0.7071134 0 0.7071003 0 -0.7106505 0.7035453 0 -0.7106514 0.7035443 0.707111 0 0.7071027 0.7071134 0 0.7071003 0.7071109 0 0.7071027 0 0.7106629 0.7035328 0 0.710631 0.7035649 0 0.710631 0.703565 0.4999076 0.8660789 0 0.2587329 0.9659489 0 0.4999073 0.8660789 0 0.7071997 0.7070139 0 0.7071945 0.7070192 0 0.8660529 0.4999524 0 0.8660408 0.4999733 0 0.9658938 0.2589391 0 0.9658893 0.2589555 0 1 3.01642e-5 0 1 3.02551e-5 0 0.9658972 -0.2589262 0 0.9659016 -0.25891 0 0.8659744 -0.5000883 0 0.8659865 -0.5000677 0 0.7071006 -0.707113 0 0.7071056 -0.707108 0 0.500072 -0.8659839 0 0.5000718 -0.865984 0 0.2589288 -0.9658965 0 0.258931 -0.965896 0 -2.38252e-6 -1 0 2.37774e-6 -1 0 -0.2589311 -0.9658958 0 -0.2589253 -0.9658975 0 -0.5000718 -0.8659839 0 -0.5000686 -0.8659859 0 -0.7071002 -0.7071135 0 -0.7071052 -0.7071084 0 -0.8659831 -0.5000733 0 -0.8659825 -0.5000744 0 -0.9659544 -0.2587125 0 -0.9659546 -0.258712 0 -1 2.10875e-5 0 -1 3.91611e-5 0 -0.9659469 0.258741 0 -0.9659466 0.2587417 0 -0.8660491 0.4999592 0 -0.8660495 0.4999583 0 -0.7071993 0.7070143 0 -0.707194 0.7070196 0 -0.4999042 0.8660807 0 -0.4999071 0.866079 0 -0.2587297 0.9659498 0 -0.2587352 0.9659484 0 2.37773e-6 1 0 -2.36816e-6 1 0 0.2587353 0.9659483 0 0.1825438 0.6801669 0.7099654 0 0.7041044 0.7100965 0.1823032 0.6807184 0.7094985 0.3518258 0.6100279 0.7099891 0.3515495 0.6099828 0.7101647 0.4978483 0.4977864 0.7101802 0.4978457 0.4977956 0.7101756 0.609711 0.3519145 0.7102174 0.6097488 0.3519313 0.7101767 0.6800426 0.1822906 0.7101495 0.6800983 0.1823345 0.7100848 0.704052 1.93328e-5 0.7101485 0.7040056 1.50794e-5 0.7101944 0.6800544 -0.1822748 0.7101423 0.6801078 -0.1823115 0.7100816 0.6096903 -0.3520107 0.7101875 0.6096791 -0.3519318 0.7102362 0.497756 -0.4978165 0.7102238 0.4977149 -0.4978061 0.7102598 0.3520171 -0.6096762 0.7101964 0.3520796 -0.6096815 0.7101609 0.1823105 -0.6799595 0.7102239 0.1822881 -0.6799573 0.7102319 0 -0.7039647 0.710235 0 -0.7039821 0.7102178 -0.1822882 -0.6799573 0.7102318 -0.1823096 -0.6799619 0.7102218 -0.3520606 -0.6096797 0.7101718 -0.3520691 -0.6096867 0.7101616 -0.49778 -0.4979014 0.7101473 -0.4977999 -0.4978369 0.7101786 -0.6096794 -0.3519986 0.7102029 -0.6096855 -0.3520039 0.710195 -0.680102 -0.1821953 0.7101171 -0.6800894 -0.1822025 0.7101273 -0.7040672 1.56435e-5 0.7101334 -0.7040098 2.35527e-5 0.7101902 -0.6800966 0.182228 0.7101139 -0.6800754 0.1822081 0.7101393 -0.6097499 0.3519269 0.7101779 -0.6097113 0.3519812 0.7101841 -0.4978858 0.4978684 0.7100962 -0.4978784 0.4979088 0.7100732 -0.3518688 0.6100279 0.7099679 -0.3516098 0.6099555 0.7101584 -0.182543 0.6801693 0.7099633 -0.1823045 0.6807141 0.7095022 0 0.7033861 0.710808 -4.24919e-7 0 1 2.00662e-7 0 1 1.4311e-7 0 1 -4.17178e-7 0 1 0 0 1 -1.33771e-6 0 1 0 0 1 0 0 1 0 0 1 -1.79846e-7 0 1 0 0 1 2.86245e-7 0 1 -2.46915e-7 0 1 -3.35023e-7 0 1 2.86076e-7 0 1 -4.18358e-7 0 1 1.62621e-7 0 1 8.37454e-7 0 1 -3.90149e-7 0 1 4.66475e-7 0 1 0 0 1 -6.03096e-7 0 1 9.73144e-7 0 1 0 0 1 0 0 1 -9.7322e-7 0 1 6.03094e-7 0 1 0 0 1 -4.66657e-7 0 1 6.39271e-7 0 1 -8.37644e-7 0 1 7.45153e-7 0 1 1.23497e-7 0 1 4.18308e-7 0 1 -2.86077e-7 0 1 1.2459e-7 0 1 0 0 1 1.43053e-7 0 1 0 0 1 -2.86242e-7 0 1 3.22778e-7 0 1 0 0 1 0 0 1 -3.79754e-7 0 1 6.26859e-7 0 1 -3.13287e-7 0 1 -2.30931e-7 0 1 3.23417e-7 0 1 -0.1823366 0.6800395 0.7101407 0 0.7039511 0.7102485 -0.1823525 0.6800631 0.7101139 0.1823337 0.6800487 0.7101327 0 0.7038879 0.7103111 0.3520594 0.6097468 0.7101149 0.1823524 0.680062 0.7101151 0.6097063 -0.3520147 0.7101718 0.4977471 -0.497785 0.710252 0.6097418 -0.3520003 0.7101485 0.4977626 -0.4977916 0.7102365 0.3520672 -0.6097741 0.7100875 0.1822183 -0.6800398 0.7101707 0.3520998 -0.6098228 0.7100295 4.50554e-7 -0.7041114 0.7100895 0.1822022 -0.6799921 0.7102205 -0.1821752 -0.6800048 0.7102153 0 -0.7041639 0.7100376 -0.352057 -0.6097341 0.710127 -0.1821727 -0.6800022 0.7102184 -0.497839 -0.4978289 0.7101568 -0.3520958 -0.6097331 0.7101086 -0.6097264 -0.3520309 0.7101464 -0.4978112 -0.4978472 0.7101636 -0.6800922 -0.18223 0.7101175 -0.6097103 -0.3520494 0.7101511 -0.704039 5.94371e-6 0.7101613 -0.6801099 -0.1822437 0.7100971 -0.6801093 0.182195 0.7101101 -0.7040117 6.49034e-6 0.7101883 -0.6096509 0.3520451 0.7102043 -0.6801075 0.1822015 0.7101102 -0.4974242 0.497757 0.7104979 -0.6096103 0.3519927 0.7102651 -0.3520472 0.6096953 0.7101652 -0.4972664 0.497756 0.710609 -0.3521029 0.6097491 0.7100912 0.4973824 0.4977126 0.7105582 0.3521714 0.6098089 0.7100059 0.6095964 0.3519731 0.7102867 0.4972121 0.4976713 0.7107064 0.6096418 0.3520414 0.710214 0.6801064 0.1822006 0.7101114 0.6801081 0.1821963 0.7101109 0.704039 5.85259e-6 0.7101614 0.6800931 -0.1822308 0.7101165 0.7040117 6.49932e-6 0.7101883 0.6801111 -0.1822437 0.7100958 -0.4998767 0.8660967 0 -0.2590001 0.9658773 0 -0.4998784 0.8660957 0 -0.7068045 0.7074091 0 -0.7068043 0.7074091 0 -0.8660556 0.4999478 0 -0.8660558 0.4999473 0 -0.9659489 0.2587331 0 -0.9659484 0.258735 0 -1 5.60701e-6 0 -1 1.32569e-5 0 -0.9659238 -0.2588266 0 -0.9659244 -0.2588247 0 -0.8660257 -0.4999997 0 -0.8660255 -0.5 0 -0.7070987 -0.7071149 0 -0.7070989 -0.7071148 0 -0.5000404 -0.8660022 0 -0.5000387 -0.8660032 0 -0.2588214 -0.9659253 0 -0.2588207 -0.9659254 0 4.2578e-7 -1 0 1.7701e-7 -1 0 0.2588208 -0.9659253 0 0.2588214 -0.9659252 0 0.5000044 -0.8660229 0 0.5000051 -0.8660226 0 0.7071087 -0.7071049 0 0.7071074 -0.7071062 0 0.8660528 -0.4999526 0 0.8660519 -0.4999541 0 0.9659232 -0.2588293 0 0.9659231 -0.2588294 0 1 9.47738e-6 0 1 9.44389e-6 0 0.9659476 0.2587378 0 0.9659476 0.2587377 0 0.866082 0.4999019 0 0.866083 0.4999005 0 0.7068132 0.7074003 0 0.7068145 0.707399 0 0.499843 0.8661161 0 0.4998424 0.8661165 0 0.2590001 0.9658774 0 0.2589996 0.9658774 0 2.20066e-7 1 0 4.68837e-7 1 0 -0.2589994 0.9658775 0 0.7071063 0 0.7071073 -0.7071056 0 0.707108 0 0.7071428 0.7070708 -0.7071109 0 0.7071027 0 0.7106629 0.7035327 -6.69948e-7 0 1 0 0 1 -5.996e-7 0 1 -1.32003e-5 0 1 -3.17572e-6 0 1 -3.2653e-7 0 1 3.29363e-6 0 1 0 0 1 -3.29433e-6 0 1 -6.58866e-6 0 1 -2.9985e-7 0 1 4.23557e-6 0 1 4.88947e-7 0 1 3.82898e-6 0 1 -3.99218e-6 0 1 6.59283e-6 0 1</float_array>
          <technique_common>
            <accessor source="#Mesh3_Group4_Group1_Model-mesh-normals-array" count="380" stride="3">
              <param name="X" type="float"/>
              <param name="Y" type="float"/>
              <param name="Z" type="float"/>
            </accessor>
          </technique_common>
        </source>
        <source id="Mesh3_Group4_Group1_Model-mesh-map-0">
          <float_array id="Mesh3_Group4_Group1_Model-mesh-map-0-array" count="2928">0.33381 0.673379 0.01844799 0.660603 0.321034 0.660603 0.33381 0.004999995 0.321034 0.660603 0.321034 0.004999995 0.01844799 0.660603 0.005671977 0.004999995 0.01844799 0.004999995 0.33381 0.673379 0.334482 0.004999995 0.334482 0.674051 0.674051 0.685031 0.004999995 0.678979 0.674051 0.678979 0.07585698 0.004999995 0.06980597 0.334482 0.06980597 0.004999995 0.674051 0.690644 0.004999995 0.696696 0.674051 0.696696 0.005671977 0.673379 0.004999995 0.004999995 0.005671977 0.004999995 0.339397 0.329272 0.995 0.322548 0.995 0.329272 0.08147096 0.307586 0.08819496 0.004999995 0.08147096 0.004999995 0.339397 0.334213 0.995 0.340937 0.995 0.334213 0.33381 0.673379 0.004999995 0.674051 0.005671977 0.673379 0.02970194 0.307586 0.02314597 0.004999995 0.02314597 0.307586 0.04153496 0.307586 0.03481096 0.004999995 0.03481096 0.307586 0.09763699 0.06879198 0.09887599 0.07079696 0.09630095 0.07088595 0.09887599 0.07079696 0.09763699 0.06879198 0.100213 0.06870299 0.09763699 0.06879198 0.09879499 0.06647497 0.100213 0.06870299 0.09763699 0.06879198 0.09648096 0.066922 0.09879499 0.06647497 0.09648096 0.066922 0.09763699 0.06879198 0.09504598 0.06879198 0.09763699 0.06879198 0.09630095 0.07088595 0.09504598 0.06879198 0.09504598 0.06879198 0.09630095 0.07088595 0.09404397 0.07079696 0.09630095 0.07088595 0.09547597 0.07311397 0.09404397 0.07079696 0.09630095 0.07088595 0.09771698 0.07311397 0.09547597 0.07311397 0.09887599 0.07079696 0.09771698 0.07311397 0.09630095 0.07088595 0.09887599 0.07079696 0.100032 0.072667 0.09771698 0.07311397 0.100032 0.072667 0.09887599 0.07079696 0.101467 0.07079696 0.09887599 0.07079696 0.100213 0.06870299 0.101467 0.07079696 0.101467 0.07079696 0.100213 0.06870299 0.102469 0.06879198 0.100213 0.06870299 0.101037 0.06647497 0.102469 0.06879198 0.100213 0.06870299 0.09879499 0.06647497 0.101037 0.06647497 0.099433 0.06462097 0.101037 0.06647497 0.09879499 0.06647497 0.095339 0.08204895 0.09313595 0.08276498 0.09425896 0.084369 0.095339 0.08204895 0.09450298 0.08089798 0.09313595 0.08276498 0.095339 0.08204895 0.09670096 0.08017498 0.09450298 0.08089798 0.09788 0.081739 0.09670096 0.08017498 0.095339 0.08204895 0.09788 0.081739 0.09905797 0.08017498 0.09670096 0.08017498 0.1004199 0.08204895 0.09905797 0.08017498 0.09788 0.081739 0.1004199 0.08204895 0.101256 0.08089798 0.09905797 0.08017498 0.1004199 0.08204895 0.102623 0.08276498 0.101256 0.08089798 0.1015 0.084369 0.102623 0.08276498 0.1004199 0.08204895 0.09707999 0.015347 0.09771698 0.013493 0.09547597 0.013493 0.09959197 0.014925 0.09771698 0.013493 0.09707999 0.015347 0.09959197 0.014925 0.100032 0.01304596 0.09771698 0.013493 0.09959197 0.014925 0.101909 0.013493 0.100032 0.01304596 0.100117 0.08862495 0.10199 0.08919799 0.10199 0.08688098 0.100117 0.08862495 0.100083 0.09058296 0.10199 0.08919799 0.09788 0.08986699 0.100083 0.09058296 0.100117 0.08862495 0.101207 0.02529698 0.09932798 0.02529698 0.09977495 0.02750098 0.101207 0.02529698 0.09977495 0.02309399 0.09932798 0.02529698 0.09564197 0.08862495 0.095676 0.09058296 0.09788 0.08986699 0.09564197 0.08862495 0.09376895 0.08919799 0.095676 0.09058296 0.09376895 0.08688098 0.09376895 0.08919799 0.09564197 0.08862495 0.09692096 0.06504297 0.09648096 0.066922 0.09460395 0.06647497 0.09692096 0.06504297 0.09879499 0.06647497 0.09648096 0.066922 0.099433 0.06462097 0.09879499 0.06647497 0.09692096 0.06504297 0.095676 0.08626097 0.09425896 0.084369 0.09376895 0.08688098 0.09651798 0.08367097 0.09425896 0.084369 0.095676 0.08626097 0.09651798 0.08367097 0.095339 0.08204895 0.09425896 0.084369 0.09651798 0.08367097 0.09788 0.081739 0.095339 0.08204895 0.09924095 0.08367097 0.09788 0.081739 0.09651798 0.08367097 0.09924095 0.08367097 0.1004199 0.08204895 0.09788 0.081739 0.09924095 0.08367097 0.1015 0.084369 0.1004199 0.08204895 0.100083 0.08626097 0.1015 0.084369 0.09924095 0.08367097 0.100083 0.08626097 0.10199 0.08688098 0.1015 0.084369 0.100083 0.08626097 0.100117 0.08862495 0.10199 0.08688098 0.09788 0.08786195 0.100117 0.08862495 0.100083 0.08626097 0.09788 0.08786195 0.09788 0.08986699 0.100117 0.08862495 0.09788 0.08786195 0.09564197 0.08862495 0.09788 0.08986699 0.095676 0.08626097 0.09564197 0.08862495 0.09788 0.08786195 0.095676 0.08626097 0.09376895 0.08688098 0.09564197 0.08862495 0.09788 0.085545 0.095676 0.08626097 0.09788 0.08786195 0.09788 0.085545 0.09651798 0.08367097 0.095676 0.08626097 0.09788 0.085545 0.09924095 0.08367097 0.09651798 0.08367097 0.09788 0.085545 0.100083 0.08626097 0.09924095 0.08367097 0.09788 0.085545 0.09788 0.08786195 0.100083 0.08626097 0.09504598 0.06879198 0.09460395 0.06647497 0.09648096 0.066922 0.09313595 0.06870299 0.09460395 0.06647497 0.09504598 0.06879198 0.09754699 0.021577 0.09977495 0.02309399 0.09977495 0.02118694 0.09745699 0.02393496 0.09977495 0.02309399 0.09754699 0.021577 0.09745699 0.02393496 0.09932798 0.02529698 0.09977495 0.02309399 0.09932798 0.02529698 0.09745699 0.02393496 0.09745699 0.02665895 0.09745699 0.02393496 0.09536397 0.02529698 0.09745699 0.02665895 0.09745699 0.02393496 0.09545296 0.02275699 0.09536397 0.02529698 0.09545296 0.02275699 0.09745699 0.02393496 0.09754699 0.021577 0.09545296 0.02275699 0.09754699 0.021577 0.09545296 0.02055299 0.09404397 0.07079696 0.09313595 0.06870299 0.09504598 0.06879198 0.09358298 0.02191996 0.09545296 0.02275699 0.09545296 0.02055299 0.09545296 0.02275699 0.09358298 0.02191996 0.09313595 0.02411895 0.1004199 0.03668498 0.09905797 0.03481096 0.101256 0.03553396 0.09788 0.03637498 0.09905797 0.03481096 0.1004199 0.03668498 0.09788 0.03637498 0.09670096 0.03481096 0.09905797 0.03481096 0.095339 0.03668498 0.09670096 0.03481096 0.09788 0.03637498 0.095339 0.03668498 0.09450298 0.03553396 0.09670096 0.03481096 0.095339 0.03668498 0.09313595 0.03740096 0.09450298 0.03553396 0.09425896 0.03900498 0.09313595 0.03740096 0.095339 0.03668498 0.099433 0.004999995 0.09879499 0.006853997 0.101037 0.006853997 0.09692096 0.005423963 0.09879499 0.006853997 0.099433 0.004999995 0.09692096 0.005423963 0.09648096 0.007300972 0.09879499 0.006853997 0.09692096 0.005423963 0.09460395 0.006853997 0.09648096 0.007300972 0.09564197 0.04326099 0.09376895 0.04383397 0.09376895 0.04151695 0.09564197 0.04326099 0.095676 0.04521995 0.09376895 0.04383397 0.09788 0.04450297 0.095676 0.04521995 0.09564197 0.04326099 0.101206 0.05510795 0.09932798 0.05510795 0.09977495 0.05290395 0.101206 0.05510795 0.09977495 0.05731099 0.09932798 0.05510795 0.100117 0.04326099 0.100083 0.04521995 0.09788 0.04450297 0.100117 0.04326099 0.10199 0.04383397 0.100083 0.04521995 0.10199 0.04151695 0.10199 0.04383397 0.100117 0.04326099 0.09959197 0.07454395 0.100032 0.072667 0.101909 0.07311397 0.09959197 0.07454395 0.09771698 0.07311397 0.100032 0.072667 0.09707999 0.07496798 0.09771698 0.07311397 0.09959197 0.07454395 0.09707999 0.07496798 0.09547597 0.07311397 0.09771698 0.07311397 0.1004199 0.03668498 0.102623 0.03740096 0.1015 0.03900498 0.1004199 0.03668498 0.101256 0.03553396 0.102623 0.03740096 0.09404397 0.07079696 0.09547597 0.07311397 0.09360897 0.072667 0.09924095 0.03830695 0.1004199 0.03668498 0.1015 0.03900498 0.09924095 0.03830695 0.09788 0.03637498 0.1004199 0.03668498 0.09651798 0.03830695 0.09788 0.03637498 0.09924095 0.03830695 0.09651798 0.03830695 0.095339 0.03668498 0.09788 0.03637498 0.09651798 0.03830695 0.09425896 0.03900498 0.095339 0.03668498 0.095676 0.04089796 0.09425896 0.03900498 0.09651798 0.03830695 0.095676 0.04089796 0.09376895 0.04151695 0.09425896 0.03900498 0.095676 0.04089796 0.09564197 0.04326099 0.09376895 0.04151695 0.09788 0.04249894 0.09564197 0.04326099 0.095676 0.04089796 0.09788 0.04249894 0.09788 0.04450297 0.09564197 0.04326099 0.09788 0.04249894 0.100117 0.04326099 0.09788 0.04450297 0.100083 0.04089796 0.100117 0.04326099 0.09788 0.04249894 0.100083 0.04089796 0.10199 0.04151695 0.100117 0.04326099 0.100083 0.04089796 0.1015 0.03900498 0.10199 0.04151695 0.09924095 0.03830695 0.1015 0.03900498 0.100083 0.04089796 0.09788 0.04018199 0.09924095 0.03830695 0.100083 0.04089796 0.09788 0.04018199 0.09651798 0.03830695 0.09924095 0.03830695 0.09788 0.04018199 0.095676 0.04089796 0.09651798 0.03830695 0.09788 0.04018199 0.09788 0.04249894 0.095676 0.04089796 0.09788 0.04018199 0.100083 0.04089796 0.09788 0.04249894 0.101467 0.07079696 0.101909 0.07311397 0.100032 0.072667 0.103377 0.07088595 0.101909 0.07311397 0.101467 0.07079696 0.09754699 0.05882799 0.09977495 0.05731099 0.09977495 0.05921798 0.09745699 0.05646997 0.09977495 0.05731099 0.09754699 0.05882799 0.09745699 0.05646997 0.09932798 0.05510795 0.09977495 0.05731099 0.09932798 0.05510795 0.09745699 0.05646997 0.09745699 0.05374598 0.09745699 0.05646997 0.09536397 0.05510795 0.09745699 0.05374598 0.09745699 0.05646997 0.09545296 0.057648 0.09536397 0.05510795 0.09545296 0.057648 0.09745699 0.05646997 0.09754699 0.05882799 0.09545296 0.057648 0.09754699 0.05882799 0.09545296 0.059852 0.102469 0.06879198 0.103377 0.07088595 0.101467 0.07079696 0.09358298 0.05848497 0.09545296 0.057648 0.09545296 0.059852 0.09545296 0.057648 0.09358298 0.05848497 0.09313595 0.05628597 0.09545296 0.057648 0.09313595 0.05628597 0.09536397 0.05510795 0.09536397 0.05510795 0.09313595 0.05628597 0.09313595 0.05392897 0.09536397 0.05510795 0.09313595 0.05392897 0.09545296 0.052567 0.09545296 0.052567 0.09313595 0.05392897 0.09358298 0.05173099 0.09358298 0.05173099 0.09545296 0.05036395 0.09545296 0.052567 0.09404397 0.01117599 0.09360897 0.01304596 0.09547597 0.013493 0.09404397 0.01117599 0.09547597 0.013493 0.0963 0.01126497 0.0963 0.01126497 0.09547597 0.013493 0.09771698 0.013493 0.0963 0.01126497 0.09771698 0.013493 0.09887599 0.01117599 0.09887599 0.01117599 0.09771698 0.013493 0.100032 0.01304596 0.100032 0.01304596 0.101467 0.01117599 0.09887599 0.01117599 0.101467 0.01117599 0.100032 0.01304596 0.101909 0.013493 0.101467 0.01117599 0.101909 0.013493 0.103377 0.01126497 0.09754699 0.02901798 0.09977495 0.02940797 0.09977495 0.02750098 0.09754699 0.02901798 0.09977495 0.02750098 0.09745699 0.02665895 0.09745699 0.02665895 0.09977495 0.02750098 0.09932798 0.02529698 0.09545296 0.02783799 0.09754699 0.02901798 0.09745699 0.02665895 0.09545296 0.03004097 0.09754699 0.02901798 0.09545296 0.02783799 0.102469 0.009170949 0.101467 0.01117599 0.103377 0.01126497 0.101467 0.01117599 0.102469 0.009170949 0.100213 0.009081959 0.102469 0.009170949 0.101037 0.006853997 0.100213 0.009081959 0.102469 0.009170949 0.102904 0.007300972 0.101037 0.006853997 0.09358298 0.028674 0.09545296 0.03004097 0.09545296 0.02783799 0.09545296 0.02783799 0.09313595 0.02647596 0.09358298 0.028674 0.09536397 0.02529698 0.09313595 0.02647596 0.09545296 0.02783799 0.09536397 0.02529698 0.09313595 0.02411895 0.09313595 0.02647596 0.09545296 0.02275699 0.09313595 0.02411895 0.09536397 0.02529698 0.09745699 0.02665895 0.09536397 0.02529698 0.09545296 0.02783799 0.100213 0.009081959 0.101037 0.006853997 0.09879499 0.006853997 0.100213 0.009081959 0.09879499 0.006853997 0.09763699 0.009170949 0.09763699 0.009170949 0.09879499 0.006853997 0.09648096 0.007300972 0.09648096 0.007300972 0.09504598 0.009170949 0.09763699 0.009170949 0.09504598 0.009170949 0.09648096 0.007300972 0.09460395 0.006853997 0.09504598 0.009170949 0.09460395 0.006853997 0.09313595 0.009081959 0.09754699 0.05138695 0.09977495 0.05099695 0.09977495 0.05290395 0.09754699 0.05138695 0.09977495 0.05290395 0.09745699 0.05374598 0.09745699 0.05374598 0.09977495 0.05290395 0.09932798 0.05510795 0.09545296 0.052567 0.09754699 0.05138695 0.09745699 0.05374598 0.09545296 0.05036395 0.09754699 0.05138695 0.09545296 0.052567 0.09404397 0.01117599 0.09504598 0.009170949 0.09313595 0.009081959 0.09504598 0.009170949 0.09404397 0.01117599 0.0963 0.01126497 0.09504598 0.009170949 0.0963 0.01126497 0.09763699 0.009170949 0.09763699 0.009170949 0.0963 0.01126497 0.09887599 0.01117599 0.09887599 0.01117599 0.100213 0.009081959 0.09763699 0.009170949 0.101467 0.01117599 0.100213 0.009081959 0.09887599 0.01117599 0.09745699 0.05374598 0.09536397 0.05510795 0.09545296 0.052567 0.102469 0.06879198 0.101037 0.06647497 0.102904 0.066922 0.04714798 0.004999995 0.05319994 0.307586 0.05319994 0.004999995 0.988444 0.316934 0.339397 0.310883 0.988444 0.310883 0.06419199 0.004999995 0.05814099 0.307586 0.05814099 0.004999995 0.988444 0.34655 0.339397 0.352602 0.988444 0.352602 0.340063 0.345878 0.988444 0.34655 0.987778 0.345878 0.987113 0.306241 0.339397 0.004999995 0.339397 0.306241 0.04647594 0.306913 0.04714798 0.004999995 0.04647594 0.005671977 0.987778 0.317607 0.339397 0.316934 0.988444 0.316934 0.06486499 0.306913 0.06419199 0.004999995 0.06486499 0.005671977 0.113874 0.02156698 0.12077 0.02084696 0.12077 0.02156698 0.113874 0.02218598 0.12077 0.02156698 0.12077 0.02218598 0.118776 0.072398 0.119395 0.07929497 0.118776 0.07929497 0.118055 0.072398 0.118776 0.07929497 0.118055 0.07929497 0.117282 0.072398 0.118055 0.07929497 0.117282 0.07929497 0.116509 0.072398 0.117282 0.07929497 0.116509 0.07929497 0.115788 0.072398 0.116509 0.07929497 0.115788 0.07929497 0.11517 0.072398 0.115788 0.07929497 0.11517 0.07929497 0.115586 0.06394398 0.108689 0.06332498 0.108689 0.06394398 0.115586 0.064664 0.108689 0.06394398 0.108689 0.064664 0.115586 0.06543695 0.108689 0.064664 0.108689 0.06543695 0.115586 0.06621098 0.108689 0.06543695 0.108689 0.06621098 0.115586 0.066931 0.108689 0.06621098 0.108689 0.066931 0.115586 0.06755 0.108689 0.066931 0.108689 0.06755 0.110999 0.04300296 0.111618 0.036107 0.110999 0.036107 0.110279 0.04300296 0.110999 0.036107 0.110279 0.036107 0.1095049 0.04300296 0.110279 0.036107 0.1095049 0.036107 0.108732 0.04300296 0.1095049 0.036107 0.108732 0.036107 0.108012 0.04300296 0.108732 0.036107 0.108012 0.036107 0.107393 0.04300296 0.108012 0.036107 0.107393 0.036107 0.113874 0.01857995 0.12077 0.01796096 0.12077 0.01857995 0.113874 0.01929998 0.12077 0.01857995 0.12077 0.01929998 0.113874 0.02007395 0.12077 0.01929998 0.12077 0.02007395 0.113874 0.02084696 0.12077 0.02007395 0.12077 0.02084696 0.103688 0.108937 0.102714 0.108294 0.103488 0.108192 0.103688 0.108937 0.104208 0.107894 0.104594 0.108563 0.104594 0.108563 0.104827 0.107419 0.105373 0.107965 0.105971 0.107187 0.104827 0.107419 0.105301 0.1068 0.106346 0.106279 0.105301 0.1068 0.1055999 0.106079 0.106346 0.106279 0.105702 0.105306 0.106475 0.105306 0.106346 0.104333 0.105702 0.105306 0.1055999 0.104533 0.106346 0.104333 0.105301 0.103813 0.105971 0.103426 0.105971 0.103426 0.104827 0.1031939 0.105373 0.102647 0.104594 0.10205 0.104827 0.1031939 0.104208 0.102719 0.104594 0.10205 0.103488 0.102421 0.103688 0.101674 0.103688 0.101674 0.102714 0.102319 0.102714 0.101546 0.101741 0.101674 0.102714 0.102319 0.101941 0.102421 0.100834 0.10205 0.101941 0.102421 0.10122 0.102719 0.100056 0.102647 0.10122 0.102719 0.100602 0.1031939 0.09945797 0.103426 0.100602 0.1031939 0.100127 0.103813 0.09908199 0.104333 0.100127 0.103813 0.09982895 0.104533 0.09895396 0.105306 0.09982895 0.104533 0.09972697 0.105306 0.09895396 0.105306 0.09982895 0.106079 0.09908199 0.106279 0.09908199 0.106279 0.100127 0.1068 0.09945797 0.107187 0.09945797 0.107187 0.100602 0.107419 0.100056 0.107965 0.100056 0.107965 0.10122 0.107894 0.100834 0.108563 0.101741 0.108937 0.10122 0.107894 0.101941 0.108192 0.101741 0.108937 0.102714 0.108294 0.102714 0.109068 0.102714 0.109068 0.104993 0.113812 0.102714 0.114111 0.100435 0.113812 0.102714 0.109068 0.102714 0.114111 0.104594 0.108563 0.104993 0.113812 0.103688 0.108937 0.105373 0.107965 0.1071169 0.112931 0.104594 0.108563 0.105971 0.107187 0.108941 0.111532 0.105373 0.107965 0.105971 0.107187 0.11122 0.107585 0.1103399 0.10971 0.106475 0.105306 0.11122 0.107585 0.106346 0.106279 0.106475 0.105306 0.11122 0.103027 0.11152 0.105306 0.106346 0.104333 0.1103399 0.100904 0.11122 0.103027 0.1103399 0.100904 0.105373 0.102647 0.108941 0.09907996 0.108941 0.09907996 0.104594 0.10205 0.1071169 0.09767997 0.1071169 0.09767997 0.103688 0.101674 0.104993 0.09680098 0.104993 0.09680098 0.102714 0.101546 0.102714 0.09650099 0.100435 0.09680098 0.102714 0.101546 0.101741 0.101674 0.098311 0.09767997 0.101741 0.101674 0.100834 0.10205 0.09648799 0.09907996 0.100834 0.10205 0.100056 0.102647 0.09648799 0.09907996 0.09945797 0.103426 0.095088 0.100904 0.095088 0.100904 0.09908199 0.104333 0.094208 0.103027 0.09390896 0.105306 0.09908199 0.104333 0.09895396 0.105306 0.09390896 0.105306 0.09908199 0.106279 0.094208 0.107585 0.094208 0.107585 0.09945797 0.107187 0.095088 0.10971 0.09648799 0.111532 0.09945797 0.107187 0.100056 0.107965 0.098311 0.112931 0.100056 0.107965 0.100834 0.108563 0.100435 0.113812 0.100834 0.108563 0.101741 0.108937 0.112451 0.01252096 0.115707 0.006879985 0.10882 0.009733974 0.100435 0.113812 0.102714 0.114884 0.100235 0.114558 0.104993 0.113812 0.102714 0.114884 0.102714 0.114111 0.104993 0.113812 0.107504 0.1136 0.105194 0.114558 0.1103399 0.100904 0.109488 0.09853297 0.111009 0.100517 0.108941 0.09907996 0.107504 0.09701097 0.109488 0.09853297 0.104993 0.09680098 0.107504 0.09701097 0.1071169 0.09767997 0.104993 0.09680098 0.102714 0.09572798 0.105194 0.09605395 0.100435 0.09680098 0.102714 0.09572798 0.102714 0.09650099 0.098311 0.09767997 0.100235 0.09605395 0.100435 0.09680098 0.09648799 0.09907996 0.097925 0.09701097 0.098311 0.09767997 0.09648799 0.09907996 0.094419 0.100517 0.095941 0.09853297 0.094208 0.103027 0.094419 0.100517 0.095088 0.100904 0.094208 0.103027 0.09313595 0.105306 0.09346199 0.102827 0.094208 0.107585 0.09313595 0.105306 0.09390896 0.105306 0.095088 0.10971 0.09346199 0.107785 0.094208 0.107585 0.09648799 0.111532 0.094419 0.110097 0.095088 0.10971 0.09648799 0.111532 0.097925 0.1136 0.095941 0.11208 0.100435 0.113812 0.097925 0.1136 0.098311 0.112931 0.108941 0.111532 0.107504 0.1136 0.1071169 0.112931 0.108941 0.111532 0.111009 0.110097 0.109488 0.11208 0.1103399 0.10971 0.111966 0.107785 0.111009 0.110097 0.11122 0.107585 0.112293 0.105306 0.111966 0.107785 0.11122 0.103027 0.112293 0.105306 0.11152 0.105306 0.11122 0.103027 0.111009 0.100517 0.111966 0.102827 0.109162 0.01994496 0.106097 0.022255 0.106097 0.01994496 0.109162 0.01796096 0.106097 0.01994496 0.106097 0.01796096 0.10808 0.04777199 0.106097 0.05083698 0.10808 0.05083698 0.110392 0.04777199 0.10808 0.05083698 0.110392 0.05083698 0.112871 0.04777199 0.110392 0.05083698 0.112871 0.05083698 0.11535 0.04777199 0.112871 0.05083698 0.11535 0.05083698 0.11766 0.04777199 0.11535 0.05083698 0.11766 0.05083698 0.119644 0.04777199 0.11766 0.05083698 0.119644 0.05083698 0.107393 0.08655297 0.110458 0.08853596 0.110458 0.08655297 0.107393 0.08424299 0.110458 0.08655297 0.110458 0.08424299 0.107393 0.08176296 0.110458 0.08424299 0.110458 0.08176296 0.107393 0.07928395 0.110458 0.08176296 0.110458 0.07928395 0.107393 0.07697397 0.110458 0.07928395 0.110458 0.07697397 0.107393 0.07498997 0.110458 0.07697397 0.110458 0.07498997 0.108081 0.05861395 0.106097 0.05554795 0.108081 0.05554795 0.110391 0.05861395 0.108081 0.05554795 0.110391 0.05554795 0.11287 0.05861395 0.110391 0.05554795 0.11287 0.05554795 0.115349 0.05861395 0.11287 0.05554795 0.115349 0.05554795 0.11766 0.05861395 0.115349 0.05554795 0.11766 0.05554795 0.119644 0.05861395 0.11766 0.05554795 0.119644 0.05554795 0.109162 0.02952295 0.106097 0.03150695 0.106097 0.02952295 0.109162 0.02721297 0.106097 0.02952295 0.106097 0.02721297 0.109162 0.02473396 0.106097 0.02721297 0.106097 0.02473396 0.109162 0.022255 0.106097 0.02473396 0.106097 0.022255 0.33381 0.673379 0.005671977 0.673379 0.01844799 0.660603 0.33381 0.004999995 0.33381 0.673379 0.321034 0.660603 0.01844799 0.660603 0.005671977 0.673379 0.005671977 0.004999995 0.33381 0.673379 0.33381 0.004999995 0.334482 0.004999995 0.674051 0.685031 0.004999995 0.685031 0.004999995 0.678979 0.07585698 0.004999995 0.07585698 0.334482 0.06980597 0.334482 0.674051 0.690644 0.004999995 0.690644 0.004999995 0.696696 0.005671977 0.673379 0.004999995 0.674051 0.004999995 0.004999995 0.339397 0.329272 0.339397 0.322548 0.995 0.322548 0.08147096 0.307586 0.08819496 0.307586 0.08819496 0.004999995 0.339397 0.334213 0.339397 0.340937 0.995 0.340937 0.33381 0.673379 0.334482 0.674051 0.004999995 0.674051 0.02970194 0.307586 0.02970194 0.004999995 0.02314597 0.004999995 0.04153496 0.307586 0.04153496 0.004999995 0.03481096 0.004999995 0.04714798 0.004999995 0.04714798 0.307586 0.05319994 0.307586 0.988444 0.316934 0.339397 0.316934 0.339397 0.310883 0.06419199 0.004999995 0.06419199 0.307586 0.05814099 0.307586 0.988444 0.34655 0.339397 0.34655 0.339397 0.352602 0.340063 0.345878 0.339397 0.34655 0.988444 0.34655 0.987113 0.306241 0.987113 0.004999995 0.339397 0.004999995 0.04647594 0.306913 0.04714798 0.307586 0.04714798 0.004999995 0.987778 0.317607 0.340063 0.317607 0.339397 0.316934 0.06486499 0.306913 0.06419199 0.307586 0.06419199 0.004999995 0.113874 0.02156698 0.113874 0.02084696 0.12077 0.02084696 0.113874 0.02218598 0.113874 0.02156698 0.12077 0.02156698 0.118776 0.072398 0.119395 0.072398 0.119395 0.07929497 0.118055 0.072398 0.118776 0.072398 0.118776 0.07929497 0.117282 0.072398 0.118055 0.072398 0.118055 0.07929497 0.116509 0.072398 0.117282 0.072398 0.117282 0.07929497 0.115788 0.072398 0.116509 0.072398 0.116509 0.07929497 0.11517 0.072398 0.115788 0.072398 0.115788 0.07929497 0.115586 0.06394398 0.115586 0.06332498 0.108689 0.06332498 0.115586 0.064664 0.115586 0.06394398 0.108689 0.06394398 0.115586 0.06543695 0.115586 0.064664 0.108689 0.064664 0.115586 0.06621098 0.115586 0.06543695 0.108689 0.06543695 0.115586 0.066931 0.115586 0.06621098 0.108689 0.06621098 0.115586 0.06755 0.115586 0.066931 0.108689 0.066931 0.110999 0.04300296 0.111618 0.04300296 0.111618 0.036107 0.110279 0.04300296 0.110999 0.04300296 0.110999 0.036107 0.1095049 0.04300296 0.110279 0.04300296 0.110279 0.036107 0.108732 0.04300296 0.1095049 0.04300296 0.1095049 0.036107 0.108012 0.04300296 0.108732 0.04300296 0.108732 0.036107 0.107393 0.04300296 0.108012 0.04300296 0.108012 0.036107 0.113874 0.01857995 0.113874 0.01796096 0.12077 0.01796096 0.113874 0.01929998 0.113874 0.01857995 0.12077 0.01857995 0.113874 0.02007395 0.113874 0.01929998 0.12077 0.01929998 0.113874 0.02084696 0.113874 0.02007395 0.12077 0.02007395 0.103688 0.108937 0.102714 0.109068 0.102714 0.108294 0.103688 0.108937 0.103488 0.108192 0.104208 0.107894 0.104594 0.108563 0.104208 0.107894 0.104827 0.107419 0.105971 0.107187 0.105373 0.107965 0.104827 0.107419 0.106346 0.106279 0.105971 0.107187 0.105301 0.1068 0.106346 0.106279 0.1055999 0.106079 0.105702 0.105306 0.106346 0.104333 0.106475 0.105306 0.105702 0.105306 0.106346 0.104333 0.1055999 0.104533 0.105301 0.103813 0.105971 0.103426 0.105301 0.103813 0.104827 0.1031939 0.104594 0.10205 0.105373 0.102647 0.104827 0.1031939 0.104594 0.10205 0.104208 0.102719 0.103488 0.102421 0.103688 0.101674 0.103488 0.102421 0.102714 0.102319 0.101741 0.101674 0.102714 0.101546 0.102714 0.102319 0.100834 0.10205 0.101741 0.101674 0.101941 0.102421 0.100056 0.102647 0.100834 0.10205 0.10122 0.102719 0.09945797 0.103426 0.100056 0.102647 0.100602 0.1031939 0.09908199 0.104333 0.09945797 0.103426 0.100127 0.103813 0.09895396 0.105306 0.09908199 0.104333 0.09982895 0.104533 0.09895396 0.105306 0.09972697 0.105306 0.09982895 0.106079 0.09908199 0.106279 0.09982895 0.106079 0.100127 0.1068 0.09945797 0.107187 0.100127 0.1068 0.100602 0.107419 0.100056 0.107965 0.100602 0.107419 0.10122 0.107894 0.101741 0.108937 0.100834 0.108563 0.10122 0.107894 0.101741 0.108937 0.101941 0.108192 0.102714 0.108294 0.102714 0.109068 0.103688 0.108937 0.104993 0.113812 0.100435 0.113812 0.101741 0.108937 0.102714 0.109068 0.104594 0.108563 0.1071169 0.112931 0.104993 0.113812 0.105373 0.107965 0.108941 0.111532 0.1071169 0.112931 0.105971 0.107187 0.1103399 0.10971 0.108941 0.111532 0.105971 0.107187 0.106346 0.106279 0.11122 0.107585 0.106475 0.105306 0.11152 0.105306 0.11122 0.107585 0.106475 0.105306 0.106346 0.104333 0.11122 0.103027 0.106346 0.104333 0.105971 0.103426 0.1103399 0.100904 0.1103399 0.100904 0.105971 0.103426 0.105373 0.102647 0.108941 0.09907996 0.105373 0.102647 0.104594 0.10205 0.1071169 0.09767997 0.104594 0.10205 0.103688 0.101674 0.104993 0.09680098 0.103688 0.101674 0.102714 0.101546 0.100435 0.09680098 0.102714 0.09650099 0.102714 0.101546 0.098311 0.09767997 0.100435 0.09680098 0.101741 0.101674 0.09648799 0.09907996 0.098311 0.09767997 0.100834 0.10205 0.09648799 0.09907996 0.100056 0.102647 0.09945797 0.103426 0.095088 0.100904 0.09945797 0.103426 0.09908199 0.104333 0.09390896 0.105306 0.094208 0.103027 0.09908199 0.104333 0.09390896 0.105306 0.09895396 0.105306 0.09908199 0.106279 0.094208 0.107585 0.09908199 0.106279 0.09945797 0.107187 0.09648799 0.111532 0.095088 0.10971 0.09945797 0.107187 0.098311 0.112931 0.09648799 0.111532 0.100056 0.107965 0.100435 0.113812 0.098311 0.112931 0.100834 0.108563 0.109194 0.006879985 0.10882 0.007786989 0.115707 0.006879985 0.108689 0.008759975 0.10882 0.009733974 0.10882 0.007786989 0.109194 0.01064097 0.109792 0.01141899 0.112451 0.01252096 0.11057 0.01201695 0.111478 0.01239198 0.112451 0.01252096 0.112451 0.01252096 0.113424 0.01239198 0.114331 0.01201695 0.114331 0.01201695 0.11511 0.01141899 0.112451 0.01252096 0.115707 0.01064097 0.116083 0.009733974 0.1162109 0.008759975 0.1162109 0.008759975 0.116083 0.007786989 0.115707 0.006879985 0.115707 0.006879985 0.11511 0.006100952 0.114331 0.005503952 0.114331 0.005503952 0.113424 0.005127966 0.115707 0.006879985 0.112451 0.004999995 0.111478 0.005127966 0.109194 0.006879985 0.11057 0.005503952 0.109792 0.006100952 0.109194 0.006879985 0.10882 0.007786989 0.10882 0.009733974 0.115707 0.006879985 0.109792 0.01141899 0.11057 0.01201695 0.112451 0.01252096 0.112451 0.01252096 0.11511 0.01141899 0.115707 0.01064097 0.115707 0.01064097 0.1162109 0.008759975 0.115707 0.006879985 0.115707 0.006879985 0.113424 0.005127966 0.112451 0.004999995 0.111478 0.005127966 0.11057 0.005503952 0.109194 0.006879985 0.10882 0.009733974 0.109194 0.01064097 0.112451 0.01252096 0.112451 0.01252096 0.115707 0.01064097 0.115707 0.006879985 0.115707 0.006879985 0.112451 0.004999995 0.109194 0.006879985 0.100435 0.113812 0.102714 0.114111 0.102714 0.114884 0.104993 0.113812 0.105194 0.114558 0.102714 0.114884 0.104993 0.113812 0.1071169 0.112931 0.107504 0.1136 0.1103399 0.100904 0.108941 0.09907996 0.109488 0.09853297 0.108941 0.09907996 0.1071169 0.09767997 0.107504 0.09701097 0.104993 0.09680098 0.105194 0.09605395 0.107504 0.09701097 0.104993 0.09680098 0.102714 0.09650099 0.102714 0.09572798 0.100435 0.09680098 0.100235 0.09605395 0.102714 0.09572798 0.098311 0.09767997 0.097925 0.09701097 0.100235 0.09605395 0.09648799 0.09907996 0.095941 0.09853297 0.097925 0.09701097 0.09648799 0.09907996 0.095088 0.100904 0.094419 0.100517 0.094208 0.103027 0.09346199 0.102827 0.094419 0.100517 0.094208 0.103027 0.09390896 0.105306 0.09313595 0.105306 0.094208 0.107585 0.09346199 0.107785 0.09313595 0.105306 0.095088 0.10971 0.094419 0.110097 0.09346199 0.107785 0.09648799 0.111532 0.095941 0.11208 0.094419 0.110097 0.09648799 0.111532 0.098311 0.112931 0.097925 0.1136 0.100435 0.113812 0.100235 0.114558 0.097925 0.1136 0.108941 0.111532 0.109488 0.11208 0.107504 0.1136 0.108941 0.111532 0.1103399 0.10971 0.111009 0.110097 0.1103399 0.10971 0.11122 0.107585 0.111966 0.107785 0.11122 0.107585 0.11152 0.105306 0.112293 0.105306 0.11122 0.103027 0.111966 0.102827 0.112293 0.105306 0.11122 0.103027 0.1103399 0.100904 0.111009 0.100517 0.109162 0.01994496 0.109162 0.022255 0.106097 0.022255 0.109162 0.01796096 0.109162 0.01994496 0.106097 0.01994496 0.10808 0.04777199 0.106097 0.04777199 0.106097 0.05083698 0.110392 0.04777199 0.10808 0.04777199 0.10808 0.05083698 0.112871 0.04777199 0.110392 0.04777199 0.110392 0.05083698 0.11535 0.04777199 0.112871 0.04777199 0.112871 0.05083698 0.11766 0.04777199 0.11535 0.04777199 0.11535 0.05083698 0.119644 0.04777199 0.11766 0.04777199 0.11766 0.05083698 0.107393 0.08655297 0.107393 0.08853596 0.110458 0.08853596 0.107393 0.08424299 0.107393 0.08655297 0.110458 0.08655297 0.107393 0.08176296 0.107393 0.08424299 0.110458 0.08424299 0.107393 0.07928395 0.107393 0.08176296 0.110458 0.08176296 0.107393 0.07697397 0.107393 0.07928395 0.110458 0.07928395 0.107393 0.07498997 0.107393 0.07697397 0.110458 0.07697397 0.108081 0.05861395 0.106097 0.05861395 0.106097 0.05554795 0.110391 0.05861395 0.108081 0.05861395 0.108081 0.05554795 0.11287 0.05861395 0.110391 0.05861395 0.110391 0.05554795 0.115349 0.05861395 0.11287 0.05861395 0.11287 0.05554795 0.11766 0.05861395 0.115349 0.05861395 0.115349 0.05554795 0.119644 0.05861395 0.11766 0.05861395 0.11766 0.05554795 0.109162 0.02952295 0.109162 0.03150695 0.106097 0.03150695 0.109162 0.02721297 0.109162 0.02952295 0.106097 0.02952295 0.109162 0.02473396 0.109162 0.02721297 0.106097 0.02721297 0.109162 0.022255 0.109162 0.02473396 0.106097 0.02473396</float_array>
          <technique_common>
            <accessor source="#Mesh3_Group4_Group1_Model-mesh-map-0-array" count="1464" stride="2">
              <param name="S" type="float"/>
              <param name="T" type="float"/>
            </accessor>
          </technique_common>
        </source>
        <vertices id="Mesh3_Group4_Group1_Model-mesh-vertices">
          <input semantic="POSITION" source="#Mesh3_Group4_Group1_Model-mesh-positions"/>
        </vertices>
        <polylist material="FrontColor-material" count="488">
          <input semantic="VERTEX" source="#Mesh3_Group4_Group1_Model-mesh-vertices" offset="0"/>
          <input semantic="NORMAL" source="#Mesh3_Group4_Group1_Model-mesh-normals" offset="1"/>
          <input semantic="TEXCOORD" source="#Mesh3_Group4_Group1_Model-mesh-map-0" offset="2" set="0"/>
          <vcount>3 3 3 3 3 3 3 3 3 3 3 3 3 3 3 3 3 3 3 3 3 3 3 3 3 3 3 3 3 3 3 3 3 3 3 3 3 3 3 3 3 3 3 3 3 3 3 3 3 3 3 3 3 3 3 3 3 3 3 3 3 3 3 3 3 3 3 3 3 3 3 3 3 3 3 3 3 3 3 3 3 3 3 3 3 3 3 3 3 3 3 3 3 3 3 3 3 3 3 3 3 3 3 3 3 3 3 3 3 3 3 3 3 3 3 3 3 3 3 3 3 3 3 3 3 3 3 3 3 3 3 3 3 3 3 3 3 3 3 3 3 3 3 3 3 3 3 3 3 3 3 3 3 3 3 3 3 3 3 3 3 3 3 3 3 3 3 3 3 3 3 3 3 3 3 3 3 3 3 3 3 3 3 3 3 3 3 3 3 3 3 3 3 3 3 3 3 3 3 3 3 3 3 3 3 3 3 3 3 3 3 3 3 3 3 3 3 3 3 3 3 3 3 3 3 3 3 3 3 3 3 3 3 3 3 3 3 3 3 3 3 3 3 3 3 3 3 3 3 3 3 3 3 3 3 3 3 3 3 3 3 3 3 3 3 3 3 3 3 3 3 3 3 3 3 3 3 3 3 3 3 3 3 3 3 3 3 3 3 3 3 3 3 3 3 3 3 3 3 3 3 3 3 3 3 3 3 3 3 3 3 3 3 3 3 3 3 3 3 3 3 3 3 3 3 3 3 3 3 3 3 3 3 3 3 3 3 3 3 3 3 3 3 3 3 3 3 3 3 3 3 3 3 3 3 3 3 3 3 3 3 3 3 3 3 3 3 3 3 3 3 3 3 3 3 3 3 3 3 3 3 3 3 3 3 3 3 3 3 3 3 3 3 3 3 3 3 3 3 3 3 3 3 3 3 3 3 3 3 3 3 3 3 3 3 3 3 3 3 3 3 3 3 3 3 3 3 3 3 3 3 3 3 3 3 3 3 3 3 3 3 3 3 3 3 3 3 3 3 3 3 3 3 3 3 3 3 3 3 3 3 3 3 3 3 3 3 3 3 3 3 3 3 3 3 3 3 3 3 3 3 3 3 3 3 3 3 3 </vcount>
          <p>1 0 0 3 1 1 0 2 2 5 3 3 0 2 4 4 1 5 3 1 6 6 1 7 7 1 8 1 4 9 8 5 10 9 6 11 9 7 12 11 7 13 10 7 14 13 8 15 10 8 16 12 8 17 15 9 18 12 9 19 14 9 20 2 10 21 15 11 22 6 12 23 7 7 24 17 7 25 3 7 26 3 13 27 18 13 28 0 13 29 0 9 30 19 9 31 4 9 32 1 14 33 13 15 34 2 16 35 21 1 36 23 1 37 20 1 38 20 13 39 25 13 40 24 13 41 26 17 42 27 18 43 28 19 44 27 18 45 26 17 46 29 20 47 26 17 48 30 21 49 29 20 50 26 17 51 31 22 52 30 21 53 31 22 54 26 17 55 32 23 56 26 17 57 28 19 58 32 23 59 32 23 60 28 19 61 33 24 62 28 19 63 34 25 64 33 24 65 28 19 66 35 26 67 34 25 68 27 18 69 35 26 70 28 19 71 27 18 72 36 27 73 35 26 74 36 27 75 27 18 76 37 28 77 27 18 78 29 20 79 37 28 80 37 28 81 29 20 82 38 29 83 29 20 84 39 30 85 38 29 86 29 20 87 30 21 88 39 30 89 40 31 90 39 30 91 30 21 92 41 32 93 39 30 94 40 31 95 41 32 96 42 33 97 39 30 98 41 32 99 43 34 100 42 33 101 44 35 102 43 34 103 41 32 104 44 35 105 45 36 106 43 34 107 46 37 108 45 36 109 44 35 110 46 37 111 47 38 112 45 36 113 46 37 114 48 39 115 47 38 116 49 40 117 48 39 118 46 37 119 49 40 120 50 41 121 48 39 122 51 42 123 50 41 124 49 40 125 51 42 126 52 43 127 50 41 128 51 42 129 53 44 130 52 43 131 54 45 132 53 44 133 51 42 134 54 45 135 55 46 136 53 44 137 56 47 138 55 46 139 54 45 140 56 47 141 57 48 142 55 46 143 56 47 144 58 49 145 57 48 146 59 50 147 58 49 148 56 47 149 59 50 150 60 51 151 58 49 152 61 52 153 60 51 154 59 50 155 61 52 156 31 22 157 60 51 158 61 52 159 30 21 160 31 22 161 40 31 162 30 21 163 61 52 164 62 53 165 40 31 166 61 52 167 63 54 168 40 31 169 62 53 170 63 54 171 41 32 172 40 31 173 63 54 174 44 35 175 41 32 176 64 55 177 44 35 178 63 54 179 64 55 180 46 37 181 44 35 182 64 55 183 49 40 184 46 37 185 65 56 186 49 40 187 64 55 188 65 56 189 51 42 190 49 40 191 65 56 192 54 45 193 51 42 194 66 57 195 54 45 196 65 56 197 66 57 198 56 47 199 54 45 200 66 57 201 59 50 202 56 47 203 62 53 204 59 50 205 66 57 206 62 53 207 61 52 208 59 50 209 67 58 210 62 53 211 66 57 212 67 58 213 63 54 214 62 53 215 67 58 216 64 55 217 63 54 218 67 58 219 65 56 220 64 55 221 67 58 222 66 57 223 65 56 224 32 23 225 60 51 226 31 22 227 68 59 228 60 51 229 32 23 230 68 59 231 58 49 232 60 51 233 69 60 234 58 49 235 68 59 236 69 60 237 57 48 238 58 49 239 57 48 240 69 60 241 70 61 242 69 60 243 71 62 244 70 61 245 69 60 246 72 63 247 71 62 248 72 63 249 69 60 250 68 59 251 72 63 252 68 59 253 33 24 254 33 24 255 68 59 256 32 23 257 73 64 258 72 63 259 33 24 260 72 63 261 73 64 262 74 65 263 75 66 264 74 65 265 73 64 266 76 67 267 74 65 268 75 66 269 76 67 270 77 68 271 74 65 272 78 69 273 77 68 274 76 67 275 78 69 276 79 70 277 77 68 278 78 69 279 80 71 280 79 70 281 81 72 282 80 71 283 78 69 284 81 72 285 82 73 286 80 71 287 83 74 288 82 73 289 81 72 290 83 74 291 84 75 292 82 73 293 83 74 294 85 76 295 84 75 296 86 77 297 85 76 298 83 74 299 86 77 300 87 78 301 85 76 302 88 79 303 87 78 304 86 77 305 88 79 306 89 80 307 87 78 308 88 79 309 90 81 310 89 80 311 91 82 312 90 81 313 88 79 314 91 82 315 92 83 316 90 81 317 93 84 318 92 83 319 91 82 320 93 84 321 36 27 322 92 83 323 93 84 324 35 26 325 36 27 326 94 85 327 35 26 328 93 84 329 94 85 330 34 25 331 35 26 332 75 66 333 34 25 334 94 85 335 75 66 336 73 64 337 34 25 338 33 24 339 34 25 340 73 64 341 95 86 342 75 66 343 94 85 344 95 86 345 76 67 346 75 66 347 96 87 348 76 67 349 95 86 350 96 87 351 78 69 352 76 67 353 96 87 354 81 72 355 78 69 356 97 88 357 81 72 358 96 87 359 97 88 360 83 74 361 81 72 362 97 88 363 86 77 364 83 74 365 98 89 366 86 77 367 97 88 368 98 89 369 88 79 370 86 77 371 98 89 372 91 82 373 88 79 374 99 90 375 91 82 376 98 89 377 99 90 378 93 84 379 91 82 380 99 90 381 94 85 382 93 84 383 95 86 384 94 85 385 99 90 386 100 91 387 95 86 388 99 90 389 100 91 390 96 87 391 95 86 392 100 91 393 97 88 394 96 87 395 100 91 396 98 89 397 97 88 398 100 91 399 99 90 400 98 89 401 37 28 402 92 83 403 36 27 404 101 92 405 92 83 406 37 28 407 101 92 408 90 81 409 92 83 410 102 93 411 90 81 412 101 92 413 102 93 414 89 80 415 90 81 416 89 80 417 102 93 418 103 94 419 102 93 420 104 95 421 103 94 422 102 93 423 105 96 424 104 95 425 105 96 426 102 93 427 101 92 428 105 96 429 101 92 430 38 29 431 38 29 432 101 92 433 37 28 434 42 33 435 105 96 436 38 29 437 105 96 438 42 33 439 43 34 440 105 96 441 43 34 442 104 95 443 104 95 444 43 34 445 45 36 446 104 95 447 45 36 448 106 97 449 106 97 450 45 36 451 47 38 452 47 38 453 107 98 454 106 97 455 107 98 456 47 38 457 48 39 458 107 98 459 48 39 460 108 99 461 108 99 462 48 39 463 50 41 464 108 99 465 50 41 466 109 100 467 109 100 468 50 41 469 52 43 470 52 43 471 110 101 472 109 100 473 110 101 474 52 43 475 53 44 476 110 101 477 53 44 478 111 102 479 111 102 480 53 44 481 55 46 482 111 102 483 55 46 484 70 61 485 70 61 486 55 46 487 57 48 488 112 103 489 111 102 490 70 61 491 113 104 492 111 102 493 112 103 494 113 104 495 110 101 496 111 102 497 110 101 498 113 104 499 114 105 500 113 104 501 80 71 502 114 105 503 113 104 504 79 70 505 80 71 506 79 70 507 113 104 508 112 103 509 112 103 510 77 68 511 79 70 512 71 62 513 77 68 514 112 103 515 71 62 516 74 65 517 77 68 518 72 63 519 74 65 520 71 62 521 70 61 522 71 62 523 112 103 524 114 105 525 80 71 526 82 73 527 114 105 528 82 73 529 115 106 530 115 106 531 82 73 532 84 75 533 84 75 534 116 107 535 115 106 536 116 107 537 84 75 538 85 76 539 116 107 540 85 76 541 117 108 542 117 108 543 85 76 544 87 78 545 117 108 546 87 78 547 103 94 548 103 94 549 87 78 550 89 80 551 106 97 552 117 108 553 103 94 554 107 98 555 117 108 556 106 97 557 107 98 558 116 107 559 117 108 560 116 107 561 107 98 562 108 99 563 116 107 564 108 99 565 115 106 566 115 106 567 108 99 568 109 100 569 109 100 570 114 105 571 115 106 572 110 101 573 114 105 574 109 100 575 103 94 576 104 95 577 106 97 578 38 29 579 39 30 580 42 33 581 119 13 582 121 13 583 118 13 584 123 7 585 118 7 586 122 7 587 125 8 588 122 8 589 124 8 590 120 9 591 124 9 592 121 9 593 127 109 594 120 110 595 126 110 596 126 1 597 129 1 598 127 1 599 126 111 600 119 112 601 128 112 602 129 113 603 119 114 604 123 115 605 129 116 606 125 117 607 127 118 608 131 119 609 133 120 610 130 121 611 135 122 612 130 121 613 134 123 614 137 124 615 134 123 616 136 125 617 139 126 618 136 125 619 138 127 620 141 128 621 138 127 622 140 129 623 143 130 624 140 129 625 142 131 626 145 132 627 142 131 628 144 133 629 147 134 630 144 133 631 146 135 632 149 136 633 146 135 634 148 137 635 151 138 636 148 137 637 150 139 638 153 140 639 150 139 640 152 141 641 155 142 642 152 141 643 154 143 644 157 144 645 154 143 646 156 145 647 159 146 648 156 145 649 158 147 650 161 148 651 158 147 652 160 149 653 163 150 654 160 149 655 162 151 656 165 152 657 162 151 658 164 153 659 167 154 660 164 153 661 166 155 662 169 156 663 166 155 664 168 157 665 171 158 666 168 157 667 170 159 668 173 160 669 170 159 670 172 161 671 175 162 672 172 161 673 174 163 674 177 164 675 174 163 676 176 165 677 132 166 678 176 165 679 133 120 680 178 167 681 177 168 682 132 169 683 178 167 684 131 170 685 180 171 686 180 171 687 135 172 688 181 173 689 182 174 690 135 172 691 137 175 692 183 176 693 137 175 694 139 177 695 183 176 696 141 178 697 184 179 698 185 180 699 141 178 700 143 181 701 185 180 702 145 182 703 186 183 704 186 183 705 147 184 706 187 185 707 188 186 708 147 184 709 149 187 710 188 186 711 151 188 712 189 189 713 189 189 714 153 190 715 190 191 716 191 192 717 153 190 718 155 193 719 192 194 720 155 193 721 157 195 722 193 196 723 157 195 724 159 197 725 194 198 726 159 197 727 161 199 728 195 200 729 161 199 730 163 201 731 196 202 732 163 201 733 165 203 734 196 202 735 167 204 736 197 205 737 197 205 738 169 206 739 198 207 740 198 207 741 171 208 742 199 209 743 199 209 744 173 210 745 200 211 746 201 212 747 173 210 748 175 213 749 201 212 750 177 168 751 179 214 752 179 215 753 202 216 754 203 217 755 204 218 756 179 215 757 203 217 758 180 219 759 202 216 760 178 220 761 181 221 762 205 222 763 180 219 764 182 223 765 206 224 766 181 221 767 182 223 768 208 225 769 207 226 770 184 227 771 208 225 772 183 228 773 184 227 774 210 229 775 209 1 776 185 230 777 211 231 778 210 229 779 211 231 780 187 232 781 212 233 782 212 233 783 188 234 784 213 235 785 213 235 786 189 236 787 214 237 788 214 237 789 190 238 790 215 239 791 216 240 792 190 238 793 191 241 794 217 242 795 191 241 796 192 243 797 218 244 798 192 243 799 193 245 800 218 244 801 194 246 802 219 247 803 219 247 804 195 248 805 220 249 806 221 250 807 195 248 808 196 1 809 221 250 810 197 251 811 222 252 812 222 252 813 198 253 814 223 254 815 224 255 816 198 253 817 199 256 818 225 257 819 199 256 820 200 258 821 204 218 822 200 258 823 201 259 824 196 260 825 188 261 826 201 262 827 204 263 828 226 264 829 227 265 830 202 266 831 226 264 832 203 267 833 202 266 834 229 268 835 228 269 836 211 270 837 230 271 838 231 272 839 212 273 840 232 274 841 230 271 842 214 275 843 232 274 844 213 276 845 214 275 846 234 277 847 233 278 848 216 279 849 234 277 850 215 280 851 217 281 852 235 282 853 216 279 854 218 283 855 236 284 856 217 281 857 218 283 858 238 285 859 237 286 860 220 287 861 238 285 862 219 288 863 220 287 864 240 289 865 239 290 866 222 291 867 240 289 868 221 292 869 223 293 870 241 294 871 222 291 872 224 295 873 242 296 874 223 293 875 224 295 876 244 297 877 243 298 878 204 263 879 244 297 880 225 299 881 206 300 882 229 268 883 205 301 884 206 300 885 246 302 886 245 303 887 207 304 888 247 305 889 246 302 890 208 306 891 248 307 892 247 305 893 210 308 894 248 307 895 209 309 896 210 308 897 231 272 898 249 310 899 244 311 900 251 312 901 250 313 902 243 314 903 250 313 904 252 315 905 242 316 906 252 315 907 253 317 908 241 318 909 253 317 910 254 319 911 240 320 912 254 319 913 255 321 914 239 322 915 255 321 916 256 323 917 238 324 918 256 323 919 257 325 920 237 326 921 257 325 922 258 327 923 236 328 924 258 327 925 259 329 926 235 330 927 259 329 928 260 331 929 234 332 930 260 331 931 261 333 932 233 334 933 261 333 934 262 335 935 232 336 936 262 335 937 263 337 938 230 338 939 263 337 940 264 339 941 231 340 942 264 339 943 265 341 944 249 342 945 265 341 946 266 343 947 248 344 948 266 343 949 267 345 950 247 346 951 267 345 952 268 347 953 246 348 954 268 347 955 269 349 956 245 350 957 269 349 958 270 351 959 229 352 960 270 351 961 271 353 962 228 354 963 271 353 964 272 355 965 226 356 966 272 355 967 273 357 968 227 358 969 273 357 970 251 312 971 1 0 972 2 1 973 3 1 974 5 3 975 1 0 976 0 2 977 3 1 978 2 1 979 6 1 980 1 4 981 5 359 982 8 5 983 9 7 984 8 7 985 11 7 986 13 8 987 9 8 988 10 8 989 15 9 990 13 9 991 12 9 992 2 10 993 13 360 994 15 11 995 7 7 996 16 7 997 17 7 998 3 13 999 17 13 1000 18 13 1001 0 9 1002 18 9 1003 19 9 1004 1 14 1005 9 361 1006 13 15 1007 21 1 1008 22 1 1009 23 1 1010 20 13 1011 23 13 1012 25 13 1013 119 13 1014 120 13 1015 121 13 1016 123 7 1017 119 7 1018 118 7 1019 125 8 1020 123 8 1021 122 8 1022 120 9 1023 125 9 1024 124 9 1025 127 109 1026 125 362 1027 120 110 1028 126 1 1029 128 1 1030 129 1 1031 126 111 1032 120 111 1033 119 112 1034 129 113 1035 128 114 1036 119 114 1037 129 116 1038 123 363 1039 125 117 1040 131 119 1041 132 166 1042 133 120 1043 135 122 1044 131 119 1045 130 121 1046 137 124 1047 135 122 1048 134 123 1049 139 126 1050 137 124 1051 136 125 1052 141 128 1053 139 126 1054 138 127 1055 143 130 1056 141 128 1057 140 129 1058 145 132 1059 143 130 1060 142 131 1061 147 134 1062 145 132 1063 144 133 1064 149 136 1065 147 134 1066 146 135 1067 151 138 1068 149 136 1069 148 137 1070 153 140 1071 151 138 1072 150 139 1073 155 142 1074 153 140 1075 152 141 1076 157 144 1077 155 142 1078 154 143 1079 159 146 1080 157 144 1081 156 145 1082 161 148 1083 159 146 1084 158 147 1085 163 150 1086 161 148 1087 160 149 1088 165 152 1089 163 150 1090 162 151 1091 167 154 1092 165 152 1093 164 153 1094 169 156 1095 167 154 1096 166 155 1097 171 158 1098 169 156 1099 168 157 1100 173 160 1101 171 158 1102 170 159 1103 175 162 1104 173 160 1105 172 161 1106 177 164 1107 175 162 1108 174 163 1109 132 166 1110 177 164 1111 176 165 1112 178 167 1113 179 214 1114 177 168 1115 178 167 1116 132 169 1117 131 170 1118 180 171 1119 131 170 1120 135 172 1121 182 174 1122 181 173 1123 135 172 1124 183 176 1125 182 174 1126 137 175 1127 183 176 1128 139 177 1129 141 178 1130 185 180 1131 184 179 1132 141 178 1133 185 180 1134 143 181 1135 145 182 1136 186 183 1137 145 182 1138 147 184 1139 188 186 1140 187 185 1141 147 184 1142 188 186 1143 149 187 1144 151 188 1145 189 189 1146 151 188 1147 153 190 1148 191 192 1149 190 191 1150 153 190 1151 192 194 1152 191 192 1153 155 193 1154 193 196 1155 192 194 1156 157 195 1157 194 198 1158 193 196 1159 159 197 1160 195 200 1161 194 198 1162 161 199 1163 196 202 1164 195 200 1165 163 201 1166 196 202 1167 165 203 1168 167 204 1169 197 205 1170 167 204 1171 169 206 1172 198 207 1173 169 206 1174 171 208 1175 199 209 1176 171 208 1177 173 210 1178 201 212 1179 200 211 1180 173 210 1181 201 212 1182 175 213 1183 177 168 1184 179 215 1185 178 220 1186 202 216 1187 204 218 1188 201 259 1189 179 215 1190 180 219 1191 205 222 1192 202 216 1193 181 221 1194 206 224 1195 205 222 1196 182 223 1197 207 226 1198 206 224 1199 182 223 1200 183 228 1201 208 225 1202 184 227 1203 209 1 1204 208 225 1205 184 227 1206 185 230 1207 210 229 1208 185 230 1209 186 364 1210 211 231 1211 211 231 1212 186 364 1213 187 232 1214 212 233 1215 187 232 1216 188 234 1217 213 235 1218 188 234 1219 189 236 1220 214 237 1221 189 236 1222 190 238 1223 216 240 1224 215 239 1225 190 238 1226 217 242 1227 216 240 1228 191 241 1229 218 244 1230 217 242 1231 192 243 1232 218 244 1233 193 245 1234 194 246 1235 219 247 1236 194 246 1237 195 248 1238 221 250 1239 220 249 1240 195 248 1241 221 250 1242 196 1 1243 197 251 1244 222 252 1245 197 251 1246 198 253 1247 224 255 1248 223 254 1249 198 253 1250 225 257 1251 224 255 1252 199 256 1253 204 218 1254 225 257 1255 200 258 1256 180 365 1257 178 1 1258 188 261 1259 179 1 1260 201 262 1261 178 1 1262 200 1 1263 199 1 1264 196 260 1265 198 366 1266 197 367 1267 196 260 1268 196 260 1269 195 1 1270 194 1 1271 194 1 1272 193 368 1273 196 260 1274 192 369 1275 191 370 1276 190 371 1277 190 371 1278 189 372 1279 188 261 1280 188 261 1281 187 373 1282 186 374 1283 186 374 1284 185 375 1285 188 261 1286 184 376 1287 183 377 1288 180 365 1289 182 378 1290 181 379 1291 180 365 1292 178 1 1293 201 262 1294 188 261 1295 199 1 1296 198 366 1297 196 260 1298 196 260 1299 193 368 1300 192 369 1301 192 369 1302 190 371 1303 188 261 1304 188 261 1305 185 375 1306 184 376 1307 183 377 1308 182 378 1309 180 365 1310 201 262 1311 200 1 1312 196 260 1313 196 260 1314 192 369 1315 188 261 1316 188 261 1317 184 376 1318 180 365 1319 204 263 1320 203 267 1321 226 264 1322 202 266 1323 228 269 1324 226 264 1325 202 266 1326 205 301 1327 229 268 1328 211 270 1329 212 273 1330 230 271 1331 212 273 1332 213 276 1333 232 274 1334 214 275 1335 233 278 1336 232 274 1337 214 275 1338 215 280 1339 234 277 1340 216 279 1341 235 282 1342 234 277 1343 217 281 1344 236 284 1345 235 282 1346 218 283 1347 237 286 1348 236 284 1349 218 283 1350 219 288 1351 238 285 1352 220 287 1353 239 290 1354 238 285 1355 220 287 1356 221 292 1357 240 289 1358 222 291 1359 241 294 1360 240 289 1361 223 293 1362 242 296 1363 241 294 1364 224 295 1365 243 298 1366 242 296 1367 224 295 1368 225 299 1369 244 297 1370 204 263 1371 227 265 1372 244 297 1373 206 300 1374 245 303 1375 229 268 1376 206 300 1377 207 304 1378 246 302 1379 207 304 1380 208 306 1381 247 305 1382 208 306 1383 209 309 1384 248 307 1385 210 308 1386 249 310 1387 248 307 1388 210 308 1389 211 270 1390 231 272 1391 244 311 1392 227 358 1393 251 312 1394 243 314 1395 244 311 1396 250 313 1397 242 316 1398 243 314 1399 252 315 1400 241 318 1401 242 316 1402 253 317 1403 240 320 1404 241 318 1405 254 319 1406 239 322 1407 240 320 1408 255 321 1409 238 324 1410 239 322 1411 256 323 1412 237 326 1413 238 324 1414 257 325 1415 236 328 1416 237 326 1417 258 327 1418 235 330 1419 236 328 1420 259 329 1421 234 332 1422 235 330 1423 260 331 1424 233 334 1425 234 332 1426 261 333 1427 232 336 1428 233 334 1429 262 335 1430 230 338 1431 232 336 1432 263 337 1433 231 340 1434 230 338 1435 264 339 1436 249 342 1437 231 340 1438 265 341 1439 248 344 1440 249 342 1441 266 343 1442 247 346 1443 248 344 1444 267 345 1445 246 348 1446 247 346 1447 268 347 1448 245 350 1449 246 348 1450 269 349 1451 229 352 1452 245 350 1453 270 351 1454 228 354 1455 229 352 1456 271 353 1457 226 356 1458 228 354 1459 272 355 1460 227 358 1461 226 356 1462 273 357 1463</p>
        </polylist>
      </mesh>
    </geometry>
  </library_geometries>
  <library_controllers/>
  <library_visual_scenes>
    <visual_scene id="Scene" name="Scene">
      <node id="Mesh3_Group4_Group1_Model" name="Mesh3_Group4_Group1_Model" type="NODE">
        <matrix sid="transform">1 0 0 0 0 -1.62921e-7 -1 0 0 1 -1.62921e-7 0 0 0 0 1</matrix>
        <instance_geometry url="#Mesh3_Group4_Group1_Model-mesh" name="Mesh3_Group4_Group1_Model">
          <bind_material>
            <technique_common>
              <instance_material symbol="FrontColor-material" target="#FrontColor-material">
                <bind_vertex_input semantic="UVMap" input_semantic="TEXCOORD" input_set="0"/>
              </instance_material>
            </technique_common>
          </bind_material>
        </instance_geometry>
      </node>
    </visual_scene>
  </library_visual_scenes>
  <scene>
    <instance_visual_scene url="#Scene"/>
  </scene>
</COLLADA>