<?xml version="1.0" encoding="utf-8"?>
<COLLADA xmlns="http://www.collada.org/2005/11/COLLADASchema" version="1.4.1">
  <asset>
    <contributor>
      <author>Blender User</author>
      <authoring_tool>Blender 2.78.0 commit date:2016-10-24, commit time:12:20, hash:e8299c8</authoring_tool>
    </contributor>
    <created>2021-10-31T11:05:04</created>
    <modified>2021-10-31T11:05:04</modified>
    <unit name="meter" meter="1"/>
    <up_axis>Z_UP</up_axis>
  </asset>
  <library_images>
    <image id="video_store_carpet_small__color_png" name="video_store_carpet_small__color_png">
      <init_from>/I:/3D_Asset_Packages/For%20Sale/Video_Store/Carpet_Small/Model/video_store_carpet_small__color.png</init_from>
    </image>
  </library_images>
  <library_effects>
    <effect id="FrontColor-effect">
      <profile_COMMON>
        <newparam sid="video_store_carpet_small__color_png-surface">
          <surface type="2D">
            <init_from>video_store_carpet_small__color_png</init_from>
          </surface>
        </newparam>
        <newparam sid="video_store_carpet_small__color_png-sampler">
          <sampler2D>
            <source>video_store_carpet_small__color_png-surface</source>
          </sampler2D>
        </newparam>
        <technique sid="common">
          <phong>
            <emission>
              <color sid="emission">0 0 0 1</color>
            </emission>
            <ambient>
              <color sid="ambient">0 0 0 1</color>
            </ambient>
            <diffuse>
              <texture texture="video_store_carpet_small__color_png-sampler" texcoord="UVMap"/>
            </diffuse>
            <specular>
              <color sid="specular">1 1 1 1</color>
            </specular>
            <shininess>
              <float sid="shininess">52</float>
            </shininess>
            <transparent opaque="A_ONE">
              <color>1 1 1 1</color>
            </transparent>
            <index_of_refraction>
              <float sid="index_of_refraction">1</float>
            </index_of_refraction>
          </phong>
        </technique>
      </profile_COMMON>
    </effect>
  </library_effects>
  <library_materials>
    <material id="FrontColor-material" name="FrontColor">
      <instance_effect url="#FrontColor-effect"/>
    </material>
  </library_materials>
  <library_geometries>
    <geometry id="Mesh1_Group1_Model-mesh" name="Mesh1_Group1_Model">
      <mesh>
        <source id="Mesh1_Group1_Model-mesh-positions">
          <float_array id="Mesh1_Group1_Model-mesh-positions-array" count="792">0.491892 0.00999999 0.739125 0.479836 0.00999999 0.729836 0.490599 0.00999999 0.740599 0.492981 0.00999999 0.737495 0.493848 0.00999999 0.735736 0.494479 0.00999999 0.73388 0.494861 0.00999999 0.731956 0.495 0.00999999 -0.729836 0.479836 0.00999999 -0.729836 0.495 0.00999999 0.729836 0.494861 0.00999999 -0.731956 0.4975 0.009330987 -0.729918 0.497345 0.009330987 -0.732284 0.4975 0.009329974 0.729918 0.497345 0.009329974 0.732284 0.496899 0.009329974 0.734528 0.496163 0.009329974 0.736695 0.495151 0.009329974 0.738747 0.493879 0.009329974 0.74065 0.492371 0.009329974 0.742371 0.489125 0.00999999 0.741892 0.49065 0.009329974 0.743879 0.487495 0.00999999 0.742981 0.488747 0.009329974 0.745151 0.485736 0.00999999 0.743848 0.486695 0.009329974 0.746163 0.48388 0.00999999 0.744479 0.484528 0.009329974 0.746899 0.481956 0.00999999 0.744861 0.482284 0.009329974 0.747345 0.479836 0.00999999 0.745 0.479918 0.009329974 0.7475 -0.479836 0.00999999 0.745 -0.479918 0.009329974 0.7475 -0.479836 0.00999999 0.729836 -0.479836 0.00999999 -0.729836 -0.479836 0.00999999 -0.745 0.479836 0.00999999 -0.745 -0.481956 0.00999999 -0.744861 -0.479918 0.009329974 -0.7475 -0.482284 0.009329974 -0.747345 0.479918 0.009330987 -0.7475 0.481956 0.00999999 -0.744861 0.482284 0.009330987 -0.747345 0.48388 0.00999999 -0.744479 0.485736 0.00999999 -0.743848 0.487495 0.00999999 -0.742981 0.489125 0.00999999 -0.741892 0.490599 0.00999999 -0.740599 0.491892 0.00999999 -0.739125 0.493879 0.009330987 -0.74065 0.492371 0.009330987 -0.742371 0.492981 0.00999999 -0.737495 0.495151 0.009330987 -0.738747 0.493848 0.00999999 -0.735736 0.496163 0.009330987 -0.736695 0.494479 0.00999999 -0.73388 0.496899 0.009330987 -0.734528 0.499163 0.007499992 -0.732523 0.49867 0.007499992 -0.735003 0.49933 0.007499992 -0.729978 0.49933 0.007499992 0.729978 0.499163 0.007499992 0.732523 0.49867 0.007499992 0.735003 0.497857 0.007499992 0.737397 0.496739 0.007499992 0.739664 0.495334 0.007499992 0.741767 0.493667 0.007499992 0.743667 0.491767 0.007499992 0.745334 0.489664 0.007499992 0.746739 0.487397 0.007499992 0.747857 0.485003 0.007499992 0.74867 0.482523 0.007499992 0.749163 0.479978 0.007499992 0.74933 -0.479978 0.007499992 0.74933 -0.482284 0.009329974 0.747345 -0.482523 0.007499992 0.749163 -0.481956 0.00999999 0.744861 -0.48388 0.00999999 0.744479 -0.484528 0.009329974 0.746899 -0.485736 0.00999999 0.743848 -0.486695 0.009329974 0.746163 -0.487495 0.00999999 0.742981 -0.488747 0.009329974 0.745151 -0.489125 0.00999999 0.741892 -0.49065 0.009329974 0.743879 -0.490599 0.00999999 0.740599 -0.492371 0.009329974 0.742371 -0.491892 0.00999999 0.739125 -0.493879 0.009329974 0.74065 -0.492981 0.00999999 0.737495 -0.495151 0.009329974 0.738747 -0.493848 0.00999999 0.735736 -0.496163 0.009329974 0.736695 -0.494479 0.00999999 0.73388 -0.496899 0.009329974 0.734528 -0.494861 0.00999999 0.731956 -0.497345 0.009329974 0.732284 -0.495 0.00999999 0.729836 -0.4975 0.009329974 0.729918 -0.495 0.00999999 -0.729836 -0.4975 0.009329974 -0.729918 -0.494861 0.00999999 -0.731956 -0.494479 0.00999999 -0.73388 -0.493848 0.00999999 -0.735736 -0.492981 0.00999999 -0.737495 -0.491892 0.00999999 -0.739125 -0.490599 0.00999999 -0.740599 -0.489125 0.00999999 -0.741892 -0.487495 0.00999999 -0.742981 -0.485736 0.00999999 -0.743848 -0.486695 0.009329974 -0.746163 -0.488747 0.009329974 -0.745151 -0.48388 0.00999999 -0.744479 -0.484528 0.009329974 -0.746899 -0.482523 0.007499992 -0.749163 -0.485003 0.007499992 -0.74867 -0.479978 0.007499992 -0.74933 0.479978 0.007499992 -0.74933 0.482523 0.007499992 -0.749163 0.484528 0.009330987 -0.746899 0.485003 0.007499992 -0.74867 0.486695 0.009330987 -0.746163 0.488747 0.009330987 -0.745151 0.49065 0.009330987 -0.743879 0.493667 0.007499992 -0.743667 0.491767 0.007499992 -0.745334 0.495334 0.007499992 -0.741767 0.496739 0.007499992 -0.739664 0.497857 0.007499992 -0.737397 0.499319 0.004999995 -0.735176 0.498478 0.004999995 -0.737654 0.499829 0.004999995 -0.732611 0.5 0.004999995 -0.73 0.5 0.004999995 0.73 0.499829 0.004999995 0.732611 0.499319 0.004999995 0.735176 0.498478 0.004999995 0.737654 0.497321 0.004999995 0.74 0.495867 0.004999995 0.742175 0.494142 0.004999995 0.744142 0.492175 0.004999995 0.745867 0.49 0.004999995 0.747321 0.487654 0.004999995 0.748478 0.485176 0.004999995 0.749319 0.482611 0.004999995 0.749829 0.48 0.004999995 0.75 -0.48 0.004999995 0.75 -0.482611 0.004999995 0.749829 -0.485003 0.007499992 0.74867 -0.485176 0.004999995 0.749319 -0.487397 0.007499992 0.747857 -0.489664 0.007499992 0.746739 -0.491767 0.007499992 0.745334 -0.493667 0.007499992 0.743667 -0.495334 0.007499992 0.741767 -0.496739 0.007499992 0.739664 -0.497857 0.007499992 0.737397 -0.49867 0.007499992 0.735003 -0.499163 0.007499992 0.732523 -0.49933 0.007499992 0.729978 -0.49933 0.007499992 -0.729978 -0.497345 0.009329974 -0.732284 -0.499163 0.007499992 -0.732523 -0.496899 0.009329974 -0.734528 -0.496163 0.009329974 -0.736695 -0.495151 0.009329974 -0.738747 -0.493879 0.009329974 -0.74065 -0.492371 0.009329974 -0.742371 -0.49065 0.009329974 -0.743879 -0.489664 0.007499992 -0.746739 -0.491767 0.007499992 -0.745334 -0.487397 0.007499992 -0.747857 -0.485176 0.004999995 -0.749319 -0.487654 0.004999995 -0.748478 -0.482611 0.004999995 -0.749829 -0.48 0.004999995 -0.75 0.48 0.004999995 -0.75 0.482611 0.004999995 -0.749829 0.485176 0.004999995 -0.749319 0.487397 0.007499992 -0.747857 0.487654 0.004999995 -0.748478 0.489664 0.007499992 -0.746739 0.492175 0.004999995 -0.745867 0.49 0.004999995 -0.747321 0.494142 0.004999995 -0.744142 0.495867 0.004999995 -0.742175 0.497321 0.004999995 -0.74 0.497321 0 -0.74 0.498478 0 -0.737654 0.495867 0 -0.742175 0.494142 0 -0.744142 0.492175 0 -0.745867 0.49 0 -0.747321 0.487654 0 -0.748478 0.485176 0 -0.749319 0.482611 0 -0.749829 0.48 0 -0.75 -0.48 0 -0.75 -0.482611 0 -0.749829 -0.485176 0 -0.749319 -0.487654 0 -0.748478 -0.49 0 -0.747321 -0.49 0.004999995 -0.747321 -0.492175 0 -0.745867 -0.492175 0.004999995 -0.745867 -0.494142 0 -0.744142 -0.494142 0.004999995 -0.744142 -0.495867 0 -0.742175 -0.495867 0.004999995 -0.742175 -0.497321 0 -0.74 -0.497321 0.004999995 -0.74 -0.498478 0 -0.737654 -0.498478 0.004999995 -0.737654 -0.499319 0 -0.735176 -0.499319 0.004999995 -0.735176 -0.499829 0 -0.732611 -0.499829 0.004999995 -0.732611 -0.5 0 -0.73 -0.5 0.004999995 -0.73 -0.5 0 0.73 -0.5 0.004999995 0.73 -0.499829 0 0.732611 -0.499829 0.004999995 0.732611 -0.499319 0 0.735176 -0.499319 0.004999995 0.735176 -0.498478 0 0.737654 -0.498478 0.004999995 0.737654 -0.497321 0 0.74 -0.497321 0.004999995 0.74 -0.495867 0 0.742175 -0.495867 0.004999995 0.742175 -0.494142 0 0.744142 -0.494142 0.004999995 0.744142 -0.492175 0 0.745867 -0.492175 0.004999995 0.745867 -0.49 0 0.747321 -0.49 0.004999995 0.747321 -0.487654 0 0.748478 -0.487654 0.004999995 0.748478 -0.485176 0 0.749319 -0.482611 0 0.749829 -0.48 0 0.75 0.48 0 0.75 0.482611 0 0.749829 0.485176 0 0.749319 0.487654 0 0.748478 0.49 0 0.747321 0.492175 0 0.745867 0.494142 0 0.744142 0.495867 0 0.742175 0.497321 0 0.74 0.498478 0 0.737654 0.499319 0 0.735176 0.499829 0 0.732611 0.5 0 0.73 0.5 0 -0.73 0.499829 0 -0.732611 0.499319 0 -0.735176 -0.49867 0.007499992 -0.735003 -0.497857 0.007499992 -0.737397 -0.496739 0.007499992 -0.739664 -0.495334 0.007499992 -0.741767 -0.493667 0.007499992 -0.743667</float_array>
          <technique_common>
            <accessor source="#Mesh1_Group1_Model-mesh-positions-array" count="264" stride="3">
              <param name="X" type="float"/>
              <param name="Y" type="float"/>
              <param name="Z" type="float"/>
            </accessor>
          </technique_common>
        </source>
        <source id="Mesh1_Group1_Model-mesh-normals">
          <float_array id="Mesh1_Group1_Model-mesh-normals-array" count="795">0.1034114 0.991469 0.07934355 0 1 0 0.09207075 0.9914869 0.09207046 0.1128598 0.9914745 0.06512302 0.1203334 0.9914819 0.04983663 0.125813 0.9914823 0.033674 0.1720854 0.9848234 0.02257883 0 1 0 0.1737335 0.9847763 0.005689322 0.1302677 0.9914698 -0.00426656 0.1289618 0.9915056 -0.01690006 0.499563 0.8661234 -0.01634705 0.4948121 0.8665581 -0.06510096 0.5033219 0.8638403 0.02114546 0.5012701 0.8619877 0.07553619 0.461097 0.8665388 0.1910503 0.4871896 0.86195 0.1403154 0.4322388 0.866526 0.2496045 0.3959738 0.8665726 0.3037384 0.3037343 0.866573 0.3959756 0.3516829 0.8619586 0.3651666 0.07855135 0.9906951 0.1111438 0.0651375 0.9914748 0.1128486 0.04701483 0.9912841 0.123067 0.2452448 0.8619706 0.443691 0.03371256 0.9914825 0.1258016 0.18524 0.8619795 0.4718872 0.06510519 0.8665351 0.494852 0.12208 0.861953 0.4920707 0.01234334 0.9907035 0.1354776 0.004270911 0.9914423 0.1304757 0.01634532 0.8661289 0.4995535 -0.006987571 0.9910819 0.1330709 0 1 0 0 1 0 0.004261434 0.9914653 -0.1303009 -0.004270076 0.9914449 -0.1304561 -0.01691764 0.9914862 -0.1291082 -0.01634639 0.8661289 -0.4995533 -0.06510275 0.866535 -0.4948523 0.02088177 0.9912967 -0.1299802 0.02114611 0.8638636 -0.5032818 0.03366261 0.9915076 -0.1256171 0.04979258 0.9915075 -0.1201403 0.06504672 0.9914999 -0.1126813 0.07920455 0.9915009 -0.1032121 0.09197121 0.9915052 -0.09197121 0.1032115 0.9915009 -0.07920461 0.3959454 0.8665922 -0.3037189 0.3529121 0.8665478 -0.3529137 0.11577 0.991306 -0.06252807 0.1201438 0.9915071 -0.04979109 0.443665 0.8619903 -0.2452229 0.1280003 0.991307 -0.03043818 0.4718576 0.8619999 -0.18522 0.4920466 0.8619752 -0.1220211 0.8581991 0.5007355 -0.1129528 0.8360921 0.500764 -0.2240211 0.8655031 0.5001004 -0.02835881 0.8666853 0.497891 0.03100466 0.8600183 0.4962506 0.1187599 0.8371513 0.4962607 0.2300071 0.7998996 0.496333 0.3373636 0.749054 0.4963006 0.4388666 0.685414 0.4962396 0.5328733 0.5268684 0.5008983 0.6866663 0.6100664 0.4961813 0.6177566 0.4327615 0.5009401 0.7495175 0.3312655 0.5009581 0.799565 0.2239993 0.5008853 0.8360254 0.1129409 0.5009024 0.8581032 0.02836322 0.5001679 0.8654639 -0.01633512 0.8661022 0.4996002 -0.07235538 0.8649954 0.4965355 -0.03106284 0.4979025 0.8666765 -0.02093529 0.9912761 0.1301292 -0.03371262 0.9914825 0.1258016 -0.1910573 0.8665338 0.4611034 -0.1403141 0.8619477 0.4871943 -0.05699676 0.990706 0.1235035 -0.06513714 0.9914749 0.1128488 -0.2496032 0.8665247 0.4322422 -0.303735 0.8665731 0.3959752 -0.087031 0.9906957 0.1046315 -0.09210568 0.9914802 0.09210622 -0.3959741 0.8665724 0.3037379 -0.3651708 0.8619557 0.3516857 -0.111144 0.9906951 0.07855218 -0.1128495 0.9914745 0.06514072 -0.1230732 0.9912835 0.04701298 -0.4436857 0.8619739 0.245243 -0.1258024 0.9914824 0.03371274 -0.4718816 0.8619835 0.1852352 -0.4948452 0.8665388 0.06510615 -0.4920678 0.8619544 0.1220819 -0.1354647 0.9907047 0.01239341 -0.130475 0.9914425 0.004272997 -0.4995564 0.8661271 0.01634681 -0.1330735 0.9910816 -0.006987214 -0.1291459 0.9914803 -0.01697945 -0.1258024 0.9914824 -0.0337128 -0.1203216 0.9914819 -0.04986494 -0.1128493 0.9914745 -0.0651412 -0.103405 0.991469 -0.0793519 -0.09207075 0.9914869 -0.09207046 -0.07934981 0.9914694 -0.1034033 -0.0651375 0.9914748 -0.1128486 -0.04986459 0.9914823 -0.1203177 -0.2496066 0.8665246 -0.4322401 -0.0304861 0.9912815 -0.1281862 -0.18524 0.8619795 -0.4718872 -0.12208 0.861953 -0.4920707 -0.1129409 0.5009024 -0.8581032 -0.2240026 0.5008853 -0.8360245 -0.0283634 0.5001677 -0.865464 0.05862158 0.8650707 -0.4982132 0.03111982 0.4977892 -0.8667396 0.1365546 0.8649972 -0.4828383 0.1187765 0.4961448 -0.860077 0.1910432 0.8665537 -0.4610717 0.249583 0.8665451 -0.432213 0.3037156 0.8665921 -0.3959485 0.5269384 0.5007364 -0.6867308 0.686734 0.5007411 -0.5269296 0.6178004 0.4960602 -0.6101204 0.7495717 0.5008153 -0.4328122 0.7996283 0.5008435 -0.3312864 0.9159272 0.1309199 -0.379391 0.9579134 0.1301705 -0.2558471 0.9909 0.1306351 -0.03243046 0.9830957 0.130182 -0.1287459 0.9909476 0.1302727 0.03243196 0.9576363 0.1308723 0.2565251 0.9829215 0.1301859 0.1300654 0.9159263 0.1309199 0.3793929 0.8585193 0.130824 0.4958121 0.7864983 0.1307238 0.6035991 0.7010326 0.130836 0.7010244 0.6032379 0.1301242 0.7868747 0.4953146 0.1302328 0.8588964 0.378755 0.1302279 0.916289 0.2558345 0.1301833 0.957915 0.03242826 0.1308807 0.9908676 0.1286401 0.1301836 0.9831094 -0.109191 0.4995154 0.8593961 -0.03304243 0.1302884 0.9909254 -0.2565168 0.1310338 0.9576165 -0.1300617 0.1301997 0.9829202 -0.2254262 0.4913168 0.8413032 -0.3373615 0.4963249 0.7999056 -0.4388573 0.4963175 0.7490482 -0.5329132 0.4962392 0.6853833 -0.6866837 0.5008548 0.5268872 -0.6177191 0.4961738 0.6101105 -0.7495171 0.5009287 0.4327755 -0.7995669 0.500958 0.3312609 -0.8360303 0.5008792 0.2239944 -0.8581051 0.5008993 0.112941 -0.8654619 0.5001716 0.02835804 -0.4995985 0.866103 -0.01634049 -0.4965285 0.8649992 -0.07235825 -0.8666828 0.4978921 -0.0310567 -0.461097 0.8665388 -0.1910503 -0.4871896 0.86195 -0.1403154 -0.4322388 0.866526 -0.2496045 -0.3959738 0.8665726 -0.3037384 -0.3037343 0.866573 -0.3959756 -0.3516829 0.8619586 -0.3651666 -0.4327615 0.5009401 -0.7495175 -0.526897 0.5008521 -0.6866782 -0.3312655 0.5009581 -0.799565 -0.3793843 0.130928 -0.9159288 -0.2558345 0.1301833 -0.957915 -0.03242826 0.1308807 -0.9908676 -0.1286401 0.1301836 -0.9831094 0.03304243 0.1302884 -0.9909254 0.2565168 0.1310338 -0.9576165 0.1300617 0.1301997 -0.9829202 0.22178 0.492371 -0.8416559 0.3794066 0.130928 -0.9159196 0.3333734 0.4912753 -0.8046806 0.4388895 0.4962034 -0.749105 0.6036109 0.1306266 -0.7865052 0.4958251 0.130738 -0.8585249 0.7010331 0.1308359 -0.701024 0.7869957 0.130122 -0.6030805 0.858895 0.1302217 -0.49532 0.9238866 0 -0.3826664 0.8659666 0 -0.5001019 0.7932866 0 -0.6088486 0.7071132 0 -0.7071005 0.6088482 0 -0.7932868 0.5000983 0 -0.8659687 0.3826519 0 -0.9238927 0.2587474 0 -0.965945 0.1304585 0 -0.9914538 0.03269159 0 -0.9994655 -0.03269165 0 -0.9994655 -0.1304585 0 -0.9914538 -0.2587587 0 -0.965942 -0.3826832 0 -0.9238798 -0.495438 0.1304622 -0.8587904 -0.5001175 0 -0.8659576 -0.6031901 0.1304011 -0.7868655 -0.6088556 0 -0.7932811 -0.7006153 0.1304511 -0.7015132 -0.7071139 0 -0.7070997 -0.7862005 0.1303914 -0.6040588 -0.7932775 0 -0.6088603 -0.8582845 0.1304906 -0.4963064 -0.8659605 0 -0.5001126 -0.9157296 0.130532 -0.3800011 -0.9238861 0 -0.3826678 -0.9575213 0.1304824 -0.2571525 -0.9659439 0 -0.2587516 -0.9828904 0.1305066 -0.1299796 -0.9914532 0 -0.1304633 -0.9909476 0.1302727 -0.03243196 -0.9994654 0 -0.03269612 -0.9909458 0.130287 0.03243267 -0.9994654 0 0.03269463 -0.983051 0.1304574 0.1288089 -0.9914535 0 0.1304616 -0.9578512 0.1304916 0.2559162 -0.9659429 0 0.2587553 -0.916261 0.1306085 0.3786916 -0.9238866 0 0.3826664 -0.8588282 0.1304972 0.4953632 -0.8659666 0 0.5001019 -0.7869123 0.1304434 0.6031198 -0.7932866 0 0.6088486 -0.7015212 0.1304488 0.7006077 -0.7071132 0 0.7071005 -0.603994 0.1303493 0.7862572 -0.6088482 0 0.7932868 -0.4962379 0.1304637 0.8583282 -0.5000983 0 0.8659687 -0.3800129 0.1305366 0.915724 -0.3826519 0 0.9238927 -0.2587474 0 0.965945 -0.1304585 0 0.9914538 -0.03269159 0 0.9994655 0.03269165 0 0.9994655 0.1304585 0 0.9914538 0.2587587 0 0.965942 0.3826832 0 0.9238798 0.5001175 0 0.8659576 0.6088556 0 0.7932811 0.7071139 0 0.7070997 0.7932775 0 0.6088603 0.8659605 0 0.5001126 0.9238861 0 0.3826678 0.9659439 0 0.2587516 0.9914532 0 0.1304633 0.9994654 0 0.03269612 0.9994654 0 -0.03269463 0.9914535 0 -0.1304616 0.9659429 0 -0.2587553 -0.8593965 0.4995154 -0.1091882 -0.841305 0.4913107 -0.2254325 -0.7998996 0.496333 -0.3373636 -0.749054 0.4963006 -0.4388666 -0.685414 0.4962396 -0.5328733 -0.6100664 0.4961813 -0.6177566 0 1 -9.05312e-7</float_array>
          <technique_common>
            <accessor source="#Mesh1_Group1_Model-mesh-normals-array" count="265" stride="3">
              <param name="X" type="float"/>
              <param name="Y" type="float"/>
              <param name="Z" type="float"/>
            </accessor>
          </technique_common>
        </source>
        <source id="Mesh1_Group1_Model-mesh-map-0">
          <float_array id="Mesh1_Group1_Model-mesh-map-0-array" count="2844">0.963926 0.643587 0.957941 0.63582 0.964875 0.642754 0.962875 0.644289 0.957941 0.63582 0.963926 0.643587 0.961742 0.644847 0.957941 0.63582 0.962875 0.644289 0.960547 0.645254 0.957941 0.63582 0.961742 0.644847 0.959307 0.6455 0.957941 0.63582 0.960547 0.645254 0.01755899 0.63582 0.957941 0.645589 0.01755899 0.645589 0.01755899 0.645589 0.01619297 0.6455 0.01755899 0.63582 0.01619297 0.6455 0.017506 0.6472 0.01598197 0.6471 0.957941 0.645589 0.017506 0.6472 0.01755899 0.645589 0.959307 0.6455 0.957994 0.6472 0.957941 0.645589 0.960547 0.645254 0.959518 0.6471 0.959307 0.6455 0.960547 0.645254 0.96236 0.646339 0.960964 0.646813 0.961742 0.644847 0.963682 0.645687 0.96236 0.646339 0.962875 0.644289 0.964908 0.644867 0.963682 0.645687 0.964875 0.642754 0.964908 0.644867 0.963926 0.643587 0.964875 0.642754 0.966988 0.642787 0.966017 0.643896 0.965708 0.641805 0.964875 0.642754 0.957941 0.63582 0.96641 0.640754 0.965708 0.641805 0.957941 0.63582 0.96641 0.640754 0.966988 0.642787 0.965708 0.641805 0.966968 0.639621 0.967808 0.641561 0.96641 0.640754 0.966968 0.639621 0.96641 0.640754 0.957941 0.63582 0.967375 0.638425 0.966968 0.639621 0.957941 0.63582 0.967375 0.638425 0.96846 0.640239 0.966968 0.639621 0.967375 0.638425 0.969221 0.637397 0.968934 0.638843 0.967621 0.637186 0.967375 0.638425 0.957941 0.63582 0.96771 0.63582 0.967621 0.637186 0.957941 0.63582 0.967621 0.637186 0.969321 0.635873 0.969221 0.637397 0.96771 0.01755899 0.969321 0.635873 0.96771 0.63582 0.96771 0.63582 0.957941 0.01755899 0.96771 0.01755899 0.957941 0.63582 0.01755899 0.01755899 0.957941 0.01755899 0.01755899 0.01755899 0.007789969 0.63582 0.007789969 0.01755899 0.007789969 0.01755899 0.007878959 0.01619297 0.01755899 0.01755899 0.007878959 0.01619297 0.006178975 0.017506 0.006278991 0.01598197 0.007789969 0.63582 0.006178975 0.017506 0.007789969 0.01755899 0.007878959 0.637186 0.006178975 0.635873 0.007789969 0.63582 0.007789969 0.63582 0.01755899 0.63582 0.007878959 0.637186 0.007878959 0.637186 0.01755899 0.63582 0.008124947 0.638425 0.008124947 0.638425 0.01755899 0.63582 0.008531987 0.639621 0.008531987 0.639621 0.01755899 0.63582 0.009089946 0.640754 0.009089946 0.640754 0.01755899 0.63582 0.00979197 0.641805 0.00979197 0.641805 0.01755899 0.63582 0.010625 0.642754 0.01157397 0.643587 0.010625 0.642754 0.01755899 0.63582 0.010625 0.642754 0.01059198 0.644867 0.009482979 0.643896 0.01262497 0.644289 0.01059198 0.644867 0.01157397 0.643587 0.01157397 0.643587 0.01755899 0.63582 0.01262497 0.644289 0.013758 0.644847 0.01262497 0.644289 0.01755899 0.63582 0.013758 0.644847 0.01181799 0.645687 0.01262497 0.644289 0.01495397 0.645254 0.01313996 0.646339 0.013758 0.644847 0.01495397 0.645254 0.013758 0.644847 0.01755899 0.63582 0.01619297 0.6455 0.01495397 0.645254 0.01755899 0.63582 0.01495397 0.645254 0.01598197 0.6471 0.01453596 0.646813 0.01453596 0.646813 0.01582795 0.648271 0.01422995 0.647954 0.01598197 0.6471 0.01746696 0.648379 0.01582795 0.648271 0.957994 0.6472 0.01746696 0.648379 0.017506 0.6472 0.959518 0.6471 0.958033 0.648379 0.957994 0.6472 0.960964 0.646813 0.959672 0.648271 0.959518 0.6471 0.96236 0.646339 0.96127 0.647954 0.960964 0.646813 0.963682 0.645687 0.962812 0.64743 0.96236 0.646339 0.964908 0.644867 0.964273 0.64671 0.963682 0.645687 0.966017 0.643896 0.965628 0.645805 0.964908 0.644867 0.966017 0.643896 0.967926 0.643507 0.966852 0.644731 0.966988 0.642787 0.968831 0.642152 0.967926 0.643507 0.967808 0.641561 0.969551 0.640691 0.968831 0.642152 0.96846 0.640239 0.970075 0.639149 0.969551 0.640691 0.968934 0.638843 0.970392 0.637551 0.970075 0.639149 0.969221 0.637397 0.9705 0.635912 0.970392 0.637551 0.969321 0.017506 0.9705 0.635912 0.969321 0.635873 0.969221 0.01598197 0.9705 0.01746696 0.969321 0.017506 0.967621 0.01619297 0.969321 0.017506 0.96771 0.01755899 0.96771 0.01755899 0.957941 0.01755899 0.967621 0.01619297 0.967375 0.01495397 0.967621 0.01619297 0.957941 0.01755899 0.967375 0.01495397 0.969221 0.01598197 0.967621 0.01619297 0.967375 0.01495397 0.96846 0.01313996 0.968934 0.01453596 0.966968 0.013758 0.967375 0.01495397 0.957941 0.01755899 0.96641 0.01262497 0.966968 0.013758 0.957941 0.01755899 0.966968 0.013758 0.967808 0.01181799 0.96846 0.01313996 0.96641 0.01262497 0.966988 0.01059198 0.967808 0.01181799 0.965708 0.01157397 0.96641 0.01262497 0.957941 0.01755899 0.964875 0.010625 0.965708 0.01157397 0.957941 0.01755899 0.964875 0.010625 0.966988 0.01059198 0.965708 0.01157397 0.964875 0.010625 0.964908 0.00851196 0.966017 0.009482979 0.963926 0.00979197 0.964875 0.010625 0.957941 0.01755899 0.962875 0.009089946 0.963926 0.00979197 0.957941 0.01755899 0.962875 0.009089946 0.964908 0.00851196 0.963926 0.00979197 0.961742 0.008531987 0.963682 0.007691979 0.962875 0.009089946 0.961742 0.008531987 0.962875 0.009089946 0.957941 0.01755899 0.960547 0.008124947 0.961742 0.008531987 0.957941 0.01755899 0.960547 0.008124947 0.96236 0.007039964 0.961742 0.008531987 0.960547 0.008124947 0.959518 0.006278991 0.960964 0.006565988 0.959307 0.007878959 0.960547 0.008124947 0.957941 0.01755899 0.957941 0.007789969 0.959307 0.007878959 0.957941 0.01755899 0.959307 0.007878959 0.957994 0.006178975 0.959518 0.006278991 0.01755899 0.007789969 0.957994 0.006178975 0.957941 0.007789969 0.957941 0.007789969 0.01755899 0.01755899 0.01755899 0.007789969 0.01755899 0.007789969 0.01755899 0.01755899 0.01619297 0.007878959 0.01619297 0.007878959 0.01755899 0.01755899 0.01495397 0.008124947 0.01495397 0.008124947 0.01755899 0.01755899 0.013758 0.008531987 0.013758 0.008531987 0.01755899 0.01755899 0.01262497 0.009089946 0.01262497 0.009089946 0.01755899 0.01755899 0.01157397 0.00979197 0.01157397 0.00979197 0.01755899 0.01755899 0.010625 0.010625 0.010625 0.010625 0.01755899 0.01755899 0.00979197 0.01157397 0.00979197 0.01157397 0.01755899 0.01755899 0.009089946 0.01262497 0.008531987 0.013758 0.009089946 0.01262497 0.01755899 0.01755899 0.008531987 0.013758 0.007691979 0.01181799 0.009089946 0.01262497 0.008124947 0.01495397 0.007039964 0.01313996 0.008531987 0.013758 0.008124947 0.01495397 0.008531987 0.013758 0.01755899 0.01755899 0.007878959 0.01619297 0.008124947 0.01495397 0.01755899 0.01755899 0.008124947 0.01495397 0.006278991 0.01598197 0.006565988 0.01453596 0.006565988 0.01453596 0.005107998 0.01582795 0.005424976 0.01422995 0.006278991 0.01598197 0.004999995 0.01746696 0.005107998 0.01582795 0.006178975 0.635873 0.004999995 0.01746696 0.006178975 0.017506 0.006278991 0.637397 0.004999995 0.635912 0.006178975 0.635873 0.006565988 0.638843 0.005107998 0.637551 0.006278991 0.637397 0.008124947 0.638425 0.006278991 0.637397 0.007878959 0.637186 0.008124947 0.638425 0.007039964 0.640239 0.006565988 0.638843 0.008531987 0.639621 0.007691979 0.641561 0.007039964 0.640239 0.009089946 0.640754 0.00851196 0.642787 0.007691979 0.641561 0.010625 0.642754 0.00851196 0.642787 0.00979197 0.641805 0.009482979 0.643896 0.007573962 0.643507 0.00851196 0.642787 0.009482979 0.643896 0.009871959 0.645805 0.008647978 0.644731 0.01059198 0.644867 0.01122695 0.64671 0.009871959 0.645805 0.01181799 0.645687 0.01268798 0.64743 0.01122695 0.64671 0.01313996 0.646339 0.01422995 0.647954 0.01268798 0.64743 0.982736 0.01088798 0.981126 0.009179949 0.982736 0.009344995 0.982736 0.01248496 0.981126 0.01077598 0.982736 0.01088798 0.982736 0.01248496 0.981126 0.01411098 0.981126 0.01242899 0.982736 0.95469 0.981126 0.01411098 0.982736 0.01412498 0.982736 0.95633 0.981126 0.954705 0.982736 0.95469 0.982736 0.95633 0.981126 0.958039 0.981126 0.956387 0.982736 0.957928 0.981126 0.959636 0.981126 0.958039 0.982736 0.95947 0.981126 0.961147 0.981126 0.959636 0.982736 0.960931 0.981126 0.962548 0.981126 0.961147 0.982736 0.962285 0.981126 0.963815 0.981126 0.962548 0.640164 0.674105 0.641694 0.672494 0.641388 0.674105 0.638809 0.674105 0.640427 0.672494 0.640164 0.674105 0.637349 0.674105 0.639026 0.672494 0.638809 0.674105 0.635807 0.674105 0.637514 0.672494 0.637349 0.674105 0.634209 0.674105 0.635918 0.672494 0.635807 0.674105 0.634209 0.674105 0.632583 0.672494 0.634266 0.672494 0.01412498 0.674105 0.632583 0.672494 0.632569 0.674105 0.01248496 0.674105 0.01411098 0.672494 0.01412498 0.674105 0.01248496 0.674105 0.01077598 0.672494 0.01242899 0.672494 0.968934 0.01453596 0.970392 0.01582795 0.969221 0.01598197 0.96846 0.01313996 0.970075 0.01422995 0.968934 0.01453596 0.967808 0.01181799 0.969551 0.01268798 0.96846 0.01313996 0.966988 0.01059198 0.968831 0.01122695 0.967808 0.01181799 0.966017 0.009482979 0.967926 0.009871959 0.966988 0.01059198 0.966017 0.009482979 0.965628 0.007573962 0.966852 0.008647978 0.964908 0.00851196 0.964273 0.006668984 0.965628 0.007573962 0.963682 0.007691979 0.962812 0.00594896 0.964273 0.006668984 0.96236 0.007039964 0.96127 0.005424976 0.962812 0.00594896 0.960964 0.006565988 0.959672 0.005107998 0.96127 0.005424976 0.959518 0.006278991 0.958033 0.004999995 0.959672 0.005107998 0.017506 0.006178975 0.958033 0.004999995 0.957994 0.006178975 0.01598197 0.006278991 0.01746696 0.004999995 0.017506 0.006178975 0.01619297 0.007878959 0.017506 0.006178975 0.01755899 0.007789969 0.01495397 0.008124947 0.01598197 0.006278991 0.01619297 0.007878959 0.01495397 0.008124947 0.01313996 0.007039964 0.01453596 0.006565988 0.013758 0.008531987 0.01181799 0.007691979 0.01313996 0.007039964 0.01262497 0.009089946 0.01059198 0.00851196 0.01181799 0.007691979 0.010625 0.010625 0.01059198 0.00851196 0.01157397 0.00979197 0.010625 0.010625 0.00851196 0.01059198 0.009482979 0.009482979 0.009089946 0.01262497 0.00851196 0.01059198 0.00979197 0.01157397 0.00851196 0.01059198 0.006668984 0.01122695 0.007573962 0.009871959 0.007691979 0.01181799 0.00594896 0.01268798 0.006668984 0.01122695 0.007039964 0.01313996 0.005424976 0.01422995 0.00594896 0.01268798 0.635807 0.65701 0.637514 0.65862 0.637349 0.65701 0.634209 0.65701 0.635918 0.65862 0.635807 0.65701 0.634209 0.65701 0.632583 0.65862 0.634266 0.65862 0.01412498 0.65701 0.632583 0.65862 0.632569 0.65701 0.01248496 0.65701 0.01411098 0.65862 0.01412498 0.65701 0.01248496 0.65701 0.01077598 0.65862 0.01242899 0.65862 0.01088798 0.65701 0.009179949 0.65862 0.01077598 0.65862 0.007039964 0.640239 0.005424976 0.639149 0.006565988 0.638843 0.007691979 0.641561 0.00594896 0.640691 0.007039964 0.640239 0.00851196 0.642787 0.006668984 0.642152 0.007691979 0.641561 0.007884979 0.65701 0.006266951 0.65862 0.007667958 0.65862 0.006529986 0.65701 0.004999995 0.65862 0.006266951 0.65862 0.982736 0.006529986 0.981126 0.004999995 0.982736 0.005305945 0.982736 0.007884979 0.981126 0.006266951 0.982736 0.006529986 0.982736 0.009344995 0.981126 0.007667958 0.982736 0.007884979 0.981126 0.007667958 0.977905 0.009179949 0.977905 0.007667958 0.981126 0.006266951 0.977905 0.007667958 0.977905 0.006266951 0.981126 0.004999995 0.977905 0.006266951 0.977905 0.004999995 0.006266951 0.65862 0.004999995 0.661841 0.006266951 0.661841 0.007667958 0.65862 0.006266951 0.661841 0.007667958 0.661841 0.009179949 0.65862 0.007667958 0.661841 0.009179949 0.661841 0.01077598 0.65862 0.009179949 0.661841 0.01077598 0.661841 0.01242899 0.65862 0.01077598 0.661841 0.01242899 0.661841 0.01411098 0.65862 0.01242899 0.661841 0.01411098 0.661841 0.632583 0.65862 0.01411098 0.661841 0.632583 0.661841 0.634266 0.65862 0.632583 0.661841 0.634266 0.661841 0.635918 0.65862 0.634266 0.661841 0.635918 0.661841 0.637514 0.65862 0.635918 0.661841 0.637514 0.661841 0.639026 0.65862 0.637514 0.661841 0.639026 0.661841 0.640427 0.65862 0.639026 0.661841 0.640427 0.661841 0.641694 0.65862 0.640427 0.661841 0.641694 0.661841 0.991779 0.962548 0.995 0.963815 0.995 0.962548 0.991779 0.961147 0.995 0.962548 0.995 0.961147 0.991779 0.959636 0.995 0.961147 0.995 0.959636 0.991779 0.958039 0.995 0.959636 0.995 0.958039 0.991779 0.956387 0.995 0.958039 0.995 0.956387 0.991779 0.954705 0.995 0.956387 0.995 0.954705 0.991779 0.01411098 0.995 0.954705 0.995 0.01411098 0.991779 0.01242899 0.995 0.01411098 0.995 0.01242899 0.991779 0.01077598 0.995 0.01242899 0.995 0.01077598 0.991779 0.009179949 0.995 0.01077598 0.995 0.009179949 0.991779 0.007667958 0.995 0.009179949 0.995 0.007667958 0.991779 0.006266951 0.995 0.007667958 0.995 0.006266951 0.991779 0.004999995 0.995 0.006266951 0.995 0.004999995 0.006266951 0.672494 0.004999995 0.669273 0.006266951 0.669273 0.007667958 0.672494 0.006266951 0.669273 0.007667958 0.669273 0.009179949 0.672494 0.007667958 0.669273 0.009179949 0.669273 0.01077598 0.672494 0.009179949 0.669273 0.01077598 0.669273 0.01242899 0.672494 0.01077598 0.669273 0.01242899 0.669273 0.01411098 0.672494 0.01242899 0.669273 0.01411098 0.669273 0.632583 0.672494 0.01411098 0.669273 0.632583 0.669273 0.634266 0.672494 0.632583 0.669273 0.634266 0.669273 0.635918 0.672494 0.634266 0.669273 0.635918 0.669273 0.637514 0.672494 0.635918 0.669273 0.637514 0.669273 0.639026 0.672494 0.637514 0.669273 0.639026 0.669273 0.640427 0.672494 0.639026 0.669273 0.640427 0.669273 0.641694 0.672494 0.640427 0.669273 0.641694 0.669273 0.981126 0.962548 0.977905 0.963815 0.977905 0.962548 0.981126 0.961147 0.977905 0.962548 0.977905 0.961147 0.981126 0.959636 0.977905 0.961147 0.977905 0.959636 0.981126 0.958039 0.977905 0.959636 0.977905 0.958039 0.981126 0.956387 0.977905 0.958039 0.977905 0.956387 0.981126 0.954705 0.977905 0.956387 0.977905 0.954705 0.981126 0.01411098 0.977905 0.954705 0.977905 0.01411098 0.981126 0.01242899 0.977905 0.01411098 0.977905 0.01242899 0.981126 0.01077598 0.977905 0.01242899 0.977905 0.01077598 0.981126 0.009179949 0.977905 0.01077598 0.977905 0.009179949 0.01088798 0.674105 0.009179949 0.672494 0.01077598 0.672494 0.009344995 0.674105 0.007667958 0.672494 0.009179949 0.672494 0.007884979 0.674105 0.006266951 0.672494 0.007667958 0.672494 0.006529986 0.674105 0.004999995 0.672494 0.006266951 0.672494 0.990168 0.006529986 0.991779 0.004999995 0.990168 0.005305945 0.990168 0.007884979 0.991779 0.006266951 0.990168 0.006529986 0.990168 0.009344995 0.991779 0.007667958 0.990168 0.007884979 0.990168 0.01088798 0.991779 0.009179949 0.990168 0.009344995 0.990168 0.01248496 0.991779 0.01077598 0.990168 0.01088798 0.990168 0.01248496 0.991779 0.01411098 0.991779 0.01242899 0.990168 0.95469 0.991779 0.01411098 0.990168 0.01412498 0.990168 0.95633 0.991779 0.954705 0.990168 0.95469 0.990168 0.95633 0.991779 0.958039 0.991779 0.956387 0.01453596 0.006565988 0.01582795 0.005107998 0.01598197 0.006278991 0.01313996 0.007039964 0.01422995 0.005424976 0.01453596 0.006565988 0.01181799 0.007691979 0.01268798 0.00594896 0.01313996 0.007039964 0.01059198 0.00851196 0.01122695 0.006668984 0.01181799 0.007691979 0.009482979 0.009482979 0.009871959 0.007573962 0.01059198 0.00851196 0.009482979 0.009482979 0.007573962 0.009871959 0.008647978 0.008647978 0.640164 0.65701 0.641694 0.65862 0.641388 0.65701 0.638809 0.65701 0.640427 0.65862 0.640164 0.65701 0.637349 0.65701 0.639026 0.65862 0.638809 0.65701 0.990168 0.962285 0.991779 0.963815 0.991779 0.962548 0.990168 0.960931 0.991779 0.962548 0.991779 0.961147 0.990168 0.95947 0.991779 0.961147 0.991779 0.959636 0.990168 0.957928 0.991779 0.959636 0.991779 0.958039 0.009344995 0.65701 0.007667958 0.65862 0.009179949 0.65862 0.957941 0.645589 0.957941 0.63582 0.959307 0.6455 0.01755899 0.63582 0.957941 0.63582 0.957941 0.645589 0.01619297 0.6455 0.01755899 0.645589 0.017506 0.6472 0.957941 0.645589 0.957994 0.6472 0.017506 0.6472 0.959307 0.6455 0.959518 0.6471 0.957994 0.6472 0.960547 0.645254 0.960964 0.646813 0.959518 0.6471 0.960547 0.645254 0.961742 0.644847 0.96236 0.646339 0.961742 0.644847 0.962875 0.644289 0.963682 0.645687 0.962875 0.644289 0.963926 0.643587 0.964908 0.644867 0.964875 0.642754 0.966017 0.643896 0.964908 0.644867 0.964875 0.642754 0.965708 0.641805 0.966988 0.642787 0.96641 0.640754 0.967808 0.641561 0.966988 0.642787 0.966968 0.639621 0.96846 0.640239 0.967808 0.641561 0.967375 0.638425 0.968934 0.638843 0.96846 0.640239 0.967375 0.638425 0.967621 0.637186 0.969221 0.637397 0.967621 0.637186 0.96771 0.63582 0.969321 0.635873 0.96771 0.01755899 0.969321 0.017506 0.969321 0.635873 0.96771 0.63582 0.957941 0.63582 0.957941 0.01755899 0.957941 0.63582 0.01755899 0.63582 0.01755899 0.01755899 0.01755899 0.01755899 0.01755899 0.63582 0.007789969 0.63582 0.007878959 0.01619297 0.007789969 0.01755899 0.006178975 0.017506 0.007789969 0.63582 0.006178975 0.635873 0.006178975 0.017506 0.007878959 0.637186 0.006278991 0.637397 0.006178975 0.635873 0.010625 0.642754 0.01157397 0.643587 0.01059198 0.644867 0.01262497 0.644289 0.01181799 0.645687 0.01059198 0.644867 0.013758 0.644847 0.01313996 0.646339 0.01181799 0.645687 0.01495397 0.645254 0.01453596 0.646813 0.01313996 0.646339 0.01495397 0.645254 0.01619297 0.6455 0.01598197 0.6471 0.01453596 0.646813 0.01598197 0.6471 0.01582795 0.648271 0.01598197 0.6471 0.017506 0.6472 0.01746696 0.648379 0.957994 0.6472 0.958033 0.648379 0.01746696 0.648379 0.959518 0.6471 0.959672 0.648271 0.958033 0.648379 0.960964 0.646813 0.96127 0.647954 0.959672 0.648271 0.96236 0.646339 0.962812 0.64743 0.96127 0.647954 0.963682 0.645687 0.964273 0.64671 0.962812 0.64743 0.964908 0.644867 0.965628 0.645805 0.964273 0.64671 0.966017 0.643896 0.966852 0.644731 0.965628 0.645805 0.966017 0.643896 0.966988 0.642787 0.967926 0.643507 0.966988 0.642787 0.967808 0.641561 0.968831 0.642152 0.967808 0.641561 0.96846 0.640239 0.969551 0.640691 0.96846 0.640239 0.968934 0.638843 0.970075 0.639149 0.968934 0.638843 0.969221 0.637397 0.970392 0.637551 0.969221 0.637397 0.969321 0.635873 0.9705 0.635912 0.969321 0.017506 0.9705 0.01746696 0.9705 0.635912 0.969221 0.01598197 0.970392 0.01582795 0.9705 0.01746696 0.967621 0.01619297 0.969221 0.01598197 0.969321 0.017506 0.967375 0.01495397 0.968934 0.01453596 0.969221 0.01598197 0.967375 0.01495397 0.966968 0.013758 0.96846 0.01313996 0.966968 0.013758 0.96641 0.01262497 0.967808 0.01181799 0.96641 0.01262497 0.965708 0.01157397 0.966988 0.01059198 0.964875 0.010625 0.966017 0.009482979 0.966988 0.01059198 0.964875 0.010625 0.963926 0.00979197 0.964908 0.00851196 0.962875 0.009089946 0.963682 0.007691979 0.964908 0.00851196 0.961742 0.008531987 0.96236 0.007039964 0.963682 0.007691979 0.960547 0.008124947 0.960964 0.006565988 0.96236 0.007039964 0.960547 0.008124947 0.959307 0.007878959 0.959518 0.006278991 0.959307 0.007878959 0.957941 0.007789969 0.957994 0.006178975 0.01755899 0.007789969 0.017506 0.006178975 0.957994 0.006178975 0.957941 0.007789969 0.957941 0.01755899 0.01755899 0.01755899 0.008531987 0.013758 0.007039964 0.01313996 0.007691979 0.01181799 0.008124947 0.01495397 0.006565988 0.01453596 0.007039964 0.01313996 0.008124947 0.01495397 0.007878959 0.01619297 0.006278991 0.01598197 0.006565988 0.01453596 0.006278991 0.01598197 0.005107998 0.01582795 0.006278991 0.01598197 0.006178975 0.017506 0.004999995 0.01746696 0.006178975 0.635873 0.004999995 0.635912 0.004999995 0.01746696 0.006278991 0.637397 0.005107998 0.637551 0.004999995 0.635912 0.006565988 0.638843 0.005424976 0.639149 0.005107998 0.637551 0.008124947 0.638425 0.006565988 0.638843 0.006278991 0.637397 0.008124947 0.638425 0.008531987 0.639621 0.007039964 0.640239 0.008531987 0.639621 0.009089946 0.640754 0.007691979 0.641561 0.009089946 0.640754 0.00979197 0.641805 0.00851196 0.642787 0.010625 0.642754 0.009482979 0.643896 0.00851196 0.642787 0.009482979 0.643896 0.008647978 0.644731 0.007573962 0.643507 0.009482979 0.643896 0.01059198 0.644867 0.009871959 0.645805 0.01059198 0.644867 0.01181799 0.645687 0.01122695 0.64671 0.01181799 0.645687 0.01313996 0.646339 0.01268798 0.64743 0.01313996 0.646339 0.01453596 0.646813 0.01422995 0.647954 0.982736 0.01088798 0.981126 0.01077598 0.981126 0.009179949 0.982736 0.01248496 0.981126 0.01242899 0.981126 0.01077598 0.982736 0.01248496 0.982736 0.01412498 0.981126 0.01411098 0.982736 0.95469 0.981126 0.954705 0.981126 0.01411098 0.982736 0.95633 0.981126 0.956387 0.981126 0.954705 0.982736 0.95633 0.982736 0.957928 0.981126 0.958039 0.982736 0.957928 0.982736 0.95947 0.981126 0.959636 0.982736 0.95947 0.982736 0.960931 0.981126 0.961147 0.982736 0.960931 0.982736 0.962285 0.981126 0.962548 0.982736 0.962285 0.982736 0.963509 0.981126 0.963815 0.640164 0.674105 0.640427 0.672494 0.641694 0.672494 0.638809 0.674105 0.639026 0.672494 0.640427 0.672494 0.637349 0.674105 0.637514 0.672494 0.639026 0.672494 0.635807 0.674105 0.635918 0.672494 0.637514 0.672494 0.634209 0.674105 0.634266 0.672494 0.635918 0.672494 0.634209 0.674105 0.632569 0.674105 0.632583 0.672494 0.01412498 0.674105 0.01411098 0.672494 0.632583 0.672494 0.01248496 0.674105 0.01242899 0.672494 0.01411098 0.672494 0.01248496 0.674105 0.01088798 0.674105 0.01077598 0.672494 0.968934 0.01453596 0.970075 0.01422995 0.970392 0.01582795 0.96846 0.01313996 0.969551 0.01268798 0.970075 0.01422995 0.967808 0.01181799 0.968831 0.01122695 0.969551 0.01268798 0.966988 0.01059198 0.967926 0.009871959 0.968831 0.01122695 0.966017 0.009482979 0.966852 0.008647978 0.967926 0.009871959 0.966017 0.009482979 0.964908 0.00851196 0.965628 0.007573962 0.964908 0.00851196 0.963682 0.007691979 0.964273 0.006668984 0.963682 0.007691979 0.96236 0.007039964 0.962812 0.00594896 0.96236 0.007039964 0.960964 0.006565988 0.96127 0.005424976 0.960964 0.006565988 0.959518 0.006278991 0.959672 0.005107998 0.959518 0.006278991 0.957994 0.006178975 0.958033 0.004999995 0.017506 0.006178975 0.01746696 0.004999995 0.958033 0.004999995 0.01598197 0.006278991 0.01582795 0.005107998 0.01746696 0.004999995 0.01619297 0.007878959 0.01598197 0.006278991 0.017506 0.006178975 0.01495397 0.008124947 0.01453596 0.006565988 0.01598197 0.006278991 0.01495397 0.008124947 0.013758 0.008531987 0.01313996 0.007039964 0.013758 0.008531987 0.01262497 0.009089946 0.01181799 0.007691979 0.01262497 0.009089946 0.01157397 0.00979197 0.01059198 0.00851196 0.010625 0.010625 0.009482979 0.009482979 0.01059198 0.00851196 0.010625 0.010625 0.00979197 0.01157397 0.00851196 0.01059198 0.009089946 0.01262497 0.007691979 0.01181799 0.00851196 0.01059198 0.00851196 0.01059198 0.007691979 0.01181799 0.006668984 0.01122695 0.007691979 0.01181799 0.007039964 0.01313996 0.00594896 0.01268798 0.007039964 0.01313996 0.006565988 0.01453596 0.005424976 0.01422995 0.635807 0.65701 0.635918 0.65862 0.637514 0.65862 0.634209 0.65701 0.634266 0.65862 0.635918 0.65862 0.634209 0.65701 0.632569 0.65701 0.632583 0.65862 0.01412498 0.65701 0.01411098 0.65862 0.632583 0.65862 0.01248496 0.65701 0.01242899 0.65862 0.01411098 0.65862 0.01248496 0.65701 0.01088798 0.65701 0.01077598 0.65862 0.01088798 0.65701 0.009344995 0.65701 0.009179949 0.65862 0.007039964 0.640239 0.00594896 0.640691 0.005424976 0.639149 0.007691979 0.641561 0.006668984 0.642152 0.00594896 0.640691 0.00851196 0.642787 0.007573962 0.643507 0.006668984 0.642152 0.007884979 0.65701 0.006529986 0.65701 0.006266951 0.65862 0.006529986 0.65701 0.005305945 0.65701 0.004999995 0.65862 0.982736 0.006529986 0.981126 0.006266951 0.981126 0.004999995 0.982736 0.007884979 0.981126 0.007667958 0.981126 0.006266951 0.982736 0.009344995 0.981126 0.009179949 0.981126 0.007667958 0.981126 0.007667958 0.981126 0.009179949 0.977905 0.009179949 0.981126 0.006266951 0.981126 0.007667958 0.977905 0.007667958 0.981126 0.004999995 0.981126 0.006266951 0.977905 0.006266951 0.006266951 0.65862 0.004999995 0.65862 0.004999995 0.661841 0.007667958 0.65862 0.006266951 0.65862 0.006266951 0.661841 0.009179949 0.65862 0.007667958 0.65862 0.007667958 0.661841 0.01077598 0.65862 0.009179949 0.65862 0.009179949 0.661841 0.01242899 0.65862 0.01077598 0.65862 0.01077598 0.661841 0.01411098 0.65862 0.01242899 0.65862 0.01242899 0.661841 0.632583 0.65862 0.01411098 0.65862 0.01411098 0.661841 0.634266 0.65862 0.632583 0.65862 0.632583 0.661841 0.635918 0.65862 0.634266 0.65862 0.634266 0.661841 0.637514 0.65862 0.635918 0.65862 0.635918 0.661841 0.639026 0.65862 0.637514 0.65862 0.637514 0.661841 0.640427 0.65862 0.639026 0.65862 0.639026 0.661841 0.641694 0.65862 0.640427 0.65862 0.640427 0.661841 0.991779 0.962548 0.991779 0.963815 0.995 0.963815 0.991779 0.961147 0.991779 0.962548 0.995 0.962548 0.991779 0.959636 0.991779 0.961147 0.995 0.961147 0.991779 0.958039 0.991779 0.959636 0.995 0.959636 0.991779 0.956387 0.991779 0.958039 0.995 0.958039 0.991779 0.954705 0.991779 0.956387 0.995 0.956387 0.991779 0.01411098 0.991779 0.954705 0.995 0.954705 0.991779 0.01242899 0.991779 0.01411098 0.995 0.01411098 0.991779 0.01077598 0.991779 0.01242899 0.995 0.01242899 0.991779 0.009179949 0.991779 0.01077598 0.995 0.01077598 0.991779 0.007667958 0.991779 0.009179949 0.995 0.009179949 0.991779 0.006266951 0.991779 0.007667958 0.995 0.007667958 0.991779 0.004999995 0.991779 0.006266951 0.995 0.006266951 0.006266951 0.672494 0.004999995 0.672494 0.004999995 0.669273 0.007667958 0.672494 0.006266951 0.672494 0.006266951 0.669273 0.009179949 0.672494 0.007667958 0.672494 0.007667958 0.669273 0.01077598 0.672494 0.009179949 0.672494 0.009179949 0.669273 0.01242899 0.672494 0.01077598 0.672494 0.01077598 0.669273 0.01411098 0.672494 0.01242899 0.672494 0.01242899 0.669273 0.632583 0.672494 0.01411098 0.672494 0.01411098 0.669273 0.634266 0.672494 0.632583 0.672494 0.632583 0.669273 0.635918 0.672494 0.634266 0.672494 0.634266 0.669273 0.637514 0.672494 0.635918 0.672494 0.635918 0.669273 0.639026 0.672494 0.637514 0.672494 0.637514 0.669273 0.640427 0.672494 0.639026 0.672494 0.639026 0.669273 0.641694 0.672494 0.640427 0.672494 0.640427 0.669273 0.981126 0.962548 0.981126 0.963815 0.977905 0.963815 0.981126 0.961147 0.981126 0.962548 0.977905 0.962548 0.981126 0.959636 0.981126 0.961147 0.977905 0.961147 0.981126 0.958039 0.981126 0.959636 0.977905 0.959636 0.981126 0.956387 0.981126 0.958039 0.977905 0.958039 0.981126 0.954705 0.981126 0.956387 0.977905 0.956387 0.981126 0.01411098 0.981126 0.954705 0.977905 0.954705 0.981126 0.01242899 0.981126 0.01411098 0.977905 0.01411098 0.981126 0.01077598 0.981126 0.01242899 0.977905 0.01242899 0.981126 0.009179949 0.981126 0.01077598 0.977905 0.01077598 0.01088798 0.674105 0.009344995 0.674105 0.009179949 0.672494 0.009344995 0.674105 0.007884979 0.674105 0.007667958 0.672494 0.007884979 0.674105 0.006529986 0.674105 0.006266951 0.672494 0.006529986 0.674105 0.005305945 0.674105 0.004999995 0.672494 0.990168 0.006529986 0.991779 0.006266951 0.991779 0.004999995 0.990168 0.007884979 0.991779 0.007667958 0.991779 0.006266951 0.990168 0.009344995 0.991779 0.009179949 0.991779 0.007667958 0.990168 0.01088798 0.991779 0.01077598 0.991779 0.009179949 0.990168 0.01248496 0.991779 0.01242899 0.991779 0.01077598 0.990168 0.01248496 0.990168 0.01412498 0.991779 0.01411098 0.990168 0.95469 0.991779 0.954705 0.991779 0.01411098 0.990168 0.95633 0.991779 0.956387 0.991779 0.954705 0.990168 0.95633 0.990168 0.957928 0.991779 0.958039 0.01453596 0.006565988 0.01422995 0.005424976 0.01582795 0.005107998 0.01313996 0.007039964 0.01268798 0.00594896 0.01422995 0.005424976 0.01181799 0.007691979 0.01122695 0.006668984 0.01268798 0.00594896 0.01059198 0.00851196 0.009871959 0.007573962 0.01122695 0.006668984 0.009482979 0.009482979 0.008647978 0.008647978 0.009871959 0.007573962 0.009482979 0.009482979 0.00851196 0.01059198 0.007573962 0.009871959 0.640164 0.65701 0.640427 0.65862 0.641694 0.65862 0.638809 0.65701 0.639026 0.65862 0.640427 0.65862 0.637349 0.65701 0.637514 0.65862 0.639026 0.65862 0.990168 0.962285 0.990168 0.963509 0.991779 0.963815 0.990168 0.960931 0.990168 0.962285 0.991779 0.962548 0.990168 0.95947 0.990168 0.960931 0.991779 0.961147 0.990168 0.957928 0.990168 0.95947 0.991779 0.959636 0.009344995 0.65701 0.007884979 0.65701 0.007667958 0.65862</float_array>
          <technique_common>
            <accessor source="#Mesh1_Group1_Model-mesh-map-0-array" count="1422" stride="2">
              <param name="S" type="float"/>
              <param name="T" type="float"/>
            </accessor>
          </technique_common>
        </source>
        <vertices id="Mesh1_Group1_Model-mesh-vertices">
          <input semantic="POSITION" source="#Mesh1_Group1_Model-mesh-positions"/>
        </vertices>
        <polylist material="FrontColor-material" count="474">
          <input semantic="VERTEX" source="#Mesh1_Group1_Model-mesh-vertices" offset="0"/>
          <input semantic="NORMAL" source="#Mesh1_Group1_Model-mesh-normals" offset="1"/>
          <input semantic="TEXCOORD" source="#Mesh1_Group1_Model-mesh-map-0" offset="2" set="0"/>
          <vcount>3 3 3 3 3 3 3 3 3 3 3 3 3 3 3 3 3 3 3 3 3 3 3 3 3 3 3 3 3 3 3 3 3 3 3 3 3 3 3 3 3 3 3 3 3 3 3 3 3 3 3 3 3 3 3 3 3 3 3 3 3 3 3 3 3 3 3 3 3 3 3 3 3 3 3 3 3 3 3 3 3 3 3 3 3 3 3 3 3 3 3 3 3 3 3 3 3 3 3 3 3 3 3 3 3 3 3 3 3 3 3 3 3 3 3 3 3 3 3 3 3 3 3 3 3 3 3 3 3 3 3 3 3 3 3 3 3 3 3 3 3 3 3 3 3 3 3 3 3 3 3 3 3 3 3 3 3 3 3 3 3 3 3 3 3 3 3 3 3 3 3 3 3 3 3 3 3 3 3 3 3 3 3 3 3 3 3 3 3 3 3 3 3 3 3 3 3 3 3 3 3 3 3 3 3 3 3 3 3 3 3 3 3 3 3 3 3 3 3 3 3 3 3 3 3 3 3 3 3 3 3 3 3 3 3 3 3 3 3 3 3 3 3 3 3 3 3 3 3 3 3 3 3 3 3 3 3 3 3 3 3 3 3 3 3 3 3 3 3 3 3 3 3 3 3 3 3 3 3 3 3 3 3 3 3 3 3 3 3 3 3 3 3 3 3 3 3 3 3 3 3 3 3 3 3 3 3 3 3 3 3 3 3 3 3 3 3 3 3 3 3 3 3 3 3 3 3 3 3 3 3 3 3 3 3 3 3 3 3 3 3 3 3 3 3 3 3 3 3 3 3 3 3 3 3 3 3 3 3 3 3 3 3 3 3 3 3 3 3 3 3 3 3 3 3 3 3 3 3 3 3 3 3 3 3 3 3 3 3 3 3 3 3 3 3 3 3 3 3 3 3 3 3 3 3 3 3 3 3 3 3 3 3 3 3 3 3 3 3 3 3 3 3 3 3 3 3 3 3 3 3 3 3 3 3 3 3 3 3 3 3 3 3 3 3 3 3 3 3 3 3 3 3 3 3 3 3 3 3 3 3 3 3 3 3 3 3 3 3 3 3 3 3 3 </vcount>
          <p>0 0 0 1 1 1 2 2 2 3 3 3 1 1 4 0 0 5 4 4 6 1 1 7 3 3 8 5 5 9 1 1 10 4 4 11 6 6 12 1 1 13 5 5 14 8 7 15 9 8 16 7 9 17 7 9 18 10 10 19 8 7 20 10 10 21 11 11 22 12 12 23 9 8 24 11 11 25 7 9 26 6 6 27 13 13 28 9 8 29 5 5 30 14 14 31 6 6 32 5 5 33 16 15 34 15 16 35 4 4 36 17 17 37 16 15 38 3 3 39 18 18 40 17 17 41 2 2 42 18 18 43 0 0 44 2 2 45 21 19 46 19 20 47 20 21 48 2 2 49 1 1 50 22 22 51 20 21 52 1 1 53 22 22 54 21 19 55 20 21 56 24 23 57 23 24 58 22 22 59 24 23 60 22 22 61 1 1 62 26 25 63 24 23 64 1 1 65 26 25 66 25 26 67 24 23 68 26 25 69 29 27 70 27 28 71 28 29 72 26 25 73 1 1 74 30 30 75 28 29 76 1 1 77 28 29 78 31 31 79 29 27 80 32 32 81 31 31 82 30 30 83 30 30 84 34 33 85 32 32 86 1 1 87 35 34 88 34 33 89 35 34 90 37 35 91 36 36 92 36 36 93 38 37 94 35 34 95 38 37 96 39 38 97 40 39 98 37 35 99 39 38 100 36 36 101 42 40 102 41 41 103 37 35 104 37 35 105 8 7 106 42 40 107 42 40 108 8 7 109 44 42 110 44 42 111 8 7 112 45 43 113 45 43 114 8 7 115 46 44 116 46 44 117 8 7 118 47 45 119 47 45 120 8 7 121 48 46 122 49 47 123 48 46 124 8 7 125 48 46 126 50 48 127 51 49 128 52 50 129 50 48 130 49 47 131 49 47 132 8 7 133 52 50 134 54 51 135 52 50 136 8 7 137 54 51 138 53 52 139 52 50 140 56 53 141 55 54 142 54 51 143 56 53 144 54 51 145 8 7 146 10 10 147 56 53 148 8 7 149 56 53 150 12 12 151 57 55 152 57 55 153 58 56 154 59 57 155 12 12 156 60 58 157 58 56 158 13 13 159 60 58 160 11 11 161 14 14 162 61 59 163 13 13 164 15 16 165 62 60 166 14 14 167 16 15 168 63 61 169 15 16 170 17 17 171 64 62 172 16 15 173 18 18 174 65 63 175 17 17 176 19 20 177 66 64 178 18 18 179 19 20 180 68 65 181 67 66 182 21 19 183 69 67 184 68 65 185 23 24 186 70 68 187 69 67 188 25 26 189 71 69 190 70 68 191 27 28 192 72 70 193 71 69 194 29 27 195 73 71 196 72 70 197 33 72 198 73 71 199 31 31 200 75 73 201 74 74 202 33 72 203 77 75 204 33 72 205 32 32 206 32 32 207 34 33 208 77 75 209 78 76 210 77 75 211 34 33 212 78 76 213 75 73 214 77 75 215 78 76 216 81 77 217 79 78 218 80 79 219 78 76 220 34 33 221 82 80 222 80 79 223 34 33 224 80 79 225 83 81 226 81 77 227 82 80 228 85 82 229 83 81 230 84 83 231 82 80 232 34 33 233 86 84 234 84 83 235 34 33 236 86 84 237 85 82 238 84 83 239 86 84 240 89 85 241 87 86 242 88 87 243 86 84 244 34 33 245 90 88 246 88 87 247 34 33 248 90 88 249 89 85 250 88 87 251 92 89 252 91 90 253 90 88 254 92 89 255 90 88 256 34 33 257 94 91 258 92 89 259 34 33 260 94 91 261 93 92 262 92 89 263 94 91 264 97 93 265 95 94 266 96 95 267 94 91 268 34 33 269 98 96 270 96 95 271 34 33 272 96 95 273 99 97 274 97 93 275 100 98 276 99 97 277 98 96 278 98 96 279 35 34 280 100 98 281 100 98 282 35 34 283 102 99 284 102 99 285 35 34 286 103 100 287 103 100 288 35 34 289 104 101 290 104 101 291 35 34 292 105 102 293 105 102 294 35 34 295 106 103 296 106 103 297 35 34 298 107 104 299 107 104 300 35 34 301 108 105 302 108 105 303 35 34 304 109 106 305 110 107 306 109 106 307 35 34 308 110 107 309 112 108 310 109 106 311 113 109 312 111 110 313 110 107 314 113 109 315 110 107 316 35 34 317 38 37 318 113 109 319 35 34 320 113 109 321 40 39 322 114 111 323 114 111 324 115 112 325 116 113 326 40 39 327 117 114 328 115 112 329 41 41 330 117 114 331 39 38 332 43 115 333 118 116 334 41 41 335 120 117 336 119 118 337 43 115 338 44 42 339 43 115 340 42 40 341 44 42 342 122 119 343 120 117 344 45 43 345 123 120 346 122 119 347 46 44 348 124 121 349 123 120 350 48 46 351 124 121 352 47 45 353 51 49 354 126 122 355 124 121 356 51 49 357 127 123 358 125 124 359 50 48 360 128 125 361 127 123 362 53 52 363 129 126 364 128 125 365 55 54 366 59 57 367 129 126 368 59 57 369 131 127 370 129 126 371 58 56 372 130 128 373 59 57 374 58 56 375 133 129 376 132 130 377 61 59 378 133 129 379 60 58 380 62 60 381 134 131 382 61 59 383 62 60 384 136 132 385 135 133 386 63 61 387 137 134 388 136 132 389 64 62 390 138 135 391 137 134 392 65 63 393 139 136 394 138 135 395 66 64 396 140 137 397 139 136 398 68 65 399 140 137 400 67 66 401 69 67 402 141 138 403 68 65 404 70 68 405 142 139 406 69 67 407 71 69 408 143 140 409 70 68 410 72 70 411 144 141 412 71 69 413 72 70 414 146 142 415 145 143 416 74 74 417 146 142 418 73 71 419 76 144 420 147 145 421 74 74 422 76 144 423 150 146 424 148 147 425 79 78 426 76 144 427 75 73 428 81 77 429 149 148 430 79 78 431 83 81 432 151 149 433 81 77 434 85 82 435 152 150 436 83 81 437 87 86 438 153 151 439 85 82 440 87 86 441 155 152 442 154 153 443 89 85 444 156 154 445 155 152 446 91 90 447 157 155 448 156 154 449 93 92 450 158 156 451 157 155 452 95 94 453 159 157 454 158 156 455 97 93 456 160 158 457 159 157 458 101 159 459 160 158 460 99 97 461 162 160 462 161 161 463 101 159 464 102 99 465 101 159 466 100 98 467 103 100 468 162 160 469 102 99 470 103 100 471 165 162 472 164 163 473 104 101 474 166 164 475 165 162 476 105 102 477 167 165 478 166 164 479 107 104 480 167 165 481 106 103 482 107 104 483 169 166 484 168 167 485 109 106 486 169 166 487 108 105 488 169 166 489 170 168 490 171 169 491 112 108 492 172 170 493 170 168 494 111 110 495 116 113 496 172 170 497 116 113 498 174 171 499 172 170 500 115 112 501 173 172 502 116 113 503 115 112 504 176 173 505 175 174 506 118 116 507 176 173 508 117 114 509 119 118 510 177 175 511 118 116 512 119 118 513 179 176 514 178 177 515 121 178 516 181 179 517 179 176 518 122 119 519 121 178 520 120 117 521 123 120 522 180 180 523 122 119 524 124 121 525 182 181 526 123 120 527 182 181 528 183 182 529 184 183 530 126 122 531 185 184 532 183 182 533 127 123 534 185 184 535 125 124 536 128 125 537 186 185 538 127 123 539 129 126 540 187 186 541 128 125 542 187 186 543 189 187 544 188 188 545 186 185 546 188 188 547 190 189 548 185 184 549 190 189 550 191 190 551 183 182 552 191 190 553 192 191 554 184 183 555 192 191 556 193 192 557 181 179 558 193 192 559 194 193 560 179 176 561 194 193 562 195 194 563 178 177 564 195 194 565 196 195 566 177 175 567 196 195 568 197 196 569 176 173 570 197 196 571 198 197 572 175 174 573 198 197 574 199 198 575 173 172 576 199 198 577 200 199 578 174 171 579 200 199 580 201 200 581 203 201 582 201 200 583 202 202 584 205 203 585 202 202 586 204 204 587 207 205 588 204 204 589 206 206 590 209 207 591 206 206 592 208 208 593 211 209 594 208 208 595 210 210 596 213 211 597 210 210 598 212 212 599 215 213 600 212 212 601 214 214 602 217 215 603 214 214 604 216 216 605 219 217 606 216 216 607 218 218 608 221 219 609 218 218 610 220 220 611 223 221 612 220 220 613 222 222 614 225 223 615 222 222 616 224 224 617 227 225 618 224 224 619 226 226 620 229 227 621 226 226 622 228 228 623 231 229 624 228 228 625 230 230 626 233 231 627 230 230 628 232 232 629 235 233 630 232 232 631 234 234 632 237 235 633 234 234 634 236 236 635 239 237 636 236 236 637 238 238 638 150 146 639 238 238 640 240 239 641 148 147 642 240 239 643 241 240 644 147 145 645 241 240 646 242 241 647 146 142 648 242 241 649 243 242 650 145 143 651 243 242 652 244 243 653 144 141 654 244 243 655 245 244 656 143 140 657 245 244 658 246 245 659 142 139 660 246 245 661 247 246 662 141 138 663 247 246 664 248 247 665 140 137 666 248 247 667 249 248 668 139 136 669 249 248 670 250 249 671 138 135 672 250 249 673 251 250 674 137 134 675 251 250 676 252 251 677 136 132 678 252 251 679 253 252 680 135 133 681 253 252 682 254 253 683 134 131 684 254 253 685 255 254 686 133 129 687 255 254 688 256 255 689 132 130 690 256 255 691 257 256 692 130 128 693 257 256 694 258 257 695 131 127 696 258 257 697 189 187 698 149 148 699 239 237 700 150 146 701 151 149 702 237 235 703 239 237 704 152 150 705 235 233 706 237 235 707 153 151 708 233 231 709 235 233 710 155 152 711 233 231 712 154 153 713 156 154 714 231 229 715 155 152 716 157 155 717 229 227 718 156 154 719 158 156 720 227 225 721 157 155 722 159 157 723 225 223 724 158 156 725 159 157 726 221 219 727 223 221 728 161 161 729 221 219 730 160 158 731 163 258 732 219 217 733 161 161 734 163 258 735 215 213 736 217 215 737 164 163 738 163 258 739 162 160 740 165 162 741 259 259 742 164 163 743 166 164 744 260 260 745 165 162 746 167 165 747 261 261 748 166 164 749 168 167 750 262 262 751 167 165 752 168 167 753 171 169 754 263 263 755 171 169 756 207 205 757 263 263 758 170 168 759 205 203 760 171 169 761 172 170 762 203 201 763 170 168 764 262 262 765 207 205 766 209 207 767 261 261 768 209 207 769 211 209 770 260 260 771 211 209 772 213 211 773 259 259 774 213 211 775 215 213 776 180 180 777 184 183 778 181 179 779 9 264 780 1 264 781 6 264 782 8 7 783 1 1 784 9 8 785 10 10 786 7 9 787 11 11 788 9 8 789 13 13 790 11 11 791 6 6 792 14 14 793 13 13 794 5 5 795 15 16 796 14 14 797 5 5 798 4 4 799 16 15 800 4 4 801 3 3 802 17 17 803 3 3 804 0 0 805 18 18 806 2 2 807 19 20 808 18 18 809 2 2 810 20 21 811 21 19 812 22 22 813 23 24 814 21 19 815 24 23 816 25 26 817 23 24 818 26 25 819 27 28 820 25 26 821 26 25 822 28 29 823 29 27 824 28 29 825 30 30 826 31 31 827 32 32 828 33 72 829 31 31 830 30 30 831 1 1 832 34 33 833 1 1 834 8 7 835 35 34 836 35 34 837 8 7 838 37 35 839 38 37 840 36 36 841 39 38 842 37 35 843 41 41 844 39 38 845 42 40 846 43 115 847 41 41 848 48 46 849 49 47 850 50 48 851 52 50 852 53 52 853 50 48 854 54 51 855 55 54 856 53 52 857 56 53 858 57 55 859 55 54 860 56 53 861 10 10 862 12 12 863 57 55 864 12 12 865 58 56 866 12 12 867 11 11 868 60 58 869 13 13 870 61 59 871 60 58 872 14 14 873 62 60 874 61 59 875 15 16 876 63 61 877 62 60 878 16 15 879 64 62 880 63 61 881 17 17 882 65 63 883 64 62 884 18 18 885 66 64 886 65 63 887 19 20 888 67 66 889 66 64 890 19 20 891 21 19 892 68 65 893 21 19 894 23 24 895 69 67 896 23 24 897 25 26 898 70 68 899 25 26 900 27 28 901 71 69 902 27 28 903 29 27 904 72 70 905 29 27 906 31 31 907 73 71 908 33 72 909 74 74 910 73 71 911 75 73 912 76 144 913 74 74 914 77 75 915 75 73 916 33 72 917 78 76 918 79 78 919 75 73 920 78 76 921 80 79 922 81 77 923 80 79 924 82 80 925 83 81 926 82 80 927 84 83 928 85 82 929 86 84 930 87 86 931 85 82 932 86 84 933 88 87 934 89 85 935 90 88 936 91 90 937 89 85 938 92 89 939 93 92 940 91 90 941 94 91 942 95 94 943 93 92 944 94 91 945 96 95 946 97 93 947 96 95 948 98 96 949 99 97 950 100 98 951 101 159 952 99 97 953 98 96 954 34 33 955 35 34 956 110 107 957 111 110 958 112 108 959 113 109 960 114 111 961 111 110 962 113 109 963 38 37 964 40 39 965 114 111 966 40 39 967 115 112 968 40 39 969 39 38 970 117 114 971 41 41 972 118 116 973 117 114 974 43 115 975 119 118 976 118 116 977 120 117 978 121 178 979 119 118 980 44 42 981 120 117 982 43 115 983 44 42 984 45 43 985 122 119 986 45 43 987 46 44 988 123 120 989 46 44 990 47 45 991 124 121 992 48 46 993 51 49 994 124 121 995 51 49 996 125 124 997 126 122 998 51 49 999 50 48 1000 127 123 1001 50 48 1002 53 52 1003 128 125 1004 53 52 1005 55 54 1006 129 126 1007 55 54 1008 57 55 1009 59 57 1010 59 57 1011 130 128 1012 131 127 1013 58 56 1014 132 130 1015 130 128 1016 58 56 1017 60 58 1018 133 129 1019 61 59 1020 134 131 1021 133 129 1022 62 60 1023 135 133 1024 134 131 1025 62 60 1026 63 61 1027 136 132 1028 63 61 1029 64 62 1030 137 134 1031 64 62 1032 65 63 1033 138 135 1034 65 63 1035 66 64 1036 139 136 1037 66 64 1038 67 66 1039 140 137 1040 68 65 1041 141 138 1042 140 137 1043 69 67 1044 142 139 1045 141 138 1046 70 68 1047 143 140 1048 142 139 1049 71 69 1050 144 141 1051 143 140 1052 72 70 1053 145 143 1054 144 141 1055 72 70 1056 73 71 1057 146 142 1058 74 74 1059 147 145 1060 146 142 1061 76 144 1062 148 147 1063 147 145 1064 76 144 1065 149 148 1066 150 146 1067 79 78 1068 149 148 1069 76 144 1070 81 77 1071 151 149 1072 149 148 1073 83 81 1074 152 150 1075 151 149 1076 85 82 1077 153 151 1078 152 150 1079 87 86 1080 154 153 1081 153 151 1082 87 86 1083 89 85 1084 155 152 1085 89 85 1086 91 90 1087 156 154 1088 91 90 1089 93 92 1090 157 155 1091 93 92 1092 95 94 1093 158 156 1094 95 94 1095 97 93 1096 159 157 1097 97 93 1098 99 97 1099 160 158 1100 101 159 1101 161 161 1102 160 158 1103 162 160 1104 163 258 1105 161 161 1106 102 99 1107 162 160 1108 101 159 1109 103 100 1110 164 163 1111 162 160 1112 103 100 1113 104 101 1114 165 162 1115 104 101 1116 105 102 1117 166 164 1118 105 102 1119 106 103 1120 167 165 1121 107 104 1122 168 167 1123 167 165 1124 107 104 1125 108 105 1126 169 166 1127 109 106 1128 112 108 1129 169 166 1130 169 166 1131 112 108 1132 170 168 1133 112 108 1134 111 110 1135 172 170 1136 111 110 1137 114 111 1138 116 113 1139 116 113 1140 173 172 1141 174 171 1142 115 112 1143 175 174 1144 173 172 1145 115 112 1146 117 114 1147 176 173 1148 118 116 1149 177 175 1150 176 173 1151 119 118 1152 178 177 1153 177 175 1154 119 118 1155 121 178 1156 179 176 1157 121 178 1158 180 180 1159 181 179 1160 122 119 1161 180 180 1162 121 178 1163 123 120 1164 182 181 1165 180 180 1166 124 121 1167 126 122 1168 182 181 1169 182 181 1170 126 122 1171 183 182 1172 126 122 1173 125 124 1174 185 184 1175 127 123 1176 186 185 1177 185 184 1178 128 125 1179 187 186 1180 186 185 1181 129 126 1182 131 127 1183 187 186 1184 187 186 1185 131 127 1186 189 187 1187 186 185 1188 187 186 1189 188 188 1190 185 184 1191 186 185 1192 190 189 1193 183 182 1194 185 184 1195 191 190 1196 184 183 1197 183 182 1198 192 191 1199 181 179 1200 184 183 1201 193 192 1202 179 176 1203 181 179 1204 194 193 1205 178 177 1206 179 176 1207 195 194 1208 177 175 1209 178 177 1210 196 195 1211 176 173 1212 177 175 1213 197 196 1214 175 174 1215 176 173 1216 198 197 1217 173 172 1218 175 174 1219 199 198 1220 174 171 1221 173 172 1222 200 199 1223 203 201 1224 174 171 1225 201 200 1226 205 203 1227 203 201 1228 202 202 1229 207 205 1230 205 203 1231 204 204 1232 209 207 1233 207 205 1234 206 206 1235 211 209 1236 209 207 1237 208 208 1238 213 211 1239 211 209 1240 210 210 1241 215 213 1242 213 211 1243 212 212 1244 217 215 1245 215 213 1246 214 214 1247 219 217 1248 217 215 1249 216 216 1250 221 219 1251 219 217 1252 218 218 1253 223 221 1254 221 219 1255 220 220 1256 225 223 1257 223 221 1258 222 222 1259 227 225 1260 225 223 1261 224 224 1262 229 227 1263 227 225 1264 226 226 1265 231 229 1266 229 227 1267 228 228 1268 233 231 1269 231 229 1270 230 230 1271 235 233 1272 233 231 1273 232 232 1274 237 235 1275 235 233 1276 234 234 1277 239 237 1278 237 235 1279 236 236 1280 150 146 1281 239 237 1282 238 238 1283 148 147 1284 150 146 1285 240 239 1286 147 145 1287 148 147 1288 241 240 1289 146 142 1290 147 145 1291 242 241 1292 145 143 1293 146 142 1294 243 242 1295 144 141 1296 145 143 1297 244 243 1298 143 140 1299 144 141 1300 245 244 1301 142 139 1302 143 140 1303 246 245 1304 141 138 1305 142 139 1306 247 246 1307 140 137 1308 141 138 1309 248 247 1310 139 136 1311 140 137 1312 249 248 1313 138 135 1314 139 136 1315 250 249 1316 137 134 1317 138 135 1318 251 250 1319 136 132 1320 137 134 1321 252 251 1322 135 133 1323 136 132 1324 253 252 1325 134 131 1326 135 133 1327 254 253 1328 133 129 1329 134 131 1330 255 254 1331 132 130 1332 133 129 1333 256 255 1334 130 128 1335 132 130 1336 257 256 1337 131 127 1338 130 128 1339 258 257 1340 149 148 1341 151 149 1342 239 237 1343 151 149 1344 152 150 1345 237 235 1346 152 150 1347 153 151 1348 235 233 1349 153 151 1350 154 153 1351 233 231 1352 155 152 1353 231 229 1354 233 231 1355 156 154 1356 229 227 1357 231 229 1358 157 155 1359 227 225 1360 229 227 1361 158 156 1362 225 223 1363 227 225 1364 159 157 1365 223 221 1366 225 223 1367 159 157 1368 160 158 1369 221 219 1370 161 161 1371 219 217 1372 221 219 1373 163 258 1374 217 215 1375 219 217 1376 163 258 1377 259 259 1378 215 213 1379 164 163 1380 259 259 1381 163 258 1382 165 162 1383 260 260 1384 259 259 1385 166 164 1386 261 261 1387 260 260 1388 167 165 1389 262 262 1390 261 261 1391 168 167 1392 263 263 1393 262 262 1394 168 167 1395 169 166 1396 171 169 1397 171 169 1398 205 203 1399 207 205 1400 170 168 1401 203 201 1402 205 203 1403 172 170 1404 174 171 1405 203 201 1406 262 262 1407 263 263 1408 207 205 1409 261 261 1410 262 262 1411 209 207 1412 260 260 1413 261 261 1414 211 209 1415 259 259 1416 260 260 1417 213 211 1418 180 180 1419 182 181 1420 184 183 1421</p>
        </polylist>
      </mesh>
    </geometry>
  </library_geometries>
  <library_controllers/>
  <library_visual_scenes>
    <visual_scene id="Scene" name="Scene">
      <node id="Mesh1_Group1_Model" name="Mesh1_Group1_Model" type="NODE">
        <matrix sid="transform">1 0 0 0 0 -1.62921e-7 -1 0 0 1 -1.62921e-7 0 0 0 0 1</matrix>
        <instance_geometry url="#Mesh1_Group1_Model-mesh" name="Mesh1_Group1_Model">
          <bind_material>
            <technique_common>
              <instance_material symbol="FrontColor-material" target="#FrontColor-material">
                <bind_vertex_input semantic="UVMap" input_semantic="TEXCOORD" input_set="0"/>
              </instance_material>
            </technique_common>
          </bind_material>
        </instance_geometry>
      </node>
    </visual_scene>
  </library_visual_scenes>
  <scene>
    <instance_visual_scene url="#Scene"/>
  </scene>
</COLLADA>