<?xml version="1.0" encoding="utf-8"?>
<COLLADA xmlns="http://www.collada.org/2005/11/COLLADASchema" version="1.4.1">
  <asset>
    <contributor>
      <author>Blender User</author>
      <authoring_tool>Blender 2.78.0 commit date:2016-10-24, commit time:12:20, hash:e8299c8</authoring_tool>
    </contributor>
    <created>2021-10-30T12:15:15</created>
    <modified>2021-10-30T12:15:15</modified>
    <unit name="meter" meter="1"/>
    <up_axis>Z_UP</up_axis>
  </asset>
  <library_images>
    <image id="video_store_counter__color_png" name="video_store_counter__color_png">
      <init_from>/I:/3D_Asset_Packages/For%20Sale/Video_Store/Counter/Model/video_store_counter__color.png</init_from>
    </image>
  </library_images>
  <library_effects>
    <effect id="FrontColor-effect">
      <profile_COMMON>
        <newparam sid="video_store_counter__color_png-surface">
          <surface type="2D">
            <init_from>video_store_counter__color_png</init_from>
          </surface>
        </newparam>
        <newparam sid="video_store_counter__color_png-sampler">
          <sampler2D>
            <source>video_store_counter__color_png-surface</source>
          </sampler2D>
        </newparam>
        <technique sid="common">
          <phong>
            <emission>
              <color sid="emission">0 0 0 1</color>
            </emission>
            <ambient>
              <color sid="ambient">0 0 0 1</color>
            </ambient>
            <diffuse>
              <texture texture="video_store_counter__color_png-sampler" texcoord="UVMap"/>
            </diffuse>
            <specular>
              <color sid="specular">1 1 1 1</color>
            </specular>
            <shininess>
              <float sid="shininess">52</float>
            </shininess>
            <transparent opaque="A_ONE">
              <color>1 1 1 1</color>
            </transparent>
            <index_of_refraction>
              <float sid="index_of_refraction">1</float>
            </index_of_refraction>
          </phong>
        </technique>
      </profile_COMMON>
    </effect>
  </library_effects>
  <library_materials>
    <material id="FrontColor-material" name="FrontColor">
      <instance_effect url="#FrontColor-effect"/>
    </material>
  </library_materials>
  <library_geometries>
    <geometry id="Mesh4_Group2_Group1_Model-mesh" name="Mesh4_Group2_Group1_Model">
      <mesh>
        <source id="Mesh4_Group2_Group1_Model-mesh-positions">
          <float_array id="Mesh4_Group2_Group1_Model-mesh-positions-array" count="444">-0.285 0 0.99 -0.285 0.06 0.99 -0.285 0.06 -0.99 -0.285 0 -0.99 -0.28 0.12 -0.99 -0.28 0.12 0.99 -0.275 0.12 0.99 -0.275 0.12 -0.99 -0.165 0.968 -1.1 0.165 0.968 -1.1 0.165 0 -1.1 -0.165 0 -1.1 -0.165 0 1.1 0.165 0 1.1 0.165 0.968 1.1 -0.165 0.968 1.1 0.1669999 0.968 -1.111 0.284 0.968 -1.111 0.284 0 -1.111 0.1669999 0 -1.111 0.286 0.968 -1.109 0.286 0 -1.109 0.286 0 -0.992 0.286 0.968 -0.992 0.284 0.968 -0.99 0.284 0 -0.99 0.275 0 -0.99 0.275 0.968 -0.99 0.165 0 -1.109 0.165 0.968 -1.109 0.165 0.968 -1.1 0.165 0 -1.1 0.288298 1.021 -1.1153 0.288298 0.97 -1.1153 -0.288298 0.97 -1.1153 -0.288298 1.021 -1.1153 0.290298 1.021 -1.1133 0.290298 0.97 -1.1133 0.290298 0.97 1.1133 0.290298 1.021 1.1133 0.288298 1.021 1.1153 0.288298 0.97 1.1153 0.288298 1.023 1.1133 0.288298 1.023 -1.1133 -0.288298 1.023 -1.1133 -0.290298 1.021 -1.1133 -0.290298 0.97 -1.1133 -0.288298 0.968 -1.1133 0.288298 0.968 -1.1133 -0.288298 0.968 1.1133 -0.290298 0.97 1.1133 -0.288298 0.97 1.1153 0.288298 0.968 1.1133 -0.288298 1.023 1.1133 -0.288298 1.021 1.1153 -0.290298 1.021 1.1133 0.275 1.023 -1.1 0.275 1.023 1.1 -0.275 1.023 -1.1 -0.275 1.023 1.1 0.275 0.968 -1.1 -0.275 0.968 -1.1 -0.275 0.968 1.1 0.275 0.968 1.1 -0.165 0 -1.11 -0.165 0.06 -1.11 0.165 0.06 -1.11 0.165 0 -1.11 0.165 0.12 -1.105 -0.165 0.12 -1.105 -0.165 0.12 -1.1 0.165 0.12 -1.1 0.286 0 1.109 0.286 0 0.992 0.286 0.968 0.992 0.286 0.968 1.109 0.284 0 0.99 0.284 0.968 0.99 0.275 0.968 0.99 0.275 0 0.99 0.284 0.968 1.111 0.284 0 1.111 0.1669999 0.968 1.111 0.1669999 0 1.111 0.165 0.968 1.109 0.165 0 1.109 0.165 0 1.1 0.165 0.968 1.1 0.275 0.968 0.99 0.275 0.12 0.99 0.275 0.12 -0.99 0.275 0.968 -0.99 0.275 1.023 -1.1 -0.275 1.023 -1.1 -0.275 1.023 1.1 0.275 1.023 1.1 0.285 0 -0.99 0.285 0.06 -0.99 0.285 0.06 0.99 0.285 0 0.99 0.28 0.12 0.99 0.28 0.12 -0.99 0.275 0.12 -0.99 0.275 0.12 0.99 0.165 0 1.11 0.165 0.06 1.11 -0.165 0.06 1.11 -0.165 0 1.11 -0.165 0.12 1.105 0.165 0.12 1.105 0.165 0.12 1.1 -0.165 0.12 1.1 -0.286 0 -1.109 -0.286 0 -0.992 -0.286 0.968 -0.992 -0.286 0.968 -1.109 -0.284 0 -0.99 -0.284 0.968 -0.99 -0.275 0.968 -0.99 -0.275 0 -0.99 -0.284 0.968 -1.111 -0.284 0 -1.111 -0.1669999 0.968 -1.111 -0.1669999 0 -1.111 -0.165 0.968 -1.109 -0.165 0 -1.109 -0.165 0 -1.1 -0.165 0.968 -1.1 -0.284 0 1.111 -0.1669999 0 1.111 -0.1669999 0.968 1.111 -0.284 0.968 1.111 -0.165 0 1.109 -0.165 0.968 1.109 -0.165 0.968 1.1 -0.165 0 1.1 -0.286 0.968 1.109 -0.286 0 1.109 -0.286 0.968 0.992 -0.286 0 0.992 -0.284 0.968 0.99 -0.284 0 0.99 -0.275 0 0.99 -0.275 0.968 0.99 -0.275 0.968 -0.99 -0.275 0.12 -0.99 -0.275 0.12 0.99 -0.275 0.968 0.99</float_array>
          <technique_common>
            <accessor source="#Mesh4_Group2_Group1_Model-mesh-positions-array" count="148" stride="3">
              <param name="X" type="float"/>
              <param name="Y" type="float"/>
              <param name="Z" type="float"/>
            </accessor>
          </technique_common>
        </source>
        <source id="Mesh4_Group2_Group1_Model-mesh-normals">
          <float_array id="Mesh4_Group2_Group1_Model-mesh-normals-array" count="192">-1 0 0 -0.9965458 0.08304524 0 -0.9965458 0.08304524 0 0 1 0 0 0 -1 0 0 1 0.7070986 0 -0.707115 0.7070986 0 -0.7071151 1 0 0 0.7070986 0 0.707115 0.7070986 0 0.7071151 -0.7071012 0 -0.7071124 0.738528 -0.4767531 -0.4767421 0.4767437 0.4767358 -0.7385381 0.7385492 0.4767482 -0.4767139 0.7385195 0.476767 0.4767413 0.4767599 -0.4767552 0.738515 0.7385578 -0.4767343 0.4767146 0.4767407 0.7385652 0.4766968 0.4767302 0.4767507 0.7385371 0.4767459 0.7385345 -0.4767391 -0.4767302 0.4767507 -0.7385371 -0.4767407 0.7385652 -0.4766968 -0.7385195 0.476767 -0.4767413 -0.4767599 -0.4767552 -0.738515 -0.4767422 -0.7385489 -0.4767206 -0.7385578 -0.4767343 -0.4767146 0.4767426 -0.4767359 -0.7385387 0.4767407 -0.738555 -0.4767124 -0.4767407 -0.738555 0.4767124 -0.738528 -0.4767531 0.4767421 -0.4767426 -0.4767359 0.7385387 0.4767422 -0.7385489 0.4767206 -0.4767459 0.7385345 0.4767391 -0.7385492 0.4767482 0.4767139 -0.4767437 0.4767358 0.7385381 0 1 8.74477e-6 0 1 8.14804e-6 0 1 7.64132e-6 0 1 -7.64132e-6 0 1 8.5745e-6 0 1 -8.5745e-6 0 1 -8.74477e-6 0 1 -8.14804e-6 0 -1 0 0 -1 1.48203e-6 0 -1 1.52776e-6 0 -1 0 0 -1 -1.52776e-6 0 -1 -1.48203e-6 0 -1 0 0 0.08304536 -0.9965458 0 0.08304536 -0.9965459 -0.7071012 0 0.7071124 0.9965458 0.08304524 0 0.9965458 0.08304524 0 0 0.08304536 0.9965458 0 0.08304536 0.9965459 -0.7070986 0 0.707115 -0.7070986 0 0.7071151 -0.7070986 0 -0.707115 -0.7070986 0 -0.7071151 0.7071012 0 -0.7071124 0.7071012 0 0.7071124</float_array>
          <technique_common>
            <accessor source="#Mesh4_Group2_Group1_Model-mesh-normals-array" count="64" stride="3">
              <param name="X" type="float"/>
              <param name="Y" type="float"/>
              <param name="Z" type="float"/>
            </accessor>
          </technique_common>
        </source>
        <source id="Mesh4_Group2_Group1_Model-mesh-map-0">
          <float_array id="Mesh4_Group2_Group1_Model-mesh-map-0-array" count="876">0.43949 0.004999995 0.453886 0.480047 0.453886 0.004999995 0.43949 0.480047 0.425095 0.004999995 0.425095 0.480047 0.489971 0.635143 0.01492398 0.636343 0.01492398 0.635143 0.01492398 0.730857 0.247169 0.651682 0.01492398 0.651682 0.701996 0.01492398 0.469751 0.09409797 0.701996 0.09409797 0.622392 0.150545 0.650462 0.38279 0.650462 0.150545 0.622392 0.150545 0.621912 0.38279 0.622392 0.38279 0.253088 0.651682 0.485333 0.679753 0.253088 0.679753 0.52649 0.150545 0.52697 0.38279 0.52649 0.38279 0.52649 0.150545 0.52433 0.38279 0.52433 0.150545 0.650462 0.38279 0.650942 0.150545 0.650462 0.150545 0.469751 0.11301 0.701996 0.110851 0.469751 0.110851 0.518373 0.288883 0.506137 0.150545 0.506137 0.288883 0.567812 0.1510249 0.580048 0.150545 0.580048 0.1510249 0.580048 0.685237 0.567812 0.685717 0.567812 0.685237 0.539692 0.764518 0.539692 0.764038 0.540172 0.764038 0.539692 0.764038 0.005479991 0.764518 0.005479991 0.764038 0.005479991 0.764038 0.004999995 0.625699 0.005479991 0.625699 0.005479991 0.764038 0.005479991 0.764518 0.004999995 0.764038 0.005479991 0.625699 0.004999995 0.625699 0.005479991 0.625219 0.559721 0.685717 0.547485 0.685237 0.547485 0.685717 0.559721 0.685717 0.560201 0.685237 0.559721 0.685237 0.99452 0.143339 0.995 0.004999995 0.99452 0.004999995 0.560201 0.1510249 0.559721 0.685237 0.560201 0.685237 0.559721 0.1510249 0.560201 0.1510249 0.559721 0.150545 0.460308 0.004999995 0.459828 0.143339 0.460308 0.143339 0.567332 0.1510249 0.567812 0.685237 0.567332 0.685237 0.567812 0.1510249 0.567332 0.1510249 0.567812 0.150545 0.567332 0.685237 0.567812 0.685237 0.567812 0.685717 0.539692 0.625699 0.540172 0.764038 0.539692 0.764038 0.005479991 0.625699 0.539692 0.625219 0.539692 0.625699 0.559721 0.1510249 0.547485 0.150545 0.547485 0.1510249 0.539692 0.625699 0.539692 0.625219 0.540172 0.625699 0.567812 0.685237 0.580048 0.1510249 0.580048 0.685237 0.005479991 0.764038 0.536501 0.760847 0.539692 0.764038 0.005479991 0.625699 0.008670985 0.760847 0.005479991 0.764038 0.539692 0.764038 0.536501 0.62889 0.539692 0.625699 0.008670985 0.62889 0.539692 0.625699 0.536501 0.62889 0.991329 0.140148 0.99452 0.004999995 0.991329 0.008189976 0.99452 0.143339 0.463499 0.140148 0.460308 0.143339 0.463499 0.008189976 0.460308 0.143339 0.463499 0.140148 0.991329 0.008189976 0.460308 0.004999995 0.463499 0.008189976 0.506137 0.434428 0.518373 0.29609 0.506137 0.29609 0.547485 0.1510249 0.559721 0.685237 0.559721 0.1510249 0.701086 0.403104 0.621912 0.4175 0.701086 0.4175 0.621912 0.403104 0.701086 0.388709 0.621912 0.388709 0.469751 0.150545 0.470951 0.229719 0.469751 0.229719 0.253088 0.72328 0.485333 0.751351 0.253088 0.751351 0.253088 0.72328 0.485333 0.722801 0.485333 0.72328 0.547485 0.738191 0.77973 0.736032 0.547485 0.736032 0.485333 0.751351 0.253088 0.751831 0.253088 0.751351 0.621912 0.451512 0.854157 0.423441 0.621912 0.423441 0.701996 0.101407 0.469751 0.100927 0.469751 0.101407 0.701996 0.101407 0.469751 0.103566 0.701996 0.103566 0.004999995 0.480047 0.208454 0.004999995 0.208454 0.480047 0.004999995 0.48629 0.53283 0.618248 0.004999995 0.618248 0.601575 0.150545 0.587179 0.625592 0.587179 0.150545 0.601575 0.625592 0.61597 0.150545 0.61597 0.625592 0.01492398 0.644612 0.489971 0.643413 0.489971 0.644612 0.666354 0.64623 0.587179 0.631835 0.666354 0.631835 0.587179 0.64623 0.666354 0.660626 0.587179 0.660626 0.461028 0.229719 0.459828 0.150545 0.461028 0.150545 0.485333 0.686894 0.253088 0.714965 0.485333 0.714965 0.485333 0.686894 0.253088 0.686414 0.253088 0.686894 0.469751 0.129549 0.701996 0.12739 0.469751 0.12739 0.253088 0.714965 0.485333 0.715445 0.485333 0.714965 0.547485 0.729371 0.77973 0.7013 0.547485 0.7013 0.01492398 0.738166 0.247169 0.737686 0.247169 0.738166 0.01492398 0.738166 0.247169 0.740325 0.01492398 0.740325 0.488379 0.236549 0.460307 0.468794 0.460307 0.236549 0.488379 0.236549 0.488858 0.468794 0.488379 0.468794 0.701996 0.12128 0.469751 0.11912 0.701996 0.11912 0.460307 0.468794 0.459828 0.236549 0.460307 0.236549 0.587179 0.694638 0.819425 0.666567 0.587179 0.666567 0.498373 0.38279 0.498853 0.150545 0.498373 0.150545 0.498373 0.38279 0.496214 0.150545 0.496214 0.38279 0.418502 0.480047 0.215048 0.004999995 0.215048 0.480047 0.43949 0.004999995 0.43949 0.480047 0.453886 0.480047 0.43949 0.480047 0.43949 0.004999995 0.425095 0.004999995 0.489971 0.635143 0.489971 0.636343 0.01492398 0.636343 0.01492398 0.730857 0.247169 0.730857 0.247169 0.651682 0.701996 0.01492398 0.469751 0.01492398 0.469751 0.09409797 0.622392 0.150545 0.622392 0.38279 0.650462 0.38279 0.622392 0.150545 0.621912 0.150545 0.621912 0.38279 0.253088 0.651682 0.485333 0.651682 0.485333 0.679753 0.52649 0.150545 0.52697 0.150545 0.52697 0.38279 0.52649 0.150545 0.52649 0.38279 0.52433 0.38279 0.650462 0.38279 0.650942 0.38279 0.650942 0.150545 0.469751 0.11301 0.701996 0.11301 0.701996 0.110851 0.518373 0.288883 0.518373 0.150545 0.506137 0.150545 0.567812 0.1510249 0.567812 0.150545 0.580048 0.150545 0.580048 0.685237 0.580048 0.685717 0.567812 0.685717 0.539692 0.764038 0.539692 0.764518 0.005479991 0.764518 0.005479991 0.764038 0.004999995 0.764038 0.004999995 0.625699 0.559721 0.685717 0.559721 0.685237 0.547485 0.685237 0.99452 0.143339 0.995 0.143339 0.995 0.004999995 0.560201 0.1510249 0.559721 0.1510249 0.559721 0.685237 0.460308 0.004999995 0.459828 0.004999995 0.459828 0.143339 0.567332 0.1510249 0.567812 0.1510249 0.567812 0.685237 0.539692 0.625699 0.540172 0.625699 0.540172 0.764038 0.005479991 0.625699 0.005479991 0.625219 0.539692 0.625219 0.559721 0.1510249 0.559721 0.150545 0.547485 0.150545 0.567812 0.685237 0.567812 0.1510249 0.580048 0.1510249 0.005479991 0.764038 0.008670985 0.760847 0.536501 0.760847 0.005479991 0.625699 0.008670985 0.62889 0.008670985 0.760847 0.539692 0.764038 0.536501 0.760847 0.536501 0.62889 0.008670985 0.62889 0.005479991 0.625699 0.539692 0.625699 0.991329 0.140148 0.99452 0.143339 0.99452 0.004999995 0.99452 0.143339 0.991329 0.140148 0.463499 0.140148 0.463499 0.008189976 0.460308 0.004999995 0.460308 0.143339 0.991329 0.008189976 0.99452 0.004999995 0.460308 0.004999995 0.506137 0.434428 0.518373 0.434428 0.518373 0.29609 0.547485 0.1510249 0.547485 0.685237 0.559721 0.685237 0.701086 0.403104 0.621912 0.403104 0.621912 0.4175 0.621912 0.403104 0.701086 0.403104 0.701086 0.388709 0.469751 0.150545 0.470951 0.150545 0.470951 0.229719 0.253088 0.72328 0.485333 0.72328 0.485333 0.751351 0.253088 0.72328 0.253088 0.722801 0.485333 0.722801 0.547485 0.738191 0.77973 0.738191 0.77973 0.736032 0.485333 0.751351 0.485333 0.751831 0.253088 0.751831 0.621912 0.451512 0.854157 0.451512 0.854157 0.423441 0.701996 0.101407 0.701996 0.100927 0.469751 0.100927 0.701996 0.101407 0.469751 0.101407 0.469751 0.103566 0.004999995 0.480047 0.004999995 0.004999995 0.208454 0.004999995 0.004999995 0.48629 0.53283 0.48629 0.53283 0.618248 0.601575 0.150545 0.601575 0.625592 0.587179 0.625592 0.601575 0.625592 0.601575 0.150545 0.61597 0.150545 0.01492398 0.644612 0.01492398 0.643413 0.489971 0.643413 0.666354 0.64623 0.587179 0.64623 0.587179 0.631835 0.587179 0.64623 0.666354 0.64623 0.666354 0.660626 0.461028 0.229719 0.459828 0.229719 0.459828 0.150545 0.485333 0.686894 0.253088 0.686894 0.253088 0.714965 0.485333 0.686894 0.485333 0.686414 0.253088 0.686414 0.469751 0.129549 0.701996 0.129549 0.701996 0.12739 0.253088 0.714965 0.253088 0.715445 0.485333 0.715445 0.547485 0.729371 0.77973 0.729371 0.77973 0.7013 0.01492398 0.738166 0.01492398 0.737686 0.247169 0.737686 0.01492398 0.738166 0.247169 0.738166 0.247169 0.740325 0.488379 0.236549 0.488379 0.468794 0.460307 0.468794 0.488379 0.236549 0.488858 0.236549 0.488858 0.468794 0.701996 0.12128 0.469751 0.12128 0.469751 0.11912 0.460307 0.468794 0.459828 0.468794 0.459828 0.236549 0.587179 0.694638 0.819425 0.694638 0.819425 0.666567 0.498373 0.38279 0.498853 0.38279 0.498853 0.150545 0.498373 0.38279 0.498373 0.150545 0.496214 0.150545 0.418502 0.480047 0.418502 0.004999995 0.215048 0.004999995</float_array>
          <technique_common>
            <accessor source="#Mesh4_Group2_Group1_Model-mesh-map-0-array" count="438" stride="2">
              <param name="S" type="float"/>
              <param name="T" type="float"/>
            </accessor>
          </technique_common>
        </source>
        <vertices id="Mesh4_Group2_Group1_Model-mesh-vertices">
          <input semantic="POSITION" source="#Mesh4_Group2_Group1_Model-mesh-positions"/>
        </vertices>
        <polylist material="FrontColor-material" count="146">
          <input semantic="VERTEX" source="#Mesh4_Group2_Group1_Model-mesh-vertices" offset="0"/>
          <input semantic="NORMAL" source="#Mesh4_Group2_Group1_Model-mesh-normals" offset="1"/>
          <input semantic="TEXCOORD" source="#Mesh4_Group2_Group1_Model-mesh-map-0" offset="2" set="0"/>
          <vcount>3 3 3 3 3 3 3 3 3 3 3 3 3 3 3 3 3 3 3 3 3 3 3 3 3 3 3 3 3 3 3 3 3 3 3 3 3 3 3 3 3 3 3 3 3 3 3 3 3 3 3 3 3 3 3 3 3 3 3 3 3 3 3 3 3 3 3 3 3 3 3 3 3 3 3 3 3 3 3 3 3 3 3 3 3 3 3 3 3 3 3 3 3 3 3 3 3 3 3 3 3 3 3 3 3 3 3 3 3 3 3 3 3 3 3 3 3 3 3 3 3 3 3 3 3 3 3 3 3 3 3 3 3 3 3 3 3 3 3 3 3 3 3 3 3 3 </vcount>
          <p>1 0 0 3 0 1 0 0 2 2 1 3 5 1 4 4 2 5 5 3 6 7 3 7 4 3 8 9 4 9 11 4 10 8 4 11 13 5 12 15 5 13 12 5 14 17 4 15 19 4 16 16 4 17 17 6 18 21 6 19 18 7 20 21 8 21 23 8 22 22 8 23 25 9 24 23 9 25 24 10 26 25 5 27 27 5 28 26 5 29 19 11 30 29 11 31 16 11 32 29 0 33 31 0 34 30 0 35 33 4 36 35 4 37 32 4 38 37 12 39 32 13 40 36 14 41 39 15 42 41 16 43 38 17 44 39 15 45 42 18 46 40 19 47 42 18 48 36 14 49 43 20 50 43 20 51 35 21 52 44 22 53 43 20 54 36 14 55 32 13 56 44 22 57 35 21 58 45 23 59 34 24 60 45 23 61 35 21 62 34 24 63 47 25 64 46 26 65 47 25 66 33 27 67 48 28 68 49 29 69 46 26 70 47 25 71 50 30 72 49 29 73 51 31 74 52 32 75 51 31 76 49 29 77 48 28 78 38 17 79 52 32 80 37 12 81 48 28 82 33 27 83 52 32 84 38 17 85 41 16 86 53 33 87 40 19 88 42 18 89 44 22 90 55 34 91 53 33 92 50 30 93 54 35 94 55 34 95 53 33 96 55 34 97 54 35 98 38 8 99 36 8 100 39 8 101 43 36 102 57 37 103 42 38 104 44 39 105 56 40 106 43 36 107 42 38 108 59 41 109 53 42 110 58 43 111 53 42 112 59 41 113 61 44 114 48 45 115 60 46 116 47 47 117 62 48 118 49 49 119 63 50 120 49 49 121 62 48 122 60 46 123 52 47 124 63 50 125 54 5 126 41 5 127 40 5 128 55 0 129 46 0 130 50 0 131 65 4 132 67 4 133 64 4 134 66 51 135 69 51 136 68 52 137 69 3 138 71 3 139 68 3 140 73 8 141 75 8 142 72 8 143 73 6 144 77 6 145 74 7 146 77 4 147 79 4 148 78 4 149 75 9 150 81 9 151 72 10 152 82 5 153 81 5 154 80 5 155 85 53 156 82 53 157 84 53 158 85 0 159 87 0 160 86 0 161 89 8 162 91 8 163 88 8 164 93 3 165 95 3 166 92 3 167 97 8 168 99 8 169 96 8 170 98 54 171 101 54 172 100 55 173 101 3 174 103 3 175 100 3 176 105 5 177 107 5 178 104 5 179 106 56 180 109 56 181 108 57 182 109 3 183 111 3 184 108 3 185 113 0 186 115 0 187 112 0 188 113 58 189 117 58 190 114 59 191 117 5 192 119 5 193 118 5 194 115 60 195 121 60 196 112 61 197 122 4 198 121 4 199 120 4 200 125 62 201 122 62 202 124 62 203 125 8 204 127 8 205 126 8 206 129 5 207 131 5 208 128 5 209 129 63 210 133 63 211 130 63 212 133 8 213 135 8 214 134 8 215 131 58 216 137 58 217 128 59 218 138 0 219 137 0 220 136 0 221 141 60 222 138 60 223 140 61 224 141 4 225 143 4 226 142 4 227 145 0 228 147 0 229 144 0 230 1 0 231 2 0 232 3 0 233 2 1 234 1 2 235 5 1 236 5 3 237 6 3 238 7 3 239 9 4 240 10 4 241 11 4 242 13 5 243 14 5 244 15 5 245 17 4 246 18 4 247 19 4 248 17 6 249 20 7 250 21 6 251 21 8 252 20 8 253 23 8 254 25 9 255 22 10 256 23 9 257 25 5 258 24 5 259 27 5 260 19 11 261 28 11 262 29 11 263 29 0 264 28 0 265 31 0 266 33 4 267 34 4 268 35 4 269 37 12 270 33 27 271 32 13 272 39 15 273 40 19 274 41 16 275 42 18 276 39 15 277 36 14 278 43 20 279 32 13 280 35 21 281 34 24 282 46 26 283 45 23 284 47 25 285 34 24 286 33 27 287 49 29 288 50 30 289 46 26 290 52 32 291 41 16 292 51 31 293 48 28 294 37 12 295 38 17 296 53 33 297 54 35 298 40 19 299 44 22 300 45 23 301 55 34 302 50 30 303 51 31 304 54 35 305 38 8 306 37 8 307 36 8 308 43 36 309 56 40 310 57 37 311 44 39 312 58 43 313 56 40 314 42 38 315 57 37 316 59 41 317 58 43 318 44 39 319 53 42 320 61 44 321 47 47 322 48 45 323 47 47 324 61 44 325 62 48 326 63 50 327 52 47 328 49 49 329 60 46 330 48 45 331 52 47 332 54 5 333 51 5 334 41 5 335 55 0 336 45 0 337 46 0 338 65 4 339 66 4 340 67 4 341 66 51 342 65 52 343 69 51 344 69 3 345 70 3 346 71 3 347 73 8 348 74 8 349 75 8 350 73 6 351 76 7 352 77 6 353 77 4 354 76 4 355 79 4 356 75 9 357 80 10 358 81 9 359 82 5 360 83 5 361 81 5 362 85 53 363 83 53 364 82 53 365 85 0 366 84 0 367 87 0 368 89 8 369 90 8 370 91 8 371 93 3 372 94 3 373 95 3 374 97 8 375 98 8 376 99 8 377 98 54 378 97 55 379 101 54 380 101 3 381 102 3 382 103 3 383 105 5 384 106 5 385 107 5 386 106 56 387 105 57 388 109 56 389 109 3 390 110 3 391 111 3 392 113 0 393 114 0 394 115 0 395 113 58 396 116 59 397 117 58 398 117 5 399 116 5 400 119 5 401 115 60 402 120 61 403 121 60 404 122 4 405 123 4 406 121 4 407 125 62 408 123 62 409 122 62 410 125 8 411 124 8 412 127 8 413 129 5 414 130 5 415 131 5 416 129 63 417 132 63 418 133 63 419 133 8 420 132 8 421 135 8 422 131 58 423 136 59 424 137 58 425 138 0 426 139 0 427 137 0 428 141 60 429 139 61 430 138 60 431 141 4 432 140 4 433 143 4 434 145 0 435 146 0 436 147 0 437</p>
        </polylist>
      </mesh>
    </geometry>
  </library_geometries>
  <library_controllers/>
  <library_visual_scenes>
    <visual_scene id="Scene" name="Scene">
      <node id="Mesh4_Group2_Group1_Model" name="Mesh4_Group2_Group1_Model" type="NODE">
        <matrix sid="transform">1 0 0 0 0 -1.62921e-7 -1 0 0 1 -1.62921e-7 0 0 0 0 1</matrix>
        <instance_geometry url="#Mesh4_Group2_Group1_Model-mesh" name="Mesh4_Group2_Group1_Model">
          <bind_material>
            <technique_common>
              <instance_material symbol="FrontColor-material" target="#FrontColor-material">
                <bind_vertex_input semantic="UVMap" input_semantic="TEXCOORD" input_set="0"/>
              </instance_material>
            </technique_common>
          </bind_material>
        </instance_geometry>
      </node>
    </visual_scene>
  </library_visual_scenes>
  <scene>
    <instance_visual_scene url="#Scene"/>
  </scene>
</COLLADA>