<?xml version="1.0" encoding="utf-8"?>
<COLLADA xmlns="http://www.collada.org/2005/11/COLLADASchema" version="1.4.1">
  <asset>
    <contributor>
      <author>Blender User</author>
      <authoring_tool>Blender 2.78.0 commit date:2016-10-24, commit time:12:20, hash:e8299c8</authoring_tool>
    </contributor>
    <created>2021-10-29T22:11:37</created>
    <modified>2021-10-29T22:11:37</modified>
    <unit name="meter" meter="1"/>
    <up_axis>Z_UP</up_axis>
  </asset>
  <library_images>
    <image id="video_store_poster_02__color_png" name="video_store_poster_02__color_png">
      <init_from>/I:/3D_Asset_Packages/For%20Sale/Video_Store/Poster_02/Model/video_store_poster_02__color.png</init_from>
    </image>
  </library_images>
  <library_effects>
    <effect id="FrontColor-effect">
      <profile_COMMON>
        <newparam sid="video_store_poster_02__color_png-surface">
          <surface type="2D">
            <init_from>video_store_poster_02__color_png</init_from>
          </surface>
        </newparam>
        <newparam sid="video_store_poster_02__color_png-sampler">
          <sampler2D>
            <source>video_store_poster_02__color_png-surface</source>
          </sampler2D>
        </newparam>
        <technique sid="common">
          <phong>
            <emission>
              <color sid="emission">0 0 0 1</color>
            </emission>
            <ambient>
              <color sid="ambient">0 0 0 1</color>
            </ambient>
            <diffuse>
              <texture texture="video_store_poster_02__color_png-sampler" texcoord="UVMap"/>
            </diffuse>
            <specular>
              <color sid="specular">1 1 1 1</color>
            </specular>
            <shininess>
              <float sid="shininess">52</float>
            </shininess>
            <transparent opaque="A_ONE">
              <color>1 1 1 1</color>
            </transparent>
            <index_of_refraction>
              <float sid="index_of_refraction">1</float>
            </index_of_refraction>
          </phong>
        </technique>
      </profile_COMMON>
    </effect>
  </library_effects>
  <library_materials>
    <material id="FrontColor-material" name="FrontColor">
      <instance_effect url="#FrontColor-effect"/>
    </material>
  </library_materials>
  <library_geometries>
    <geometry id="Mesh2_Group1_Model-mesh" name="Mesh2_Group1_Model">
      <mesh>
        <source id="Mesh2_Group1_Model-mesh-positions">
          <float_array id="Mesh2_Group1_Model-mesh-positions-array" count="144">-0.263426 0.461941 0.01816397 -0.29893 0.426438 0.01816397 -0.298043 0.461055 0.02606797 -0.228496 0.462514 0.01165497 -0.299502 0.391508 0.01165497 -0.193327 0.462848 0.006568968 -0.299837 0.356339 0.006568968 -0.1579779 0.463003 0.002922952 -0.299991 0.32099 0.002922952 -0.122509 0.463038 7.31e-4 -0.300026 0.285521 7.31e-4 -0.08698898 0.463021 0 -0.300009 0.250001 0 -0.26325 0.461765 0.018996 -0.228354 0.462373 0.01249998 -0.19322 0.462742 0.007423996 -0.157907 0.462932 0.003785967 -0.122473 0.463002 0.00159794 -0.08697998 0.463012 8.68e-4 -0.29785 0.460862 0.026892 0.3 0.463012 8.68e-4 0.3 0.463012 0 0.3 -0.436988 8.68e-4 0.3 -0.436988 0 -0.3 -0.436988 8.68e-4 -0.3 -0.436988 0 -0.3 0.249992 8.68e-4 -0.29999 0.285485 0.00159794 -0.29992 0.320919 0.003785967 -0.29973 0.356232 0.007423996 -0.299361 0.391366 0.01249998 -0.298754 0.426262 0.018996 -0.29785 0.460862 0.026892 -0.298754 0.426262 0.018996 -0.26325 0.461765 0.018996 -0.299361 0.391366 0.01249998 -0.228354 0.462373 0.01249998 -0.29973 0.356232 0.007423996 -0.19322 0.462742 0.007423996 -0.29992 0.320919 0.003785967 -0.157907 0.462932 0.003785967 -0.29999 0.285485 0.00159794 -0.122473 0.463002 0.00159794 -0.3 0.249992 8.68e-4 -0.08697998 0.463012 8.68e-4 0.3 -0.436988 8.68e-4 0.3 0.463012 8.68e-4 -0.3 -0.436988 8.68e-4</float_array>
          <technique_common>
            <accessor source="#Mesh2_Group1_Model-mesh-positions-array" count="48" stride="3">
              <param name="X" type="float"/>
              <param name="Y" type="float"/>
              <param name="Z" type="float"/>
            </accessor>
          </technique_common>
        </source>
        <source id="Mesh2_Group1_Model-mesh-normals">
          <float_array id="Mesh2_Group1_Model-mesh-normals-array" count="189">-0.2027884 0.2027927 -0.9579938 -0.2027967 0.2028038 -0.9579896 -0.222429 0.2224354 -0.9492354 -0.1630333 0.1630384 -0.9730563 -0.1227653 0.1227644 -0.9848135 -0.1227849 0.1227846 -0.9848085 -0.08209776 0.08209955 -0.993237 -0.08209007 0.08209317 -0.9932381 -0.04107981 0.04107826 -0.9983111 -0.04107344 0.0410732 -0.9983116 -0.02056145 0.02056145 -0.9995772 0.02140933 0.9790506 0.2024886 0.01364493 0.9865845 0.1626803 0.0214439 0.9790177 0.2026441 0.01352441 0.986689 0.1620553 0.007782816 0.9924556 0.1223583 0.007689177 0.9925331 0.1217331 0.003099501 0.9966406 0.08184152 0.00145322 0.9991405 0.04142808 0.003070533 0.9966405 0.08184385 -3.57899e-4 0.9999998 4.514e-4 0.001452445 0.9991436 0.04135483 0.02524369 0.974709 0.2220475 0.02530741 0.9746378 0.2223528 3.32786e-4 0.9997863 0.02067291 0 1 1.4833e-5 3.32691e-4 0.999786 0.02068817 1 0 0 0 -1 0 -0.9999464 2.74626e-5 0.01036459 -1 0 8.21713e-6 -1 0 0 -0.9991376 -0.001454412 0.04149967 -0.9999437 1.65115e-5 0.01061201 -0.9966462 -0.003098368 0.08177393 -0.9991405 -0.001453638 0.04142791 -0.9923914 -0.00783956 0.1228737 -0.996647 -0.003068208 0.08176481 -0.98669 -0.01352709 0.1620492 -0.992313 -0.007932841 0.123499 -0.9790703 -0.02140915 0.2023935 -0.9865871 -0.01364612 0.1626647 -0.9747081 -0.02520787 0.2220554 -0.9790377 -0.02144378 0.2025477 0.2224285 -0.2224348 0.9492357 0.20278 -0.2027872 0.9579967 0.2027974 -0.2028084 0.9579885 0.1630761 -0.1630772 0.9730427 0.1228095 -0.1228048 0.984803 0.1227844 -0.1227864 0.9848083 0.08211642 -0.0821163 0.9932341 0.04112488 -0.04112398 0.9983074 0.04113018 -0.04113024 0.9983069 0.01027464 -0.01027494 0.9998945 0.01027303 -0.01027292 0.9998946 0 0 1 -0.1630483 0.1630477 -0.9730523 -0.02056133 0.02056133 -0.9995772 -3.77597e-4 1 5.74265e-5 0 1 0 -0.9746366 -0.02527141 0.2223623 0.1630613 -0.1630653 0.9730471 0.08209031 -0.08209079 0.9932383</float_array>
          <technique_common>
            <accessor source="#Mesh2_Group1_Model-mesh-normals-array" count="63" stride="3">
              <param name="X" type="float"/>
              <param name="Y" type="float"/>
              <param name="Z" type="float"/>
            </accessor>
          </technique_common>
        </source>
        <source id="Mesh2_Group1_Model-mesh-map-0">
          <float_array id="Mesh2_Group1_Model-mesh-map-0-array" count="342">0.830323 0.650002 0.867655 0.687333 0.866723 0.650933 0.830323 0.650002 0.868257 0.724062 0.867655 0.687333 0.868257 0.724062 0.756614 0.649048 0.868609 0.761043 0.756614 0.649048 0.868771 0.798212 0.868609 0.761043 0.719444 0.648885 0.868808 0.835508 0.868771 0.798212 0.682148 0.648848 0.86879 0.872857 0.868808 0.835508 0.672872 0.04765897 0.665153 0.084203 0.671997 0.04747396 0.666041 0.08435195 0.659805 0.121183 0.665153 0.084203 0.660704 0.121296 0.655971 0.158353 0.659805 0.121183 0.654578 0.195686 0.655971 0.158353 0.656879 0.158427 0.654578 0.195686 0.652898 0.232998 0.653666 0.195649 0.672872 0.04765897 0.680308 0.01107394 0.681175 0.01127696 0.65381 0.233007 0.652898 0.639918 0.652898 0.232998 0.004999995 0.959537 0.951353 0.958624 0.951353 0.959537 0.644799 0.635902 0.645712 0.004999995 0.644799 0.004999995 0.235032 0.994087 0.957394 0.995 0.957394 0.994087 0.197711 0.99332 0.235023 0.995 0.235032 0.994087 0.197711 0.99332 0.160377 0.991926 0.197673 0.994231 0.1233209 0.987194 0.160377 0.991926 0.160452 0.991019 0.08637696 0.981856 0.123208 0.988093 0.1233209 0.987194 0.04968398 0.975026 0.08622795 0.982745 0.08637696 0.981856 0.04968398 0.975026 0.01309895 0.967589 0.04949897 0.9759 0.007260978 0.949092 0.006309986 0.91271 0.04364299 0.950042 0.005671977 0.876017 0.04364299 0.950042 0.006309986 0.91271 0.117279 0.951069 0.005671977 0.876017 0.005283951 0.839073 0.005083978 0.801941 0.117279 0.951069 0.005283951 0.839073 0.19167 0.951342 0.005083978 0.801941 0.005010962 0.764682 0.228991 0.951353 0.005010962 0.764682 0.004999995 0.727362 0.635902 0.951353 0.004999995 0.727362 0.635902 0.004999995 0.830323 0.650002 0.793594 0.649399 0.868257 0.724062 0.868257 0.724062 0.793594 0.649399 0.756614 0.649048 0.756614 0.649048 0.719444 0.648885 0.868771 0.798212 0.719444 0.648885 0.682148 0.648848 0.868808 0.835508 0.682148 0.648848 0.644799 0.648866 0.86879 0.872857 0.672872 0.04765897 0.666041 0.08435195 0.665153 0.084203 0.666041 0.08435195 0.660704 0.121296 0.659805 0.121183 0.660704 0.121296 0.656879 0.158427 0.655971 0.158353 0.654578 0.195686 0.653666 0.195649 0.655971 0.158353 0.654578 0.195686 0.65381 0.233007 0.652898 0.232998 0.672872 0.04765897 0.671997 0.04747396 0.680308 0.01107394 0.65381 0.233007 0.65381 0.639918 0.652898 0.639918 0.004999995 0.959537 0.004999995 0.958624 0.951353 0.958624 0.644799 0.635902 0.645712 0.635902 0.645712 0.004999995 0.235032 0.994087 0.235023 0.995 0.957394 0.995 0.197711 0.99332 0.197673 0.994231 0.235023 0.995 0.197711 0.99332 0.160452 0.991019 0.160377 0.991926 0.1233209 0.987194 0.123208 0.988093 0.160377 0.991926 0.08637696 0.981856 0.08622795 0.982745 0.123208 0.988093 0.04968398 0.975026 0.04949897 0.9759 0.08622795 0.982745 0.04968398 0.975026 0.01330196 0.966723 0.01309895 0.967589 0.005671977 0.876017 0.08033597 0.950681 0.04364299 0.950042 0.117279 0.951069 0.08033597 0.950681 0.005671977 0.876017 0.005083978 0.801941 0.154411 0.951269 0.117279 0.951069 0.19167 0.951342 0.154411 0.951269 0.005083978 0.801941 0.228991 0.951353 0.19167 0.951342 0.005010962 0.764682 0.004999995 0.004999995 0.635902 0.004999995 0.004999995 0.727362 0.635902 0.951353 0.228991 0.951353 0.004999995 0.727362</float_array>
          <technique_common>
            <accessor source="#Mesh2_Group1_Model-mesh-map-0-array" count="171" stride="2">
              <param name="S" type="float"/>
              <param name="T" type="float"/>
            </accessor>
          </technique_common>
        </source>
        <vertices id="Mesh2_Group1_Model-mesh-vertices">
          <input semantic="POSITION" source="#Mesh2_Group1_Model-mesh-positions"/>
        </vertices>
        <polylist material="FrontColor-material" count="57">
          <input semantic="VERTEX" source="#Mesh2_Group1_Model-mesh-vertices" offset="0"/>
          <input semantic="NORMAL" source="#Mesh2_Group1_Model-mesh-normals" offset="1"/>
          <input semantic="TEXCOORD" source="#Mesh2_Group1_Model-mesh-map-0" offset="2" set="0"/>
          <vcount>3 3 3 3 3 3 3 3 3 3 3 3 3 3 3 3 3 3 3 3 3 3 3 3 3 3 3 3 3 3 3 3 3 3 3 3 3 3 3 3 3 3 3 3 3 3 3 3 3 3 3 3 3 3 3 3 3 </vcount>
          <p>0 0 0 1 1 1 2 2 2 0 0 3 4 3 4 1 1 5 4 3 6 5 4 7 6 5 8 5 4 9 8 6 10 6 5 11 7 7 12 10 8 13 8 6 14 9 9 15 12 10 16 10 8 17 13 11 18 3 12 19 0 13 20 14 14 21 5 15 22 3 12 23 15 16 24 7 17 25 5 15 26 17 18 27 7 17 28 16 19 29 17 18 30 11 20 31 9 21 32 13 11 33 2 22 34 19 23 35 18 24 36 21 25 37 11 26 38 22 27 39 21 27 40 20 27 41 24 28 42 23 28 43 22 28 44 26 29 45 25 30 46 24 31 47 27 32 48 12 33 49 26 29 50 27 32 51 8 34 52 10 35 53 29 36 54 8 34 55 28 37 56 30 38 57 6 39 58 29 36 59 31 40 60 4 41 61 30 38 62 31 40 63 2 42 64 1 43 65 32 44 66 33 45 67 34 46 68 35 47 69 34 46 70 33 45 71 38 48 72 35 47 73 37 49 74 39 50 75 38 48 76 37 49 77 42 51 78 39 50 79 41 52 80 44 53 81 41 52 82 43 54 83 46 55 84 43 54 85 45 55 86 0 0 87 3 56 88 4 3 89 4 3 90 3 56 91 5 4 92 5 4 93 7 7 94 8 6 95 7 7 96 9 9 97 10 8 98 9 9 99 11 57 100 12 10 101 13 11 102 14 14 103 3 12 104 14 14 105 15 16 106 5 15 107 15 16 108 16 19 109 7 17 110 17 18 111 9 21 112 7 17 113 17 18 114 18 58 115 11 20 116 13 11 117 0 13 118 2 22 119 18 24 120 20 59 121 21 25 122 22 27 123 23 27 124 21 27 125 24 28 126 25 28 127 23 28 128 26 29 129 12 33 130 25 30 131 27 32 132 10 35 133 12 33 134 27 32 135 28 37 136 8 34 137 29 36 138 6 39 139 8 34 140 30 38 141 4 41 142 6 39 143 31 40 144 1 43 145 4 41 146 31 40 147 19 60 148 2 42 149 35 47 150 36 61 151 34 46 152 38 48 153 36 61 154 35 47 155 39 50 156 40 62 157 38 48 158 42 51 159 40 62 160 39 50 161 44 53 162 42 51 163 41 52 164 47 55 165 45 55 166 43 54 167 46 55 168 44 53 169 43 54 170</p>
        </polylist>
      </mesh>
    </geometry>
  </library_geometries>
  <library_controllers/>
  <library_visual_scenes>
    <visual_scene id="Scene" name="Scene">
      <node id="Mesh2_Group1_Model" name="Mesh2_Group1_Model" type="NODE">
        <matrix sid="transform">1 0 0 0 0 -1.62921e-7 -1 0 0 1 -1.62921e-7 0 0 0 0 1</matrix>
        <instance_geometry url="#Mesh2_Group1_Model-mesh" name="Mesh2_Group1_Model">
          <bind_material>
            <technique_common>
              <instance_material symbol="FrontColor-material" target="#FrontColor-material">
                <bind_vertex_input semantic="UVMap" input_semantic="TEXCOORD" input_set="0"/>
              </instance_material>
            </technique_common>
          </bind_material>
        </instance_geometry>
      </node>
    </visual_scene>
  </library_visual_scenes>
  <scene>
    <instance_visual_scene url="#Scene"/>
  </scene>
</COLLADA>