<?xml version="1.0" encoding="utf-8"?>
<COLLADA xmlns="http://www.collada.org/2005/11/COLLADASchema" version="1.4.1">
  <asset>
    <contributor>
      <author>Blender User</author>
      <authoring_tool>Blender 2.78.0 commit date:2016-10-24, commit time:12:20, hash:e8299c8</authoring_tool>
    </contributor>
    <created>2021-10-29T18:25:33</created>
    <modified>2021-10-29T18:25:33</modified>
    <unit name="meter" meter="1"/>
    <up_axis>Z_UP</up_axis>
  </asset>
  <library_images>
    <image id="video_store_lables__color_png" name="video_store_lables__color_png">
      <init_from>/I:/3D_Asset_Packages/For%20Sale/Video_Store/Labels/Model/video_store_lables__color.png</init_from>
    </image>
  </library_images>
  <library_effects>
    <effect id="FrontColor-effect">
      <profile_COMMON>
        <newparam sid="video_store_lables__color_png-surface">
          <surface type="2D">
            <init_from>video_store_lables__color_png</init_from>
          </surface>
        </newparam>
        <newparam sid="video_store_lables__color_png-sampler">
          <sampler2D>
            <source>video_store_lables__color_png-surface</source>
          </sampler2D>
        </newparam>
        <technique sid="common">
          <phong>
            <emission>
              <color sid="emission">0 0 0 1</color>
            </emission>
            <ambient>
              <color sid="ambient">0 0 0 1</color>
            </ambient>
            <diffuse>
              <texture texture="video_store_lables__color_png-sampler" texcoord="UVMap"/>
            </diffuse>
            <specular>
              <color sid="specular">1 1 1 1</color>
            </specular>
            <shininess>
              <float sid="shininess">52</float>
            </shininess>
            <transparent opaque="A_ONE">
              <color>1 1 1 1</color>
            </transparent>
            <index_of_refraction>
              <float sid="index_of_refraction">1</float>
            </index_of_refraction>
          </phong>
        </technique>
      </profile_COMMON>
    </effect>
  </library_effects>
  <library_materials>
    <material id="FrontColor-material" name="FrontColor">
      <instance_effect url="#FrontColor-effect"/>
    </material>
  </library_materials>
  <library_geometries>
    <geometry id="Mesh7_Group11_Group10_Group1_Model-mesh" name="Mesh7_Group11_Group10_Group1_Model">
      <mesh>
        <source id="Mesh7_Group11_Group10_Group1_Model-mesh-positions">
          <float_array id="Mesh7_Group11_Group10_Group1_Model-mesh-positions-array" count="243">0.2 0.15 -0.002752959 0.2 0 -0.002752959 -0.2 0 -0.002752959 -0.2 0.15 -0.002752959 0.2 0.15 0.002246975 0.2 0 0.002246975 -0.2 0.15 0.002246975 -0.2 0 0.002246975 -0.2 0.14 0.002246975 0.06 0.02899998 -0.01175296 0.06 0.00583899 -0.01175296 0.05899995 0.007838964 -0.01275295 0.05899995 0.02899998 -0.01275295 0.06 0.000999987 -0.003752946 0.06 0.02899998 -0.003752946 0.05899995 0.02899998 -0.002752959 0.05899995 0.000999987 -0.002752959 0.05899995 0.02999997 -0.003752946 0.05899995 0.02999997 -0.01175296 -0.05899995 0.02899998 -0.01275295 -0.05899995 0.02999997 -0.01175296 0.05899995 0.006838977 -0.01375299 0.06 0.00583899 -0.02175295 0.05899995 0.006838977 -0.02175295 0.06 0.000999987 -0.02175295 0.05899995 0 -0.003752946 0.05899995 0 -0.02175295 -0.05899995 0.000999987 -0.002752959 -0.05899995 0 -0.003752946 -0.06 0.000999987 -0.003752946 -0.06 0.000999987 -0.02175295 -0.05899995 0 -0.02175295 -0.06 0.00583899 -0.01175296 -0.06 0.02899998 -0.01175296 -0.05899995 0.007838964 -0.01275295 -0.06 0.02899998 -0.003752946 -0.05899995 0.02999997 -0.003752946 -0.05899995 0.02899998 -0.002752959 -0.05899995 0.006838977 -0.01375299 -0.06 0.00583899 -0.02175295 -0.05899995 0.006838977 -0.02175295 0.05899995 0.00583899 -0.022753 -0.05899995 0.00583899 -0.022753 -0.05899995 0.000999987 -0.022753 0.05899995 0.000999987 -0.022753 -0.06 0.02899998 0.01124697 -0.06 0.00583899 0.01124697 -0.05899995 0.007838964 0.01224696 -0.05899995 0.02899998 0.01224696 -0.06 0.000999987 0.003246963 -0.06 0.02899998 0.003246963 -0.05899995 0.02899998 0.002246975 -0.05899995 0.000999987 0.002246975 -0.05899995 0.02999997 0.003246963 -0.05899995 0.02999997 0.01124697 0.05899995 0.02899998 0.01224696 0.05899995 0.02999997 0.01124697 -0.05899995 0.006838977 0.01324695 -0.06 0.00583899 0.02124696 -0.05899995 0.006838977 0.02124696 -0.06 0.000999987 0.02124696 -0.05899995 0 0.003246963 -0.05899995 0 0.02124696 0.05899995 0.000999987 0.002246975 0.05899995 0 0.003246963 0.06 0.000999987 0.003246963 0.06 0.000999987 0.02124696 0.05899995 0 0.02124696 0.06 0.00583899 0.01124697 0.06 0.02899998 0.01124697 0.05899995 0.007838964 0.01224696 0.06 0.02899998 0.003246963 0.05899995 0.02999997 0.003246963 0.05899995 0.02899998 0.002246975 0.05899995 0.006838977 0.01324695 0.06 0.00583899 0.02124696 0.05899995 0.006838977 0.02124696 -0.05899995 0.00583899 0.02224695 0.05899995 0.00583899 0.02224695 0.05899995 0.000999987 0.02224695 -0.05899995 0.000999987 0.02224695</float_array>
          <technique_common>
            <accessor source="#Mesh7_Group11_Group10_Group1_Model-mesh-positions-array" count="81" stride="3">
              <param name="X" type="float"/>
              <param name="Y" type="float"/>
              <param name="Z" type="float"/>
            </accessor>
          </technique_common>
        </source>
        <source id="Mesh7_Group11_Group10_Group1_Model-mesh-normals">
          <float_array id="Mesh7_Group11_Group10_Group1_Model-mesh-normals-array" count="261">0 0 -1 1 0 0 0 1 0 -1 0 0 0 -1 0 0 0 1 0.738276 0.4769419 -0.4769435 0.8374426 0.1569774 -0.5234959 0.4765139 0.4765106 -0.7388317 0.7385267 0.4767472 0.4767499 0.4767506 -0.4767485 0.7385253 0.738513 -0.4767591 0.4767593 0.4767877 0.7384787 0.4767839 0.4767364 0.4767346 0.7385436 0.476735 0.738545 -0.4767336 -0.4767339 0.4767367 -0.7385438 0.8517541 0.3704817 -0.370484 0.8373574 0.5236724 -0.156844 0.7384777 0.4767863 -0.4767869 0.47676 -0.7385142 -0.4767565 0.7384521 -0.4768054 -0.4768072 0.4767348 -0.7385457 0.4767328 -0.4767364 -0.4767346 0.7385435 -0.7385267 -0.4767476 0.4767497 -0.4767574 -0.738514 0.4767594 -0.7385125 -0.4767594 -0.4767598 -0.73852 0.476752 -0.4767555 -0.8374427 0.1569774 -0.5234959 -0.8517117 0.3705305 -0.3705327 -0.476788 0.738478 -0.4767846 -0.7384777 0.4767861 0.4767869 -0.4767318 0.7385457 0.4767359 -0.4767505 0.4767485 0.7385255 -0.8373574 0.5236723 -0.1568439 -0.7382199 0.4769859 -0.4769863 -0.4765089 0.7388337 -0.4765124 -0.4767338 0.4767377 -0.7385433 0.4767348 0.7385457 -0.4767329 0.4768079 0.476806 -0.7384513 -0.4768075 -0.4768062 -0.7384514 -0.4767343 -0.7385459 -0.4767329 0.4767363 -0.4767348 -0.7385435 0 0.7071069 -0.7071067 0 0.707107 -0.7071067 -1 -1.91737e-7 0 -1 -3.04456e-7 0 -0.7382755 0.4769427 0.4769434 -0.837443 0.1569775 0.5234953 -0.4765133 0.4765115 0.7388315 -0.7385268 0.4767472 -0.4767498 -0.4767506 -0.4767485 -0.7385254 -0.7385129 -0.4767592 -0.4767593 -0.4767876 0.7384786 -0.4767839 -0.4767364 0.4767345 -0.7385436 0.4767363 0.4767346 0.7385437 -0.8517329 0.3705067 0.3705076 -0.8373572 0.5236726 0.1568441 -0.7384784 0.4767859 0.4767861 -0.4767579 -0.7385139 0.4767591 -0.7384525 -0.4768049 0.4768071 -0.4767318 -0.7385458 -0.4767357 0.4767365 -0.4767346 -0.7385435 0.7385267 -0.4767476 -0.4767496 0.4767603 -0.738514 -0.4767564 0.7385135 -0.4767588 0.4767588 0.7385195 0.4767528 0.4767555 0.837443 0.1569776 0.5234954 0.8517118 0.3705311 0.370532 0.4767877 0.7384787 0.4767839 0.7384777 0.4767861 -0.4767868 0.4767346 0.7385457 -0.476733 0.4767505 0.4767485 -0.7385255 0.8373572 0.5236725 0.156844 0.7382199 0.4769858 0.4769863 0.4765093 0.7388336 0.4765123 0.4767366 0.4767345 0.7385435 -0.4767323 0.7385455 0.4767357 -0.4768058 0.4768088 0.7384509 0.4768087 -0.476806 0.7384508 0.4767352 -0.7385456 0.4767326 -0.4767336 -0.4767374 0.7385435 0 0.7071069 0.7071067 0 0.707107 0.7071067 1 1.91737e-7 0 1 3.04456e-7 0 -1 -2.31435e-7 0 1 2.31435e-7 0</float_array>
          <technique_common>
            <accessor source="#Mesh7_Group11_Group10_Group1_Model-mesh-normals-array" count="87" stride="3">
              <param name="X" type="float"/>
              <param name="Y" type="float"/>
              <param name="Z" type="float"/>
            </accessor>
          </technique_common>
        </source>
        <source id="Mesh7_Group11_Group10_Group1_Model-mesh-map-0">
          <float_array id="Mesh7_Group11_Group10_Group1_Model-mesh-map-0-array" count="876">0.185248 0.485662 0.004999995 0.004999995 0.004999995 0.485662 0.563729 0.659288 0.38348 0.665296 0.38348 0.659288 0.38348 0.004999995 0.389489 0.485662 0.38348 0.485662 0.752969 0.665296 0.584737 0.659288 0.57272 0.665296 0.403581 0.493715 0.397573 0.01305299 0.397573 0.493715 0.19424 0.004999995 0.206257 0.485662 0.374488 0.004999995 0.700176 0.730888 0.674747 0.729687 0.700176 0.729687 0.700176 0.740502 0.666529 0.741703 0.666529 0.740502 0.700176 0.740502 0.701377 0.740502 0.700176 0.741703 0.700176 0.730888 0.701377 0.740502 0.700176 0.740502 0.701377 0.730888 0.700176 0.730888 0.700176 0.729687 0.7427 0.55379 0.600905 0.552588 0.600905 0.55379 0.674747 0.729687 0.672344 0.730888 0.673546 0.728485 0.672344 0.718872 0.673546 0.728485 0.672344 0.730888 0.666529 0.740502 0.665327 0.718872 0.666529 0.718872 0.665327 0.740502 0.666529 0.740502 0.666529 0.741703 0.602107 0.590028 0.743902 0.588826 0.743902 0.590028 0.600905 0.590028 0.602107 0.588826 0.602107 0.590028 0.445374 0.816377 0.423744 0.815175 0.423744 0.816377 0.743902 0.55379 0.7427 0.579218 0.743902 0.581622 0.743902 0.55379 0.7427 0.552588 0.7427 0.55379 0.813851 0.03922396 0.804238 0.04042595 0.804238 0.03922396 0.602107 0.624876 0.600905 0.623674 0.602107 0.623674 0.600905 0.590028 0.602107 0.623674 0.600905 0.623674 0.743902 0.623674 0.602107 0.624876 0.602107 0.623674 0.817455 0.190214 0.816254 0.191415 0.815051 0.191415 0.805438 0.190214 0.815051 0.191415 0.805438 0.191415 0.804238 0.191415 0.805438 0.333211 0.804238 0.333211 0.753969 0.598892 0.752766 0.604707 0.753969 0.604707 0.805438 0.190214 0.805438 0.191415 0.804238 0.191415 0.445374 0.815175 0.445374 0.816377 0.446576 0.815175 0.446576 0.67338 0.445374 0.815175 0.446576 0.815175 0.666529 0.718872 0.665327 0.718872 0.666529 0.71767 0.666529 0.718872 0.672344 0.71767 0.672344 0.718872 0.673546 0.718872 0.672344 0.718872 0.672344 0.71767 0.700176 0.740502 0.672344 0.730888 0.700176 0.730888 0.672344 0.730888 0.666529 0.718872 0.672344 0.718872 0.7427 0.579218 0.600905 0.55379 0.600905 0.579218 0.816254 0.333211 0.815051 0.191415 0.816254 0.191415 0.549998 0.087026 0.544183 0.07500898 0.544183 0.087026 0.544183 0.07500898 0.516351 0.06539601 0.516351 0.07500898 0.813851 0.04042595 0.804238 0.1822209 0.804238 0.04042595 0.815051 0.191415 0.805438 0.333211 0.805438 0.191415 0.752766 0.598892 0.610971 0.604707 0.752766 0.604707 0.445374 0.815175 0.423744 0.67338 0.423744 0.815175 0.516351 0.01701694 0.541779 0.01581496 0.516351 0.01581496 0.743902 0.495407 0.7427 0.529054 0.743902 0.529054 0.743902 0.495407 0.7427 0.494206 0.7427 0.495407 0.507846 0.004999995 0.498232 0.006201982 0.498232 0.004999995 0.507846 0.006201982 0.507846 0.004999995 0.509047 0.006201982 0.509047 0.147997 0.507846 0.006201982 0.509047 0.006201982 0.447091 0.006201982 0.445889 0.004999995 0.448293 0.006201982 0.457906 0.004999995 0.448293 0.006201982 0.445889 0.004999995 0.490866 0.147997 0.469236 0.146795 0.469236 0.147997 0.7427 0.530255 0.743902 0.529054 0.7427 0.529054 0.600905 0.529054 0.7427 0.530255 0.7427 0.529054 0.455144 0.674582 0.453942 0.674582 0.455144 0.67338 0.455144 0.696211 0.453942 0.674582 0.455144 0.674582 0.488791 0.684195 0.463362 0.685397 0.460959 0.684195 0.488791 0.684195 0.489992 0.684195 0.488791 0.685397 0.488791 0.674582 0.489992 0.684195 0.488791 0.684195 0.489992 0.674582 0.488791 0.674582 0.488791 0.67338 0.455144 0.674582 0.488791 0.67338 0.488791 0.674582 0.7427 0.495407 0.600905 0.494206 0.600905 0.495407 0.460959 0.684195 0.463362 0.685397 0.46216 0.686598 0.460959 0.696211 0.46216 0.686598 0.46216 0.696211 0.459108 0.147997 0.457906 0.006201982 0.459108 0.006201982 0.460959 0.696211 0.455144 0.697413 0.455144 0.696211 0.460959 0.696211 0.46216 0.696211 0.460959 0.697413 0.453942 0.696211 0.455144 0.696211 0.455144 0.697413 0.468034 0.146795 0.469236 0.004999995 0.468034 0.004999995 0.469236 0.147997 0.469236 0.146795 0.468034 0.146795 0.445889 0.155989 0.447091 0.161804 0.445889 0.161804 0.457906 0.006201982 0.457906 0.004999995 0.459108 0.006201982 0.516351 0.02662998 0.544183 0.01701694 0.516351 0.01701694 0.544183 0.01701694 0.549998 0.004999995 0.544183 0.004999995 0.437093 0.021106 0.411665 0.162901 0.437093 0.162901 0.447091 0.006201982 0.448293 0.147997 0.447091 0.147997 0.455144 0.696211 0.460959 0.684195 0.460959 0.696211 0.460959 0.684195 0.488791 0.674582 0.488791 0.684195 0.498232 0.147997 0.507846 0.006201982 0.507846 0.147997 0.448293 0.147997 0.457906 0.006201982 0.457906 0.147997 0.588886 0.161804 0.447091 0.155989 0.588886 0.155989 0.469236 0.004999995 0.490866 0.146795 0.490866 0.004999995 0.185248 0.485662 0.185248 0.004999995 0.004999995 0.004999995 0.563729 0.659288 0.563729 0.665296 0.38348 0.665296 0.38348 0.004999995 0.389489 0.004999995 0.389489 0.485662 0.57272 0.659288 0.57272 0.665296 0.584737 0.659288 0.752969 0.665296 0.752969 0.659288 0.584737 0.659288 0.403581 0.493715 0.403581 0.01305299 0.397573 0.01305299 0.374488 0.485662 0.374488 0.004999995 0.206257 0.485662 0.19424 0.004999995 0.19424 0.485662 0.206257 0.485662 0.700176 0.730888 0.672344 0.730888 0.674747 0.729687 0.700176 0.740502 0.700176 0.741703 0.666529 0.741703 0.700176 0.730888 0.701377 0.730888 0.701377 0.740502 0.7427 0.55379 0.7427 0.552588 0.600905 0.552588 0.672344 0.718872 0.673546 0.718872 0.673546 0.728485 0.666529 0.740502 0.665327 0.740502 0.665327 0.718872 0.602107 0.590028 0.602107 0.588826 0.743902 0.588826 0.445374 0.816377 0.445374 0.815175 0.423744 0.815175 0.743902 0.55379 0.7427 0.55379 0.7427 0.579218 0.813851 0.03922396 0.813851 0.04042595 0.804238 0.04042595 0.600905 0.590028 0.602107 0.590028 0.602107 0.623674 0.743902 0.623674 0.743902 0.624876 0.602107 0.624876 0.805438 0.190214 0.817455 0.190214 0.815051 0.191415 0.804238 0.191415 0.805438 0.191415 0.805438 0.333211 0.753969 0.598892 0.752766 0.598892 0.752766 0.604707 0.446576 0.67338 0.445374 0.67338 0.445374 0.815175 0.666529 0.718872 0.666529 0.71767 0.672344 0.71767 0.700176 0.740502 0.666529 0.740502 0.672344 0.730888 0.672344 0.730888 0.666529 0.740502 0.666529 0.718872 0.7427 0.579218 0.7427 0.55379 0.600905 0.55379 0.816254 0.333211 0.815051 0.333211 0.815051 0.191415 0.549998 0.087026 0.549998 0.06539601 0.544183 0.07500898 0.544183 0.07500898 0.549998 0.06539601 0.516351 0.06539601 0.813851 0.04042595 0.813851 0.1822209 0.804238 0.1822209 0.815051 0.191415 0.815051 0.333211 0.805438 0.333211 0.752766 0.598892 0.610971 0.598892 0.610971 0.604707 0.445374 0.815175 0.445374 0.67338 0.423744 0.67338 0.516351 0.01701694 0.544183 0.01701694 0.541779 0.01581496 0.743902 0.495407 0.7427 0.495407 0.7427 0.529054 0.507846 0.004999995 0.507846 0.006201982 0.498232 0.006201982 0.509047 0.147997 0.507846 0.147997 0.507846 0.006201982 0.457906 0.004999995 0.457906 0.006201982 0.448293 0.006201982 0.490866 0.147997 0.490866 0.146795 0.469236 0.146795 0.600905 0.529054 0.600905 0.530255 0.7427 0.530255 0.455144 0.696211 0.453942 0.696211 0.453942 0.674582 0.488791 0.684195 0.488791 0.685397 0.463362 0.685397 0.488791 0.674582 0.489992 0.674582 0.489992 0.684195 0.455144 0.674582 0.455144 0.67338 0.488791 0.67338 0.7427 0.495407 0.7427 0.494206 0.600905 0.494206 0.460959 0.696211 0.460959 0.684195 0.46216 0.686598 0.459108 0.147997 0.457906 0.147997 0.457906 0.006201982 0.460959 0.696211 0.460959 0.697413 0.455144 0.697413 0.468034 0.146795 0.469236 0.146795 0.469236 0.004999995 0.445889 0.155989 0.447091 0.155989 0.447091 0.161804 0.516351 0.02662998 0.549998 0.02662998 0.544183 0.01701694 0.544183 0.01701694 0.549998 0.02662998 0.549998 0.004999995 0.437093 0.021106 0.411665 0.021106 0.411665 0.162901 0.447091 0.006201982 0.448293 0.006201982 0.448293 0.147997 0.455144 0.696211 0.455144 0.674582 0.460959 0.684195 0.460959 0.684195 0.455144 0.674582 0.488791 0.674582 0.498232 0.147997 0.498232 0.006201982 0.507846 0.006201982 0.448293 0.147997 0.448293 0.006201982 0.457906 0.006201982 0.588886 0.161804 0.447091 0.161804 0.447091 0.155989 0.469236 0.004999995 0.469236 0.146795 0.490866 0.146795</float_array>
          <technique_common>
            <accessor source="#Mesh7_Group11_Group10_Group1_Model-mesh-map-0-array" count="438" stride="2">
              <param name="S" type="float"/>
              <param name="T" type="float"/>
            </accessor>
          </technique_common>
        </source>
        <vertices id="Mesh7_Group11_Group10_Group1_Model-mesh-vertices">
          <input semantic="POSITION" source="#Mesh7_Group11_Group10_Group1_Model-mesh-positions"/>
        </vertices>
        <polylist material="FrontColor-material" count="146">
          <input semantic="VERTEX" source="#Mesh7_Group11_Group10_Group1_Model-mesh-vertices" offset="0"/>
          <input semantic="NORMAL" source="#Mesh7_Group11_Group10_Group1_Model-mesh-normals" offset="1"/>
          <input semantic="TEXCOORD" source="#Mesh7_Group11_Group10_Group1_Model-mesh-map-0" offset="2" set="0"/>
          <vcount>3 3 3 3 3 3 3 3 3 3 3 3 3 3 3 3 3 3 3 3 3 3 3 3 3 3 3 3 3 3 3 3 3 3 3 3 3 3 3 3 3 3 3 3 3 3 3 3 3 3 3 3 3 3 3 3 3 3 3 3 3 3 3 3 3 3 3 3 3 3 3 3 3 3 3 3 3 3 3 3 3 3 3 3 3 3 3 3 3 3 3 3 3 3 3 3 3 3 3 3 3 3 3 3 3 3 3 3 3 3 3 3 3 3 3 3 3 3 3 3 3 3 3 3 3 3 3 3 3 3 3 3 3 3 3 3 3 3 3 3 3 3 3 3 3 3 </vcount>
          <p>1 0 0 3 0 1 0 0 2 0 1 3 5 1 4 1 1 5 3 2 6 4 2 7 0 2 8 2 3 9 8 3 10 3 3 11 2 4 12 5 4 13 7 4 14 4 5 15 8 5 16 5 5 17 9 6 18 11 7 19 12 8 20 14 9 21 16 10 22 13 11 23 14 9 24 17 12 25 15 13 26 9 6 27 17 12 28 14 9 29 18 14 30 9 6 31 12 8 32 19 15 33 18 14 34 12 8 35 11 7 36 10 16 37 21 17 38 22 18 39 21 17 40 10 16 41 13 11 42 26 19 43 24 20 44 25 21 45 13 11 46 16 10 47 27 22 48 25 21 49 16 10 50 29 23 51 28 24 52 27 22 53 30 25 54 28 24 55 29 23 56 33 26 57 34 27 58 32 28 59 33 26 60 20 29 61 19 15 62 35 30 63 20 29 64 33 26 65 36 31 66 35 30 67 37 32 68 29 23 69 37 32 70 35 30 71 15 13 72 36 31 73 37 32 74 32 28 75 34 27 76 38 33 77 39 34 78 38 33 79 40 35 80 42 36 81 23 37 82 41 38 83 39 34 84 43 39 85 30 25 86 39 34 87 40 35 88 42 36 89 31 40 90 30 25 91 43 39 92 44 41 93 31 40 94 43 39 95 24 20 96 26 19 97 44 41 98 24 20 99 41 38 100 22 18 101 23 37 102 22 18 103 41 38 104 14 1 105 10 1 106 9 1 107 10 1 108 24 1 109 22 1 110 34 0 111 12 0 112 11 0 113 11 42 114 38 42 115 34 43 116 30 44 117 32 45 118 39 3 119 32 45 120 35 3 121 33 3 122 36 2 123 18 2 124 20 2 125 38 2 126 23 2 127 40 2 128 42 0 129 44 0 130 43 0 131 31 4 132 25 4 133 28 4 134 45 46 135 47 47 136 48 48 137 50 49 138 52 50 139 49 51 140 50 49 141 53 52 142 51 53 143 45 46 144 53 52 145 50 49 146 54 31 147 45 46 148 48 48 149 55 54 150 54 31 151 48 48 152 47 47 153 46 55 154 57 56 155 58 57 156 57 56 157 46 55 158 49 51 159 62 58 160 60 59 161 61 60 162 49 51 163 52 50 164 63 61 165 61 60 166 52 50 167 65 62 168 64 63 169 63 61 170 66 64 171 64 63 172 65 62 173 69 65 174 70 66 175 68 67 176 69 65 177 56 68 178 55 54 179 71 69 180 56 68 181 69 65 182 72 70 183 71 69 184 73 71 185 65 62 186 73 71 187 71 69 188 51 53 189 72 70 190 73 71 191 68 67 192 70 66 193 74 72 194 75 73 195 74 72 196 76 74 197 78 75 198 59 76 199 77 77 200 75 73 201 79 78 202 66 64 203 75 73 204 76 74 205 78 75 206 67 79 207 66 64 208 79 78 209 80 80 210 67 79 211 79 78 212 60 59 213 62 58 214 80 80 215 60 59 216 77 77 217 58 57 218 59 76 219 58 57 220 77 77 221 50 3 222 46 3 223 45 3 224 46 3 225 60 3 226 58 3 227 70 5 228 48 5 229 47 5 230 47 81 231 74 81 232 70 82 233 66 83 234 68 84 235 75 1 236 68 84 237 71 1 238 69 1 239 72 2 240 54 2 241 56 2 242 74 2 243 59 2 244 76 2 245 78 5 246 80 5 247 79 5 248 67 4 249 61 4 250 64 4 251 1 0 252 2 0 253 3 0 254 0 1 255 4 1 256 5 1 257 3 2 258 6 2 259 4 2 260 6 3 261 3 3 262 8 3 263 2 3 264 7 3 265 8 3 266 2 4 267 1 4 268 5 4 269 7 5 270 5 5 271 8 5 272 4 5 273 6 5 274 8 5 275 9 6 276 10 16 277 11 7 278 14 9 279 15 13 280 16 10 281 9 6 282 18 14 283 17 12 284 19 15 285 20 29 286 18 14 287 22 18 288 23 37 289 21 17 290 13 11 291 25 21 292 26 19 293 27 22 294 28 24 295 25 21 296 30 25 297 31 40 298 28 24 299 33 26 300 19 15 301 34 27 302 35 30 303 36 31 304 20 29 305 29 23 306 27 22 307 37 32 308 15 13 309 17 12 310 36 31 311 39 34 312 32 28 313 38 33 314 42 36 315 40 35 316 23 37 317 39 34 318 42 36 319 43 39 320 44 41 321 26 19 322 31 40 323 24 20 324 44 41 325 41 38 326 14 1 327 13 1 328 10 1 329 10 1 330 13 1 331 24 1 332 34 0 333 19 0 334 12 0 335 11 42 336 21 43 337 38 42 338 30 44 339 29 85 340 32 45 341 32 45 342 29 85 343 35 3 344 36 2 345 17 2 346 18 2 347 38 2 348 21 2 349 23 2 350 42 0 351 41 0 352 44 0 353 31 4 354 26 4 355 25 4 356 45 46 357 46 55 358 47 47 359 50 49 360 51 53 361 52 50 362 45 46 363 54 31 364 53 52 365 55 54 366 56 68 367 54 31 368 58 57 369 59 76 370 57 56 371 49 51 372 61 60 373 62 58 374 63 61 375 64 63 376 61 60 377 66 64 378 67 79 379 64 63 380 69 65 381 55 54 382 70 66 383 71 69 384 72 70 385 56 68 386 65 62 387 63 61 388 73 71 389 51 53 390 53 52 391 72 70 392 75 73 393 68 67 394 74 72 395 78 75 396 76 74 397 59 76 398 75 73 399 78 75 400 79 78 401 80 80 402 62 58 403 67 79 404 60 59 405 80 80 406 77 77 407 50 3 408 49 3 409 46 3 410 46 3 411 49 3 412 60 3 413 70 5 414 55 5 415 48 5 416 47 81 417 57 82 418 74 81 419 66 83 420 65 86 421 68 84 422 68 84 423 65 86 424 71 1 425 72 2 426 53 2 427 54 2 428 74 2 429 57 2 430 59 2 431 78 5 432 77 5 433 80 5 434 67 4 435 62 4 436 61 4 437</p>
        </polylist>
      </mesh>
    </geometry>
  </library_geometries>
  <library_controllers/>
  <library_visual_scenes>
    <visual_scene id="Scene" name="Scene">
      <node id="Mesh7_Group11_Group10_Group1_Model" name="Mesh7_Group11_Group10_Group1_Model" type="NODE">
        <matrix sid="transform">1 0 0 0 0 -1.62921e-7 -1 0 0 1 -1.62921e-7 0 0 0 0 1</matrix>
        <instance_geometry url="#Mesh7_Group11_Group10_Group1_Model-mesh" name="Mesh7_Group11_Group10_Group1_Model">
          <bind_material>
            <technique_common>
              <instance_material symbol="FrontColor-material" target="#FrontColor-material">
                <bind_vertex_input semantic="UVMap" input_semantic="TEXCOORD" input_set="0"/>
              </instance_material>
            </technique_common>
          </bind_material>
        </instance_geometry>
      </node>
    </visual_scene>
  </library_visual_scenes>
  <scene>
    <instance_visual_scene url="#Scene"/>
  </scene>
</COLLADA>