<?xml version="1.0" encoding="utf-8"?>
<COLLADA xmlns="http://www.collada.org/2005/11/COLLADASchema" version="1.4.1">
  <asset>
    <contributor>
      <author>Blender User</author>
      <authoring_tool>Blender 2.78.0 commit date:2016-10-24, commit time:12:20, hash:e8299c8</authoring_tool>
    </contributor>
    <created>2021-10-31T10:37:18</created>
    <modified>2021-10-31T10:37:18</modified>
    <unit name="meter" meter="1"/>
    <up_axis>Z_UP</up_axis>
  </asset>
  <library_images>
    <image id="video_store_poster_03__color_png" name="video_store_poster_03__color_png">
      <init_from>/I:/3D_Asset_Packages/For%20Sale/Video_Store/Poster_03/Model/video_store_poster_03__color.png</init_from>
    </image>
  </library_images>
  <library_effects>
    <effect id="FrontColor-effect">
      <profile_COMMON>
        <newparam sid="video_store_poster_03__color_png-surface">
          <surface type="2D">
            <init_from>video_store_poster_03__color_png</init_from>
          </surface>
        </newparam>
        <newparam sid="video_store_poster_03__color_png-sampler">
          <sampler2D>
            <source>video_store_poster_03__color_png-surface</source>
          </sampler2D>
        </newparam>
        <technique sid="common">
          <phong>
            <emission>
              <color sid="emission">0 0 0 1</color>
            </emission>
            <ambient>
              <color sid="ambient">0 0 0 1</color>
            </ambient>
            <diffuse>
              <texture texture="video_store_poster_03__color_png-sampler" texcoord="UVMap"/>
            </diffuse>
            <specular>
              <color sid="specular">1 1 1 1</color>
            </specular>
            <shininess>
              <float sid="shininess">52</float>
            </shininess>
            <transparent opaque="A_ONE">
              <color>1 1 1 1</color>
            </transparent>
            <index_of_refraction>
              <float sid="index_of_refraction">1</float>
            </index_of_refraction>
          </phong>
        </technique>
      </profile_COMMON>
    </effect>
  </library_effects>
  <library_materials>
    <material id="FrontColor-material" name="FrontColor">
      <instance_effect url="#FrontColor-effect"/>
    </material>
  </library_materials>
  <library_geometries>
    <geometry id="Mesh2_Group4_Group1_Model-mesh" name="Mesh2_Group4_Group1_Model">
      <mesh>
        <source id="Mesh2_Group4_Group1_Model-mesh-positions">
          <float_array id="Mesh2_Group4_Group1_Model-mesh-positions-array" count="252">-0.2260839 0.451805 0.01269495 -0.256221 0.451094 0.01975899 -0.255648 0.45052 0.02188998 -0.195623 0.452191 0.007162988 -0.2256219 0.451342 0.01488 -0.1952739 0.451842 0.009388983 -0.164917 0.452334 0.00318998 -0.285276 0.4493 0.03038096 -0.285903 0.449927 0.02828299 -0.133931 0.452195 0.00307095 -0.103096 0.452209 0.002278983 -0.103126 0.452238 0 -0.134048 0.452312 7.97e-4 -0.1646839 0.4521 0.005445957 -0.28778 0.390109 0.01269495 -0.287069 0.420246 0.01975899 -0.288167 0.359647 0.007162988 -0.288309 0.328942 0.00318998 -0.288288 0.298072 7.97e-4 -0.288214 0.26715 0 -0.288184 0.267121 0.002278983 -0.288171 0.297955 0.00307095 -0.288076 0.328708 0.005445957 -0.287818 0.359298 0.009388983 -0.287318 0.389646 0.01488 -0.286496 0.419672 0.02188998 -0.288184 -0.447791 0.00227797 -0.288184 -0.447791 0 0.162397 -0.447791 0.00227797 0.16242 -0.447815 0 0.1872929 -0.447784 0.002790987 0.187387 -0.447878 5.15e-4 0.310308 -0.446283 0.02053195 0.286038 -0.446917 0.01499396 0.286501 -0.447379 0.01280999 0.310815 -0.44679 0.01836895 0.261561 -0.447343 0.01043695 0.261933 -0.447715 0.008218944 0.236917 -0.447602 0.006876945 0.237197 -0.447882 0.004631996 0.2121469 -0.447735 0.004324972 0.212334 -0.447922 0.002060949 0.311902 -0.323362 5.15e-4 0.311839 -0.298396 0 0.311947 -0.34831 0.002060949 0.311906 -0.373173 0.004631996 0.311739 -0.397909 0.008218944 0.311404 -0.422476 0.01280999 0.310941 -0.422014 0.01499396 0.311367 -0.397537 0.01043695 0.311626 -0.372893 0.006876945 0.31176 -0.348123 0.004324972 0.311809 -0.323269 0.002790987 0.311816 -0.298373 0.002278983 0.311816 0.452209 0.002278983 0.311816 0.452209 0 -0.255648 0.45052 0.02188998 -0.286496 0.419672 0.02188998 -0.287318 0.389646 0.01488 -0.2256219 0.451342 0.01488 -0.285276 0.4493 0.03038096 -0.287818 0.359298 0.009388983 -0.1952739 0.451842 0.009388983 -0.288076 0.328708 0.005445957 -0.1646839 0.4521 0.005445957 -0.288171 0.297955 0.00307095 -0.133931 0.452195 0.00307095 -0.288184 0.267121 0.002278983 -0.103096 0.452209 0.002278983 -0.288184 -0.447791 0.00227797 0.162397 -0.447791 0.00227797 0.311816 -0.298373 0.002278983 0.311816 0.452209 0.002278983 0.1872929 -0.447784 0.002790987 0.311809 -0.323269 0.002790987 0.2121469 -0.447735 0.004324972 0.31176 -0.348123 0.004324972 0.236917 -0.447602 0.006876945 0.311626 -0.372893 0.006876945 0.261561 -0.447343 0.01043695 0.311367 -0.397537 0.01043695 0.286038 -0.446917 0.01499396 0.310941 -0.422014 0.01499396 0.310308 -0.446283 0.02053195</float_array>
          <technique_common>
            <accessor source="#Mesh2_Group4_Group1_Model-mesh-positions-array" count="84" stride="3">
              <param name="X" type="float"/>
              <param name="Y" type="float"/>
              <param name="Z" type="float"/>
            </accessor>
          </technique_common>
        </source>
        <source id="Mesh2_Group4_Group1_Model-mesh-normals">
          <float_array id="Mesh2_Group4_Group1_Model-mesh-normals-array" count="366">0.02698928 0.9753881 0.2188373 0.03506934 0.967323 0.2511104 0.02994918 0.9718412 0.2337263 0.01696735 0.9854079 0.1693623 0.01879632 0.9823273 0.1862252 0.01047199 0.9906318 0.1361587 0.009543776 0.992823 0.1192128 0.03910374 0.960878 0.2741982 0.03934705 0.9605471 0.2753204 0.002206385 0.9987277 0.05038195 5.40567e-5 0.9998939 0.014566 0.004724323 0.997434 0.0714361 0.004788279 0.9963314 0.08544546 -0.2027841 0.2027832 -0.9579967 -0.2514729 0.2514728 -0.9346245 -0.2028042 0.2028048 -0.9579879 -0.1529917 0.1529912 -0.9763131 -0.1024442 0.1024454 -0.9894495 -0.1530238 0.1530244 -0.9763029 -0.05134576 0.05134695 -0.9973601 -0.1024849 0.102483 -0.9894413 -0.02569609 0.02569603 -0.9993396 -0.02569603 0.02569603 -0.9993396 -0.2514939 0.2514944 -0.9346131 -0.2753379 0.2753377 -0.9210745 -0.9975005 -0.004620194 0.07050764 -0.9999011 -6.84895e-5 0.01406711 -0.9999136 2.12698e-5 0.01315426 -0.996355 -0.00601679 0.08509254 -0.9986813 -0.00417608 0.05117011 -0.9928463 -0.008272349 0.1191129 -0.9906535 -0.01171594 0.1358982 -0.9854077 -0.01569914 0.1694855 -0.9823966 -0.01997286 0.1857371 -0.9754524 -0.02566248 0.2187098 -0.972078 -0.02973198 0.2327669 -0.9672224 -0.03326064 0.2517433 -0.9608853 -0.03910368 0.2741722 -1 0 2.68387e-5 -1 0 0 -8.69162e-4 -0.9997828 0.02082592 -1.70788e-7 -1 3.38076e-5 -8.66319e-4 -0.999783 0.02081185 -0.001874387 -0.999186 0.04029738 6.83513e-4 -0.9999979 0.001951515 -0.002156078 -0.9991 0.04236358 -0.02320671 -0.9791903 0.2016131 -0.02515316 -0.9748731 0.2213366 -0.02531397 -0.9746021 0.2225087 -0.0154007 -0.986326 0.1640851 -0.02344459 -0.9790768 0.2021362 -0.01479923 -0.9867115 0.1618068 -0.007591605 -0.992401 0.1228111 -0.006671607 -0.9966289 0.08177101 -0.007323026 -0.9923992 0.122843 -0.006836414 -0.9966295 0.08174955 0.04107815 -0.04107612 -0.9983113 0.02056747 -0.02056735 -0.9995769 0.04108273 -0.04108273 -0.9983108 0.08204865 -0.08204883 -0.9932452 0.08207076 -0.08207142 -0.9932416 0.1227528 -0.1227542 -0.9848163 0.1630342 -0.1630346 -0.9730569 0.1227633 -0.1227603 -0.9848143 0.2027819 -0.2027818 -0.9579974 0.2027962 -0.2027955 -0.9579915 0.2224168 -0.2224161 -0.9492428 0.9788324 0.02178567 0.2035006 0.9748679 0.02519625 0.2213543 0.9791995 0.02159488 0.2017476 0.9865416 0.01676362 0.1626489 0.9865437 0.01692748 0.1626192 0.9923979 0.007573664 0.1228379 0.9923956 0.007305383 0.122872 0.9965306 0.004967689 0.08307963 0.9967272 0.004989624 0.08068561 0.9991534 0.00370717 0.0409733 0.9991656 0.003840148 0.04066282 0.9999397 7.87012e-5 0.01098895 0.9999492 -2.16137e-5 0.0100854 1 0 1.94702e-5 1 0 0 6.96353e-5 0.99992 0.01265543 2.45268e-7 1 4.45747e-5 6.9878e-5 0.9999194 0.01269954 0.251482 -0.2514807 0.93462 0.2028341 -0.2028334 0.9579755 0.2514576 -0.2514604 0.934632 0.2753099 -0.2753104 0.921091 0.1530717 -0.1530759 0.9762873 0.2028132 -0.2028118 0.9579845 0.1025009 -0.1025027 0.9894376 0.1530946 -0.1530857 0.9762821 0.1025125 -0.102514 0.9894353 0.05140018 -0.05140048 0.9973545 0.05140888 -0.05140936 0.9973536 0.0128284 -0.01282906 0.9998354 0.01282405 -0.01282513 0.9998356 -0.01028186 0.01027619 0.9998943 -0.01027601 0.01027148 0.9998945 -0.04115408 0.04114276 0.9983054 -0.04111397 0.04111808 0.9983081 -0.08209735 0.08209645 0.9932373 -0.08207082 0.08207136 0.9932416 -0.1228084 0.1228097 0.9848024 -0.1630719 0.163067 0.9730452 -0.1630546 0.1630558 0.9730499 -0.202811 0.2028111 0.9579851 -0.2027963 0.2027966 0.9579913 -0.2224109 0.2224109 0.9492453 -1.27393e-4 0.9999188 0.01274961 -0.05138868 0.05138915 -0.9973557 -0.9605491 -0.03935128 0.2753127 0 -1 0 8.73999e-4 -0.9999996 2.97753e-4 0.02056658 -0.02056658 -0.9995769 0.1630487 -0.1630476 -0.9730522 0.974603 0.02535408 0.2225001 0 1 0 0 -1.39846e-6 1 0 0 1 -0.1227811 0.1227893 0.9848085</float_array>
          <technique_common>
            <accessor source="#Mesh2_Group4_Group1_Model-mesh-normals-array" count="122" stride="3">
              <param name="X" type="float"/>
              <param name="Y" type="float"/>
              <param name="Z" type="float"/>
            </accessor>
          </technique_common>
        </source>
        <source id="Mesh2_Group4_Group1_Model-mesh-map-0">
          <float_array id="Mesh2_Group4_Group1_Model-mesh-map-0-array" count="624">0.604941 0.06283599 0.611771 0.03369796 0.613832 0.03425198 0.599593 0.092287 0.604941 0.06283599 0.607054 0.06328296 0.613832 0.03425198 0.607054 0.06328296 0.604941 0.06283599 0.607054 0.06328296 0.601745 0.09262496 0.599593 0.092287 0.595751 0.121976 0.599593 0.092287 0.601745 0.09262496 0.613832 0.03425198 0.620013 0.004999995 0.622041 0.005605995 0.595636 0.151934 0.592667 0.181718 0.593438 0.151821 0.597933 0.122201 0.595636 0.151934 0.593438 0.151821 0.593438 0.151821 0.595751 0.121976 0.597933 0.122201 0.601745 0.09262496 0.597933 0.122201 0.595751 0.121976 0.782465 0.194712 0.751953 0.135748 0.722815 0.135061 0.693363 0.134688 0.782465 0.194712 0.722815 0.135061 0.693363 0.134688 0.782977 0.253851 0.78284 0.224164 0.633829 0.134571 0.782977 0.253851 0.663675 0.13455 0.782885 0.313595 0.633829 0.134571 0.603932 0.134642 0.781778 0.165574 0.780651 0.136877 0.751953 0.135748 0.273974 0.917599 0.303758 0.920568 0.303786 0.918365 0.244014 0.917484 0.273861 0.919798 0.273974 0.917599 0.273974 0.917599 0.24424 0.915303 0.244014 0.917484 0.214327 0.913643 0.244014 0.917484 0.24424 0.915303 0.24424 0.915303 0.214664 0.911491 0.214327 0.913643 0.184875 0.908294 0.214327 0.913643 0.214664 0.911491 0.214664 0.911491 0.185322 0.906182 0.184875 0.908294 0.155737 0.901464 0.184875 0.908294 0.185322 0.906182 0.185322 0.906182 0.156292 0.899404 0.155737 0.901464 0.156292 0.899404 0.127039 0.893223 0.155737 0.901464 0.303786 0.918365 0.995 0.920568 0.995 0.918366 0.619704 0.306211 0.621906 0.741856 0.621906 0.306189 0.619208 0.28214 0.621906 0.306189 0.621408 0.282049 0.607409 0.186668 0.604146 0.162713 0.602055 0.163203 0.607409 0.186668 0.61396 0.209974 0.609521 0.186221 0.611815 0.210334 0.617428 0.2338899 0.61396 0.209974 0.617724 0.25811 0.617428 0.2338899 0.615257 0.234161 0.617724 0.25811 0.621408 0.282049 0.619913 0.257929 0.750649 0.318505 0.630322 0.173978 0.630261 0.198116 0.726529 0.318547 0.630261 0.198116 0.630218 0.222237 0.630257 0.246276 0.726529 0.318547 0.630218 0.222237 0.630419 0.270192 0.70249 0.318509 0.630257 0.246276 0.65482 0.318022 0.630419 0.270192 0.630743 0.293945 0.630743 0.293945 0.631312 0.317453 0.65482 0.318022 0.02895498 0.896304 0.004999995 0.899567 0.02850794 0.894192 0.05261999 0.891898 0.02850794 0.894192 0.05226099 0.889753 0.05261999 0.891898 0.076177 0.886285 0.07644796 0.888456 0.100396 0.885988 0.076177 0.886285 0.100216 0.8838 0.124426 0.884505 0.100216 0.8838 0.124337 0.882305 0.124426 0.884505 0.148475 0.881807 0.148497 0.88401 0.148497 0.88401 0.874199 0.881807 0.874199 0.88401 0.594871 0.181747 0.592667 0.582906 0.592667 0.181718 0.00663197 0.843708 0.06548798 0.874329 0.03645795 0.873534 0.03645795 0.873534 0.00781095 0.872354 0.00663197 0.843708 0.005353987 0.785336 0.06548798 0.874329 0.005836963 0.814678 0.005103945 0.75576 0.09482997 0.874812 0.005353987 0.785336 0.124406 0.875062 0.005012989 0.726026 0.1541399 0.875153 0.1541399 0.875153 0.004999995 0.696214 0.183953 0.875167 0.440645 0.004999995 0.585111 0.149465 0.004999995 0.696214 0.585111 0.149465 0.464716 0.005006968 0.585105 0.125394 0.585105 0.125394 0.488746 0.005053997 0.585057 0.101364 0.488746 0.005053997 0.584927 0.07741498 0.585057 0.101364 0.584927 0.07741498 0.536522 0.005432963 0.584677 0.05358797 0.536522 0.005432963 0.584265 0.02992296 0.584677 0.05358797 0.560188 0.00584495 0.583653 0.006457984 0.584265 0.02992296 0.613832 0.03425198 0.611771 0.03369796 0.620013 0.004999995 0.595636 0.151934 0.594871 0.181747 0.592667 0.181718 0.782465 0.194712 0.781778 0.165574 0.751953 0.135748 0.693363 0.134688 0.78284 0.224164 0.782465 0.194712 0.693363 0.134688 0.663675 0.13455 0.782977 0.253851 0.633829 0.134571 0.782957 0.283698 0.782977 0.253851 0.782885 0.313595 0.782957 0.283698 0.633829 0.134571 0.273974 0.917599 0.273861 0.919798 0.303758 0.920568 0.156292 0.899404 0.127646 0.891194 0.127039 0.893223 0.303786 0.918365 0.303758 0.920568 0.995 0.920568 0.619704 0.306211 0.619704 0.741856 0.621906 0.741856 0.619208 0.28214 0.619704 0.306211 0.621906 0.306189 0.607409 0.186668 0.609521 0.186221 0.604146 0.162713 0.607409 0.186668 0.611815 0.210334 0.61396 0.209974 0.611815 0.210334 0.615257 0.234161 0.617428 0.2338899 0.617724 0.25811 0.619913 0.257929 0.617428 0.2338899 0.617724 0.25811 0.619208 0.28214 0.621408 0.282049 0.750649 0.318505 0.774788 0.318444 0.630322 0.173978 0.726529 0.318547 0.750649 0.318505 0.630261 0.198116 0.630257 0.246276 0.70249 0.318509 0.726529 0.318547 0.630419 0.270192 0.678574 0.318347 0.70249 0.318509 0.65482 0.318022 0.678574 0.318347 0.630419 0.270192 0.02895498 0.896304 0.005489945 0.901658 0.004999995 0.899567 0.05261999 0.891898 0.02895498 0.896304 0.02850794 0.894192 0.05261999 0.891898 0.05226099 0.889753 0.076177 0.886285 0.100396 0.885988 0.07644796 0.888456 0.076177 0.886285 0.124426 0.884505 0.100396 0.885988 0.100216 0.8838 0.124426 0.884505 0.124337 0.882305 0.148475 0.881807 0.148497 0.88401 0.148475 0.881807 0.874199 0.881807 0.594871 0.181747 0.594871 0.582906 0.592667 0.582906 0.00663197 0.843708 0.005836963 0.814678 0.06548798 0.874329 0.005353987 0.785336 0.09482997 0.874812 0.06548798 0.874329 0.005103945 0.75576 0.124406 0.875062 0.09482997 0.874812 0.124406 0.875062 0.005103945 0.75576 0.005012989 0.726026 0.1541399 0.875153 0.005012989 0.726026 0.004999995 0.696214 0.183953 0.875167 0.004999995 0.696214 0.585111 0.149465 0.004999995 0.004999995 0.440645 0.004999995 0.004999995 0.696214 0.585111 0.149465 0.585111 0.875167 0.183953 0.875167 0.585111 0.149465 0.440645 0.004999995 0.464716 0.005006968 0.585105 0.125394 0.464716 0.005006968 0.488746 0.005053997 0.488746 0.005053997 0.512695 0.005182981 0.584927 0.07741498 0.584927 0.07741498 0.512695 0.005182981 0.536522 0.005432963 0.536522 0.005432963 0.560188 0.00584495 0.584265 0.02992296</float_array>
          <technique_common>
            <accessor source="#Mesh2_Group4_Group1_Model-mesh-map-0-array" count="312" stride="2">
              <param name="S" type="float"/>
              <param name="T" type="float"/>
            </accessor>
          </technique_common>
        </source>
        <vertices id="Mesh2_Group4_Group1_Model-mesh-vertices">
          <input semantic="POSITION" source="#Mesh2_Group4_Group1_Model-mesh-positions"/>
        </vertices>
        <polylist material="FrontColor-material" count="104">
          <input semantic="VERTEX" source="#Mesh2_Group4_Group1_Model-mesh-vertices" offset="0"/>
          <input semantic="NORMAL" source="#Mesh2_Group4_Group1_Model-mesh-normals" offset="1"/>
          <input semantic="TEXCOORD" source="#Mesh2_Group4_Group1_Model-mesh-map-0" offset="2" set="0"/>
          <vcount>3 3 3 3 3 3 3 3 3 3 3 3 3 3 3 3 3 3 3 3 3 3 3 3 3 3 3 3 3 3 3 3 3 3 3 3 3 3 3 3 3 3 3 3 3 3 3 3 3 3 3 3 3 3 3 3 3 3 3 3 3 3 3 3 3 3 3 3 3 3 3 3 3 3 3 3 3 3 3 3 3 3 3 3 3 3 3 3 3 3 3 3 3 3 3 3 3 3 3 3 3 3 3 3 </vcount>
          <p>0 0 0 1 1 1 2 2 2 3 3 3 0 0 4 4 4 5 2 2 6 4 4 7 0 0 8 4 4 9 5 5 10 3 3 11 6 6 12 3 3 13 5 5 14 2 2 15 8 7 16 7 8 17 9 9 18 11 10 19 12 11 20 13 12 21 9 9 22 12 11 23 12 11 24 6 6 25 13 12 26 5 5 27 13 12 28 6 6 29 14 13 30 1 14 31 0 15 32 3 16 33 14 13 34 0 15 35 3 16 36 17 17 37 16 18 38 12 19 39 17 17 40 6 20 41 19 21 42 12 19 43 11 22 44 15 23 45 8 24 46 1 14 47 21 25 48 19 26 49 20 27 50 17 28 51 18 29 52 21 25 53 21 25 54 22 30 55 17 28 56 16 31 57 17 28 58 22 30 59 22 30 60 23 32 61 16 31 62 14 33 63 16 31 64 23 32 65 23 32 66 24 34 67 14 33 68 15 35 69 14 33 70 24 34 71 24 34 72 25 36 73 15 35 74 25 36 75 8 37 76 15 35 77 20 27 78 27 38 79 26 39 80 28 40 81 27 41 82 29 42 83 30 43 84 29 44 85 31 45 86 33 46 87 35 47 88 32 48 89 33 46 90 37 49 91 34 50 92 36 51 93 39 52 94 37 49 95 40 53 96 39 52 97 38 54 98 40 53 99 31 45 100 41 55 101 31 56 102 43 57 103 42 58 104 41 59 105 42 58 106 44 60 107 45 61 108 41 59 109 44 60 110 46 62 111 39 63 112 45 61 113 34 64 114 46 62 115 47 65 116 47 65 117 35 66 118 34 64 119 48 67 120 35 68 121 47 69 122 49 70 123 47 69 124 46 71 125 49 70 126 45 72 127 50 73 128 51 74 129 45 72 130 44 75 131 52 76 132 44 75 133 42 77 134 52 76 135 43 78 136 53 79 137 53 79 138 55 80 139 54 81 140 10 82 141 55 83 142 11 84 143 57 85 144 59 86 145 56 87 146 56 87 147 60 88 148 57 85 149 61 89 150 59 86 151 58 90 152 63 91 153 62 92 154 61 89 155 64 93 156 65 94 157 66 95 158 66 95 159 67 96 160 68 97 161 70 98 162 71 99 163 67 96 164 71 99 165 73 100 166 74 101 167 74 101 168 75 102 169 76 103 170 75 102 171 78 104 172 76 103 173 78 104 174 79 105 175 80 106 176 79 105 177 82 107 178 80 106 179 81 108 180 83 109 181 82 107 182 2 2 183 1 1 184 8 7 185 9 9 186 10 110 187 11 10 188 14 13 189 15 23 190 1 14 191 3 16 192 16 18 193 14 13 194 3 16 195 6 20 196 17 17 197 12 19 198 18 111 199 17 17 200 19 21 201 18 111 202 12 19 203 21 25 204 18 29 205 19 26 206 25 36 207 7 112 208 8 37 209 20 27 210 19 26 211 27 38 212 28 40 213 26 113 214 27 41 215 30 43 216 28 114 217 29 44 218 33 46 219 34 50 220 35 47 221 33 46 222 36 51 223 37 49 224 36 51 225 38 54 226 39 52 227 40 53 228 41 55 229 39 52 230 40 53 231 30 43 232 31 45 233 31 56 234 29 115 235 43 57 236 41 59 237 31 56 238 42 58 239 45 61 240 39 63 241 41 59 242 46 62 243 37 116 244 39 63 245 34 64 246 37 116 247 46 62 248 48 67 249 32 117 250 35 68 251 49 70 252 48 67 253 47 69 254 49 70 255 46 71 256 45 72 257 51 74 258 50 73 259 45 72 260 52 76 261 51 74 262 44 75 263 52 76 264 42 77 265 43 78 266 53 79 267 43 78 268 55 80 269 10 82 270 54 118 271 55 83 272 57 85 273 58 90 274 59 86 275 61 89 276 62 92 277 59 86 278 63 91 279 64 93 280 62 92 281 64 93 282 63 91 283 65 94 284 66 95 285 65 94 286 67 96 287 68 97 288 67 96 289 71 99 290 69 119 291 70 98 292 67 96 293 71 99 294 72 120 295 68 97 296 71 99 297 70 98 298 73 100 299 74 101 300 73 100 301 75 102 302 75 102 303 77 121 304 78 104 305 78 104 306 77 121 307 79 105 308 79 105 309 81 108 310 82 107 311</p>
        </polylist>
      </mesh>
    </geometry>
  </library_geometries>
  <library_controllers/>
  <library_visual_scenes>
    <visual_scene id="Scene" name="Scene">
      <node id="Mesh2_Group4_Group1_Model" name="Mesh2_Group4_Group1_Model" type="NODE">
        <matrix sid="transform">1 0 0 0 0 -1.62921e-7 -1 0 0 1 -1.62921e-7 0 0 0 0 1</matrix>
        <instance_geometry url="#Mesh2_Group4_Group1_Model-mesh" name="Mesh2_Group4_Group1_Model">
          <bind_material>
            <technique_common>
              <instance_material symbol="FrontColor-material" target="#FrontColor-material">
                <bind_vertex_input semantic="UVMap" input_semantic="TEXCOORD" input_set="0"/>
              </instance_material>
            </technique_common>
          </bind_material>
        </instance_geometry>
      </node>
    </visual_scene>
  </library_visual_scenes>
  <scene>
    <instance_visual_scene url="#Scene"/>
  </scene>
</COLLADA>