<?xml version="1.0" encoding="utf-8"?>
<COLLADA xmlns="http://www.collada.org/2005/11/COLLADASchema" version="1.4.1">
  <asset>
    <contributor>
      <author>Blender User</author>
      <authoring_tool>Blender 2.78.0 commit date:2016-10-24, commit time:12:20, hash:e8299c8</authoring_tool>
    </contributor>
    <created>2021-10-30T10:30:21</created>
    <modified>2021-10-30T10:30:21</modified>
    <unit name="meter" meter="1"/>
    <up_axis>Z_UP</up_axis>
  </asset>
  <library_images>
    <image id="video_store_neon_lights__color_png" name="video_store_neon_lights__color_png">
      <init_from>/I:/3D_Asset_Packages/For%20Sale/Video_Store/Neon_Lights/Model/video_store_neon_lights__color.png</init_from>
    </image>
  </library_images>
  <library_effects>
    <effect id="FrontColor-effect">
      <profile_COMMON>
        <newparam sid="video_store_neon_lights__color_png-surface">
          <surface type="2D">
            <init_from>video_store_neon_lights__color_png</init_from>
          </surface>
        </newparam>
        <newparam sid="video_store_neon_lights__color_png-sampler">
          <sampler2D>
            <source>video_store_neon_lights__color_png-surface</source>
          </sampler2D>
        </newparam>
        <technique sid="common">
          <phong>
            <emission>
              <color sid="emission">0 0 0 1</color>
            </emission>
            <ambient>
              <color sid="ambient">0 0 0 1</color>
            </ambient>
            <diffuse>
              <texture texture="video_store_neon_lights__color_png-sampler" texcoord="UVMap"/>
            </diffuse>
            <specular>
              <color sid="specular">1 1 1 1</color>
            </specular>
            <shininess>
              <float sid="shininess">52</float>
            </shininess>
            <transparent opaque="A_ONE">
              <color>1 1 1 1</color>
            </transparent>
            <index_of_refraction>
              <float sid="index_of_refraction">1</float>
            </index_of_refraction>
          </phong>
        </technique>
      </profile_COMMON>
    </effect>
  </library_effects>
  <library_materials>
    <material id="FrontColor-material" name="FrontColor">
      <instance_effect url="#FrontColor-effect"/>
    </material>
  </library_materials>
  <library_geometries>
    <geometry id="Mesh6_Group11_Group10_Group1_Model-mesh" name="Mesh6_Group11_Group10_Group1_Model">
      <mesh>
        <source id="Mesh6_Group11_Group10_Group1_Model-mesh-positions">
          <float_array id="Mesh6_Group11_Group10_Group1_Model-mesh-positions-array" count="624">0.851213 0.089491 0.05559998 0.896117 0.089491 0.05559998 0.896117 0.109236 0.0442 0.851213 0.109236 0.0442 0.851213 0.069745 0.0442 0.896117 0.069745 0.0442 0.851213 0.069745 0.02139997 0.896117 0.069745 0.02139997 0.851213 0.089491 0.00999999 0.896117 0.089491 0.00999999 0.851213 0.109236 0.02139997 0.896117 0.109236 0.02139997 0.851213 0.107307 0.02251398 0.851213 0.107307 0.04308599 0.851213 0.089491 0.01222795 0.851213 0.071675 0.02251398 0.851213 0.071675 0.04308599 0.851213 0.089491 0.05337196 0.896117 0.107307 0.04308599 0.896117 0.107307 0.02251398 0.896117 0.089491 0.05337196 0.896117 0.071675 0.04308599 0.896117 0.071675 0.02251398 0.896117 0.089491 0.01222795 -0.877548 0.08082997 0.00999999 -0.882548 0.089491 0.00999999 -0.882548 0.089491 0 -0.877548 0.08082997 0 -0.877548 0.08082997 0.01499998 -0.867548 0.08082997 0.01499998 -0.867548 0.08082997 0.00999999 -0.867548 0.08082997 0 -0.862548 0.089491 0.00999999 -0.862548 0.089491 0 -0.867548 0.09815096 0.00999999 -0.867548 0.09815096 0 -0.867548 0.09815096 0.01499998 -0.877548 0.09815096 0.00999999 -0.877548 0.09815096 0.01499998 -0.877548 0.09815096 0 0.851213 0 0.05559998 0.896117 0 0.05559998 0.896117 0.01974499 0.0442 0.851213 0.01974499 0.0442 0.851213 -0.01974499 0.0442 0.896117 -0.01974499 0.0442 0.851213 -0.01974499 0.02139997 0.896117 -0.01974499 0.02139997 0.851213 0 0.00999999 0.896117 0 0.00999999 0.851213 0.01974499 0.02139997 0.896117 0.01974499 0.02139997 0.851213 0.01781594 0.02251398 0.851213 0.01781594 0.04308599 0.851213 0 0.01222795 0.851213 -0.01781594 0.02251398 0.851213 -0.01781594 0.04308599 0.851213 0 0.05337196 0.896117 0.01781594 0.04308599 0.896117 0.01781594 0.02251398 0.896117 0 0.05337196 0.896117 -0.01781594 0.04308599 0.896117 -0.01781594 0.02251398 0.896117 0 0.01222795 -0.877548 -0.008659958 0.00999999 -0.882548 0 0.00999999 -0.882548 0 0 -0.877548 -0.008659958 0 -0.877548 -0.008659958 0.01499998 -0.867548 -0.008659958 0.01499998 -0.867548 -0.008659958 0.00999999 -0.867548 -0.008659958 0 -0.862548 0 0.00999999 -0.862548 0 0 -0.867548 0.008659958 0.00999999 -0.867548 0.008659958 0 -0.867548 0.008659958 0.01499998 -0.877548 0.008659958 0.00999999 -0.877548 0.008659958 0.01499998 -0.877548 0.008659958 0 -0.895 0 0.05559998 -0.850096 0 0.05559998 -0.850096 0.01974499 0.0442 -0.895 0.01974499 0.0442 -0.895 -0.01974499 0.0442 -0.850096 -0.01974499 0.0442 -0.895 -0.01974499 0.02139997 -0.850096 -0.01974499 0.02139997 -0.895 0 0.00999999 -0.850096 0 0.00999999 -0.895 0.01974499 0.02139997 -0.850096 0.01974499 0.02139997 -0.895 0.01781594 0.02251398 -0.895 0.01781594 0.04308599 -0.895 0 0.01222795 -0.895 -0.01781594 0.02251398 -0.895 -0.01781594 0.04308599 -0.895 0 0.05337196 -0.850096 0.01781594 0.04308599 -0.850096 0.01781594 0.02251398 -0.850096 0 0.05337196 -0.850096 -0.01781594 0.04308599 -0.850096 -0.01781594 0.02251398 -0.850096 0 0.01222795 0.868665 -0.008659958 0.00999999 0.863665 0 0.00999999 0.863665 0 0 0.868665 -0.008659958 0 0.868665 -0.008659958 0.01499998 0.878665 -0.008659958 0.01499998 0.878665 -0.008659958 0.00999999 0.878665 -0.008659958 0 0.883665 0 0.00999999 0.883665 0 0 0.878665 0.008659958 0.00999999 0.878665 0.008659958 0 0.878665 0.008659958 0.01499998 0.868665 0.008659958 0.00999999 0.868665 0.008659958 0.01499998 0.868665 0.008659958 0 -1 -0.01232099 0.03991299 -1 0 0.04702699 -1 0 0.01857399 -1 -0.01232099 0.02568697 -0.995 -0.01732099 0.04279994 -0.995 0 0.05279999 -0.995 -0.01732099 0.02279996 -0.995 0 0.01279997 -1 0.01231998 0.02568697 -0.995 0.01731997 0.02279996 -1 0.01231998 0.03991299 -0.995 0.01731997 0.04279994 0.995 0.01731997 0.04279994 0.995 0 0.05279999 0.995 0.01731997 0.02279996 0.995 0 0.01279997 0.995 -0.01732099 0.02279996 0.995 -0.01732099 0.04279994 1 -0.01232099 0.03991299 1 0 0.04702699 1 -0.01232099 0.02568697 1 0 0.01857399 1 0.01231998 0.02568697 1 0.01231998 0.03991299 -1 0.07716995 0.03991299 -1 0.089491 0.04702699 -1 0.089491 0.01857399 -1 0.07716995 0.02568697 -0.995 0.07216995 0.04279994 -0.995 0.089491 0.05279999 -0.995 0.07216995 0.02279996 -0.995 0.089491 0.01279997 -1 0.101811 0.02568697 -0.995 0.106811 0.02279996 -1 0.101811 0.03991299 -0.995 0.106811 0.04279994 0.995 0.106811 0.04279994 0.995 0.089491 0.05279999 0.995 0.106811 0.02279996 0.995 0.089491 0.01279997 0.995 0.07216995 0.02279996 0.995 0.07216995 0.04279994 1 0.07716995 0.03991299 1 0.089491 0.04702699 1 0.07716995 0.02568697 1 0.089491 0.01857399 1 0.101811 0.02568697 1 0.101811 0.03991299 -0.895 0.089491 0.05559998 -0.850096 0.089491 0.05559998 -0.850096 0.109236 0.0442 -0.895 0.109236 0.0442 -0.895 0.069745 0.0442 -0.850096 0.069745 0.0442 -0.895 0.069745 0.02139997 -0.850096 0.069745 0.02139997 -0.895 0.089491 0.00999999 -0.850096 0.089491 0.00999999 -0.895 0.109236 0.02139997 -0.850096 0.109236 0.02139997 -0.895 0.107307 0.02251398 -0.895 0.107307 0.04308599 -0.895 0.089491 0.01222795 -0.895 0.071675 0.02251398 -0.895 0.071675 0.04308599 -0.895 0.089491 0.05337196 -0.850096 0.107307 0.04308599 -0.850096 0.107307 0.02251398 -0.850096 0.089491 0.05337196 -0.850096 0.071675 0.04308599 -0.850096 0.071675 0.02251398 -0.850096 0.089491 0.01222795 0.868665 0.08082997 0.00999999 0.863665 0.089491 0.00999999 0.863665 0.089491 0 0.868665 0.08082997 0 0.868665 0.08082997 0.01499998 0.878665 0.08082997 0.01499998 0.878665 0.08082997 0.00999999 0.878665 0.08082997 0 0.883665 0.089491 0.00999999 0.883665 0.089491 0 0.878665 0.09815096 0.00999999 0.878665 0.09815096 0 0.878665 0.09815096 0.01499998 0.868665 0.09815096 0.00999999 0.868665 0.09815096 0.01499998 0.868665 0.09815096 0</float_array>
          <technique_common>
            <accessor source="#Mesh6_Group11_Group10_Group1_Model-mesh-positions-array" count="208" stride="3">
              <param name="X" type="float"/>
              <param name="Y" type="float"/>
              <param name="Z" type="float"/>
            </accessor>
          </technique_common>
        </source>
        <source id="Mesh6_Group11_Group10_Group1_Model-mesh-normals">
          <float_array id="Mesh6_Group11_Group10_Group1_Model-mesh-normals-array" count="591">0 1.07786e-5 1 0 0.8660276 0.4999964 0 1.05157e-5 1 0 -0.8660223 0.5000056 0 -0.866022 0.5000061 0 -0.866022 -0.5000061 0 1.07567e-5 -1 0 1.09539e-5 -1 0 0.8660274 -0.4999966 0 0.8660275 -0.4999963 0 0.866028 0.4999957 -1 -7.84841e-7 0 -1 -1.39422e-5 0 -1 -1.52293e-5 0 -1 -1.83941e-5 0 -1 0 0 -1 -1.56211e-5 0 -1 1.92737e-5 0 -1 7.84723e-6 0 -1 2.11661e-5 0 -1 -7.37819e-6 0 -1 6.33472e-6 0 -1 -7.60254e-6 0 1 -2.41707e-5 0 1 -3.04194e-5 0 1 -3.17596e-5 0 1 -9.94132e-7 0 1 -2.34644e-5 0 1 8.96968e-7 0 1 4.0535e-5 0 1 -7.89129e-6 0 1 4.23325e-5 0 1 -8.96965e-7 0 1 -1.01356e-5 0 1 0 0 -1 3.00793e-5 0 -0.5000131 -0.8660179 0 -0.5000131 -0.8660179 0 -0.5006362 -0.8656578 -3.01749e-6 0.5000183 -0.8660148 0 0.4999951 -0.8660283 -2.82983e-6 0.50002 -0.8660139 0 1 2.91592e-5 0 1 2.69625e-5 0 0.4999947 0.8660285 0 0.4999982 0.8660264 0 0.4999698 0.8660429 -5.51715e-6 -0.500611 0.8656725 -6.22263e-5 -0.4999912 0.8660305 0 -0.4999912 0.8660305 0 -1 2.51282e-5 0 0 -2.1908e-7 1 0 0.8660275 0.4999963 0 -2.19079e-7 1 0 -0.8660278 0.4999961 0 -0.8660275 0.4999966 0 -0.8660275 -0.4999966 0 -0.8660275 -0.4999965 0 0 -1 0 0 -1 0 0.8660275 -0.4999965 0 0.8660275 -0.4999966 0 0.8660279 0.4999959 -1 1.4108e-5 0 -1 1.90611e-6 0 -1 1.39422e-5 0 1 5.32394e-5 0 1 2.69094e-6 0 1 5.38838e-5 0 -0.4999913 -0.8660304 0 -0.5006111 -0.8656724 5.56931e-6 0.4999966 -0.8660275 0 0.4999699 -0.8660427 -5.50866e-6 0.4999984 -0.8660264 0 1 4.02013e-6 0 1 -3.12084e-6 0 0.4999949 0.8660285 0 0.4999983 0.8660264 0 0.4999699 0.8660427 -5.50598e-6 -0.5006111 0.8656724 5.58007e-6 -0.4999914 0.8660305 0 -0.4999913 0.8660304 0 0 0 1 0 0.8660275 0.4999966 0 -0.8660278 -0.4999961 0 -1.97172e-7 -1 0 -2.40988e-7 -1 0 0.8660279 -0.4999959 -1 -4.27316e-5 0 -1 5.6166e-6 0 -1 7.49141e-6 0 -1 -4.69402e-5 0 -1 -7.4914e-6 0 -1 4.27317e-5 0 -1 -5.61659e-6 0 -1 4.69402e-5 0 1 2.9152e-6 0 1 2.78845e-5 0 1 2.88887e-5 0 1 -2.95615e-5 0 1 -2.24244e-6 0 1 -2.78845e-5 0 -1 -3.09546e-6 0 -0.4999949 -0.8660285 0 0.4999914 -0.8660304 0 0.5000149 -0.8660169 -5.41697e-6 0.4999914 -0.8660305 0 1 0 0 1 0 0 0.4999914 0.8660304 0 0.4999913 0.8660304 0 0.5000149 0.8660169 -5.42402e-6 -0.499993 0.8660295 0 -1 4.02011e-6 0 -0.8973132 -0.376275 0.2307512 -0.942112 4.69014e-6 -0.3352984 -0.8918067 -0.3918014 -0.2262136 -0.4317043 8.57748e-6 0.9020153 -0.9142313 -0.1014398 0.3922899 -0.4321824 -0.7809677 -0.4508968 -0.3841415 -0.829031 0.4063779 -0.4321815 0.7809763 -0.4508828 -0.3841648 0.06259608 -0.9211402 -0.8916562 0.3920704 0.2263408 -0.899133 0.3739046 -0.2274979 -0.4317192 0.7811667 0.4509958 0.4317043 8.45548e-6 0.9020153 0.4317184 0.7811681 0.4509941 0.4321822 0.7809814 -0.450873 0.4310855 5.905e-6 -0.9023111 0.4321817 -0.780969 -0.4508952 0.4310752 -0.7814412 0.4511364 0.8920061 -0.3936622 0.2221604 0.9339526 -0.06273972 -0.3518472 0.8918067 -0.3918013 -0.2262138 0.8918081 0.3918033 -0.2262048 0.8973167 0.3763126 0.2306763 0.8863946 -0.1137587 0.4487357 -0.8973134 -0.3762748 0.2307511 -0.942112 4.63054e-6 -0.3352984 -0.8918067 -0.3918013 -0.2262136 -0.4317043 8.76216e-6 0.9020153 -0.9142313 -0.1014398 0.3922899 -0.4321826 -0.7809675 -0.4508969 -0.3841416 -0.8290309 0.4063778 -0.4321816 0.7809763 -0.4508828 -0.3841648 0.06259602 -0.9211402 -0.8916563 0.3920703 0.2263407 -0.899133 0.3739045 -0.2274978 -0.4317193 0.7811669 0.4509957 0.4317042 8.50391e-6 0.9020153 0.4317185 0.7811681 0.4509941 0.4321823 0.780969 -0.4508946 0.4310855 3.05255e-5 -0.9023112 0.4321818 -0.7809689 -0.4508953 0.4310753 -0.7814226 0.4511682 0.8920062 -0.393662 0.2221603 0.9339526 -0.06273984 -0.3518472 0.8918067 -0.3918012 -0.2262138 0.8918082 0.3918032 -0.2262046 0.8973168 0.3763126 0.2306762 0.8864139 -0.1137627 0.4486966 0 1.09758e-5 1 0 0.8660274 0.4999966 0 1.07567e-5 1 0 -0.8660222 -0.5000056 0 1.05157e-5 -1 0 1.07567e-5 -1 0 0.8660275 -0.4999964 0 0.866028 -0.4999957 -1 -5.06836e-6 0 -1 -4.61981e-6 0 -1 1.99008e-6 0 -1 5.02059e-5 0 -1 0 0 -1 -4.6198e-6 0 -1 5.45123e-5 0 -1 -5.06836e-6 0 1 5.06836e-6 0 1 4.17132e-6 0 1 -4.05356e-5 0 1 5.46997e-6 0 1 -4.23322e-5 0 1 -1.97354e-6 0 1 7.6017e-6 0 1 -2.53418e-6 0 -1 2.69667e-5 0 -0.5000165 -0.8660159 0 0.5000131 -0.8660179 0 0.4999899 -0.8660312 -2.735e-6 1 2.51501e-5 0 1 3.01089e-5 0 0.4999912 0.8660305 0 0.4999912 0.8660305 0 0.5000147 0.8660169 -5.42775e-6 -0.499993 0.8660296 0 -1 2.91591e-5 0</float_array>
          <technique_common>
            <accessor source="#Mesh6_Group11_Group10_Group1_Model-mesh-normals-array" count="197" stride="3">
              <param name="X" type="float"/>
              <param name="Y" type="float"/>
              <param name="Z" type="float"/>
            </accessor>
          </technique_common>
        </source>
        <source id="Mesh6_Group11_Group10_Group1_Model-mesh-map-0">
          <float_array id="Mesh6_Group11_Group10_Group1_Model-mesh-map-0-array" count="1872">0.128957 0.162779 0.108593 0.171733 0.108593 0.162779 0.128957 0.153824 0.108593 0.162779 0.108593 0.153824 0.162704 0.11297 0.152365 0.133334 0.162704 0.133334 0.08232998 0.172992 0.102694 0.181946 0.102694 0.172992 0.08232998 0.164037 0.102694 0.172992 0.102694 0.164037 0.168415 0.09254395 0.178754 0.112907 0.168415 0.112907 0.089625 0.147448 0.09049999 0.1376129 0.089625 0.137108 0.089625 0.147448 0.09858 0.151607 0.09049999 0.146942 0.09858 0.152617 0.106659 0.146942 0.09858 0.151607 0.107535 0.137108 0.106659 0.146942 0.107535 0.147448 0.09858 0.131938 0.106659 0.1376129 0.107535 0.137108 0.089625 0.137108 0.09858 0.132948 0.09858 0.131938 0.081272 0.157661 0.080397 0.147827 0.081272 0.147321 0.081272 0.157661 0.072317 0.161821 0.080397 0.157156 0.072317 0.162831 0.06423795 0.157156 0.072317 0.161821 0.063362 0.147321 0.06423795 0.157156 0.063362 0.157661 0.072317 0.1421509 0.06423795 0.147827 0.063362 0.147321 0.081272 0.147321 0.072317 0.143162 0.072317 0.1421509 0.117348 0.1342059 0.121276 0.138741 0.121276 0.1342059 0.121276 0.131938 0.117348 0.1342059 0.121276 0.1342059 0.153824 0.09934598 0.156091 0.09481096 0.153824 0.09481096 0.156091 0.09934598 0.160627 0.09481096 0.156091 0.09481096 0.156091 0.09481096 0.160627 0.09254395 0.156091 0.09254395 0.156091 0.09254395 0.153824 0.09481096 0.156091 0.09481096 0.134856 0.1598179 0.138783 0.155283 0.138783 0.1598179 0.138783 0.1620849 0.134856 0.1598179 0.138783 0.1598179 0.11021 0.210234 0.112478 0.205699 0.112478 0.210234 0.11021 0.210234 0.105675 0.205699 0.11021 0.205699 0.11021 0.205699 0.105675 0.203432 0.11021 0.203432 0.11021 0.203432 0.112478 0.205699 0.11021 0.205699 0.191697 0.2036319 0.171333 0.212586 0.171333 0.2036319 0.191697 0.194678 0.171333 0.2036319 0.171333 0.194678 0.07370197 0.194678 0.063362 0.215041 0.07370197 0.215041 0.196137 0.154024 0.2165009 0.1629779 0.2165009 0.154024 0.196137 0.14507 0.2165009 0.154024 0.2165009 0.14507 0.131938 0.194678 0.142278 0.215041 0.131938 0.215041 0.197596 0.210187 0.1984699 0.200353 0.197596 0.199847 0.197596 0.210187 0.20655 0.214347 0.1984699 0.209682 0.215504 0.210187 0.20655 0.214347 0.20655 0.215357 0.215504 0.199847 0.2146289 0.209682 0.215504 0.210187 0.215504 0.199847 0.20655 0.195688 0.2146289 0.200353 0.197596 0.199847 0.20655 0.195688 0.20655 0.194678 0.218423 0.108053 0.2175469 0.09821897 0.218423 0.09771299 0.218423 0.108053 0.209468 0.112213 0.2175469 0.1075479 0.200514 0.108053 0.209468 0.112213 0.209468 0.113223 0.200514 0.09771299 0.201388 0.1075479 0.200514 0.108053 0.200514 0.09771299 0.209468 0.09355396 0.201388 0.09821897 0.218423 0.09771299 0.209468 0.09355396 0.209468 0.09254395 0.118807 0.09481096 0.122734 0.09934598 0.122734 0.09481096 0.122734 0.09254395 0.118807 0.09481096 0.122734 0.09481096 0.118807 0.125609 0.121074 0.121074 0.118807 0.121074 0.121074 0.125609 0.125609 0.121074 0.121074 0.121074 0.121074 0.121074 0.125609 0.118807 0.121074 0.118807 0.121074 0.118807 0.118807 0.121074 0.121074 0.121074 0.120266 0.11021 0.124193 0.105675 0.124193 0.11021 0.124193 0.112477 0.120266 0.11021 0.124193 0.11021 0.08102899 0.1343629 0.083296 0.129828 0.083296 0.1343629 0.08102899 0.1343629 0.07649397 0.129828 0.08102899 0.129828 0.08102899 0.129828 0.07649397 0.127561 0.08102899 0.127561 0.08102899 0.127561 0.083296 0.129828 0.08102899 0.129828 0.190237 0.154024 0.169874 0.1629779 0.169874 0.154024 0.190237 0.14507 0.169874 0.154024 0.169874 0.14507 0.194804 0.09254395 0.184464 0.112907 0.194804 0.112907 0.07941198 0.196337 0.09977596 0.205291 0.09977596 0.196337 0.07941198 0.187382 0.09977596 0.196337 0.09977596 0.187382 0.1903 0.118807 0.20064 0.13917 0.1903 0.13917 0.12902 0.1445299 0.129895 0.1346949 0.12902 0.13419 0.12902 0.1445299 0.137974 0.148689 0.129895 0.144024 0.146928 0.1445299 0.137974 0.148689 0.137974 0.149699 0.146928 0.13419 0.146054 0.144024 0.146928 0.1445299 0.146928 0.13419 0.137974 0.13003 0.146054 0.1346949 0.12902 0.13419 0.137974 0.13003 0.137974 0.12902 0.148388 0.108053 0.147513 0.09821897 0.148388 0.09771299 0.148388 0.108053 0.139433 0.112213 0.147513 0.1075479 0.130479 0.108053 0.139433 0.112213 0.139433 0.113223 0.130479 0.09771299 0.131354 0.1075479 0.130479 0.108053 0.130479 0.09771299 0.139433 0.09355396 0.131354 0.09821897 0.148388 0.09771299 0.139433 0.09355396 0.139433 0.09254395 0.108593 0.123992 0.11252 0.128527 0.11252 0.123992 0.11252 0.121725 0.108593 0.123992 0.11252 0.123992 0.063362 0.1358219 0.06562995 0.131287 0.063362 0.131287 0.06562995 0.1358219 0.07016497 0.131287 0.06562995 0.131287 0.06562995 0.131287 0.07016497 0.12902 0.06562995 0.12902 0.06562995 0.12902 0.063362 0.131287 0.06562995 0.131287 0.08524799 0.120423 0.08917498 0.1158879 0.08917498 0.120423 0.08917498 0.122691 0.08524799 0.120423 0.08917498 0.120423 0.09999698 0.125609 0.102264 0.121074 0.102264 0.125609 0.09999698 0.125609 0.09546196 0.121074 0.09999698 0.121074 0.09999698 0.121074 0.09546196 0.118807 0.09999698 0.118807 0.09999698 0.118807 0.102264 0.121074 0.09999698 0.121074 0.16143 0.153832 0.155842 0.163509 0.16143 0.160283 0.16143 0.153832 0.155842 0.147988 0.155842 0.150606 0.16143 0.153832 0.163697 0.161593 0.163697 0.152523 0.155842 0.163509 0.163697 0.161593 0.16143 0.160283 0.155842 0.163509 0.147988 0.161593 0.155842 0.166128 0.155842 0.163509 0.150255 0.153832 0.150255 0.160283 0.155842 0.150606 0.147988 0.152523 0.150255 0.153832 0.04877197 0.02070999 0.951228 0.01285499 0.951228 0.02070999 0.03418099 0.004999995 0.04325097 0.907457 0.03418099 0.907457 0.951228 0.03473997 0.04877197 0.02688598 0.04877197 0.03473997 0.951228 0.04259496 0.04877197 0.03473997 0.04877197 0.04259496 0.04877197 0.995 0.05784195 0.09254395 0.04877197 0.09254395 0.04877197 0.01285499 0.951228 0.004999995 0.951228 0.01285499 0.151714 0.202596 0.157302 0.20844 0.149447 0.203905 0.157302 0.192919 0.151714 0.202596 0.151714 0.1961449 0.157302 0.192919 0.149447 0.194835 0.157302 0.1903 0.151714 0.202596 0.149447 0.194835 0.151714 0.1961449 0.157302 0.192919 0.165157 0.194835 0.162889 0.1961449 0.162889 0.202596 0.157302 0.192919 0.162889 0.1961449 0.157302 0.205822 0.165157 0.203905 0.157302 0.20844 0.162889 0.202596 0.165157 0.194835 0.165157 0.203905 0.150255 0.153832 0.147988 0.161593 0.150255 0.160283 0.10015 0.09838795 0.09456199 0.108065 0.10015 0.104839 0.10015 0.09838795 0.09456199 0.09254395 0.09456199 0.09516197 0.10015 0.09838795 0.102417 0.106148 0.102417 0.09707796 0.09456199 0.108065 0.102417 0.106148 0.10015 0.104839 0.09456199 0.108065 0.08670699 0.106148 0.09456199 0.110683 0.09456199 0.108065 0.08897495 0.09838795 0.08897495 0.104839 0.09456199 0.09516197 0.08670699 0.09707796 0.08897495 0.09838795 0.04877197 0.06448096 0.951228 0.05662697 0.951228 0.06448096 0.004999995 0.004999995 0.01406997 0.907457 0.004999995 0.907457 0.951228 0.07851195 0.04877197 0.07065796 0.04877197 0.07851195 0.951228 0.08636701 0.04877197 0.07851195 0.04877197 0.08636701 0.01959097 0.907457 0.02866095 0.004999995 0.01959097 0.004999995 0.04877197 0.05662697 0.951228 0.04877197 0.951228 0.05662697 0.06562995 0.117971 0.071217 0.123815 0.063362 0.11928 0.071217 0.108294 0.06562995 0.117971 0.06562995 0.111519 0.071217 0.108294 0.063362 0.11021 0.071217 0.105675 0.06562995 0.117971 0.063362 0.11021 0.06562995 0.111519 0.071217 0.108294 0.07907199 0.11021 0.07680499 0.111519 0.07680499 0.117971 0.071217 0.108294 0.07680499 0.111519 0.071217 0.121197 0.07907199 0.11928 0.071217 0.123815 0.07680499 0.117971 0.07907199 0.11021 0.07907199 0.11928 0.08897495 0.09838795 0.08670699 0.106148 0.08897495 0.104839 0.20064 0.168415 0.1903 0.188778 0.20064 0.188778 0.173584 0.118807 0.168415 0.13917 0.173584 0.13917 0.183924 0.118807 0.173584 0.13917 0.183924 0.13917 0.164037 0.1773689 0.184401 0.186324 0.184401 0.1773689 0.164037 0.168415 0.184401 0.1773689 0.184401 0.168415 0.063362 0.168415 0.07370197 0.188778 0.063362 0.188778 0.134856 0.183924 0.135731 0.17409 0.134856 0.173584 0.134856 0.183924 0.14381 0.188084 0.135731 0.183419 0.14381 0.189094 0.15189 0.183419 0.14381 0.188084 0.152765 0.173584 0.15189 0.183419 0.152765 0.183924 0.14381 0.168415 0.15189 0.17409 0.152765 0.173584 0.134856 0.173584 0.14381 0.169425 0.14381 0.168415 0.126502 0.192678 0.125627 0.182844 0.126502 0.182339 0.126502 0.192678 0.117548 0.196838 0.125627 0.192173 0.117548 0.197848 0.109468 0.192173 0.117548 0.196838 0.108593 0.182339 0.109468 0.192173 0.108593 0.192678 0.117548 0.177169 0.109468 0.182844 0.108593 0.182339 0.126502 0.182339 0.117548 0.178179 0.117548 0.177169 0.108593 0.09481096 0.112521 0.09934598 0.112521 0.09481096 0.112521 0.09254395 0.108593 0.09481096 0.112521 0.09481096 0.107134 0.115396 0.109401 0.110861 0.107134 0.110861 0.109401 0.115396 0.113936 0.110861 0.109401 0.110861 0.109401 0.110861 0.113936 0.108593 0.109401 0.108593 0.109401 0.108593 0.107134 0.110861 0.109401 0.110861 0.063362 0.09707796 0.06729 0.09254395 0.06729 0.09707796 0.06729 0.09934598 0.063362 0.09707796 0.06729 0.09707796 0.07811099 0.09934598 0.08037799 0.09481096 0.08037799 0.09934598 0.07811099 0.09934598 0.07357597 0.09481096 0.07811099 0.09481096 0.07811099 0.09481096 0.07357597 0.09254395 0.07811099 0.09254395 0.07811099 0.09254395 0.08037799 0.09481096 0.07811099 0.09481096 0.128957 0.162779 0.128957 0.171733 0.108593 0.171733 0.128957 0.153824 0.128957 0.162779 0.108593 0.162779 0.162704 0.11297 0.152365 0.11297 0.152365 0.133334 0.08232998 0.172992 0.08232998 0.181946 0.102694 0.181946 0.08232998 0.164037 0.08232998 0.172992 0.102694 0.172992 0.168415 0.09254395 0.178754 0.09254395 0.178754 0.112907 0.089625 0.147448 0.09049999 0.146942 0.09049999 0.1376129 0.089625 0.147448 0.09858 0.152617 0.09858 0.151607 0.09858 0.152617 0.107535 0.147448 0.106659 0.146942 0.107535 0.137108 0.106659 0.1376129 0.106659 0.146942 0.09858 0.131938 0.09858 0.132948 0.106659 0.1376129 0.089625 0.137108 0.09049999 0.1376129 0.09858 0.132948 0.081272 0.157661 0.080397 0.157156 0.080397 0.147827 0.081272 0.157661 0.072317 0.162831 0.072317 0.161821 0.072317 0.162831 0.063362 0.157661 0.06423795 0.157156 0.063362 0.147321 0.06423795 0.147827 0.06423795 0.157156 0.072317 0.1421509 0.072317 0.143162 0.06423795 0.147827 0.081272 0.147321 0.080397 0.147827 0.072317 0.143162 0.117348 0.1342059 0.117348 0.138741 0.121276 0.138741 0.153824 0.09934598 0.156091 0.09934598 0.156091 0.09481096 0.156091 0.09934598 0.160627 0.09934598 0.160627 0.09481096 0.156091 0.09481096 0.160627 0.09481096 0.160627 0.09254395 0.134856 0.1598179 0.134856 0.155283 0.138783 0.155283 0.11021 0.210234 0.11021 0.205699 0.112478 0.205699 0.11021 0.210234 0.105675 0.210234 0.105675 0.205699 0.11021 0.205699 0.105675 0.205699 0.105675 0.203432 0.191697 0.2036319 0.191697 0.212586 0.171333 0.212586 0.191697 0.194678 0.191697 0.2036319 0.171333 0.2036319 0.07370197 0.194678 0.063362 0.194678 0.063362 0.215041 0.196137 0.154024 0.196137 0.1629779 0.2165009 0.1629779 0.196137 0.14507 0.196137 0.154024 0.2165009 0.154024 0.131938 0.194678 0.142278 0.194678 0.142278 0.215041 0.197596 0.210187 0.1984699 0.209682 0.1984699 0.200353 0.197596 0.210187 0.20655 0.215357 0.20655 0.214347 0.215504 0.210187 0.2146289 0.209682 0.20655 0.214347 0.215504 0.199847 0.2146289 0.200353 0.2146289 0.209682 0.215504 0.199847 0.20655 0.194678 0.20655 0.195688 0.197596 0.199847 0.1984699 0.200353 0.20655 0.195688 0.218423 0.108053 0.2175469 0.1075479 0.2175469 0.09821897 0.218423 0.108053 0.209468 0.113223 0.209468 0.112213 0.200514 0.108053 0.201388 0.1075479 0.209468 0.112213 0.200514 0.09771299 0.201388 0.09821897 0.201388 0.1075479 0.200514 0.09771299 0.209468 0.09254395 0.209468 0.09355396 0.218423 0.09771299 0.2175469 0.09821897 0.209468 0.09355396 0.118807 0.09481096 0.118807 0.09934598 0.122734 0.09934598 0.118807 0.125609 0.121074 0.125609 0.121074 0.121074 0.121074 0.125609 0.125609 0.125609 0.125609 0.121074 0.121074 0.121074 0.125609 0.121074 0.125609 0.118807 0.120266 0.11021 0.120266 0.105675 0.124193 0.105675 0.08102899 0.1343629 0.08102899 0.129828 0.083296 0.129828 0.08102899 0.1343629 0.07649397 0.1343629 0.07649397 0.129828 0.08102899 0.129828 0.07649397 0.129828 0.07649397 0.127561 0.190237 0.154024 0.190237 0.1629779 0.169874 0.1629779 0.190237 0.14507 0.190237 0.154024 0.169874 0.154024 0.194804 0.09254395 0.184464 0.09254395 0.184464 0.112907 0.07941198 0.196337 0.07941198 0.205291 0.09977596 0.205291 0.07941198 0.187382 0.07941198 0.196337 0.09977596 0.196337 0.1903 0.118807 0.20064 0.118807 0.20064 0.13917 0.12902 0.1445299 0.129895 0.144024 0.129895 0.1346949 0.12902 0.1445299 0.137974 0.149699 0.137974 0.148689 0.146928 0.1445299 0.146054 0.144024 0.137974 0.148689 0.146928 0.13419 0.146054 0.1346949 0.146054 0.144024 0.146928 0.13419 0.137974 0.12902 0.137974 0.13003 0.12902 0.13419 0.129895 0.1346949 0.137974 0.13003 0.148388 0.108053 0.147513 0.1075479 0.147513 0.09821897 0.148388 0.108053 0.139433 0.113223 0.139433 0.112213 0.130479 0.108053 0.131354 0.1075479 0.139433 0.112213 0.130479 0.09771299 0.131354 0.09821897 0.131354 0.1075479 0.130479 0.09771299 0.139433 0.09254395 0.139433 0.09355396 0.148388 0.09771299 0.147513 0.09821897 0.139433 0.09355396 0.108593 0.123992 0.108593 0.128527 0.11252 0.128527 0.063362 0.1358219 0.06562995 0.1358219 0.06562995 0.131287 0.06562995 0.1358219 0.07016497 0.1358219 0.07016497 0.131287 0.06562995 0.131287 0.07016497 0.131287 0.07016497 0.12902 0.08524799 0.120423 0.08524799 0.1158879 0.08917498 0.1158879 0.09999698 0.125609 0.09999698 0.121074 0.102264 0.121074 0.09999698 0.125609 0.09546196 0.125609 0.09546196 0.121074 0.09999698 0.121074 0.09546196 0.121074 0.09546196 0.118807 0.16143 0.153832 0.155842 0.150606 0.155842 0.163509 0.16143 0.153832 0.163697 0.152523 0.155842 0.147988 0.16143 0.153832 0.16143 0.160283 0.163697 0.161593 0.155842 0.163509 0.155842 0.166128 0.163697 0.161593 0.155842 0.163509 0.150255 0.160283 0.147988 0.161593 0.155842 0.163509 0.155842 0.150606 0.150255 0.153832 0.155842 0.150606 0.155842 0.147988 0.147988 0.152523 0.04877197 0.02070999 0.04877197 0.01285499 0.951228 0.01285499 0.03418099 0.004999995 0.04325097 0.004999995 0.04325097 0.907457 0.951228 0.03473997 0.951228 0.02688598 0.04877197 0.02688598 0.951228 0.04259496 0.951228 0.03473997 0.04877197 0.03473997 0.04877197 0.995 0.05784195 0.995 0.05784195 0.09254395 0.04877197 0.01285499 0.04877197 0.004999995 0.951228 0.004999995 0.151714 0.202596 0.157302 0.205822 0.157302 0.20844 0.157302 0.192919 0.157302 0.205822 0.151714 0.202596 0.157302 0.192919 0.151714 0.1961449 0.149447 0.194835 0.151714 0.202596 0.149447 0.203905 0.149447 0.194835 0.157302 0.192919 0.157302 0.1903 0.165157 0.194835 0.162889 0.202596 0.157302 0.205822 0.157302 0.192919 0.157302 0.205822 0.162889 0.202596 0.165157 0.203905 0.162889 0.202596 0.162889 0.1961449 0.165157 0.194835 0.150255 0.153832 0.147988 0.152523 0.147988 0.161593 0.10015 0.09838795 0.09456199 0.09516197 0.09456199 0.108065 0.10015 0.09838795 0.102417 0.09707796 0.09456199 0.09254395 0.10015 0.09838795 0.10015 0.104839 0.102417 0.106148 0.09456199 0.108065 0.09456199 0.110683 0.102417 0.106148 0.09456199 0.108065 0.08897495 0.104839 0.08670699 0.106148 0.09456199 0.108065 0.09456199 0.09516197 0.08897495 0.09838795 0.09456199 0.09516197 0.09456199 0.09254395 0.08670699 0.09707796 0.04877197 0.06448096 0.04877197 0.05662697 0.951228 0.05662697 0.004999995 0.004999995 0.01406997 0.004999995 0.01406997 0.907457 0.951228 0.07851195 0.951228 0.07065796 0.04877197 0.07065796 0.951228 0.08636701 0.951228 0.07851195 0.04877197 0.07851195 0.01959097 0.907457 0.02866095 0.907457 0.02866095 0.004999995 0.04877197 0.05662697 0.04877197 0.04877197 0.951228 0.04877197 0.06562995 0.117971 0.071217 0.121197 0.071217 0.123815 0.071217 0.108294 0.071217 0.121197 0.06562995 0.117971 0.071217 0.108294 0.06562995 0.111519 0.063362 0.11021 0.06562995 0.117971 0.063362 0.11928 0.063362 0.11021 0.071217 0.108294 0.071217 0.105675 0.07907199 0.11021 0.07680499 0.117971 0.071217 0.121197 0.071217 0.108294 0.071217 0.121197 0.07680499 0.117971 0.07907199 0.11928 0.07680499 0.117971 0.07680499 0.111519 0.07907199 0.11021 0.08897495 0.09838795 0.08670699 0.09707796 0.08670699 0.106148 0.20064 0.168415 0.1903 0.168415 0.1903 0.188778 0.173584 0.118807 0.168415 0.118807 0.168415 0.13917 0.183924 0.118807 0.173584 0.118807 0.173584 0.13917 0.164037 0.1773689 0.164037 0.186324 0.184401 0.186324 0.164037 0.168415 0.164037 0.1773689 0.184401 0.1773689 0.063362 0.168415 0.07370197 0.168415 0.07370197 0.188778 0.134856 0.183924 0.135731 0.183419 0.135731 0.17409 0.134856 0.183924 0.14381 0.189094 0.14381 0.188084 0.14381 0.189094 0.152765 0.183924 0.15189 0.183419 0.152765 0.173584 0.15189 0.17409 0.15189 0.183419 0.14381 0.168415 0.14381 0.169425 0.15189 0.17409 0.134856 0.173584 0.135731 0.17409 0.14381 0.169425 0.126502 0.192678 0.125627 0.192173 0.125627 0.182844 0.126502 0.192678 0.117548 0.197848 0.117548 0.196838 0.117548 0.197848 0.108593 0.192678 0.109468 0.192173 0.108593 0.182339 0.109468 0.182844 0.109468 0.192173 0.117548 0.177169 0.117548 0.178179 0.109468 0.182844 0.126502 0.182339 0.125627 0.182844 0.117548 0.178179 0.108593 0.09481096 0.108593 0.09934598 0.112521 0.09934598 0.107134 0.115396 0.109401 0.115396 0.109401 0.110861 0.109401 0.115396 0.113936 0.115396 0.113936 0.110861 0.109401 0.110861 0.113936 0.110861 0.113936 0.108593 0.063362 0.09707796 0.063362 0.09254395 0.06729 0.09254395 0.07811099 0.09934598 0.07811099 0.09481096 0.08037799 0.09481096 0.07811099 0.09934598 0.07357597 0.09934598 0.07357597 0.09481096 0.07811099 0.09481096 0.07357597 0.09481096 0.07357597 0.09254395</float_array>
          <technique_common>
            <accessor source="#Mesh6_Group11_Group10_Group1_Model-mesh-map-0-array" count="936" stride="2">
              <param name="S" type="float"/>
              <param name="T" type="float"/>
            </accessor>
          </technique_common>
        </source>
        <vertices id="Mesh6_Group11_Group10_Group1_Model-mesh-vertices">
          <input semantic="POSITION" source="#Mesh6_Group11_Group10_Group1_Model-mesh-positions"/>
        </vertices>
        <polylist material="FrontColor-material" count="312">
          <input semantic="VERTEX" source="#Mesh6_Group11_Group10_Group1_Model-mesh-vertices" offset="0"/>
          <input semantic="NORMAL" source="#Mesh6_Group11_Group10_Group1_Model-mesh-normals" offset="1"/>
          <input semantic="TEXCOORD" source="#Mesh6_Group11_Group10_Group1_Model-mesh-map-0" offset="2" set="0"/>
          <vcount>3 3 3 3 3 3 3 3 3 3 3 3 3 3 3 3 3 3 3 3 3 3 3 3 3 3 3 3 3 3 3 3 3 3 3 3 3 3 3 3 3 3 3 3 3 3 3 3 3 3 3 3 3 3 3 3 3 3 3 3 3 3 3 3 3 3 3 3 3 3 3 3 3 3 3 3 3 3 3 3 3 3 3 3 3 3 3 3 3 3 3 3 3 3 3 3 3 3 3 3 3 3 3 3 3 3 3 3 3 3 3 3 3 3 3 3 3 3 3 3 3 3 3 3 3 3 3 3 3 3 3 3 3 3 3 3 3 3 3 3 3 3 3 3 3 3 3 3 3 3 3 3 3 3 3 3 3 3 3 3 3 3 3 3 3 3 3 3 3 3 3 3 3 3 3 3 3 3 3 3 3 3 3 3 3 3 3 3 3 3 3 3 3 3 3 3 3 3 3 3 3 3 3 3 3 3 3 3 3 3 3 3 3 3 3 3 3 3 3 3 3 3 3 3 3 3 3 3 3 3 3 3 3 3 3 3 3 3 3 3 3 3 3 3 3 3 3 3 3 3 3 3 3 3 3 3 3 3 3 3 3 3 3 3 3 3 3 3 3 3 3 3 3 3 3 3 3 3 3 3 3 3 3 3 3 3 3 3 3 3 3 3 3 3 3 3 3 3 3 3 3 3 3 3 3 3 3 3 3 3 3 3 </vcount>
          <p>1 0 0 3 1 1 0 2 2 5 3 3 0 2 4 4 4 5 7 5 6 4 4 7 6 5 8 9 6 9 6 5 10 8 7 11 11 8 12 8 7 13 10 9 14 10 9 15 2 10 16 11 8 17 10 11 18 13 12 19 3 13 20 10 11 21 14 14 22 12 15 23 8 16 24 15 17 25 14 14 26 4 18 27 15 17 28 6 19 29 0 20 30 16 21 31 4 18 32 3 13 33 17 22 34 0 20 35 2 23 36 19 24 37 11 25 38 2 23 39 20 26 40 18 27 41 1 28 42 21 29 43 20 26 44 7 30 45 21 29 46 5 31 47 9 32 48 22 33 49 7 30 50 11 25 51 23 34 52 9 32 53 25 35 54 27 36 55 24 37 56 28 38 57 25 35 58 24 37 59 28 38 60 30 39 61 29 40 62 24 37 63 31 41 64 30 39 65 30 39 66 33 42 67 32 43 68 32 43 69 29 40 70 30 39 71 32 43 72 35 44 73 34 45 74 36 46 75 32 43 76 34 45 77 34 45 78 38 47 79 36 46 80 34 45 81 39 48 82 37 49 83 37 49 84 26 50 85 25 35 86 25 35 87 38 47 88 37 49 89 41 51 90 43 52 91 40 53 92 45 54 93 40 53 94 44 55 95 47 56 96 44 55 97 46 57 98 49 58 99 46 57 100 48 59 101 51 60 102 48 59 103 50 61 104 50 61 105 42 62 106 51 60 107 50 11 108 53 12 109 43 13 110 50 11 111 54 15 112 52 15 113 46 63 114 54 15 115 48 15 116 44 64 117 55 65 118 46 63 119 44 64 120 57 15 121 56 15 122 43 13 123 57 15 124 40 15 125 42 23 126 59 24 127 51 25 128 42 23 129 60 34 130 58 27 131 45 66 132 60 34 133 41 34 134 47 67 135 61 68 136 45 66 137 47 67 138 63 34 139 62 34 140 51 25 141 63 34 142 49 34 143 65 15 144 67 69 145 64 69 146 68 70 147 65 15 148 64 69 149 68 70 150 70 71 151 69 72 152 64 69 153 71 73 154 70 71 155 70 71 156 73 74 157 72 75 158 72 75 159 69 72 160 70 71 161 72 75 162 75 76 163 74 77 164 76 78 165 72 75 166 74 77 167 74 77 168 78 79 169 76 78 170 74 77 171 79 80 172 77 81 173 77 81 174 66 15 175 65 15 176 65 15 177 78 79 178 77 81 179 81 82 180 83 83 181 80 82 182 85 55 183 80 82 184 84 55 185 87 56 186 84 55 187 86 84 188 89 85 189 86 84 190 88 86 191 91 9 192 88 86 193 90 87 194 90 87 195 82 83 196 91 9 197 90 88 198 93 89 199 83 90 200 90 88 201 94 15 202 92 91 203 86 92 204 94 15 205 88 15 206 84 93 207 95 94 208 86 92 209 84 93 210 97 15 211 96 95 212 83 90 213 97 15 214 80 15 215 82 96 216 99 97 217 91 98 218 82 96 219 100 34 220 98 34 221 85 99 222 100 34 223 81 34 224 87 100 225 101 101 226 85 99 227 87 100 228 103 34 229 102 34 230 91 98 231 103 34 232 89 34 233 105 102 234 107 103 235 104 69 236 108 70 237 105 102 238 104 69 239 108 70 240 110 104 241 109 105 242 104 69 243 111 106 244 110 104 245 110 104 246 113 107 247 112 108 248 112 108 249 109 105 250 110 104 251 112 108 252 115 109 253 114 110 254 116 111 255 112 108 256 114 110 257 114 110 258 118 79 259 116 111 260 114 110 261 119 80 262 117 112 263 117 112 264 106 113 265 105 102 266 105 102 267 118 79 268 117 112 269 120 114 270 122 115 271 123 116 272 120 114 273 125 117 274 121 118 275 120 114 276 126 119 277 124 120 278 122 115 279 126 119 280 123 116 281 122 115 282 129 121 283 127 122 284 122 115 285 130 123 286 128 124 287 121 118 288 131 125 289 130 123 290 131 125 291 133 126 292 132 127 293 129 121 294 132 127 295 134 128 296 127 122 297 134 128 298 135 129 299 126 119 300 135 129 301 136 130 302 124 120 303 136 130 304 137 131 305 125 117 306 137 131 307 133 126 308 138 132 309 133 126 310 137 131 311 141 133 312 138 132 313 140 134 314 141 133 315 136 130 316 135 129 317 138 132 318 136 130 319 140 134 320 141 133 321 134 128 322 142 135 323 143 136 324 141 133 325 142 135 326 139 137 327 132 127 328 133 126 329 143 136 330 134 128 331 132 127 332 130 123 333 129 121 334 128 124 335 144 138 336 146 139 337 147 140 338 144 138 339 149 141 340 145 142 341 144 138 342 150 143 343 148 144 344 146 139 345 150 143 346 147 140 347 146 139 348 153 145 349 151 146 350 146 139 351 154 147 352 152 148 353 145 142 354 155 149 355 154 147 356 155 149 357 157 150 358 156 151 359 153 145 360 156 151 361 158 152 362 151 146 363 158 152 364 159 153 365 150 143 366 159 153 367 160 154 368 148 144 369 160 154 370 161 155 371 149 141 372 161 155 373 157 150 374 162 156 375 157 150 376 161 155 377 165 157 378 162 156 379 164 158 380 165 157 381 160 154 382 159 153 383 162 156 384 160 154 385 164 158 386 165 157 387 158 152 388 166 159 389 167 160 390 165 157 391 166 159 392 163 161 393 156 151 394 157 150 395 167 160 396 158 152 397 156 151 398 154 147 399 153 145 400 152 148 401 169 162 402 171 163 403 168 164 404 173 4 405 168 164 406 172 4 407 175 5 408 172 4 409 174 165 410 177 166 411 174 165 412 176 167 413 179 168 414 176 167 415 178 169 416 178 169 417 170 52 418 179 168 419 178 88 420 181 89 421 171 90 422 178 88 423 182 170 424 180 91 425 176 171 426 183 172 427 182 170 428 172 173 429 183 172 430 174 174 431 168 175 432 184 176 433 172 173 434 171 90 435 185 177 436 168 175 437 170 96 438 187 97 439 179 98 440 170 96 441 188 178 442 186 34 443 169 179 444 189 180 445 188 178 446 175 181 447 189 180 448 173 182 449 177 183 450 190 184 451 175 181 452 179 98 453 191 185 454 177 183 455 193 186 456 195 187 457 192 37 458 196 38 459 193 186 460 192 37 461 196 38 462 198 188 463 197 189 464 192 37 465 199 188 466 198 188 467 198 188 468 201 190 469 200 191 470 200 191 471 197 189 472 198 188 473 200 191 474 203 192 475 202 193 476 204 194 477 200 191 478 202 193 479 202 193 480 206 47 481 204 194 482 202 193 483 207 48 484 205 195 485 205 195 486 194 196 487 193 186 488 193 186 489 206 47 490 205 195 491 1 0 492 2 10 493 3 1 494 5 3 495 1 0 496 0 2 497 7 5 498 5 3 499 4 4 500 9 6 501 7 5 502 6 5 503 11 8 504 9 6 505 8 7 506 10 9 507 3 1 508 2 10 509 10 11 510 12 15 511 13 12 512 10 11 513 8 16 514 14 14 515 8 16 516 6 19 517 15 17 518 4 18 519 16 21 520 15 17 521 0 20 522 17 22 523 16 21 524 3 13 525 13 12 526 17 22 527 2 23 528 18 27 529 19 24 530 2 23 531 1 28 532 20 26 533 1 28 534 5 31 535 21 29 536 7 30 537 22 33 538 21 29 539 9 32 540 23 34 541 22 33 542 11 25 543 19 24 544 23 34 545 25 35 546 26 50 547 27 36 548 28 38 549 24 37 550 30 39 551 24 37 552 27 36 553 31 41 554 30 39 555 31 41 556 33 42 557 32 43 558 33 42 559 35 44 560 34 45 561 37 49 562 38 47 563 34 45 564 35 44 565 39 48 566 37 49 567 39 48 568 26 50 569 41 51 570 42 62 571 43 52 572 45 54 573 41 51 574 40 53 575 47 56 576 45 54 577 44 55 578 49 58 579 47 56 580 46 57 581 51 60 582 49 58 583 48 59 584 50 61 585 43 52 586 42 62 587 50 11 588 52 15 589 53 12 590 50 11 591 48 15 592 54 15 593 46 63 594 55 65 595 54 15 596 44 64 597 56 15 598 55 65 599 44 64 600 40 15 601 57 15 602 43 13 603 53 12 604 57 15 605 42 23 606 58 27 607 59 24 608 42 23 609 41 34 610 60 34 611 45 66 612 61 68 613 60 34 614 47 67 615 62 34 616 61 68 617 47 67 618 49 34 619 63 34 620 51 25 621 59 24 622 63 34 623 65 15 624 66 15 625 67 69 626 68 70 627 64 69 628 70 71 629 64 69 630 67 69 631 71 73 632 70 71 633 71 73 634 73 74 635 72 75 636 73 74 637 75 76 638 74 77 639 77 81 640 78 79 641 74 77 642 75 76 643 79 80 644 77 81 645 79 80 646 66 15 647 81 82 648 82 83 649 83 83 650 85 55 651 81 82 652 80 82 653 87 56 654 85 55 655 84 55 656 89 85 657 87 56 658 86 84 659 91 9 660 89 85 661 88 86 662 90 87 663 83 83 664 82 83 665 90 88 666 92 91 667 93 89 668 90 88 669 88 15 670 94 15 671 86 92 672 95 94 673 94 15 674 84 93 675 96 95 676 95 94 677 84 93 678 80 15 679 97 15 680 83 90 681 93 89 682 97 15 683 82 96 684 98 34 685 99 97 686 82 96 687 81 34 688 100 34 689 85 99 690 101 101 691 100 34 692 87 100 693 102 34 694 101 101 695 87 100 696 89 34 697 103 34 698 91 98 699 99 97 700 103 34 701 105 102 702 106 113 703 107 103 704 108 70 705 104 69 706 110 104 707 104 69 708 107 103 709 111 106 710 110 104 711 111 106 712 113 107 713 112 108 714 113 107 715 115 109 716 114 110 717 117 112 718 118 79 719 114 110 720 115 109 721 119 80 722 117 112 723 119 80 724 106 113 725 120 114 726 121 118 727 122 115 728 120 114 729 124 120 730 125 117 731 120 114 732 123 116 733 126 119 734 122 115 735 127 122 736 126 119 737 122 115 738 128 124 739 129 121 740 122 115 741 121 118 742 130 123 743 121 118 744 125 117 745 131 125 746 131 125 747 125 117 748 133 126 749 129 121 750 131 125 751 132 127 752 127 122 753 129 121 754 134 128 755 126 119 756 127 122 757 135 129 758 124 120 759 126 119 760 136 130 761 125 117 762 124 120 763 137 131 764 138 132 765 139 137 766 133 126 767 141 133 768 139 137 769 138 132 770 141 133 771 140 134 772 136 130 773 138 132 774 137 131 775 136 130 776 141 133 777 135 129 778 134 128 779 143 136 780 139 137 781 141 133 782 139 137 783 143 136 784 132 127 785 143 136 786 142 135 787 134 128 788 130 123 789 131 125 790 129 121 791 144 138 792 145 142 793 146 139 794 144 138 795 148 144 796 149 141 797 144 138 798 147 140 799 150 143 800 146 139 801 151 146 802 150 143 803 146 139 804 152 148 805 153 145 806 146 139 807 145 142 808 154 147 809 145 142 810 149 141 811 155 149 812 155 149 813 149 141 814 157 150 815 153 145 816 155 149 817 156 151 818 151 146 819 153 145 820 158 152 821 150 143 822 151 146 823 159 153 824 148 144 825 150 143 826 160 154 827 149 141 828 148 144 829 161 155 830 162 156 831 163 161 832 157 150 833 165 157 834 163 161 835 162 156 836 165 157 837 164 158 838 160 154 839 162 156 840 161 155 841 160 154 842 165 157 843 159 153 844 158 152 845 167 160 846 163 161 847 165 157 848 163 161 849 167 160 850 156 151 851 167 160 852 166 159 853 158 152 854 154 147 855 155 149 856 153 145 857 169 162 858 170 52 859 171 163 860 173 4 861 169 162 862 168 164 863 175 5 864 173 4 865 172 4 866 177 166 867 175 5 868 174 165 869 179 168 870 177 166 871 176 167 872 178 169 873 171 163 874 170 52 875 178 88 876 180 91 877 181 89 878 178 88 879 176 171 880 182 170 881 176 171 882 174 174 883 183 172 884 172 173 885 184 176 886 183 172 887 168 175 888 185 177 889 184 176 890 171 90 891 181 89 892 185 177 893 170 96 894 186 34 895 187 97 896 170 96 897 169 179 898 188 178 899 169 179 900 173 182 901 189 180 902 175 181 903 190 184 904 189 180 905 177 183 906 191 185 907 190 184 908 179 98 909 187 97 910 191 185 911 193 186 912 194 196 913 195 187 914 196 38 915 192 37 916 198 188 917 192 37 918 195 187 919 199 188 920 198 188 921 199 188 922 201 190 923 200 191 924 201 190 925 203 192 926 202 193 927 205 195 928 206 47 929 202 193 930 203 192 931 207 48 932 205 195 933 207 48 934 194 196 935</p>
        </polylist>
      </mesh>
    </geometry>
  </library_geometries>
  <library_controllers/>
  <library_visual_scenes>
    <visual_scene id="Scene" name="Scene">
      <node id="Mesh6_Group11_Group10_Group1_Model" name="Mesh6_Group11_Group10_Group1_Model" type="NODE">
        <matrix sid="transform">1 0 0 0 0 -1.62921e-7 -1 0 0 1 -1.62921e-7 0 0 0 0 1</matrix>
        <instance_geometry url="#Mesh6_Group11_Group10_Group1_Model-mesh" name="Mesh6_Group11_Group10_Group1_Model">
          <bind_material>
            <technique_common>
              <instance_material symbol="FrontColor-material" target="#FrontColor-material">
                <bind_vertex_input semantic="UVMap" input_semantic="TEXCOORD" input_set="0"/>
              </instance_material>
            </technique_common>
          </bind_material>
        </instance_geometry>
      </node>
    </visual_scene>
  </library_visual_scenes>
  <scene>
    <instance_visual_scene url="#Scene"/>
  </scene>
</COLLADA>