<?xml version="1.0" encoding="utf-8"?>
<COLLADA xmlns="http://www.collada.org/2005/11/COLLADASchema" version="1.4.1">
  <asset>
    <contributor>
      <author>Blender User</author>
      <authoring_tool>Blender 2.78.0 commit date:2016-10-24, commit time:12:20, hash:e8299c8</authoring_tool>
    </contributor>
    <created>2021-10-29T19:00:03</created>
    <modified>2021-10-29T19:00:03</modified>
    <unit name="meter" meter="1"/>
    <up_axis>Z_UP</up_axis>
  </asset>
  <library_images>
    <image id="video_store_poster_01__color_png" name="video_store_poster_01__color_png">
      <init_from>/I:/3D_Asset_Packages/For%20Sale/Video_Store/Poster_01/Model/video_store_poster_01__color.png</init_from>
    </image>
  </library_images>
  <library_effects>
    <effect id="FrontColor-effect">
      <profile_COMMON>
        <newparam sid="video_store_poster_01__color_png-surface">
          <surface type="2D">
            <init_from>video_store_poster_01__color_png</init_from>
          </surface>
        </newparam>
        <newparam sid="video_store_poster_01__color_png-sampler">
          <sampler2D>
            <source>video_store_poster_01__color_png-surface</source>
          </sampler2D>
        </newparam>
        <technique sid="common">
          <phong>
            <emission>
              <color sid="emission">0 0 0 1</color>
            </emission>
            <ambient>
              <color sid="ambient">0 0 0 1</color>
            </ambient>
            <diffuse>
              <texture texture="video_store_poster_01__color_png-sampler" texcoord="UVMap"/>
            </diffuse>
            <specular>
              <color sid="specular">1 1 1 1</color>
            </specular>
            <shininess>
              <float sid="shininess">52</float>
            </shininess>
            <transparent opaque="A_ONE">
              <color>1 1 1 1</color>
            </transparent>
            <index_of_refraction>
              <float sid="index_of_refraction">1</float>
            </index_of_refraction>
          </phong>
        </technique>
      </profile_COMMON>
    </effect>
  </library_effects>
  <library_materials>
    <material id="FrontColor-material" name="FrontColor">
      <instance_effect url="#FrontColor-effect"/>
    </material>
  </library_materials>
  <library_geometries>
    <geometry id="Mesh2_Group1_Model-mesh" name="Mesh2_Group1_Model">
      <mesh>
        <source id="Mesh2_Group1_Model-mesh-positions">
          <float_array id="Mesh2_Group1_Model-mesh-positions-array" count="204">-0.08687996 -0.431774 0.007951974 -0.299848 -0.308817 0.007951974 -0.29964 -0.349443 0.01335096 -0.157661 -0.431414 0.01335096 -0.015998 -0.431959 0.004087984 -0.299955 -0.268017 0.004087984 0.05495196 -0.432028 0.001766979 -0.299994 -0.227099 0.001766979 0.116635 -0.426667 9.92e-4 -0.3 -0.186123 9.93e-4 0.110879 -0.432035 0.001156985 0.3 -0.255677 9.92e-4 0.1738809 -0.431997 0.002866983 0.299963 -0.314424 0.002866983 0.125935 -0.432037 0.00109899 0.299703 -0.372932 0.008476972 0.236662 -0.431718 0.008476972 0.298999 -0.430963 0.01778 -0.3 0.467963 9.93e-4 0.3 0.467963 9.93e-4 -0.299298 -0.389835 0.02027499 -0.228308 -0.430821 0.02027499 -0.298788 -0.429938 0.02871096 -0.29964 -0.349443 0.01335096 -0.299848 -0.308817 0.007951974 -0.299913 -0.308929 0.006967961 -0.299726 -0.349592 0.01237297 -0.299955 -0.268017 0.004087984 -0.299998 -0.268092 0.003098964 -0.299994 -0.227099 0.001766979 -0.300016 -0.227137 7.75e-4 -0.3 -0.186123 9.93e-4 -0.300005 -0.186133 0 -0.298788 -0.429938 0.02871096 -0.299298 -0.389835 0.02027499 -0.299405 -0.390021 0.019306 -0.298906 -0.430142 0.02774697 -0.3 0.467963 9.93e-4 -0.3 0.467963 0 0.3 0.467963 9.93e-4 0.3 0.467963 0 0.3 -0.255677 9.92e-4 0.300015 -0.255692 0 0.299963 -0.314424 0.002866983 0.300022 -0.314487 0.001877963 0.299703 -0.372932 0.008476972 0.299821 -0.373058 0.007498979 0.298999 -0.430963 0.01778 0.299145 -0.43112 0.01681095 0.236662 -0.431718 0.008476972 0.236779 -0.431845 0.007498979 0.1738809 -0.431997 0.002866983 0.174005 -0.432 0.001877963 0.125935 -0.432037 0.00109899 0.125952 -0.432028 1.06e-4 0.110879 -0.432035 0.001156985 0.110871 -0.432058 1.64e-4 0.05495196 -0.432028 0.001766979 0.05492997 -0.432065 7.75e-4 -0.015998 -0.431959 0.004087984 -0.01604098 -0.432034 0.003098964 -0.08687996 -0.431774 0.007951974 -0.08694499 -0.431886 0.006967961 -0.157661 -0.431414 0.01335096 -0.157748 -0.431563 0.01237297 -0.228308 -0.430821 0.02027499 -0.228416 -0.431007 0.019306 0.11665 -0.426683 0</float_array>
          <technique_common>
            <accessor source="#Mesh2_Group1_Model-mesh-positions-array" count="68" stride="3">
              <param name="X" type="float"/>
              <param name="Y" type="float"/>
              <param name="Z" type="float"/>
            </accessor>
          </technique_common>
        </source>
        <source id="Mesh2_Group1_Model-mesh-normals">
          <float_array id="Mesh2_Group1_Model-mesh-normals-array" count="288">0.06526911 0.113049 0.9914434 0.08683222 0.1503988 0.9848048 0.06527489 0.1130604 0.9914417 0.04358136 0.075486 0.996194 0.04358524 0.07549476 0.9961932 0.02181416 0.03777951 0.999048 0.0218296 0.03781163 0.9990465 0.003635764 0.006295442 0.9999736 -0.01035869 0.006737828 0.9999237 -0.009911835 0.0106284 0.9998944 -0.05946904 0.06377279 0.9961911 -0.01648306 -0.008624315 0.9998269 -0.05194294 0.02792876 0.9982595 0.007376372 0.02285122 0.9997117 -0.1184687 0.1270447 0.9847968 -0.1184229 0.1269945 0.9848089 -0.1476163 0.158301 0.9762942 7.11829e-7 -6.53038e-7 1 0 0 1 0.08682423 0.1503853 0.9848076 0.108228 0.187456 0.9762924 0.1188421 0.205841 0.9713425 0.1082204 0.1874429 0.9762958 -0.9978361 0.003867924 0.06563705 -0.9962357 0.006643652 0.08643007 -0.9962071 0.006685674 0.08675748 -0.9990615 0.002016007 0.0432679 -0.9978582 0.003838121 0.06530225 -0.999751 5.10176e-4 0.02231168 -0.9990619 0.00201708 0.04325914 -0.9997575 4.91281e-4 0.02201664 -1 -2.00478e-4 -2.79803e-4 -0.994107 0.01021492 0.1079216 -0.9928503 0.01235485 0.1187249 -0.9928296 0.01238662 0.1188955 -0.9941345 0.01017463 0.1076712 -0.9999442 1.65462e-4 0.01056534 -1 0 4.92661e-6 -0.9999442 1.65385e-4 0.01057034 0 1 0 0.999886 -6.35432e-5 0.01510387 1 0 1.36928e-5 1 0 0 0.9982258 0.002162158 0.05950331 0.9998822 -5.17003e-5 0.01535129 0.9929248 0.007221937 0.1185252 0.9982307 0.002148687 0.05942255 0.9928677 0.007269203 0.1189995 0.989093 0.01154053 0.1468406 -0.007317602 -0.9917389 0.1280646 -0.01161253 -0.9873897 0.1578825 -0.01165342 -0.9873407 0.1581853 -0.00152707 -0.9989441 0.04591786 -0.003807067 -0.9964601 0.08398228 0.001354098 -0.999994 0.00318849 0.001556515 -0.9999588 -0.008947908 0.001520156 -0.9999639 -0.008364677 8.63505e-5 -0.9997456 0.02255564 3.87811e-4 -0.9993078 0.03720211 4.20074e-5 -0.999732 0.02315002 0.00203669 -0.9971426 0.07551509 3.98037e-4 -0.9992983 0.03745204 0.003565192 -0.9936093 0.1128178 0.002037882 -0.9971424 0.0755186 0.006658077 -0.9886866 0.1498481 0.003556787 -0.9936095 0.1128171 0.01050847 -0.9822501 0.1872816 0.006691753 -0.988636 0.1501801 0.01232779 -0.9786089 0.2053601 0.01051843 -0.9822339 0.1873659 0.1183854 -0.1269525 -0.9848188 0.0594182 -0.0637179 -0.9961975 0.1184221 -0.1269944 -0.9848089 0.01038175 -0.006583094 -0.9999246 0.01488721 -0.01596373 -0.9997618 0.05195236 -0.02778565 -0.998263 0.0165137 0.008914291 -0.9998239 -0.1082201 -0.1874426 -0.9762959 -0.08680933 -0.1503573 -0.9848131 -0.0868138 -0.150363 -0.9848119 -0.1082126 -0.1874325 -0.9762986 -0.118842 -0.205838 -0.9713431 -0.06525123 -0.1130177 -0.9914481 -0.06523799 -0.1129954 -0.9914516 -0.04356521 -0.07545673 -0.9961969 -0.04357337 -0.07547086 -0.9961956 -0.02179241 -0.03775095 -0.9990496 -0.02180266 -0.03775924 -0.9990491 -0.005448698 -0.009436964 -0.9999406 0.01487416 -0.01595127 -0.9997621 -0.007408916 -0.02250933 -0.9997193 0.1476131 -0.1582972 -0.9762953 -1 -2.10661e-4 -4.98176e-4 -1 0 0 0.9890472 0.01158434 0.1471444 0.01234519 -0.9785748 0.2055216</float_array>
          <technique_common>
            <accessor source="#Mesh2_Group1_Model-mesh-normals-array" count="96" stride="3">
              <param name="X" type="float"/>
              <param name="Y" type="float"/>
              <param name="Z" type="float"/>
            </accessor>
          </technique_common>
        </source>
        <source id="Mesh2_Group1_Model-mesh-map-0">
          <float_array id="Mesh2_Group1_Model-mesh-map-0-array" count="516">0.005124986 0.106009 0.121681 0.005510985 0.179704 0.005215942 0.00503695 0.139454 0.179704 0.005215942 0.237808 0.005063951 0.005004942 0.172996 0.237808 0.005063951 0.295969 0.005006968 0.004999995 0.206586 0.295969 0.005006968 0.346533 0.009401977 0.346533 0.009401977 0.496846 0.14957 0.004999995 0.206586 0.346533 0.009401977 0.496815 0.1014119 0.496846 0.14957 0.354157 0.004999995 0.39346 0.005032956 0.346533 0.009401977 0.354157 0.004999995 0.346533 0.009401977 0.341815 0.005001962 0.496815 0.1014119 0.444925 0.005260944 0.496602 0.053451 0.496025 0.005879998 0.496602 0.053451 0.444925 0.005260944 0.004999995 0.206586 0.496846 0.742768 0.004999995 0.742768 0.005294978 0.07270598 0.06376898 0.005996942 0.121681 0.005510985 0.005993962 0.00672096 0.06376898 0.005996942 0.005574941 0.03959494 0.786044 0.774355 0.819469 0.770731 0.819346 0.769929 0.752598 0.777523 0.786135 0.775162 0.786044 0.774355 0.752598 0.777523 0.719087 0.780239 0.75266 0.778333 0.719056 0.779425 0.685474 0.780874 0.719087 0.780239 0.852458 0.764253 0.885499 0.758128 0.885332 0.757338 0.819346 0.769929 0.85261 0.765048 0.852458 0.764253 0.685466 0.78006 0.149284 0.780874 0.685474 0.780874 0.534855 0.704683 0.534041 0.2128379 0.534855 0.2128379 0.148818 0.751281 0.742017 0.750468 0.742017 0.751282 0.100661 0.752818 0.148806 0.750468 0.148818 0.751281 0.100661 0.752818 0.05259597 0.756615 0.100609 0.752007 0.05269896 0.757416 0.004999995 0.764248 0.05259597 0.756615 0.51971 0.264058 0.512878 0.2128379 0.512084 0.212957 0.51971 0.264058 0.524309 0.315522 0.520512 0.263962 0.52512 0.31542 0.520512 0.263962 0.524309 0.315522 0.524309 0.315522 0.526572 0.354811 0.52512 0.31542 0.525758 0.354825 0.526525 0.367174 0.526572 0.354811 0.525211 0.413013 0.526525 0.367174 0.525711 0.367167 0.523308 0.471174 0.526024 0.413031 0.525211 0.413013 0.523308 0.471174 0.520947 0.529332 0.524119 0.471209 0.515715 0.587301 0.520947 0.529332 0.52014 0.529279 0.510039 0.645213 0.516516 0.587372 0.515715 0.587301 0.510039 0.645213 0.503914 0.703086 0.510833 0.645302 0.554966 0.206421 0.503123 0.110217 0.503288 0.15823 0.503123 0.110217 0.653441 0.202189 0.503129 0.06202 0.653441 0.202189 0.606425 0.206548 0.645816 0.206571 0.936306 0.205734 0.994762 0.138994 0.878377 0.206189 0.994499 0.172136 0.936306 0.205734 0.99409 0.205025 0.878377 0.206189 0.994916 0.105661 0.820337 0.206454 0.820337 0.206454 0.994985 0.07218497 0.762214 0.206575 0.762214 0.206575 0.995 0.03861296 0.704036 0.206601 0.704036 0.206601 0.994991 0.004999995 0.653441 0.202189 0.994991 0.004999995 0.503129 0.06202 0.653441 0.202189 0.658179 0.206595 0.653441 0.202189 0.645816 0.206571 0.554966 0.206421 0.503288 0.15823 0.503842 0.205826 0.005124986 0.106009 0.005294978 0.07270598 0.121681 0.005510985 0.00503695 0.139454 0.005124986 0.106009 0.179704 0.005215942 0.005004942 0.172996 0.00503695 0.139454 0.237808 0.005063951 0.341815 0.005001962 0.346533 0.009401977 0.295969 0.005006968 0.004999995 0.206586 0.005004942 0.172996 0.295969 0.005006968 0.346533 0.009401977 0.39346 0.005032956 0.496815 0.1014119 0.496815 0.1014119 0.39346 0.005032956 0.444925 0.005260944 0.004999995 0.206586 0.496846 0.14957 0.496846 0.742768 0.005294978 0.07270598 0.005574941 0.03959494 0.06376898 0.005996942 0.786044 0.774355 0.786135 0.775162 0.819469 0.770731 0.752598 0.777523 0.75266 0.778333 0.786135 0.775162 0.752598 0.777523 0.719056 0.779425 0.719087 0.780239 0.719056 0.779425 0.685466 0.78006 0.685474 0.780874 0.852458 0.764253 0.85261 0.765048 0.885499 0.758128 0.819346 0.769929 0.819469 0.770731 0.85261 0.765048 0.685466 0.78006 0.149284 0.78006 0.149284 0.780874 0.534855 0.704683 0.534041 0.704683 0.534041 0.2128379 0.148818 0.751281 0.148806 0.750468 0.742017 0.750468 0.100661 0.752818 0.100609 0.752007 0.148806 0.750468 0.100661 0.752818 0.05269896 0.757416 0.05259597 0.756615 0.05269896 0.757416 0.005128979 0.765043 0.004999995 0.764248 0.51971 0.264058 0.520512 0.263962 0.512878 0.2128379 0.524309 0.315522 0.525758 0.354825 0.526572 0.354811 0.525758 0.354825 0.525711 0.367167 0.526525 0.367174 0.525211 0.413013 0.526024 0.413031 0.526525 0.367174 0.523308 0.471174 0.524119 0.471209 0.526024 0.413031 0.523308 0.471174 0.52014 0.529279 0.520947 0.529332 0.515715 0.587301 0.516516 0.587372 0.520947 0.529332 0.510039 0.645213 0.510833 0.645302 0.516516 0.587372 0.510039 0.645213 0.503123 0.702989 0.503914 0.703086 0.554966 0.206421 0.606425 0.206548 0.503123 0.110217 0.503123 0.110217 0.606425 0.206548 0.653441 0.202189 0.936306 0.205734 0.994499 0.172136 0.994762 0.138994 0.878377 0.206189 0.994762 0.138994 0.994916 0.105661 0.820337 0.206454 0.994916 0.105661 0.994985 0.07218497 0.762214 0.206575 0.994985 0.07218497 0.995 0.03861296 0.653441 0.202189 0.658179 0.206595 0.704036 0.206601 0.704036 0.206601 0.995 0.03861296 0.994991 0.004999995</float_array>
          <technique_common>
            <accessor source="#Mesh2_Group1_Model-mesh-map-0-array" count="258" stride="2">
              <param name="S" type="float"/>
              <param name="T" type="float"/>
            </accessor>
          </technique_common>
        </source>
        <vertices id="Mesh2_Group1_Model-mesh-vertices">
          <input semantic="POSITION" source="#Mesh2_Group1_Model-mesh-positions"/>
        </vertices>
        <polylist material="FrontColor-material" count="86">
          <input semantic="VERTEX" source="#Mesh2_Group1_Model-mesh-vertices" offset="0"/>
          <input semantic="NORMAL" source="#Mesh2_Group1_Model-mesh-normals" offset="1"/>
          <input semantic="TEXCOORD" source="#Mesh2_Group1_Model-mesh-map-0" offset="2" set="0"/>
          <vcount>3 3 3 3 3 3 3 3 3 3 3 3 3 3 3 3 3 3 3 3 3 3 3 3 3 3 3 3 3 3 3 3 3 3 3 3 3 3 3 3 3 3 3 3 3 3 3 3 3 3 3 3 3 3 3 3 3 3 3 3 3 3 3 3 3 3 3 3 3 3 3 3 3 3 3 3 3 3 3 3 3 3 3 3 3 3 </vcount>
          <p>1 0 0 3 1 1 0 2 2 5 3 3 0 2 4 4 4 5 7 5 6 4 4 7 6 6 8 9 7 9 6 6 10 8 8 11 8 8 12 11 9 13 9 7 14 8 8 15 13 10 16 11 9 17 14 11 18 12 12 19 8 8 20 14 11 21 8 8 22 10 13 23 13 10 24 16 14 25 15 15 26 17 16 27 15 15 28 16 14 29 9 7 30 19 17 31 18 18 32 2 19 33 21 20 34 3 1 35 22 21 36 21 20 37 20 22 38 24 23 39 26 24 40 23 25 41 27 26 42 25 27 43 24 23 44 27 26 45 30 28 46 28 29 47 29 30 48 32 31 49 30 28 50 34 32 51 36 33 52 33 34 53 23 25 54 35 35 55 34 32 56 31 36 57 38 37 58 32 38 59 39 39 60 38 39 61 37 39 62 41 40 63 40 41 64 39 42 65 43 43 66 42 44 67 41 40 68 43 43 69 46 45 70 44 46 71 45 47 72 48 48 73 46 45 74 49 49 75 48 50 76 47 51 77 49 49 78 51 52 79 50 53 80 52 54 81 50 53 82 51 52 83 51 52 84 54 55 85 52 54 86 53 56 87 56 57 88 54 55 89 57 58 90 56 57 91 55 59 92 59 60 93 58 61 94 57 58 95 59 60 96 62 62 97 60 63 98 63 64 99 62 62 100 61 65 101 65 66 102 64 67 103 63 64 104 65 66 105 36 68 106 66 69 107 50 70 108 44 71 109 46 72 110 44 71 111 67 73 112 42 74 113 67 73 114 52 75 115 54 76 116 66 77 117 26 78 118 64 79 119 35 80 120 66 77 121 36 81 122 64 79 123 25 82 124 62 83 125 62 83 126 28 84 127 60 85 128 60 85 129 30 86 130 58 87 131 58 87 132 32 88 133 67 73 134 32 88 135 42 89 136 67 73 137 56 90 138 67 73 139 54 76 140 50 70 141 46 72 142 48 91 143 1 0 144 2 19 145 3 1 146 5 3 147 1 0 148 0 2 149 7 5 150 5 3 151 4 4 152 10 13 153 8 8 154 6 6 155 9 7 156 7 5 157 6 6 158 8 8 159 12 12 160 13 10 161 13 10 162 12 12 163 16 14 164 9 7 165 11 9 166 19 17 167 2 19 168 20 22 169 21 20 170 24 23 171 25 27 172 26 24 173 27 26 174 28 29 175 25 27 176 27 26 177 29 30 178 30 28 179 29 30 180 31 92 181 32 31 182 34 32 183 35 35 184 36 33 185 23 25 186 26 24 187 35 35 188 31 36 189 37 93 190 38 37 191 39 39 192 40 39 193 38 39 194 41 40 195 42 44 196 40 41 197 43 43 198 44 46 199 42 44 200 43 43 201 45 47 202 46 45 203 45 47 204 47 94 205 48 48 206 49 49 207 50 53 208 48 50 209 51 52 210 53 56 211 54 55 212 53 56 213 55 59 214 56 57 215 57 58 216 58 61 217 56 57 218 59 60 219 60 63 220 58 61 221 59 60 222 61 65 223 62 62 224 63 64 225 64 67 226 62 62 227 65 66 228 66 69 229 64 67 230 65 66 231 33 95 232 36 68 233 50 70 234 52 75 235 44 71 236 44 71 237 52 75 238 67 73 239 66 77 240 35 80 241 26 78 242 64 79 243 26 78 244 25 82 245 62 83 246 25 82 247 28 84 248 60 85 249 28 84 250 30 86 251 67 73 252 56 90 253 58 87 254 58 87 255 30 86 256 32 88 257</p>
        </polylist>
      </mesh>
    </geometry>
  </library_geometries>
  <library_controllers/>
  <library_visual_scenes>
    <visual_scene id="Scene" name="Scene">
      <node id="Mesh2_Group1_Model" name="Mesh2_Group1_Model" type="NODE">
        <matrix sid="transform">1 0 0 0 0 -1.62921e-7 -1 0 0 1 -1.62921e-7 0 0 0 0 1</matrix>
        <instance_geometry url="#Mesh2_Group1_Model-mesh" name="Mesh2_Group1_Model">
          <bind_material>
            <technique_common>
              <instance_material symbol="FrontColor-material" target="#FrontColor-material">
                <bind_vertex_input semantic="UVMap" input_semantic="TEXCOORD" input_set="0"/>
              </instance_material>
            </technique_common>
          </bind_material>
        </instance_geometry>
      </node>
    </visual_scene>
  </library_visual_scenes>
  <scene>
    <instance_visual_scene url="#Scene"/>
  </scene>
</COLLADA>